G04 #@! TF.GenerationSoftware,KiCad,Pcbnew,5.1.10-88a1d61d58~88~ubuntu18.04.1*
G04 #@! TF.CreationDate,2021-09-30T15:30:20+02:00*
G04 #@! TF.ProjectId,preamplifier,70726561-6d70-46c6-9966-6965722e6b69,rev?*
G04 #@! TF.SameCoordinates,Original*
G04 #@! TF.FileFunction,Legend,Top*
G04 #@! TF.FilePolarity,Positive*
%FSLAX46Y46*%
G04 Gerber Fmt 4.6, Leading zero omitted, Abs format (unit mm)*
G04 Created by KiCad (PCBNEW 5.1.10-88a1d61d58~88~ubuntu18.04.1) date 2021-09-30 15:30:20*
%MOMM*%
%LPD*%
G01*
G04 APERTURE LIST*
%ADD10C,0.150000*%
%ADD11C,0.120000*%
%ADD12C,0.127000*%
%ADD13C,0.250000*%
%ADD14C,0.200000*%
%ADD15C,0.010000*%
%ADD16R,1.600000X1.300000*%
%ADD17R,1.600000X2.000000*%
%ADD18R,1.220000X0.650000*%
%ADD19R,0.800000X0.900000*%
%ADD20R,5.000000X1.200000*%
%ADD21R,5.000000X1.600000*%
%ADD22R,1.800000X1.750000*%
G04 APERTURE END LIST*
D10*
X184612595Y-105997428D02*
X185374500Y-105997428D01*
X184993547Y-106378380D02*
X184993547Y-105616476D01*
X186326880Y-105378380D02*
X185850690Y-105378380D01*
X185803071Y-105854571D01*
X185850690Y-105806952D01*
X185945928Y-105759333D01*
X186184023Y-105759333D01*
X186279261Y-105806952D01*
X186326880Y-105854571D01*
X186374500Y-105949809D01*
X186374500Y-106187904D01*
X186326880Y-106283142D01*
X186279261Y-106330761D01*
X186184023Y-106378380D01*
X185945928Y-106378380D01*
X185850690Y-106330761D01*
X185803071Y-106283142D01*
X186660214Y-105378380D02*
X186993547Y-106378380D01*
X187326880Y-105378380D01*
X184739595Y-102949428D02*
X185501500Y-102949428D01*
X186453880Y-102330380D02*
X185977690Y-102330380D01*
X185930071Y-102806571D01*
X185977690Y-102758952D01*
X186072928Y-102711333D01*
X186311023Y-102711333D01*
X186406261Y-102758952D01*
X186453880Y-102806571D01*
X186501500Y-102901809D01*
X186501500Y-103139904D01*
X186453880Y-103235142D01*
X186406261Y-103282761D01*
X186311023Y-103330380D01*
X186072928Y-103330380D01*
X185977690Y-103282761D01*
X185930071Y-103235142D01*
X186787214Y-102330380D02*
X187120547Y-103330380D01*
X187453880Y-102330380D01*
X183723595Y-107521428D02*
X184485500Y-107521428D01*
X184104547Y-107902380D02*
X184104547Y-107140476D01*
X185390261Y-106902380D02*
X185199785Y-106902380D01*
X185104547Y-106950000D01*
X185056928Y-106997619D01*
X184961690Y-107140476D01*
X184914071Y-107330952D01*
X184914071Y-107711904D01*
X184961690Y-107807142D01*
X185009309Y-107854761D01*
X185104547Y-107902380D01*
X185295023Y-107902380D01*
X185390261Y-107854761D01*
X185437880Y-107807142D01*
X185485500Y-107711904D01*
X185485500Y-107473809D01*
X185437880Y-107378571D01*
X185390261Y-107330952D01*
X185295023Y-107283333D01*
X185104547Y-107283333D01*
X185009309Y-107330952D01*
X184961690Y-107378571D01*
X184914071Y-107473809D01*
X186390261Y-106902380D02*
X185914071Y-106902380D01*
X185866452Y-107378571D01*
X185914071Y-107330952D01*
X186009309Y-107283333D01*
X186247404Y-107283333D01*
X186342642Y-107330952D01*
X186390261Y-107378571D01*
X186437880Y-107473809D01*
X186437880Y-107711904D01*
X186390261Y-107807142D01*
X186342642Y-107854761D01*
X186247404Y-107902380D01*
X186009309Y-107902380D01*
X185914071Y-107854761D01*
X185866452Y-107807142D01*
X186723595Y-106902380D02*
X187056928Y-107902380D01*
X187390261Y-106902380D01*
X185263404Y-103902000D02*
X185168166Y-103854380D01*
X185025309Y-103854380D01*
X184882452Y-103902000D01*
X184787214Y-103997238D01*
X184739595Y-104092476D01*
X184691976Y-104282952D01*
X184691976Y-104425809D01*
X184739595Y-104616285D01*
X184787214Y-104711523D01*
X184882452Y-104806761D01*
X185025309Y-104854380D01*
X185120547Y-104854380D01*
X185263404Y-104806761D01*
X185311023Y-104759142D01*
X185311023Y-104425809D01*
X185120547Y-104425809D01*
X185739595Y-104854380D02*
X185739595Y-103854380D01*
X186311023Y-104854380D01*
X186311023Y-103854380D01*
X186787214Y-104854380D02*
X186787214Y-103854380D01*
X187025309Y-103854380D01*
X187168166Y-103902000D01*
X187263404Y-103997238D01*
X187311023Y-104092476D01*
X187358642Y-104282952D01*
X187358642Y-104425809D01*
X187311023Y-104616285D01*
X187263404Y-104711523D01*
X187168166Y-104806761D01*
X187025309Y-104854380D01*
X186787214Y-104854380D01*
X195088000Y-103728380D02*
X195278476Y-103728380D01*
X195373714Y-103776000D01*
X195468952Y-103871238D01*
X195516571Y-104061714D01*
X195516571Y-104395047D01*
X195468952Y-104585523D01*
X195373714Y-104680761D01*
X195278476Y-104728380D01*
X195088000Y-104728380D01*
X194992761Y-104680761D01*
X194897523Y-104585523D01*
X194849904Y-104395047D01*
X194849904Y-104061714D01*
X194897523Y-103871238D01*
X194992761Y-103776000D01*
X195088000Y-103728380D01*
X195945142Y-103728380D02*
X195945142Y-104537904D01*
X195992761Y-104633142D01*
X196040380Y-104680761D01*
X196135619Y-104728380D01*
X196326095Y-104728380D01*
X196421333Y-104680761D01*
X196468952Y-104633142D01*
X196516571Y-104537904D01*
X196516571Y-103728380D01*
X196849904Y-103728380D02*
X197421333Y-103728380D01*
X197135619Y-104728380D02*
X197135619Y-103728380D01*
X195064190Y-106330761D02*
X195207047Y-106378380D01*
X195445142Y-106378380D01*
X195540380Y-106330761D01*
X195588000Y-106283142D01*
X195635619Y-106187904D01*
X195635619Y-106092666D01*
X195588000Y-105997428D01*
X195540380Y-105949809D01*
X195445142Y-105902190D01*
X195254666Y-105854571D01*
X195159428Y-105806952D01*
X195111809Y-105759333D01*
X195064190Y-105664095D01*
X195064190Y-105568857D01*
X195111809Y-105473619D01*
X195159428Y-105426000D01*
X195254666Y-105378380D01*
X195492761Y-105378380D01*
X195635619Y-105426000D01*
X196064190Y-106378380D02*
X196064190Y-105378380D01*
X197064190Y-105426000D02*
X196968952Y-105378380D01*
X196826095Y-105378380D01*
X196683238Y-105426000D01*
X196588000Y-105521238D01*
X196540380Y-105616476D01*
X196492761Y-105806952D01*
X196492761Y-105949809D01*
X196540380Y-106140285D01*
X196588000Y-106235523D01*
X196683238Y-106330761D01*
X196826095Y-106378380D01*
X196921333Y-106378380D01*
X197064190Y-106330761D01*
X197111809Y-106283142D01*
X197111809Y-105949809D01*
X196921333Y-105949809D01*
D11*
X157805658Y-109488500D02*
X157331142Y-109488500D01*
X157805658Y-108443500D02*
X157331142Y-108443500D01*
X161455980Y-109666500D02*
X161174820Y-109666500D01*
X161455980Y-108646500D02*
X161174820Y-108646500D01*
X170081500Y-107423000D02*
X170081500Y-107803000D01*
X170081500Y-102763000D02*
X170081500Y-103143000D01*
X170081500Y-104923000D02*
X170081500Y-105643000D01*
X166341500Y-102763000D02*
X166341500Y-104043000D01*
X166341500Y-106523000D02*
X166341500Y-107803000D01*
X170081500Y-102763000D02*
X166341500Y-102763000D01*
X170081500Y-107803000D02*
X166341500Y-107803000D01*
X163657000Y-103365500D02*
X163657000Y-107275500D01*
X163657000Y-107275500D02*
X165527000Y-107275500D01*
X165527000Y-107275500D02*
X165527000Y-103365500D01*
X167905820Y-100721700D02*
X168186980Y-100721700D01*
X167905820Y-101741700D02*
X168186980Y-101741700D01*
X160410000Y-106716000D02*
X162170000Y-106716000D01*
X162170000Y-103646000D02*
X159740000Y-103646000D01*
D12*
X194135000Y-101422100D02*
X194135000Y-102022100D01*
X188135000Y-101422100D02*
X188135000Y-102022100D01*
X188135000Y-108122100D02*
X188135000Y-108722100D01*
X194135000Y-108722100D02*
X194135000Y-108122100D01*
X189035000Y-109272100D02*
X188735000Y-109772100D01*
X189335000Y-109772100D02*
X189035000Y-109272100D01*
X188735000Y-109772100D02*
X189335000Y-109772100D01*
X194135000Y-101422100D02*
X188135000Y-101422100D01*
X194135000Y-108722100D02*
X188135000Y-108722100D01*
D11*
X157278800Y-106529921D02*
X157278800Y-106855479D01*
X156258800Y-106529921D02*
X156258800Y-106855479D01*
X159002000Y-102080279D02*
X159002000Y-101754721D01*
X160022000Y-102080279D02*
X160022000Y-101754721D01*
X149443221Y-107313000D02*
X149768779Y-107313000D01*
X149443221Y-108333000D02*
X149768779Y-108333000D01*
X151946500Y-100611500D02*
X150186500Y-100611500D01*
X150186500Y-103681500D02*
X152616500Y-103681500D01*
X145598000Y-101538500D02*
X144668000Y-101538500D01*
X142438000Y-101538500D02*
X143368000Y-101538500D01*
X142438000Y-101538500D02*
X142438000Y-103698500D01*
X145598000Y-101538500D02*
X145598000Y-102998500D01*
X161077642Y-107110000D02*
X161552158Y-107110000D01*
X161077642Y-108155000D02*
X161552158Y-108155000D01*
X148604500Y-104982242D02*
X148604500Y-105456758D01*
X147559500Y-104982242D02*
X147559500Y-105456758D01*
X164100742Y-108634000D02*
X164575258Y-108634000D01*
X164100742Y-109679000D02*
X164575258Y-109679000D01*
X170857142Y-100709200D02*
X171331658Y-100709200D01*
X170857142Y-101754200D02*
X171331658Y-101754200D01*
X167623258Y-109679000D02*
X167148742Y-109679000D01*
X167623258Y-108634000D02*
X167148742Y-108634000D01*
X147080500Y-101807242D02*
X147080500Y-102281758D01*
X146035500Y-101807242D02*
X146035500Y-102281758D01*
X154550342Y-102245900D02*
X155024858Y-102245900D01*
X154550342Y-103290900D02*
X155024858Y-103290900D01*
X155075658Y-104764100D02*
X154601142Y-104764100D01*
X155075658Y-103719100D02*
X154601142Y-103719100D01*
X146066742Y-108253000D02*
X146541258Y-108253000D01*
X146066742Y-109298000D02*
X146541258Y-109298000D01*
D13*
X197595400Y-105072100D02*
G75*
G03*
X197595400Y-105072100I-125000J0D01*
G01*
D10*
X202805400Y-101072100D02*
X198105400Y-101072100D01*
X198105400Y-101072100D02*
X198105400Y-109072100D01*
X202805400Y-109072100D02*
X198105400Y-109072100D01*
D14*
X132585000Y-107779000D02*
G75*
G03*
X132585000Y-107779000I-100000J0D01*
G01*
D12*
X132035000Y-102829000D02*
X132035000Y-107229000D01*
X135935000Y-102829000D02*
X132035000Y-102829000D01*
X135935000Y-107229000D02*
X135935000Y-102829000D01*
X132035000Y-107229000D02*
X135935000Y-107229000D01*
D14*
X128140000Y-107779000D02*
G75*
G03*
X128140000Y-107779000I-100000J0D01*
G01*
D12*
X127590000Y-102829000D02*
X127590000Y-107229000D01*
X131490000Y-102829000D02*
X127590000Y-102829000D01*
X131490000Y-107229000D02*
X131490000Y-102829000D01*
X127590000Y-107229000D02*
X131490000Y-107229000D01*
D14*
X123695000Y-107779000D02*
G75*
G03*
X123695000Y-107779000I-100000J0D01*
G01*
D12*
X123145000Y-102829000D02*
X123145000Y-107229000D01*
X127045000Y-102829000D02*
X123145000Y-102829000D01*
X127045000Y-107229000D02*
X127045000Y-102829000D01*
X123145000Y-107229000D02*
X127045000Y-107229000D01*
D14*
X119250000Y-107779000D02*
G75*
G03*
X119250000Y-107779000I-100000J0D01*
G01*
D12*
X118700000Y-102829000D02*
X118700000Y-107229000D01*
X122600000Y-102829000D02*
X118700000Y-102829000D01*
X122600000Y-107229000D02*
X122600000Y-102829000D01*
X118700000Y-107229000D02*
X122600000Y-107229000D01*
D14*
X114805000Y-107779000D02*
G75*
G03*
X114805000Y-107779000I-100000J0D01*
G01*
D12*
X114255000Y-102829000D02*
X114255000Y-107229000D01*
X118155000Y-102829000D02*
X114255000Y-102829000D01*
X118155000Y-107229000D02*
X118155000Y-102829000D01*
X114255000Y-107229000D02*
X118155000Y-107229000D01*
D14*
X110360000Y-107779000D02*
G75*
G03*
X110360000Y-107779000I-100000J0D01*
G01*
D12*
X109810000Y-102829000D02*
X109810000Y-107229000D01*
X113710000Y-102829000D02*
X109810000Y-102829000D01*
X113710000Y-107229000D02*
X113710000Y-102829000D01*
X109810000Y-107229000D02*
X113710000Y-107229000D01*
D14*
X105915000Y-107779000D02*
G75*
G03*
X105915000Y-107779000I-100000J0D01*
G01*
D12*
X105365000Y-102829000D02*
X105365000Y-107229000D01*
X109265000Y-102829000D02*
X105365000Y-102829000D01*
X109265000Y-107229000D02*
X109265000Y-102829000D01*
X105365000Y-107229000D02*
X109265000Y-107229000D01*
D14*
X101470000Y-107779000D02*
G75*
G03*
X101470000Y-107779000I-100000J0D01*
G01*
D12*
X100920000Y-102829000D02*
X100920000Y-107229000D01*
X104820000Y-102829000D02*
X100920000Y-102829000D01*
X104820000Y-107229000D02*
X104820000Y-102829000D01*
X100920000Y-107229000D02*
X104820000Y-107229000D01*
D14*
X97025000Y-107779000D02*
G75*
G03*
X97025000Y-107779000I-100000J0D01*
G01*
D12*
X96475000Y-102829000D02*
X96475000Y-107229000D01*
X100375000Y-102829000D02*
X96475000Y-102829000D01*
X100375000Y-107229000D02*
X100375000Y-102829000D01*
X96475000Y-107229000D02*
X100375000Y-107229000D01*
D14*
X92580000Y-107779000D02*
G75*
G03*
X92580000Y-107779000I-100000J0D01*
G01*
D12*
X92030000Y-102829000D02*
X92030000Y-107229000D01*
X95930000Y-102829000D02*
X92030000Y-102829000D01*
X95930000Y-107229000D02*
X95930000Y-102829000D01*
X92030000Y-107229000D02*
X95930000Y-107229000D01*
D11*
X158618200Y-104330300D02*
X158618200Y-100420300D01*
X158618200Y-100420300D02*
X156748200Y-100420300D01*
X156748200Y-100420300D02*
X156748200Y-104330300D01*
X165772900Y-100576100D02*
X161862900Y-100576100D01*
X161862900Y-100576100D02*
X161862900Y-102446100D01*
X161862900Y-102446100D02*
X165772900Y-102446100D01*
X158802800Y-106539420D02*
X158802800Y-106820580D01*
X157782800Y-106539420D02*
X157782800Y-106820580D01*
X160526000Y-102058080D02*
X160526000Y-101776920D01*
X161546000Y-102058080D02*
X161546000Y-101776920D01*
X147572000Y-102185080D02*
X147572000Y-101903920D01*
X148592000Y-102185080D02*
X148592000Y-101903920D01*
X151261800Y-105054600D02*
X151261800Y-108964600D01*
X151261800Y-108964600D02*
X153131800Y-108964600D01*
X153131800Y-108964600D02*
X153131800Y-105054600D01*
X149146800Y-105677580D02*
X149146800Y-105396420D01*
X150166800Y-105677580D02*
X150166800Y-105396420D01*
X154928180Y-101754400D02*
X154647020Y-101754400D01*
X154928180Y-100734400D02*
X154647020Y-100734400D01*
X155824200Y-109092800D02*
X155824200Y-105182800D01*
X155824200Y-105182800D02*
X153954200Y-105182800D01*
X153954200Y-105182800D02*
X153954200Y-109092800D01*
X174829500Y-105120500D02*
X174829500Y-109330500D01*
X174829500Y-109330500D02*
X177849500Y-109330500D01*
X177849500Y-109330500D02*
X177849500Y-105120500D01*
X170574580Y-109666500D02*
X170293420Y-109666500D01*
X170574580Y-108646500D02*
X170293420Y-108646500D01*
X176869500Y-101169500D02*
X172659500Y-101169500D01*
X172659500Y-101169500D02*
X172659500Y-104189500D01*
X172659500Y-104189500D02*
X176869500Y-104189500D01*
X171003500Y-103709080D02*
X171003500Y-103427920D01*
X172023500Y-103709080D02*
X172023500Y-103427920D01*
X172572000Y-107454752D02*
X172572000Y-106032248D01*
X174392000Y-107454752D02*
X174392000Y-106032248D01*
X172023500Y-106539420D02*
X172023500Y-106820580D01*
X171003500Y-106539420D02*
X171003500Y-106820580D01*
X142600000Y-107962752D02*
X142600000Y-106540248D01*
X144420000Y-107962752D02*
X144420000Y-106540248D01*
X146064500Y-106252242D02*
X146064500Y-106726758D01*
X145019500Y-106252242D02*
X145019500Y-106726758D01*
D10*
X163199142Y-105608357D02*
X163246761Y-105655976D01*
X163294380Y-105798833D01*
X163294380Y-105894071D01*
X163246761Y-106036928D01*
X163151523Y-106132166D01*
X163056285Y-106179785D01*
X162865809Y-106227404D01*
X162722952Y-106227404D01*
X162532476Y-106179785D01*
X162437238Y-106132166D01*
X162342000Y-106036928D01*
X162294380Y-105894071D01*
X162294380Y-105798833D01*
X162342000Y-105655976D01*
X162389619Y-105608357D01*
X163294380Y-104655976D02*
X163294380Y-105227404D01*
X163294380Y-104941690D02*
X162294380Y-104941690D01*
X162437238Y-105036928D01*
X162532476Y-105132166D01*
X162580095Y-105227404D01*
X162722952Y-104084547D02*
X162675333Y-104179785D01*
X162627714Y-104227404D01*
X162532476Y-104275023D01*
X162484857Y-104275023D01*
X162389619Y-104227404D01*
X162342000Y-104179785D01*
X162294380Y-104084547D01*
X162294380Y-103894071D01*
X162342000Y-103798833D01*
X162389619Y-103751214D01*
X162484857Y-103703595D01*
X162532476Y-103703595D01*
X162627714Y-103751214D01*
X162675333Y-103798833D01*
X162722952Y-103894071D01*
X162722952Y-104084547D01*
X162770571Y-104179785D01*
X162818190Y-104227404D01*
X162913428Y-104275023D01*
X163103904Y-104275023D01*
X163199142Y-104227404D01*
X163246761Y-104179785D01*
X163294380Y-104084547D01*
X163294380Y-103894071D01*
X163246761Y-103798833D01*
X163199142Y-103751214D01*
X163103904Y-103703595D01*
X162913428Y-103703595D01*
X162818190Y-103751214D01*
X162770571Y-103798833D01*
X162722952Y-103894071D01*
X186737666Y-100544380D02*
X186737666Y-101258666D01*
X186690047Y-101401523D01*
X186594809Y-101496761D01*
X186451952Y-101544380D01*
X186356714Y-101544380D01*
X187737666Y-101544380D02*
X187166238Y-101544380D01*
X187451952Y-101544380D02*
X187451952Y-100544380D01*
X187356714Y-100687238D01*
X187261476Y-100782476D01*
X187166238Y-100830095D01*
X140716095Y-100798380D02*
X141287523Y-100798380D01*
X141001809Y-101798380D02*
X141001809Y-100798380D01*
X142144666Y-101798380D02*
X141573238Y-101798380D01*
X141858952Y-101798380D02*
X141858952Y-100798380D01*
X141763714Y-100941238D01*
X141668476Y-101036476D01*
X141573238Y-101084095D01*
X196832023Y-108672380D02*
X196832023Y-109386666D01*
X196784404Y-109529523D01*
X196689166Y-109624761D01*
X196546309Y-109672380D01*
X196451071Y-109672380D01*
X197260595Y-108767619D02*
X197308214Y-108720000D01*
X197403452Y-108672380D01*
X197641547Y-108672380D01*
X197736785Y-108720000D01*
X197784404Y-108767619D01*
X197832023Y-108862857D01*
X197832023Y-108958095D01*
X197784404Y-109100952D01*
X197212976Y-109672380D01*
X197832023Y-109672380D01*
X135564714Y-102560380D02*
X135564714Y-101560380D01*
X135802809Y-101560380D01*
X135945666Y-101608000D01*
X136040904Y-101703238D01*
X136088523Y-101798476D01*
X136136142Y-101988952D01*
X136136142Y-102131809D01*
X136088523Y-102322285D01*
X136040904Y-102417523D01*
X135945666Y-102512761D01*
X135802809Y-102560380D01*
X135564714Y-102560380D01*
X137088523Y-102560380D02*
X136517095Y-102560380D01*
X136802809Y-102560380D02*
X136802809Y-101560380D01*
X136707571Y-101703238D01*
X136612333Y-101798476D01*
X136517095Y-101846095D01*
X137707571Y-101560380D02*
X137802809Y-101560380D01*
X137898047Y-101608000D01*
X137945666Y-101655619D01*
X137993285Y-101750857D01*
X138040904Y-101941333D01*
X138040904Y-102179428D01*
X137993285Y-102369904D01*
X137945666Y-102465142D01*
X137898047Y-102512761D01*
X137802809Y-102560380D01*
X137707571Y-102560380D01*
X137612333Y-102512761D01*
X137564714Y-102465142D01*
X137517095Y-102369904D01*
X137469476Y-102179428D01*
X137469476Y-101941333D01*
X137517095Y-101750857D01*
X137564714Y-101655619D01*
X137612333Y-101608000D01*
X137707571Y-101560380D01*
X128341380Y-102592095D02*
X127341380Y-102592095D01*
X127341380Y-102354000D01*
X127389000Y-102211142D01*
X127484238Y-102115904D01*
X127579476Y-102068285D01*
X127769952Y-102020666D01*
X127912809Y-102020666D01*
X128103285Y-102068285D01*
X128198523Y-102115904D01*
X128293761Y-102211142D01*
X128341380Y-102354000D01*
X128341380Y-102592095D01*
X128341380Y-101544476D02*
X128341380Y-101354000D01*
X128293761Y-101258761D01*
X128246142Y-101211142D01*
X128103285Y-101115904D01*
X127912809Y-101068285D01*
X127531857Y-101068285D01*
X127436619Y-101115904D01*
X127389000Y-101163523D01*
X127341380Y-101258761D01*
X127341380Y-101449238D01*
X127389000Y-101544476D01*
X127436619Y-101592095D01*
X127531857Y-101639714D01*
X127769952Y-101639714D01*
X127865190Y-101592095D01*
X127912809Y-101544476D01*
X127960428Y-101449238D01*
X127960428Y-101258761D01*
X127912809Y-101163523D01*
X127865190Y-101115904D01*
X127769952Y-101068285D01*
X123896380Y-102592095D02*
X122896380Y-102592095D01*
X122896380Y-102354000D01*
X122944000Y-102211142D01*
X123039238Y-102115904D01*
X123134476Y-102068285D01*
X123324952Y-102020666D01*
X123467809Y-102020666D01*
X123658285Y-102068285D01*
X123753523Y-102115904D01*
X123848761Y-102211142D01*
X123896380Y-102354000D01*
X123896380Y-102592095D01*
X123324952Y-101449238D02*
X123277333Y-101544476D01*
X123229714Y-101592095D01*
X123134476Y-101639714D01*
X123086857Y-101639714D01*
X122991619Y-101592095D01*
X122944000Y-101544476D01*
X122896380Y-101449238D01*
X122896380Y-101258761D01*
X122944000Y-101163523D01*
X122991619Y-101115904D01*
X123086857Y-101068285D01*
X123134476Y-101068285D01*
X123229714Y-101115904D01*
X123277333Y-101163523D01*
X123324952Y-101258761D01*
X123324952Y-101449238D01*
X123372571Y-101544476D01*
X123420190Y-101592095D01*
X123515428Y-101639714D01*
X123705904Y-101639714D01*
X123801142Y-101592095D01*
X123848761Y-101544476D01*
X123896380Y-101449238D01*
X123896380Y-101258761D01*
X123848761Y-101163523D01*
X123801142Y-101115904D01*
X123705904Y-101068285D01*
X123515428Y-101068285D01*
X123420190Y-101115904D01*
X123372571Y-101163523D01*
X123324952Y-101258761D01*
X119451380Y-102592095D02*
X118451380Y-102592095D01*
X118451380Y-102354000D01*
X118499000Y-102211142D01*
X118594238Y-102115904D01*
X118689476Y-102068285D01*
X118879952Y-102020666D01*
X119022809Y-102020666D01*
X119213285Y-102068285D01*
X119308523Y-102115904D01*
X119403761Y-102211142D01*
X119451380Y-102354000D01*
X119451380Y-102592095D01*
X118451380Y-101687333D02*
X118451380Y-101020666D01*
X119451380Y-101449238D01*
X115006380Y-102592095D02*
X114006380Y-102592095D01*
X114006380Y-102354000D01*
X114054000Y-102211142D01*
X114149238Y-102115904D01*
X114244476Y-102068285D01*
X114434952Y-102020666D01*
X114577809Y-102020666D01*
X114768285Y-102068285D01*
X114863523Y-102115904D01*
X114958761Y-102211142D01*
X115006380Y-102354000D01*
X115006380Y-102592095D01*
X114006380Y-101163523D02*
X114006380Y-101354000D01*
X114054000Y-101449238D01*
X114101619Y-101496857D01*
X114244476Y-101592095D01*
X114434952Y-101639714D01*
X114815904Y-101639714D01*
X114911142Y-101592095D01*
X114958761Y-101544476D01*
X115006380Y-101449238D01*
X115006380Y-101258761D01*
X114958761Y-101163523D01*
X114911142Y-101115904D01*
X114815904Y-101068285D01*
X114577809Y-101068285D01*
X114482571Y-101115904D01*
X114434952Y-101163523D01*
X114387333Y-101258761D01*
X114387333Y-101449238D01*
X114434952Y-101544476D01*
X114482571Y-101592095D01*
X114577809Y-101639714D01*
X110561380Y-102592095D02*
X109561380Y-102592095D01*
X109561380Y-102354000D01*
X109609000Y-102211142D01*
X109704238Y-102115904D01*
X109799476Y-102068285D01*
X109989952Y-102020666D01*
X110132809Y-102020666D01*
X110323285Y-102068285D01*
X110418523Y-102115904D01*
X110513761Y-102211142D01*
X110561380Y-102354000D01*
X110561380Y-102592095D01*
X109561380Y-101115904D02*
X109561380Y-101592095D01*
X110037571Y-101639714D01*
X109989952Y-101592095D01*
X109942333Y-101496857D01*
X109942333Y-101258761D01*
X109989952Y-101163523D01*
X110037571Y-101115904D01*
X110132809Y-101068285D01*
X110370904Y-101068285D01*
X110466142Y-101115904D01*
X110513761Y-101163523D01*
X110561380Y-101258761D01*
X110561380Y-101496857D01*
X110513761Y-101592095D01*
X110466142Y-101639714D01*
X106116380Y-102592095D02*
X105116380Y-102592095D01*
X105116380Y-102354000D01*
X105164000Y-102211142D01*
X105259238Y-102115904D01*
X105354476Y-102068285D01*
X105544952Y-102020666D01*
X105687809Y-102020666D01*
X105878285Y-102068285D01*
X105973523Y-102115904D01*
X106068761Y-102211142D01*
X106116380Y-102354000D01*
X106116380Y-102592095D01*
X105449714Y-101163523D02*
X106116380Y-101163523D01*
X105068761Y-101401619D02*
X105783047Y-101639714D01*
X105783047Y-101020666D01*
X101671380Y-102592095D02*
X100671380Y-102592095D01*
X100671380Y-102354000D01*
X100719000Y-102211142D01*
X100814238Y-102115904D01*
X100909476Y-102068285D01*
X101099952Y-102020666D01*
X101242809Y-102020666D01*
X101433285Y-102068285D01*
X101528523Y-102115904D01*
X101623761Y-102211142D01*
X101671380Y-102354000D01*
X101671380Y-102592095D01*
X100671380Y-101687333D02*
X100671380Y-101068285D01*
X101052333Y-101401619D01*
X101052333Y-101258761D01*
X101099952Y-101163523D01*
X101147571Y-101115904D01*
X101242809Y-101068285D01*
X101480904Y-101068285D01*
X101576142Y-101115904D01*
X101623761Y-101163523D01*
X101671380Y-101258761D01*
X101671380Y-101544476D01*
X101623761Y-101639714D01*
X101576142Y-101687333D01*
X97226380Y-102592095D02*
X96226380Y-102592095D01*
X96226380Y-102354000D01*
X96274000Y-102211142D01*
X96369238Y-102115904D01*
X96464476Y-102068285D01*
X96654952Y-102020666D01*
X96797809Y-102020666D01*
X96988285Y-102068285D01*
X97083523Y-102115904D01*
X97178761Y-102211142D01*
X97226380Y-102354000D01*
X97226380Y-102592095D01*
X96321619Y-101639714D02*
X96274000Y-101592095D01*
X96226380Y-101496857D01*
X96226380Y-101258761D01*
X96274000Y-101163523D01*
X96321619Y-101115904D01*
X96416857Y-101068285D01*
X96512095Y-101068285D01*
X96654952Y-101115904D01*
X97226380Y-101687333D01*
X97226380Y-101068285D01*
X92781380Y-102592095D02*
X91781380Y-102592095D01*
X91781380Y-102354000D01*
X91829000Y-102211142D01*
X91924238Y-102115904D01*
X92019476Y-102068285D01*
X92209952Y-102020666D01*
X92352809Y-102020666D01*
X92543285Y-102068285D01*
X92638523Y-102115904D01*
X92733761Y-102211142D01*
X92781380Y-102354000D01*
X92781380Y-102592095D01*
X92781380Y-101068285D02*
X92781380Y-101639714D01*
X92781380Y-101354000D02*
X91781380Y-101354000D01*
X91924238Y-101449238D01*
X92019476Y-101544476D01*
X92067095Y-101639714D01*
X178903333Y-109323142D02*
X178855714Y-109370761D01*
X178712857Y-109418380D01*
X178617619Y-109418380D01*
X178474761Y-109370761D01*
X178379523Y-109275523D01*
X178331904Y-109180285D01*
X178284285Y-108989809D01*
X178284285Y-108846952D01*
X178331904Y-108656476D01*
X178379523Y-108561238D01*
X178474761Y-108466000D01*
X178617619Y-108418380D01*
X178712857Y-108418380D01*
X178855714Y-108466000D01*
X178903333Y-108513619D01*
X179236666Y-108418380D02*
X179903333Y-108418380D01*
X179474761Y-109418380D01*
X178395333Y-101703142D02*
X178347714Y-101750761D01*
X178204857Y-101798380D01*
X178109619Y-101798380D01*
X177966761Y-101750761D01*
X177871523Y-101655523D01*
X177823904Y-101560285D01*
X177776285Y-101369809D01*
X177776285Y-101226952D01*
X177823904Y-101036476D01*
X177871523Y-100941238D01*
X177966761Y-100846000D01*
X178109619Y-100798380D01*
X178204857Y-100798380D01*
X178347714Y-100846000D01*
X178395333Y-100893619D01*
X179300095Y-100798380D02*
X178823904Y-100798380D01*
X178776285Y-101274571D01*
X178823904Y-101226952D01*
X178919142Y-101179333D01*
X179157238Y-101179333D01*
X179252476Y-101226952D01*
X179300095Y-101274571D01*
X179347714Y-101369809D01*
X179347714Y-101607904D01*
X179300095Y-101703142D01*
X179252476Y-101750761D01*
X179157238Y-101798380D01*
X178919142Y-101798380D01*
X178823904Y-101750761D01*
X178776285Y-101703142D01*
X141184333Y-109323142D02*
X141136714Y-109370761D01*
X140993857Y-109418380D01*
X140898619Y-109418380D01*
X140755761Y-109370761D01*
X140660523Y-109275523D01*
X140612904Y-109180285D01*
X140565285Y-108989809D01*
X140565285Y-108846952D01*
X140612904Y-108656476D01*
X140660523Y-108561238D01*
X140755761Y-108466000D01*
X140898619Y-108418380D01*
X140993857Y-108418380D01*
X141136714Y-108466000D01*
X141184333Y-108513619D01*
X142136714Y-109418380D02*
X141565285Y-109418380D01*
X141851000Y-109418380D02*
X141851000Y-108418380D01*
X141755761Y-108561238D01*
X141660523Y-108656476D01*
X141565285Y-108704095D01*
%LPC*%
D15*
G36*
X191008800Y-103323300D02*
G01*
X191008800Y-102320900D01*
X194711200Y-102320900D01*
X194711200Y-103323300D01*
X191008800Y-103323300D01*
G37*
X191008800Y-103323300D02*
X191008800Y-102320900D01*
X194711200Y-102320900D01*
X194711200Y-103323300D01*
X191008800Y-103323300D01*
G36*
X187558800Y-103323300D02*
G01*
X187558800Y-102320900D01*
X190361200Y-102320900D01*
X190361200Y-103323300D01*
X187558800Y-103323300D01*
G37*
X187558800Y-103323300D02*
X187558800Y-102320900D01*
X190361200Y-102320900D01*
X190361200Y-103323300D01*
X187558800Y-103323300D01*
G36*
X191008800Y-104823300D02*
G01*
X191008800Y-103820900D01*
X194711200Y-103820900D01*
X194711200Y-104823300D01*
X191008800Y-104823300D01*
G37*
X191008800Y-104823300D02*
X191008800Y-103820900D01*
X194711200Y-103820900D01*
X194711200Y-104823300D01*
X191008800Y-104823300D01*
G36*
X187558800Y-104823300D02*
G01*
X187558800Y-103820900D01*
X190361200Y-103820900D01*
X190361200Y-104823300D01*
X187558800Y-104823300D01*
G37*
X187558800Y-104823300D02*
X187558800Y-103820900D01*
X190361200Y-103820900D01*
X190361200Y-104823300D01*
X187558800Y-104823300D01*
G36*
X191008800Y-106323300D02*
G01*
X191008800Y-105320900D01*
X194711200Y-105320900D01*
X194711200Y-106323300D01*
X191008800Y-106323300D01*
G37*
X191008800Y-106323300D02*
X191008800Y-105320900D01*
X194711200Y-105320900D01*
X194711200Y-106323300D01*
X191008800Y-106323300D01*
G36*
X187558800Y-106323300D02*
G01*
X187558800Y-105320900D01*
X190361200Y-105320900D01*
X190361200Y-106323300D01*
X187558800Y-106323300D01*
G37*
X187558800Y-106323300D02*
X187558800Y-105320900D01*
X190361200Y-105320900D01*
X190361200Y-106323300D01*
X187558800Y-106323300D01*
G36*
X187558800Y-107823300D02*
G01*
X187558800Y-106820900D01*
X190361200Y-106820900D01*
X190361200Y-107823300D01*
X187558800Y-107823300D01*
G37*
X187558800Y-107823300D02*
X187558800Y-106820900D01*
X190361200Y-106820900D01*
X190361200Y-107823300D01*
X187558800Y-107823300D01*
G36*
X191008800Y-107823300D02*
G01*
X191008800Y-106820900D01*
X194711200Y-106820900D01*
X194711200Y-107823300D01*
X191008800Y-107823300D01*
G37*
X191008800Y-107823300D02*
X191008800Y-106820900D01*
X194711200Y-106820900D01*
X194711200Y-107823300D01*
X191008800Y-107823300D01*
G36*
G01*
X157143400Y-108691000D02*
X157143400Y-109241000D01*
G75*
G02*
X156943400Y-109441000I-200000J0D01*
G01*
X156543400Y-109441000D01*
G75*
G02*
X156343400Y-109241000I0J200000D01*
G01*
X156343400Y-108691000D01*
G75*
G02*
X156543400Y-108491000I200000J0D01*
G01*
X156943400Y-108491000D01*
G75*
G02*
X157143400Y-108691000I0J-200000D01*
G01*
G37*
G36*
G01*
X158793400Y-108691000D02*
X158793400Y-109241000D01*
G75*
G02*
X158593400Y-109441000I-200000J0D01*
G01*
X158193400Y-109441000D01*
G75*
G02*
X157993400Y-109241000I0J200000D01*
G01*
X157993400Y-108691000D01*
G75*
G02*
X158193400Y-108491000I200000J0D01*
G01*
X158593400Y-108491000D01*
G75*
G02*
X158793400Y-108691000I0J-200000D01*
G01*
G37*
G36*
G01*
X160990400Y-108906500D02*
X160990400Y-109406500D01*
G75*
G02*
X160765400Y-109631500I-225000J0D01*
G01*
X160315400Y-109631500D01*
G75*
G02*
X160090400Y-109406500I0J225000D01*
G01*
X160090400Y-108906500D01*
G75*
G02*
X160315400Y-108681500I225000J0D01*
G01*
X160765400Y-108681500D01*
G75*
G02*
X160990400Y-108906500I0J-225000D01*
G01*
G37*
G36*
G01*
X162540400Y-108906500D02*
X162540400Y-109406500D01*
G75*
G02*
X162315400Y-109631500I-225000J0D01*
G01*
X161865400Y-109631500D01*
G75*
G02*
X161640400Y-109406500I0J225000D01*
G01*
X161640400Y-108906500D01*
G75*
G02*
X161865400Y-108681500I225000J0D01*
G01*
X162315400Y-108681500D01*
G75*
G02*
X162540400Y-108906500I0J-225000D01*
G01*
G37*
D16*
X169661500Y-104033000D03*
D17*
X166761500Y-105283000D03*
D16*
X169661500Y-106533000D03*
G36*
G01*
X165017001Y-104315500D02*
X164166999Y-104315500D01*
G75*
G02*
X163917000Y-104065501I0J249999D01*
G01*
X163917000Y-103165499D01*
G75*
G02*
X164166999Y-102915500I249999J0D01*
G01*
X165017001Y-102915500D01*
G75*
G02*
X165267000Y-103165499I0J-249999D01*
G01*
X165267000Y-104065501D01*
G75*
G02*
X165017001Y-104315500I-249999J0D01*
G01*
G37*
G36*
G01*
X165017001Y-107015500D02*
X164166999Y-107015500D01*
G75*
G02*
X163917000Y-106765501I0J249999D01*
G01*
X163917000Y-105865499D01*
G75*
G02*
X164166999Y-105615500I249999J0D01*
G01*
X165017001Y-105615500D01*
G75*
G02*
X165267000Y-105865499I0J-249999D01*
G01*
X165267000Y-106765501D01*
G75*
G02*
X165017001Y-107015500I-249999J0D01*
G01*
G37*
G36*
G01*
X168371400Y-101481700D02*
X168371400Y-100981700D01*
G75*
G02*
X168596400Y-100756700I225000J0D01*
G01*
X169046400Y-100756700D01*
G75*
G02*
X169271400Y-100981700I0J-225000D01*
G01*
X169271400Y-101481700D01*
G75*
G02*
X169046400Y-101706700I-225000J0D01*
G01*
X168596400Y-101706700D01*
G75*
G02*
X168371400Y-101481700I0J225000D01*
G01*
G37*
G36*
G01*
X166821400Y-101481700D02*
X166821400Y-100981700D01*
G75*
G02*
X167046400Y-100756700I225000J0D01*
G01*
X167496400Y-100756700D01*
G75*
G02*
X167721400Y-100981700I0J-225000D01*
G01*
X167721400Y-101481700D01*
G75*
G02*
X167496400Y-101706700I-225000J0D01*
G01*
X167046400Y-101706700D01*
G75*
G02*
X166821400Y-101481700I0J225000D01*
G01*
G37*
D18*
X162600000Y-104206000D03*
X162600000Y-105156000D03*
X162600000Y-106106000D03*
X159980000Y-106106000D03*
X159980000Y-105156000D03*
X159980000Y-104206000D03*
G36*
G01*
X156512550Y-107042700D02*
X157025050Y-107042700D01*
G75*
G02*
X157243800Y-107261450I0J-218750D01*
G01*
X157243800Y-107698950D01*
G75*
G02*
X157025050Y-107917700I-218750J0D01*
G01*
X156512550Y-107917700D01*
G75*
G02*
X156293800Y-107698950I0J218750D01*
G01*
X156293800Y-107261450D01*
G75*
G02*
X156512550Y-107042700I218750J0D01*
G01*
G37*
G36*
G01*
X156512550Y-105467700D02*
X157025050Y-105467700D01*
G75*
G02*
X157243800Y-105686450I0J-218750D01*
G01*
X157243800Y-106123950D01*
G75*
G02*
X157025050Y-106342700I-218750J0D01*
G01*
X156512550Y-106342700D01*
G75*
G02*
X156293800Y-106123950I0J218750D01*
G01*
X156293800Y-105686450D01*
G75*
G02*
X156512550Y-105467700I218750J0D01*
G01*
G37*
G36*
G01*
X159768250Y-101567500D02*
X159255750Y-101567500D01*
G75*
G02*
X159037000Y-101348750I0J218750D01*
G01*
X159037000Y-100911250D01*
G75*
G02*
X159255750Y-100692500I218750J0D01*
G01*
X159768250Y-100692500D01*
G75*
G02*
X159987000Y-100911250I0J-218750D01*
G01*
X159987000Y-101348750D01*
G75*
G02*
X159768250Y-101567500I-218750J0D01*
G01*
G37*
G36*
G01*
X159768250Y-103142500D02*
X159255750Y-103142500D01*
G75*
G02*
X159037000Y-102923750I0J218750D01*
G01*
X159037000Y-102486250D01*
G75*
G02*
X159255750Y-102267500I218750J0D01*
G01*
X159768250Y-102267500D01*
G75*
G02*
X159987000Y-102486250I0J-218750D01*
G01*
X159987000Y-102923750D01*
G75*
G02*
X159768250Y-103142500I-218750J0D01*
G01*
G37*
G36*
G01*
X149956000Y-108079250D02*
X149956000Y-107566750D01*
G75*
G02*
X150174750Y-107348000I218750J0D01*
G01*
X150612250Y-107348000D01*
G75*
G02*
X150831000Y-107566750I0J-218750D01*
G01*
X150831000Y-108079250D01*
G75*
G02*
X150612250Y-108298000I-218750J0D01*
G01*
X150174750Y-108298000D01*
G75*
G02*
X149956000Y-108079250I0J218750D01*
G01*
G37*
G36*
G01*
X148381000Y-108079250D02*
X148381000Y-107566750D01*
G75*
G02*
X148599750Y-107348000I218750J0D01*
G01*
X149037250Y-107348000D01*
G75*
G02*
X149256000Y-107566750I0J-218750D01*
G01*
X149256000Y-108079250D01*
G75*
G02*
X149037250Y-108298000I-218750J0D01*
G01*
X148599750Y-108298000D01*
G75*
G02*
X148381000Y-108079250I0J218750D01*
G01*
G37*
X149756500Y-103121500D03*
X149756500Y-102171500D03*
X149756500Y-101221500D03*
X152376500Y-101221500D03*
X152376500Y-102171500D03*
X152376500Y-103121500D03*
D19*
X144018000Y-101298500D03*
X144968000Y-103298500D03*
X143068000Y-103298500D03*
G36*
G01*
X161739900Y-107907500D02*
X161739900Y-107357500D01*
G75*
G02*
X161939900Y-107157500I200000J0D01*
G01*
X162339900Y-107157500D01*
G75*
G02*
X162539900Y-107357500I0J-200000D01*
G01*
X162539900Y-107907500D01*
G75*
G02*
X162339900Y-108107500I-200000J0D01*
G01*
X161939900Y-108107500D01*
G75*
G02*
X161739900Y-107907500I0J200000D01*
G01*
G37*
G36*
G01*
X160089900Y-107907500D02*
X160089900Y-107357500D01*
G75*
G02*
X160289900Y-107157500I200000J0D01*
G01*
X160689900Y-107157500D01*
G75*
G02*
X160889900Y-107357500I0J-200000D01*
G01*
X160889900Y-107907500D01*
G75*
G02*
X160689900Y-108107500I-200000J0D01*
G01*
X160289900Y-108107500D01*
G75*
G02*
X160089900Y-107907500I0J200000D01*
G01*
G37*
G36*
G01*
X147807000Y-105644500D02*
X148357000Y-105644500D01*
G75*
G02*
X148557000Y-105844500I0J-200000D01*
G01*
X148557000Y-106244500D01*
G75*
G02*
X148357000Y-106444500I-200000J0D01*
G01*
X147807000Y-106444500D01*
G75*
G02*
X147607000Y-106244500I0J200000D01*
G01*
X147607000Y-105844500D01*
G75*
G02*
X147807000Y-105644500I200000J0D01*
G01*
G37*
G36*
G01*
X147807000Y-103994500D02*
X148357000Y-103994500D01*
G75*
G02*
X148557000Y-104194500I0J-200000D01*
G01*
X148557000Y-104594500D01*
G75*
G02*
X148357000Y-104794500I-200000J0D01*
G01*
X147807000Y-104794500D01*
G75*
G02*
X147607000Y-104594500I0J200000D01*
G01*
X147607000Y-104194500D01*
G75*
G02*
X147807000Y-103994500I200000J0D01*
G01*
G37*
G36*
G01*
X164763000Y-109431500D02*
X164763000Y-108881500D01*
G75*
G02*
X164963000Y-108681500I200000J0D01*
G01*
X165363000Y-108681500D01*
G75*
G02*
X165563000Y-108881500I0J-200000D01*
G01*
X165563000Y-109431500D01*
G75*
G02*
X165363000Y-109631500I-200000J0D01*
G01*
X164963000Y-109631500D01*
G75*
G02*
X164763000Y-109431500I0J200000D01*
G01*
G37*
G36*
G01*
X163113000Y-109431500D02*
X163113000Y-108881500D01*
G75*
G02*
X163313000Y-108681500I200000J0D01*
G01*
X163713000Y-108681500D01*
G75*
G02*
X163913000Y-108881500I0J-200000D01*
G01*
X163913000Y-109431500D01*
G75*
G02*
X163713000Y-109631500I-200000J0D01*
G01*
X163313000Y-109631500D01*
G75*
G02*
X163113000Y-109431500I0J200000D01*
G01*
G37*
G36*
G01*
X171519400Y-101506700D02*
X171519400Y-100956700D01*
G75*
G02*
X171719400Y-100756700I200000J0D01*
G01*
X172119400Y-100756700D01*
G75*
G02*
X172319400Y-100956700I0J-200000D01*
G01*
X172319400Y-101506700D01*
G75*
G02*
X172119400Y-101706700I-200000J0D01*
G01*
X171719400Y-101706700D01*
G75*
G02*
X171519400Y-101506700I0J200000D01*
G01*
G37*
G36*
G01*
X169869400Y-101506700D02*
X169869400Y-100956700D01*
G75*
G02*
X170069400Y-100756700I200000J0D01*
G01*
X170469400Y-100756700D01*
G75*
G02*
X170669400Y-100956700I0J-200000D01*
G01*
X170669400Y-101506700D01*
G75*
G02*
X170469400Y-101706700I-200000J0D01*
G01*
X170069400Y-101706700D01*
G75*
G02*
X169869400Y-101506700I0J200000D01*
G01*
G37*
G36*
G01*
X166961000Y-108881500D02*
X166961000Y-109431500D01*
G75*
G02*
X166761000Y-109631500I-200000J0D01*
G01*
X166361000Y-109631500D01*
G75*
G02*
X166161000Y-109431500I0J200000D01*
G01*
X166161000Y-108881500D01*
G75*
G02*
X166361000Y-108681500I200000J0D01*
G01*
X166761000Y-108681500D01*
G75*
G02*
X166961000Y-108881500I0J-200000D01*
G01*
G37*
G36*
G01*
X168611000Y-108881500D02*
X168611000Y-109431500D01*
G75*
G02*
X168411000Y-109631500I-200000J0D01*
G01*
X168011000Y-109631500D01*
G75*
G02*
X167811000Y-109431500I0J200000D01*
G01*
X167811000Y-108881500D01*
G75*
G02*
X168011000Y-108681500I200000J0D01*
G01*
X168411000Y-108681500D01*
G75*
G02*
X168611000Y-108881500I0J-200000D01*
G01*
G37*
G36*
G01*
X146283000Y-102469500D02*
X146833000Y-102469500D01*
G75*
G02*
X147033000Y-102669500I0J-200000D01*
G01*
X147033000Y-103069500D01*
G75*
G02*
X146833000Y-103269500I-200000J0D01*
G01*
X146283000Y-103269500D01*
G75*
G02*
X146083000Y-103069500I0J200000D01*
G01*
X146083000Y-102669500D01*
G75*
G02*
X146283000Y-102469500I200000J0D01*
G01*
G37*
G36*
G01*
X146283000Y-100819500D02*
X146833000Y-100819500D01*
G75*
G02*
X147033000Y-101019500I0J-200000D01*
G01*
X147033000Y-101419500D01*
G75*
G02*
X146833000Y-101619500I-200000J0D01*
G01*
X146283000Y-101619500D01*
G75*
G02*
X146083000Y-101419500I0J200000D01*
G01*
X146083000Y-101019500D01*
G75*
G02*
X146283000Y-100819500I200000J0D01*
G01*
G37*
G36*
G01*
X155212600Y-103043400D02*
X155212600Y-102493400D01*
G75*
G02*
X155412600Y-102293400I200000J0D01*
G01*
X155812600Y-102293400D01*
G75*
G02*
X156012600Y-102493400I0J-200000D01*
G01*
X156012600Y-103043400D01*
G75*
G02*
X155812600Y-103243400I-200000J0D01*
G01*
X155412600Y-103243400D01*
G75*
G02*
X155212600Y-103043400I0J200000D01*
G01*
G37*
G36*
G01*
X153562600Y-103043400D02*
X153562600Y-102493400D01*
G75*
G02*
X153762600Y-102293400I200000J0D01*
G01*
X154162600Y-102293400D01*
G75*
G02*
X154362600Y-102493400I0J-200000D01*
G01*
X154362600Y-103043400D01*
G75*
G02*
X154162600Y-103243400I-200000J0D01*
G01*
X153762600Y-103243400D01*
G75*
G02*
X153562600Y-103043400I0J200000D01*
G01*
G37*
G36*
G01*
X154413400Y-103966600D02*
X154413400Y-104516600D01*
G75*
G02*
X154213400Y-104716600I-200000J0D01*
G01*
X153813400Y-104716600D01*
G75*
G02*
X153613400Y-104516600I0J200000D01*
G01*
X153613400Y-103966600D01*
G75*
G02*
X153813400Y-103766600I200000J0D01*
G01*
X154213400Y-103766600D01*
G75*
G02*
X154413400Y-103966600I0J-200000D01*
G01*
G37*
G36*
G01*
X156063400Y-103966600D02*
X156063400Y-104516600D01*
G75*
G02*
X155863400Y-104716600I-200000J0D01*
G01*
X155463400Y-104716600D01*
G75*
G02*
X155263400Y-104516600I0J200000D01*
G01*
X155263400Y-103966600D01*
G75*
G02*
X155463400Y-103766600I200000J0D01*
G01*
X155863400Y-103766600D01*
G75*
G02*
X156063400Y-103966600I0J-200000D01*
G01*
G37*
G36*
G01*
X146729000Y-109050500D02*
X146729000Y-108500500D01*
G75*
G02*
X146929000Y-108300500I200000J0D01*
G01*
X147329000Y-108300500D01*
G75*
G02*
X147529000Y-108500500I0J-200000D01*
G01*
X147529000Y-109050500D01*
G75*
G02*
X147329000Y-109250500I-200000J0D01*
G01*
X146929000Y-109250500D01*
G75*
G02*
X146729000Y-109050500I0J200000D01*
G01*
G37*
G36*
G01*
X145079000Y-109050500D02*
X145079000Y-108500500D01*
G75*
G02*
X145279000Y-108300500I200000J0D01*
G01*
X145679000Y-108300500D01*
G75*
G02*
X145879000Y-108500500I0J-200000D01*
G01*
X145879000Y-109050500D01*
G75*
G02*
X145679000Y-109250500I-200000J0D01*
G01*
X145279000Y-109250500D01*
G75*
G02*
X145079000Y-109050500I0J200000D01*
G01*
G37*
D20*
X201045400Y-105072100D03*
D21*
X201045400Y-102302100D03*
X201045400Y-107842100D03*
D22*
X133985000Y-108604000D03*
X133985000Y-101454000D03*
X129540000Y-108604000D03*
X129540000Y-101454000D03*
X125095000Y-108604000D03*
X125095000Y-101454000D03*
X120650000Y-108604000D03*
X120650000Y-101454000D03*
X116205000Y-108604000D03*
X116205000Y-101454000D03*
X111760000Y-108604000D03*
X111760000Y-101454000D03*
X107315000Y-108604000D03*
X107315000Y-101454000D03*
X102870000Y-108604000D03*
X102870000Y-101454000D03*
X98425000Y-108604000D03*
X98425000Y-101454000D03*
X93980000Y-108604000D03*
X93980000Y-101454000D03*
G36*
G01*
X157258199Y-103380300D02*
X158108201Y-103380300D01*
G75*
G02*
X158358200Y-103630299I0J-249999D01*
G01*
X158358200Y-104530301D01*
G75*
G02*
X158108201Y-104780300I-249999J0D01*
G01*
X157258199Y-104780300D01*
G75*
G02*
X157008200Y-104530301I0J249999D01*
G01*
X157008200Y-103630299D01*
G75*
G02*
X157258199Y-103380300I249999J0D01*
G01*
G37*
G36*
G01*
X157258199Y-100680300D02*
X158108201Y-100680300D01*
G75*
G02*
X158358200Y-100930299I0J-249999D01*
G01*
X158358200Y-101830301D01*
G75*
G02*
X158108201Y-102080300I-249999J0D01*
G01*
X157258199Y-102080300D01*
G75*
G02*
X157008200Y-101830301I0J249999D01*
G01*
X157008200Y-100930299D01*
G75*
G02*
X157258199Y-100680300I249999J0D01*
G01*
G37*
G36*
G01*
X164822900Y-101936101D02*
X164822900Y-101086099D01*
G75*
G02*
X165072899Y-100836100I249999J0D01*
G01*
X165972901Y-100836100D01*
G75*
G02*
X166222900Y-101086099I0J-249999D01*
G01*
X166222900Y-101936101D01*
G75*
G02*
X165972901Y-102186100I-249999J0D01*
G01*
X165072899Y-102186100D01*
G75*
G02*
X164822900Y-101936101I0J249999D01*
G01*
G37*
G36*
G01*
X162122900Y-101936101D02*
X162122900Y-101086099D01*
G75*
G02*
X162372899Y-100836100I249999J0D01*
G01*
X163272901Y-100836100D01*
G75*
G02*
X163522900Y-101086099I0J-249999D01*
G01*
X163522900Y-101936101D01*
G75*
G02*
X163272901Y-102186100I-249999J0D01*
G01*
X162372899Y-102186100D01*
G75*
G02*
X162122900Y-101936101I0J249999D01*
G01*
G37*
G36*
G01*
X158042800Y-107005000D02*
X158542800Y-107005000D01*
G75*
G02*
X158767800Y-107230000I0J-225000D01*
G01*
X158767800Y-107680000D01*
G75*
G02*
X158542800Y-107905000I-225000J0D01*
G01*
X158042800Y-107905000D01*
G75*
G02*
X157817800Y-107680000I0J225000D01*
G01*
X157817800Y-107230000D01*
G75*
G02*
X158042800Y-107005000I225000J0D01*
G01*
G37*
G36*
G01*
X158042800Y-105455000D02*
X158542800Y-105455000D01*
G75*
G02*
X158767800Y-105680000I0J-225000D01*
G01*
X158767800Y-106130000D01*
G75*
G02*
X158542800Y-106355000I-225000J0D01*
G01*
X158042800Y-106355000D01*
G75*
G02*
X157817800Y-106130000I0J225000D01*
G01*
X157817800Y-105680000D01*
G75*
G02*
X158042800Y-105455000I225000J0D01*
G01*
G37*
G36*
G01*
X161286000Y-101592500D02*
X160786000Y-101592500D01*
G75*
G02*
X160561000Y-101367500I0J225000D01*
G01*
X160561000Y-100917500D01*
G75*
G02*
X160786000Y-100692500I225000J0D01*
G01*
X161286000Y-100692500D01*
G75*
G02*
X161511000Y-100917500I0J-225000D01*
G01*
X161511000Y-101367500D01*
G75*
G02*
X161286000Y-101592500I-225000J0D01*
G01*
G37*
G36*
G01*
X161286000Y-103142500D02*
X160786000Y-103142500D01*
G75*
G02*
X160561000Y-102917500I0J225000D01*
G01*
X160561000Y-102467500D01*
G75*
G02*
X160786000Y-102242500I225000J0D01*
G01*
X161286000Y-102242500D01*
G75*
G02*
X161511000Y-102467500I0J-225000D01*
G01*
X161511000Y-102917500D01*
G75*
G02*
X161286000Y-103142500I-225000J0D01*
G01*
G37*
G36*
G01*
X148332000Y-101719500D02*
X147832000Y-101719500D01*
G75*
G02*
X147607000Y-101494500I0J225000D01*
G01*
X147607000Y-101044500D01*
G75*
G02*
X147832000Y-100819500I225000J0D01*
G01*
X148332000Y-100819500D01*
G75*
G02*
X148557000Y-101044500I0J-225000D01*
G01*
X148557000Y-101494500D01*
G75*
G02*
X148332000Y-101719500I-225000J0D01*
G01*
G37*
G36*
G01*
X148332000Y-103269500D02*
X147832000Y-103269500D01*
G75*
G02*
X147607000Y-103044500I0J225000D01*
G01*
X147607000Y-102594500D01*
G75*
G02*
X147832000Y-102369500I225000J0D01*
G01*
X148332000Y-102369500D01*
G75*
G02*
X148557000Y-102594500I0J-225000D01*
G01*
X148557000Y-103044500D01*
G75*
G02*
X148332000Y-103269500I-225000J0D01*
G01*
G37*
G36*
G01*
X152621801Y-106004600D02*
X151771799Y-106004600D01*
G75*
G02*
X151521800Y-105754601I0J249999D01*
G01*
X151521800Y-104854599D01*
G75*
G02*
X151771799Y-104604600I249999J0D01*
G01*
X152621801Y-104604600D01*
G75*
G02*
X152871800Y-104854599I0J-249999D01*
G01*
X152871800Y-105754601D01*
G75*
G02*
X152621801Y-106004600I-249999J0D01*
G01*
G37*
G36*
G01*
X152621801Y-108704600D02*
X151771799Y-108704600D01*
G75*
G02*
X151521800Y-108454601I0J249999D01*
G01*
X151521800Y-107554599D01*
G75*
G02*
X151771799Y-107304600I249999J0D01*
G01*
X152621801Y-107304600D01*
G75*
G02*
X152871800Y-107554599I0J-249999D01*
G01*
X152871800Y-108454601D01*
G75*
G02*
X152621801Y-108704600I-249999J0D01*
G01*
G37*
G36*
G01*
X149906800Y-105212000D02*
X149406800Y-105212000D01*
G75*
G02*
X149181800Y-104987000I0J225000D01*
G01*
X149181800Y-104537000D01*
G75*
G02*
X149406800Y-104312000I225000J0D01*
G01*
X149906800Y-104312000D01*
G75*
G02*
X150131800Y-104537000I0J-225000D01*
G01*
X150131800Y-104987000D01*
G75*
G02*
X149906800Y-105212000I-225000J0D01*
G01*
G37*
G36*
G01*
X149906800Y-106762000D02*
X149406800Y-106762000D01*
G75*
G02*
X149181800Y-106537000I0J225000D01*
G01*
X149181800Y-106087000D01*
G75*
G02*
X149406800Y-105862000I225000J0D01*
G01*
X149906800Y-105862000D01*
G75*
G02*
X150131800Y-106087000I0J-225000D01*
G01*
X150131800Y-106537000D01*
G75*
G02*
X149906800Y-106762000I-225000J0D01*
G01*
G37*
G36*
G01*
X154462600Y-100994400D02*
X154462600Y-101494400D01*
G75*
G02*
X154237600Y-101719400I-225000J0D01*
G01*
X153787600Y-101719400D01*
G75*
G02*
X153562600Y-101494400I0J225000D01*
G01*
X153562600Y-100994400D01*
G75*
G02*
X153787600Y-100769400I225000J0D01*
G01*
X154237600Y-100769400D01*
G75*
G02*
X154462600Y-100994400I0J-225000D01*
G01*
G37*
G36*
G01*
X156012600Y-100994400D02*
X156012600Y-101494400D01*
G75*
G02*
X155787600Y-101719400I-225000J0D01*
G01*
X155337600Y-101719400D01*
G75*
G02*
X155112600Y-101494400I0J225000D01*
G01*
X155112600Y-100994400D01*
G75*
G02*
X155337600Y-100769400I225000J0D01*
G01*
X155787600Y-100769400D01*
G75*
G02*
X156012600Y-100994400I0J-225000D01*
G01*
G37*
G36*
G01*
X154464199Y-108142800D02*
X155314201Y-108142800D01*
G75*
G02*
X155564200Y-108392799I0J-249999D01*
G01*
X155564200Y-109292801D01*
G75*
G02*
X155314201Y-109542800I-249999J0D01*
G01*
X154464199Y-109542800D01*
G75*
G02*
X154214200Y-109292801I0J249999D01*
G01*
X154214200Y-108392799D01*
G75*
G02*
X154464199Y-108142800I249999J0D01*
G01*
G37*
G36*
G01*
X154464199Y-105442800D02*
X155314201Y-105442800D01*
G75*
G02*
X155564200Y-105692799I0J-249999D01*
G01*
X155564200Y-106592801D01*
G75*
G02*
X155314201Y-106842800I-249999J0D01*
G01*
X154464199Y-106842800D01*
G75*
G02*
X154214200Y-106592801I0J249999D01*
G01*
X154214200Y-105692799D01*
G75*
G02*
X154464199Y-105442800I249999J0D01*
G01*
G37*
G36*
G01*
X177264501Y-105995500D02*
X175414499Y-105995500D01*
G75*
G02*
X175164500Y-105745501I0J249999D01*
G01*
X175164500Y-104920499D01*
G75*
G02*
X175414499Y-104670500I249999J0D01*
G01*
X177264501Y-104670500D01*
G75*
G02*
X177514500Y-104920499I0J-249999D01*
G01*
X177514500Y-105745501D01*
G75*
G02*
X177264501Y-105995500I-249999J0D01*
G01*
G37*
G36*
G01*
X177264501Y-109070500D02*
X175414499Y-109070500D01*
G75*
G02*
X175164500Y-108820501I0J249999D01*
G01*
X175164500Y-107995499D01*
G75*
G02*
X175414499Y-107745500I249999J0D01*
G01*
X177264501Y-107745500D01*
G75*
G02*
X177514500Y-107995499I0J-249999D01*
G01*
X177514500Y-108820501D01*
G75*
G02*
X177264501Y-109070500I-249999J0D01*
G01*
G37*
G36*
G01*
X170109000Y-108906500D02*
X170109000Y-109406500D01*
G75*
G02*
X169884000Y-109631500I-225000J0D01*
G01*
X169434000Y-109631500D01*
G75*
G02*
X169209000Y-109406500I0J225000D01*
G01*
X169209000Y-108906500D01*
G75*
G02*
X169434000Y-108681500I225000J0D01*
G01*
X169884000Y-108681500D01*
G75*
G02*
X170109000Y-108906500I0J-225000D01*
G01*
G37*
G36*
G01*
X171659000Y-108906500D02*
X171659000Y-109406500D01*
G75*
G02*
X171434000Y-109631500I-225000J0D01*
G01*
X170984000Y-109631500D01*
G75*
G02*
X170759000Y-109406500I0J225000D01*
G01*
X170759000Y-108906500D01*
G75*
G02*
X170984000Y-108681500I225000J0D01*
G01*
X171434000Y-108681500D01*
G75*
G02*
X171659000Y-108906500I0J-225000D01*
G01*
G37*
G36*
G01*
X175994500Y-103604501D02*
X175994500Y-101754499D01*
G75*
G02*
X176244499Y-101504500I249999J0D01*
G01*
X177069501Y-101504500D01*
G75*
G02*
X177319500Y-101754499I0J-249999D01*
G01*
X177319500Y-103604501D01*
G75*
G02*
X177069501Y-103854500I-249999J0D01*
G01*
X176244499Y-103854500D01*
G75*
G02*
X175994500Y-103604501I0J249999D01*
G01*
G37*
G36*
G01*
X172919500Y-103604501D02*
X172919500Y-101754499D01*
G75*
G02*
X173169499Y-101504500I249999J0D01*
G01*
X173994501Y-101504500D01*
G75*
G02*
X174244500Y-101754499I0J-249999D01*
G01*
X174244500Y-103604501D01*
G75*
G02*
X173994501Y-103854500I-249999J0D01*
G01*
X173169499Y-103854500D01*
G75*
G02*
X172919500Y-103604501I0J249999D01*
G01*
G37*
G36*
G01*
X171763500Y-103243500D02*
X171263500Y-103243500D01*
G75*
G02*
X171038500Y-103018500I0J225000D01*
G01*
X171038500Y-102568500D01*
G75*
G02*
X171263500Y-102343500I225000J0D01*
G01*
X171763500Y-102343500D01*
G75*
G02*
X171988500Y-102568500I0J-225000D01*
G01*
X171988500Y-103018500D01*
G75*
G02*
X171763500Y-103243500I-225000J0D01*
G01*
G37*
G36*
G01*
X171763500Y-104793500D02*
X171263500Y-104793500D01*
G75*
G02*
X171038500Y-104568500I0J225000D01*
G01*
X171038500Y-104118500D01*
G75*
G02*
X171263500Y-103893500I225000J0D01*
G01*
X171763500Y-103893500D01*
G75*
G02*
X171988500Y-104118500I0J-225000D01*
G01*
X171988500Y-104568500D01*
G75*
G02*
X171763500Y-104793500I-225000J0D01*
G01*
G37*
G36*
G01*
X174132001Y-105843500D02*
X172831999Y-105843500D01*
G75*
G02*
X172582000Y-105593501I0J249999D01*
G01*
X172582000Y-104943499D01*
G75*
G02*
X172831999Y-104693500I249999J0D01*
G01*
X174132001Y-104693500D01*
G75*
G02*
X174382000Y-104943499I0J-249999D01*
G01*
X174382000Y-105593501D01*
G75*
G02*
X174132001Y-105843500I-249999J0D01*
G01*
G37*
G36*
G01*
X174132001Y-108793500D02*
X172831999Y-108793500D01*
G75*
G02*
X172582000Y-108543501I0J249999D01*
G01*
X172582000Y-107893499D01*
G75*
G02*
X172831999Y-107643500I249999J0D01*
G01*
X174132001Y-107643500D01*
G75*
G02*
X174382000Y-107893499I0J-249999D01*
G01*
X174382000Y-108543501D01*
G75*
G02*
X174132001Y-108793500I-249999J0D01*
G01*
G37*
G36*
G01*
X171263500Y-107005000D02*
X171763500Y-107005000D01*
G75*
G02*
X171988500Y-107230000I0J-225000D01*
G01*
X171988500Y-107680000D01*
G75*
G02*
X171763500Y-107905000I-225000J0D01*
G01*
X171263500Y-107905000D01*
G75*
G02*
X171038500Y-107680000I0J225000D01*
G01*
X171038500Y-107230000D01*
G75*
G02*
X171263500Y-107005000I225000J0D01*
G01*
G37*
G36*
G01*
X171263500Y-105455000D02*
X171763500Y-105455000D01*
G75*
G02*
X171988500Y-105680000I0J-225000D01*
G01*
X171988500Y-106130000D01*
G75*
G02*
X171763500Y-106355000I-225000J0D01*
G01*
X171263500Y-106355000D01*
G75*
G02*
X171038500Y-106130000I0J225000D01*
G01*
X171038500Y-105680000D01*
G75*
G02*
X171263500Y-105455000I225000J0D01*
G01*
G37*
G36*
G01*
X144160001Y-106351500D02*
X142859999Y-106351500D01*
G75*
G02*
X142610000Y-106101501I0J249999D01*
G01*
X142610000Y-105451499D01*
G75*
G02*
X142859999Y-105201500I249999J0D01*
G01*
X144160001Y-105201500D01*
G75*
G02*
X144410000Y-105451499I0J-249999D01*
G01*
X144410000Y-106101501D01*
G75*
G02*
X144160001Y-106351500I-249999J0D01*
G01*
G37*
G36*
G01*
X144160001Y-109301500D02*
X142859999Y-109301500D01*
G75*
G02*
X142610000Y-109051501I0J249999D01*
G01*
X142610000Y-108401499D01*
G75*
G02*
X142859999Y-108151500I249999J0D01*
G01*
X144160001Y-108151500D01*
G75*
G02*
X144410000Y-108401499I0J-249999D01*
G01*
X144410000Y-109051501D01*
G75*
G02*
X144160001Y-109301500I-249999J0D01*
G01*
G37*
G36*
G01*
X145267000Y-106914500D02*
X145817000Y-106914500D01*
G75*
G02*
X146017000Y-107114500I0J-200000D01*
G01*
X146017000Y-107514500D01*
G75*
G02*
X145817000Y-107714500I-200000J0D01*
G01*
X145267000Y-107714500D01*
G75*
G02*
X145067000Y-107514500I0J200000D01*
G01*
X145067000Y-107114500D01*
G75*
G02*
X145267000Y-106914500I200000J0D01*
G01*
G37*
G36*
G01*
X145267000Y-105264500D02*
X145817000Y-105264500D01*
G75*
G02*
X146017000Y-105464500I0J-200000D01*
G01*
X146017000Y-105864500D01*
G75*
G02*
X145817000Y-106064500I-200000J0D01*
G01*
X145267000Y-106064500D01*
G75*
G02*
X145067000Y-105864500I0J200000D01*
G01*
X145067000Y-105464500D01*
G75*
G02*
X145267000Y-105264500I200000J0D01*
G01*
G37*
M02*
