G04 #@! TF.GenerationSoftware,KiCad,Pcbnew,5.1.10-88a1d61d58~88~ubuntu18.04.1*
G04 #@! TF.CreationDate,2021-09-30T15:30:20+02:00*
G04 #@! TF.ProjectId,preamplifier,70726561-6d70-46c6-9966-6965722e6b69,rev?*
G04 #@! TF.SameCoordinates,Original*
G04 #@! TF.FileFunction,Legend,Bot*
G04 #@! TF.FilePolarity,Positive*
%FSLAX46Y46*%
G04 Gerber Fmt 4.6, Leading zero omitted, Abs format (unit mm)*
G04 Created by KiCad (PCBNEW 5.1.10-88a1d61d58~88~ubuntu18.04.1) date 2021-09-30 15:30:20*
%MOMM*%
%LPD*%
G01*
G04 APERTURE LIST*
%ADD10C,0.254000*%
%ADD11C,0.150000*%
%ADD12R,5.000000X1.600000*%
G04 APERTURE END LIST*
D10*
X131572000Y-100203000D02*
X131572000Y-109982000D01*
D11*
X130522023Y-103665761D02*
X130379166Y-103713380D01*
X130141071Y-103713380D01*
X130045833Y-103665761D01*
X129998214Y-103618142D01*
X129950595Y-103522904D01*
X129950595Y-103427666D01*
X129998214Y-103332428D01*
X130045833Y-103284809D01*
X130141071Y-103237190D01*
X130331547Y-103189571D01*
X130426785Y-103141952D01*
X130474404Y-103094333D01*
X130522023Y-102999095D01*
X130522023Y-102903857D01*
X130474404Y-102808619D01*
X130426785Y-102761000D01*
X130331547Y-102713380D01*
X130093452Y-102713380D01*
X129950595Y-102761000D01*
X129141071Y-103665761D02*
X129236309Y-103713380D01*
X129426785Y-103713380D01*
X129522023Y-103665761D01*
X129569642Y-103570523D01*
X129569642Y-103189571D01*
X129522023Y-103094333D01*
X129426785Y-103046714D01*
X129236309Y-103046714D01*
X129141071Y-103094333D01*
X129093452Y-103189571D01*
X129093452Y-103284809D01*
X129569642Y-103380047D01*
X128664880Y-103713380D02*
X128664880Y-103046714D01*
X128664880Y-103141952D02*
X128617261Y-103094333D01*
X128522023Y-103046714D01*
X128379166Y-103046714D01*
X128283928Y-103094333D01*
X128236309Y-103189571D01*
X128236309Y-103713380D01*
X128236309Y-103189571D02*
X128188690Y-103094333D01*
X128093452Y-103046714D01*
X127950595Y-103046714D01*
X127855357Y-103094333D01*
X127807738Y-103189571D01*
X127807738Y-103713380D01*
X127331547Y-103713380D02*
X127331547Y-103046714D01*
X127331547Y-102713380D02*
X127379166Y-102761000D01*
X127331547Y-102808619D01*
X127283928Y-102761000D01*
X127331547Y-102713380D01*
X127331547Y-102808619D01*
X126426785Y-103665761D02*
X126522023Y-103713380D01*
X126712500Y-103713380D01*
X126807738Y-103665761D01*
X126855357Y-103618142D01*
X126902976Y-103522904D01*
X126902976Y-103237190D01*
X126855357Y-103141952D01*
X126807738Y-103094333D01*
X126712500Y-103046714D01*
X126522023Y-103046714D01*
X126426785Y-103094333D01*
X125855357Y-103713380D02*
X125950595Y-103665761D01*
X125998214Y-103618142D01*
X126045833Y-103522904D01*
X126045833Y-103237190D01*
X125998214Y-103141952D01*
X125950595Y-103094333D01*
X125855357Y-103046714D01*
X125712500Y-103046714D01*
X125617261Y-103094333D01*
X125569642Y-103141952D01*
X125522023Y-103237190D01*
X125522023Y-103522904D01*
X125569642Y-103618142D01*
X125617261Y-103665761D01*
X125712500Y-103713380D01*
X125855357Y-103713380D01*
X125093452Y-103046714D02*
X125093452Y-103713380D01*
X125093452Y-103141952D02*
X125045833Y-103094333D01*
X124950595Y-103046714D01*
X124807738Y-103046714D01*
X124712500Y-103094333D01*
X124664880Y-103189571D01*
X124664880Y-103713380D01*
X123760119Y-103713380D02*
X123760119Y-102713380D01*
X123760119Y-103665761D02*
X123855357Y-103713380D01*
X124045833Y-103713380D01*
X124141071Y-103665761D01*
X124188690Y-103618142D01*
X124236309Y-103522904D01*
X124236309Y-103237190D01*
X124188690Y-103141952D01*
X124141071Y-103094333D01*
X124045833Y-103046714D01*
X123855357Y-103046714D01*
X123760119Y-103094333D01*
X122855357Y-103046714D02*
X122855357Y-103713380D01*
X123283928Y-103046714D02*
X123283928Y-103570523D01*
X123236309Y-103665761D01*
X123141071Y-103713380D01*
X122998214Y-103713380D01*
X122902976Y-103665761D01*
X122855357Y-103618142D01*
X121950595Y-103665761D02*
X122045833Y-103713380D01*
X122236309Y-103713380D01*
X122331547Y-103665761D01*
X122379166Y-103618142D01*
X122426785Y-103522904D01*
X122426785Y-103237190D01*
X122379166Y-103141952D01*
X122331547Y-103094333D01*
X122236309Y-103046714D01*
X122045833Y-103046714D01*
X121950595Y-103094333D01*
X121664880Y-103046714D02*
X121283928Y-103046714D01*
X121522023Y-102713380D02*
X121522023Y-103570523D01*
X121474404Y-103665761D01*
X121379166Y-103713380D01*
X121283928Y-103713380D01*
X120807738Y-103713380D02*
X120902976Y-103665761D01*
X120950595Y-103618142D01*
X120998214Y-103522904D01*
X120998214Y-103237190D01*
X120950595Y-103141952D01*
X120902976Y-103094333D01*
X120807738Y-103046714D01*
X120664880Y-103046714D01*
X120569642Y-103094333D01*
X120522023Y-103141952D01*
X120474404Y-103237190D01*
X120474404Y-103522904D01*
X120522023Y-103618142D01*
X120569642Y-103665761D01*
X120664880Y-103713380D01*
X120807738Y-103713380D01*
X120045833Y-103713380D02*
X120045833Y-103046714D01*
X120045833Y-103237190D02*
X119998214Y-103141952D01*
X119950595Y-103094333D01*
X119855357Y-103046714D01*
X119760119Y-103046714D01*
X118664880Y-103713380D02*
X118664880Y-103046714D01*
X118664880Y-103237190D02*
X118617261Y-103141952D01*
X118569642Y-103094333D01*
X118474404Y-103046714D01*
X118379166Y-103046714D01*
X117617261Y-103713380D02*
X117617261Y-103189571D01*
X117664880Y-103094333D01*
X117760119Y-103046714D01*
X117950595Y-103046714D01*
X118045833Y-103094333D01*
X117617261Y-103665761D02*
X117712500Y-103713380D01*
X117950595Y-103713380D01*
X118045833Y-103665761D01*
X118093452Y-103570523D01*
X118093452Y-103475285D01*
X118045833Y-103380047D01*
X117950595Y-103332428D01*
X117712500Y-103332428D01*
X117617261Y-103284809D01*
X116712500Y-103713380D02*
X116712500Y-102713380D01*
X116712500Y-103665761D02*
X116807738Y-103713380D01*
X116998214Y-103713380D01*
X117093452Y-103665761D01*
X117141071Y-103618142D01*
X117188690Y-103522904D01*
X117188690Y-103237190D01*
X117141071Y-103141952D01*
X117093452Y-103094333D01*
X116998214Y-103046714D01*
X116807738Y-103046714D01*
X116712500Y-103094333D01*
X116236309Y-103713380D02*
X116236309Y-103046714D01*
X116236309Y-102713380D02*
X116283928Y-102761000D01*
X116236309Y-102808619D01*
X116188690Y-102761000D01*
X116236309Y-102713380D01*
X116236309Y-102808619D01*
X115331547Y-103713380D02*
X115331547Y-103189571D01*
X115379166Y-103094333D01*
X115474404Y-103046714D01*
X115664880Y-103046714D01*
X115760119Y-103094333D01*
X115331547Y-103665761D02*
X115426785Y-103713380D01*
X115664880Y-103713380D01*
X115760119Y-103665761D01*
X115807738Y-103570523D01*
X115807738Y-103475285D01*
X115760119Y-103380047D01*
X115664880Y-103332428D01*
X115426785Y-103332428D01*
X115331547Y-103284809D01*
X114998214Y-103046714D02*
X114617261Y-103046714D01*
X114855357Y-102713380D02*
X114855357Y-103570523D01*
X114807738Y-103665761D01*
X114712500Y-103713380D01*
X114617261Y-103713380D01*
X114283928Y-103713380D02*
X114283928Y-103046714D01*
X114283928Y-102713380D02*
X114331547Y-102761000D01*
X114283928Y-102808619D01*
X114236309Y-102761000D01*
X114283928Y-102713380D01*
X114283928Y-102808619D01*
X113664880Y-103713380D02*
X113760119Y-103665761D01*
X113807738Y-103618142D01*
X113855357Y-103522904D01*
X113855357Y-103237190D01*
X113807738Y-103141952D01*
X113760119Y-103094333D01*
X113664880Y-103046714D01*
X113522023Y-103046714D01*
X113426785Y-103094333D01*
X113379166Y-103141952D01*
X113331547Y-103237190D01*
X113331547Y-103522904D01*
X113379166Y-103618142D01*
X113426785Y-103665761D01*
X113522023Y-103713380D01*
X113664880Y-103713380D01*
X112902976Y-103046714D02*
X112902976Y-103713380D01*
X112902976Y-103141952D02*
X112855357Y-103094333D01*
X112760119Y-103046714D01*
X112617261Y-103046714D01*
X112522023Y-103094333D01*
X112474404Y-103189571D01*
X112474404Y-103713380D01*
X130045833Y-105363380D02*
X130045833Y-104363380D01*
X130045833Y-105315761D02*
X130141071Y-105363380D01*
X130331547Y-105363380D01*
X130426785Y-105315761D01*
X130474404Y-105268142D01*
X130522023Y-105172904D01*
X130522023Y-104887190D01*
X130474404Y-104791952D01*
X130426785Y-104744333D01*
X130331547Y-104696714D01*
X130141071Y-104696714D01*
X130045833Y-104744333D01*
X129188690Y-105315761D02*
X129283928Y-105363380D01*
X129474404Y-105363380D01*
X129569642Y-105315761D01*
X129617261Y-105220523D01*
X129617261Y-104839571D01*
X129569642Y-104744333D01*
X129474404Y-104696714D01*
X129283928Y-104696714D01*
X129188690Y-104744333D01*
X129141071Y-104839571D01*
X129141071Y-104934809D01*
X129617261Y-105030047D01*
X128855357Y-104696714D02*
X128474404Y-104696714D01*
X128712500Y-104363380D02*
X128712500Y-105220523D01*
X128664880Y-105315761D01*
X128569642Y-105363380D01*
X128474404Y-105363380D01*
X127760119Y-105315761D02*
X127855357Y-105363380D01*
X128045833Y-105363380D01*
X128141071Y-105315761D01*
X128188690Y-105220523D01*
X128188690Y-104839571D01*
X128141071Y-104744333D01*
X128045833Y-104696714D01*
X127855357Y-104696714D01*
X127760119Y-104744333D01*
X127712500Y-104839571D01*
X127712500Y-104934809D01*
X128188690Y-105030047D01*
X126855357Y-105315761D02*
X126950595Y-105363380D01*
X127141071Y-105363380D01*
X127236309Y-105315761D01*
X127283928Y-105268142D01*
X127331547Y-105172904D01*
X127331547Y-104887190D01*
X127283928Y-104791952D01*
X127236309Y-104744333D01*
X127141071Y-104696714D01*
X126950595Y-104696714D01*
X126855357Y-104744333D01*
X126569642Y-104696714D02*
X126188690Y-104696714D01*
X126426785Y-104363380D02*
X126426785Y-105220523D01*
X126379166Y-105315761D01*
X126283928Y-105363380D01*
X126188690Y-105363380D01*
X125712500Y-105363380D02*
X125807738Y-105315761D01*
X125855357Y-105268142D01*
X125902976Y-105172904D01*
X125902976Y-104887190D01*
X125855357Y-104791952D01*
X125807738Y-104744333D01*
X125712500Y-104696714D01*
X125569642Y-104696714D01*
X125474404Y-104744333D01*
X125426785Y-104791952D01*
X125379166Y-104887190D01*
X125379166Y-105172904D01*
X125426785Y-105268142D01*
X125474404Y-105315761D01*
X125569642Y-105363380D01*
X125712500Y-105363380D01*
X124950595Y-105363380D02*
X124950595Y-104696714D01*
X124950595Y-104887190D02*
X124902976Y-104791952D01*
X124855357Y-104744333D01*
X124760119Y-104696714D01*
X124664880Y-104696714D01*
X124331547Y-105268142D02*
X124283928Y-105315761D01*
X124331547Y-105363380D01*
X124379166Y-105315761D01*
X124331547Y-105268142D01*
X124331547Y-105363380D01*
X124331547Y-104744333D02*
X124283928Y-104791952D01*
X124331547Y-104839571D01*
X124379166Y-104791952D01*
X124331547Y-104744333D01*
X124331547Y-104839571D01*
X123093452Y-104696714D02*
X123093452Y-105696714D01*
X123093452Y-104744333D02*
X122998214Y-104696714D01*
X122807738Y-104696714D01*
X122712500Y-104744333D01*
X122664880Y-104791952D01*
X122617261Y-104887190D01*
X122617261Y-105172904D01*
X122664880Y-105268142D01*
X122712500Y-105315761D01*
X122807738Y-105363380D01*
X122998214Y-105363380D01*
X123093452Y-105315761D01*
X122188690Y-105363380D02*
X122188690Y-104696714D01*
X122188690Y-104887190D02*
X122141071Y-104791952D01*
X122093452Y-104744333D01*
X121998214Y-104696714D01*
X121902976Y-104696714D01*
X121188690Y-105315761D02*
X121283928Y-105363380D01*
X121474404Y-105363380D01*
X121569642Y-105315761D01*
X121617261Y-105220523D01*
X121617261Y-104839571D01*
X121569642Y-104744333D01*
X121474404Y-104696714D01*
X121283928Y-104696714D01*
X121188690Y-104744333D01*
X121141071Y-104839571D01*
X121141071Y-104934809D01*
X121617261Y-105030047D01*
X120283928Y-105363380D02*
X120283928Y-104839571D01*
X120331547Y-104744333D01*
X120426785Y-104696714D01*
X120617261Y-104696714D01*
X120712500Y-104744333D01*
X120283928Y-105315761D02*
X120379166Y-105363380D01*
X120617261Y-105363380D01*
X120712500Y-105315761D01*
X120760119Y-105220523D01*
X120760119Y-105125285D01*
X120712500Y-105030047D01*
X120617261Y-104982428D01*
X120379166Y-104982428D01*
X120283928Y-104934809D01*
X119807738Y-105363380D02*
X119807738Y-104696714D01*
X119807738Y-104791952D02*
X119760119Y-104744333D01*
X119664880Y-104696714D01*
X119522023Y-104696714D01*
X119426785Y-104744333D01*
X119379166Y-104839571D01*
X119379166Y-105363380D01*
X119379166Y-104839571D02*
X119331547Y-104744333D01*
X119236309Y-104696714D01*
X119093452Y-104696714D01*
X118998214Y-104744333D01*
X118950595Y-104839571D01*
X118950595Y-105363380D01*
X118474404Y-104696714D02*
X118474404Y-105696714D01*
X118474404Y-104744333D02*
X118379166Y-104696714D01*
X118188690Y-104696714D01*
X118093452Y-104744333D01*
X118045833Y-104791952D01*
X117998214Y-104887190D01*
X117998214Y-105172904D01*
X118045833Y-105268142D01*
X118093452Y-105315761D01*
X118188690Y-105363380D01*
X118379166Y-105363380D01*
X118474404Y-105315761D01*
X117426785Y-105363380D02*
X117522023Y-105315761D01*
X117569642Y-105220523D01*
X117569642Y-104363380D01*
X117045833Y-105363380D02*
X117045833Y-104696714D01*
X117045833Y-104363380D02*
X117093452Y-104411000D01*
X117045833Y-104458619D01*
X116998214Y-104411000D01*
X117045833Y-104363380D01*
X117045833Y-104458619D01*
X116712500Y-104696714D02*
X116331547Y-104696714D01*
X116569642Y-105363380D02*
X116569642Y-104506238D01*
X116522023Y-104411000D01*
X116426785Y-104363380D01*
X116331547Y-104363380D01*
X115998214Y-105363380D02*
X115998214Y-104696714D01*
X115998214Y-104363380D02*
X116045833Y-104411000D01*
X115998214Y-104458619D01*
X115950595Y-104411000D01*
X115998214Y-104363380D01*
X115998214Y-104458619D01*
X115141071Y-105315761D02*
X115236309Y-105363380D01*
X115426785Y-105363380D01*
X115522023Y-105315761D01*
X115569642Y-105220523D01*
X115569642Y-104839571D01*
X115522023Y-104744333D01*
X115426785Y-104696714D01*
X115236309Y-104696714D01*
X115141071Y-104744333D01*
X115093452Y-104839571D01*
X115093452Y-104934809D01*
X115569642Y-105030047D01*
X114664880Y-105363380D02*
X114664880Y-104696714D01*
X114664880Y-104887190D02*
X114617261Y-104791952D01*
X114569642Y-104744333D01*
X114474404Y-104696714D01*
X114379166Y-104696714D01*
X130474404Y-107013380D02*
X130474404Y-106013380D01*
X130141071Y-106727666D01*
X129807738Y-106013380D01*
X129807738Y-107013380D01*
X128902976Y-107013380D02*
X128902976Y-106489571D01*
X128950595Y-106394333D01*
X129045833Y-106346714D01*
X129236309Y-106346714D01*
X129331547Y-106394333D01*
X128902976Y-106965761D02*
X128998214Y-107013380D01*
X129236309Y-107013380D01*
X129331547Y-106965761D01*
X129379166Y-106870523D01*
X129379166Y-106775285D01*
X129331547Y-106680047D01*
X129236309Y-106632428D01*
X128998214Y-106632428D01*
X128902976Y-106584809D01*
X128426785Y-107013380D02*
X128426785Y-106346714D01*
X128426785Y-106537190D02*
X128379166Y-106441952D01*
X128331547Y-106394333D01*
X128236309Y-106346714D01*
X128141071Y-106346714D01*
X127379166Y-106965761D02*
X127474404Y-107013380D01*
X127664880Y-107013380D01*
X127760119Y-106965761D01*
X127807738Y-106918142D01*
X127855357Y-106822904D01*
X127855357Y-106537190D01*
X127807738Y-106441952D01*
X127760119Y-106394333D01*
X127664880Y-106346714D01*
X127474404Y-106346714D01*
X127379166Y-106394333D01*
X126950595Y-107013380D02*
X126950595Y-106346714D01*
X126950595Y-106013380D02*
X126998214Y-106061000D01*
X126950595Y-106108619D01*
X126902976Y-106061000D01*
X126950595Y-106013380D01*
X126950595Y-106108619D01*
X126474404Y-106346714D02*
X126474404Y-107013380D01*
X126474404Y-106441952D02*
X126426785Y-106394333D01*
X126331547Y-106346714D01*
X126188690Y-106346714D01*
X126093452Y-106394333D01*
X126045833Y-106489571D01*
X126045833Y-107013380D01*
X124902976Y-106013380D02*
X124664880Y-107013380D01*
X124474404Y-106299095D01*
X124283928Y-107013380D01*
X124045833Y-106013380D01*
X123236309Y-107013380D02*
X123236309Y-106489571D01*
X123283928Y-106394333D01*
X123379166Y-106346714D01*
X123569642Y-106346714D01*
X123664880Y-106394333D01*
X123236309Y-106965761D02*
X123331547Y-107013380D01*
X123569642Y-107013380D01*
X123664880Y-106965761D01*
X123712500Y-106870523D01*
X123712500Y-106775285D01*
X123664880Y-106680047D01*
X123569642Y-106632428D01*
X123331547Y-106632428D01*
X123236309Y-106584809D01*
X122331547Y-106965761D02*
X122426785Y-107013380D01*
X122617261Y-107013380D01*
X122712500Y-106965761D01*
X122760119Y-106918142D01*
X122807738Y-106822904D01*
X122807738Y-106537190D01*
X122760119Y-106441952D01*
X122712500Y-106394333D01*
X122617261Y-106346714D01*
X122426785Y-106346714D01*
X122331547Y-106394333D01*
X121902976Y-107013380D02*
X121902976Y-106013380D01*
X121474404Y-107013380D02*
X121474404Y-106489571D01*
X121522023Y-106394333D01*
X121617261Y-106346714D01*
X121760119Y-106346714D01*
X121855357Y-106394333D01*
X121902976Y-106441952D01*
X120855357Y-107013380D02*
X120950595Y-106965761D01*
X120998214Y-106918142D01*
X121045833Y-106822904D01*
X121045833Y-106537190D01*
X120998214Y-106441952D01*
X120950595Y-106394333D01*
X120855357Y-106346714D01*
X120712500Y-106346714D01*
X120617261Y-106394333D01*
X120569642Y-106441952D01*
X120522023Y-106537190D01*
X120522023Y-106822904D01*
X120569642Y-106918142D01*
X120617261Y-106965761D01*
X120712500Y-107013380D01*
X120855357Y-107013380D01*
X120188690Y-106346714D02*
X119998214Y-107013380D01*
X119807738Y-106537190D01*
X119617261Y-107013380D01*
X119426785Y-106346714D01*
X119045833Y-107013380D02*
X119045833Y-106346714D01*
X119045833Y-106013380D02*
X119093452Y-106061000D01*
X119045833Y-106108619D01*
X118998214Y-106061000D01*
X119045833Y-106013380D01*
X119045833Y-106108619D01*
X118141071Y-107013380D02*
X118141071Y-106489571D01*
X118188690Y-106394333D01*
X118283928Y-106346714D01*
X118474404Y-106346714D01*
X118569642Y-106394333D01*
X118141071Y-106965761D02*
X118236309Y-107013380D01*
X118474404Y-107013380D01*
X118569642Y-106965761D01*
X118617261Y-106870523D01*
X118617261Y-106775285D01*
X118569642Y-106680047D01*
X118474404Y-106632428D01*
X118236309Y-106632428D01*
X118141071Y-106584809D01*
X117664880Y-107013380D02*
X117664880Y-106013380D01*
X117569642Y-106632428D02*
X117283928Y-107013380D01*
X117283928Y-106346714D02*
X117664880Y-106727666D01*
X116807738Y-106965761D02*
X116807738Y-107013380D01*
X116855357Y-107108619D01*
X116902976Y-107156238D01*
X115617261Y-107013380D02*
X115617261Y-106013380D01*
X115236309Y-106013380D01*
X115141071Y-106061000D01*
X115093452Y-106108619D01*
X115045833Y-106203857D01*
X115045833Y-106346714D01*
X115093452Y-106441952D01*
X115141071Y-106489571D01*
X115236309Y-106537190D01*
X115617261Y-106537190D01*
X114474404Y-107013380D02*
X114569642Y-106965761D01*
X114617261Y-106918142D01*
X114664880Y-106822904D01*
X114664880Y-106537190D01*
X114617261Y-106441952D01*
X114569642Y-106394333D01*
X114474404Y-106346714D01*
X114331547Y-106346714D01*
X114236309Y-106394333D01*
X114188690Y-106441952D01*
X114141071Y-106537190D01*
X114141071Y-106822904D01*
X114188690Y-106918142D01*
X114236309Y-106965761D01*
X114331547Y-107013380D01*
X114474404Y-107013380D01*
X113569642Y-107013380D02*
X113664880Y-106965761D01*
X113712500Y-106870523D01*
X113712500Y-106013380D01*
X112760119Y-107013380D02*
X112760119Y-106489571D01*
X112807738Y-106394333D01*
X112902976Y-106346714D01*
X113093452Y-106346714D01*
X113188690Y-106394333D01*
X112760119Y-106965761D02*
X112855357Y-107013380D01*
X113093452Y-107013380D01*
X113188690Y-106965761D01*
X113236309Y-106870523D01*
X113236309Y-106775285D01*
X113188690Y-106680047D01*
X113093452Y-106632428D01*
X112855357Y-106632428D01*
X112760119Y-106584809D01*
X112283928Y-106346714D02*
X112283928Y-107013380D01*
X112283928Y-106441952D02*
X112236309Y-106394333D01*
X112141071Y-106346714D01*
X111998214Y-106346714D01*
X111902976Y-106394333D01*
X111855357Y-106489571D01*
X111855357Y-107013380D01*
X110950595Y-107013380D02*
X110950595Y-106013380D01*
X110950595Y-106965761D02*
X111045833Y-107013380D01*
X111236309Y-107013380D01*
X111331547Y-106965761D01*
X111379166Y-106918142D01*
X111426785Y-106822904D01*
X111426785Y-106537190D01*
X111379166Y-106441952D01*
X111331547Y-106394333D01*
X111236309Y-106346714D01*
X111045833Y-106346714D01*
X110950595Y-106394333D01*
X134175619Y-107632166D02*
X134223238Y-107727404D01*
X134270857Y-107775023D01*
X134366095Y-107822642D01*
X134651809Y-107822642D01*
X134747047Y-107775023D01*
X134794666Y-107727404D01*
X134842285Y-107632166D01*
X134842285Y-107489309D01*
X134794666Y-107394071D01*
X134747047Y-107346452D01*
X134651809Y-107298833D01*
X134366095Y-107298833D01*
X134270857Y-107346452D01*
X134223238Y-107394071D01*
X134175619Y-107489309D01*
X134175619Y-107632166D01*
X134842285Y-106870261D02*
X133842285Y-106870261D01*
X134794666Y-106870261D02*
X134842285Y-106775023D01*
X134842285Y-106584547D01*
X134794666Y-106489309D01*
X134747047Y-106441690D01*
X134651809Y-106394071D01*
X134366095Y-106394071D01*
X134270857Y-106441690D01*
X134223238Y-106489309D01*
X134175619Y-106584547D01*
X134175619Y-106775023D01*
X134223238Y-106870261D01*
X134842285Y-106108357D02*
X134842285Y-105727404D01*
X135175619Y-105965500D02*
X134318476Y-105965500D01*
X134223238Y-105917880D01*
X134175619Y-105822642D01*
X134175619Y-105727404D01*
X134175619Y-105394071D02*
X134842285Y-105394071D01*
X135175619Y-105394071D02*
X135128000Y-105441690D01*
X135080380Y-105394071D01*
X135128000Y-105346452D01*
X135175619Y-105394071D01*
X135080380Y-105394071D01*
X134175619Y-104775023D02*
X134223238Y-104870261D01*
X134270857Y-104917880D01*
X134366095Y-104965500D01*
X134651809Y-104965500D01*
X134747047Y-104917880D01*
X134794666Y-104870261D01*
X134842285Y-104775023D01*
X134842285Y-104632166D01*
X134794666Y-104536928D01*
X134747047Y-104489309D01*
X134651809Y-104441690D01*
X134366095Y-104441690D01*
X134270857Y-104489309D01*
X134223238Y-104536928D01*
X134175619Y-104632166D01*
X134175619Y-104775023D01*
X134842285Y-104013119D02*
X134175619Y-104013119D01*
X134747047Y-104013119D02*
X134794666Y-103965500D01*
X134842285Y-103870261D01*
X134842285Y-103727404D01*
X134794666Y-103632166D01*
X134699428Y-103584547D01*
X134175619Y-103584547D01*
X134175619Y-102679785D02*
X134699428Y-102679785D01*
X134794666Y-102727404D01*
X134842285Y-102822642D01*
X134842285Y-103013119D01*
X134794666Y-103108357D01*
X134223238Y-102679785D02*
X134175619Y-102775023D01*
X134175619Y-103013119D01*
X134223238Y-103108357D01*
X134318476Y-103155976D01*
X134413714Y-103155976D01*
X134508952Y-103108357D01*
X134556571Y-103013119D01*
X134556571Y-102775023D01*
X134604190Y-102679785D01*
X134175619Y-102060738D02*
X134223238Y-102155976D01*
X134318476Y-102203595D01*
X135175619Y-102203595D01*
X132573238Y-105465500D02*
X132525619Y-105560738D01*
X132525619Y-105751214D01*
X132573238Y-105846452D01*
X132620857Y-105894071D01*
X132716095Y-105941690D01*
X133001809Y-105941690D01*
X133097047Y-105894071D01*
X133144666Y-105846452D01*
X133192285Y-105751214D01*
X133192285Y-105560738D01*
X133144666Y-105465500D01*
X133192285Y-104608357D02*
X132525619Y-104608357D01*
X133192285Y-105036928D02*
X132668476Y-105036928D01*
X132573238Y-104989309D01*
X132525619Y-104894071D01*
X132525619Y-104751214D01*
X132573238Y-104655976D01*
X132620857Y-104608357D01*
X133192285Y-104275023D02*
X133192285Y-103894071D01*
X133525619Y-104132166D02*
X132668476Y-104132166D01*
X132573238Y-104084547D01*
X132525619Y-103989309D01*
X132525619Y-103894071D01*
X158211257Y-109418380D02*
X158544590Y-108942190D01*
X158782685Y-109418380D02*
X158782685Y-108418380D01*
X158401733Y-108418380D01*
X158306495Y-108466000D01*
X158258876Y-108513619D01*
X158211257Y-108608857D01*
X158211257Y-108751714D01*
X158258876Y-108846952D01*
X158306495Y-108894571D01*
X158401733Y-108942190D01*
X158782685Y-108942190D01*
X157258876Y-109418380D02*
X157830304Y-109418380D01*
X157544590Y-109418380D02*
X157544590Y-108418380D01*
X157639828Y-108561238D01*
X157735066Y-108656476D01*
X157830304Y-108704095D01*
X156401733Y-108418380D02*
X156592209Y-108418380D01*
X156687447Y-108466000D01*
X156735066Y-108513619D01*
X156830304Y-108656476D01*
X156877923Y-108846952D01*
X156877923Y-109227904D01*
X156830304Y-109323142D01*
X156782685Y-109370761D01*
X156687447Y-109418380D01*
X156496971Y-109418380D01*
X156401733Y-109370761D01*
X156354114Y-109323142D01*
X156306495Y-109227904D01*
X156306495Y-108989809D01*
X156354114Y-108894571D01*
X156401733Y-108846952D01*
X156496971Y-108799333D01*
X156687447Y-108799333D01*
X156782685Y-108846952D01*
X156830304Y-108894571D01*
X156877923Y-108989809D01*
X161678857Y-109577142D02*
X161726476Y-109624761D01*
X161869333Y-109672380D01*
X161964571Y-109672380D01*
X162107428Y-109624761D01*
X162202666Y-109529523D01*
X162250285Y-109434285D01*
X162297904Y-109243809D01*
X162297904Y-109100952D01*
X162250285Y-108910476D01*
X162202666Y-108815238D01*
X162107428Y-108720000D01*
X161964571Y-108672380D01*
X161869333Y-108672380D01*
X161726476Y-108720000D01*
X161678857Y-108767619D01*
X160726476Y-109672380D02*
X161297904Y-109672380D01*
X161012190Y-109672380D02*
X161012190Y-108672380D01*
X161107428Y-108815238D01*
X161202666Y-108910476D01*
X161297904Y-108958095D01*
X160250285Y-109672380D02*
X160059809Y-109672380D01*
X159964571Y-109624761D01*
X159916952Y-109577142D01*
X159821714Y-109434285D01*
X159774095Y-109243809D01*
X159774095Y-108862857D01*
X159821714Y-108767619D01*
X159869333Y-108720000D01*
X159964571Y-108672380D01*
X160155047Y-108672380D01*
X160250285Y-108720000D01*
X160297904Y-108767619D01*
X160345523Y-108862857D01*
X160345523Y-109100952D01*
X160297904Y-109196190D01*
X160250285Y-109243809D01*
X160155047Y-109291428D01*
X159964571Y-109291428D01*
X159869333Y-109243809D01*
X159821714Y-109196190D01*
X159774095Y-109100952D01*
X168870238Y-105735380D02*
X169203571Y-105259190D01*
X169441666Y-105735380D02*
X169441666Y-104735380D01*
X169060714Y-104735380D01*
X168965476Y-104783000D01*
X168917857Y-104830619D01*
X168870238Y-104925857D01*
X168870238Y-105068714D01*
X168917857Y-105163952D01*
X168965476Y-105211571D01*
X169060714Y-105259190D01*
X169441666Y-105259190D01*
X168584523Y-104735380D02*
X168251190Y-105735380D01*
X167917857Y-104735380D01*
X167060714Y-105735380D02*
X167632142Y-105735380D01*
X167346428Y-105735380D02*
X167346428Y-104735380D01*
X167441666Y-104878238D01*
X167536904Y-104973476D01*
X167632142Y-105021095D01*
X168409857Y-101576142D02*
X168457476Y-101623761D01*
X168600333Y-101671380D01*
X168695571Y-101671380D01*
X168838428Y-101623761D01*
X168933666Y-101528523D01*
X168981285Y-101433285D01*
X169028904Y-101242809D01*
X169028904Y-101099952D01*
X168981285Y-100909476D01*
X168933666Y-100814238D01*
X168838428Y-100719000D01*
X168695571Y-100671380D01*
X168600333Y-100671380D01*
X168457476Y-100719000D01*
X168409857Y-100766619D01*
X167457476Y-101671380D02*
X168028904Y-101671380D01*
X167743190Y-101671380D02*
X167743190Y-100671380D01*
X167838428Y-100814238D01*
X167933666Y-100909476D01*
X168028904Y-100957095D01*
X167124142Y-100671380D02*
X166457476Y-100671380D01*
X166886047Y-101671380D01*
X162051904Y-104481380D02*
X162051904Y-105290904D01*
X162004285Y-105386142D01*
X161956666Y-105433761D01*
X161861428Y-105481380D01*
X161670952Y-105481380D01*
X161575714Y-105433761D01*
X161528095Y-105386142D01*
X161480476Y-105290904D01*
X161480476Y-104481380D01*
X161051904Y-104576619D02*
X161004285Y-104529000D01*
X160909047Y-104481380D01*
X160670952Y-104481380D01*
X160575714Y-104529000D01*
X160528095Y-104576619D01*
X160480476Y-104671857D01*
X160480476Y-104767095D01*
X160528095Y-104909952D01*
X161099523Y-105481380D01*
X160480476Y-105481380D01*
X157297380Y-106526033D02*
X157297380Y-106049842D01*
X156297380Y-106049842D01*
X156297380Y-106764128D02*
X156297380Y-107383176D01*
X156678333Y-107049842D01*
X156678333Y-107192700D01*
X156725952Y-107287938D01*
X156773571Y-107335557D01*
X156868809Y-107383176D01*
X157106904Y-107383176D01*
X157202142Y-107335557D01*
X157249761Y-107287938D01*
X157297380Y-107192700D01*
X157297380Y-106906985D01*
X157249761Y-106811747D01*
X157202142Y-106764128D01*
X159964380Y-101687333D02*
X159964380Y-101211142D01*
X158964380Y-101211142D01*
X159059619Y-101973047D02*
X159012000Y-102020666D01*
X158964380Y-102115904D01*
X158964380Y-102354000D01*
X159012000Y-102449238D01*
X159059619Y-102496857D01*
X159154857Y-102544476D01*
X159250095Y-102544476D01*
X159392952Y-102496857D01*
X159964380Y-101925428D01*
X159964380Y-102544476D01*
X149772666Y-108275380D02*
X150248857Y-108275380D01*
X150248857Y-107275380D01*
X148915523Y-108275380D02*
X149486952Y-108275380D01*
X149201238Y-108275380D02*
X149201238Y-107275380D01*
X149296476Y-107418238D01*
X149391714Y-107513476D01*
X149486952Y-107561095D01*
X151002904Y-100671380D02*
X151002904Y-101480904D01*
X150955285Y-101576142D01*
X150907666Y-101623761D01*
X150812428Y-101671380D01*
X150621952Y-101671380D01*
X150526714Y-101623761D01*
X150479095Y-101576142D01*
X150431476Y-101480904D01*
X150431476Y-100671380D01*
X149431476Y-101671380D02*
X150002904Y-101671380D01*
X149717190Y-101671380D02*
X149717190Y-100671380D01*
X149812428Y-100814238D01*
X149907666Y-100909476D01*
X150002904Y-100957095D01*
X161957757Y-108148380D02*
X162291090Y-107672190D01*
X162529185Y-108148380D02*
X162529185Y-107148380D01*
X162148233Y-107148380D01*
X162052995Y-107196000D01*
X162005376Y-107243619D01*
X161957757Y-107338857D01*
X161957757Y-107481714D01*
X162005376Y-107576952D01*
X162052995Y-107624571D01*
X162148233Y-107672190D01*
X162529185Y-107672190D01*
X161005376Y-108148380D02*
X161576804Y-108148380D01*
X161291090Y-108148380D02*
X161291090Y-107148380D01*
X161386328Y-107291238D01*
X161481566Y-107386476D01*
X161576804Y-107434095D01*
X160672042Y-107148380D02*
X160005376Y-107148380D01*
X160433947Y-108148380D01*
X148534380Y-104640142D02*
X148058190Y-104306809D01*
X148534380Y-104068714D02*
X147534380Y-104068714D01*
X147534380Y-104449666D01*
X147582000Y-104544904D01*
X147629619Y-104592523D01*
X147724857Y-104640142D01*
X147867714Y-104640142D01*
X147962952Y-104592523D01*
X148010571Y-104544904D01*
X148058190Y-104449666D01*
X148058190Y-104068714D01*
X148534380Y-105592523D02*
X148534380Y-105021095D01*
X148534380Y-105306809D02*
X147534380Y-105306809D01*
X147677238Y-105211571D01*
X147772476Y-105116333D01*
X147820095Y-105021095D01*
X147534380Y-106497285D02*
X147534380Y-106021095D01*
X148010571Y-105973476D01*
X147962952Y-106021095D01*
X147915333Y-106116333D01*
X147915333Y-106354428D01*
X147962952Y-106449666D01*
X148010571Y-106497285D01*
X148105809Y-106544904D01*
X148343904Y-106544904D01*
X148439142Y-106497285D01*
X148486761Y-106449666D01*
X148534380Y-106354428D01*
X148534380Y-106116333D01*
X148486761Y-106021095D01*
X148439142Y-105973476D01*
X164980857Y-109672380D02*
X165314190Y-109196190D01*
X165552285Y-109672380D02*
X165552285Y-108672380D01*
X165171333Y-108672380D01*
X165076095Y-108720000D01*
X165028476Y-108767619D01*
X164980857Y-108862857D01*
X164980857Y-109005714D01*
X165028476Y-109100952D01*
X165076095Y-109148571D01*
X165171333Y-109196190D01*
X165552285Y-109196190D01*
X164028476Y-109672380D02*
X164599904Y-109672380D01*
X164314190Y-109672380D02*
X164314190Y-108672380D01*
X164409428Y-108815238D01*
X164504666Y-108910476D01*
X164599904Y-108958095D01*
X163171333Y-109005714D02*
X163171333Y-109672380D01*
X163409428Y-108624761D02*
X163647523Y-109339047D01*
X163028476Y-109339047D01*
X171965857Y-101671380D02*
X172299190Y-101195190D01*
X172537285Y-101671380D02*
X172537285Y-100671380D01*
X172156333Y-100671380D01*
X172061095Y-100719000D01*
X172013476Y-100766619D01*
X171965857Y-100861857D01*
X171965857Y-101004714D01*
X172013476Y-101099952D01*
X172061095Y-101147571D01*
X172156333Y-101195190D01*
X172537285Y-101195190D01*
X171013476Y-101671380D02*
X171584904Y-101671380D01*
X171299190Y-101671380D02*
X171299190Y-100671380D01*
X171394428Y-100814238D01*
X171489666Y-100909476D01*
X171584904Y-100957095D01*
X170680142Y-100671380D02*
X170061095Y-100671380D01*
X170394428Y-101052333D01*
X170251571Y-101052333D01*
X170156333Y-101099952D01*
X170108714Y-101147571D01*
X170061095Y-101242809D01*
X170061095Y-101480904D01*
X170108714Y-101576142D01*
X170156333Y-101623761D01*
X170251571Y-101671380D01*
X170537285Y-101671380D01*
X170632523Y-101623761D01*
X170680142Y-101576142D01*
X168282857Y-109672380D02*
X168616190Y-109196190D01*
X168854285Y-109672380D02*
X168854285Y-108672380D01*
X168473333Y-108672380D01*
X168378095Y-108720000D01*
X168330476Y-108767619D01*
X168282857Y-108862857D01*
X168282857Y-109005714D01*
X168330476Y-109100952D01*
X168378095Y-109148571D01*
X168473333Y-109196190D01*
X168854285Y-109196190D01*
X167330476Y-109672380D02*
X167901904Y-109672380D01*
X167616190Y-109672380D02*
X167616190Y-108672380D01*
X167711428Y-108815238D01*
X167806666Y-108910476D01*
X167901904Y-108958095D01*
X166949523Y-108767619D02*
X166901904Y-108720000D01*
X166806666Y-108672380D01*
X166568571Y-108672380D01*
X166473333Y-108720000D01*
X166425714Y-108767619D01*
X166378095Y-108862857D01*
X166378095Y-108958095D01*
X166425714Y-109100952D01*
X166997142Y-109672380D01*
X166378095Y-109672380D01*
X147010380Y-101877833D02*
X146534190Y-101544500D01*
X147010380Y-101306404D02*
X146010380Y-101306404D01*
X146010380Y-101687357D01*
X146058000Y-101782595D01*
X146105619Y-101830214D01*
X146200857Y-101877833D01*
X146343714Y-101877833D01*
X146438952Y-101830214D01*
X146486571Y-101782595D01*
X146534190Y-101687357D01*
X146534190Y-101306404D01*
X146438952Y-102449261D02*
X146391333Y-102354023D01*
X146343714Y-102306404D01*
X146248476Y-102258785D01*
X146200857Y-102258785D01*
X146105619Y-102306404D01*
X146058000Y-102354023D01*
X146010380Y-102449261D01*
X146010380Y-102639738D01*
X146058000Y-102734976D01*
X146105619Y-102782595D01*
X146200857Y-102830214D01*
X146248476Y-102830214D01*
X146343714Y-102782595D01*
X146391333Y-102734976D01*
X146438952Y-102639738D01*
X146438952Y-102449261D01*
X146486571Y-102354023D01*
X146534190Y-102306404D01*
X146629428Y-102258785D01*
X146819904Y-102258785D01*
X146915142Y-102306404D01*
X146962761Y-102354023D01*
X147010380Y-102449261D01*
X147010380Y-102639738D01*
X146962761Y-102734976D01*
X146915142Y-102782595D01*
X146819904Y-102830214D01*
X146629428Y-102830214D01*
X146534190Y-102782595D01*
X146486571Y-102734976D01*
X146438952Y-102639738D01*
X154954266Y-103322380D02*
X155287600Y-102846190D01*
X155525695Y-103322380D02*
X155525695Y-102322380D01*
X155144742Y-102322380D01*
X155049504Y-102370000D01*
X155001885Y-102417619D01*
X154954266Y-102512857D01*
X154954266Y-102655714D01*
X155001885Y-102750952D01*
X155049504Y-102798571D01*
X155144742Y-102846190D01*
X155525695Y-102846190D01*
X154620933Y-102322380D02*
X153954266Y-102322380D01*
X154382838Y-103322380D01*
X155005066Y-104846380D02*
X155338400Y-104370190D01*
X155576495Y-104846380D02*
X155576495Y-103846380D01*
X155195542Y-103846380D01*
X155100304Y-103894000D01*
X155052685Y-103941619D01*
X155005066Y-104036857D01*
X155005066Y-104179714D01*
X155052685Y-104274952D01*
X155100304Y-104322571D01*
X155195542Y-104370190D01*
X155576495Y-104370190D01*
X154147923Y-103846380D02*
X154338400Y-103846380D01*
X154433638Y-103894000D01*
X154481257Y-103941619D01*
X154576495Y-104084476D01*
X154624114Y-104274952D01*
X154624114Y-104655904D01*
X154576495Y-104751142D01*
X154528876Y-104798761D01*
X154433638Y-104846380D01*
X154243161Y-104846380D01*
X154147923Y-104798761D01*
X154100304Y-104751142D01*
X154052685Y-104655904D01*
X154052685Y-104417809D01*
X154100304Y-104322571D01*
X154147923Y-104274952D01*
X154243161Y-104227333D01*
X154433638Y-104227333D01*
X154528876Y-104274952D01*
X154576495Y-104322571D01*
X154624114Y-104417809D01*
X146470666Y-109291380D02*
X146804000Y-108815190D01*
X147042095Y-109291380D02*
X147042095Y-108291380D01*
X146661142Y-108291380D01*
X146565904Y-108339000D01*
X146518285Y-108386619D01*
X146470666Y-108481857D01*
X146470666Y-108624714D01*
X146518285Y-108719952D01*
X146565904Y-108767571D01*
X146661142Y-108815190D01*
X147042095Y-108815190D01*
X146089714Y-108386619D02*
X146042095Y-108339000D01*
X145946857Y-108291380D01*
X145708761Y-108291380D01*
X145613523Y-108339000D01*
X145565904Y-108386619D01*
X145518285Y-108481857D01*
X145518285Y-108577095D01*
X145565904Y-108719952D01*
X146137333Y-109291380D01*
X145518285Y-109291380D01*
X158091142Y-102087442D02*
X158138761Y-102039823D01*
X158186380Y-101896966D01*
X158186380Y-101801728D01*
X158138761Y-101658871D01*
X158043523Y-101563633D01*
X157948285Y-101516014D01*
X157757809Y-101468395D01*
X157614952Y-101468395D01*
X157424476Y-101516014D01*
X157329238Y-101563633D01*
X157234000Y-101658871D01*
X157186380Y-101801728D01*
X157186380Y-101896966D01*
X157234000Y-102039823D01*
X157281619Y-102087442D01*
X158186380Y-103039823D02*
X158186380Y-102468395D01*
X158186380Y-102754109D02*
X157186380Y-102754109D01*
X157329238Y-102658871D01*
X157424476Y-102563633D01*
X157472095Y-102468395D01*
X157186380Y-103896966D02*
X157186380Y-103706490D01*
X157234000Y-103611252D01*
X157281619Y-103563633D01*
X157424476Y-103468395D01*
X157614952Y-103420776D01*
X157995904Y-103420776D01*
X158091142Y-103468395D01*
X158138761Y-103516014D01*
X158186380Y-103611252D01*
X158186380Y-103801728D01*
X158138761Y-103896966D01*
X158091142Y-103944585D01*
X157995904Y-103992204D01*
X157757809Y-103992204D01*
X157662571Y-103944585D01*
X157614952Y-103896966D01*
X157567333Y-103801728D01*
X157567333Y-103611252D01*
X157614952Y-103516014D01*
X157662571Y-103468395D01*
X157757809Y-103420776D01*
X164345857Y-101830142D02*
X164393476Y-101877761D01*
X164536333Y-101925380D01*
X164631571Y-101925380D01*
X164774428Y-101877761D01*
X164869666Y-101782523D01*
X164917285Y-101687285D01*
X164964904Y-101496809D01*
X164964904Y-101353952D01*
X164917285Y-101163476D01*
X164869666Y-101068238D01*
X164774428Y-100973000D01*
X164631571Y-100925380D01*
X164536333Y-100925380D01*
X164393476Y-100973000D01*
X164345857Y-101020619D01*
X163393476Y-101925380D02*
X163964904Y-101925380D01*
X163679190Y-101925380D02*
X163679190Y-100925380D01*
X163774428Y-101068238D01*
X163869666Y-101163476D01*
X163964904Y-101211095D01*
X162488714Y-100925380D02*
X162964904Y-100925380D01*
X163012523Y-101401571D01*
X162964904Y-101353952D01*
X162869666Y-101306333D01*
X162631571Y-101306333D01*
X162536333Y-101353952D01*
X162488714Y-101401571D01*
X162441095Y-101496809D01*
X162441095Y-101734904D01*
X162488714Y-101830142D01*
X162536333Y-101877761D01*
X162631571Y-101925380D01*
X162869666Y-101925380D01*
X162964904Y-101877761D01*
X163012523Y-101830142D01*
X158726142Y-106037142D02*
X158773761Y-105989523D01*
X158821380Y-105846666D01*
X158821380Y-105751428D01*
X158773761Y-105608571D01*
X158678523Y-105513333D01*
X158583285Y-105465714D01*
X158392809Y-105418095D01*
X158249952Y-105418095D01*
X158059476Y-105465714D01*
X157964238Y-105513333D01*
X157869000Y-105608571D01*
X157821380Y-105751428D01*
X157821380Y-105846666D01*
X157869000Y-105989523D01*
X157916619Y-106037142D01*
X158821380Y-106989523D02*
X158821380Y-106418095D01*
X158821380Y-106703809D02*
X157821380Y-106703809D01*
X157964238Y-106608571D01*
X158059476Y-106513333D01*
X158107095Y-106418095D01*
X158154714Y-107846666D02*
X158821380Y-107846666D01*
X157773761Y-107608571D02*
X158488047Y-107370476D01*
X158488047Y-107989523D01*
X161393142Y-101211142D02*
X161440761Y-101163523D01*
X161488380Y-101020666D01*
X161488380Y-100925428D01*
X161440761Y-100782571D01*
X161345523Y-100687333D01*
X161250285Y-100639714D01*
X161059809Y-100592095D01*
X160916952Y-100592095D01*
X160726476Y-100639714D01*
X160631238Y-100687333D01*
X160536000Y-100782571D01*
X160488380Y-100925428D01*
X160488380Y-101020666D01*
X160536000Y-101163523D01*
X160583619Y-101211142D01*
X161488380Y-102163523D02*
X161488380Y-101592095D01*
X161488380Y-101877809D02*
X160488380Y-101877809D01*
X160631238Y-101782571D01*
X160726476Y-101687333D01*
X160774095Y-101592095D01*
X160488380Y-102496857D02*
X160488380Y-103115904D01*
X160869333Y-102782571D01*
X160869333Y-102925428D01*
X160916952Y-103020666D01*
X160964571Y-103068285D01*
X161059809Y-103115904D01*
X161297904Y-103115904D01*
X161393142Y-103068285D01*
X161440761Y-103020666D01*
X161488380Y-102925428D01*
X161488380Y-102639714D01*
X161440761Y-102544476D01*
X161393142Y-102496857D01*
X148439142Y-101211142D02*
X148486761Y-101163523D01*
X148534380Y-101020666D01*
X148534380Y-100925428D01*
X148486761Y-100782571D01*
X148391523Y-100687333D01*
X148296285Y-100639714D01*
X148105809Y-100592095D01*
X147962952Y-100592095D01*
X147772476Y-100639714D01*
X147677238Y-100687333D01*
X147582000Y-100782571D01*
X147534380Y-100925428D01*
X147534380Y-101020666D01*
X147582000Y-101163523D01*
X147629619Y-101211142D01*
X148534380Y-102163523D02*
X148534380Y-101592095D01*
X148534380Y-101877809D02*
X147534380Y-101877809D01*
X147677238Y-101782571D01*
X147772476Y-101687333D01*
X147820095Y-101592095D01*
X147629619Y-102544476D02*
X147582000Y-102592095D01*
X147534380Y-102687333D01*
X147534380Y-102925428D01*
X147582000Y-103020666D01*
X147629619Y-103068285D01*
X147724857Y-103115904D01*
X147820095Y-103115904D01*
X147962952Y-103068285D01*
X148534380Y-102496857D01*
X148534380Y-103115904D01*
X152630142Y-106011742D02*
X152677761Y-105964123D01*
X152725380Y-105821266D01*
X152725380Y-105726028D01*
X152677761Y-105583171D01*
X152582523Y-105487933D01*
X152487285Y-105440314D01*
X152296809Y-105392695D01*
X152153952Y-105392695D01*
X151963476Y-105440314D01*
X151868238Y-105487933D01*
X151773000Y-105583171D01*
X151725380Y-105726028D01*
X151725380Y-105821266D01*
X151773000Y-105964123D01*
X151820619Y-106011742D01*
X152725380Y-106964123D02*
X152725380Y-106392695D01*
X152725380Y-106678409D02*
X151725380Y-106678409D01*
X151868238Y-106583171D01*
X151963476Y-106487933D01*
X152011095Y-106392695D01*
X152725380Y-107916504D02*
X152725380Y-107345076D01*
X152725380Y-107630790D02*
X151725380Y-107630790D01*
X151868238Y-107535552D01*
X151963476Y-107440314D01*
X152011095Y-107345076D01*
X150090142Y-104894142D02*
X150137761Y-104846523D01*
X150185380Y-104703666D01*
X150185380Y-104608428D01*
X150137761Y-104465571D01*
X150042523Y-104370333D01*
X149947285Y-104322714D01*
X149756809Y-104275095D01*
X149613952Y-104275095D01*
X149423476Y-104322714D01*
X149328238Y-104370333D01*
X149233000Y-104465571D01*
X149185380Y-104608428D01*
X149185380Y-104703666D01*
X149233000Y-104846523D01*
X149280619Y-104894142D01*
X150185380Y-105846523D02*
X150185380Y-105275095D01*
X150185380Y-105560809D02*
X149185380Y-105560809D01*
X149328238Y-105465571D01*
X149423476Y-105370333D01*
X149471095Y-105275095D01*
X149185380Y-106465571D02*
X149185380Y-106560809D01*
X149233000Y-106656047D01*
X149280619Y-106703666D01*
X149375857Y-106751285D01*
X149566333Y-106798904D01*
X149804428Y-106798904D01*
X149994904Y-106751285D01*
X150090142Y-106703666D01*
X150137761Y-106656047D01*
X150185380Y-106560809D01*
X150185380Y-106465571D01*
X150137761Y-106370333D01*
X150090142Y-106322714D01*
X149994904Y-106275095D01*
X149804428Y-106227476D01*
X149566333Y-106227476D01*
X149375857Y-106275095D01*
X149280619Y-106322714D01*
X149233000Y-106370333D01*
X149185380Y-106465571D01*
X154954266Y-101703142D02*
X155001885Y-101750761D01*
X155144742Y-101798380D01*
X155239980Y-101798380D01*
X155382838Y-101750761D01*
X155478076Y-101655523D01*
X155525695Y-101560285D01*
X155573314Y-101369809D01*
X155573314Y-101226952D01*
X155525695Y-101036476D01*
X155478076Y-100941238D01*
X155382838Y-100846000D01*
X155239980Y-100798380D01*
X155144742Y-100798380D01*
X155001885Y-100846000D01*
X154954266Y-100893619D01*
X154478076Y-101798380D02*
X154287600Y-101798380D01*
X154192361Y-101750761D01*
X154144742Y-101703142D01*
X154049504Y-101560285D01*
X154001885Y-101369809D01*
X154001885Y-100988857D01*
X154049504Y-100893619D01*
X154097123Y-100846000D01*
X154192361Y-100798380D01*
X154382838Y-100798380D01*
X154478076Y-100846000D01*
X154525695Y-100893619D01*
X154573314Y-100988857D01*
X154573314Y-101226952D01*
X154525695Y-101322190D01*
X154478076Y-101369809D01*
X154382838Y-101417428D01*
X154192361Y-101417428D01*
X154097123Y-101369809D01*
X154049504Y-101322190D01*
X154001885Y-101226952D01*
X155043142Y-107326133D02*
X155090761Y-107278514D01*
X155138380Y-107135657D01*
X155138380Y-107040419D01*
X155090761Y-106897561D01*
X154995523Y-106802323D01*
X154900285Y-106754704D01*
X154709809Y-106707085D01*
X154566952Y-106707085D01*
X154376476Y-106754704D01*
X154281238Y-106802323D01*
X154186000Y-106897561D01*
X154138380Y-107040419D01*
X154138380Y-107135657D01*
X154186000Y-107278514D01*
X154233619Y-107326133D01*
X154566952Y-107897561D02*
X154519333Y-107802323D01*
X154471714Y-107754704D01*
X154376476Y-107707085D01*
X154328857Y-107707085D01*
X154233619Y-107754704D01*
X154186000Y-107802323D01*
X154138380Y-107897561D01*
X154138380Y-108088038D01*
X154186000Y-108183276D01*
X154233619Y-108230895D01*
X154328857Y-108278514D01*
X154376476Y-108278514D01*
X154471714Y-108230895D01*
X154519333Y-108183276D01*
X154566952Y-108088038D01*
X154566952Y-107897561D01*
X154614571Y-107802323D01*
X154662190Y-107754704D01*
X154757428Y-107707085D01*
X154947904Y-107707085D01*
X155043142Y-107754704D01*
X155090761Y-107802323D01*
X155138380Y-107897561D01*
X155138380Y-108088038D01*
X155090761Y-108183276D01*
X155043142Y-108230895D01*
X154947904Y-108278514D01*
X154757428Y-108278514D01*
X154662190Y-108230895D01*
X154614571Y-108183276D01*
X154566952Y-108088038D01*
X170854666Y-109577142D02*
X170902285Y-109624761D01*
X171045142Y-109672380D01*
X171140380Y-109672380D01*
X171283238Y-109624761D01*
X171378476Y-109529523D01*
X171426095Y-109434285D01*
X171473714Y-109243809D01*
X171473714Y-109100952D01*
X171426095Y-108910476D01*
X171378476Y-108815238D01*
X171283238Y-108720000D01*
X171140380Y-108672380D01*
X171045142Y-108672380D01*
X170902285Y-108720000D01*
X170854666Y-108767619D01*
X169997523Y-108672380D02*
X170188000Y-108672380D01*
X170283238Y-108720000D01*
X170330857Y-108767619D01*
X170426095Y-108910476D01*
X170473714Y-109100952D01*
X170473714Y-109481904D01*
X170426095Y-109577142D01*
X170378476Y-109624761D01*
X170283238Y-109672380D01*
X170092761Y-109672380D01*
X169997523Y-109624761D01*
X169949904Y-109577142D01*
X169902285Y-109481904D01*
X169902285Y-109243809D01*
X169949904Y-109148571D01*
X169997523Y-109100952D01*
X170092761Y-109053333D01*
X170283238Y-109053333D01*
X170378476Y-109100952D01*
X170426095Y-109148571D01*
X170473714Y-109243809D01*
X171934142Y-103211333D02*
X171981761Y-103163714D01*
X172029380Y-103020857D01*
X172029380Y-102925619D01*
X171981761Y-102782761D01*
X171886523Y-102687523D01*
X171791285Y-102639904D01*
X171600809Y-102592285D01*
X171457952Y-102592285D01*
X171267476Y-102639904D01*
X171172238Y-102687523D01*
X171077000Y-102782761D01*
X171029380Y-102925619D01*
X171029380Y-103020857D01*
X171077000Y-103163714D01*
X171124619Y-103211333D01*
X171362714Y-104068476D02*
X172029380Y-104068476D01*
X170981761Y-103830380D02*
X171696047Y-103592285D01*
X171696047Y-104211333D01*
X173839142Y-106513333D02*
X173886761Y-106465714D01*
X173934380Y-106322857D01*
X173934380Y-106227619D01*
X173886761Y-106084761D01*
X173791523Y-105989523D01*
X173696285Y-105941904D01*
X173505809Y-105894285D01*
X173362952Y-105894285D01*
X173172476Y-105941904D01*
X173077238Y-105989523D01*
X172982000Y-106084761D01*
X172934380Y-106227619D01*
X172934380Y-106322857D01*
X172982000Y-106465714D01*
X173029619Y-106513333D01*
X172934380Y-106846666D02*
X172934380Y-107465714D01*
X173315333Y-107132380D01*
X173315333Y-107275238D01*
X173362952Y-107370476D01*
X173410571Y-107418095D01*
X173505809Y-107465714D01*
X173743904Y-107465714D01*
X173839142Y-107418095D01*
X173886761Y-107370476D01*
X173934380Y-107275238D01*
X173934380Y-106989523D01*
X173886761Y-106894285D01*
X173839142Y-106846666D01*
X171934142Y-106513333D02*
X171981761Y-106465714D01*
X172029380Y-106322857D01*
X172029380Y-106227619D01*
X171981761Y-106084761D01*
X171886523Y-105989523D01*
X171791285Y-105941904D01*
X171600809Y-105894285D01*
X171457952Y-105894285D01*
X171267476Y-105941904D01*
X171172238Y-105989523D01*
X171077000Y-106084761D01*
X171029380Y-106227619D01*
X171029380Y-106322857D01*
X171077000Y-106465714D01*
X171124619Y-106513333D01*
X171124619Y-106894285D02*
X171077000Y-106941904D01*
X171029380Y-107037142D01*
X171029380Y-107275238D01*
X171077000Y-107370476D01*
X171124619Y-107418095D01*
X171219857Y-107465714D01*
X171315095Y-107465714D01*
X171457952Y-107418095D01*
X172029380Y-106846666D01*
X172029380Y-107465714D01*
X145994380Y-106513333D02*
X145518190Y-106180000D01*
X145994380Y-105941904D02*
X144994380Y-105941904D01*
X144994380Y-106322857D01*
X145042000Y-106418095D01*
X145089619Y-106465714D01*
X145184857Y-106513333D01*
X145327714Y-106513333D01*
X145422952Y-106465714D01*
X145470571Y-106418095D01*
X145518190Y-106322857D01*
X145518190Y-105941904D01*
X145994380Y-107465714D02*
X145994380Y-106894285D01*
X145994380Y-107180000D02*
X144994380Y-107180000D01*
X145137238Y-107084761D01*
X145232476Y-106989523D01*
X145280095Y-106894285D01*
%LPC*%
D12*
X201045400Y-102302100D03*
X201045400Y-107842100D03*
M02*
