G04 #@! TF.GenerationSoftware,KiCad,Pcbnew,5.1.10-88a1d61d58~88~ubuntu18.04.1*
G04 #@! TF.CreationDate,2021-09-30T15:30:20+02:00*
G04 #@! TF.ProjectId,preamplifier,70726561-6d70-46c6-9966-6965722e6b69,rev?*
G04 #@! TF.SameCoordinates,Original*
G04 #@! TF.FileFunction,Copper,L1,Top*
G04 #@! TF.FilePolarity,Positive*
%FSLAX46Y46*%
G04 Gerber Fmt 4.6, Leading zero omitted, Abs format (unit mm)*
G04 Created by KiCad (PCBNEW 5.1.10-88a1d61d58~88~ubuntu18.04.1) date 2021-09-30 15:30:20*
%MOMM*%
%LPD*%
G01*
G04 APERTURE LIST*
G04 #@! TA.AperFunction,SMDPad,CuDef*
%ADD10R,1.600000X1.300000*%
G04 #@! TD*
G04 #@! TA.AperFunction,SMDPad,CuDef*
%ADD11R,1.600000X2.000000*%
G04 #@! TD*
G04 #@! TA.AperFunction,SMDPad,CuDef*
%ADD12R,1.220000X0.650000*%
G04 #@! TD*
G04 #@! TA.AperFunction,SMDPad,CuDef*
%ADD13R,2.650000X0.850000*%
G04 #@! TD*
G04 #@! TA.AperFunction,SMDPad,CuDef*
%ADD14R,3.550000X0.850000*%
G04 #@! TD*
G04 #@! TA.AperFunction,SMDPad,CuDef*
%ADD15R,0.800000X0.900000*%
G04 #@! TD*
G04 #@! TA.AperFunction,SMDPad,CuDef*
%ADD16R,5.000000X1.200000*%
G04 #@! TD*
G04 #@! TA.AperFunction,SMDPad,CuDef*
%ADD17R,5.000000X1.600000*%
G04 #@! TD*
G04 #@! TA.AperFunction,SMDPad,CuDef*
%ADD18R,1.800000X1.750000*%
G04 #@! TD*
G04 #@! TA.AperFunction,ViaPad*
%ADD19C,7.000000*%
G04 #@! TD*
G04 #@! TA.AperFunction,ViaPad*
%ADD20C,4.000000*%
G04 #@! TD*
G04 #@! TA.AperFunction,ViaPad*
%ADD21C,0.800000*%
G04 #@! TD*
G04 #@! TA.AperFunction,ViaPad*
%ADD22C,0.900000*%
G04 #@! TD*
G04 #@! TA.AperFunction,Conductor*
%ADD23C,0.650000*%
G04 #@! TD*
G04 #@! TA.AperFunction,Conductor*
%ADD24C,0.550000*%
G04 #@! TD*
G04 #@! TA.AperFunction,Conductor*
%ADD25C,0.350000*%
G04 #@! TD*
G04 #@! TA.AperFunction,Conductor*
%ADD26C,0.750000*%
G04 #@! TD*
G04 #@! TA.AperFunction,Conductor*
%ADD27C,0.450000*%
G04 #@! TD*
G04 #@! TA.AperFunction,Conductor*
%ADD28C,1.150000*%
G04 #@! TD*
G04 #@! TA.AperFunction,Conductor*
%ADD29C,0.950000*%
G04 #@! TD*
G04 #@! TA.AperFunction,Conductor*
%ADD30C,0.130000*%
G04 #@! TD*
G04 #@! TA.AperFunction,Conductor*
%ADD31C,0.100000*%
G04 #@! TD*
G04 APERTURE END LIST*
G04 #@! TA.AperFunction,SMDPad,CuDef*
G36*
G01*
X157143400Y-108691000D02*
X157143400Y-109241000D01*
G75*
G02*
X156943400Y-109441000I-200000J0D01*
G01*
X156543400Y-109441000D01*
G75*
G02*
X156343400Y-109241000I0J200000D01*
G01*
X156343400Y-108691000D01*
G75*
G02*
X156543400Y-108491000I200000J0D01*
G01*
X156943400Y-108491000D01*
G75*
G02*
X157143400Y-108691000I0J-200000D01*
G01*
G37*
G04 #@! TD.AperFunction*
G04 #@! TA.AperFunction,SMDPad,CuDef*
G36*
G01*
X158793400Y-108691000D02*
X158793400Y-109241000D01*
G75*
G02*
X158593400Y-109441000I-200000J0D01*
G01*
X158193400Y-109441000D01*
G75*
G02*
X157993400Y-109241000I0J200000D01*
G01*
X157993400Y-108691000D01*
G75*
G02*
X158193400Y-108491000I200000J0D01*
G01*
X158593400Y-108491000D01*
G75*
G02*
X158793400Y-108691000I0J-200000D01*
G01*
G37*
G04 #@! TD.AperFunction*
G04 #@! TA.AperFunction,SMDPad,CuDef*
G36*
G01*
X160990400Y-108906500D02*
X160990400Y-109406500D01*
G75*
G02*
X160765400Y-109631500I-225000J0D01*
G01*
X160315400Y-109631500D01*
G75*
G02*
X160090400Y-109406500I0J225000D01*
G01*
X160090400Y-108906500D01*
G75*
G02*
X160315400Y-108681500I225000J0D01*
G01*
X160765400Y-108681500D01*
G75*
G02*
X160990400Y-108906500I0J-225000D01*
G01*
G37*
G04 #@! TD.AperFunction*
G04 #@! TA.AperFunction,SMDPad,CuDef*
G36*
G01*
X162540400Y-108906500D02*
X162540400Y-109406500D01*
G75*
G02*
X162315400Y-109631500I-225000J0D01*
G01*
X161865400Y-109631500D01*
G75*
G02*
X161640400Y-109406500I0J225000D01*
G01*
X161640400Y-108906500D01*
G75*
G02*
X161865400Y-108681500I225000J0D01*
G01*
X162315400Y-108681500D01*
G75*
G02*
X162540400Y-108906500I0J-225000D01*
G01*
G37*
G04 #@! TD.AperFunction*
D10*
X169661500Y-104033000D03*
D11*
X166761500Y-105283000D03*
D10*
X169661500Y-106533000D03*
G04 #@! TA.AperFunction,SMDPad,CuDef*
G36*
G01*
X165017001Y-104315500D02*
X164166999Y-104315500D01*
G75*
G02*
X163917000Y-104065501I0J249999D01*
G01*
X163917000Y-103165499D01*
G75*
G02*
X164166999Y-102915500I249999J0D01*
G01*
X165017001Y-102915500D01*
G75*
G02*
X165267000Y-103165499I0J-249999D01*
G01*
X165267000Y-104065501D01*
G75*
G02*
X165017001Y-104315500I-249999J0D01*
G01*
G37*
G04 #@! TD.AperFunction*
G04 #@! TA.AperFunction,SMDPad,CuDef*
G36*
G01*
X165017001Y-107015500D02*
X164166999Y-107015500D01*
G75*
G02*
X163917000Y-106765501I0J249999D01*
G01*
X163917000Y-105865499D01*
G75*
G02*
X164166999Y-105615500I249999J0D01*
G01*
X165017001Y-105615500D01*
G75*
G02*
X165267000Y-105865499I0J-249999D01*
G01*
X165267000Y-106765501D01*
G75*
G02*
X165017001Y-107015500I-249999J0D01*
G01*
G37*
G04 #@! TD.AperFunction*
G04 #@! TA.AperFunction,SMDPad,CuDef*
G36*
G01*
X168371400Y-101481700D02*
X168371400Y-100981700D01*
G75*
G02*
X168596400Y-100756700I225000J0D01*
G01*
X169046400Y-100756700D01*
G75*
G02*
X169271400Y-100981700I0J-225000D01*
G01*
X169271400Y-101481700D01*
G75*
G02*
X169046400Y-101706700I-225000J0D01*
G01*
X168596400Y-101706700D01*
G75*
G02*
X168371400Y-101481700I0J225000D01*
G01*
G37*
G04 #@! TD.AperFunction*
G04 #@! TA.AperFunction,SMDPad,CuDef*
G36*
G01*
X166821400Y-101481700D02*
X166821400Y-100981700D01*
G75*
G02*
X167046400Y-100756700I225000J0D01*
G01*
X167496400Y-100756700D01*
G75*
G02*
X167721400Y-100981700I0J-225000D01*
G01*
X167721400Y-101481700D01*
G75*
G02*
X167496400Y-101706700I-225000J0D01*
G01*
X167046400Y-101706700D01*
G75*
G02*
X166821400Y-101481700I0J225000D01*
G01*
G37*
G04 #@! TD.AperFunction*
D12*
X162600000Y-104206000D03*
X162600000Y-105156000D03*
X162600000Y-106106000D03*
X159980000Y-106106000D03*
X159980000Y-105156000D03*
X159980000Y-104206000D03*
D13*
X188960000Y-107322100D03*
D14*
X192860000Y-107322100D03*
D13*
X188960000Y-105822100D03*
D14*
X192860000Y-105822100D03*
D13*
X188960000Y-104322100D03*
D14*
X192860000Y-104322100D03*
D13*
X188960000Y-102822100D03*
D14*
X192860000Y-102822100D03*
G04 #@! TA.AperFunction,SMDPad,CuDef*
G36*
G01*
X156512550Y-107042700D02*
X157025050Y-107042700D01*
G75*
G02*
X157243800Y-107261450I0J-218750D01*
G01*
X157243800Y-107698950D01*
G75*
G02*
X157025050Y-107917700I-218750J0D01*
G01*
X156512550Y-107917700D01*
G75*
G02*
X156293800Y-107698950I0J218750D01*
G01*
X156293800Y-107261450D01*
G75*
G02*
X156512550Y-107042700I218750J0D01*
G01*
G37*
G04 #@! TD.AperFunction*
G04 #@! TA.AperFunction,SMDPad,CuDef*
G36*
G01*
X156512550Y-105467700D02*
X157025050Y-105467700D01*
G75*
G02*
X157243800Y-105686450I0J-218750D01*
G01*
X157243800Y-106123950D01*
G75*
G02*
X157025050Y-106342700I-218750J0D01*
G01*
X156512550Y-106342700D01*
G75*
G02*
X156293800Y-106123950I0J218750D01*
G01*
X156293800Y-105686450D01*
G75*
G02*
X156512550Y-105467700I218750J0D01*
G01*
G37*
G04 #@! TD.AperFunction*
G04 #@! TA.AperFunction,SMDPad,CuDef*
G36*
G01*
X159768250Y-101567500D02*
X159255750Y-101567500D01*
G75*
G02*
X159037000Y-101348750I0J218750D01*
G01*
X159037000Y-100911250D01*
G75*
G02*
X159255750Y-100692500I218750J0D01*
G01*
X159768250Y-100692500D01*
G75*
G02*
X159987000Y-100911250I0J-218750D01*
G01*
X159987000Y-101348750D01*
G75*
G02*
X159768250Y-101567500I-218750J0D01*
G01*
G37*
G04 #@! TD.AperFunction*
G04 #@! TA.AperFunction,SMDPad,CuDef*
G36*
G01*
X159768250Y-103142500D02*
X159255750Y-103142500D01*
G75*
G02*
X159037000Y-102923750I0J218750D01*
G01*
X159037000Y-102486250D01*
G75*
G02*
X159255750Y-102267500I218750J0D01*
G01*
X159768250Y-102267500D01*
G75*
G02*
X159987000Y-102486250I0J-218750D01*
G01*
X159987000Y-102923750D01*
G75*
G02*
X159768250Y-103142500I-218750J0D01*
G01*
G37*
G04 #@! TD.AperFunction*
G04 #@! TA.AperFunction,SMDPad,CuDef*
G36*
G01*
X149956000Y-108079250D02*
X149956000Y-107566750D01*
G75*
G02*
X150174750Y-107348000I218750J0D01*
G01*
X150612250Y-107348000D01*
G75*
G02*
X150831000Y-107566750I0J-218750D01*
G01*
X150831000Y-108079250D01*
G75*
G02*
X150612250Y-108298000I-218750J0D01*
G01*
X150174750Y-108298000D01*
G75*
G02*
X149956000Y-108079250I0J218750D01*
G01*
G37*
G04 #@! TD.AperFunction*
G04 #@! TA.AperFunction,SMDPad,CuDef*
G36*
G01*
X148381000Y-108079250D02*
X148381000Y-107566750D01*
G75*
G02*
X148599750Y-107348000I218750J0D01*
G01*
X149037250Y-107348000D01*
G75*
G02*
X149256000Y-107566750I0J-218750D01*
G01*
X149256000Y-108079250D01*
G75*
G02*
X149037250Y-108298000I-218750J0D01*
G01*
X148599750Y-108298000D01*
G75*
G02*
X148381000Y-108079250I0J218750D01*
G01*
G37*
G04 #@! TD.AperFunction*
D12*
X149756500Y-103121500D03*
X149756500Y-102171500D03*
X149756500Y-101221500D03*
X152376500Y-101221500D03*
X152376500Y-102171500D03*
X152376500Y-103121500D03*
D15*
X144018000Y-101298500D03*
X144968000Y-103298500D03*
X143068000Y-103298500D03*
G04 #@! TA.AperFunction,SMDPad,CuDef*
G36*
G01*
X161739900Y-107907500D02*
X161739900Y-107357500D01*
G75*
G02*
X161939900Y-107157500I200000J0D01*
G01*
X162339900Y-107157500D01*
G75*
G02*
X162539900Y-107357500I0J-200000D01*
G01*
X162539900Y-107907500D01*
G75*
G02*
X162339900Y-108107500I-200000J0D01*
G01*
X161939900Y-108107500D01*
G75*
G02*
X161739900Y-107907500I0J200000D01*
G01*
G37*
G04 #@! TD.AperFunction*
G04 #@! TA.AperFunction,SMDPad,CuDef*
G36*
G01*
X160089900Y-107907500D02*
X160089900Y-107357500D01*
G75*
G02*
X160289900Y-107157500I200000J0D01*
G01*
X160689900Y-107157500D01*
G75*
G02*
X160889900Y-107357500I0J-200000D01*
G01*
X160889900Y-107907500D01*
G75*
G02*
X160689900Y-108107500I-200000J0D01*
G01*
X160289900Y-108107500D01*
G75*
G02*
X160089900Y-107907500I0J200000D01*
G01*
G37*
G04 #@! TD.AperFunction*
G04 #@! TA.AperFunction,SMDPad,CuDef*
G36*
G01*
X147807000Y-105644500D02*
X148357000Y-105644500D01*
G75*
G02*
X148557000Y-105844500I0J-200000D01*
G01*
X148557000Y-106244500D01*
G75*
G02*
X148357000Y-106444500I-200000J0D01*
G01*
X147807000Y-106444500D01*
G75*
G02*
X147607000Y-106244500I0J200000D01*
G01*
X147607000Y-105844500D01*
G75*
G02*
X147807000Y-105644500I200000J0D01*
G01*
G37*
G04 #@! TD.AperFunction*
G04 #@! TA.AperFunction,SMDPad,CuDef*
G36*
G01*
X147807000Y-103994500D02*
X148357000Y-103994500D01*
G75*
G02*
X148557000Y-104194500I0J-200000D01*
G01*
X148557000Y-104594500D01*
G75*
G02*
X148357000Y-104794500I-200000J0D01*
G01*
X147807000Y-104794500D01*
G75*
G02*
X147607000Y-104594500I0J200000D01*
G01*
X147607000Y-104194500D01*
G75*
G02*
X147807000Y-103994500I200000J0D01*
G01*
G37*
G04 #@! TD.AperFunction*
G04 #@! TA.AperFunction,SMDPad,CuDef*
G36*
G01*
X164763000Y-109431500D02*
X164763000Y-108881500D01*
G75*
G02*
X164963000Y-108681500I200000J0D01*
G01*
X165363000Y-108681500D01*
G75*
G02*
X165563000Y-108881500I0J-200000D01*
G01*
X165563000Y-109431500D01*
G75*
G02*
X165363000Y-109631500I-200000J0D01*
G01*
X164963000Y-109631500D01*
G75*
G02*
X164763000Y-109431500I0J200000D01*
G01*
G37*
G04 #@! TD.AperFunction*
G04 #@! TA.AperFunction,SMDPad,CuDef*
G36*
G01*
X163113000Y-109431500D02*
X163113000Y-108881500D01*
G75*
G02*
X163313000Y-108681500I200000J0D01*
G01*
X163713000Y-108681500D01*
G75*
G02*
X163913000Y-108881500I0J-200000D01*
G01*
X163913000Y-109431500D01*
G75*
G02*
X163713000Y-109631500I-200000J0D01*
G01*
X163313000Y-109631500D01*
G75*
G02*
X163113000Y-109431500I0J200000D01*
G01*
G37*
G04 #@! TD.AperFunction*
G04 #@! TA.AperFunction,SMDPad,CuDef*
G36*
G01*
X171519400Y-101506700D02*
X171519400Y-100956700D01*
G75*
G02*
X171719400Y-100756700I200000J0D01*
G01*
X172119400Y-100756700D01*
G75*
G02*
X172319400Y-100956700I0J-200000D01*
G01*
X172319400Y-101506700D01*
G75*
G02*
X172119400Y-101706700I-200000J0D01*
G01*
X171719400Y-101706700D01*
G75*
G02*
X171519400Y-101506700I0J200000D01*
G01*
G37*
G04 #@! TD.AperFunction*
G04 #@! TA.AperFunction,SMDPad,CuDef*
G36*
G01*
X169869400Y-101506700D02*
X169869400Y-100956700D01*
G75*
G02*
X170069400Y-100756700I200000J0D01*
G01*
X170469400Y-100756700D01*
G75*
G02*
X170669400Y-100956700I0J-200000D01*
G01*
X170669400Y-101506700D01*
G75*
G02*
X170469400Y-101706700I-200000J0D01*
G01*
X170069400Y-101706700D01*
G75*
G02*
X169869400Y-101506700I0J200000D01*
G01*
G37*
G04 #@! TD.AperFunction*
G04 #@! TA.AperFunction,SMDPad,CuDef*
G36*
G01*
X166961000Y-108881500D02*
X166961000Y-109431500D01*
G75*
G02*
X166761000Y-109631500I-200000J0D01*
G01*
X166361000Y-109631500D01*
G75*
G02*
X166161000Y-109431500I0J200000D01*
G01*
X166161000Y-108881500D01*
G75*
G02*
X166361000Y-108681500I200000J0D01*
G01*
X166761000Y-108681500D01*
G75*
G02*
X166961000Y-108881500I0J-200000D01*
G01*
G37*
G04 #@! TD.AperFunction*
G04 #@! TA.AperFunction,SMDPad,CuDef*
G36*
G01*
X168611000Y-108881500D02*
X168611000Y-109431500D01*
G75*
G02*
X168411000Y-109631500I-200000J0D01*
G01*
X168011000Y-109631500D01*
G75*
G02*
X167811000Y-109431500I0J200000D01*
G01*
X167811000Y-108881500D01*
G75*
G02*
X168011000Y-108681500I200000J0D01*
G01*
X168411000Y-108681500D01*
G75*
G02*
X168611000Y-108881500I0J-200000D01*
G01*
G37*
G04 #@! TD.AperFunction*
G04 #@! TA.AperFunction,SMDPad,CuDef*
G36*
G01*
X146283000Y-102469500D02*
X146833000Y-102469500D01*
G75*
G02*
X147033000Y-102669500I0J-200000D01*
G01*
X147033000Y-103069500D01*
G75*
G02*
X146833000Y-103269500I-200000J0D01*
G01*
X146283000Y-103269500D01*
G75*
G02*
X146083000Y-103069500I0J200000D01*
G01*
X146083000Y-102669500D01*
G75*
G02*
X146283000Y-102469500I200000J0D01*
G01*
G37*
G04 #@! TD.AperFunction*
G04 #@! TA.AperFunction,SMDPad,CuDef*
G36*
G01*
X146283000Y-100819500D02*
X146833000Y-100819500D01*
G75*
G02*
X147033000Y-101019500I0J-200000D01*
G01*
X147033000Y-101419500D01*
G75*
G02*
X146833000Y-101619500I-200000J0D01*
G01*
X146283000Y-101619500D01*
G75*
G02*
X146083000Y-101419500I0J200000D01*
G01*
X146083000Y-101019500D01*
G75*
G02*
X146283000Y-100819500I200000J0D01*
G01*
G37*
G04 #@! TD.AperFunction*
G04 #@! TA.AperFunction,SMDPad,CuDef*
G36*
G01*
X155212600Y-103043400D02*
X155212600Y-102493400D01*
G75*
G02*
X155412600Y-102293400I200000J0D01*
G01*
X155812600Y-102293400D01*
G75*
G02*
X156012600Y-102493400I0J-200000D01*
G01*
X156012600Y-103043400D01*
G75*
G02*
X155812600Y-103243400I-200000J0D01*
G01*
X155412600Y-103243400D01*
G75*
G02*
X155212600Y-103043400I0J200000D01*
G01*
G37*
G04 #@! TD.AperFunction*
G04 #@! TA.AperFunction,SMDPad,CuDef*
G36*
G01*
X153562600Y-103043400D02*
X153562600Y-102493400D01*
G75*
G02*
X153762600Y-102293400I200000J0D01*
G01*
X154162600Y-102293400D01*
G75*
G02*
X154362600Y-102493400I0J-200000D01*
G01*
X154362600Y-103043400D01*
G75*
G02*
X154162600Y-103243400I-200000J0D01*
G01*
X153762600Y-103243400D01*
G75*
G02*
X153562600Y-103043400I0J200000D01*
G01*
G37*
G04 #@! TD.AperFunction*
G04 #@! TA.AperFunction,SMDPad,CuDef*
G36*
G01*
X154413400Y-103966600D02*
X154413400Y-104516600D01*
G75*
G02*
X154213400Y-104716600I-200000J0D01*
G01*
X153813400Y-104716600D01*
G75*
G02*
X153613400Y-104516600I0J200000D01*
G01*
X153613400Y-103966600D01*
G75*
G02*
X153813400Y-103766600I200000J0D01*
G01*
X154213400Y-103766600D01*
G75*
G02*
X154413400Y-103966600I0J-200000D01*
G01*
G37*
G04 #@! TD.AperFunction*
G04 #@! TA.AperFunction,SMDPad,CuDef*
G36*
G01*
X156063400Y-103966600D02*
X156063400Y-104516600D01*
G75*
G02*
X155863400Y-104716600I-200000J0D01*
G01*
X155463400Y-104716600D01*
G75*
G02*
X155263400Y-104516600I0J200000D01*
G01*
X155263400Y-103966600D01*
G75*
G02*
X155463400Y-103766600I200000J0D01*
G01*
X155863400Y-103766600D01*
G75*
G02*
X156063400Y-103966600I0J-200000D01*
G01*
G37*
G04 #@! TD.AperFunction*
G04 #@! TA.AperFunction,SMDPad,CuDef*
G36*
G01*
X146729000Y-109050500D02*
X146729000Y-108500500D01*
G75*
G02*
X146929000Y-108300500I200000J0D01*
G01*
X147329000Y-108300500D01*
G75*
G02*
X147529000Y-108500500I0J-200000D01*
G01*
X147529000Y-109050500D01*
G75*
G02*
X147329000Y-109250500I-200000J0D01*
G01*
X146929000Y-109250500D01*
G75*
G02*
X146729000Y-109050500I0J200000D01*
G01*
G37*
G04 #@! TD.AperFunction*
G04 #@! TA.AperFunction,SMDPad,CuDef*
G36*
G01*
X145079000Y-109050500D02*
X145079000Y-108500500D01*
G75*
G02*
X145279000Y-108300500I200000J0D01*
G01*
X145679000Y-108300500D01*
G75*
G02*
X145879000Y-108500500I0J-200000D01*
G01*
X145879000Y-109050500D01*
G75*
G02*
X145679000Y-109250500I-200000J0D01*
G01*
X145279000Y-109250500D01*
G75*
G02*
X145079000Y-109050500I0J200000D01*
G01*
G37*
G04 #@! TD.AperFunction*
D16*
X201045400Y-105072100D03*
D17*
X201045400Y-102302100D03*
X201045400Y-107842100D03*
D18*
X133985000Y-108604000D03*
X133985000Y-101454000D03*
X129540000Y-108604000D03*
X129540000Y-101454000D03*
X125095000Y-108604000D03*
X125095000Y-101454000D03*
X120650000Y-108604000D03*
X120650000Y-101454000D03*
X116205000Y-108604000D03*
X116205000Y-101454000D03*
X111760000Y-108604000D03*
X111760000Y-101454000D03*
X107315000Y-108604000D03*
X107315000Y-101454000D03*
X102870000Y-108604000D03*
X102870000Y-101454000D03*
X98425000Y-108604000D03*
X98425000Y-101454000D03*
X93980000Y-108604000D03*
X93980000Y-101454000D03*
G04 #@! TA.AperFunction,SMDPad,CuDef*
G36*
G01*
X157258199Y-103380300D02*
X158108201Y-103380300D01*
G75*
G02*
X158358200Y-103630299I0J-249999D01*
G01*
X158358200Y-104530301D01*
G75*
G02*
X158108201Y-104780300I-249999J0D01*
G01*
X157258199Y-104780300D01*
G75*
G02*
X157008200Y-104530301I0J249999D01*
G01*
X157008200Y-103630299D01*
G75*
G02*
X157258199Y-103380300I249999J0D01*
G01*
G37*
G04 #@! TD.AperFunction*
G04 #@! TA.AperFunction,SMDPad,CuDef*
G36*
G01*
X157258199Y-100680300D02*
X158108201Y-100680300D01*
G75*
G02*
X158358200Y-100930299I0J-249999D01*
G01*
X158358200Y-101830301D01*
G75*
G02*
X158108201Y-102080300I-249999J0D01*
G01*
X157258199Y-102080300D01*
G75*
G02*
X157008200Y-101830301I0J249999D01*
G01*
X157008200Y-100930299D01*
G75*
G02*
X157258199Y-100680300I249999J0D01*
G01*
G37*
G04 #@! TD.AperFunction*
G04 #@! TA.AperFunction,SMDPad,CuDef*
G36*
G01*
X164822900Y-101936101D02*
X164822900Y-101086099D01*
G75*
G02*
X165072899Y-100836100I249999J0D01*
G01*
X165972901Y-100836100D01*
G75*
G02*
X166222900Y-101086099I0J-249999D01*
G01*
X166222900Y-101936101D01*
G75*
G02*
X165972901Y-102186100I-249999J0D01*
G01*
X165072899Y-102186100D01*
G75*
G02*
X164822900Y-101936101I0J249999D01*
G01*
G37*
G04 #@! TD.AperFunction*
G04 #@! TA.AperFunction,SMDPad,CuDef*
G36*
G01*
X162122900Y-101936101D02*
X162122900Y-101086099D01*
G75*
G02*
X162372899Y-100836100I249999J0D01*
G01*
X163272901Y-100836100D01*
G75*
G02*
X163522900Y-101086099I0J-249999D01*
G01*
X163522900Y-101936101D01*
G75*
G02*
X163272901Y-102186100I-249999J0D01*
G01*
X162372899Y-102186100D01*
G75*
G02*
X162122900Y-101936101I0J249999D01*
G01*
G37*
G04 #@! TD.AperFunction*
G04 #@! TA.AperFunction,SMDPad,CuDef*
G36*
G01*
X158042800Y-107005000D02*
X158542800Y-107005000D01*
G75*
G02*
X158767800Y-107230000I0J-225000D01*
G01*
X158767800Y-107680000D01*
G75*
G02*
X158542800Y-107905000I-225000J0D01*
G01*
X158042800Y-107905000D01*
G75*
G02*
X157817800Y-107680000I0J225000D01*
G01*
X157817800Y-107230000D01*
G75*
G02*
X158042800Y-107005000I225000J0D01*
G01*
G37*
G04 #@! TD.AperFunction*
G04 #@! TA.AperFunction,SMDPad,CuDef*
G36*
G01*
X158042800Y-105455000D02*
X158542800Y-105455000D01*
G75*
G02*
X158767800Y-105680000I0J-225000D01*
G01*
X158767800Y-106130000D01*
G75*
G02*
X158542800Y-106355000I-225000J0D01*
G01*
X158042800Y-106355000D01*
G75*
G02*
X157817800Y-106130000I0J225000D01*
G01*
X157817800Y-105680000D01*
G75*
G02*
X158042800Y-105455000I225000J0D01*
G01*
G37*
G04 #@! TD.AperFunction*
G04 #@! TA.AperFunction,SMDPad,CuDef*
G36*
G01*
X161286000Y-101592500D02*
X160786000Y-101592500D01*
G75*
G02*
X160561000Y-101367500I0J225000D01*
G01*
X160561000Y-100917500D01*
G75*
G02*
X160786000Y-100692500I225000J0D01*
G01*
X161286000Y-100692500D01*
G75*
G02*
X161511000Y-100917500I0J-225000D01*
G01*
X161511000Y-101367500D01*
G75*
G02*
X161286000Y-101592500I-225000J0D01*
G01*
G37*
G04 #@! TD.AperFunction*
G04 #@! TA.AperFunction,SMDPad,CuDef*
G36*
G01*
X161286000Y-103142500D02*
X160786000Y-103142500D01*
G75*
G02*
X160561000Y-102917500I0J225000D01*
G01*
X160561000Y-102467500D01*
G75*
G02*
X160786000Y-102242500I225000J0D01*
G01*
X161286000Y-102242500D01*
G75*
G02*
X161511000Y-102467500I0J-225000D01*
G01*
X161511000Y-102917500D01*
G75*
G02*
X161286000Y-103142500I-225000J0D01*
G01*
G37*
G04 #@! TD.AperFunction*
G04 #@! TA.AperFunction,SMDPad,CuDef*
G36*
G01*
X148332000Y-101719500D02*
X147832000Y-101719500D01*
G75*
G02*
X147607000Y-101494500I0J225000D01*
G01*
X147607000Y-101044500D01*
G75*
G02*
X147832000Y-100819500I225000J0D01*
G01*
X148332000Y-100819500D01*
G75*
G02*
X148557000Y-101044500I0J-225000D01*
G01*
X148557000Y-101494500D01*
G75*
G02*
X148332000Y-101719500I-225000J0D01*
G01*
G37*
G04 #@! TD.AperFunction*
G04 #@! TA.AperFunction,SMDPad,CuDef*
G36*
G01*
X148332000Y-103269500D02*
X147832000Y-103269500D01*
G75*
G02*
X147607000Y-103044500I0J225000D01*
G01*
X147607000Y-102594500D01*
G75*
G02*
X147832000Y-102369500I225000J0D01*
G01*
X148332000Y-102369500D01*
G75*
G02*
X148557000Y-102594500I0J-225000D01*
G01*
X148557000Y-103044500D01*
G75*
G02*
X148332000Y-103269500I-225000J0D01*
G01*
G37*
G04 #@! TD.AperFunction*
G04 #@! TA.AperFunction,SMDPad,CuDef*
G36*
G01*
X152621801Y-106004600D02*
X151771799Y-106004600D01*
G75*
G02*
X151521800Y-105754601I0J249999D01*
G01*
X151521800Y-104854599D01*
G75*
G02*
X151771799Y-104604600I249999J0D01*
G01*
X152621801Y-104604600D01*
G75*
G02*
X152871800Y-104854599I0J-249999D01*
G01*
X152871800Y-105754601D01*
G75*
G02*
X152621801Y-106004600I-249999J0D01*
G01*
G37*
G04 #@! TD.AperFunction*
G04 #@! TA.AperFunction,SMDPad,CuDef*
G36*
G01*
X152621801Y-108704600D02*
X151771799Y-108704600D01*
G75*
G02*
X151521800Y-108454601I0J249999D01*
G01*
X151521800Y-107554599D01*
G75*
G02*
X151771799Y-107304600I249999J0D01*
G01*
X152621801Y-107304600D01*
G75*
G02*
X152871800Y-107554599I0J-249999D01*
G01*
X152871800Y-108454601D01*
G75*
G02*
X152621801Y-108704600I-249999J0D01*
G01*
G37*
G04 #@! TD.AperFunction*
G04 #@! TA.AperFunction,SMDPad,CuDef*
G36*
G01*
X149906800Y-105212000D02*
X149406800Y-105212000D01*
G75*
G02*
X149181800Y-104987000I0J225000D01*
G01*
X149181800Y-104537000D01*
G75*
G02*
X149406800Y-104312000I225000J0D01*
G01*
X149906800Y-104312000D01*
G75*
G02*
X150131800Y-104537000I0J-225000D01*
G01*
X150131800Y-104987000D01*
G75*
G02*
X149906800Y-105212000I-225000J0D01*
G01*
G37*
G04 #@! TD.AperFunction*
G04 #@! TA.AperFunction,SMDPad,CuDef*
G36*
G01*
X149906800Y-106762000D02*
X149406800Y-106762000D01*
G75*
G02*
X149181800Y-106537000I0J225000D01*
G01*
X149181800Y-106087000D01*
G75*
G02*
X149406800Y-105862000I225000J0D01*
G01*
X149906800Y-105862000D01*
G75*
G02*
X150131800Y-106087000I0J-225000D01*
G01*
X150131800Y-106537000D01*
G75*
G02*
X149906800Y-106762000I-225000J0D01*
G01*
G37*
G04 #@! TD.AperFunction*
G04 #@! TA.AperFunction,SMDPad,CuDef*
G36*
G01*
X154462600Y-100994400D02*
X154462600Y-101494400D01*
G75*
G02*
X154237600Y-101719400I-225000J0D01*
G01*
X153787600Y-101719400D01*
G75*
G02*
X153562600Y-101494400I0J225000D01*
G01*
X153562600Y-100994400D01*
G75*
G02*
X153787600Y-100769400I225000J0D01*
G01*
X154237600Y-100769400D01*
G75*
G02*
X154462600Y-100994400I0J-225000D01*
G01*
G37*
G04 #@! TD.AperFunction*
G04 #@! TA.AperFunction,SMDPad,CuDef*
G36*
G01*
X156012600Y-100994400D02*
X156012600Y-101494400D01*
G75*
G02*
X155787600Y-101719400I-225000J0D01*
G01*
X155337600Y-101719400D01*
G75*
G02*
X155112600Y-101494400I0J225000D01*
G01*
X155112600Y-100994400D01*
G75*
G02*
X155337600Y-100769400I225000J0D01*
G01*
X155787600Y-100769400D01*
G75*
G02*
X156012600Y-100994400I0J-225000D01*
G01*
G37*
G04 #@! TD.AperFunction*
G04 #@! TA.AperFunction,SMDPad,CuDef*
G36*
G01*
X154464199Y-108142800D02*
X155314201Y-108142800D01*
G75*
G02*
X155564200Y-108392799I0J-249999D01*
G01*
X155564200Y-109292801D01*
G75*
G02*
X155314201Y-109542800I-249999J0D01*
G01*
X154464199Y-109542800D01*
G75*
G02*
X154214200Y-109292801I0J249999D01*
G01*
X154214200Y-108392799D01*
G75*
G02*
X154464199Y-108142800I249999J0D01*
G01*
G37*
G04 #@! TD.AperFunction*
G04 #@! TA.AperFunction,SMDPad,CuDef*
G36*
G01*
X154464199Y-105442800D02*
X155314201Y-105442800D01*
G75*
G02*
X155564200Y-105692799I0J-249999D01*
G01*
X155564200Y-106592801D01*
G75*
G02*
X155314201Y-106842800I-249999J0D01*
G01*
X154464199Y-106842800D01*
G75*
G02*
X154214200Y-106592801I0J249999D01*
G01*
X154214200Y-105692799D01*
G75*
G02*
X154464199Y-105442800I249999J0D01*
G01*
G37*
G04 #@! TD.AperFunction*
G04 #@! TA.AperFunction,SMDPad,CuDef*
G36*
G01*
X177264501Y-105995500D02*
X175414499Y-105995500D01*
G75*
G02*
X175164500Y-105745501I0J249999D01*
G01*
X175164500Y-104920499D01*
G75*
G02*
X175414499Y-104670500I249999J0D01*
G01*
X177264501Y-104670500D01*
G75*
G02*
X177514500Y-104920499I0J-249999D01*
G01*
X177514500Y-105745501D01*
G75*
G02*
X177264501Y-105995500I-249999J0D01*
G01*
G37*
G04 #@! TD.AperFunction*
G04 #@! TA.AperFunction,SMDPad,CuDef*
G36*
G01*
X177264501Y-109070500D02*
X175414499Y-109070500D01*
G75*
G02*
X175164500Y-108820501I0J249999D01*
G01*
X175164500Y-107995499D01*
G75*
G02*
X175414499Y-107745500I249999J0D01*
G01*
X177264501Y-107745500D01*
G75*
G02*
X177514500Y-107995499I0J-249999D01*
G01*
X177514500Y-108820501D01*
G75*
G02*
X177264501Y-109070500I-249999J0D01*
G01*
G37*
G04 #@! TD.AperFunction*
G04 #@! TA.AperFunction,SMDPad,CuDef*
G36*
G01*
X170109000Y-108906500D02*
X170109000Y-109406500D01*
G75*
G02*
X169884000Y-109631500I-225000J0D01*
G01*
X169434000Y-109631500D01*
G75*
G02*
X169209000Y-109406500I0J225000D01*
G01*
X169209000Y-108906500D01*
G75*
G02*
X169434000Y-108681500I225000J0D01*
G01*
X169884000Y-108681500D01*
G75*
G02*
X170109000Y-108906500I0J-225000D01*
G01*
G37*
G04 #@! TD.AperFunction*
G04 #@! TA.AperFunction,SMDPad,CuDef*
G36*
G01*
X171659000Y-108906500D02*
X171659000Y-109406500D01*
G75*
G02*
X171434000Y-109631500I-225000J0D01*
G01*
X170984000Y-109631500D01*
G75*
G02*
X170759000Y-109406500I0J225000D01*
G01*
X170759000Y-108906500D01*
G75*
G02*
X170984000Y-108681500I225000J0D01*
G01*
X171434000Y-108681500D01*
G75*
G02*
X171659000Y-108906500I0J-225000D01*
G01*
G37*
G04 #@! TD.AperFunction*
G04 #@! TA.AperFunction,SMDPad,CuDef*
G36*
G01*
X175994500Y-103604501D02*
X175994500Y-101754499D01*
G75*
G02*
X176244499Y-101504500I249999J0D01*
G01*
X177069501Y-101504500D01*
G75*
G02*
X177319500Y-101754499I0J-249999D01*
G01*
X177319500Y-103604501D01*
G75*
G02*
X177069501Y-103854500I-249999J0D01*
G01*
X176244499Y-103854500D01*
G75*
G02*
X175994500Y-103604501I0J249999D01*
G01*
G37*
G04 #@! TD.AperFunction*
G04 #@! TA.AperFunction,SMDPad,CuDef*
G36*
G01*
X172919500Y-103604501D02*
X172919500Y-101754499D01*
G75*
G02*
X173169499Y-101504500I249999J0D01*
G01*
X173994501Y-101504500D01*
G75*
G02*
X174244500Y-101754499I0J-249999D01*
G01*
X174244500Y-103604501D01*
G75*
G02*
X173994501Y-103854500I-249999J0D01*
G01*
X173169499Y-103854500D01*
G75*
G02*
X172919500Y-103604501I0J249999D01*
G01*
G37*
G04 #@! TD.AperFunction*
G04 #@! TA.AperFunction,SMDPad,CuDef*
G36*
G01*
X171763500Y-103243500D02*
X171263500Y-103243500D01*
G75*
G02*
X171038500Y-103018500I0J225000D01*
G01*
X171038500Y-102568500D01*
G75*
G02*
X171263500Y-102343500I225000J0D01*
G01*
X171763500Y-102343500D01*
G75*
G02*
X171988500Y-102568500I0J-225000D01*
G01*
X171988500Y-103018500D01*
G75*
G02*
X171763500Y-103243500I-225000J0D01*
G01*
G37*
G04 #@! TD.AperFunction*
G04 #@! TA.AperFunction,SMDPad,CuDef*
G36*
G01*
X171763500Y-104793500D02*
X171263500Y-104793500D01*
G75*
G02*
X171038500Y-104568500I0J225000D01*
G01*
X171038500Y-104118500D01*
G75*
G02*
X171263500Y-103893500I225000J0D01*
G01*
X171763500Y-103893500D01*
G75*
G02*
X171988500Y-104118500I0J-225000D01*
G01*
X171988500Y-104568500D01*
G75*
G02*
X171763500Y-104793500I-225000J0D01*
G01*
G37*
G04 #@! TD.AperFunction*
G04 #@! TA.AperFunction,SMDPad,CuDef*
G36*
G01*
X174132001Y-105843500D02*
X172831999Y-105843500D01*
G75*
G02*
X172582000Y-105593501I0J249999D01*
G01*
X172582000Y-104943499D01*
G75*
G02*
X172831999Y-104693500I249999J0D01*
G01*
X174132001Y-104693500D01*
G75*
G02*
X174382000Y-104943499I0J-249999D01*
G01*
X174382000Y-105593501D01*
G75*
G02*
X174132001Y-105843500I-249999J0D01*
G01*
G37*
G04 #@! TD.AperFunction*
G04 #@! TA.AperFunction,SMDPad,CuDef*
G36*
G01*
X174132001Y-108793500D02*
X172831999Y-108793500D01*
G75*
G02*
X172582000Y-108543501I0J249999D01*
G01*
X172582000Y-107893499D01*
G75*
G02*
X172831999Y-107643500I249999J0D01*
G01*
X174132001Y-107643500D01*
G75*
G02*
X174382000Y-107893499I0J-249999D01*
G01*
X174382000Y-108543501D01*
G75*
G02*
X174132001Y-108793500I-249999J0D01*
G01*
G37*
G04 #@! TD.AperFunction*
G04 #@! TA.AperFunction,SMDPad,CuDef*
G36*
G01*
X171263500Y-107005000D02*
X171763500Y-107005000D01*
G75*
G02*
X171988500Y-107230000I0J-225000D01*
G01*
X171988500Y-107680000D01*
G75*
G02*
X171763500Y-107905000I-225000J0D01*
G01*
X171263500Y-107905000D01*
G75*
G02*
X171038500Y-107680000I0J225000D01*
G01*
X171038500Y-107230000D01*
G75*
G02*
X171263500Y-107005000I225000J0D01*
G01*
G37*
G04 #@! TD.AperFunction*
G04 #@! TA.AperFunction,SMDPad,CuDef*
G36*
G01*
X171263500Y-105455000D02*
X171763500Y-105455000D01*
G75*
G02*
X171988500Y-105680000I0J-225000D01*
G01*
X171988500Y-106130000D01*
G75*
G02*
X171763500Y-106355000I-225000J0D01*
G01*
X171263500Y-106355000D01*
G75*
G02*
X171038500Y-106130000I0J225000D01*
G01*
X171038500Y-105680000D01*
G75*
G02*
X171263500Y-105455000I225000J0D01*
G01*
G37*
G04 #@! TD.AperFunction*
G04 #@! TA.AperFunction,SMDPad,CuDef*
G36*
G01*
X144160001Y-106351500D02*
X142859999Y-106351500D01*
G75*
G02*
X142610000Y-106101501I0J249999D01*
G01*
X142610000Y-105451499D01*
G75*
G02*
X142859999Y-105201500I249999J0D01*
G01*
X144160001Y-105201500D01*
G75*
G02*
X144410000Y-105451499I0J-249999D01*
G01*
X144410000Y-106101501D01*
G75*
G02*
X144160001Y-106351500I-249999J0D01*
G01*
G37*
G04 #@! TD.AperFunction*
G04 #@! TA.AperFunction,SMDPad,CuDef*
G36*
G01*
X144160001Y-109301500D02*
X142859999Y-109301500D01*
G75*
G02*
X142610000Y-109051501I0J249999D01*
G01*
X142610000Y-108401499D01*
G75*
G02*
X142859999Y-108151500I249999J0D01*
G01*
X144160001Y-108151500D01*
G75*
G02*
X144410000Y-108401499I0J-249999D01*
G01*
X144410000Y-109051501D01*
G75*
G02*
X144160001Y-109301500I-249999J0D01*
G01*
G37*
G04 #@! TD.AperFunction*
G04 #@! TA.AperFunction,SMDPad,CuDef*
G36*
G01*
X145267000Y-106914500D02*
X145817000Y-106914500D01*
G75*
G02*
X146017000Y-107114500I0J-200000D01*
G01*
X146017000Y-107514500D01*
G75*
G02*
X145817000Y-107714500I-200000J0D01*
G01*
X145267000Y-107714500D01*
G75*
G02*
X145067000Y-107514500I0J200000D01*
G01*
X145067000Y-107114500D01*
G75*
G02*
X145267000Y-106914500I200000J0D01*
G01*
G37*
G04 #@! TD.AperFunction*
G04 #@! TA.AperFunction,SMDPad,CuDef*
G36*
G01*
X145267000Y-105264500D02*
X145817000Y-105264500D01*
G75*
G02*
X146017000Y-105464500I0J-200000D01*
G01*
X146017000Y-105864500D01*
G75*
G02*
X145817000Y-106064500I-200000J0D01*
G01*
X145267000Y-106064500D01*
G75*
G02*
X145067000Y-105864500I0J200000D01*
G01*
X145067000Y-105464500D01*
G75*
G02*
X145267000Y-105264500I200000J0D01*
G01*
G37*
G04 #@! TD.AperFunction*
D19*
X87630000Y-105072100D03*
D20*
X139954000Y-105072100D03*
D21*
X143205200Y-107162600D03*
D20*
X182118000Y-105072100D03*
D22*
X153670000Y-107264200D03*
D21*
X173532800Y-100812600D03*
X168300400Y-105257600D03*
X178612800Y-102565200D03*
X185420000Y-103886000D03*
X185420000Y-105029000D03*
X185420000Y-106172000D03*
X197104000Y-101346000D03*
X197104000Y-102489000D03*
X197104000Y-106807000D03*
X197104000Y-108204000D03*
X189992000Y-108839000D03*
X183261000Y-108966000D03*
X179070000Y-108839000D03*
X164592000Y-104902000D03*
X163830000Y-107696000D03*
X164211000Y-101473000D03*
X153035000Y-104013000D03*
X156591000Y-101346000D03*
X151257000Y-101981000D03*
X179324000Y-106553000D03*
X168569043Y-107651633D03*
X170370500Y-105283000D03*
D22*
X156845000Y-102679500D03*
X174879000Y-102679500D03*
X146964400Y-107378501D03*
D21*
X167640000Y-107442000D03*
D22*
X144272000Y-107188000D03*
X155448000Y-107442000D03*
X172275500Y-109283500D03*
X178278927Y-106034289D03*
X151028400Y-102996501D03*
X143408400Y-104444800D03*
X150876000Y-104751301D03*
X146862800Y-106070400D03*
X159385000Y-106934000D03*
X161290000Y-103949500D03*
X196532500Y-105092500D03*
X148336000Y-109220000D03*
X170516550Y-107969050D03*
D23*
X192860000Y-104322100D02*
X188960000Y-104322100D01*
D24*
X161048900Y-102692500D02*
X161061400Y-102705000D01*
X151447500Y-102171500D02*
X151257000Y-101981000D01*
X152376500Y-102171500D02*
X151447500Y-102171500D01*
D25*
X149628590Y-106340210D02*
X149628590Y-108562410D01*
X149656800Y-106312000D02*
X149628590Y-106340210D01*
X149583410Y-106385390D02*
X149656800Y-106312000D01*
X149583410Y-108305480D02*
X149583410Y-106385390D01*
D26*
X154889200Y-108722574D02*
X154889200Y-108842800D01*
X153035000Y-106868374D02*
X154889200Y-108722574D01*
X153035000Y-104013000D02*
X153035000Y-106868374D01*
X154889200Y-108842800D02*
X154054800Y-108842800D01*
X153670000Y-108458000D02*
X153670000Y-107264200D01*
X154054800Y-108842800D02*
X153670000Y-108458000D01*
X155012400Y-108966000D02*
X154889200Y-108842800D01*
X156743400Y-108966000D02*
X155012400Y-108966000D01*
X156813232Y-108966000D02*
X156743400Y-108966000D01*
X158292800Y-107486432D02*
X156813232Y-108966000D01*
X158292800Y-107455000D02*
X158292800Y-107486432D01*
X155612600Y-101294400D02*
X155562600Y-101244400D01*
X157547300Y-101244400D02*
X157683200Y-101380300D01*
X155562600Y-101244400D02*
X157547300Y-101244400D01*
X156032200Y-101346000D02*
X155612600Y-101765600D01*
X156591000Y-101346000D02*
X156032200Y-101346000D01*
X155612600Y-101765600D02*
X155612600Y-101294400D01*
X155612600Y-102768400D02*
X155612600Y-101765600D01*
D25*
X160238410Y-101894910D02*
X161036000Y-102692500D01*
X157683200Y-101380300D02*
X158197810Y-101894910D01*
X161036000Y-102692500D02*
X161036000Y-102387400D01*
X160543510Y-101894910D02*
X160238410Y-101894910D01*
X161036000Y-102387400D02*
X160543510Y-101894910D01*
X158210260Y-101380300D02*
X158724870Y-101894910D01*
X157683200Y-101380300D02*
X158210260Y-101380300D01*
X158724870Y-101894910D02*
X160238410Y-101894910D01*
X158197810Y-101894910D02*
X158724870Y-101894910D01*
D27*
X169659000Y-109156500D02*
X169659000Y-108791624D01*
X168569043Y-107663511D02*
X168569043Y-107651633D01*
X168569043Y-107651633D02*
X169056133Y-107651633D01*
X169659000Y-108254500D02*
X169659000Y-109156500D01*
X169056133Y-107651633D02*
X169659000Y-108254500D01*
D23*
X173467500Y-105283000D02*
X173482000Y-105268500D01*
X170370500Y-105283000D02*
X173467500Y-105283000D01*
X171513500Y-104343500D02*
X171513500Y-105905000D01*
D24*
X173468000Y-102793500D02*
X173582000Y-102679500D01*
X171513500Y-102793500D02*
X173468000Y-102793500D01*
D23*
X192860000Y-105822100D02*
X188960000Y-105822100D01*
X188960000Y-105822100D02*
X187850678Y-105822100D01*
X156530790Y-102993710D02*
X156530790Y-103819210D01*
X156845000Y-102679500D02*
X156530790Y-102993710D01*
X156108400Y-104241600D02*
X155663400Y-104241600D01*
X156530790Y-103819210D02*
X156108400Y-104241600D01*
X156819500Y-102705000D02*
X156530790Y-102993710D01*
X157154784Y-102705000D02*
X156530790Y-103328994D01*
X158089500Y-102705000D02*
X157154784Y-102705000D01*
X159512000Y-102705000D02*
X158089500Y-102705000D01*
X158089500Y-102705000D02*
X156819500Y-102705000D01*
X156530790Y-103328994D02*
X156530790Y-102993710D01*
D24*
X173582000Y-102679500D02*
X174879000Y-102679500D01*
D23*
X148209000Y-107823000D02*
X147764500Y-107378500D01*
X148818500Y-107823000D02*
X148209000Y-107823000D01*
D26*
X194214312Y-101027090D02*
X195326000Y-102138778D01*
X194509322Y-105822100D02*
X192860000Y-105822100D01*
X195326000Y-105005422D02*
X194509322Y-105822100D01*
X195326000Y-102138778D02*
X195326000Y-105005422D01*
X194214312Y-101027090D02*
X194194290Y-101027090D01*
X175284410Y-100977090D02*
X173582000Y-102679500D01*
X194144290Y-100977090D02*
X175284410Y-100977090D01*
X194194290Y-101027090D02*
X194144290Y-100977090D01*
D23*
X146964401Y-107378500D02*
X146964400Y-107378501D01*
X147764500Y-107378500D02*
X146964401Y-107378500D01*
D27*
X167640000Y-108585500D02*
X168211000Y-109156500D01*
X167640000Y-107442000D02*
X167640000Y-108585500D01*
D23*
X192860000Y-102822100D02*
X188960000Y-102822100D01*
X144398500Y-107314500D02*
X144272000Y-107188000D01*
X145542000Y-107314500D02*
X144398500Y-107314500D01*
X155486200Y-107480200D02*
X155448000Y-107442000D01*
X156768800Y-107480200D02*
X155486200Y-107480200D01*
X186972300Y-102822100D02*
X188960000Y-102822100D01*
X186744899Y-102594699D02*
X186972300Y-102822100D01*
X180928847Y-102594699D02*
X186744899Y-102594699D01*
X176339500Y-105333000D02*
X178190546Y-105333000D01*
X172148500Y-109156500D02*
X172275500Y-109283500D01*
X171209000Y-109156500D02*
X172148500Y-109156500D01*
X178190546Y-105945908D02*
X178278927Y-106034289D01*
X178190546Y-105333000D02*
X178190546Y-105945908D01*
X178687023Y-104836523D02*
X180928847Y-102594699D01*
X178278927Y-105244619D02*
X178687023Y-104836523D01*
X178278927Y-106034289D02*
X178278927Y-105244619D01*
X178190546Y-105333000D02*
X178687023Y-104836523D01*
D24*
X143622000Y-105664500D02*
X143510000Y-105776500D01*
X144968000Y-105413500D02*
X144717000Y-105664500D01*
X144968000Y-103298500D02*
X144968000Y-105413500D01*
X144717000Y-105664500D02*
X143622000Y-105664500D01*
X145542000Y-105664500D02*
X144717000Y-105664500D01*
D28*
X132569991Y-108604000D02*
X93980000Y-108604000D01*
X133985000Y-108604000D02*
X132569991Y-108604000D01*
X133985000Y-108604000D02*
X129540000Y-108604000D01*
D24*
X143559000Y-108775500D02*
X143510000Y-108726500D01*
X145479000Y-108775500D02*
X143559000Y-108775500D01*
D29*
X134107500Y-108726500D02*
X133985000Y-108604000D01*
X143510000Y-108726500D02*
X134107500Y-108726500D01*
D28*
X100349000Y-101454000D02*
X133985000Y-101454000D01*
X93980000Y-101454000D02*
X100349000Y-101454000D01*
X133985000Y-101454000D02*
X129540000Y-101454000D01*
D23*
X134140500Y-101298500D02*
X133985000Y-101454000D01*
X144018000Y-101298500D02*
X134140500Y-101298500D01*
X144097000Y-101219500D02*
X144018000Y-101298500D01*
X146558000Y-101219500D02*
X144097000Y-101219500D01*
X148032000Y-101219500D02*
X148082000Y-101269500D01*
X146558000Y-101219500D02*
X148032000Y-101219500D01*
D27*
X148082000Y-101269500D02*
X148082000Y-101393822D01*
D24*
X148130000Y-101221500D02*
X148082000Y-101269500D01*
X149756500Y-101221500D02*
X148130000Y-101221500D01*
X148032000Y-102869500D02*
X148082000Y-102819500D01*
X146558000Y-102869500D02*
X148032000Y-102869500D01*
X148082000Y-103695500D02*
X148082000Y-102819500D01*
X148082000Y-104267500D02*
X148082000Y-103695500D01*
X148260401Y-103873901D02*
X148082000Y-103695500D01*
X152376500Y-103121500D02*
X151624099Y-103873901D01*
X151624099Y-103873901D02*
X148260401Y-103873901D01*
X165729000Y-106315500D02*
X166761500Y-105283000D01*
X165163000Y-106744000D02*
X165591500Y-106315500D01*
X165591500Y-106315500D02*
X165729000Y-106315500D01*
X164592000Y-106315500D02*
X165591500Y-106315500D01*
X165163000Y-107060500D02*
X165163000Y-106886500D01*
X165163000Y-106886500D02*
X164592000Y-106315500D01*
X165163000Y-109156500D02*
X165163000Y-107060500D01*
X165163000Y-107060500D02*
X165163000Y-106744000D01*
X166761500Y-102313100D02*
X167271400Y-101803200D01*
X166761500Y-105283000D02*
X166761500Y-102313100D01*
X167271400Y-101231700D02*
X167271400Y-101803200D01*
D23*
X150903401Y-103121500D02*
X151028400Y-102996501D01*
X149756500Y-103121500D02*
X150903401Y-103121500D01*
X143068000Y-104104400D02*
X143408400Y-104444800D01*
X143068000Y-103298500D02*
X143068000Y-104104400D01*
D24*
X150774400Y-107442100D02*
X150393500Y-107823000D01*
X152015200Y-107823000D02*
X152196800Y-108004600D01*
X150774400Y-105841800D02*
X150774400Y-107569000D01*
X151130000Y-107823000D02*
X152015200Y-107823000D01*
X150393500Y-107823000D02*
X151130000Y-107823000D01*
X150393500Y-107725482D02*
X150393500Y-107823000D01*
X150774400Y-106284206D02*
X150774400Y-105841800D01*
X150759699Y-104635000D02*
X150876000Y-104751301D01*
X150774400Y-105841800D02*
X150774400Y-105257600D01*
X150278800Y-104762000D02*
X149656800Y-104762000D01*
X150774400Y-105257600D02*
X150278800Y-104762000D01*
X150289499Y-104751301D02*
X150278800Y-104762000D01*
X150876000Y-104751301D02*
X150289499Y-104751301D01*
X149667499Y-104751301D02*
X149656800Y-104762000D01*
X150876000Y-104751301D02*
X149667499Y-104751301D01*
X150876000Y-107569000D02*
X151130000Y-107823000D01*
X150876000Y-104751301D02*
X150876000Y-107569000D01*
X153989700Y-101221500D02*
X154012600Y-101244400D01*
X152376500Y-101221500D02*
X153989700Y-101221500D01*
X154012600Y-104240800D02*
X154013400Y-104241600D01*
X154012600Y-101244400D02*
X154012600Y-104240800D01*
X154013400Y-105267000D02*
X154889200Y-106142800D01*
X154013400Y-104241600D02*
X154013400Y-105267000D01*
X162600000Y-101734000D02*
X162822900Y-101511100D01*
X162600000Y-102982400D02*
X162600000Y-101734000D01*
X162600000Y-104206000D02*
X162600000Y-102982400D01*
D23*
X161023500Y-101130000D02*
X161036000Y-101142500D01*
X159512000Y-101130000D02*
X161023500Y-101130000D01*
X162454300Y-101142500D02*
X162822900Y-101511100D01*
X161036000Y-101142500D02*
X162454300Y-101142500D01*
D24*
X158292600Y-105905200D02*
X158292800Y-105905000D01*
X157683200Y-105689200D02*
X157899200Y-105905200D01*
X157899200Y-105905200D02*
X158292600Y-105905200D01*
X156768800Y-105905200D02*
X157899200Y-105905200D01*
X158038800Y-105156000D02*
X157683200Y-105511600D01*
X157683200Y-105511600D02*
X157683200Y-105689200D01*
X158038800Y-105156000D02*
X157683200Y-104800400D01*
X157683200Y-104800400D02*
X157683200Y-105511600D01*
X157683200Y-104080300D02*
X157683200Y-104800400D01*
X158292800Y-105664000D02*
X158800800Y-105156000D01*
X158292800Y-105905000D02*
X158292800Y-105664000D01*
X158800800Y-105156000D02*
X158038800Y-105156000D01*
X159980000Y-105156000D02*
X158800800Y-105156000D01*
X146888700Y-106044500D02*
X146862800Y-106070400D01*
X148082000Y-106044500D02*
X146888700Y-106044500D01*
D23*
X159443950Y-106875050D02*
X159385000Y-106934000D01*
D27*
X159385000Y-106701000D02*
X159980000Y-106106000D01*
X159385000Y-106934000D02*
X159385000Y-106701000D01*
X159980000Y-106850818D02*
X159639000Y-107191818D01*
X159639000Y-107191818D02*
X159639000Y-108331000D01*
D23*
X158393400Y-108966000D02*
X159131000Y-108966000D01*
X159612490Y-108484510D02*
X159612490Y-106753510D01*
X159131000Y-108966000D02*
X159612490Y-108484510D01*
D27*
X159980000Y-106386000D02*
X159980000Y-106850818D01*
X159980000Y-106106000D02*
X159980000Y-106386000D01*
D24*
X169445751Y-106748749D02*
X169661500Y-106533000D01*
D27*
X169661500Y-106533000D02*
X169534099Y-106660401D01*
X169534099Y-106660401D02*
X166897599Y-106660401D01*
X166561000Y-106997000D02*
X166561000Y-109156500D01*
X166897599Y-106660401D02*
X166561000Y-106997000D01*
D24*
X170269400Y-103425100D02*
X169661500Y-104033000D01*
X170269400Y-101231700D02*
X170269400Y-103425100D01*
X161017401Y-107104999D02*
X160489900Y-107632500D01*
X160734322Y-104206000D02*
X161017401Y-104489079D01*
X159980000Y-104206000D02*
X160734322Y-104206000D01*
X160540400Y-107582000D02*
X161017401Y-107104999D01*
X160540400Y-109156500D02*
X160540400Y-107582000D01*
X161017401Y-104222099D02*
X161290000Y-103949500D01*
X161017401Y-104819901D02*
X161017401Y-104222099D01*
X161017401Y-104489079D02*
X161017401Y-104819901D01*
X161017401Y-104819901D02*
X161017401Y-107104999D01*
X161033500Y-104206000D02*
X161290000Y-103949500D01*
X159980000Y-104206000D02*
X161033500Y-104206000D01*
D23*
X201025000Y-105092500D02*
X201045400Y-105072100D01*
X196532500Y-105092500D02*
X201025000Y-105092500D01*
D24*
X162090400Y-107682000D02*
X162139900Y-107632500D01*
X162090400Y-109156500D02*
X162090400Y-107682000D01*
X162139900Y-106566100D02*
X162600000Y-106106000D01*
X162139900Y-107632500D02*
X162139900Y-106566100D01*
X163513000Y-109156500D02*
X162090400Y-109156500D01*
X172718500Y-107455000D02*
X173482000Y-108218500D01*
D23*
X173482000Y-107188000D02*
X173482000Y-108218500D01*
X173215000Y-107455000D02*
X173482000Y-107188000D01*
X172225000Y-107455000D02*
X173215000Y-107455000D01*
D24*
X171513500Y-107455000D02*
X172225000Y-107455000D01*
X172225000Y-107455000D02*
X172718500Y-107455000D01*
D23*
X192860000Y-107322100D02*
X188960000Y-107322100D01*
X173736000Y-106934000D02*
X173482000Y-107188000D01*
X173482000Y-108218500D02*
X173482000Y-107950000D01*
X174498000Y-106934000D02*
X173736000Y-106934000D01*
X172720000Y-106934000D02*
X172199000Y-107455000D01*
X172199000Y-107455000D02*
X173215000Y-107455000D01*
X171513500Y-107455000D02*
X172199000Y-107455000D01*
X173482000Y-108218500D02*
X173482000Y-107442000D01*
X173990000Y-106934000D02*
X172720000Y-106934000D01*
X174498000Y-106934000D02*
X173990000Y-106934000D01*
X173990000Y-107710500D02*
X173482000Y-108218500D01*
X173990000Y-106934000D02*
X173990000Y-107710500D01*
X178054000Y-106934000D02*
X174498000Y-106934000D01*
X178669501Y-107549501D02*
X178054000Y-106934000D01*
X186074499Y-107549501D02*
X178669501Y-107549501D01*
X186301900Y-107322100D02*
X186074499Y-107549501D01*
X188960000Y-107322100D02*
X186301900Y-107322100D01*
X171513500Y-107455000D02*
X171030600Y-107455000D01*
X171030600Y-107455000D02*
X172199000Y-107455000D01*
X147129000Y-108775500D02*
X147891500Y-108775500D01*
X147891500Y-108775500D02*
X148336000Y-109220000D01*
X171030600Y-107455000D02*
X170516550Y-107969050D01*
D30*
X174791304Y-100483984D02*
X174769579Y-100510456D01*
X174086971Y-101193065D01*
X173994501Y-101183957D01*
X173169499Y-101183957D01*
X173058192Y-101194920D01*
X172951162Y-101227387D01*
X172852523Y-101280111D01*
X172766065Y-101351065D01*
X172695111Y-101437523D01*
X172642387Y-101536162D01*
X172638757Y-101548129D01*
X172638400Y-101500450D01*
X172558650Y-101420700D01*
X172108400Y-101420700D01*
X172108400Y-101945950D01*
X172188150Y-102025700D01*
X172319400Y-102027244D01*
X172381935Y-102021085D01*
X172442067Y-102002844D01*
X172497485Y-101973223D01*
X172546059Y-101933359D01*
X172585923Y-101884785D01*
X172598957Y-101860400D01*
X172598957Y-102199500D01*
X172163009Y-102199500D01*
X172149257Y-102182743D01*
X172066587Y-102114898D01*
X171972270Y-102064484D01*
X171869930Y-102033439D01*
X171763500Y-102022957D01*
X171653393Y-102022957D01*
X171730400Y-101945950D01*
X171730400Y-101420700D01*
X171280150Y-101420700D01*
X171200400Y-101500450D01*
X171198856Y-101706700D01*
X171205015Y-101769235D01*
X171223256Y-101829367D01*
X171252877Y-101884785D01*
X171292741Y-101933359D01*
X171341315Y-101973223D01*
X171396733Y-102002844D01*
X171456865Y-102021085D01*
X171475872Y-102022957D01*
X171263500Y-102022957D01*
X171157070Y-102033439D01*
X171054730Y-102064484D01*
X170960413Y-102114898D01*
X170877743Y-102182743D01*
X170863400Y-102200220D01*
X170863400Y-101843195D01*
X170902216Y-101795898D01*
X170950319Y-101705903D01*
X170979941Y-101608253D01*
X170989943Y-101506700D01*
X170989943Y-100956700D01*
X170979941Y-100855147D01*
X170950319Y-100757497D01*
X170949893Y-100756700D01*
X171198856Y-100756700D01*
X171200400Y-100962950D01*
X171280150Y-101042700D01*
X171730400Y-101042700D01*
X171730400Y-100517450D01*
X172108400Y-100517450D01*
X172108400Y-101042700D01*
X172558650Y-101042700D01*
X172638400Y-100962950D01*
X172639944Y-100756700D01*
X172633785Y-100694165D01*
X172615544Y-100634033D01*
X172585923Y-100578615D01*
X172546059Y-100530041D01*
X172497485Y-100490177D01*
X172442067Y-100460556D01*
X172381935Y-100442315D01*
X172319400Y-100436156D01*
X172188150Y-100437700D01*
X172108400Y-100517450D01*
X171730400Y-100517450D01*
X171650650Y-100437700D01*
X171519400Y-100436156D01*
X171456865Y-100442315D01*
X171396733Y-100460556D01*
X171341315Y-100490177D01*
X171292741Y-100530041D01*
X171252877Y-100578615D01*
X171223256Y-100634033D01*
X171205015Y-100694165D01*
X171198856Y-100756700D01*
X170949893Y-100756700D01*
X170902216Y-100667502D01*
X170837479Y-100588621D01*
X170758598Y-100523884D01*
X170668603Y-100475781D01*
X170570953Y-100446159D01*
X170469400Y-100436157D01*
X170069400Y-100436157D01*
X169967847Y-100446159D01*
X169870197Y-100475781D01*
X169780202Y-100523884D01*
X169701321Y-100588621D01*
X169636584Y-100667502D01*
X169591471Y-100751902D01*
X169585785Y-100694165D01*
X169567544Y-100634033D01*
X169537923Y-100578615D01*
X169498059Y-100530041D01*
X169449485Y-100490177D01*
X169394067Y-100460556D01*
X169333935Y-100442315D01*
X169271400Y-100436156D01*
X169090150Y-100437700D01*
X169010400Y-100517450D01*
X169010400Y-101042700D01*
X169030400Y-101042700D01*
X169030400Y-101420700D01*
X169010400Y-101420700D01*
X169010400Y-101945950D01*
X169090150Y-102025700D01*
X169271400Y-102027244D01*
X169333935Y-102021085D01*
X169394067Y-102002844D01*
X169449485Y-101973223D01*
X169498059Y-101933359D01*
X169537923Y-101884785D01*
X169567544Y-101829367D01*
X169585785Y-101769235D01*
X169591471Y-101711498D01*
X169636584Y-101795898D01*
X169675400Y-101843195D01*
X169675401Y-103062457D01*
X168861500Y-103062457D01*
X168798965Y-103068616D01*
X168738834Y-103086857D01*
X168683416Y-103116478D01*
X168634842Y-103156342D01*
X168594978Y-103204916D01*
X168565357Y-103260334D01*
X168547116Y-103320465D01*
X168540957Y-103383000D01*
X168540957Y-104683000D01*
X168547116Y-104745535D01*
X168565357Y-104805666D01*
X168594978Y-104861084D01*
X168634842Y-104909658D01*
X168683416Y-104949522D01*
X168738834Y-104979143D01*
X168798965Y-104997384D01*
X168861500Y-105003543D01*
X170461500Y-105003543D01*
X170524035Y-104997384D01*
X170584166Y-104979143D01*
X170639584Y-104949522D01*
X170688158Y-104909658D01*
X170726288Y-104863197D01*
X170742356Y-104916167D01*
X170771977Y-104971585D01*
X170811841Y-105020159D01*
X170860415Y-105060023D01*
X170915833Y-105089644D01*
X170975965Y-105107885D01*
X171038500Y-105114044D01*
X171244750Y-105112500D01*
X171324500Y-105032750D01*
X171324500Y-104532500D01*
X171702500Y-104532500D01*
X171702500Y-105032750D01*
X171782250Y-105112500D01*
X171988500Y-105114044D01*
X172051035Y-105107885D01*
X172111167Y-105089644D01*
X172166585Y-105060023D01*
X172215159Y-105020159D01*
X172255023Y-104971585D01*
X172262785Y-104957063D01*
X172263000Y-104999750D01*
X172342750Y-105079500D01*
X173293000Y-105079500D01*
X173293000Y-104454250D01*
X173671000Y-104454250D01*
X173671000Y-105079500D01*
X174621250Y-105079500D01*
X174701000Y-104999750D01*
X174702544Y-104693500D01*
X174696385Y-104630965D01*
X174678144Y-104570833D01*
X174648523Y-104515415D01*
X174608659Y-104466841D01*
X174560085Y-104426977D01*
X174504667Y-104397356D01*
X174444535Y-104379115D01*
X174382000Y-104372956D01*
X173750750Y-104374500D01*
X173671000Y-104454250D01*
X173293000Y-104454250D01*
X173213250Y-104374500D01*
X172582000Y-104372956D01*
X172519465Y-104379115D01*
X172459333Y-104397356D01*
X172403915Y-104426977D01*
X172355341Y-104466841D01*
X172315477Y-104515415D01*
X172285856Y-104570833D01*
X172281254Y-104586004D01*
X172227750Y-104532500D01*
X171702500Y-104532500D01*
X171324500Y-104532500D01*
X171304500Y-104532500D01*
X171304500Y-104154500D01*
X171324500Y-104154500D01*
X171324500Y-103654250D01*
X171702500Y-103654250D01*
X171702500Y-104154500D01*
X172227750Y-104154500D01*
X172307500Y-104074750D01*
X172309044Y-103893500D01*
X172302885Y-103830965D01*
X172284644Y-103770833D01*
X172255023Y-103715415D01*
X172215159Y-103666841D01*
X172166585Y-103626977D01*
X172111167Y-103597356D01*
X172051035Y-103579115D01*
X171988500Y-103572956D01*
X171782250Y-103574500D01*
X171702500Y-103654250D01*
X171324500Y-103654250D01*
X171244750Y-103574500D01*
X171038500Y-103572956D01*
X170975965Y-103579115D01*
X170915833Y-103597356D01*
X170860415Y-103626977D01*
X170815182Y-103664099D01*
X170820840Y-103653514D01*
X170854805Y-103541544D01*
X170863400Y-103454280D01*
X170863400Y-103454278D01*
X170866274Y-103425101D01*
X170863400Y-103395924D01*
X170863400Y-103386780D01*
X170877743Y-103404257D01*
X170960413Y-103472102D01*
X171054730Y-103522516D01*
X171157070Y-103553561D01*
X171263500Y-103564043D01*
X171763500Y-103564043D01*
X171869930Y-103553561D01*
X171972270Y-103522516D01*
X172066587Y-103472102D01*
X172149257Y-103404257D01*
X172163009Y-103387500D01*
X172598957Y-103387500D01*
X172598957Y-103604501D01*
X172609920Y-103715808D01*
X172642387Y-103822838D01*
X172695111Y-103921477D01*
X172766065Y-104007935D01*
X172852523Y-104078889D01*
X172951162Y-104131613D01*
X173058192Y-104164080D01*
X173169499Y-104175043D01*
X173994501Y-104175043D01*
X174105808Y-104164080D01*
X174212838Y-104131613D01*
X174311477Y-104078889D01*
X174397935Y-104007935D01*
X174468889Y-103921477D01*
X174504689Y-103854500D01*
X175673956Y-103854500D01*
X175680115Y-103917035D01*
X175698356Y-103977167D01*
X175727977Y-104032585D01*
X175767841Y-104081159D01*
X175816415Y-104121023D01*
X175871833Y-104150644D01*
X175931965Y-104168885D01*
X175994500Y-104175044D01*
X176388250Y-104173500D01*
X176468000Y-104093750D01*
X176468000Y-102868500D01*
X176846000Y-102868500D01*
X176846000Y-104093750D01*
X176925750Y-104173500D01*
X177319500Y-104175044D01*
X177382035Y-104168885D01*
X177442167Y-104150644D01*
X177497585Y-104121023D01*
X177546159Y-104081159D01*
X177586023Y-104032585D01*
X177615644Y-103977167D01*
X177633885Y-103917035D01*
X177640044Y-103854500D01*
X177638500Y-102948250D01*
X177558750Y-102868500D01*
X176846000Y-102868500D01*
X176468000Y-102868500D01*
X175755250Y-102868500D01*
X175675500Y-102948250D01*
X175673956Y-103854500D01*
X174504689Y-103854500D01*
X174521613Y-103822838D01*
X174554080Y-103715808D01*
X174565043Y-103604501D01*
X174565043Y-103381814D01*
X174654691Y-103418948D01*
X174803260Y-103448500D01*
X174954740Y-103448500D01*
X175103309Y-103418948D01*
X175243258Y-103360979D01*
X175369209Y-103276821D01*
X175476321Y-103169709D01*
X175560479Y-103043758D01*
X175618448Y-102903809D01*
X175648000Y-102755240D01*
X175648000Y-102603760D01*
X175618448Y-102455191D01*
X175560479Y-102315242D01*
X175476321Y-102189291D01*
X175369209Y-102082179D01*
X175244268Y-101998696D01*
X175571875Y-101671090D01*
X175674240Y-101671090D01*
X175675500Y-102410750D01*
X175755250Y-102490500D01*
X176468000Y-102490500D01*
X176468000Y-102470500D01*
X176846000Y-102470500D01*
X176846000Y-102490500D01*
X177558750Y-102490500D01*
X177638500Y-102410750D01*
X177639760Y-101671090D01*
X193876849Y-101671090D01*
X194282315Y-102076557D01*
X191085000Y-102076557D01*
X191022465Y-102082716D01*
X190962334Y-102100957D01*
X190906916Y-102130578D01*
X190858342Y-102170442D01*
X190852057Y-102178100D01*
X190517943Y-102178100D01*
X190511658Y-102170442D01*
X190463084Y-102130578D01*
X190407666Y-102100957D01*
X190347535Y-102082716D01*
X190285000Y-102076557D01*
X187635000Y-102076557D01*
X187572465Y-102082716D01*
X187512334Y-102100957D01*
X187456916Y-102130578D01*
X187408342Y-102170442D01*
X187402057Y-102178100D01*
X187239053Y-102178100D01*
X187222647Y-102161694D01*
X187202479Y-102137119D01*
X187104417Y-102056642D01*
X186992540Y-101996842D01*
X186871145Y-101960017D01*
X186776537Y-101950699D01*
X186776526Y-101950699D01*
X186744899Y-101947584D01*
X186713272Y-101950699D01*
X180960474Y-101950699D01*
X180928847Y-101947584D01*
X180897219Y-101950699D01*
X180897209Y-101950699D01*
X180802601Y-101960017D01*
X180710328Y-101988008D01*
X180681206Y-101996842D01*
X180569328Y-102056642D01*
X180495841Y-102116951D01*
X180495837Y-102116955D01*
X180471267Y-102137119D01*
X180451103Y-102161689D01*
X178254018Y-104358775D01*
X177923793Y-104689000D01*
X177784578Y-104689000D01*
X177738889Y-104603523D01*
X177667935Y-104517065D01*
X177581477Y-104446111D01*
X177482838Y-104393387D01*
X177375808Y-104360920D01*
X177264501Y-104349957D01*
X175414499Y-104349957D01*
X175303192Y-104360920D01*
X175196162Y-104393387D01*
X175097523Y-104446111D01*
X175011065Y-104517065D01*
X174940111Y-104603523D01*
X174887387Y-104702162D01*
X174854920Y-104809192D01*
X174843957Y-104920499D01*
X174843957Y-105745501D01*
X174854920Y-105856808D01*
X174887387Y-105963838D01*
X174940111Y-106062477D01*
X175011065Y-106148935D01*
X175097523Y-106219889D01*
X175196162Y-106272613D01*
X175253480Y-106290000D01*
X174021637Y-106290000D01*
X173990000Y-106286884D01*
X173958362Y-106290000D01*
X173767626Y-106290000D01*
X173735999Y-106286885D01*
X173704372Y-106290000D01*
X172751626Y-106290000D01*
X172719999Y-106286885D01*
X172688372Y-106290000D01*
X172688362Y-106290000D01*
X172593754Y-106299318D01*
X172478059Y-106334414D01*
X172472359Y-106336143D01*
X172360481Y-106395943D01*
X172292515Y-106451721D01*
X172302885Y-106417535D01*
X172309044Y-106355000D01*
X172307500Y-106173750D01*
X172227752Y-106094002D01*
X172307500Y-106094002D01*
X172307500Y-106006661D01*
X172315477Y-106021585D01*
X172355341Y-106070159D01*
X172403915Y-106110023D01*
X172459333Y-106139644D01*
X172519465Y-106157885D01*
X172582000Y-106164044D01*
X173213250Y-106162500D01*
X173293000Y-106082750D01*
X173293000Y-105457500D01*
X173671000Y-105457500D01*
X173671000Y-106082750D01*
X173750750Y-106162500D01*
X174382000Y-106164044D01*
X174444535Y-106157885D01*
X174504667Y-106139644D01*
X174560085Y-106110023D01*
X174608659Y-106070159D01*
X174648523Y-106021585D01*
X174678144Y-105966167D01*
X174696385Y-105906035D01*
X174702544Y-105843500D01*
X174701000Y-105537250D01*
X174621250Y-105457500D01*
X173671000Y-105457500D01*
X173293000Y-105457500D01*
X172342750Y-105457500D01*
X172308733Y-105491517D01*
X172309044Y-105455000D01*
X172302885Y-105392465D01*
X172284644Y-105332333D01*
X172255023Y-105276915D01*
X172215159Y-105228341D01*
X172166585Y-105188477D01*
X172111167Y-105158856D01*
X172051035Y-105140615D01*
X171988500Y-105134456D01*
X171782250Y-105136000D01*
X171702500Y-105215750D01*
X171702500Y-105716000D01*
X171722500Y-105716000D01*
X171722500Y-106094000D01*
X171702500Y-106094000D01*
X171702500Y-106594250D01*
X171782250Y-106674000D01*
X171988500Y-106675544D01*
X172051035Y-106669385D01*
X172083801Y-106659445D01*
X172001590Y-106741656D01*
X171972270Y-106725984D01*
X171869930Y-106694939D01*
X171763500Y-106684457D01*
X171263500Y-106684457D01*
X171157070Y-106694939D01*
X171054730Y-106725984D01*
X170960413Y-106776398D01*
X170907243Y-106820034D01*
X170904354Y-106820318D01*
X170803810Y-106850818D01*
X170782959Y-106857143D01*
X170782043Y-106857633D01*
X170782043Y-106545350D01*
X170811841Y-106581659D01*
X170860415Y-106621523D01*
X170915833Y-106651144D01*
X170975965Y-106669385D01*
X171038500Y-106675544D01*
X171244750Y-106674000D01*
X171324500Y-106594250D01*
X171324500Y-106094000D01*
X171304500Y-106094000D01*
X171304500Y-105716000D01*
X171324500Y-105716000D01*
X171324500Y-105215750D01*
X171244750Y-105136000D01*
X171038500Y-105134456D01*
X170975965Y-105140615D01*
X170915833Y-105158856D01*
X170860415Y-105188477D01*
X170811841Y-105228341D01*
X170771977Y-105276915D01*
X170742356Y-105332333D01*
X170724115Y-105392465D01*
X170717956Y-105455000D01*
X170719500Y-105636250D01*
X170799248Y-105715998D01*
X170733945Y-105715998D01*
X170728022Y-105704916D01*
X170688158Y-105656342D01*
X170639584Y-105616478D01*
X170584166Y-105586857D01*
X170524035Y-105568616D01*
X170461500Y-105562457D01*
X168861500Y-105562457D01*
X168798965Y-105568616D01*
X168738834Y-105586857D01*
X168683416Y-105616478D01*
X168634842Y-105656342D01*
X168594978Y-105704916D01*
X168565357Y-105760334D01*
X168547116Y-105820465D01*
X168540957Y-105883000D01*
X168540957Y-106116401D01*
X167882043Y-106116401D01*
X167882043Y-104283000D01*
X167875884Y-104220465D01*
X167857643Y-104160334D01*
X167828022Y-104104916D01*
X167788158Y-104056342D01*
X167739584Y-104016478D01*
X167684166Y-103986857D01*
X167624035Y-103968616D01*
X167561500Y-103962457D01*
X167355500Y-103962457D01*
X167355500Y-102559142D01*
X167670786Y-102243857D01*
X167693454Y-102225254D01*
X167767683Y-102134805D01*
X167822840Y-102031614D01*
X167856805Y-101919644D01*
X167860168Y-101885503D01*
X167882157Y-101867457D01*
X167950002Y-101784787D01*
X167991740Y-101706700D01*
X168050856Y-101706700D01*
X168057015Y-101769235D01*
X168075256Y-101829367D01*
X168104877Y-101884785D01*
X168144741Y-101933359D01*
X168193315Y-101973223D01*
X168248733Y-102002844D01*
X168308865Y-102021085D01*
X168371400Y-102027244D01*
X168552650Y-102025700D01*
X168632400Y-101945950D01*
X168632400Y-101420700D01*
X168132150Y-101420700D01*
X168052400Y-101500450D01*
X168050856Y-101706700D01*
X167991740Y-101706700D01*
X168000416Y-101690470D01*
X168031461Y-101588130D01*
X168041943Y-101481700D01*
X168041943Y-100981700D01*
X168031461Y-100875270D01*
X168000416Y-100772930D01*
X167991741Y-100756700D01*
X168050856Y-100756700D01*
X168052400Y-100962950D01*
X168132150Y-101042700D01*
X168632400Y-101042700D01*
X168632400Y-100517450D01*
X168552650Y-100437700D01*
X168371400Y-100436156D01*
X168308865Y-100442315D01*
X168248733Y-100460556D01*
X168193315Y-100490177D01*
X168144741Y-100530041D01*
X168104877Y-100578615D01*
X168075256Y-100634033D01*
X168057015Y-100694165D01*
X168050856Y-100756700D01*
X167991741Y-100756700D01*
X167950002Y-100678613D01*
X167882157Y-100595943D01*
X167799487Y-100528098D01*
X167705170Y-100477684D01*
X167602830Y-100446639D01*
X167496400Y-100436157D01*
X167046400Y-100436157D01*
X166939970Y-100446639D01*
X166837630Y-100477684D01*
X166743313Y-100528098D01*
X166660643Y-100595943D01*
X166592798Y-100678613D01*
X166542384Y-100772930D01*
X166538488Y-100785775D01*
X166537285Y-100773565D01*
X166519044Y-100713433D01*
X166489423Y-100658015D01*
X166449559Y-100609441D01*
X166400985Y-100569577D01*
X166345567Y-100539956D01*
X166285435Y-100521715D01*
X166222900Y-100515556D01*
X165791650Y-100517100D01*
X165711900Y-100596850D01*
X165711900Y-101322100D01*
X165731900Y-101322100D01*
X165731900Y-101700100D01*
X165711900Y-101700100D01*
X165711900Y-102425350D01*
X165791650Y-102505100D01*
X166167501Y-102506446D01*
X166167500Y-103962457D01*
X165961500Y-103962457D01*
X165898965Y-103968616D01*
X165838834Y-103986857D01*
X165783416Y-104016478D01*
X165734842Y-104056342D01*
X165694978Y-104104916D01*
X165665357Y-104160334D01*
X165647116Y-104220465D01*
X165640957Y-104283000D01*
X165640957Y-105563501D01*
X165547181Y-105657277D01*
X165544113Y-105647162D01*
X165491389Y-105548523D01*
X165420435Y-105462065D01*
X165333977Y-105391111D01*
X165235338Y-105338387D01*
X165128308Y-105305920D01*
X165017001Y-105294957D01*
X164166999Y-105294957D01*
X164055692Y-105305920D01*
X163948662Y-105338387D01*
X163850023Y-105391111D01*
X163763565Y-105462065D01*
X163692611Y-105548523D01*
X163639887Y-105647162D01*
X163607420Y-105754192D01*
X163596457Y-105865499D01*
X163596457Y-106765501D01*
X163607420Y-106876808D01*
X163639887Y-106983838D01*
X163692611Y-107082477D01*
X163763565Y-107168935D01*
X163850023Y-107239889D01*
X163948662Y-107292613D01*
X164055692Y-107325080D01*
X164166999Y-107336043D01*
X164569001Y-107336043D01*
X164569000Y-108545005D01*
X164530184Y-108592302D01*
X164482081Y-108682297D01*
X164452459Y-108779947D01*
X164442457Y-108881500D01*
X164442457Y-109431500D01*
X164452459Y-109533053D01*
X164482081Y-109630703D01*
X164530184Y-109720698D01*
X164537079Y-109729100D01*
X164138921Y-109729100D01*
X164145816Y-109720698D01*
X164193919Y-109630703D01*
X164223541Y-109533053D01*
X164233543Y-109431500D01*
X164233543Y-108881500D01*
X164223541Y-108779947D01*
X164193919Y-108682297D01*
X164145816Y-108592302D01*
X164081079Y-108513421D01*
X164002198Y-108448684D01*
X163912203Y-108400581D01*
X163814553Y-108370959D01*
X163713000Y-108360957D01*
X163313000Y-108360957D01*
X163211447Y-108370959D01*
X163113797Y-108400581D01*
X163023802Y-108448684D01*
X162944921Y-108513421D01*
X162904642Y-108562500D01*
X162735426Y-108562500D01*
X162701157Y-108520743D01*
X162684400Y-108506991D01*
X162684400Y-108294930D01*
X162707979Y-108275579D01*
X162772716Y-108196698D01*
X162820819Y-108106703D01*
X162850441Y-108009053D01*
X162860443Y-107907500D01*
X162860443Y-107357500D01*
X162850441Y-107255947D01*
X162820819Y-107158297D01*
X162772716Y-107068302D01*
X162733900Y-107021005D01*
X162733900Y-106812142D01*
X162794500Y-106751543D01*
X163210000Y-106751543D01*
X163272535Y-106745384D01*
X163332666Y-106727143D01*
X163388084Y-106697522D01*
X163436658Y-106657658D01*
X163476522Y-106609084D01*
X163506143Y-106553666D01*
X163524384Y-106493535D01*
X163530543Y-106431000D01*
X163530543Y-105781000D01*
X163524384Y-105718465D01*
X163506143Y-105658334D01*
X163491533Y-105631000D01*
X163506143Y-105603666D01*
X163524384Y-105543535D01*
X163530543Y-105481000D01*
X163530543Y-104831000D01*
X163524384Y-104768465D01*
X163506143Y-104708334D01*
X163491533Y-104681000D01*
X163506143Y-104653666D01*
X163524384Y-104593535D01*
X163530543Y-104531000D01*
X163530543Y-104315500D01*
X163596456Y-104315500D01*
X163602615Y-104378035D01*
X163620856Y-104438167D01*
X163650477Y-104493585D01*
X163690341Y-104542159D01*
X163738915Y-104582023D01*
X163794333Y-104611644D01*
X163854465Y-104629885D01*
X163917000Y-104636044D01*
X164323250Y-104634500D01*
X164403000Y-104554750D01*
X164403000Y-103804500D01*
X164781000Y-103804500D01*
X164781000Y-104554750D01*
X164860750Y-104634500D01*
X165267000Y-104636044D01*
X165329535Y-104629885D01*
X165389667Y-104611644D01*
X165445085Y-104582023D01*
X165493659Y-104542159D01*
X165533523Y-104493585D01*
X165563144Y-104438167D01*
X165581385Y-104378035D01*
X165587544Y-104315500D01*
X165586000Y-103884250D01*
X165506250Y-103804500D01*
X164781000Y-103804500D01*
X164403000Y-103804500D01*
X163677750Y-103804500D01*
X163598000Y-103884250D01*
X163596456Y-104315500D01*
X163530543Y-104315500D01*
X163530543Y-103881000D01*
X163524384Y-103818465D01*
X163506143Y-103758334D01*
X163476522Y-103702916D01*
X163436658Y-103654342D01*
X163388084Y-103614478D01*
X163332666Y-103584857D01*
X163272535Y-103566616D01*
X163210000Y-103560457D01*
X163194000Y-103560457D01*
X163194000Y-102915500D01*
X163596456Y-102915500D01*
X163598000Y-103346750D01*
X163677750Y-103426500D01*
X164403000Y-103426500D01*
X164403000Y-102676250D01*
X164781000Y-102676250D01*
X164781000Y-103426500D01*
X165506250Y-103426500D01*
X165586000Y-103346750D01*
X165587544Y-102915500D01*
X165581385Y-102852965D01*
X165563144Y-102792833D01*
X165533523Y-102737415D01*
X165493659Y-102688841D01*
X165445085Y-102648977D01*
X165389667Y-102619356D01*
X165329535Y-102601115D01*
X165267000Y-102594956D01*
X164860750Y-102596500D01*
X164781000Y-102676250D01*
X164403000Y-102676250D01*
X164323250Y-102596500D01*
X163917000Y-102594956D01*
X163854465Y-102601115D01*
X163794333Y-102619356D01*
X163738915Y-102648977D01*
X163690341Y-102688841D01*
X163650477Y-102737415D01*
X163620856Y-102792833D01*
X163602615Y-102852965D01*
X163596456Y-102915500D01*
X163194000Y-102915500D01*
X163194000Y-102506643D01*
X163272901Y-102506643D01*
X163384208Y-102495680D01*
X163491238Y-102463213D01*
X163589877Y-102410489D01*
X163676335Y-102339535D01*
X163747289Y-102253077D01*
X163783089Y-102186100D01*
X164502356Y-102186100D01*
X164508515Y-102248635D01*
X164526756Y-102308767D01*
X164556377Y-102364185D01*
X164596241Y-102412759D01*
X164644815Y-102452623D01*
X164700233Y-102482244D01*
X164760365Y-102500485D01*
X164822900Y-102506644D01*
X165254150Y-102505100D01*
X165333900Y-102425350D01*
X165333900Y-101700100D01*
X164583650Y-101700100D01*
X164503900Y-101779850D01*
X164502356Y-102186100D01*
X163783089Y-102186100D01*
X163800013Y-102154438D01*
X163832480Y-102047408D01*
X163843443Y-101936101D01*
X163843443Y-101086099D01*
X163832480Y-100974792D01*
X163800013Y-100867762D01*
X163783090Y-100836100D01*
X164502356Y-100836100D01*
X164503900Y-101242350D01*
X164583650Y-101322100D01*
X165333900Y-101322100D01*
X165333900Y-100596850D01*
X165254150Y-100517100D01*
X164822900Y-100515556D01*
X164760365Y-100521715D01*
X164700233Y-100539956D01*
X164644815Y-100569577D01*
X164596241Y-100609441D01*
X164556377Y-100658015D01*
X164526756Y-100713433D01*
X164508515Y-100773565D01*
X164502356Y-100836100D01*
X163783090Y-100836100D01*
X163747289Y-100769123D01*
X163676335Y-100682665D01*
X163589877Y-100611711D01*
X163491238Y-100558987D01*
X163384208Y-100526520D01*
X163272901Y-100515557D01*
X162606058Y-100515557D01*
X162580546Y-100507818D01*
X162485938Y-100498500D01*
X162485927Y-100498500D01*
X162454300Y-100495385D01*
X162422673Y-100498500D01*
X161631250Y-100498500D01*
X161589087Y-100463898D01*
X161497793Y-100415100D01*
X174875240Y-100415100D01*
X174791304Y-100483984D01*
G04 #@! TA.AperFunction,Conductor*
D31*
G36*
X174791304Y-100483984D02*
G01*
X174769579Y-100510456D01*
X174086971Y-101193065D01*
X173994501Y-101183957D01*
X173169499Y-101183957D01*
X173058192Y-101194920D01*
X172951162Y-101227387D01*
X172852523Y-101280111D01*
X172766065Y-101351065D01*
X172695111Y-101437523D01*
X172642387Y-101536162D01*
X172638757Y-101548129D01*
X172638400Y-101500450D01*
X172558650Y-101420700D01*
X172108400Y-101420700D01*
X172108400Y-101945950D01*
X172188150Y-102025700D01*
X172319400Y-102027244D01*
X172381935Y-102021085D01*
X172442067Y-102002844D01*
X172497485Y-101973223D01*
X172546059Y-101933359D01*
X172585923Y-101884785D01*
X172598957Y-101860400D01*
X172598957Y-102199500D01*
X172163009Y-102199500D01*
X172149257Y-102182743D01*
X172066587Y-102114898D01*
X171972270Y-102064484D01*
X171869930Y-102033439D01*
X171763500Y-102022957D01*
X171653393Y-102022957D01*
X171730400Y-101945950D01*
X171730400Y-101420700D01*
X171280150Y-101420700D01*
X171200400Y-101500450D01*
X171198856Y-101706700D01*
X171205015Y-101769235D01*
X171223256Y-101829367D01*
X171252877Y-101884785D01*
X171292741Y-101933359D01*
X171341315Y-101973223D01*
X171396733Y-102002844D01*
X171456865Y-102021085D01*
X171475872Y-102022957D01*
X171263500Y-102022957D01*
X171157070Y-102033439D01*
X171054730Y-102064484D01*
X170960413Y-102114898D01*
X170877743Y-102182743D01*
X170863400Y-102200220D01*
X170863400Y-101843195D01*
X170902216Y-101795898D01*
X170950319Y-101705903D01*
X170979941Y-101608253D01*
X170989943Y-101506700D01*
X170989943Y-100956700D01*
X170979941Y-100855147D01*
X170950319Y-100757497D01*
X170949893Y-100756700D01*
X171198856Y-100756700D01*
X171200400Y-100962950D01*
X171280150Y-101042700D01*
X171730400Y-101042700D01*
X171730400Y-100517450D01*
X172108400Y-100517450D01*
X172108400Y-101042700D01*
X172558650Y-101042700D01*
X172638400Y-100962950D01*
X172639944Y-100756700D01*
X172633785Y-100694165D01*
X172615544Y-100634033D01*
X172585923Y-100578615D01*
X172546059Y-100530041D01*
X172497485Y-100490177D01*
X172442067Y-100460556D01*
X172381935Y-100442315D01*
X172319400Y-100436156D01*
X172188150Y-100437700D01*
X172108400Y-100517450D01*
X171730400Y-100517450D01*
X171650650Y-100437700D01*
X171519400Y-100436156D01*
X171456865Y-100442315D01*
X171396733Y-100460556D01*
X171341315Y-100490177D01*
X171292741Y-100530041D01*
X171252877Y-100578615D01*
X171223256Y-100634033D01*
X171205015Y-100694165D01*
X171198856Y-100756700D01*
X170949893Y-100756700D01*
X170902216Y-100667502D01*
X170837479Y-100588621D01*
X170758598Y-100523884D01*
X170668603Y-100475781D01*
X170570953Y-100446159D01*
X170469400Y-100436157D01*
X170069400Y-100436157D01*
X169967847Y-100446159D01*
X169870197Y-100475781D01*
X169780202Y-100523884D01*
X169701321Y-100588621D01*
X169636584Y-100667502D01*
X169591471Y-100751902D01*
X169585785Y-100694165D01*
X169567544Y-100634033D01*
X169537923Y-100578615D01*
X169498059Y-100530041D01*
X169449485Y-100490177D01*
X169394067Y-100460556D01*
X169333935Y-100442315D01*
X169271400Y-100436156D01*
X169090150Y-100437700D01*
X169010400Y-100517450D01*
X169010400Y-101042700D01*
X169030400Y-101042700D01*
X169030400Y-101420700D01*
X169010400Y-101420700D01*
X169010400Y-101945950D01*
X169090150Y-102025700D01*
X169271400Y-102027244D01*
X169333935Y-102021085D01*
X169394067Y-102002844D01*
X169449485Y-101973223D01*
X169498059Y-101933359D01*
X169537923Y-101884785D01*
X169567544Y-101829367D01*
X169585785Y-101769235D01*
X169591471Y-101711498D01*
X169636584Y-101795898D01*
X169675400Y-101843195D01*
X169675401Y-103062457D01*
X168861500Y-103062457D01*
X168798965Y-103068616D01*
X168738834Y-103086857D01*
X168683416Y-103116478D01*
X168634842Y-103156342D01*
X168594978Y-103204916D01*
X168565357Y-103260334D01*
X168547116Y-103320465D01*
X168540957Y-103383000D01*
X168540957Y-104683000D01*
X168547116Y-104745535D01*
X168565357Y-104805666D01*
X168594978Y-104861084D01*
X168634842Y-104909658D01*
X168683416Y-104949522D01*
X168738834Y-104979143D01*
X168798965Y-104997384D01*
X168861500Y-105003543D01*
X170461500Y-105003543D01*
X170524035Y-104997384D01*
X170584166Y-104979143D01*
X170639584Y-104949522D01*
X170688158Y-104909658D01*
X170726288Y-104863197D01*
X170742356Y-104916167D01*
X170771977Y-104971585D01*
X170811841Y-105020159D01*
X170860415Y-105060023D01*
X170915833Y-105089644D01*
X170975965Y-105107885D01*
X171038500Y-105114044D01*
X171244750Y-105112500D01*
X171324500Y-105032750D01*
X171324500Y-104532500D01*
X171702500Y-104532500D01*
X171702500Y-105032750D01*
X171782250Y-105112500D01*
X171988500Y-105114044D01*
X172051035Y-105107885D01*
X172111167Y-105089644D01*
X172166585Y-105060023D01*
X172215159Y-105020159D01*
X172255023Y-104971585D01*
X172262785Y-104957063D01*
X172263000Y-104999750D01*
X172342750Y-105079500D01*
X173293000Y-105079500D01*
X173293000Y-104454250D01*
X173671000Y-104454250D01*
X173671000Y-105079500D01*
X174621250Y-105079500D01*
X174701000Y-104999750D01*
X174702544Y-104693500D01*
X174696385Y-104630965D01*
X174678144Y-104570833D01*
X174648523Y-104515415D01*
X174608659Y-104466841D01*
X174560085Y-104426977D01*
X174504667Y-104397356D01*
X174444535Y-104379115D01*
X174382000Y-104372956D01*
X173750750Y-104374500D01*
X173671000Y-104454250D01*
X173293000Y-104454250D01*
X173213250Y-104374500D01*
X172582000Y-104372956D01*
X172519465Y-104379115D01*
X172459333Y-104397356D01*
X172403915Y-104426977D01*
X172355341Y-104466841D01*
X172315477Y-104515415D01*
X172285856Y-104570833D01*
X172281254Y-104586004D01*
X172227750Y-104532500D01*
X171702500Y-104532500D01*
X171324500Y-104532500D01*
X171304500Y-104532500D01*
X171304500Y-104154500D01*
X171324500Y-104154500D01*
X171324500Y-103654250D01*
X171702500Y-103654250D01*
X171702500Y-104154500D01*
X172227750Y-104154500D01*
X172307500Y-104074750D01*
X172309044Y-103893500D01*
X172302885Y-103830965D01*
X172284644Y-103770833D01*
X172255023Y-103715415D01*
X172215159Y-103666841D01*
X172166585Y-103626977D01*
X172111167Y-103597356D01*
X172051035Y-103579115D01*
X171988500Y-103572956D01*
X171782250Y-103574500D01*
X171702500Y-103654250D01*
X171324500Y-103654250D01*
X171244750Y-103574500D01*
X171038500Y-103572956D01*
X170975965Y-103579115D01*
X170915833Y-103597356D01*
X170860415Y-103626977D01*
X170815182Y-103664099D01*
X170820840Y-103653514D01*
X170854805Y-103541544D01*
X170863400Y-103454280D01*
X170863400Y-103454278D01*
X170866274Y-103425101D01*
X170863400Y-103395924D01*
X170863400Y-103386780D01*
X170877743Y-103404257D01*
X170960413Y-103472102D01*
X171054730Y-103522516D01*
X171157070Y-103553561D01*
X171263500Y-103564043D01*
X171763500Y-103564043D01*
X171869930Y-103553561D01*
X171972270Y-103522516D01*
X172066587Y-103472102D01*
X172149257Y-103404257D01*
X172163009Y-103387500D01*
X172598957Y-103387500D01*
X172598957Y-103604501D01*
X172609920Y-103715808D01*
X172642387Y-103822838D01*
X172695111Y-103921477D01*
X172766065Y-104007935D01*
X172852523Y-104078889D01*
X172951162Y-104131613D01*
X173058192Y-104164080D01*
X173169499Y-104175043D01*
X173994501Y-104175043D01*
X174105808Y-104164080D01*
X174212838Y-104131613D01*
X174311477Y-104078889D01*
X174397935Y-104007935D01*
X174468889Y-103921477D01*
X174504689Y-103854500D01*
X175673956Y-103854500D01*
X175680115Y-103917035D01*
X175698356Y-103977167D01*
X175727977Y-104032585D01*
X175767841Y-104081159D01*
X175816415Y-104121023D01*
X175871833Y-104150644D01*
X175931965Y-104168885D01*
X175994500Y-104175044D01*
X176388250Y-104173500D01*
X176468000Y-104093750D01*
X176468000Y-102868500D01*
X176846000Y-102868500D01*
X176846000Y-104093750D01*
X176925750Y-104173500D01*
X177319500Y-104175044D01*
X177382035Y-104168885D01*
X177442167Y-104150644D01*
X177497585Y-104121023D01*
X177546159Y-104081159D01*
X177586023Y-104032585D01*
X177615644Y-103977167D01*
X177633885Y-103917035D01*
X177640044Y-103854500D01*
X177638500Y-102948250D01*
X177558750Y-102868500D01*
X176846000Y-102868500D01*
X176468000Y-102868500D01*
X175755250Y-102868500D01*
X175675500Y-102948250D01*
X175673956Y-103854500D01*
X174504689Y-103854500D01*
X174521613Y-103822838D01*
X174554080Y-103715808D01*
X174565043Y-103604501D01*
X174565043Y-103381814D01*
X174654691Y-103418948D01*
X174803260Y-103448500D01*
X174954740Y-103448500D01*
X175103309Y-103418948D01*
X175243258Y-103360979D01*
X175369209Y-103276821D01*
X175476321Y-103169709D01*
X175560479Y-103043758D01*
X175618448Y-102903809D01*
X175648000Y-102755240D01*
X175648000Y-102603760D01*
X175618448Y-102455191D01*
X175560479Y-102315242D01*
X175476321Y-102189291D01*
X175369209Y-102082179D01*
X175244268Y-101998696D01*
X175571875Y-101671090D01*
X175674240Y-101671090D01*
X175675500Y-102410750D01*
X175755250Y-102490500D01*
X176468000Y-102490500D01*
X176468000Y-102470500D01*
X176846000Y-102470500D01*
X176846000Y-102490500D01*
X177558750Y-102490500D01*
X177638500Y-102410750D01*
X177639760Y-101671090D01*
X193876849Y-101671090D01*
X194282315Y-102076557D01*
X191085000Y-102076557D01*
X191022465Y-102082716D01*
X190962334Y-102100957D01*
X190906916Y-102130578D01*
X190858342Y-102170442D01*
X190852057Y-102178100D01*
X190517943Y-102178100D01*
X190511658Y-102170442D01*
X190463084Y-102130578D01*
X190407666Y-102100957D01*
X190347535Y-102082716D01*
X190285000Y-102076557D01*
X187635000Y-102076557D01*
X187572465Y-102082716D01*
X187512334Y-102100957D01*
X187456916Y-102130578D01*
X187408342Y-102170442D01*
X187402057Y-102178100D01*
X187239053Y-102178100D01*
X187222647Y-102161694D01*
X187202479Y-102137119D01*
X187104417Y-102056642D01*
X186992540Y-101996842D01*
X186871145Y-101960017D01*
X186776537Y-101950699D01*
X186776526Y-101950699D01*
X186744899Y-101947584D01*
X186713272Y-101950699D01*
X180960474Y-101950699D01*
X180928847Y-101947584D01*
X180897219Y-101950699D01*
X180897209Y-101950699D01*
X180802601Y-101960017D01*
X180710328Y-101988008D01*
X180681206Y-101996842D01*
X180569328Y-102056642D01*
X180495841Y-102116951D01*
X180495837Y-102116955D01*
X180471267Y-102137119D01*
X180451103Y-102161689D01*
X178254018Y-104358775D01*
X177923793Y-104689000D01*
X177784578Y-104689000D01*
X177738889Y-104603523D01*
X177667935Y-104517065D01*
X177581477Y-104446111D01*
X177482838Y-104393387D01*
X177375808Y-104360920D01*
X177264501Y-104349957D01*
X175414499Y-104349957D01*
X175303192Y-104360920D01*
X175196162Y-104393387D01*
X175097523Y-104446111D01*
X175011065Y-104517065D01*
X174940111Y-104603523D01*
X174887387Y-104702162D01*
X174854920Y-104809192D01*
X174843957Y-104920499D01*
X174843957Y-105745501D01*
X174854920Y-105856808D01*
X174887387Y-105963838D01*
X174940111Y-106062477D01*
X175011065Y-106148935D01*
X175097523Y-106219889D01*
X175196162Y-106272613D01*
X175253480Y-106290000D01*
X174021637Y-106290000D01*
X173990000Y-106286884D01*
X173958362Y-106290000D01*
X173767626Y-106290000D01*
X173735999Y-106286885D01*
X173704372Y-106290000D01*
X172751626Y-106290000D01*
X172719999Y-106286885D01*
X172688372Y-106290000D01*
X172688362Y-106290000D01*
X172593754Y-106299318D01*
X172478059Y-106334414D01*
X172472359Y-106336143D01*
X172360481Y-106395943D01*
X172292515Y-106451721D01*
X172302885Y-106417535D01*
X172309044Y-106355000D01*
X172307500Y-106173750D01*
X172227752Y-106094002D01*
X172307500Y-106094002D01*
X172307500Y-106006661D01*
X172315477Y-106021585D01*
X172355341Y-106070159D01*
X172403915Y-106110023D01*
X172459333Y-106139644D01*
X172519465Y-106157885D01*
X172582000Y-106164044D01*
X173213250Y-106162500D01*
X173293000Y-106082750D01*
X173293000Y-105457500D01*
X173671000Y-105457500D01*
X173671000Y-106082750D01*
X173750750Y-106162500D01*
X174382000Y-106164044D01*
X174444535Y-106157885D01*
X174504667Y-106139644D01*
X174560085Y-106110023D01*
X174608659Y-106070159D01*
X174648523Y-106021585D01*
X174678144Y-105966167D01*
X174696385Y-105906035D01*
X174702544Y-105843500D01*
X174701000Y-105537250D01*
X174621250Y-105457500D01*
X173671000Y-105457500D01*
X173293000Y-105457500D01*
X172342750Y-105457500D01*
X172308733Y-105491517D01*
X172309044Y-105455000D01*
X172302885Y-105392465D01*
X172284644Y-105332333D01*
X172255023Y-105276915D01*
X172215159Y-105228341D01*
X172166585Y-105188477D01*
X172111167Y-105158856D01*
X172051035Y-105140615D01*
X171988500Y-105134456D01*
X171782250Y-105136000D01*
X171702500Y-105215750D01*
X171702500Y-105716000D01*
X171722500Y-105716000D01*
X171722500Y-106094000D01*
X171702500Y-106094000D01*
X171702500Y-106594250D01*
X171782250Y-106674000D01*
X171988500Y-106675544D01*
X172051035Y-106669385D01*
X172083801Y-106659445D01*
X172001590Y-106741656D01*
X171972270Y-106725984D01*
X171869930Y-106694939D01*
X171763500Y-106684457D01*
X171263500Y-106684457D01*
X171157070Y-106694939D01*
X171054730Y-106725984D01*
X170960413Y-106776398D01*
X170907243Y-106820034D01*
X170904354Y-106820318D01*
X170803810Y-106850818D01*
X170782959Y-106857143D01*
X170782043Y-106857633D01*
X170782043Y-106545350D01*
X170811841Y-106581659D01*
X170860415Y-106621523D01*
X170915833Y-106651144D01*
X170975965Y-106669385D01*
X171038500Y-106675544D01*
X171244750Y-106674000D01*
X171324500Y-106594250D01*
X171324500Y-106094000D01*
X171304500Y-106094000D01*
X171304500Y-105716000D01*
X171324500Y-105716000D01*
X171324500Y-105215750D01*
X171244750Y-105136000D01*
X171038500Y-105134456D01*
X170975965Y-105140615D01*
X170915833Y-105158856D01*
X170860415Y-105188477D01*
X170811841Y-105228341D01*
X170771977Y-105276915D01*
X170742356Y-105332333D01*
X170724115Y-105392465D01*
X170717956Y-105455000D01*
X170719500Y-105636250D01*
X170799248Y-105715998D01*
X170733945Y-105715998D01*
X170728022Y-105704916D01*
X170688158Y-105656342D01*
X170639584Y-105616478D01*
X170584166Y-105586857D01*
X170524035Y-105568616D01*
X170461500Y-105562457D01*
X168861500Y-105562457D01*
X168798965Y-105568616D01*
X168738834Y-105586857D01*
X168683416Y-105616478D01*
X168634842Y-105656342D01*
X168594978Y-105704916D01*
X168565357Y-105760334D01*
X168547116Y-105820465D01*
X168540957Y-105883000D01*
X168540957Y-106116401D01*
X167882043Y-106116401D01*
X167882043Y-104283000D01*
X167875884Y-104220465D01*
X167857643Y-104160334D01*
X167828022Y-104104916D01*
X167788158Y-104056342D01*
X167739584Y-104016478D01*
X167684166Y-103986857D01*
X167624035Y-103968616D01*
X167561500Y-103962457D01*
X167355500Y-103962457D01*
X167355500Y-102559142D01*
X167670786Y-102243857D01*
X167693454Y-102225254D01*
X167767683Y-102134805D01*
X167822840Y-102031614D01*
X167856805Y-101919644D01*
X167860168Y-101885503D01*
X167882157Y-101867457D01*
X167950002Y-101784787D01*
X167991740Y-101706700D01*
X168050856Y-101706700D01*
X168057015Y-101769235D01*
X168075256Y-101829367D01*
X168104877Y-101884785D01*
X168144741Y-101933359D01*
X168193315Y-101973223D01*
X168248733Y-102002844D01*
X168308865Y-102021085D01*
X168371400Y-102027244D01*
X168552650Y-102025700D01*
X168632400Y-101945950D01*
X168632400Y-101420700D01*
X168132150Y-101420700D01*
X168052400Y-101500450D01*
X168050856Y-101706700D01*
X167991740Y-101706700D01*
X168000416Y-101690470D01*
X168031461Y-101588130D01*
X168041943Y-101481700D01*
X168041943Y-100981700D01*
X168031461Y-100875270D01*
X168000416Y-100772930D01*
X167991741Y-100756700D01*
X168050856Y-100756700D01*
X168052400Y-100962950D01*
X168132150Y-101042700D01*
X168632400Y-101042700D01*
X168632400Y-100517450D01*
X168552650Y-100437700D01*
X168371400Y-100436156D01*
X168308865Y-100442315D01*
X168248733Y-100460556D01*
X168193315Y-100490177D01*
X168144741Y-100530041D01*
X168104877Y-100578615D01*
X168075256Y-100634033D01*
X168057015Y-100694165D01*
X168050856Y-100756700D01*
X167991741Y-100756700D01*
X167950002Y-100678613D01*
X167882157Y-100595943D01*
X167799487Y-100528098D01*
X167705170Y-100477684D01*
X167602830Y-100446639D01*
X167496400Y-100436157D01*
X167046400Y-100436157D01*
X166939970Y-100446639D01*
X166837630Y-100477684D01*
X166743313Y-100528098D01*
X166660643Y-100595943D01*
X166592798Y-100678613D01*
X166542384Y-100772930D01*
X166538488Y-100785775D01*
X166537285Y-100773565D01*
X166519044Y-100713433D01*
X166489423Y-100658015D01*
X166449559Y-100609441D01*
X166400985Y-100569577D01*
X166345567Y-100539956D01*
X166285435Y-100521715D01*
X166222900Y-100515556D01*
X165791650Y-100517100D01*
X165711900Y-100596850D01*
X165711900Y-101322100D01*
X165731900Y-101322100D01*
X165731900Y-101700100D01*
X165711900Y-101700100D01*
X165711900Y-102425350D01*
X165791650Y-102505100D01*
X166167501Y-102506446D01*
X166167500Y-103962457D01*
X165961500Y-103962457D01*
X165898965Y-103968616D01*
X165838834Y-103986857D01*
X165783416Y-104016478D01*
X165734842Y-104056342D01*
X165694978Y-104104916D01*
X165665357Y-104160334D01*
X165647116Y-104220465D01*
X165640957Y-104283000D01*
X165640957Y-105563501D01*
X165547181Y-105657277D01*
X165544113Y-105647162D01*
X165491389Y-105548523D01*
X165420435Y-105462065D01*
X165333977Y-105391111D01*
X165235338Y-105338387D01*
X165128308Y-105305920D01*
X165017001Y-105294957D01*
X164166999Y-105294957D01*
X164055692Y-105305920D01*
X163948662Y-105338387D01*
X163850023Y-105391111D01*
X163763565Y-105462065D01*
X163692611Y-105548523D01*
X163639887Y-105647162D01*
X163607420Y-105754192D01*
X163596457Y-105865499D01*
X163596457Y-106765501D01*
X163607420Y-106876808D01*
X163639887Y-106983838D01*
X163692611Y-107082477D01*
X163763565Y-107168935D01*
X163850023Y-107239889D01*
X163948662Y-107292613D01*
X164055692Y-107325080D01*
X164166999Y-107336043D01*
X164569001Y-107336043D01*
X164569000Y-108545005D01*
X164530184Y-108592302D01*
X164482081Y-108682297D01*
X164452459Y-108779947D01*
X164442457Y-108881500D01*
X164442457Y-109431500D01*
X164452459Y-109533053D01*
X164482081Y-109630703D01*
X164530184Y-109720698D01*
X164537079Y-109729100D01*
X164138921Y-109729100D01*
X164145816Y-109720698D01*
X164193919Y-109630703D01*
X164223541Y-109533053D01*
X164233543Y-109431500D01*
X164233543Y-108881500D01*
X164223541Y-108779947D01*
X164193919Y-108682297D01*
X164145816Y-108592302D01*
X164081079Y-108513421D01*
X164002198Y-108448684D01*
X163912203Y-108400581D01*
X163814553Y-108370959D01*
X163713000Y-108360957D01*
X163313000Y-108360957D01*
X163211447Y-108370959D01*
X163113797Y-108400581D01*
X163023802Y-108448684D01*
X162944921Y-108513421D01*
X162904642Y-108562500D01*
X162735426Y-108562500D01*
X162701157Y-108520743D01*
X162684400Y-108506991D01*
X162684400Y-108294930D01*
X162707979Y-108275579D01*
X162772716Y-108196698D01*
X162820819Y-108106703D01*
X162850441Y-108009053D01*
X162860443Y-107907500D01*
X162860443Y-107357500D01*
X162850441Y-107255947D01*
X162820819Y-107158297D01*
X162772716Y-107068302D01*
X162733900Y-107021005D01*
X162733900Y-106812142D01*
X162794500Y-106751543D01*
X163210000Y-106751543D01*
X163272535Y-106745384D01*
X163332666Y-106727143D01*
X163388084Y-106697522D01*
X163436658Y-106657658D01*
X163476522Y-106609084D01*
X163506143Y-106553666D01*
X163524384Y-106493535D01*
X163530543Y-106431000D01*
X163530543Y-105781000D01*
X163524384Y-105718465D01*
X163506143Y-105658334D01*
X163491533Y-105631000D01*
X163506143Y-105603666D01*
X163524384Y-105543535D01*
X163530543Y-105481000D01*
X163530543Y-104831000D01*
X163524384Y-104768465D01*
X163506143Y-104708334D01*
X163491533Y-104681000D01*
X163506143Y-104653666D01*
X163524384Y-104593535D01*
X163530543Y-104531000D01*
X163530543Y-104315500D01*
X163596456Y-104315500D01*
X163602615Y-104378035D01*
X163620856Y-104438167D01*
X163650477Y-104493585D01*
X163690341Y-104542159D01*
X163738915Y-104582023D01*
X163794333Y-104611644D01*
X163854465Y-104629885D01*
X163917000Y-104636044D01*
X164323250Y-104634500D01*
X164403000Y-104554750D01*
X164403000Y-103804500D01*
X164781000Y-103804500D01*
X164781000Y-104554750D01*
X164860750Y-104634500D01*
X165267000Y-104636044D01*
X165329535Y-104629885D01*
X165389667Y-104611644D01*
X165445085Y-104582023D01*
X165493659Y-104542159D01*
X165533523Y-104493585D01*
X165563144Y-104438167D01*
X165581385Y-104378035D01*
X165587544Y-104315500D01*
X165586000Y-103884250D01*
X165506250Y-103804500D01*
X164781000Y-103804500D01*
X164403000Y-103804500D01*
X163677750Y-103804500D01*
X163598000Y-103884250D01*
X163596456Y-104315500D01*
X163530543Y-104315500D01*
X163530543Y-103881000D01*
X163524384Y-103818465D01*
X163506143Y-103758334D01*
X163476522Y-103702916D01*
X163436658Y-103654342D01*
X163388084Y-103614478D01*
X163332666Y-103584857D01*
X163272535Y-103566616D01*
X163210000Y-103560457D01*
X163194000Y-103560457D01*
X163194000Y-102915500D01*
X163596456Y-102915500D01*
X163598000Y-103346750D01*
X163677750Y-103426500D01*
X164403000Y-103426500D01*
X164403000Y-102676250D01*
X164781000Y-102676250D01*
X164781000Y-103426500D01*
X165506250Y-103426500D01*
X165586000Y-103346750D01*
X165587544Y-102915500D01*
X165581385Y-102852965D01*
X165563144Y-102792833D01*
X165533523Y-102737415D01*
X165493659Y-102688841D01*
X165445085Y-102648977D01*
X165389667Y-102619356D01*
X165329535Y-102601115D01*
X165267000Y-102594956D01*
X164860750Y-102596500D01*
X164781000Y-102676250D01*
X164403000Y-102676250D01*
X164323250Y-102596500D01*
X163917000Y-102594956D01*
X163854465Y-102601115D01*
X163794333Y-102619356D01*
X163738915Y-102648977D01*
X163690341Y-102688841D01*
X163650477Y-102737415D01*
X163620856Y-102792833D01*
X163602615Y-102852965D01*
X163596456Y-102915500D01*
X163194000Y-102915500D01*
X163194000Y-102506643D01*
X163272901Y-102506643D01*
X163384208Y-102495680D01*
X163491238Y-102463213D01*
X163589877Y-102410489D01*
X163676335Y-102339535D01*
X163747289Y-102253077D01*
X163783089Y-102186100D01*
X164502356Y-102186100D01*
X164508515Y-102248635D01*
X164526756Y-102308767D01*
X164556377Y-102364185D01*
X164596241Y-102412759D01*
X164644815Y-102452623D01*
X164700233Y-102482244D01*
X164760365Y-102500485D01*
X164822900Y-102506644D01*
X165254150Y-102505100D01*
X165333900Y-102425350D01*
X165333900Y-101700100D01*
X164583650Y-101700100D01*
X164503900Y-101779850D01*
X164502356Y-102186100D01*
X163783089Y-102186100D01*
X163800013Y-102154438D01*
X163832480Y-102047408D01*
X163843443Y-101936101D01*
X163843443Y-101086099D01*
X163832480Y-100974792D01*
X163800013Y-100867762D01*
X163783090Y-100836100D01*
X164502356Y-100836100D01*
X164503900Y-101242350D01*
X164583650Y-101322100D01*
X165333900Y-101322100D01*
X165333900Y-100596850D01*
X165254150Y-100517100D01*
X164822900Y-100515556D01*
X164760365Y-100521715D01*
X164700233Y-100539956D01*
X164644815Y-100569577D01*
X164596241Y-100609441D01*
X164556377Y-100658015D01*
X164526756Y-100713433D01*
X164508515Y-100773565D01*
X164502356Y-100836100D01*
X163783090Y-100836100D01*
X163747289Y-100769123D01*
X163676335Y-100682665D01*
X163589877Y-100611711D01*
X163491238Y-100558987D01*
X163384208Y-100526520D01*
X163272901Y-100515557D01*
X162606058Y-100515557D01*
X162580546Y-100507818D01*
X162485938Y-100498500D01*
X162485927Y-100498500D01*
X162454300Y-100495385D01*
X162422673Y-100498500D01*
X161631250Y-100498500D01*
X161589087Y-100463898D01*
X161497793Y-100415100D01*
X174875240Y-100415100D01*
X174791304Y-100483984D01*
G37*
G04 #@! TD.AperFunction*
D30*
X168547116Y-107245535D02*
X168565357Y-107305666D01*
X168594978Y-107361084D01*
X168634842Y-107409658D01*
X168683416Y-107449522D01*
X168738834Y-107479143D01*
X168798965Y-107497384D01*
X168861500Y-107503543D01*
X169902724Y-107503543D01*
X169835071Y-107604792D01*
X169777102Y-107744741D01*
X169747550Y-107893310D01*
X169747550Y-108044790D01*
X169777102Y-108193359D01*
X169835071Y-108333308D01*
X169883886Y-108406364D01*
X169848000Y-108442250D01*
X169848000Y-108967500D01*
X170348250Y-108967500D01*
X170428000Y-108887750D01*
X170429138Y-108735728D01*
X170440810Y-108738050D01*
X170467753Y-108738050D01*
X170448939Y-108800070D01*
X170438457Y-108906500D01*
X170438457Y-109406500D01*
X170448939Y-109512930D01*
X170479984Y-109615270D01*
X170530398Y-109709587D01*
X170546412Y-109729100D01*
X170412748Y-109729100D01*
X170423385Y-109694035D01*
X170429544Y-109631500D01*
X170428000Y-109425250D01*
X170348250Y-109345500D01*
X169848000Y-109345500D01*
X169848000Y-109365500D01*
X169470000Y-109365500D01*
X169470000Y-109345500D01*
X169450000Y-109345500D01*
X169450000Y-108967500D01*
X169470000Y-108967500D01*
X169470000Y-108442250D01*
X169390250Y-108362500D01*
X169209000Y-108360956D01*
X169146465Y-108367115D01*
X169086333Y-108385356D01*
X169030915Y-108414977D01*
X168982341Y-108454841D01*
X168942477Y-108503415D01*
X168912856Y-108558833D01*
X168894615Y-108618965D01*
X168888929Y-108676702D01*
X168843816Y-108592302D01*
X168779079Y-108513421D01*
X168700198Y-108448684D01*
X168610203Y-108400581D01*
X168512553Y-108370959D01*
X168411000Y-108360957D01*
X168184788Y-108360957D01*
X168184000Y-108360169D01*
X168184000Y-107914820D01*
X168198484Y-107900336D01*
X168277170Y-107782574D01*
X168331369Y-107651725D01*
X168359000Y-107512815D01*
X168359000Y-107371185D01*
X168331369Y-107232275D01*
X168319823Y-107204401D01*
X168543065Y-107204401D01*
X168547116Y-107245535D01*
G04 #@! TA.AperFunction,Conductor*
D31*
G36*
X168547116Y-107245535D02*
G01*
X168565357Y-107305666D01*
X168594978Y-107361084D01*
X168634842Y-107409658D01*
X168683416Y-107449522D01*
X168738834Y-107479143D01*
X168798965Y-107497384D01*
X168861500Y-107503543D01*
X169902724Y-107503543D01*
X169835071Y-107604792D01*
X169777102Y-107744741D01*
X169747550Y-107893310D01*
X169747550Y-108044790D01*
X169777102Y-108193359D01*
X169835071Y-108333308D01*
X169883886Y-108406364D01*
X169848000Y-108442250D01*
X169848000Y-108967500D01*
X170348250Y-108967500D01*
X170428000Y-108887750D01*
X170429138Y-108735728D01*
X170440810Y-108738050D01*
X170467753Y-108738050D01*
X170448939Y-108800070D01*
X170438457Y-108906500D01*
X170438457Y-109406500D01*
X170448939Y-109512930D01*
X170479984Y-109615270D01*
X170530398Y-109709587D01*
X170546412Y-109729100D01*
X170412748Y-109729100D01*
X170423385Y-109694035D01*
X170429544Y-109631500D01*
X170428000Y-109425250D01*
X170348250Y-109345500D01*
X169848000Y-109345500D01*
X169848000Y-109365500D01*
X169470000Y-109365500D01*
X169470000Y-109345500D01*
X169450000Y-109345500D01*
X169450000Y-108967500D01*
X169470000Y-108967500D01*
X169470000Y-108442250D01*
X169390250Y-108362500D01*
X169209000Y-108360956D01*
X169146465Y-108367115D01*
X169086333Y-108385356D01*
X169030915Y-108414977D01*
X168982341Y-108454841D01*
X168942477Y-108503415D01*
X168912856Y-108558833D01*
X168894615Y-108618965D01*
X168888929Y-108676702D01*
X168843816Y-108592302D01*
X168779079Y-108513421D01*
X168700198Y-108448684D01*
X168610203Y-108400581D01*
X168512553Y-108370959D01*
X168411000Y-108360957D01*
X168184788Y-108360957D01*
X168184000Y-108360169D01*
X168184000Y-107914820D01*
X168198484Y-107900336D01*
X168277170Y-107782574D01*
X168331369Y-107651725D01*
X168359000Y-107512815D01*
X168359000Y-107371185D01*
X168331369Y-107232275D01*
X168319823Y-107204401D01*
X168543065Y-107204401D01*
X168547116Y-107245535D01*
G37*
G04 #@! TD.AperFunction*
D30*
X153329784Y-103332598D02*
X153394521Y-103411479D01*
X153418601Y-103431241D01*
X153418601Y-103631079D01*
X153380584Y-103677402D01*
X153332481Y-103767397D01*
X153302859Y-103865047D01*
X153292857Y-103966600D01*
X153292857Y-104516600D01*
X153302859Y-104618153D01*
X153332481Y-104715803D01*
X153380584Y-104805798D01*
X153419401Y-104853095D01*
X153419401Y-105237811D01*
X153416526Y-105267000D01*
X153427995Y-105383444D01*
X153461960Y-105495413D01*
X153512094Y-105589205D01*
X153517118Y-105598605D01*
X153591347Y-105689054D01*
X153614015Y-105707657D01*
X153893657Y-105987299D01*
X153893657Y-106592801D01*
X153904620Y-106704108D01*
X153937087Y-106811138D01*
X153989811Y-106909777D01*
X154060765Y-106996235D01*
X154147223Y-107067189D01*
X154245862Y-107119913D01*
X154352892Y-107152380D01*
X154464199Y-107163343D01*
X154731064Y-107163343D01*
X154708552Y-107217691D01*
X154679000Y-107366260D01*
X154679000Y-107517740D01*
X154708552Y-107666309D01*
X154766521Y-107806258D01*
X154778242Y-107823800D01*
X154700198Y-107823800D01*
X154700198Y-107903548D01*
X154620450Y-107823800D01*
X154214200Y-107822256D01*
X154151665Y-107828415D01*
X154091533Y-107846656D01*
X154036115Y-107876277D01*
X153987541Y-107916141D01*
X153947677Y-107964715D01*
X153918056Y-108020133D01*
X153899815Y-108080265D01*
X153893656Y-108142800D01*
X153895200Y-108574050D01*
X153974950Y-108653800D01*
X154700200Y-108653800D01*
X154700200Y-108633800D01*
X155078200Y-108633800D01*
X155078200Y-108653800D01*
X155803450Y-108653800D01*
X155883200Y-108574050D01*
X155884744Y-108142800D01*
X155882912Y-108124200D01*
X156184719Y-108124200D01*
X156212935Y-108147356D01*
X156272450Y-108179168D01*
X156220733Y-108194856D01*
X156165315Y-108224477D01*
X156116741Y-108264341D01*
X156076877Y-108312915D01*
X156047256Y-108368333D01*
X156029015Y-108428465D01*
X156022856Y-108491000D01*
X156024400Y-108697250D01*
X156104150Y-108777000D01*
X156554400Y-108777000D01*
X156554400Y-108757000D01*
X156932400Y-108757000D01*
X156932400Y-108777000D01*
X157382650Y-108777000D01*
X157462400Y-108697250D01*
X157463944Y-108491000D01*
X157457785Y-108428465D01*
X157439544Y-108368333D01*
X157409923Y-108312915D01*
X157370059Y-108264341D01*
X157321485Y-108224477D01*
X157266067Y-108194856D01*
X157246757Y-108188998D01*
X157324665Y-108147356D01*
X157406388Y-108080288D01*
X157473456Y-107998565D01*
X157501334Y-107946408D01*
X157503415Y-107967535D01*
X157521656Y-108027667D01*
X157551277Y-108083085D01*
X157591141Y-108131659D01*
X157639715Y-108171523D01*
X157695133Y-108201144D01*
X157755265Y-108219385D01*
X157817800Y-108225544D01*
X157967362Y-108224424D01*
X157904202Y-108258184D01*
X157825321Y-108322921D01*
X157760584Y-108401802D01*
X157712481Y-108491797D01*
X157682859Y-108589447D01*
X157672857Y-108691000D01*
X157672857Y-109241000D01*
X157682859Y-109342553D01*
X157712481Y-109440203D01*
X157760584Y-109530198D01*
X157825321Y-109609079D01*
X157904202Y-109673816D01*
X157994197Y-109721919D01*
X158017869Y-109729100D01*
X157281117Y-109729100D01*
X157321485Y-109707523D01*
X157370059Y-109667659D01*
X157409923Y-109619085D01*
X157439544Y-109563667D01*
X157457785Y-109503535D01*
X157463944Y-109441000D01*
X157462400Y-109234750D01*
X157382650Y-109155000D01*
X156932400Y-109155000D01*
X156932400Y-109175000D01*
X156554400Y-109175000D01*
X156554400Y-109155000D01*
X156104150Y-109155000D01*
X156024400Y-109234750D01*
X156022856Y-109441000D01*
X156029015Y-109503535D01*
X156047256Y-109563667D01*
X156076877Y-109619085D01*
X156116741Y-109667659D01*
X156165315Y-109707523D01*
X156205683Y-109729100D01*
X155823981Y-109729100D01*
X155830723Y-109720885D01*
X155860344Y-109665467D01*
X155878585Y-109605335D01*
X155884744Y-109542800D01*
X155883200Y-109111550D01*
X155803450Y-109031800D01*
X155078200Y-109031800D01*
X155078200Y-109051800D01*
X154700200Y-109051800D01*
X154700200Y-109031800D01*
X153974950Y-109031800D01*
X153895200Y-109111550D01*
X153893656Y-109542800D01*
X153899815Y-109605335D01*
X153918056Y-109665467D01*
X153947677Y-109720885D01*
X153954419Y-109729100D01*
X148914430Y-109729100D01*
X148933321Y-109710209D01*
X149017479Y-109584258D01*
X149075448Y-109444309D01*
X149105000Y-109295740D01*
X149105000Y-109144260D01*
X149075448Y-108995691D01*
X149017479Y-108855742D01*
X148933321Y-108729791D01*
X148826209Y-108622679D01*
X148820019Y-108618543D01*
X149037250Y-108618543D01*
X149142461Y-108608181D01*
X149243628Y-108577492D01*
X149336865Y-108527656D01*
X149418588Y-108460588D01*
X149485656Y-108378865D01*
X149535492Y-108285628D01*
X149566181Y-108184461D01*
X149576543Y-108079250D01*
X149576543Y-107566750D01*
X149566181Y-107461539D01*
X149535492Y-107360372D01*
X149485656Y-107267135D01*
X149418588Y-107185412D01*
X149336865Y-107118344D01*
X149268671Y-107081894D01*
X149388050Y-107081000D01*
X149467800Y-107001250D01*
X149467800Y-106501000D01*
X149447800Y-106501000D01*
X149447800Y-106123000D01*
X149467800Y-106123000D01*
X149467800Y-105622750D01*
X149388050Y-105543000D01*
X149181800Y-105541456D01*
X149119265Y-105547615D01*
X149059133Y-105565856D01*
X149003715Y-105595477D01*
X148955141Y-105635341D01*
X148915277Y-105683915D01*
X148885656Y-105739333D01*
X148871712Y-105785299D01*
X148867541Y-105742947D01*
X148837919Y-105645297D01*
X148789816Y-105555302D01*
X148725079Y-105476421D01*
X148646198Y-105411684D01*
X148556203Y-105363581D01*
X148458553Y-105333959D01*
X148357000Y-105323957D01*
X147807000Y-105323957D01*
X147705447Y-105333959D01*
X147607797Y-105363581D01*
X147517802Y-105411684D01*
X147470505Y-105450500D01*
X147319217Y-105450500D01*
X147227058Y-105388921D01*
X147087109Y-105330952D01*
X146938540Y-105301400D01*
X146787060Y-105301400D01*
X146638491Y-105330952D01*
X146498542Y-105388921D01*
X146372591Y-105473079D01*
X146337543Y-105508127D01*
X146337543Y-105464500D01*
X146327541Y-105362947D01*
X146297919Y-105265297D01*
X146249816Y-105175302D01*
X146185079Y-105096421D01*
X146106198Y-105031684D01*
X146016203Y-104983581D01*
X145968669Y-104969162D01*
X147442941Y-104965878D01*
X147517802Y-105027316D01*
X147607797Y-105075419D01*
X147705447Y-105105041D01*
X147807000Y-105115043D01*
X148357000Y-105115043D01*
X148458553Y-105105041D01*
X148556203Y-105075419D01*
X148646198Y-105027316D01*
X148724537Y-104963024D01*
X148861257Y-104962719D01*
X148861257Y-104987000D01*
X148871739Y-105093430D01*
X148902784Y-105195770D01*
X148953198Y-105290087D01*
X149021043Y-105372757D01*
X149103713Y-105440602D01*
X149198030Y-105491016D01*
X149300370Y-105522061D01*
X149406800Y-105532543D01*
X149906800Y-105532543D01*
X150013230Y-105522061D01*
X150115570Y-105491016D01*
X150149589Y-105472832D01*
X150180400Y-105503643D01*
X150180400Y-105546243D01*
X150131800Y-105541456D01*
X149925550Y-105543000D01*
X149845800Y-105622750D01*
X149845800Y-106123000D01*
X149865800Y-106123000D01*
X149865800Y-106501000D01*
X149845800Y-106501000D01*
X149845800Y-107001250D01*
X149925550Y-107081000D01*
X149944732Y-107081144D01*
X149875135Y-107118344D01*
X149793412Y-107185412D01*
X149726344Y-107267135D01*
X149676508Y-107360372D01*
X149645819Y-107461539D01*
X149635457Y-107566750D01*
X149635457Y-108079250D01*
X149645819Y-108184461D01*
X149676508Y-108285628D01*
X149726344Y-108378865D01*
X149793412Y-108460588D01*
X149875135Y-108527656D01*
X149968372Y-108577492D01*
X150069539Y-108608181D01*
X150174750Y-108618543D01*
X150612250Y-108618543D01*
X150717461Y-108608181D01*
X150818628Y-108577492D01*
X150911865Y-108527656D01*
X150993588Y-108460588D01*
X151029360Y-108417000D01*
X151100819Y-108417000D01*
X151129999Y-108419874D01*
X151159179Y-108417000D01*
X151201257Y-108417000D01*
X151201257Y-108454601D01*
X151212220Y-108565908D01*
X151244687Y-108672938D01*
X151297411Y-108771577D01*
X151368365Y-108858035D01*
X151454823Y-108928989D01*
X151553462Y-108981713D01*
X151660492Y-109014180D01*
X151771799Y-109025143D01*
X152621801Y-109025143D01*
X152733108Y-109014180D01*
X152840138Y-108981713D01*
X152938777Y-108928989D01*
X153025235Y-108858035D01*
X153096189Y-108771577D01*
X153148913Y-108672938D01*
X153181380Y-108565908D01*
X153192343Y-108454601D01*
X153192343Y-107554599D01*
X153181380Y-107443292D01*
X153148913Y-107336262D01*
X153096189Y-107237623D01*
X153025235Y-107151165D01*
X152938777Y-107080211D01*
X152840138Y-107027487D01*
X152733108Y-106995020D01*
X152621801Y-106984057D01*
X151771799Y-106984057D01*
X151660492Y-106995020D01*
X151553462Y-107027487D01*
X151470000Y-107072099D01*
X151470000Y-106320042D01*
X151521800Y-106325144D01*
X151928050Y-106323600D01*
X152007800Y-106243850D01*
X152007800Y-105493600D01*
X152385800Y-105493600D01*
X152385800Y-106243850D01*
X152465550Y-106323600D01*
X152871800Y-106325144D01*
X152934335Y-106318985D01*
X152994467Y-106300744D01*
X153049885Y-106271123D01*
X153098459Y-106231259D01*
X153138323Y-106182685D01*
X153167944Y-106127267D01*
X153186185Y-106067135D01*
X153192344Y-106004600D01*
X153190800Y-105573350D01*
X153111050Y-105493600D01*
X152385800Y-105493600D01*
X152007800Y-105493600D01*
X151987800Y-105493600D01*
X151987800Y-105115600D01*
X152007800Y-105115600D01*
X152007800Y-104365350D01*
X152385800Y-104365350D01*
X152385800Y-105115600D01*
X153111050Y-105115600D01*
X153190800Y-105035850D01*
X153192344Y-104604600D01*
X153186185Y-104542065D01*
X153167944Y-104481933D01*
X153138323Y-104426515D01*
X153098459Y-104377941D01*
X153049885Y-104338077D01*
X152994467Y-104308456D01*
X152934335Y-104290215D01*
X152871800Y-104284056D01*
X152465550Y-104285600D01*
X152385800Y-104365350D01*
X152007800Y-104365350D01*
X151986973Y-104344523D01*
X152046153Y-104295955D01*
X152064760Y-104273282D01*
X152571000Y-103767043D01*
X152986500Y-103767043D01*
X153049035Y-103760884D01*
X153109166Y-103742643D01*
X153164584Y-103713022D01*
X153213158Y-103673158D01*
X153253022Y-103624584D01*
X153282643Y-103569166D01*
X153300884Y-103509035D01*
X153307043Y-103446500D01*
X153307043Y-103290052D01*
X153329784Y-103332598D01*
G04 #@! TA.AperFunction,Conductor*
D31*
G36*
X153329784Y-103332598D02*
G01*
X153394521Y-103411479D01*
X153418601Y-103431241D01*
X153418601Y-103631079D01*
X153380584Y-103677402D01*
X153332481Y-103767397D01*
X153302859Y-103865047D01*
X153292857Y-103966600D01*
X153292857Y-104516600D01*
X153302859Y-104618153D01*
X153332481Y-104715803D01*
X153380584Y-104805798D01*
X153419401Y-104853095D01*
X153419401Y-105237811D01*
X153416526Y-105267000D01*
X153427995Y-105383444D01*
X153461960Y-105495413D01*
X153512094Y-105589205D01*
X153517118Y-105598605D01*
X153591347Y-105689054D01*
X153614015Y-105707657D01*
X153893657Y-105987299D01*
X153893657Y-106592801D01*
X153904620Y-106704108D01*
X153937087Y-106811138D01*
X153989811Y-106909777D01*
X154060765Y-106996235D01*
X154147223Y-107067189D01*
X154245862Y-107119913D01*
X154352892Y-107152380D01*
X154464199Y-107163343D01*
X154731064Y-107163343D01*
X154708552Y-107217691D01*
X154679000Y-107366260D01*
X154679000Y-107517740D01*
X154708552Y-107666309D01*
X154766521Y-107806258D01*
X154778242Y-107823800D01*
X154700198Y-107823800D01*
X154700198Y-107903548D01*
X154620450Y-107823800D01*
X154214200Y-107822256D01*
X154151665Y-107828415D01*
X154091533Y-107846656D01*
X154036115Y-107876277D01*
X153987541Y-107916141D01*
X153947677Y-107964715D01*
X153918056Y-108020133D01*
X153899815Y-108080265D01*
X153893656Y-108142800D01*
X153895200Y-108574050D01*
X153974950Y-108653800D01*
X154700200Y-108653800D01*
X154700200Y-108633800D01*
X155078200Y-108633800D01*
X155078200Y-108653800D01*
X155803450Y-108653800D01*
X155883200Y-108574050D01*
X155884744Y-108142800D01*
X155882912Y-108124200D01*
X156184719Y-108124200D01*
X156212935Y-108147356D01*
X156272450Y-108179168D01*
X156220733Y-108194856D01*
X156165315Y-108224477D01*
X156116741Y-108264341D01*
X156076877Y-108312915D01*
X156047256Y-108368333D01*
X156029015Y-108428465D01*
X156022856Y-108491000D01*
X156024400Y-108697250D01*
X156104150Y-108777000D01*
X156554400Y-108777000D01*
X156554400Y-108757000D01*
X156932400Y-108757000D01*
X156932400Y-108777000D01*
X157382650Y-108777000D01*
X157462400Y-108697250D01*
X157463944Y-108491000D01*
X157457785Y-108428465D01*
X157439544Y-108368333D01*
X157409923Y-108312915D01*
X157370059Y-108264341D01*
X157321485Y-108224477D01*
X157266067Y-108194856D01*
X157246757Y-108188998D01*
X157324665Y-108147356D01*
X157406388Y-108080288D01*
X157473456Y-107998565D01*
X157501334Y-107946408D01*
X157503415Y-107967535D01*
X157521656Y-108027667D01*
X157551277Y-108083085D01*
X157591141Y-108131659D01*
X157639715Y-108171523D01*
X157695133Y-108201144D01*
X157755265Y-108219385D01*
X157817800Y-108225544D01*
X157967362Y-108224424D01*
X157904202Y-108258184D01*
X157825321Y-108322921D01*
X157760584Y-108401802D01*
X157712481Y-108491797D01*
X157682859Y-108589447D01*
X157672857Y-108691000D01*
X157672857Y-109241000D01*
X157682859Y-109342553D01*
X157712481Y-109440203D01*
X157760584Y-109530198D01*
X157825321Y-109609079D01*
X157904202Y-109673816D01*
X157994197Y-109721919D01*
X158017869Y-109729100D01*
X157281117Y-109729100D01*
X157321485Y-109707523D01*
X157370059Y-109667659D01*
X157409923Y-109619085D01*
X157439544Y-109563667D01*
X157457785Y-109503535D01*
X157463944Y-109441000D01*
X157462400Y-109234750D01*
X157382650Y-109155000D01*
X156932400Y-109155000D01*
X156932400Y-109175000D01*
X156554400Y-109175000D01*
X156554400Y-109155000D01*
X156104150Y-109155000D01*
X156024400Y-109234750D01*
X156022856Y-109441000D01*
X156029015Y-109503535D01*
X156047256Y-109563667D01*
X156076877Y-109619085D01*
X156116741Y-109667659D01*
X156165315Y-109707523D01*
X156205683Y-109729100D01*
X155823981Y-109729100D01*
X155830723Y-109720885D01*
X155860344Y-109665467D01*
X155878585Y-109605335D01*
X155884744Y-109542800D01*
X155883200Y-109111550D01*
X155803450Y-109031800D01*
X155078200Y-109031800D01*
X155078200Y-109051800D01*
X154700200Y-109051800D01*
X154700200Y-109031800D01*
X153974950Y-109031800D01*
X153895200Y-109111550D01*
X153893656Y-109542800D01*
X153899815Y-109605335D01*
X153918056Y-109665467D01*
X153947677Y-109720885D01*
X153954419Y-109729100D01*
X148914430Y-109729100D01*
X148933321Y-109710209D01*
X149017479Y-109584258D01*
X149075448Y-109444309D01*
X149105000Y-109295740D01*
X149105000Y-109144260D01*
X149075448Y-108995691D01*
X149017479Y-108855742D01*
X148933321Y-108729791D01*
X148826209Y-108622679D01*
X148820019Y-108618543D01*
X149037250Y-108618543D01*
X149142461Y-108608181D01*
X149243628Y-108577492D01*
X149336865Y-108527656D01*
X149418588Y-108460588D01*
X149485656Y-108378865D01*
X149535492Y-108285628D01*
X149566181Y-108184461D01*
X149576543Y-108079250D01*
X149576543Y-107566750D01*
X149566181Y-107461539D01*
X149535492Y-107360372D01*
X149485656Y-107267135D01*
X149418588Y-107185412D01*
X149336865Y-107118344D01*
X149268671Y-107081894D01*
X149388050Y-107081000D01*
X149467800Y-107001250D01*
X149467800Y-106501000D01*
X149447800Y-106501000D01*
X149447800Y-106123000D01*
X149467800Y-106123000D01*
X149467800Y-105622750D01*
X149388050Y-105543000D01*
X149181800Y-105541456D01*
X149119265Y-105547615D01*
X149059133Y-105565856D01*
X149003715Y-105595477D01*
X148955141Y-105635341D01*
X148915277Y-105683915D01*
X148885656Y-105739333D01*
X148871712Y-105785299D01*
X148867541Y-105742947D01*
X148837919Y-105645297D01*
X148789816Y-105555302D01*
X148725079Y-105476421D01*
X148646198Y-105411684D01*
X148556203Y-105363581D01*
X148458553Y-105333959D01*
X148357000Y-105323957D01*
X147807000Y-105323957D01*
X147705447Y-105333959D01*
X147607797Y-105363581D01*
X147517802Y-105411684D01*
X147470505Y-105450500D01*
X147319217Y-105450500D01*
X147227058Y-105388921D01*
X147087109Y-105330952D01*
X146938540Y-105301400D01*
X146787060Y-105301400D01*
X146638491Y-105330952D01*
X146498542Y-105388921D01*
X146372591Y-105473079D01*
X146337543Y-105508127D01*
X146337543Y-105464500D01*
X146327541Y-105362947D01*
X146297919Y-105265297D01*
X146249816Y-105175302D01*
X146185079Y-105096421D01*
X146106198Y-105031684D01*
X146016203Y-104983581D01*
X145968669Y-104969162D01*
X147442941Y-104965878D01*
X147517802Y-105027316D01*
X147607797Y-105075419D01*
X147705447Y-105105041D01*
X147807000Y-105115043D01*
X148357000Y-105115043D01*
X148458553Y-105105041D01*
X148556203Y-105075419D01*
X148646198Y-105027316D01*
X148724537Y-104963024D01*
X148861257Y-104962719D01*
X148861257Y-104987000D01*
X148871739Y-105093430D01*
X148902784Y-105195770D01*
X148953198Y-105290087D01*
X149021043Y-105372757D01*
X149103713Y-105440602D01*
X149198030Y-105491016D01*
X149300370Y-105522061D01*
X149406800Y-105532543D01*
X149906800Y-105532543D01*
X150013230Y-105522061D01*
X150115570Y-105491016D01*
X150149589Y-105472832D01*
X150180400Y-105503643D01*
X150180400Y-105546243D01*
X150131800Y-105541456D01*
X149925550Y-105543000D01*
X149845800Y-105622750D01*
X149845800Y-106123000D01*
X149865800Y-106123000D01*
X149865800Y-106501000D01*
X149845800Y-106501000D01*
X149845800Y-107001250D01*
X149925550Y-107081000D01*
X149944732Y-107081144D01*
X149875135Y-107118344D01*
X149793412Y-107185412D01*
X149726344Y-107267135D01*
X149676508Y-107360372D01*
X149645819Y-107461539D01*
X149635457Y-107566750D01*
X149635457Y-108079250D01*
X149645819Y-108184461D01*
X149676508Y-108285628D01*
X149726344Y-108378865D01*
X149793412Y-108460588D01*
X149875135Y-108527656D01*
X149968372Y-108577492D01*
X150069539Y-108608181D01*
X150174750Y-108618543D01*
X150612250Y-108618543D01*
X150717461Y-108608181D01*
X150818628Y-108577492D01*
X150911865Y-108527656D01*
X150993588Y-108460588D01*
X151029360Y-108417000D01*
X151100819Y-108417000D01*
X151129999Y-108419874D01*
X151159179Y-108417000D01*
X151201257Y-108417000D01*
X151201257Y-108454601D01*
X151212220Y-108565908D01*
X151244687Y-108672938D01*
X151297411Y-108771577D01*
X151368365Y-108858035D01*
X151454823Y-108928989D01*
X151553462Y-108981713D01*
X151660492Y-109014180D01*
X151771799Y-109025143D01*
X152621801Y-109025143D01*
X152733108Y-109014180D01*
X152840138Y-108981713D01*
X152938777Y-108928989D01*
X153025235Y-108858035D01*
X153096189Y-108771577D01*
X153148913Y-108672938D01*
X153181380Y-108565908D01*
X153192343Y-108454601D01*
X153192343Y-107554599D01*
X153181380Y-107443292D01*
X153148913Y-107336262D01*
X153096189Y-107237623D01*
X153025235Y-107151165D01*
X152938777Y-107080211D01*
X152840138Y-107027487D01*
X152733108Y-106995020D01*
X152621801Y-106984057D01*
X151771799Y-106984057D01*
X151660492Y-106995020D01*
X151553462Y-107027487D01*
X151470000Y-107072099D01*
X151470000Y-106320042D01*
X151521800Y-106325144D01*
X151928050Y-106323600D01*
X152007800Y-106243850D01*
X152007800Y-105493600D01*
X152385800Y-105493600D01*
X152385800Y-106243850D01*
X152465550Y-106323600D01*
X152871800Y-106325144D01*
X152934335Y-106318985D01*
X152994467Y-106300744D01*
X153049885Y-106271123D01*
X153098459Y-106231259D01*
X153138323Y-106182685D01*
X153167944Y-106127267D01*
X153186185Y-106067135D01*
X153192344Y-106004600D01*
X153190800Y-105573350D01*
X153111050Y-105493600D01*
X152385800Y-105493600D01*
X152007800Y-105493600D01*
X151987800Y-105493600D01*
X151987800Y-105115600D01*
X152007800Y-105115600D01*
X152007800Y-104365350D01*
X152385800Y-104365350D01*
X152385800Y-105115600D01*
X153111050Y-105115600D01*
X153190800Y-105035850D01*
X153192344Y-104604600D01*
X153186185Y-104542065D01*
X153167944Y-104481933D01*
X153138323Y-104426515D01*
X153098459Y-104377941D01*
X153049885Y-104338077D01*
X152994467Y-104308456D01*
X152934335Y-104290215D01*
X152871800Y-104284056D01*
X152465550Y-104285600D01*
X152385800Y-104365350D01*
X152007800Y-104365350D01*
X151986973Y-104344523D01*
X152046153Y-104295955D01*
X152064760Y-104273282D01*
X152571000Y-103767043D01*
X152986500Y-103767043D01*
X153049035Y-103760884D01*
X153109166Y-103742643D01*
X153164584Y-103713022D01*
X153213158Y-103673158D01*
X153253022Y-103624584D01*
X153282643Y-103569166D01*
X153300884Y-103509035D01*
X153307043Y-103446500D01*
X153307043Y-103290052D01*
X153329784Y-103332598D01*
G37*
G04 #@! TD.AperFunction*
D30*
X186494552Y-103255105D02*
X186514720Y-103279680D01*
X186612782Y-103360157D01*
X186724659Y-103419957D01*
X186846054Y-103456782D01*
X186940662Y-103466100D01*
X186940665Y-103466100D01*
X186972300Y-103469216D01*
X187003935Y-103466100D01*
X187402057Y-103466100D01*
X187408342Y-103473758D01*
X187456916Y-103513622D01*
X187512334Y-103543243D01*
X187572465Y-103561484D01*
X187635000Y-103567643D01*
X190285000Y-103567643D01*
X190347535Y-103561484D01*
X190407666Y-103543243D01*
X190463084Y-103513622D01*
X190511658Y-103473758D01*
X190517943Y-103466100D01*
X190852057Y-103466100D01*
X190858342Y-103473758D01*
X190906916Y-103513622D01*
X190962334Y-103543243D01*
X191022465Y-103561484D01*
X191085000Y-103567643D01*
X194632000Y-103567643D01*
X194632001Y-103576559D01*
X193128750Y-103578100D01*
X193049000Y-103657850D01*
X193049000Y-104133100D01*
X193069000Y-104133100D01*
X193069000Y-104511100D01*
X193049000Y-104511100D01*
X193049000Y-104986350D01*
X193128750Y-105066100D01*
X194282676Y-105067283D01*
X194273402Y-105076557D01*
X191085000Y-105076557D01*
X191022465Y-105082716D01*
X190962334Y-105100957D01*
X190906916Y-105130578D01*
X190858342Y-105170442D01*
X190852057Y-105178100D01*
X190517943Y-105178100D01*
X190511658Y-105170442D01*
X190463084Y-105130578D01*
X190407666Y-105100957D01*
X190347535Y-105082716D01*
X190285000Y-105076557D01*
X187635000Y-105076557D01*
X187572465Y-105082716D01*
X187512334Y-105100957D01*
X187456916Y-105130578D01*
X187408342Y-105170442D01*
X187368478Y-105219016D01*
X187338857Y-105274434D01*
X187320616Y-105334565D01*
X187314457Y-105397100D01*
X187314457Y-105460345D01*
X187312621Y-105462582D01*
X187252821Y-105574459D01*
X187215996Y-105695854D01*
X187203562Y-105822100D01*
X187215996Y-105948346D01*
X187252821Y-106069741D01*
X187312621Y-106181618D01*
X187314457Y-106183855D01*
X187314457Y-106247100D01*
X187320616Y-106309635D01*
X187338857Y-106369766D01*
X187368478Y-106425184D01*
X187408342Y-106473758D01*
X187456916Y-106513622D01*
X187512334Y-106543243D01*
X187572465Y-106561484D01*
X187635000Y-106567643D01*
X190285000Y-106567643D01*
X190347535Y-106561484D01*
X190407666Y-106543243D01*
X190463084Y-106513622D01*
X190511658Y-106473758D01*
X190517943Y-106466100D01*
X190852057Y-106466100D01*
X190858342Y-106473758D01*
X190906916Y-106513622D01*
X190962334Y-106543243D01*
X191022465Y-106561484D01*
X191085000Y-106567643D01*
X194635000Y-106567643D01*
X194697535Y-106561484D01*
X194757666Y-106543243D01*
X194813084Y-106513622D01*
X194861658Y-106473758D01*
X194901522Y-106425184D01*
X194927390Y-106376788D01*
X195002428Y-106315206D01*
X195024162Y-106288723D01*
X195792628Y-105520258D01*
X195819106Y-105498528D01*
X195852082Y-105458346D01*
X195935179Y-105582709D01*
X196042291Y-105689821D01*
X196168242Y-105773979D01*
X196308191Y-105831948D01*
X196456760Y-105861500D01*
X196608240Y-105861500D01*
X196756809Y-105831948D01*
X196896758Y-105773979D01*
X196952849Y-105736500D01*
X198231582Y-105736500D01*
X198249257Y-105794766D01*
X198278878Y-105850184D01*
X198318742Y-105898758D01*
X198367316Y-105938622D01*
X198422734Y-105968243D01*
X198482865Y-105986484D01*
X198545400Y-105992643D01*
X203364000Y-105992643D01*
X203364000Y-106721682D01*
X201314150Y-106723100D01*
X201234400Y-106802850D01*
X201234400Y-107653100D01*
X201254400Y-107653100D01*
X201254400Y-108031100D01*
X201234400Y-108031100D01*
X201234400Y-108881350D01*
X201314150Y-108961100D01*
X203364000Y-108962518D01*
X203364000Y-109729100D01*
X172902628Y-109729100D01*
X172956979Y-109647758D01*
X173014948Y-109507809D01*
X173044500Y-109359240D01*
X173044500Y-109207760D01*
X173025859Y-109114043D01*
X174132001Y-109114043D01*
X174243308Y-109103080D01*
X174350338Y-109070613D01*
X174350549Y-109070500D01*
X174843956Y-109070500D01*
X174850115Y-109133035D01*
X174868356Y-109193167D01*
X174897977Y-109248585D01*
X174937841Y-109297159D01*
X174986415Y-109337023D01*
X175041833Y-109366644D01*
X175101965Y-109384885D01*
X175164500Y-109391044D01*
X176070750Y-109389500D01*
X176150500Y-109309750D01*
X176150500Y-108597000D01*
X176528500Y-108597000D01*
X176528500Y-109309750D01*
X176608250Y-109389500D01*
X177514500Y-109391044D01*
X177577035Y-109384885D01*
X177637167Y-109366644D01*
X177692585Y-109337023D01*
X177741159Y-109297159D01*
X177781023Y-109248585D01*
X177810644Y-109193167D01*
X177828885Y-109133035D01*
X177835044Y-109070500D01*
X177833500Y-108676750D01*
X177798850Y-108642100D01*
X198224856Y-108642100D01*
X198231015Y-108704635D01*
X198249256Y-108764767D01*
X198278877Y-108820185D01*
X198318741Y-108868759D01*
X198367315Y-108908623D01*
X198422733Y-108938244D01*
X198482865Y-108956485D01*
X198545400Y-108962644D01*
X200776650Y-108961100D01*
X200856400Y-108881350D01*
X200856400Y-108031100D01*
X198306150Y-108031100D01*
X198226400Y-108110850D01*
X198224856Y-108642100D01*
X177798850Y-108642100D01*
X177753750Y-108597000D01*
X176528500Y-108597000D01*
X176150500Y-108597000D01*
X174925250Y-108597000D01*
X174845500Y-108676750D01*
X174843956Y-109070500D01*
X174350549Y-109070500D01*
X174448977Y-109017889D01*
X174535435Y-108946935D01*
X174606389Y-108860477D01*
X174659113Y-108761838D01*
X174691580Y-108654808D01*
X174702543Y-108543501D01*
X174702543Y-107893499D01*
X174691580Y-107782192D01*
X174659113Y-107675162D01*
X174634000Y-107628179D01*
X174634000Y-107578000D01*
X174892319Y-107578000D01*
X174868356Y-107622833D01*
X174850115Y-107682965D01*
X174843956Y-107745500D01*
X174845500Y-108139250D01*
X174925250Y-108219000D01*
X176150500Y-108219000D01*
X176150500Y-108199000D01*
X176528500Y-108199000D01*
X176528500Y-108219000D01*
X177753750Y-108219000D01*
X177833500Y-108139250D01*
X177835044Y-107745500D01*
X177828885Y-107682965D01*
X177810644Y-107622833D01*
X177786681Y-107578000D01*
X177787247Y-107578000D01*
X178191757Y-107982511D01*
X178211921Y-108007081D01*
X178236491Y-108027245D01*
X178236495Y-108027249D01*
X178309982Y-108087558D01*
X178406691Y-108139250D01*
X178421860Y-108147358D01*
X178543255Y-108184183D01*
X178637863Y-108193501D01*
X178637873Y-108193501D01*
X178669501Y-108196616D01*
X178701128Y-108193501D01*
X186042872Y-108193501D01*
X186074499Y-108196616D01*
X186106126Y-108193501D01*
X186106137Y-108193501D01*
X186200745Y-108184183D01*
X186322140Y-108147358D01*
X186434017Y-108087558D01*
X186532079Y-108007081D01*
X186552247Y-107982506D01*
X186568653Y-107966100D01*
X187402057Y-107966100D01*
X187408342Y-107973758D01*
X187456916Y-108013622D01*
X187512334Y-108043243D01*
X187572465Y-108061484D01*
X187635000Y-108067643D01*
X190285000Y-108067643D01*
X190347535Y-108061484D01*
X190407666Y-108043243D01*
X190463084Y-108013622D01*
X190511658Y-107973758D01*
X190517943Y-107966100D01*
X190852057Y-107966100D01*
X190858342Y-107973758D01*
X190906916Y-108013622D01*
X190962334Y-108043243D01*
X191022465Y-108061484D01*
X191085000Y-108067643D01*
X194635000Y-108067643D01*
X194697535Y-108061484D01*
X194757666Y-108043243D01*
X194813084Y-108013622D01*
X194861658Y-107973758D01*
X194901522Y-107925184D01*
X194931143Y-107869766D01*
X194949384Y-107809635D01*
X194955543Y-107747100D01*
X194955543Y-107042100D01*
X198224856Y-107042100D01*
X198226400Y-107573350D01*
X198306150Y-107653100D01*
X200856400Y-107653100D01*
X200856400Y-106802850D01*
X200776650Y-106723100D01*
X198545400Y-106721556D01*
X198482865Y-106727715D01*
X198422733Y-106745956D01*
X198367315Y-106775577D01*
X198318741Y-106815441D01*
X198278877Y-106864015D01*
X198249256Y-106919433D01*
X198231015Y-106979565D01*
X198224856Y-107042100D01*
X194955543Y-107042100D01*
X194955543Y-106897100D01*
X194949384Y-106834565D01*
X194931143Y-106774434D01*
X194901522Y-106719016D01*
X194861658Y-106670442D01*
X194813084Y-106630578D01*
X194757666Y-106600957D01*
X194697535Y-106582716D01*
X194635000Y-106576557D01*
X191085000Y-106576557D01*
X191022465Y-106582716D01*
X190962334Y-106600957D01*
X190906916Y-106630578D01*
X190858342Y-106670442D01*
X190852057Y-106678100D01*
X190517943Y-106678100D01*
X190511658Y-106670442D01*
X190463084Y-106630578D01*
X190407666Y-106600957D01*
X190347535Y-106582716D01*
X190285000Y-106576557D01*
X187635000Y-106576557D01*
X187572465Y-106582716D01*
X187512334Y-106600957D01*
X187456916Y-106630578D01*
X187408342Y-106670442D01*
X187402057Y-106678100D01*
X186333535Y-106678100D01*
X186301900Y-106674984D01*
X186270265Y-106678100D01*
X186270262Y-106678100D01*
X186175654Y-106687418D01*
X186054259Y-106724243D01*
X185942382Y-106784043D01*
X185844320Y-106864520D01*
X185824152Y-106889095D01*
X185807746Y-106905501D01*
X178936255Y-106905501D01*
X178705131Y-106674377D01*
X178769136Y-106631610D01*
X178876248Y-106524498D01*
X178960406Y-106398547D01*
X179018375Y-106258598D01*
X179047927Y-106110029D01*
X179047927Y-105958549D01*
X179018375Y-105809980D01*
X178960406Y-105670031D01*
X178922927Y-105613940D01*
X178922927Y-105511372D01*
X179164771Y-105269528D01*
X179687199Y-104747100D01*
X187314456Y-104747100D01*
X187320615Y-104809635D01*
X187338856Y-104869767D01*
X187368477Y-104925185D01*
X187408341Y-104973759D01*
X187456915Y-105013623D01*
X187512333Y-105043244D01*
X187572465Y-105061485D01*
X187635000Y-105067644D01*
X188691250Y-105066100D01*
X188771000Y-104986350D01*
X188771000Y-104511100D01*
X189149000Y-104511100D01*
X189149000Y-104986350D01*
X189228750Y-105066100D01*
X190285000Y-105067644D01*
X190347535Y-105061485D01*
X190407667Y-105043244D01*
X190463085Y-105013623D01*
X190511659Y-104973759D01*
X190551523Y-104925185D01*
X190581144Y-104869767D01*
X190599385Y-104809635D01*
X190605544Y-104747100D01*
X190764456Y-104747100D01*
X190770615Y-104809635D01*
X190788856Y-104869767D01*
X190818477Y-104925185D01*
X190858341Y-104973759D01*
X190906915Y-105013623D01*
X190962333Y-105043244D01*
X191022465Y-105061485D01*
X191085000Y-105067644D01*
X192591250Y-105066100D01*
X192671000Y-104986350D01*
X192671000Y-104511100D01*
X190845750Y-104511100D01*
X190766000Y-104590850D01*
X190764456Y-104747100D01*
X190605544Y-104747100D01*
X190604000Y-104590850D01*
X190524250Y-104511100D01*
X189149000Y-104511100D01*
X188771000Y-104511100D01*
X187395750Y-104511100D01*
X187316000Y-104590850D01*
X187314456Y-104747100D01*
X179687199Y-104747100D01*
X180537199Y-103897100D01*
X187314456Y-103897100D01*
X187316000Y-104053350D01*
X187395750Y-104133100D01*
X188771000Y-104133100D01*
X188771000Y-103657850D01*
X189149000Y-103657850D01*
X189149000Y-104133100D01*
X190524250Y-104133100D01*
X190604000Y-104053350D01*
X190605544Y-103897100D01*
X190764456Y-103897100D01*
X190766000Y-104053350D01*
X190845750Y-104133100D01*
X192671000Y-104133100D01*
X192671000Y-103657850D01*
X192591250Y-103578100D01*
X191085000Y-103576556D01*
X191022465Y-103582715D01*
X190962333Y-103600956D01*
X190906915Y-103630577D01*
X190858341Y-103670441D01*
X190818477Y-103719015D01*
X190788856Y-103774433D01*
X190770615Y-103834565D01*
X190764456Y-103897100D01*
X190605544Y-103897100D01*
X190599385Y-103834565D01*
X190581144Y-103774433D01*
X190551523Y-103719015D01*
X190511659Y-103670441D01*
X190463085Y-103630577D01*
X190407667Y-103600956D01*
X190347535Y-103582715D01*
X190285000Y-103576556D01*
X189228750Y-103578100D01*
X189149000Y-103657850D01*
X188771000Y-103657850D01*
X188691250Y-103578100D01*
X187635000Y-103576556D01*
X187572465Y-103582715D01*
X187512333Y-103600956D01*
X187456915Y-103630577D01*
X187408341Y-103670441D01*
X187368477Y-103719015D01*
X187338856Y-103774433D01*
X187320615Y-103834565D01*
X187314456Y-103897100D01*
X180537199Y-103897100D01*
X181195601Y-103238699D01*
X186478146Y-103238699D01*
X186494552Y-103255105D01*
G04 #@! TA.AperFunction,Conductor*
D31*
G36*
X186494552Y-103255105D02*
G01*
X186514720Y-103279680D01*
X186612782Y-103360157D01*
X186724659Y-103419957D01*
X186846054Y-103456782D01*
X186940662Y-103466100D01*
X186940665Y-103466100D01*
X186972300Y-103469216D01*
X187003935Y-103466100D01*
X187402057Y-103466100D01*
X187408342Y-103473758D01*
X187456916Y-103513622D01*
X187512334Y-103543243D01*
X187572465Y-103561484D01*
X187635000Y-103567643D01*
X190285000Y-103567643D01*
X190347535Y-103561484D01*
X190407666Y-103543243D01*
X190463084Y-103513622D01*
X190511658Y-103473758D01*
X190517943Y-103466100D01*
X190852057Y-103466100D01*
X190858342Y-103473758D01*
X190906916Y-103513622D01*
X190962334Y-103543243D01*
X191022465Y-103561484D01*
X191085000Y-103567643D01*
X194632000Y-103567643D01*
X194632001Y-103576559D01*
X193128750Y-103578100D01*
X193049000Y-103657850D01*
X193049000Y-104133100D01*
X193069000Y-104133100D01*
X193069000Y-104511100D01*
X193049000Y-104511100D01*
X193049000Y-104986350D01*
X193128750Y-105066100D01*
X194282676Y-105067283D01*
X194273402Y-105076557D01*
X191085000Y-105076557D01*
X191022465Y-105082716D01*
X190962334Y-105100957D01*
X190906916Y-105130578D01*
X190858342Y-105170442D01*
X190852057Y-105178100D01*
X190517943Y-105178100D01*
X190511658Y-105170442D01*
X190463084Y-105130578D01*
X190407666Y-105100957D01*
X190347535Y-105082716D01*
X190285000Y-105076557D01*
X187635000Y-105076557D01*
X187572465Y-105082716D01*
X187512334Y-105100957D01*
X187456916Y-105130578D01*
X187408342Y-105170442D01*
X187368478Y-105219016D01*
X187338857Y-105274434D01*
X187320616Y-105334565D01*
X187314457Y-105397100D01*
X187314457Y-105460345D01*
X187312621Y-105462582D01*
X187252821Y-105574459D01*
X187215996Y-105695854D01*
X187203562Y-105822100D01*
X187215996Y-105948346D01*
X187252821Y-106069741D01*
X187312621Y-106181618D01*
X187314457Y-106183855D01*
X187314457Y-106247100D01*
X187320616Y-106309635D01*
X187338857Y-106369766D01*
X187368478Y-106425184D01*
X187408342Y-106473758D01*
X187456916Y-106513622D01*
X187512334Y-106543243D01*
X187572465Y-106561484D01*
X187635000Y-106567643D01*
X190285000Y-106567643D01*
X190347535Y-106561484D01*
X190407666Y-106543243D01*
X190463084Y-106513622D01*
X190511658Y-106473758D01*
X190517943Y-106466100D01*
X190852057Y-106466100D01*
X190858342Y-106473758D01*
X190906916Y-106513622D01*
X190962334Y-106543243D01*
X191022465Y-106561484D01*
X191085000Y-106567643D01*
X194635000Y-106567643D01*
X194697535Y-106561484D01*
X194757666Y-106543243D01*
X194813084Y-106513622D01*
X194861658Y-106473758D01*
X194901522Y-106425184D01*
X194927390Y-106376788D01*
X195002428Y-106315206D01*
X195024162Y-106288723D01*
X195792628Y-105520258D01*
X195819106Y-105498528D01*
X195852082Y-105458346D01*
X195935179Y-105582709D01*
X196042291Y-105689821D01*
X196168242Y-105773979D01*
X196308191Y-105831948D01*
X196456760Y-105861500D01*
X196608240Y-105861500D01*
X196756809Y-105831948D01*
X196896758Y-105773979D01*
X196952849Y-105736500D01*
X198231582Y-105736500D01*
X198249257Y-105794766D01*
X198278878Y-105850184D01*
X198318742Y-105898758D01*
X198367316Y-105938622D01*
X198422734Y-105968243D01*
X198482865Y-105986484D01*
X198545400Y-105992643D01*
X203364000Y-105992643D01*
X203364000Y-106721682D01*
X201314150Y-106723100D01*
X201234400Y-106802850D01*
X201234400Y-107653100D01*
X201254400Y-107653100D01*
X201254400Y-108031100D01*
X201234400Y-108031100D01*
X201234400Y-108881350D01*
X201314150Y-108961100D01*
X203364000Y-108962518D01*
X203364000Y-109729100D01*
X172902628Y-109729100D01*
X172956979Y-109647758D01*
X173014948Y-109507809D01*
X173044500Y-109359240D01*
X173044500Y-109207760D01*
X173025859Y-109114043D01*
X174132001Y-109114043D01*
X174243308Y-109103080D01*
X174350338Y-109070613D01*
X174350549Y-109070500D01*
X174843956Y-109070500D01*
X174850115Y-109133035D01*
X174868356Y-109193167D01*
X174897977Y-109248585D01*
X174937841Y-109297159D01*
X174986415Y-109337023D01*
X175041833Y-109366644D01*
X175101965Y-109384885D01*
X175164500Y-109391044D01*
X176070750Y-109389500D01*
X176150500Y-109309750D01*
X176150500Y-108597000D01*
X176528500Y-108597000D01*
X176528500Y-109309750D01*
X176608250Y-109389500D01*
X177514500Y-109391044D01*
X177577035Y-109384885D01*
X177637167Y-109366644D01*
X177692585Y-109337023D01*
X177741159Y-109297159D01*
X177781023Y-109248585D01*
X177810644Y-109193167D01*
X177828885Y-109133035D01*
X177835044Y-109070500D01*
X177833500Y-108676750D01*
X177798850Y-108642100D01*
X198224856Y-108642100D01*
X198231015Y-108704635D01*
X198249256Y-108764767D01*
X198278877Y-108820185D01*
X198318741Y-108868759D01*
X198367315Y-108908623D01*
X198422733Y-108938244D01*
X198482865Y-108956485D01*
X198545400Y-108962644D01*
X200776650Y-108961100D01*
X200856400Y-108881350D01*
X200856400Y-108031100D01*
X198306150Y-108031100D01*
X198226400Y-108110850D01*
X198224856Y-108642100D01*
X177798850Y-108642100D01*
X177753750Y-108597000D01*
X176528500Y-108597000D01*
X176150500Y-108597000D01*
X174925250Y-108597000D01*
X174845500Y-108676750D01*
X174843956Y-109070500D01*
X174350549Y-109070500D01*
X174448977Y-109017889D01*
X174535435Y-108946935D01*
X174606389Y-108860477D01*
X174659113Y-108761838D01*
X174691580Y-108654808D01*
X174702543Y-108543501D01*
X174702543Y-107893499D01*
X174691580Y-107782192D01*
X174659113Y-107675162D01*
X174634000Y-107628179D01*
X174634000Y-107578000D01*
X174892319Y-107578000D01*
X174868356Y-107622833D01*
X174850115Y-107682965D01*
X174843956Y-107745500D01*
X174845500Y-108139250D01*
X174925250Y-108219000D01*
X176150500Y-108219000D01*
X176150500Y-108199000D01*
X176528500Y-108199000D01*
X176528500Y-108219000D01*
X177753750Y-108219000D01*
X177833500Y-108139250D01*
X177835044Y-107745500D01*
X177828885Y-107682965D01*
X177810644Y-107622833D01*
X177786681Y-107578000D01*
X177787247Y-107578000D01*
X178191757Y-107982511D01*
X178211921Y-108007081D01*
X178236491Y-108027245D01*
X178236495Y-108027249D01*
X178309982Y-108087558D01*
X178406691Y-108139250D01*
X178421860Y-108147358D01*
X178543255Y-108184183D01*
X178637863Y-108193501D01*
X178637873Y-108193501D01*
X178669501Y-108196616D01*
X178701128Y-108193501D01*
X186042872Y-108193501D01*
X186074499Y-108196616D01*
X186106126Y-108193501D01*
X186106137Y-108193501D01*
X186200745Y-108184183D01*
X186322140Y-108147358D01*
X186434017Y-108087558D01*
X186532079Y-108007081D01*
X186552247Y-107982506D01*
X186568653Y-107966100D01*
X187402057Y-107966100D01*
X187408342Y-107973758D01*
X187456916Y-108013622D01*
X187512334Y-108043243D01*
X187572465Y-108061484D01*
X187635000Y-108067643D01*
X190285000Y-108067643D01*
X190347535Y-108061484D01*
X190407666Y-108043243D01*
X190463084Y-108013622D01*
X190511658Y-107973758D01*
X190517943Y-107966100D01*
X190852057Y-107966100D01*
X190858342Y-107973758D01*
X190906916Y-108013622D01*
X190962334Y-108043243D01*
X191022465Y-108061484D01*
X191085000Y-108067643D01*
X194635000Y-108067643D01*
X194697535Y-108061484D01*
X194757666Y-108043243D01*
X194813084Y-108013622D01*
X194861658Y-107973758D01*
X194901522Y-107925184D01*
X194931143Y-107869766D01*
X194949384Y-107809635D01*
X194955543Y-107747100D01*
X194955543Y-107042100D01*
X198224856Y-107042100D01*
X198226400Y-107573350D01*
X198306150Y-107653100D01*
X200856400Y-107653100D01*
X200856400Y-106802850D01*
X200776650Y-106723100D01*
X198545400Y-106721556D01*
X198482865Y-106727715D01*
X198422733Y-106745956D01*
X198367315Y-106775577D01*
X198318741Y-106815441D01*
X198278877Y-106864015D01*
X198249256Y-106919433D01*
X198231015Y-106979565D01*
X198224856Y-107042100D01*
X194955543Y-107042100D01*
X194955543Y-106897100D01*
X194949384Y-106834565D01*
X194931143Y-106774434D01*
X194901522Y-106719016D01*
X194861658Y-106670442D01*
X194813084Y-106630578D01*
X194757666Y-106600957D01*
X194697535Y-106582716D01*
X194635000Y-106576557D01*
X191085000Y-106576557D01*
X191022465Y-106582716D01*
X190962334Y-106600957D01*
X190906916Y-106630578D01*
X190858342Y-106670442D01*
X190852057Y-106678100D01*
X190517943Y-106678100D01*
X190511658Y-106670442D01*
X190463084Y-106630578D01*
X190407666Y-106600957D01*
X190347535Y-106582716D01*
X190285000Y-106576557D01*
X187635000Y-106576557D01*
X187572465Y-106582716D01*
X187512334Y-106600957D01*
X187456916Y-106630578D01*
X187408342Y-106670442D01*
X187402057Y-106678100D01*
X186333535Y-106678100D01*
X186301900Y-106674984D01*
X186270265Y-106678100D01*
X186270262Y-106678100D01*
X186175654Y-106687418D01*
X186054259Y-106724243D01*
X185942382Y-106784043D01*
X185844320Y-106864520D01*
X185824152Y-106889095D01*
X185807746Y-106905501D01*
X178936255Y-106905501D01*
X178705131Y-106674377D01*
X178769136Y-106631610D01*
X178876248Y-106524498D01*
X178960406Y-106398547D01*
X179018375Y-106258598D01*
X179047927Y-106110029D01*
X179047927Y-105958549D01*
X179018375Y-105809980D01*
X178960406Y-105670031D01*
X178922927Y-105613940D01*
X178922927Y-105511372D01*
X179164771Y-105269528D01*
X179687199Y-104747100D01*
X187314456Y-104747100D01*
X187320615Y-104809635D01*
X187338856Y-104869767D01*
X187368477Y-104925185D01*
X187408341Y-104973759D01*
X187456915Y-105013623D01*
X187512333Y-105043244D01*
X187572465Y-105061485D01*
X187635000Y-105067644D01*
X188691250Y-105066100D01*
X188771000Y-104986350D01*
X188771000Y-104511100D01*
X189149000Y-104511100D01*
X189149000Y-104986350D01*
X189228750Y-105066100D01*
X190285000Y-105067644D01*
X190347535Y-105061485D01*
X190407667Y-105043244D01*
X190463085Y-105013623D01*
X190511659Y-104973759D01*
X190551523Y-104925185D01*
X190581144Y-104869767D01*
X190599385Y-104809635D01*
X190605544Y-104747100D01*
X190764456Y-104747100D01*
X190770615Y-104809635D01*
X190788856Y-104869767D01*
X190818477Y-104925185D01*
X190858341Y-104973759D01*
X190906915Y-105013623D01*
X190962333Y-105043244D01*
X191022465Y-105061485D01*
X191085000Y-105067644D01*
X192591250Y-105066100D01*
X192671000Y-104986350D01*
X192671000Y-104511100D01*
X190845750Y-104511100D01*
X190766000Y-104590850D01*
X190764456Y-104747100D01*
X190605544Y-104747100D01*
X190604000Y-104590850D01*
X190524250Y-104511100D01*
X189149000Y-104511100D01*
X188771000Y-104511100D01*
X187395750Y-104511100D01*
X187316000Y-104590850D01*
X187314456Y-104747100D01*
X179687199Y-104747100D01*
X180537199Y-103897100D01*
X187314456Y-103897100D01*
X187316000Y-104053350D01*
X187395750Y-104133100D01*
X188771000Y-104133100D01*
X188771000Y-103657850D01*
X189149000Y-103657850D01*
X189149000Y-104133100D01*
X190524250Y-104133100D01*
X190604000Y-104053350D01*
X190605544Y-103897100D01*
X190764456Y-103897100D01*
X190766000Y-104053350D01*
X190845750Y-104133100D01*
X192671000Y-104133100D01*
X192671000Y-103657850D01*
X192591250Y-103578100D01*
X191085000Y-103576556D01*
X191022465Y-103582715D01*
X190962333Y-103600956D01*
X190906915Y-103630577D01*
X190858341Y-103670441D01*
X190818477Y-103719015D01*
X190788856Y-103774433D01*
X190770615Y-103834565D01*
X190764456Y-103897100D01*
X190605544Y-103897100D01*
X190599385Y-103834565D01*
X190581144Y-103774433D01*
X190551523Y-103719015D01*
X190511659Y-103670441D01*
X190463085Y-103630577D01*
X190407667Y-103600956D01*
X190347535Y-103582715D01*
X190285000Y-103576556D01*
X189228750Y-103578100D01*
X189149000Y-103657850D01*
X188771000Y-103657850D01*
X188691250Y-103578100D01*
X187635000Y-103576556D01*
X187572465Y-103582715D01*
X187512333Y-103600956D01*
X187456915Y-103630577D01*
X187408341Y-103670441D01*
X187368477Y-103719015D01*
X187338856Y-103774433D01*
X187320615Y-103834565D01*
X187314456Y-103897100D01*
X180537199Y-103897100D01*
X181195601Y-103238699D01*
X186478146Y-103238699D01*
X186494552Y-103255105D01*
G37*
G04 #@! TD.AperFunction*
D30*
X156781541Y-100453641D02*
X156741677Y-100502215D01*
X156712056Y-100557633D01*
X156693815Y-100617765D01*
X156687656Y-100680300D01*
X156689200Y-101111550D01*
X156768950Y-101191300D01*
X157494200Y-101191300D01*
X157494200Y-101171300D01*
X157872200Y-101171300D01*
X157872200Y-101191300D01*
X158597450Y-101191300D01*
X158677200Y-101111550D01*
X158678744Y-100680300D01*
X158672585Y-100617765D01*
X158654344Y-100557633D01*
X158624723Y-100502215D01*
X158584859Y-100453641D01*
X158537897Y-100415100D01*
X159045458Y-100415100D01*
X158956135Y-100462844D01*
X158874412Y-100529912D01*
X158807344Y-100611635D01*
X158757508Y-100704872D01*
X158726819Y-100806039D01*
X158716457Y-100911250D01*
X158716457Y-101348750D01*
X158726819Y-101453961D01*
X158757508Y-101555128D01*
X158807344Y-101648365D01*
X158874412Y-101730088D01*
X158956135Y-101797156D01*
X159049372Y-101846992D01*
X159150539Y-101877681D01*
X159255750Y-101888043D01*
X159768250Y-101888043D01*
X159873461Y-101877681D01*
X159974628Y-101846992D01*
X160067865Y-101797156D01*
X160096081Y-101774000D01*
X160425519Y-101774000D01*
X160482913Y-101821102D01*
X160577230Y-101871516D01*
X160679570Y-101902561D01*
X160786000Y-101913043D01*
X161286000Y-101913043D01*
X161392430Y-101902561D01*
X161494770Y-101871516D01*
X161589087Y-101821102D01*
X161631250Y-101786500D01*
X161802357Y-101786500D01*
X161802357Y-101936101D01*
X161813320Y-102047408D01*
X161845787Y-102154438D01*
X161898511Y-102253077D01*
X161969465Y-102339535D01*
X162006000Y-102369519D01*
X162006000Y-103011579D01*
X162006001Y-103011589D01*
X162006001Y-103560457D01*
X161990000Y-103560457D01*
X161957084Y-103563699D01*
X161887321Y-103459291D01*
X161780209Y-103352179D01*
X161761728Y-103339831D01*
X161777523Y-103320585D01*
X161807144Y-103265167D01*
X161825385Y-103205035D01*
X161831544Y-103142500D01*
X161830000Y-102961250D01*
X161750250Y-102881500D01*
X161225000Y-102881500D01*
X161225000Y-102901500D01*
X160847000Y-102901500D01*
X160847000Y-102881500D01*
X160827000Y-102881500D01*
X160827000Y-102503500D01*
X160847000Y-102503500D01*
X160847000Y-102003250D01*
X161225000Y-102003250D01*
X161225000Y-102503500D01*
X161750250Y-102503500D01*
X161830000Y-102423750D01*
X161831544Y-102242500D01*
X161825385Y-102179965D01*
X161807144Y-102119833D01*
X161777523Y-102064415D01*
X161737659Y-102015841D01*
X161689085Y-101975977D01*
X161633667Y-101946356D01*
X161573535Y-101928115D01*
X161511000Y-101921956D01*
X161304750Y-101923500D01*
X161225000Y-102003250D01*
X160847000Y-102003250D01*
X160767250Y-101923500D01*
X160561000Y-101921956D01*
X160498465Y-101928115D01*
X160438333Y-101946356D01*
X160382915Y-101975977D01*
X160334341Y-102015841D01*
X160294477Y-102064415D01*
X160264856Y-102119833D01*
X160246615Y-102179965D01*
X160241399Y-102232926D01*
X160216656Y-102186635D01*
X160149588Y-102104912D01*
X160067865Y-102037844D01*
X159974628Y-101988008D01*
X159873461Y-101957319D01*
X159768250Y-101946957D01*
X159255750Y-101946957D01*
X159150539Y-101957319D01*
X159049372Y-101988008D01*
X158956135Y-102037844D01*
X158927919Y-102061000D01*
X158678675Y-102061000D01*
X158677200Y-101649050D01*
X158597450Y-101569300D01*
X157872200Y-101569300D01*
X157872200Y-101589300D01*
X157494200Y-101589300D01*
X157494200Y-101569300D01*
X156768950Y-101569300D01*
X156689200Y-101649050D01*
X156688206Y-101926622D01*
X156620691Y-101940052D01*
X156480742Y-101998021D01*
X156354791Y-102082179D01*
X156293938Y-102143032D01*
X156279123Y-102115315D01*
X156239259Y-102066741D01*
X156190685Y-102026877D01*
X156152375Y-102006400D01*
X156190685Y-101985923D01*
X156239259Y-101946059D01*
X156279123Y-101897485D01*
X156308744Y-101842067D01*
X156326985Y-101781935D01*
X156333144Y-101719400D01*
X156331600Y-101513150D01*
X156251850Y-101433400D01*
X155751600Y-101433400D01*
X155751600Y-101958650D01*
X155824350Y-102031400D01*
X155801600Y-102054150D01*
X155801600Y-102579400D01*
X155821600Y-102579400D01*
X155821600Y-102957400D01*
X155801600Y-102957400D01*
X155801600Y-102977400D01*
X155423600Y-102977400D01*
X155423600Y-102957400D01*
X154973350Y-102957400D01*
X154893600Y-103037150D01*
X154892056Y-103243400D01*
X154898215Y-103305935D01*
X154916456Y-103366067D01*
X154946077Y-103421485D01*
X154985941Y-103470059D01*
X155034515Y-103509923D01*
X155089933Y-103539544D01*
X155146336Y-103556654D01*
X155095321Y-103598521D01*
X155030584Y-103677402D01*
X154982481Y-103767397D01*
X154952859Y-103865047D01*
X154942857Y-103966600D01*
X154942857Y-104516600D01*
X154952859Y-104618153D01*
X154982481Y-104715803D01*
X155030584Y-104805798D01*
X155095321Y-104884679D01*
X155174202Y-104949416D01*
X155264197Y-104997519D01*
X155361847Y-105027141D01*
X155463400Y-105037143D01*
X155863400Y-105037143D01*
X155964953Y-105027141D01*
X156062603Y-104997519D01*
X156152598Y-104949416D01*
X156231479Y-104884679D01*
X156239605Y-104874778D01*
X156356041Y-104839457D01*
X156467918Y-104779657D01*
X156565980Y-104699180D01*
X156586148Y-104674605D01*
X156691494Y-104569259D01*
X156698620Y-104641608D01*
X156731087Y-104748638D01*
X156783811Y-104847277D01*
X156854765Y-104933735D01*
X156941223Y-105004689D01*
X157039862Y-105057413D01*
X157089200Y-105072379D01*
X157089200Y-105153475D01*
X157025050Y-105147157D01*
X156512550Y-105147157D01*
X156407339Y-105157519D01*
X156306172Y-105188208D01*
X156212935Y-105238044D01*
X156131212Y-105305112D01*
X156064144Y-105386835D01*
X156014308Y-105480072D01*
X155983619Y-105581239D01*
X155973257Y-105686450D01*
X155973257Y-106123950D01*
X155983619Y-106229161D01*
X156014308Y-106330328D01*
X156064144Y-106423565D01*
X156131212Y-106505288D01*
X156212935Y-106572356D01*
X156306172Y-106622192D01*
X156407339Y-106652881D01*
X156512550Y-106663243D01*
X157025050Y-106663243D01*
X157130261Y-106652881D01*
X157231428Y-106622192D01*
X157324665Y-106572356D01*
X157406388Y-106505288D01*
X157411384Y-106499200D01*
X157643455Y-106499200D01*
X157657043Y-106515757D01*
X157739713Y-106583602D01*
X157834030Y-106634016D01*
X157936370Y-106665061D01*
X158042800Y-106675543D01*
X158542800Y-106675543D01*
X158649230Y-106665061D01*
X158666167Y-106659923D01*
X158655657Y-106685296D01*
X158561550Y-106686000D01*
X158481800Y-106765750D01*
X158481800Y-107266000D01*
X158501800Y-107266000D01*
X158501800Y-107644000D01*
X158481800Y-107644000D01*
X158481800Y-107664000D01*
X158103800Y-107664000D01*
X158103800Y-107644000D01*
X158083800Y-107644000D01*
X158083800Y-107266000D01*
X158103800Y-107266000D01*
X158103800Y-106765750D01*
X158024050Y-106686000D01*
X157817800Y-106684456D01*
X157755265Y-106690615D01*
X157695133Y-106708856D01*
X157639715Y-106738477D01*
X157591141Y-106778341D01*
X157551277Y-106826915D01*
X157521656Y-106882333D01*
X157503415Y-106942465D01*
X157497256Y-107005000D01*
X157497268Y-107006384D01*
X157473456Y-106961835D01*
X157406388Y-106880112D01*
X157324665Y-106813044D01*
X157231428Y-106763208D01*
X157130261Y-106732519D01*
X157025050Y-106722157D01*
X156512550Y-106722157D01*
X156407339Y-106732519D01*
X156306172Y-106763208D01*
X156212935Y-106813044D01*
X156184719Y-106836200D01*
X155925519Y-106836200D01*
X155849183Y-106785194D01*
X155873780Y-106704108D01*
X155884743Y-106592801D01*
X155884743Y-105692799D01*
X155873780Y-105581492D01*
X155841313Y-105474462D01*
X155788589Y-105375823D01*
X155717635Y-105289365D01*
X155631177Y-105218411D01*
X155532538Y-105165687D01*
X155425508Y-105133220D01*
X155314201Y-105122257D01*
X154708699Y-105122257D01*
X154607400Y-105020958D01*
X154607400Y-104853095D01*
X154646216Y-104805798D01*
X154694319Y-104715803D01*
X154723941Y-104618153D01*
X154733943Y-104516600D01*
X154733943Y-103966600D01*
X154723941Y-103865047D01*
X154694319Y-103767397D01*
X154646216Y-103677402D01*
X154606600Y-103629131D01*
X154606600Y-103311674D01*
X154643519Y-103242603D01*
X154673141Y-103144953D01*
X154683143Y-103043400D01*
X154683143Y-102493400D01*
X154673141Y-102391847D01*
X154643519Y-102294197D01*
X154606600Y-102225126D01*
X154606600Y-101893909D01*
X154623357Y-101880157D01*
X154691202Y-101797487D01*
X154732940Y-101719400D01*
X154792056Y-101719400D01*
X154798215Y-101781935D01*
X154816456Y-101842067D01*
X154846077Y-101897485D01*
X154885941Y-101946059D01*
X154934515Y-101985923D01*
X154989933Y-102015544D01*
X155032566Y-102028477D01*
X154985941Y-102066741D01*
X154946077Y-102115315D01*
X154916456Y-102170733D01*
X154898215Y-102230865D01*
X154892056Y-102293400D01*
X154893600Y-102499650D01*
X154973350Y-102579400D01*
X155423600Y-102579400D01*
X155423600Y-102054150D01*
X155350850Y-101981400D01*
X155373600Y-101958650D01*
X155373600Y-101433400D01*
X154873350Y-101433400D01*
X154793600Y-101513150D01*
X154792056Y-101719400D01*
X154732940Y-101719400D01*
X154741616Y-101703170D01*
X154772661Y-101600830D01*
X154783143Y-101494400D01*
X154783143Y-100994400D01*
X154772661Y-100887970D01*
X154741616Y-100785630D01*
X154732941Y-100769400D01*
X154792056Y-100769400D01*
X154793600Y-100975650D01*
X154873350Y-101055400D01*
X155373600Y-101055400D01*
X155373600Y-100530150D01*
X155751600Y-100530150D01*
X155751600Y-101055400D01*
X156251850Y-101055400D01*
X156331600Y-100975650D01*
X156333144Y-100769400D01*
X156326985Y-100706865D01*
X156308744Y-100646733D01*
X156279123Y-100591315D01*
X156239259Y-100542741D01*
X156190685Y-100502877D01*
X156135267Y-100473256D01*
X156075135Y-100455015D01*
X156012600Y-100448856D01*
X155831350Y-100450400D01*
X155751600Y-100530150D01*
X155373600Y-100530150D01*
X155293850Y-100450400D01*
X155112600Y-100448856D01*
X155050065Y-100455015D01*
X154989933Y-100473256D01*
X154934515Y-100502877D01*
X154885941Y-100542741D01*
X154846077Y-100591315D01*
X154816456Y-100646733D01*
X154798215Y-100706865D01*
X154792056Y-100769400D01*
X154732941Y-100769400D01*
X154691202Y-100691313D01*
X154623357Y-100608643D01*
X154540687Y-100540798D01*
X154446370Y-100490384D01*
X154344030Y-100459339D01*
X154237600Y-100448857D01*
X153787600Y-100448857D01*
X153681170Y-100459339D01*
X153578830Y-100490384D01*
X153484513Y-100540798D01*
X153401843Y-100608643D01*
X153386368Y-100627500D01*
X153159948Y-100627500D01*
X153109166Y-100600357D01*
X153049035Y-100582116D01*
X152986500Y-100575957D01*
X151766500Y-100575957D01*
X151703965Y-100582116D01*
X151702988Y-100582412D01*
X151702989Y-100415100D01*
X156828503Y-100415100D01*
X156781541Y-100453641D01*
G04 #@! TA.AperFunction,Conductor*
D31*
G36*
X156781541Y-100453641D02*
G01*
X156741677Y-100502215D01*
X156712056Y-100557633D01*
X156693815Y-100617765D01*
X156687656Y-100680300D01*
X156689200Y-101111550D01*
X156768950Y-101191300D01*
X157494200Y-101191300D01*
X157494200Y-101171300D01*
X157872200Y-101171300D01*
X157872200Y-101191300D01*
X158597450Y-101191300D01*
X158677200Y-101111550D01*
X158678744Y-100680300D01*
X158672585Y-100617765D01*
X158654344Y-100557633D01*
X158624723Y-100502215D01*
X158584859Y-100453641D01*
X158537897Y-100415100D01*
X159045458Y-100415100D01*
X158956135Y-100462844D01*
X158874412Y-100529912D01*
X158807344Y-100611635D01*
X158757508Y-100704872D01*
X158726819Y-100806039D01*
X158716457Y-100911250D01*
X158716457Y-101348750D01*
X158726819Y-101453961D01*
X158757508Y-101555128D01*
X158807344Y-101648365D01*
X158874412Y-101730088D01*
X158956135Y-101797156D01*
X159049372Y-101846992D01*
X159150539Y-101877681D01*
X159255750Y-101888043D01*
X159768250Y-101888043D01*
X159873461Y-101877681D01*
X159974628Y-101846992D01*
X160067865Y-101797156D01*
X160096081Y-101774000D01*
X160425519Y-101774000D01*
X160482913Y-101821102D01*
X160577230Y-101871516D01*
X160679570Y-101902561D01*
X160786000Y-101913043D01*
X161286000Y-101913043D01*
X161392430Y-101902561D01*
X161494770Y-101871516D01*
X161589087Y-101821102D01*
X161631250Y-101786500D01*
X161802357Y-101786500D01*
X161802357Y-101936101D01*
X161813320Y-102047408D01*
X161845787Y-102154438D01*
X161898511Y-102253077D01*
X161969465Y-102339535D01*
X162006000Y-102369519D01*
X162006000Y-103011579D01*
X162006001Y-103011589D01*
X162006001Y-103560457D01*
X161990000Y-103560457D01*
X161957084Y-103563699D01*
X161887321Y-103459291D01*
X161780209Y-103352179D01*
X161761728Y-103339831D01*
X161777523Y-103320585D01*
X161807144Y-103265167D01*
X161825385Y-103205035D01*
X161831544Y-103142500D01*
X161830000Y-102961250D01*
X161750250Y-102881500D01*
X161225000Y-102881500D01*
X161225000Y-102901500D01*
X160847000Y-102901500D01*
X160847000Y-102881500D01*
X160827000Y-102881500D01*
X160827000Y-102503500D01*
X160847000Y-102503500D01*
X160847000Y-102003250D01*
X161225000Y-102003250D01*
X161225000Y-102503500D01*
X161750250Y-102503500D01*
X161830000Y-102423750D01*
X161831544Y-102242500D01*
X161825385Y-102179965D01*
X161807144Y-102119833D01*
X161777523Y-102064415D01*
X161737659Y-102015841D01*
X161689085Y-101975977D01*
X161633667Y-101946356D01*
X161573535Y-101928115D01*
X161511000Y-101921956D01*
X161304750Y-101923500D01*
X161225000Y-102003250D01*
X160847000Y-102003250D01*
X160767250Y-101923500D01*
X160561000Y-101921956D01*
X160498465Y-101928115D01*
X160438333Y-101946356D01*
X160382915Y-101975977D01*
X160334341Y-102015841D01*
X160294477Y-102064415D01*
X160264856Y-102119833D01*
X160246615Y-102179965D01*
X160241399Y-102232926D01*
X160216656Y-102186635D01*
X160149588Y-102104912D01*
X160067865Y-102037844D01*
X159974628Y-101988008D01*
X159873461Y-101957319D01*
X159768250Y-101946957D01*
X159255750Y-101946957D01*
X159150539Y-101957319D01*
X159049372Y-101988008D01*
X158956135Y-102037844D01*
X158927919Y-102061000D01*
X158678675Y-102061000D01*
X158677200Y-101649050D01*
X158597450Y-101569300D01*
X157872200Y-101569300D01*
X157872200Y-101589300D01*
X157494200Y-101589300D01*
X157494200Y-101569300D01*
X156768950Y-101569300D01*
X156689200Y-101649050D01*
X156688206Y-101926622D01*
X156620691Y-101940052D01*
X156480742Y-101998021D01*
X156354791Y-102082179D01*
X156293938Y-102143032D01*
X156279123Y-102115315D01*
X156239259Y-102066741D01*
X156190685Y-102026877D01*
X156152375Y-102006400D01*
X156190685Y-101985923D01*
X156239259Y-101946059D01*
X156279123Y-101897485D01*
X156308744Y-101842067D01*
X156326985Y-101781935D01*
X156333144Y-101719400D01*
X156331600Y-101513150D01*
X156251850Y-101433400D01*
X155751600Y-101433400D01*
X155751600Y-101958650D01*
X155824350Y-102031400D01*
X155801600Y-102054150D01*
X155801600Y-102579400D01*
X155821600Y-102579400D01*
X155821600Y-102957400D01*
X155801600Y-102957400D01*
X155801600Y-102977400D01*
X155423600Y-102977400D01*
X155423600Y-102957400D01*
X154973350Y-102957400D01*
X154893600Y-103037150D01*
X154892056Y-103243400D01*
X154898215Y-103305935D01*
X154916456Y-103366067D01*
X154946077Y-103421485D01*
X154985941Y-103470059D01*
X155034515Y-103509923D01*
X155089933Y-103539544D01*
X155146336Y-103556654D01*
X155095321Y-103598521D01*
X155030584Y-103677402D01*
X154982481Y-103767397D01*
X154952859Y-103865047D01*
X154942857Y-103966600D01*
X154942857Y-104516600D01*
X154952859Y-104618153D01*
X154982481Y-104715803D01*
X155030584Y-104805798D01*
X155095321Y-104884679D01*
X155174202Y-104949416D01*
X155264197Y-104997519D01*
X155361847Y-105027141D01*
X155463400Y-105037143D01*
X155863400Y-105037143D01*
X155964953Y-105027141D01*
X156062603Y-104997519D01*
X156152598Y-104949416D01*
X156231479Y-104884679D01*
X156239605Y-104874778D01*
X156356041Y-104839457D01*
X156467918Y-104779657D01*
X156565980Y-104699180D01*
X156586148Y-104674605D01*
X156691494Y-104569259D01*
X156698620Y-104641608D01*
X156731087Y-104748638D01*
X156783811Y-104847277D01*
X156854765Y-104933735D01*
X156941223Y-105004689D01*
X157039862Y-105057413D01*
X157089200Y-105072379D01*
X157089200Y-105153475D01*
X157025050Y-105147157D01*
X156512550Y-105147157D01*
X156407339Y-105157519D01*
X156306172Y-105188208D01*
X156212935Y-105238044D01*
X156131212Y-105305112D01*
X156064144Y-105386835D01*
X156014308Y-105480072D01*
X155983619Y-105581239D01*
X155973257Y-105686450D01*
X155973257Y-106123950D01*
X155983619Y-106229161D01*
X156014308Y-106330328D01*
X156064144Y-106423565D01*
X156131212Y-106505288D01*
X156212935Y-106572356D01*
X156306172Y-106622192D01*
X156407339Y-106652881D01*
X156512550Y-106663243D01*
X157025050Y-106663243D01*
X157130261Y-106652881D01*
X157231428Y-106622192D01*
X157324665Y-106572356D01*
X157406388Y-106505288D01*
X157411384Y-106499200D01*
X157643455Y-106499200D01*
X157657043Y-106515757D01*
X157739713Y-106583602D01*
X157834030Y-106634016D01*
X157936370Y-106665061D01*
X158042800Y-106675543D01*
X158542800Y-106675543D01*
X158649230Y-106665061D01*
X158666167Y-106659923D01*
X158655657Y-106685296D01*
X158561550Y-106686000D01*
X158481800Y-106765750D01*
X158481800Y-107266000D01*
X158501800Y-107266000D01*
X158501800Y-107644000D01*
X158481800Y-107644000D01*
X158481800Y-107664000D01*
X158103800Y-107664000D01*
X158103800Y-107644000D01*
X158083800Y-107644000D01*
X158083800Y-107266000D01*
X158103800Y-107266000D01*
X158103800Y-106765750D01*
X158024050Y-106686000D01*
X157817800Y-106684456D01*
X157755265Y-106690615D01*
X157695133Y-106708856D01*
X157639715Y-106738477D01*
X157591141Y-106778341D01*
X157551277Y-106826915D01*
X157521656Y-106882333D01*
X157503415Y-106942465D01*
X157497256Y-107005000D01*
X157497268Y-107006384D01*
X157473456Y-106961835D01*
X157406388Y-106880112D01*
X157324665Y-106813044D01*
X157231428Y-106763208D01*
X157130261Y-106732519D01*
X157025050Y-106722157D01*
X156512550Y-106722157D01*
X156407339Y-106732519D01*
X156306172Y-106763208D01*
X156212935Y-106813044D01*
X156184719Y-106836200D01*
X155925519Y-106836200D01*
X155849183Y-106785194D01*
X155873780Y-106704108D01*
X155884743Y-106592801D01*
X155884743Y-105692799D01*
X155873780Y-105581492D01*
X155841313Y-105474462D01*
X155788589Y-105375823D01*
X155717635Y-105289365D01*
X155631177Y-105218411D01*
X155532538Y-105165687D01*
X155425508Y-105133220D01*
X155314201Y-105122257D01*
X154708699Y-105122257D01*
X154607400Y-105020958D01*
X154607400Y-104853095D01*
X154646216Y-104805798D01*
X154694319Y-104715803D01*
X154723941Y-104618153D01*
X154733943Y-104516600D01*
X154733943Y-103966600D01*
X154723941Y-103865047D01*
X154694319Y-103767397D01*
X154646216Y-103677402D01*
X154606600Y-103629131D01*
X154606600Y-103311674D01*
X154643519Y-103242603D01*
X154673141Y-103144953D01*
X154683143Y-103043400D01*
X154683143Y-102493400D01*
X154673141Y-102391847D01*
X154643519Y-102294197D01*
X154606600Y-102225126D01*
X154606600Y-101893909D01*
X154623357Y-101880157D01*
X154691202Y-101797487D01*
X154732940Y-101719400D01*
X154792056Y-101719400D01*
X154798215Y-101781935D01*
X154816456Y-101842067D01*
X154846077Y-101897485D01*
X154885941Y-101946059D01*
X154934515Y-101985923D01*
X154989933Y-102015544D01*
X155032566Y-102028477D01*
X154985941Y-102066741D01*
X154946077Y-102115315D01*
X154916456Y-102170733D01*
X154898215Y-102230865D01*
X154892056Y-102293400D01*
X154893600Y-102499650D01*
X154973350Y-102579400D01*
X155423600Y-102579400D01*
X155423600Y-102054150D01*
X155350850Y-101981400D01*
X155373600Y-101958650D01*
X155373600Y-101433400D01*
X154873350Y-101433400D01*
X154793600Y-101513150D01*
X154792056Y-101719400D01*
X154732940Y-101719400D01*
X154741616Y-101703170D01*
X154772661Y-101600830D01*
X154783143Y-101494400D01*
X154783143Y-100994400D01*
X154772661Y-100887970D01*
X154741616Y-100785630D01*
X154732941Y-100769400D01*
X154792056Y-100769400D01*
X154793600Y-100975650D01*
X154873350Y-101055400D01*
X155373600Y-101055400D01*
X155373600Y-100530150D01*
X155751600Y-100530150D01*
X155751600Y-101055400D01*
X156251850Y-101055400D01*
X156331600Y-100975650D01*
X156333144Y-100769400D01*
X156326985Y-100706865D01*
X156308744Y-100646733D01*
X156279123Y-100591315D01*
X156239259Y-100542741D01*
X156190685Y-100502877D01*
X156135267Y-100473256D01*
X156075135Y-100455015D01*
X156012600Y-100448856D01*
X155831350Y-100450400D01*
X155751600Y-100530150D01*
X155373600Y-100530150D01*
X155293850Y-100450400D01*
X155112600Y-100448856D01*
X155050065Y-100455015D01*
X154989933Y-100473256D01*
X154934515Y-100502877D01*
X154885941Y-100542741D01*
X154846077Y-100591315D01*
X154816456Y-100646733D01*
X154798215Y-100706865D01*
X154792056Y-100769400D01*
X154732941Y-100769400D01*
X154691202Y-100691313D01*
X154623357Y-100608643D01*
X154540687Y-100540798D01*
X154446370Y-100490384D01*
X154344030Y-100459339D01*
X154237600Y-100448857D01*
X153787600Y-100448857D01*
X153681170Y-100459339D01*
X153578830Y-100490384D01*
X153484513Y-100540798D01*
X153401843Y-100608643D01*
X153386368Y-100627500D01*
X153159948Y-100627500D01*
X153109166Y-100600357D01*
X153049035Y-100582116D01*
X152986500Y-100575957D01*
X151766500Y-100575957D01*
X151703965Y-100582116D01*
X151702988Y-100582412D01*
X151702989Y-100415100D01*
X156828503Y-100415100D01*
X156781541Y-100453641D01*
G37*
G04 #@! TD.AperFunction*
D30*
X203364001Y-101181682D02*
X201314150Y-101183100D01*
X201234400Y-101262850D01*
X201234400Y-102113100D01*
X201254400Y-102113100D01*
X201254400Y-102491100D01*
X201234400Y-102491100D01*
X201234400Y-103341350D01*
X201314150Y-103421100D01*
X203364001Y-103422518D01*
X203364001Y-104151557D01*
X198545400Y-104151557D01*
X198482865Y-104157716D01*
X198422734Y-104175957D01*
X198367316Y-104205578D01*
X198318742Y-104245442D01*
X198278878Y-104294016D01*
X198249257Y-104349434D01*
X198231016Y-104409565D01*
X198227181Y-104448500D01*
X196952849Y-104448500D01*
X196896758Y-104411021D01*
X196756809Y-104353052D01*
X196608240Y-104323500D01*
X196456760Y-104323500D01*
X196308191Y-104353052D01*
X196168242Y-104411021D01*
X196042291Y-104495179D01*
X196020000Y-104517470D01*
X196020000Y-103102100D01*
X198224856Y-103102100D01*
X198231015Y-103164635D01*
X198249256Y-103224767D01*
X198278877Y-103280185D01*
X198318741Y-103328759D01*
X198367315Y-103368623D01*
X198422733Y-103398244D01*
X198482865Y-103416485D01*
X198545400Y-103422644D01*
X200776650Y-103421100D01*
X200856400Y-103341350D01*
X200856400Y-102491100D01*
X198306150Y-102491100D01*
X198226400Y-102570850D01*
X198224856Y-103102100D01*
X196020000Y-103102100D01*
X196020000Y-102172860D01*
X196023357Y-102138777D01*
X196009957Y-102002730D01*
X196008529Y-101998021D01*
X195970274Y-101871911D01*
X195905831Y-101751347D01*
X195819105Y-101645672D01*
X195792633Y-101623947D01*
X195670786Y-101502100D01*
X198224856Y-101502100D01*
X198226400Y-102033350D01*
X198306150Y-102113100D01*
X200856400Y-102113100D01*
X200856400Y-101262850D01*
X200776650Y-101183100D01*
X198545400Y-101181556D01*
X198482865Y-101187715D01*
X198422733Y-101205956D01*
X198367315Y-101235577D01*
X198318741Y-101275441D01*
X198278877Y-101324015D01*
X198249256Y-101379433D01*
X198231015Y-101439565D01*
X198224856Y-101502100D01*
X195670786Y-101502100D01*
X194729152Y-100560467D01*
X194707418Y-100533984D01*
X194601743Y-100447259D01*
X194575655Y-100433315D01*
X194553460Y-100415100D01*
X203364001Y-100415100D01*
X203364001Y-101181682D01*
G04 #@! TA.AperFunction,Conductor*
D31*
G36*
X203364001Y-101181682D02*
G01*
X201314150Y-101183100D01*
X201234400Y-101262850D01*
X201234400Y-102113100D01*
X201254400Y-102113100D01*
X201254400Y-102491100D01*
X201234400Y-102491100D01*
X201234400Y-103341350D01*
X201314150Y-103421100D01*
X203364001Y-103422518D01*
X203364001Y-104151557D01*
X198545400Y-104151557D01*
X198482865Y-104157716D01*
X198422734Y-104175957D01*
X198367316Y-104205578D01*
X198318742Y-104245442D01*
X198278878Y-104294016D01*
X198249257Y-104349434D01*
X198231016Y-104409565D01*
X198227181Y-104448500D01*
X196952849Y-104448500D01*
X196896758Y-104411021D01*
X196756809Y-104353052D01*
X196608240Y-104323500D01*
X196456760Y-104323500D01*
X196308191Y-104353052D01*
X196168242Y-104411021D01*
X196042291Y-104495179D01*
X196020000Y-104517470D01*
X196020000Y-103102100D01*
X198224856Y-103102100D01*
X198231015Y-103164635D01*
X198249256Y-103224767D01*
X198278877Y-103280185D01*
X198318741Y-103328759D01*
X198367315Y-103368623D01*
X198422733Y-103398244D01*
X198482865Y-103416485D01*
X198545400Y-103422644D01*
X200776650Y-103421100D01*
X200856400Y-103341350D01*
X200856400Y-102491100D01*
X198306150Y-102491100D01*
X198226400Y-102570850D01*
X198224856Y-103102100D01*
X196020000Y-103102100D01*
X196020000Y-102172860D01*
X196023357Y-102138777D01*
X196009957Y-102002730D01*
X196008529Y-101998021D01*
X195970274Y-101871911D01*
X195905831Y-101751347D01*
X195819105Y-101645672D01*
X195792633Y-101623947D01*
X195670786Y-101502100D01*
X198224856Y-101502100D01*
X198226400Y-102033350D01*
X198306150Y-102113100D01*
X200856400Y-102113100D01*
X200856400Y-101262850D01*
X200776650Y-101183100D01*
X198545400Y-101181556D01*
X198482865Y-101187715D01*
X198422733Y-101205956D01*
X198367315Y-101235577D01*
X198318741Y-101275441D01*
X198278877Y-101324015D01*
X198249256Y-101379433D01*
X198231015Y-101439565D01*
X198224856Y-101502100D01*
X195670786Y-101502100D01*
X194729152Y-100560467D01*
X194707418Y-100533984D01*
X194601743Y-100447259D01*
X194575655Y-100433315D01*
X194553460Y-100415100D01*
X203364001Y-100415100D01*
X203364001Y-101181682D01*
G37*
G04 #@! TD.AperFunction*
D30*
X153401843Y-101880157D02*
X153418600Y-101893909D01*
X153418600Y-102105559D01*
X153394521Y-102125321D01*
X153329784Y-102204202D01*
X153281681Y-102294197D01*
X153253232Y-102387982D01*
X153225750Y-102360500D01*
X152565500Y-102360500D01*
X152565500Y-102380500D01*
X152187500Y-102380500D01*
X152187500Y-102360500D01*
X152167500Y-102360500D01*
X152167500Y-101982500D01*
X152187500Y-101982500D01*
X152187500Y-101962500D01*
X152565500Y-101962500D01*
X152565500Y-101982500D01*
X153225750Y-101982500D01*
X153305500Y-101902750D01*
X153307044Y-101846500D01*
X153303991Y-101815500D01*
X153348781Y-101815500D01*
X153401843Y-101880157D01*
G04 #@! TA.AperFunction,Conductor*
D31*
G36*
X153401843Y-101880157D02*
G01*
X153418600Y-101893909D01*
X153418600Y-102105559D01*
X153394521Y-102125321D01*
X153329784Y-102204202D01*
X153281681Y-102294197D01*
X153253232Y-102387982D01*
X153225750Y-102360500D01*
X152565500Y-102360500D01*
X152565500Y-102380500D01*
X152187500Y-102380500D01*
X152187500Y-102360500D01*
X152167500Y-102360500D01*
X152167500Y-101982500D01*
X152187500Y-101982500D01*
X152187500Y-101962500D01*
X152565500Y-101962500D01*
X152565500Y-101982500D01*
X153225750Y-101982500D01*
X153305500Y-101902750D01*
X153307044Y-101846500D01*
X153303991Y-101815500D01*
X153348781Y-101815500D01*
X153401843Y-101880157D01*
G37*
G04 #@! TD.AperFunction*
M02*
