M48
; DRILL file {KiCad 5.1.10-88a1d61d58~88~ubuntu18.04.1} date Thu Sep 30 15:30:22 2021
; FORMAT={-:-/ absolute / metric / decimal}
; #@! TF.CreationDate,2021-09-30T15:30:22+02:00
; #@! TF.GenerationSoftware,Kicad,Pcbnew,5.1.10-88a1d61d58~88~ubuntu18.04.1
; #@! TF.FileFunction,Plated,1,2,PTH
FMAT,2
METRIC
T1C0.400
T2C0.500
T3C3.000
%
G90
G05
T1
X143.205Y-107.163
X151.257Y-101.981
X153.035Y-104.013
X156.591Y-101.346
X163.83Y-107.696
X164.211Y-101.473
X164.592Y-104.902
X167.64Y-107.442
X168.3Y-105.258
X168.569Y-107.652
X170.37Y-105.283
X173.533Y-100.813
X178.613Y-102.565
X179.07Y-108.839
X179.324Y-106.553
X183.261Y-108.966
X185.42Y-103.886
X185.42Y-105.029
X185.42Y-106.172
X189.992Y-108.839
X197.104Y-101.346
X197.104Y-102.489
X197.104Y-106.807
X197.104Y-108.204
T2
X143.408Y-104.445
X144.272Y-107.188
X146.863Y-106.07
X146.964Y-107.379
X148.336Y-109.22
X150.876Y-104.751
X151.028Y-102.997
X153.67Y-107.264
X155.448Y-107.442
X156.845Y-102.679
X159.385Y-106.934
X161.29Y-103.95
X170.517Y-107.969
X172.275Y-109.283
X174.879Y-102.679
X178.279Y-106.034
X196.532Y-105.093
T3
X87.63Y-105.072
X139.954Y-105.072
X182.118Y-105.072
T0
M30
