%FSLAX45Y45*%
G04 Gerber Fmt 4.5, Leading zero omitted, Abs format (unit mm)*
G04 Created by KiCad (PCBNEW 5.1.10-88a1d61d58~88~ubuntu18.04.1) date 2021-09-30 15:30:22*
%MOMM*%
%LPD*%
G01*
G04 APERTURE LIST*
%TA.AperFunction,Profile*%
%ADD10C,0.050000*%
%TD*%
%ADD11C,0.200000*%
%ADD12C,0.300000*%
G04 APERTURE END LIST*
D10*
X8350110Y-11007310D02*
X20370800Y-11007310D01*
X20370800Y-11006820D02*
X20370800Y-10007110D01*
X20370800Y-10007110D02*
X8350110Y-10007110D01*
X8350110Y-10007110D02*
X8350110Y-11007310D01*
D11*
D12*
X8634038Y-11475524D02*
X8634038Y-11175524D01*
X8705467Y-11175524D01*
X8748324Y-11189810D01*
X8776896Y-11218381D01*
X8791181Y-11246953D01*
X8805467Y-11304096D01*
X8805467Y-11346953D01*
X8791181Y-11404096D01*
X8776896Y-11432667D01*
X8748324Y-11461239D01*
X8705467Y-11475524D01*
X8634038Y-11475524D01*
X8934038Y-11475524D02*
X8934038Y-11275524D01*
X8934038Y-11332667D02*
X8948324Y-11304096D01*
X8962610Y-11289810D01*
X8991181Y-11275524D01*
X9019753Y-11275524D01*
X9119753Y-11475524D02*
X9119753Y-11275524D01*
X9119753Y-11175524D02*
X9105467Y-11189810D01*
X9119753Y-11204096D01*
X9134038Y-11189810D01*
X9119753Y-11175524D01*
X9119753Y-11204096D01*
X9305467Y-11475524D02*
X9276896Y-11461239D01*
X9262610Y-11432667D01*
X9262610Y-11175524D01*
X9462610Y-11475524D02*
X9434038Y-11461239D01*
X9419753Y-11432667D01*
X9419753Y-11175524D01*
X9805467Y-11475524D02*
X9805467Y-11175524D01*
X9905467Y-11389810D01*
X10005467Y-11175524D01*
X10005467Y-11475524D01*
X10276896Y-11475524D02*
X10276896Y-11318381D01*
X10262610Y-11289810D01*
X10234038Y-11275524D01*
X10176896Y-11275524D01*
X10148324Y-11289810D01*
X10276896Y-11461239D02*
X10248324Y-11475524D01*
X10176896Y-11475524D01*
X10148324Y-11461239D01*
X10134038Y-11432667D01*
X10134038Y-11404096D01*
X10148324Y-11375524D01*
X10176896Y-11361239D01*
X10248324Y-11361239D01*
X10276896Y-11346953D01*
X10419753Y-11275524D02*
X10419753Y-11575524D01*
X10419753Y-11289810D02*
X10448324Y-11275524D01*
X10505467Y-11275524D01*
X10534038Y-11289810D01*
X10548324Y-11304096D01*
X10562610Y-11332667D01*
X10562610Y-11418381D01*
X10548324Y-11446953D01*
X10534038Y-11461239D01*
X10505467Y-11475524D01*
X10448324Y-11475524D01*
X10419753Y-11461239D01*
X10691181Y-11446953D02*
X10705467Y-11461239D01*
X10691181Y-11475524D01*
X10676896Y-11461239D01*
X10691181Y-11446953D01*
X10691181Y-11475524D01*
X10691181Y-11289810D02*
X10705467Y-11304096D01*
X10691181Y-11318381D01*
X10676896Y-11304096D01*
X10691181Y-11289810D01*
X10691181Y-11318381D01*
M02*
