%FSLAX45Y45*%
G04 Gerber Fmt 4.5, Leading zero omitted, Abs format (unit mm)*
G04 Created by KiCad (PCBNEW 5.1.10-88a1d61d58~88~ubuntu18.04.1) date 2021-09-30 15:30:22*
%MOMM*%
%LPD*%
G01*
G04 APERTURE LIST*
%TA.AperFunction,Profile*%
%ADD10C,0.050000*%
%TD*%
%ADD11C,0.200000*%
%ADD12C,0.300000*%
G04 APERTURE END LIST*
D10*
X8350110Y-11007310D02*
X20370800Y-11007310D01*
X20370800Y-11006820D02*
X20370800Y-10007110D01*
X20370800Y-10007110D02*
X8350110Y-10007110D01*
X8350110Y-10007110D02*
X8350110Y-11007310D01*
D11*
X14300520Y-10696260D02*
X14340520Y-10736260D01*
X14340520Y-10696260D02*
X14300520Y-10736260D01*
X15105700Y-10178100D02*
X15145700Y-10218100D01*
X15145700Y-10178100D02*
X15105700Y-10218100D01*
X15283500Y-10381300D02*
X15323500Y-10421300D01*
X15323500Y-10381300D02*
X15283500Y-10421300D01*
X15639100Y-10114600D02*
X15679100Y-10154600D01*
X15679100Y-10114600D02*
X15639100Y-10154600D01*
X16363000Y-10749600D02*
X16403000Y-10789600D01*
X16403000Y-10749600D02*
X16363000Y-10789600D01*
X16401100Y-10127300D02*
X16441100Y-10167300D01*
X16441100Y-10127300D02*
X16401100Y-10167300D01*
X16439200Y-10470200D02*
X16479200Y-10510200D01*
X16479200Y-10470200D02*
X16439200Y-10510200D01*
X16744000Y-10724200D02*
X16784000Y-10764200D01*
X16784000Y-10724200D02*
X16744000Y-10764200D01*
X16810040Y-10505760D02*
X16850040Y-10545760D01*
X16850040Y-10505760D02*
X16810040Y-10545760D01*
X16836904Y-10745163D02*
X16876904Y-10785163D01*
X16876904Y-10745163D02*
X16836904Y-10785163D01*
X17017050Y-10508300D02*
X17057050Y-10548300D01*
X17057050Y-10508300D02*
X17017050Y-10548300D01*
X17333280Y-10061260D02*
X17373280Y-10101260D01*
X17373280Y-10061260D02*
X17333280Y-10101260D01*
X17841280Y-10236520D02*
X17881280Y-10276520D01*
X17881280Y-10236520D02*
X17841280Y-10276520D01*
X17887000Y-10863900D02*
X17927000Y-10903900D01*
X17927000Y-10863900D02*
X17887000Y-10903900D01*
X17912400Y-10635300D02*
X17952400Y-10675300D01*
X17952400Y-10635300D02*
X17912400Y-10675300D01*
X18306100Y-10876600D02*
X18346100Y-10916600D01*
X18346100Y-10876600D02*
X18306100Y-10916600D01*
X18522000Y-10368600D02*
X18562000Y-10408600D01*
X18562000Y-10368600D02*
X18522000Y-10408600D01*
X18522000Y-10482900D02*
X18562000Y-10522900D01*
X18562000Y-10482900D02*
X18522000Y-10522900D01*
X18522000Y-10597200D02*
X18562000Y-10637200D01*
X18562000Y-10597200D02*
X18522000Y-10637200D01*
X18979200Y-10863900D02*
X19019200Y-10903900D01*
X19019200Y-10863900D02*
X18979200Y-10903900D01*
X19690400Y-10114600D02*
X19730400Y-10154600D01*
X19730400Y-10114600D02*
X19690400Y-10154600D01*
X19690400Y-10228900D02*
X19730400Y-10268900D01*
X19730400Y-10228900D02*
X19690400Y-10268900D01*
X19690400Y-10660700D02*
X19730400Y-10700700D01*
X19730400Y-10660700D02*
X19690400Y-10700700D01*
X19690400Y-10800400D02*
X19730400Y-10840400D01*
X19730400Y-10800400D02*
X19690400Y-10840400D01*
X14365840Y-10444480D02*
G75*
G03*
X14365840Y-10444480I-25000J0D01*
G01*
X14452200Y-10718800D02*
G75*
G03*
X14452200Y-10718800I-25000J0D01*
G01*
X14711280Y-10607040D02*
G75*
G03*
X14711280Y-10607040I-25000J0D01*
G01*
X14721440Y-10737850D02*
G75*
G03*
X14721440Y-10737850I-25000J0D01*
G01*
X14858600Y-10922000D02*
G75*
G03*
X14858600Y-10922000I-25000J0D01*
G01*
X15112600Y-10475130D02*
G75*
G03*
X15112600Y-10475130I-25000J0D01*
G01*
X15127840Y-10299650D02*
G75*
G03*
X15127840Y-10299650I-25000J0D01*
G01*
X15392000Y-10726420D02*
G75*
G03*
X15392000Y-10726420I-25000J0D01*
G01*
X15569800Y-10744200D02*
G75*
G03*
X15569800Y-10744200I-25000J0D01*
G01*
X15709500Y-10267950D02*
G75*
G03*
X15709500Y-10267950I-25000J0D01*
G01*
X15963500Y-10693400D02*
G75*
G03*
X15963500Y-10693400I-25000J0D01*
G01*
X16154000Y-10394950D02*
G75*
G03*
X16154000Y-10394950I-25000J0D01*
G01*
X17076655Y-10796905D02*
G75*
G03*
X17076655Y-10796905I-25000J0D01*
G01*
X17252550Y-10928350D02*
G75*
G03*
X17252550Y-10928350I-25000J0D01*
G01*
X17512900Y-10267950D02*
G75*
G03*
X17512900Y-10267950I-25000J0D01*
G01*
X17852893Y-10603429D02*
G75*
G03*
X17852893Y-10603429I-25000J0D01*
G01*
X19678250Y-10509250D02*
G75*
G03*
X19678250Y-10509250I-25000J0D01*
G01*
X8763000Y-10357210D02*
X8763000Y-10657210D01*
X8613000Y-10507210D02*
X8913000Y-10507210D01*
X13995400Y-10357210D02*
X13995400Y-10657210D01*
X13845400Y-10507210D02*
X14145400Y-10507210D01*
X18211800Y-10357210D02*
X18211800Y-10657210D01*
X18061800Y-10507210D02*
X18361800Y-10507210D01*
D12*
X8634038Y-11475524D02*
X8634038Y-11175524D01*
X8705467Y-11175524D01*
X8748324Y-11189810D01*
X8776896Y-11218381D01*
X8791181Y-11246953D01*
X8805467Y-11304096D01*
X8805467Y-11346953D01*
X8791181Y-11404096D01*
X8776896Y-11432667D01*
X8748324Y-11461239D01*
X8705467Y-11475524D01*
X8634038Y-11475524D01*
X8934038Y-11475524D02*
X8934038Y-11275524D01*
X8934038Y-11332667D02*
X8948324Y-11304096D01*
X8962610Y-11289810D01*
X8991181Y-11275524D01*
X9019753Y-11275524D01*
X9119753Y-11475524D02*
X9119753Y-11275524D01*
X9119753Y-11175524D02*
X9105467Y-11189810D01*
X9119753Y-11204096D01*
X9134038Y-11189810D01*
X9119753Y-11175524D01*
X9119753Y-11204096D01*
X9305467Y-11475524D02*
X9276896Y-11461239D01*
X9262610Y-11432667D01*
X9262610Y-11175524D01*
X9462610Y-11475524D02*
X9434038Y-11461239D01*
X9419753Y-11432667D01*
X9419753Y-11175524D01*
X9805467Y-11475524D02*
X9805467Y-11175524D01*
X9905467Y-11389810D01*
X10005467Y-11175524D01*
X10005467Y-11475524D01*
X10276896Y-11475524D02*
X10276896Y-11318381D01*
X10262610Y-11289810D01*
X10234038Y-11275524D01*
X10176896Y-11275524D01*
X10148324Y-11289810D01*
X10276896Y-11461239D02*
X10248324Y-11475524D01*
X10176896Y-11475524D01*
X10148324Y-11461239D01*
X10134038Y-11432667D01*
X10134038Y-11404096D01*
X10148324Y-11375524D01*
X10176896Y-11361239D01*
X10248324Y-11361239D01*
X10276896Y-11346953D01*
X10419753Y-11275524D02*
X10419753Y-11575524D01*
X10419753Y-11289810D02*
X10448324Y-11275524D01*
X10505467Y-11275524D01*
X10534038Y-11289810D01*
X10548324Y-11304096D01*
X10562610Y-11332667D01*
X10562610Y-11418381D01*
X10548324Y-11446953D01*
X10534038Y-11461239D01*
X10505467Y-11475524D01*
X10448324Y-11475524D01*
X10419753Y-11461239D01*
X10691181Y-11446953D02*
X10705467Y-11461239D01*
X10691181Y-11475524D01*
X10676896Y-11461239D01*
X10691181Y-11446953D01*
X10691181Y-11475524D01*
X10691181Y-11289810D02*
X10705467Y-11304096D01*
X10691181Y-11318381D01*
X10676896Y-11304096D01*
X10691181Y-11289810D01*
X10691181Y-11318381D01*
X8307610Y-11949810D02*
X8347610Y-11989810D01*
X8347610Y-11949810D02*
X8307610Y-11989810D01*
X8691181Y-11805524D02*
X8719753Y-11805524D01*
X8748324Y-11819810D01*
X8762610Y-11834096D01*
X8776896Y-11862667D01*
X8791181Y-11919810D01*
X8791181Y-11991239D01*
X8776896Y-12048381D01*
X8762610Y-12076953D01*
X8748324Y-12091239D01*
X8719753Y-12105524D01*
X8691181Y-12105524D01*
X8662610Y-12091239D01*
X8648324Y-12076953D01*
X8634038Y-12048381D01*
X8619753Y-11991239D01*
X8619753Y-11919810D01*
X8634038Y-11862667D01*
X8648324Y-11834096D01*
X8662610Y-11819810D01*
X8691181Y-11805524D01*
X8919753Y-12076953D02*
X8934038Y-12091239D01*
X8919753Y-12105524D01*
X8905467Y-12091239D01*
X8919753Y-12076953D01*
X8919753Y-12105524D01*
X9191181Y-11905524D02*
X9191181Y-12105524D01*
X9119753Y-11791239D02*
X9048324Y-12005524D01*
X9234038Y-12005524D01*
X9405467Y-11805524D02*
X9434038Y-11805524D01*
X9462610Y-11819810D01*
X9476896Y-11834096D01*
X9491181Y-11862667D01*
X9505467Y-11919810D01*
X9505467Y-11991239D01*
X9491181Y-12048381D01*
X9476896Y-12076953D01*
X9462610Y-12091239D01*
X9434038Y-12105524D01*
X9405467Y-12105524D01*
X9376896Y-12091239D01*
X9362610Y-12076953D01*
X9348324Y-12048381D01*
X9334038Y-11991239D01*
X9334038Y-11919810D01*
X9348324Y-11862667D01*
X9362610Y-11834096D01*
X9376896Y-11819810D01*
X9405467Y-11805524D01*
X9691181Y-11805524D02*
X9719753Y-11805524D01*
X9748324Y-11819810D01*
X9762610Y-11834096D01*
X9776896Y-11862667D01*
X9791181Y-11919810D01*
X9791181Y-11991239D01*
X9776896Y-12048381D01*
X9762610Y-12076953D01*
X9748324Y-12091239D01*
X9719753Y-12105524D01*
X9691181Y-12105524D01*
X9662610Y-12091239D01*
X9648324Y-12076953D01*
X9634038Y-12048381D01*
X9619753Y-11991239D01*
X9619753Y-11919810D01*
X9634038Y-11862667D01*
X9648324Y-11834096D01*
X9662610Y-11819810D01*
X9691181Y-11805524D01*
X9919753Y-12105524D02*
X9919753Y-11905524D01*
X9919753Y-11934096D02*
X9934038Y-11919810D01*
X9962610Y-11905524D01*
X10005467Y-11905524D01*
X10034038Y-11919810D01*
X10048324Y-11948381D01*
X10048324Y-12105524D01*
X10048324Y-11948381D02*
X10062610Y-11919810D01*
X10091181Y-11905524D01*
X10134038Y-11905524D01*
X10162610Y-11919810D01*
X10176896Y-11948381D01*
X10176896Y-12105524D01*
X10319753Y-12105524D02*
X10319753Y-11905524D01*
X10319753Y-11934096D02*
X10334038Y-11919810D01*
X10362610Y-11905524D01*
X10405467Y-11905524D01*
X10434038Y-11919810D01*
X10448324Y-11948381D01*
X10448324Y-12105524D01*
X10448324Y-11948381D02*
X10462610Y-11919810D01*
X10491181Y-11905524D01*
X10534038Y-11905524D01*
X10562610Y-11919810D01*
X10576896Y-11948381D01*
X10576896Y-12105524D01*
X11162610Y-11791239D02*
X10905467Y-12176953D01*
X11548324Y-11805524D02*
X11576896Y-11805524D01*
X11605467Y-11819810D01*
X11619753Y-11834096D01*
X11634038Y-11862667D01*
X11648324Y-11919810D01*
X11648324Y-11991239D01*
X11634038Y-12048381D01*
X11619753Y-12076953D01*
X11605467Y-12091239D01*
X11576896Y-12105524D01*
X11548324Y-12105524D01*
X11519753Y-12091239D01*
X11505467Y-12076953D01*
X11491181Y-12048381D01*
X11476896Y-11991239D01*
X11476896Y-11919810D01*
X11491181Y-11862667D01*
X11505467Y-11834096D01*
X11519753Y-11819810D01*
X11548324Y-11805524D01*
X11776896Y-12076953D02*
X11791181Y-12091239D01*
X11776896Y-12105524D01*
X11762610Y-12091239D01*
X11776896Y-12076953D01*
X11776896Y-12105524D01*
X11976896Y-11805524D02*
X12005467Y-11805524D01*
X12034038Y-11819810D01*
X12048324Y-11834096D01*
X12062610Y-11862667D01*
X12076896Y-11919810D01*
X12076896Y-11991239D01*
X12062610Y-12048381D01*
X12048324Y-12076953D01*
X12034038Y-12091239D01*
X12005467Y-12105524D01*
X11976896Y-12105524D01*
X11948324Y-12091239D01*
X11934038Y-12076953D01*
X11919753Y-12048381D01*
X11905467Y-11991239D01*
X11905467Y-11919810D01*
X11919753Y-11862667D01*
X11934038Y-11834096D01*
X11948324Y-11819810D01*
X11976896Y-11805524D01*
X12362610Y-12105524D02*
X12191181Y-12105524D01*
X12276896Y-12105524D02*
X12276896Y-11805524D01*
X12248324Y-11848381D01*
X12219753Y-11876953D01*
X12191181Y-11891239D01*
X12634038Y-11805524D02*
X12491181Y-11805524D01*
X12476896Y-11948381D01*
X12491181Y-11934096D01*
X12519753Y-11919810D01*
X12591181Y-11919810D01*
X12619753Y-11934096D01*
X12634038Y-11948381D01*
X12648324Y-11976953D01*
X12648324Y-12048381D01*
X12634038Y-12076953D01*
X12619753Y-12091239D01*
X12591181Y-12105524D01*
X12519753Y-12105524D01*
X12491181Y-12091239D01*
X12476896Y-12076953D01*
X12748324Y-11805524D02*
X12948324Y-11805524D01*
X12819753Y-12105524D01*
X13048324Y-11805524D02*
X13048324Y-11862667D01*
X13162610Y-11805524D02*
X13162610Y-11862667D01*
X13605467Y-12219810D02*
X13591181Y-12205524D01*
X13562610Y-12162667D01*
X13548324Y-12134096D01*
X13534038Y-12091239D01*
X13519753Y-12019810D01*
X13519753Y-11962667D01*
X13534038Y-11891239D01*
X13548324Y-11848381D01*
X13562610Y-11819810D01*
X13591181Y-11776953D01*
X13605467Y-11762667D01*
X13705467Y-11834096D02*
X13719753Y-11819810D01*
X13748324Y-11805524D01*
X13819753Y-11805524D01*
X13848324Y-11819810D01*
X13862610Y-11834096D01*
X13876896Y-11862667D01*
X13876896Y-11891239D01*
X13862610Y-11934096D01*
X13691181Y-12105524D01*
X13876896Y-12105524D01*
X14134038Y-11905524D02*
X14134038Y-12105524D01*
X14062610Y-11791239D02*
X13991181Y-12005524D01*
X14176896Y-12005524D01*
X14519753Y-12105524D02*
X14519753Y-11805524D01*
X14648324Y-12105524D02*
X14648324Y-11948381D01*
X14634038Y-11919810D01*
X14605467Y-11905524D01*
X14562610Y-11905524D01*
X14534038Y-11919810D01*
X14519753Y-11934096D01*
X14834038Y-12105524D02*
X14805467Y-12091239D01*
X14791181Y-12076953D01*
X14776896Y-12048381D01*
X14776896Y-11962667D01*
X14791181Y-11934096D01*
X14805467Y-11919810D01*
X14834038Y-11905524D01*
X14876896Y-11905524D01*
X14905467Y-11919810D01*
X14919753Y-11934096D01*
X14934038Y-11962667D01*
X14934038Y-12048381D01*
X14919753Y-12076953D01*
X14905467Y-12091239D01*
X14876896Y-12105524D01*
X14834038Y-12105524D01*
X15105467Y-12105524D02*
X15076896Y-12091239D01*
X15062610Y-12062667D01*
X15062610Y-11805524D01*
X15334038Y-12091239D02*
X15305467Y-12105524D01*
X15248324Y-12105524D01*
X15219753Y-12091239D01*
X15205467Y-12062667D01*
X15205467Y-11948381D01*
X15219753Y-11919810D01*
X15248324Y-11905524D01*
X15305467Y-11905524D01*
X15334038Y-11919810D01*
X15348324Y-11948381D01*
X15348324Y-11976953D01*
X15205467Y-12005524D01*
X15462610Y-12091239D02*
X15491181Y-12105524D01*
X15548324Y-12105524D01*
X15576896Y-12091239D01*
X15591181Y-12062667D01*
X15591181Y-12048381D01*
X15576896Y-12019810D01*
X15548324Y-12005524D01*
X15505467Y-12005524D01*
X15476896Y-11991239D01*
X15462610Y-11962667D01*
X15462610Y-11948381D01*
X15476896Y-11919810D01*
X15505467Y-11905524D01*
X15548324Y-11905524D01*
X15576896Y-11919810D01*
X15691181Y-12219810D02*
X15705467Y-12205524D01*
X15734038Y-12162667D01*
X15748324Y-12134096D01*
X15762610Y-12091239D01*
X15776896Y-12019810D01*
X15776896Y-11962667D01*
X15762610Y-11891239D01*
X15748324Y-11848381D01*
X15734038Y-11819810D01*
X15705467Y-11776953D01*
X15691181Y-11762667D01*
X8347610Y-12365810D02*
G75*
G03*
X8347610Y-12365810I-25000J0D01*
G01*
X8691181Y-12201524D02*
X8719753Y-12201524D01*
X8748324Y-12215810D01*
X8762610Y-12230096D01*
X8776896Y-12258667D01*
X8791181Y-12315810D01*
X8791181Y-12387239D01*
X8776896Y-12444381D01*
X8762610Y-12472953D01*
X8748324Y-12487239D01*
X8719753Y-12501524D01*
X8691181Y-12501524D01*
X8662610Y-12487239D01*
X8648324Y-12472953D01*
X8634038Y-12444381D01*
X8619753Y-12387239D01*
X8619753Y-12315810D01*
X8634038Y-12258667D01*
X8648324Y-12230096D01*
X8662610Y-12215810D01*
X8691181Y-12201524D01*
X8919753Y-12472953D02*
X8934038Y-12487239D01*
X8919753Y-12501524D01*
X8905467Y-12487239D01*
X8919753Y-12472953D01*
X8919753Y-12501524D01*
X9205467Y-12201524D02*
X9062610Y-12201524D01*
X9048324Y-12344381D01*
X9062610Y-12330096D01*
X9091181Y-12315810D01*
X9162610Y-12315810D01*
X9191181Y-12330096D01*
X9205467Y-12344381D01*
X9219753Y-12372953D01*
X9219753Y-12444381D01*
X9205467Y-12472953D01*
X9191181Y-12487239D01*
X9162610Y-12501524D01*
X9091181Y-12501524D01*
X9062610Y-12487239D01*
X9048324Y-12472953D01*
X9405467Y-12201524D02*
X9434038Y-12201524D01*
X9462610Y-12215810D01*
X9476896Y-12230096D01*
X9491181Y-12258667D01*
X9505467Y-12315810D01*
X9505467Y-12387239D01*
X9491181Y-12444381D01*
X9476896Y-12472953D01*
X9462610Y-12487239D01*
X9434038Y-12501524D01*
X9405467Y-12501524D01*
X9376896Y-12487239D01*
X9362610Y-12472953D01*
X9348324Y-12444381D01*
X9334038Y-12387239D01*
X9334038Y-12315810D01*
X9348324Y-12258667D01*
X9362610Y-12230096D01*
X9376896Y-12215810D01*
X9405467Y-12201524D01*
X9691181Y-12201524D02*
X9719753Y-12201524D01*
X9748324Y-12215810D01*
X9762610Y-12230096D01*
X9776896Y-12258667D01*
X9791181Y-12315810D01*
X9791181Y-12387239D01*
X9776896Y-12444381D01*
X9762610Y-12472953D01*
X9748324Y-12487239D01*
X9719753Y-12501524D01*
X9691181Y-12501524D01*
X9662610Y-12487239D01*
X9648324Y-12472953D01*
X9634038Y-12444381D01*
X9619753Y-12387239D01*
X9619753Y-12315810D01*
X9634038Y-12258667D01*
X9648324Y-12230096D01*
X9662610Y-12215810D01*
X9691181Y-12201524D01*
X9919753Y-12501524D02*
X9919753Y-12301524D01*
X9919753Y-12330096D02*
X9934038Y-12315810D01*
X9962610Y-12301524D01*
X10005467Y-12301524D01*
X10034038Y-12315810D01*
X10048324Y-12344381D01*
X10048324Y-12501524D01*
X10048324Y-12344381D02*
X10062610Y-12315810D01*
X10091181Y-12301524D01*
X10134038Y-12301524D01*
X10162610Y-12315810D01*
X10176896Y-12344381D01*
X10176896Y-12501524D01*
X10319753Y-12501524D02*
X10319753Y-12301524D01*
X10319753Y-12330096D02*
X10334038Y-12315810D01*
X10362610Y-12301524D01*
X10405467Y-12301524D01*
X10434038Y-12315810D01*
X10448324Y-12344381D01*
X10448324Y-12501524D01*
X10448324Y-12344381D02*
X10462610Y-12315810D01*
X10491181Y-12301524D01*
X10534038Y-12301524D01*
X10562610Y-12315810D01*
X10576896Y-12344381D01*
X10576896Y-12501524D01*
X11162610Y-12187239D02*
X10905467Y-12572953D01*
X11548324Y-12201524D02*
X11576896Y-12201524D01*
X11605467Y-12215810D01*
X11619753Y-12230096D01*
X11634038Y-12258667D01*
X11648324Y-12315810D01*
X11648324Y-12387239D01*
X11634038Y-12444381D01*
X11619753Y-12472953D01*
X11605467Y-12487239D01*
X11576896Y-12501524D01*
X11548324Y-12501524D01*
X11519753Y-12487239D01*
X11505467Y-12472953D01*
X11491181Y-12444381D01*
X11476896Y-12387239D01*
X11476896Y-12315810D01*
X11491181Y-12258667D01*
X11505467Y-12230096D01*
X11519753Y-12215810D01*
X11548324Y-12201524D01*
X11776896Y-12472953D02*
X11791181Y-12487239D01*
X11776896Y-12501524D01*
X11762610Y-12487239D01*
X11776896Y-12472953D01*
X11776896Y-12501524D01*
X11976896Y-12201524D02*
X12005467Y-12201524D01*
X12034038Y-12215810D01*
X12048324Y-12230096D01*
X12062610Y-12258667D01*
X12076896Y-12315810D01*
X12076896Y-12387239D01*
X12062610Y-12444381D01*
X12048324Y-12472953D01*
X12034038Y-12487239D01*
X12005467Y-12501524D01*
X11976896Y-12501524D01*
X11948324Y-12487239D01*
X11934038Y-12472953D01*
X11919753Y-12444381D01*
X11905467Y-12387239D01*
X11905467Y-12315810D01*
X11919753Y-12258667D01*
X11934038Y-12230096D01*
X11948324Y-12215810D01*
X11976896Y-12201524D01*
X12362610Y-12501524D02*
X12191181Y-12501524D01*
X12276896Y-12501524D02*
X12276896Y-12201524D01*
X12248324Y-12244381D01*
X12219753Y-12272953D01*
X12191181Y-12287239D01*
X12505467Y-12501524D02*
X12562610Y-12501524D01*
X12591181Y-12487239D01*
X12605467Y-12472953D01*
X12634038Y-12430096D01*
X12648324Y-12372953D01*
X12648324Y-12258667D01*
X12634038Y-12230096D01*
X12619753Y-12215810D01*
X12591181Y-12201524D01*
X12534038Y-12201524D01*
X12505467Y-12215810D01*
X12491181Y-12230096D01*
X12476896Y-12258667D01*
X12476896Y-12330096D01*
X12491181Y-12358667D01*
X12505467Y-12372953D01*
X12534038Y-12387239D01*
X12591181Y-12387239D01*
X12619753Y-12372953D01*
X12634038Y-12358667D01*
X12648324Y-12330096D01*
X12748324Y-12201524D02*
X12948324Y-12201524D01*
X12819753Y-12501524D01*
X13048324Y-12201524D02*
X13048324Y-12258667D01*
X13162610Y-12201524D02*
X13162610Y-12258667D01*
X13605467Y-12615810D02*
X13591181Y-12601524D01*
X13562610Y-12558667D01*
X13548324Y-12530096D01*
X13534038Y-12487239D01*
X13519753Y-12415810D01*
X13519753Y-12358667D01*
X13534038Y-12287239D01*
X13548324Y-12244381D01*
X13562610Y-12215810D01*
X13591181Y-12172953D01*
X13605467Y-12158667D01*
X13876896Y-12501524D02*
X13705467Y-12501524D01*
X13791181Y-12501524D02*
X13791181Y-12201524D01*
X13762610Y-12244381D01*
X13734038Y-12272953D01*
X13705467Y-12287239D01*
X13976896Y-12201524D02*
X14176896Y-12201524D01*
X14048324Y-12501524D01*
X14519753Y-12501524D02*
X14519753Y-12201524D01*
X14648324Y-12501524D02*
X14648324Y-12344381D01*
X14634038Y-12315810D01*
X14605467Y-12301524D01*
X14562610Y-12301524D01*
X14534038Y-12315810D01*
X14519753Y-12330096D01*
X14834038Y-12501524D02*
X14805467Y-12487239D01*
X14791181Y-12472953D01*
X14776896Y-12444381D01*
X14776896Y-12358667D01*
X14791181Y-12330096D01*
X14805467Y-12315810D01*
X14834038Y-12301524D01*
X14876896Y-12301524D01*
X14905467Y-12315810D01*
X14919753Y-12330096D01*
X14934038Y-12358667D01*
X14934038Y-12444381D01*
X14919753Y-12472953D01*
X14905467Y-12487239D01*
X14876896Y-12501524D01*
X14834038Y-12501524D01*
X15105467Y-12501524D02*
X15076896Y-12487239D01*
X15062610Y-12458667D01*
X15062610Y-12201524D01*
X15334038Y-12487239D02*
X15305467Y-12501524D01*
X15248324Y-12501524D01*
X15219753Y-12487239D01*
X15205467Y-12458667D01*
X15205467Y-12344381D01*
X15219753Y-12315810D01*
X15248324Y-12301524D01*
X15305467Y-12301524D01*
X15334038Y-12315810D01*
X15348324Y-12344381D01*
X15348324Y-12372953D01*
X15205467Y-12401524D01*
X15462610Y-12487239D02*
X15491181Y-12501524D01*
X15548324Y-12501524D01*
X15576896Y-12487239D01*
X15591181Y-12458667D01*
X15591181Y-12444381D01*
X15576896Y-12415810D01*
X15548324Y-12401524D01*
X15505467Y-12401524D01*
X15476896Y-12387239D01*
X15462610Y-12358667D01*
X15462610Y-12344381D01*
X15476896Y-12315810D01*
X15505467Y-12301524D01*
X15548324Y-12301524D01*
X15576896Y-12315810D01*
X15691181Y-12615810D02*
X15705467Y-12601524D01*
X15734038Y-12558667D01*
X15748324Y-12530096D01*
X15762610Y-12487239D01*
X15776896Y-12415810D01*
X15776896Y-12358667D01*
X15762610Y-12287239D01*
X15748324Y-12244381D01*
X15734038Y-12215810D01*
X15705467Y-12172953D01*
X15691181Y-12158667D01*
X8197610Y-12611810D02*
X8197610Y-12911810D01*
X8047610Y-12761810D02*
X8347610Y-12761810D01*
X8605467Y-12597524D02*
X8791181Y-12597524D01*
X8691181Y-12711810D01*
X8734038Y-12711810D01*
X8762610Y-12726096D01*
X8776896Y-12740381D01*
X8791181Y-12768953D01*
X8791181Y-12840381D01*
X8776896Y-12868953D01*
X8762610Y-12883239D01*
X8734038Y-12897524D01*
X8648324Y-12897524D01*
X8619753Y-12883239D01*
X8605467Y-12868953D01*
X8919753Y-12868953D02*
X8934038Y-12883239D01*
X8919753Y-12897524D01*
X8905467Y-12883239D01*
X8919753Y-12868953D01*
X8919753Y-12897524D01*
X9119753Y-12597524D02*
X9148324Y-12597524D01*
X9176896Y-12611810D01*
X9191181Y-12626096D01*
X9205467Y-12654667D01*
X9219753Y-12711810D01*
X9219753Y-12783239D01*
X9205467Y-12840381D01*
X9191181Y-12868953D01*
X9176896Y-12883239D01*
X9148324Y-12897524D01*
X9119753Y-12897524D01*
X9091181Y-12883239D01*
X9076896Y-12868953D01*
X9062610Y-12840381D01*
X9048324Y-12783239D01*
X9048324Y-12711810D01*
X9062610Y-12654667D01*
X9076896Y-12626096D01*
X9091181Y-12611810D01*
X9119753Y-12597524D01*
X9405467Y-12597524D02*
X9434038Y-12597524D01*
X9462610Y-12611810D01*
X9476896Y-12626096D01*
X9491181Y-12654667D01*
X9505467Y-12711810D01*
X9505467Y-12783239D01*
X9491181Y-12840381D01*
X9476896Y-12868953D01*
X9462610Y-12883239D01*
X9434038Y-12897524D01*
X9405467Y-12897524D01*
X9376896Y-12883239D01*
X9362610Y-12868953D01*
X9348324Y-12840381D01*
X9334038Y-12783239D01*
X9334038Y-12711810D01*
X9348324Y-12654667D01*
X9362610Y-12626096D01*
X9376896Y-12611810D01*
X9405467Y-12597524D01*
X9691181Y-12597524D02*
X9719753Y-12597524D01*
X9748324Y-12611810D01*
X9762610Y-12626096D01*
X9776896Y-12654667D01*
X9791181Y-12711810D01*
X9791181Y-12783239D01*
X9776896Y-12840381D01*
X9762610Y-12868953D01*
X9748324Y-12883239D01*
X9719753Y-12897524D01*
X9691181Y-12897524D01*
X9662610Y-12883239D01*
X9648324Y-12868953D01*
X9634038Y-12840381D01*
X9619753Y-12783239D01*
X9619753Y-12711810D01*
X9634038Y-12654667D01*
X9648324Y-12626096D01*
X9662610Y-12611810D01*
X9691181Y-12597524D01*
X9919753Y-12897524D02*
X9919753Y-12697524D01*
X9919753Y-12726096D02*
X9934038Y-12711810D01*
X9962610Y-12697524D01*
X10005467Y-12697524D01*
X10034038Y-12711810D01*
X10048324Y-12740381D01*
X10048324Y-12897524D01*
X10048324Y-12740381D02*
X10062610Y-12711810D01*
X10091181Y-12697524D01*
X10134038Y-12697524D01*
X10162610Y-12711810D01*
X10176896Y-12740381D01*
X10176896Y-12897524D01*
X10319753Y-12897524D02*
X10319753Y-12697524D01*
X10319753Y-12726096D02*
X10334038Y-12711810D01*
X10362610Y-12697524D01*
X10405467Y-12697524D01*
X10434038Y-12711810D01*
X10448324Y-12740381D01*
X10448324Y-12897524D01*
X10448324Y-12740381D02*
X10462610Y-12711810D01*
X10491181Y-12697524D01*
X10534038Y-12697524D01*
X10562610Y-12711810D01*
X10576896Y-12740381D01*
X10576896Y-12897524D01*
X11162610Y-12583239D02*
X10905467Y-12968953D01*
X11548324Y-12597524D02*
X11576896Y-12597524D01*
X11605467Y-12611810D01*
X11619753Y-12626096D01*
X11634038Y-12654667D01*
X11648324Y-12711810D01*
X11648324Y-12783239D01*
X11634038Y-12840381D01*
X11619753Y-12868953D01*
X11605467Y-12883239D01*
X11576896Y-12897524D01*
X11548324Y-12897524D01*
X11519753Y-12883239D01*
X11505467Y-12868953D01*
X11491181Y-12840381D01*
X11476896Y-12783239D01*
X11476896Y-12711810D01*
X11491181Y-12654667D01*
X11505467Y-12626096D01*
X11519753Y-12611810D01*
X11548324Y-12597524D01*
X11776896Y-12868953D02*
X11791181Y-12883239D01*
X11776896Y-12897524D01*
X11762610Y-12883239D01*
X11776896Y-12868953D01*
X11776896Y-12897524D01*
X12076896Y-12897524D02*
X11905467Y-12897524D01*
X11991181Y-12897524D02*
X11991181Y-12597524D01*
X11962610Y-12640381D01*
X11934038Y-12668953D01*
X11905467Y-12683239D01*
X12362610Y-12897524D02*
X12191181Y-12897524D01*
X12276896Y-12897524D02*
X12276896Y-12597524D01*
X12248324Y-12640381D01*
X12219753Y-12668953D01*
X12191181Y-12683239D01*
X12534038Y-12726096D02*
X12505467Y-12711810D01*
X12491181Y-12697524D01*
X12476896Y-12668953D01*
X12476896Y-12654667D01*
X12491181Y-12626096D01*
X12505467Y-12611810D01*
X12534038Y-12597524D01*
X12591181Y-12597524D01*
X12619753Y-12611810D01*
X12634038Y-12626096D01*
X12648324Y-12654667D01*
X12648324Y-12668953D01*
X12634038Y-12697524D01*
X12619753Y-12711810D01*
X12591181Y-12726096D01*
X12534038Y-12726096D01*
X12505467Y-12740381D01*
X12491181Y-12754667D01*
X12476896Y-12783239D01*
X12476896Y-12840381D01*
X12491181Y-12868953D01*
X12505467Y-12883239D01*
X12534038Y-12897524D01*
X12591181Y-12897524D01*
X12619753Y-12883239D01*
X12634038Y-12868953D01*
X12648324Y-12840381D01*
X12648324Y-12783239D01*
X12634038Y-12754667D01*
X12619753Y-12740381D01*
X12591181Y-12726096D01*
X12934038Y-12897524D02*
X12762610Y-12897524D01*
X12848324Y-12897524D02*
X12848324Y-12597524D01*
X12819753Y-12640381D01*
X12791181Y-12668953D01*
X12762610Y-12683239D01*
X13048324Y-12597524D02*
X13048324Y-12654667D01*
X13162610Y-12597524D02*
X13162610Y-12654667D01*
X13605467Y-13011810D02*
X13591181Y-12997524D01*
X13562610Y-12954667D01*
X13548324Y-12926096D01*
X13534038Y-12883239D01*
X13519753Y-12811810D01*
X13519753Y-12754667D01*
X13534038Y-12683239D01*
X13548324Y-12640381D01*
X13562610Y-12611810D01*
X13591181Y-12568953D01*
X13605467Y-12554667D01*
X13691181Y-12597524D02*
X13876896Y-12597524D01*
X13776896Y-12711810D01*
X13819753Y-12711810D01*
X13848324Y-12726096D01*
X13862610Y-12740381D01*
X13876896Y-12768953D01*
X13876896Y-12840381D01*
X13862610Y-12868953D01*
X13848324Y-12883239D01*
X13819753Y-12897524D01*
X13734038Y-12897524D01*
X13705467Y-12883239D01*
X13691181Y-12868953D01*
X14234038Y-12897524D02*
X14234038Y-12597524D01*
X14362610Y-12897524D02*
X14362610Y-12740381D01*
X14348324Y-12711810D01*
X14319753Y-12697524D01*
X14276896Y-12697524D01*
X14248324Y-12711810D01*
X14234038Y-12726096D01*
X14548324Y-12897524D02*
X14519753Y-12883239D01*
X14505467Y-12868953D01*
X14491181Y-12840381D01*
X14491181Y-12754667D01*
X14505467Y-12726096D01*
X14519753Y-12711810D01*
X14548324Y-12697524D01*
X14591181Y-12697524D01*
X14619753Y-12711810D01*
X14634038Y-12726096D01*
X14648324Y-12754667D01*
X14648324Y-12840381D01*
X14634038Y-12868953D01*
X14619753Y-12883239D01*
X14591181Y-12897524D01*
X14548324Y-12897524D01*
X14819753Y-12897524D02*
X14791181Y-12883239D01*
X14776896Y-12854667D01*
X14776896Y-12597524D01*
X15048324Y-12883239D02*
X15019753Y-12897524D01*
X14962610Y-12897524D01*
X14934038Y-12883239D01*
X14919753Y-12854667D01*
X14919753Y-12740381D01*
X14934038Y-12711810D01*
X14962610Y-12697524D01*
X15019753Y-12697524D01*
X15048324Y-12711810D01*
X15062610Y-12740381D01*
X15062610Y-12768953D01*
X14919753Y-12797524D01*
X15176896Y-12883239D02*
X15205467Y-12897524D01*
X15262610Y-12897524D01*
X15291181Y-12883239D01*
X15305467Y-12854667D01*
X15305467Y-12840381D01*
X15291181Y-12811810D01*
X15262610Y-12797524D01*
X15219753Y-12797524D01*
X15191181Y-12783239D01*
X15176896Y-12754667D01*
X15176896Y-12740381D01*
X15191181Y-12711810D01*
X15219753Y-12697524D01*
X15262610Y-12697524D01*
X15291181Y-12711810D01*
X15405467Y-13011810D02*
X15419753Y-12997524D01*
X15448324Y-12954667D01*
X15462610Y-12926096D01*
X15476896Y-12883239D01*
X15491181Y-12811810D01*
X15491181Y-12754667D01*
X15476896Y-12683239D01*
X15462610Y-12640381D01*
X15448324Y-12611810D01*
X15419753Y-12568953D01*
X15405467Y-12554667D01*
M02*
