G04 #@! TF.GenerationSoftware,KiCad,Pcbnew,5.1.10-88a1d61d58~88~ubuntu18.04.1*
G04 #@! TF.CreationDate,2021-10-01T18:12:45+02:00*
G04 #@! TF.ProjectId,signal_processing,7369676e-616c-45f7-9072-6f6365737369,rev?*
G04 #@! TF.SameCoordinates,Original*
G04 #@! TF.FileFunction,Copper,L2,Bot*
G04 #@! TF.FilePolarity,Positive*
%FSLAX46Y46*%
G04 Gerber Fmt 4.6, Leading zero omitted, Abs format (unit mm)*
G04 Created by KiCad (PCBNEW 5.1.10-88a1d61d58~88~ubuntu18.04.1) date 2021-10-01 18:12:45*
%MOMM*%
%LPD*%
G01*
G04 APERTURE LIST*
G04 #@! TA.AperFunction,SMDPad,CuDef*
%ADD10R,5.000000X1.600000*%
G04 #@! TD*
G04 #@! TA.AperFunction,SMDPad,CuDef*
%ADD11R,1.600000X5.000000*%
G04 #@! TD*
G04 #@! TA.AperFunction,ViaPad*
%ADD12C,0.800000*%
G04 #@! TD*
G04 #@! TA.AperFunction,ViaPad*
%ADD13C,0.900000*%
G04 #@! TD*
G04 #@! TA.AperFunction,ViaPad*
%ADD14C,5.000000*%
G04 #@! TD*
G04 #@! TA.AperFunction,Conductor*
%ADD15C,0.650000*%
G04 #@! TD*
G04 #@! TA.AperFunction,Conductor*
%ADD16C,0.850000*%
G04 #@! TD*
G04 #@! TA.AperFunction,Conductor*
%ADD17C,1.050000*%
G04 #@! TD*
G04 #@! TA.AperFunction,Conductor*
%ADD18C,0.400000*%
G04 #@! TD*
G04 #@! TA.AperFunction,Conductor*
%ADD19C,0.130000*%
G04 #@! TD*
G04 #@! TA.AperFunction,Conductor*
%ADD20C,0.100000*%
G04 #@! TD*
G04 APERTURE END LIST*
D10*
X176128000Y-109879000D03*
X176128000Y-115419000D03*
D11*
X128881000Y-120502000D03*
X123341000Y-120502000D03*
D10*
X118110000Y-115419000D03*
X118110000Y-109879000D03*
D12*
X141160500Y-110629700D03*
X147421600Y-115519200D03*
X152527000Y-114744500D03*
X164084000Y-113157000D03*
X165798500Y-113220500D03*
X166354760Y-102864920D03*
X163967160Y-102616000D03*
X160842960Y-102595680D03*
X147515580Y-98856800D03*
X137706100Y-98755200D03*
D13*
X138366500Y-92964000D03*
X173863000Y-100139500D03*
X173418500Y-100965000D03*
X149098000Y-118491000D03*
D14*
X175514000Y-90170000D03*
X175514000Y-119888000D03*
X118618000Y-119888000D03*
X118618000Y-90170000D03*
D13*
X123888500Y-89535000D03*
X134683500Y-88265000D03*
X148272500Y-88265000D03*
X162750500Y-88265000D03*
X162242500Y-94170500D03*
X157988000Y-92964000D03*
X159321500Y-96075500D03*
X133921500Y-94488000D03*
X130746500Y-94551500D03*
X119634000Y-101600000D03*
X119507000Y-107378500D03*
X122428000Y-115379500D03*
X134112000Y-120904000D03*
X141986000Y-120650000D03*
X149606000Y-120840500D03*
X157670500Y-120586500D03*
X166433500Y-120396000D03*
X170878500Y-118618000D03*
X172339000Y-108902500D03*
X176276000Y-100393500D03*
X176784000Y-107759500D03*
X177482500Y-100393500D03*
X175133000Y-100393500D03*
X157861000Y-108458000D03*
X153670000Y-108521500D03*
X151257000Y-104013000D03*
X155194000Y-102425500D03*
X146304000Y-113220500D03*
X136017000Y-116586000D03*
X128397000Y-116586000D03*
X132651500Y-111887000D03*
X124904500Y-110236000D03*
D12*
X139382500Y-108077000D03*
X131572000Y-101790500D03*
X127762000Y-104838500D03*
X142621000Y-101686360D03*
X151193500Y-110045500D03*
X139382500Y-96456500D03*
X136398000Y-94043500D03*
X147637500Y-94615000D03*
X150749000Y-92646500D03*
X154241500Y-92964000D03*
X153479500Y-99250500D03*
X151193500Y-101854000D03*
X167386000Y-97599500D03*
X166624000Y-93091000D03*
X166497000Y-94361000D03*
X165618160Y-102605840D03*
X160464500Y-99377500D03*
X162369500Y-118110000D03*
X164782500Y-105918000D03*
X168656000Y-105346500D03*
X146685000Y-110744000D03*
X154559000Y-115570000D03*
X123812300Y-100901500D03*
X117360700Y-100495100D03*
X127762000Y-105587800D03*
X131572000Y-100965000D03*
X137274300Y-102476300D03*
X142976600Y-99275900D03*
X150134320Y-95920560D03*
X166364920Y-97520760D03*
X159296100Y-99377500D03*
X177932080Y-101945440D03*
X172339000Y-113855500D03*
X172402500Y-115824000D03*
X140335000Y-116636800D03*
X133769100Y-107759500D03*
X167398700Y-90690700D03*
D13*
X168656000Y-106553000D03*
X162814000Y-91821000D03*
X165227000Y-91313000D03*
X127762000Y-107315000D03*
X124968000Y-107188000D03*
X167767000Y-106553000D03*
X162814000Y-92710000D03*
X162052000Y-92202000D03*
X165227000Y-92202000D03*
X165989000Y-91694000D03*
X123952000Y-106235500D03*
X123952000Y-107188000D03*
X128651000Y-107315000D03*
X129540000Y-107315000D03*
X168656000Y-97409000D03*
X169545000Y-97409000D03*
X169100500Y-98234500D03*
X122555000Y-104648000D03*
X134112000Y-104648000D03*
X123317000Y-109728000D03*
X124587000Y-116332000D03*
X148145500Y-105156000D03*
X148780500Y-105854500D03*
X163258500Y-104838500D03*
X164211000Y-104838500D03*
X162306000Y-104838500D03*
X172910500Y-100139500D03*
X139319000Y-92964000D03*
X121920000Y-104013000D03*
X121666000Y-104902000D03*
X122555000Y-110236000D03*
X122428000Y-109345000D03*
X125476000Y-116332000D03*
X148209000Y-118491000D03*
X145288000Y-111760000D03*
X145288000Y-118364000D03*
X162750500Y-111633000D03*
X170370500Y-111633000D03*
X147574000Y-100393500D03*
X169672000Y-103441500D03*
X169672000Y-104952800D03*
X157226000Y-95123000D03*
D12*
X149907801Y-96964500D03*
X131318000Y-99504500D03*
X164719000Y-108839000D03*
X160782000Y-110299500D03*
D15*
X123991794Y-106275294D02*
X123952000Y-106235500D01*
D16*
X123952000Y-106235500D02*
X123952000Y-107188000D01*
X124968000Y-107188000D02*
X123952000Y-107188000D01*
X124015500Y-106235500D02*
X124968000Y-107188000D01*
X123952000Y-106235500D02*
X124015500Y-106235500D01*
X124396500Y-106680000D02*
X123952000Y-106235500D01*
X127762000Y-106680000D02*
X124396500Y-106680000D01*
X129540000Y-106680000D02*
X127762000Y-106680000D01*
D17*
X167710849Y-107244151D02*
X167894000Y-107061000D01*
X147285946Y-106680000D02*
X147850097Y-107244151D01*
X172071410Y-104682211D02*
X172071410Y-102094410D01*
X169509469Y-107244151D02*
X172071410Y-104682211D01*
X147850097Y-107244151D02*
X166045151Y-107244151D01*
X166045151Y-107244151D02*
X169509469Y-107244151D01*
X166045151Y-107244151D02*
X167710849Y-107244151D01*
X169164000Y-99187000D02*
X172071410Y-102094410D01*
X169164000Y-97663000D02*
X169164000Y-99187000D01*
X162433000Y-92202000D02*
X162814000Y-91821000D01*
X162052000Y-92202000D02*
X162433000Y-92202000D01*
X162814000Y-92710000D02*
X162814000Y-91821000D01*
X165227000Y-91313000D02*
X165227000Y-92202000D01*
X165608000Y-91694000D02*
X165227000Y-91313000D01*
X165989000Y-91694000D02*
X165608000Y-91694000D01*
X165989000Y-91694000D02*
X164465000Y-91694000D01*
X163957000Y-92202000D02*
X162052000Y-92202000D01*
X164465000Y-91694000D02*
X163957000Y-92202000D01*
X127762000Y-107315000D02*
X129540000Y-107315000D01*
X127762000Y-107315000D02*
X127127000Y-106680000D01*
X124396500Y-106680000D02*
X127127000Y-106680000D01*
X129794000Y-107315000D02*
X130429000Y-106680000D01*
X129540000Y-107315000D02*
X129794000Y-107315000D01*
X130429000Y-106680000D02*
X147285946Y-106680000D01*
X127127000Y-106680000D02*
X130429000Y-106680000D01*
X168656000Y-97409000D02*
X169545000Y-97409000D01*
X169100500Y-97853500D02*
X168656000Y-97409000D01*
X169100500Y-98234500D02*
X169100500Y-97853500D01*
X169100500Y-97853500D02*
X169545000Y-97409000D01*
X168656000Y-98679000D02*
X169164000Y-99187000D01*
X168656000Y-97409000D02*
X168656000Y-98679000D01*
X124587000Y-115443000D02*
X125476000Y-115443000D01*
X140698446Y-115443000D02*
X144746847Y-119491401D01*
X125476000Y-115443000D02*
X140698446Y-115443000D01*
X147589599Y-119491401D02*
X148320401Y-119491401D01*
X144746847Y-119491401D02*
X147589599Y-119491401D01*
D15*
X149098000Y-119253000D02*
X148859599Y-119491401D01*
X149098000Y-118491000D02*
X149098000Y-119253000D01*
D17*
X148320401Y-119491401D02*
X148859599Y-119491401D01*
D15*
X149098000Y-118491000D02*
X148590000Y-118491000D01*
X149098000Y-118491000D02*
X149098000Y-118713802D01*
D17*
X121920000Y-104648000D02*
X121666000Y-104902000D01*
X121920000Y-104013000D02*
X121920000Y-104648000D01*
X122301000Y-104902000D02*
X122555000Y-104648000D01*
X121666000Y-104902000D02*
X122301000Y-104902000D01*
X121920000Y-104013000D02*
X122555000Y-104648000D01*
X121666000Y-104267000D02*
X121920000Y-104013000D01*
X121666000Y-104902000D02*
X121666000Y-104267000D01*
X122428000Y-110109000D02*
X122555000Y-110236000D01*
X122428000Y-109345000D02*
X122428000Y-110109000D01*
X122934000Y-109345000D02*
X123317000Y-109728000D01*
X122428000Y-109345000D02*
X122934000Y-109345000D01*
X122809000Y-110236000D02*
X123317000Y-109728000D01*
X122555000Y-110236000D02*
X122809000Y-110236000D01*
X122428000Y-109345000D02*
X122428000Y-113284000D01*
X122428000Y-113284000D02*
X123850400Y-114706400D01*
X123850400Y-114706400D02*
X124587000Y-115443000D01*
X122557000Y-113413000D02*
X123850400Y-114706400D01*
X124587000Y-116332000D02*
X124587000Y-115443000D01*
X125476000Y-116332000D02*
X124587000Y-116332000D01*
X125476000Y-116332000D02*
X125476000Y-115443000D01*
X149098000Y-118840802D02*
X149748599Y-119491401D01*
X149098000Y-118491000D02*
X149098000Y-118840802D01*
X148859599Y-119491401D02*
X149748599Y-119491401D01*
X149098000Y-118491000D02*
X148209000Y-118491000D01*
X148209000Y-118872000D02*
X147589599Y-119491401D01*
X148209000Y-118491000D02*
X148209000Y-118872000D01*
X173273820Y-100502820D02*
X172910500Y-100139500D01*
X173273820Y-105180265D02*
X173273820Y-100502820D01*
X168537684Y-109916401D02*
X173273820Y-105180265D01*
X162798545Y-109916401D02*
X168537684Y-109916401D01*
X153223545Y-119491401D02*
X162798545Y-109916401D01*
X149748599Y-119491401D02*
X150701099Y-119491401D01*
X173418500Y-100584000D02*
X173863000Y-100139500D01*
X173418500Y-100965000D02*
X173418500Y-100584000D01*
X172910500Y-100139500D02*
X173863000Y-100139500D01*
X173863000Y-100520500D02*
X173418500Y-100965000D01*
X173863000Y-100139500D02*
X173863000Y-100520500D01*
X162306000Y-104838500D02*
X164211000Y-104838500D01*
X164211000Y-104838500D02*
X164211000Y-104965500D01*
X164211000Y-104965500D02*
X163576000Y-105600500D01*
X122809000Y-103759000D02*
X121666000Y-104902000D01*
X122174000Y-103759000D02*
X121920000Y-104013000D01*
X122809000Y-103759000D02*
X122174000Y-103759000D01*
X122555000Y-104013000D02*
X122809000Y-103759000D01*
X122555000Y-104648000D02*
X122555000Y-104013000D01*
X134112000Y-104140000D02*
X134493000Y-103759000D01*
X134112000Y-104648000D02*
X134112000Y-104140000D01*
X147955000Y-103759000D02*
X134493000Y-103759000D01*
D16*
X148145500Y-105219500D02*
X148780500Y-105854500D01*
X148145500Y-105156000D02*
X148145500Y-105219500D01*
D17*
X149796500Y-105600500D02*
X147955000Y-103759000D01*
D16*
X148145500Y-103949500D02*
X147955000Y-103759000D01*
X148145500Y-105156000D02*
X148145500Y-103949500D01*
X149034500Y-105600500D02*
X148780500Y-105854500D01*
X149796500Y-105600500D02*
X149034500Y-105600500D01*
X162306000Y-105092500D02*
X161798000Y-105600500D01*
X162306000Y-104838500D02*
X162306000Y-105092500D01*
D17*
X161798000Y-105600500D02*
X149796500Y-105600500D01*
X163576000Y-105600500D02*
X161798000Y-105600500D01*
X128968500Y-103759000D02*
X128968500Y-94551500D01*
X134493000Y-103759000D02*
X128968500Y-103759000D01*
X128968500Y-103759000D02*
X122809000Y-103759000D01*
X128968500Y-94551500D02*
X130556000Y-92964000D01*
X130556000Y-92964000D02*
X139319000Y-92964000D01*
X150701099Y-119491401D02*
X153223545Y-119491401D01*
D15*
X145288000Y-118364000D02*
X145288000Y-111760000D01*
X162750500Y-111633000D02*
X169354500Y-111633000D01*
X169354500Y-111633000D02*
X170370500Y-111633000D01*
X168211500Y-103441500D02*
X169672000Y-103441500D01*
X165163500Y-100393500D02*
X168211500Y-103441500D01*
X147574000Y-100393500D02*
X165163500Y-100393500D01*
X169672000Y-104952800D02*
X170383200Y-104952800D01*
X170383200Y-104952800D02*
X171069000Y-104267000D01*
X171069000Y-104267000D02*
X171069000Y-103465946D01*
X162726054Y-95123000D02*
X157226000Y-95123000D01*
X171069000Y-103465946D02*
X162726054Y-95123000D01*
X149424900Y-97447401D02*
X149907801Y-96964500D01*
X133375099Y-97447401D02*
X149424900Y-97447401D01*
X131318000Y-99504500D02*
X133375099Y-97447401D01*
D18*
X162242500Y-108839000D02*
X164719000Y-108839000D01*
X160591500Y-110310516D02*
X160665327Y-110384343D01*
X160591500Y-110299500D02*
X160591500Y-110310516D01*
X160782000Y-110299500D02*
X162242500Y-108839000D01*
D19*
X178415100Y-108758596D02*
X176272750Y-108760000D01*
X176193000Y-108839750D01*
X176193000Y-109814000D01*
X176213000Y-109814000D01*
X176213000Y-109944000D01*
X176193000Y-109944000D01*
X176193000Y-110918250D01*
X176272750Y-110998000D01*
X178415100Y-110999404D01*
X178415100Y-114298596D01*
X176272750Y-114300000D01*
X176193000Y-114379750D01*
X176193000Y-115354000D01*
X176213000Y-115354000D01*
X176213000Y-115484000D01*
X176193000Y-115484000D01*
X176193000Y-116458250D01*
X176272750Y-116538000D01*
X178415100Y-116539404D01*
X178415100Y-122783600D01*
X130001401Y-122783600D01*
X130000000Y-120646750D01*
X129920250Y-120567000D01*
X128946000Y-120567000D01*
X128946000Y-120587000D01*
X128816000Y-120587000D01*
X128816000Y-120567000D01*
X127841750Y-120567000D01*
X127762000Y-120646750D01*
X127760599Y-122783600D01*
X124461401Y-122783600D01*
X124460000Y-120646750D01*
X124380250Y-120567000D01*
X123406000Y-120567000D01*
X123406000Y-120587000D01*
X123276000Y-120587000D01*
X123276000Y-120567000D01*
X122301750Y-120567000D01*
X122222000Y-120646750D01*
X122220599Y-122783600D01*
X115793100Y-122783600D01*
X115793100Y-118002000D01*
X122220456Y-118002000D01*
X122222000Y-120357250D01*
X122301750Y-120437000D01*
X123276000Y-120437000D01*
X123276000Y-117762750D01*
X123406000Y-117762750D01*
X123406000Y-120437000D01*
X124380250Y-120437000D01*
X124460000Y-120357250D01*
X124461544Y-118002000D01*
X127760456Y-118002000D01*
X127762000Y-120357250D01*
X127841750Y-120437000D01*
X128816000Y-120437000D01*
X128816000Y-117762750D01*
X128946000Y-117762750D01*
X128946000Y-120437000D01*
X129920250Y-120437000D01*
X130000000Y-120357250D01*
X130001544Y-118002000D01*
X129995385Y-117939465D01*
X129977144Y-117879333D01*
X129947523Y-117823915D01*
X129907659Y-117775341D01*
X129859085Y-117735477D01*
X129803667Y-117705856D01*
X129743535Y-117687615D01*
X129681000Y-117681456D01*
X129025750Y-117683000D01*
X128946000Y-117762750D01*
X128816000Y-117762750D01*
X128736250Y-117683000D01*
X128081000Y-117681456D01*
X128018465Y-117687615D01*
X127958333Y-117705856D01*
X127902915Y-117735477D01*
X127854341Y-117775341D01*
X127814477Y-117823915D01*
X127784856Y-117879333D01*
X127766615Y-117939465D01*
X127760456Y-118002000D01*
X124461544Y-118002000D01*
X124455385Y-117939465D01*
X124437144Y-117879333D01*
X124407523Y-117823915D01*
X124367659Y-117775341D01*
X124319085Y-117735477D01*
X124263667Y-117705856D01*
X124203535Y-117687615D01*
X124141000Y-117681456D01*
X123485750Y-117683000D01*
X123406000Y-117762750D01*
X123276000Y-117762750D01*
X123196250Y-117683000D01*
X122541000Y-117681456D01*
X122478465Y-117687615D01*
X122418333Y-117705856D01*
X122362915Y-117735477D01*
X122314341Y-117775341D01*
X122274477Y-117823915D01*
X122244856Y-117879333D01*
X122226615Y-117939465D01*
X122220456Y-118002000D01*
X115793100Y-118002000D01*
X115793100Y-116539424D01*
X117965250Y-116538000D01*
X118045000Y-116458250D01*
X118045000Y-115484000D01*
X118175000Y-115484000D01*
X118175000Y-116458250D01*
X118254750Y-116538000D01*
X120610000Y-116539544D01*
X120672535Y-116533385D01*
X120732667Y-116515144D01*
X120788085Y-116485523D01*
X120836659Y-116445659D01*
X120876523Y-116397085D01*
X120906144Y-116341667D01*
X120924385Y-116281535D01*
X120930544Y-116219000D01*
X120929000Y-115563750D01*
X120849250Y-115484000D01*
X118175000Y-115484000D01*
X118045000Y-115484000D01*
X118025000Y-115484000D01*
X118025000Y-115354000D01*
X118045000Y-115354000D01*
X118045000Y-114379750D01*
X118175000Y-114379750D01*
X118175000Y-115354000D01*
X120849250Y-115354000D01*
X120929000Y-115274250D01*
X120930544Y-114619000D01*
X120924385Y-114556465D01*
X120906144Y-114496333D01*
X120876523Y-114440915D01*
X120836659Y-114392341D01*
X120788085Y-114352477D01*
X120732667Y-114322856D01*
X120672535Y-114304615D01*
X120610000Y-114298456D01*
X118254750Y-114300000D01*
X118175000Y-114379750D01*
X118045000Y-114379750D01*
X117965250Y-114300000D01*
X115793100Y-114298576D01*
X115793100Y-110999424D01*
X117965250Y-110998000D01*
X118045000Y-110918250D01*
X118045000Y-109944000D01*
X118175000Y-109944000D01*
X118175000Y-110918250D01*
X118254750Y-110998000D01*
X120610000Y-110999544D01*
X120672535Y-110993385D01*
X120732667Y-110975144D01*
X120788085Y-110945523D01*
X120836659Y-110905659D01*
X120876523Y-110857085D01*
X120906144Y-110801667D01*
X120924385Y-110741535D01*
X120930544Y-110679000D01*
X120929000Y-110023750D01*
X120849250Y-109944000D01*
X118175000Y-109944000D01*
X118045000Y-109944000D01*
X118025000Y-109944000D01*
X118025000Y-109814000D01*
X118045000Y-109814000D01*
X118045000Y-108839750D01*
X118175000Y-108839750D01*
X118175000Y-109814000D01*
X120849250Y-109814000D01*
X120929000Y-109734250D01*
X120930544Y-109079000D01*
X120924385Y-109016465D01*
X120906144Y-108956333D01*
X120876523Y-108900915D01*
X120836659Y-108852341D01*
X120788085Y-108812477D01*
X120732667Y-108782856D01*
X120672535Y-108764615D01*
X120610000Y-108758456D01*
X118254750Y-108760000D01*
X118175000Y-108839750D01*
X118045000Y-108839750D01*
X117965250Y-108760000D01*
X115793100Y-108758576D01*
X115793100Y-104902000D01*
X120920008Y-104902000D01*
X120934342Y-105047536D01*
X120976793Y-105187479D01*
X121045730Y-105316451D01*
X121125679Y-105413869D01*
X121138504Y-105429496D01*
X121251549Y-105522270D01*
X121380521Y-105591207D01*
X121520464Y-105633658D01*
X121666000Y-105647992D01*
X121702470Y-105644400D01*
X122264537Y-105644400D01*
X122301000Y-105647991D01*
X122337463Y-105644400D01*
X122337470Y-105644400D01*
X122446536Y-105633658D01*
X122586479Y-105591207D01*
X122715451Y-105522270D01*
X122828496Y-105429496D01*
X122851749Y-105401162D01*
X123054168Y-105198744D01*
X123082496Y-105175496D01*
X123175270Y-105062451D01*
X123244207Y-104933479D01*
X123284081Y-104802031D01*
X123286658Y-104793537D01*
X123289660Y-104763057D01*
X123300992Y-104648000D01*
X123297400Y-104611530D01*
X123297400Y-104501400D01*
X128932030Y-104501400D01*
X128968500Y-104504992D01*
X129004970Y-104501400D01*
X133369600Y-104501400D01*
X133369600Y-104684469D01*
X133380342Y-104793535D01*
X133422793Y-104933478D01*
X133491730Y-105062450D01*
X133584504Y-105175496D01*
X133697549Y-105268270D01*
X133826521Y-105337207D01*
X133966464Y-105379658D01*
X134112000Y-105393992D01*
X134257535Y-105379658D01*
X134397478Y-105337207D01*
X134526450Y-105268270D01*
X134639496Y-105175496D01*
X134732270Y-105062451D01*
X134801207Y-104933479D01*
X134843658Y-104793536D01*
X134854400Y-104684470D01*
X134854400Y-104501400D01*
X147503101Y-104501400D01*
X147503100Y-104964584D01*
X147478100Y-105090267D01*
X147478100Y-105221733D01*
X147503748Y-105350673D01*
X147541994Y-105443006D01*
X147549128Y-105466525D01*
X147608780Y-105578125D01*
X147689058Y-105675943D01*
X147713567Y-105696057D01*
X148190903Y-106173393D01*
X148262097Y-106279943D01*
X148355057Y-106372903D01*
X148464368Y-106445942D01*
X148585827Y-106496252D01*
X148613472Y-106501751D01*
X148157609Y-106501751D01*
X147836696Y-106180839D01*
X147813442Y-106152504D01*
X147700397Y-106059730D01*
X147571425Y-105990793D01*
X147431482Y-105948342D01*
X147322416Y-105937600D01*
X147322409Y-105937600D01*
X147285946Y-105934009D01*
X147249483Y-105937600D01*
X130465470Y-105937600D01*
X130429000Y-105934008D01*
X130392530Y-105937600D01*
X127163463Y-105937600D01*
X127127000Y-105934009D01*
X127090537Y-105937600D01*
X124626090Y-105937600D01*
X124492061Y-105803571D01*
X124471943Y-105779057D01*
X124374125Y-105698780D01*
X124262525Y-105639128D01*
X124239006Y-105631994D01*
X124146673Y-105593748D01*
X124017733Y-105568100D01*
X123886267Y-105568100D01*
X123757327Y-105593748D01*
X123635868Y-105644058D01*
X123526557Y-105717097D01*
X123433597Y-105810057D01*
X123360558Y-105919368D01*
X123310248Y-106040827D01*
X123284600Y-106169767D01*
X123284600Y-106301233D01*
X123309600Y-106426916D01*
X123309601Y-106996581D01*
X123284600Y-107122267D01*
X123284600Y-107253733D01*
X123310248Y-107382673D01*
X123360558Y-107504132D01*
X123433597Y-107613443D01*
X123526557Y-107706403D01*
X123635868Y-107779442D01*
X123757327Y-107829752D01*
X123886267Y-107855400D01*
X124017733Y-107855400D01*
X124143415Y-107830400D01*
X124776585Y-107830400D01*
X124902267Y-107855400D01*
X125033733Y-107855400D01*
X125162673Y-107829752D01*
X125284132Y-107779442D01*
X125393443Y-107706403D01*
X125486403Y-107613443D01*
X125559442Y-107504132D01*
X125593297Y-107422400D01*
X126819489Y-107422400D01*
X127211254Y-107814166D01*
X127234504Y-107842496D01*
X127262832Y-107865744D01*
X127347549Y-107935270D01*
X127476521Y-108004207D01*
X127616464Y-108046658D01*
X127762000Y-108060992D01*
X127798470Y-108057400D01*
X129757537Y-108057400D01*
X129794000Y-108060991D01*
X129830463Y-108057400D01*
X129830470Y-108057400D01*
X129939536Y-108046658D01*
X130079479Y-108004207D01*
X130208451Y-107935270D01*
X130321496Y-107842496D01*
X130344750Y-107814161D01*
X130736512Y-107422400D01*
X146978435Y-107422400D01*
X147299351Y-107743317D01*
X147322601Y-107771647D01*
X147435646Y-107864421D01*
X147514262Y-107906442D01*
X147564618Y-107933358D01*
X147704560Y-107975809D01*
X147850097Y-107990143D01*
X147886567Y-107986551D01*
X167674386Y-107986551D01*
X167710849Y-107990142D01*
X167747312Y-107986551D01*
X169417623Y-107986551D01*
X168230173Y-109174001D01*
X165237699Y-109174001D01*
X165266132Y-109131448D01*
X165312673Y-109019089D01*
X165336400Y-108899809D01*
X165336400Y-108778191D01*
X165312673Y-108658911D01*
X165266132Y-108546552D01*
X165198566Y-108445431D01*
X165112569Y-108359434D01*
X165011448Y-108291868D01*
X164899089Y-108245327D01*
X164779809Y-108221600D01*
X164658191Y-108221600D01*
X164538911Y-108245327D01*
X164426552Y-108291868D01*
X164325431Y-108359434D01*
X164263265Y-108421600D01*
X162262999Y-108421600D01*
X162242500Y-108419581D01*
X162222001Y-108421600D01*
X162160675Y-108427640D01*
X162081995Y-108451507D01*
X162009483Y-108490266D01*
X161945926Y-108542426D01*
X161932860Y-108558347D01*
X160809108Y-109682100D01*
X160721191Y-109682100D01*
X160601911Y-109705827D01*
X160489552Y-109752368D01*
X160388431Y-109819934D01*
X160302434Y-109905931D01*
X160234868Y-110007052D01*
X160188327Y-110119411D01*
X160164600Y-110238691D01*
X160164600Y-110360309D01*
X160188327Y-110479589D01*
X160234868Y-110591948D01*
X160302434Y-110693069D01*
X160388431Y-110779066D01*
X160489552Y-110846632D01*
X160601911Y-110893173D01*
X160721191Y-110916900D01*
X160748134Y-110916900D01*
X152916034Y-118749001D01*
X150056111Y-118749001D01*
X149840400Y-118533291D01*
X149840400Y-118527470D01*
X149843992Y-118491000D01*
X149829658Y-118345464D01*
X149787207Y-118205521D01*
X149718270Y-118076549D01*
X149625496Y-117963504D01*
X149512451Y-117870730D01*
X149383479Y-117801793D01*
X149243536Y-117759342D01*
X149134470Y-117748600D01*
X149098000Y-117745008D01*
X149061530Y-117748600D01*
X148245470Y-117748600D01*
X148209000Y-117745008D01*
X148172530Y-117748600D01*
X148063464Y-117759342D01*
X147923521Y-117801793D01*
X147794549Y-117870730D01*
X147681504Y-117963504D01*
X147588730Y-118076549D01*
X147519793Y-118205521D01*
X147477342Y-118345464D01*
X147463008Y-118491000D01*
X147466600Y-118527470D01*
X147466600Y-118564488D01*
X147282087Y-118749001D01*
X145833425Y-118749001D01*
X145879442Y-118680132D01*
X145929752Y-118558673D01*
X145955400Y-118429733D01*
X145955400Y-118298267D01*
X145929752Y-118169327D01*
X145879442Y-118047868D01*
X145830400Y-117974471D01*
X145830400Y-112149529D01*
X145879442Y-112076132D01*
X145929752Y-111954673D01*
X145955400Y-111825733D01*
X145955400Y-111694267D01*
X145929752Y-111565327D01*
X145879442Y-111443868D01*
X145806403Y-111334557D01*
X145713443Y-111241597D01*
X145604132Y-111168558D01*
X145482673Y-111118248D01*
X145353733Y-111092600D01*
X145222267Y-111092600D01*
X145093327Y-111118248D01*
X144971868Y-111168558D01*
X144862557Y-111241597D01*
X144769597Y-111334557D01*
X144696558Y-111443868D01*
X144646248Y-111565327D01*
X144620600Y-111694267D01*
X144620600Y-111825733D01*
X144646248Y-111954673D01*
X144696558Y-112076132D01*
X144745601Y-112149530D01*
X144745600Y-117974471D01*
X144696558Y-118047868D01*
X144646248Y-118169327D01*
X144620600Y-118298267D01*
X144620600Y-118315242D01*
X141249196Y-114943839D01*
X141225942Y-114915504D01*
X141112897Y-114822730D01*
X140983925Y-114753793D01*
X140843982Y-114711342D01*
X140734916Y-114700600D01*
X140734909Y-114700600D01*
X140698446Y-114697009D01*
X140661983Y-114700600D01*
X125512470Y-114700600D01*
X125476000Y-114697008D01*
X125439530Y-114700600D01*
X124894512Y-114700600D01*
X124401147Y-114207236D01*
X124401143Y-114207231D01*
X123170400Y-112976489D01*
X123170400Y-110884626D01*
X123223451Y-110856270D01*
X123336496Y-110763496D01*
X123359750Y-110735161D01*
X123816168Y-110278743D01*
X123844496Y-110255496D01*
X123875534Y-110217676D01*
X123937269Y-110142452D01*
X124006206Y-110013480D01*
X124014314Y-109986752D01*
X124048658Y-109873536D01*
X124062992Y-109728000D01*
X124048658Y-109582464D01*
X124006207Y-109442521D01*
X123937269Y-109313550D01*
X123867744Y-109228833D01*
X123867740Y-109228829D01*
X123844495Y-109200505D01*
X123816171Y-109177260D01*
X123484750Y-108845839D01*
X123461496Y-108817504D01*
X123348451Y-108724730D01*
X123219479Y-108655793D01*
X123079536Y-108613342D01*
X122970470Y-108602600D01*
X122970463Y-108602600D01*
X122934000Y-108599009D01*
X122897537Y-108602600D01*
X122464470Y-108602600D01*
X122428000Y-108599008D01*
X122357171Y-108605984D01*
X122282464Y-108613342D01*
X122142521Y-108655793D01*
X122013549Y-108724730D01*
X121900504Y-108817504D01*
X121807730Y-108930549D01*
X121738793Y-109059521D01*
X121696342Y-109199464D01*
X121682008Y-109345000D01*
X121685600Y-109381470D01*
X121685600Y-110072535D01*
X121682009Y-110109000D01*
X121685600Y-110145465D01*
X121685601Y-113247527D01*
X121682009Y-113284000D01*
X121696342Y-113429536D01*
X121738793Y-113569478D01*
X121738794Y-113569479D01*
X121807731Y-113698451D01*
X121900505Y-113811496D01*
X121928834Y-113834745D01*
X123351231Y-115257143D01*
X123351236Y-115257147D01*
X123844600Y-115750512D01*
X123844600Y-116295530D01*
X123841008Y-116332000D01*
X123855342Y-116477536D01*
X123897793Y-116617479D01*
X123966730Y-116746451D01*
X124052042Y-116850403D01*
X124059504Y-116859496D01*
X124172549Y-116952270D01*
X124301521Y-117021207D01*
X124441464Y-117063658D01*
X124587000Y-117077992D01*
X124623470Y-117074400D01*
X125439530Y-117074400D01*
X125476000Y-117077992D01*
X125512470Y-117074400D01*
X125621536Y-117063658D01*
X125761479Y-117021207D01*
X125890451Y-116952270D01*
X126003496Y-116859496D01*
X126096270Y-116746451D01*
X126165207Y-116617479D01*
X126207658Y-116477536D01*
X126221992Y-116332000D01*
X126218400Y-116295530D01*
X126218400Y-116185400D01*
X140390935Y-116185400D01*
X144196101Y-119990567D01*
X144219351Y-120018897D01*
X144247679Y-120042145D01*
X144332396Y-120111671D01*
X144461368Y-120180608D01*
X144601311Y-120223059D01*
X144746847Y-120237393D01*
X144783317Y-120233801D01*
X147553136Y-120233801D01*
X147589599Y-120237392D01*
X147626062Y-120233801D01*
X149712129Y-120233801D01*
X149748599Y-120237393D01*
X149785069Y-120233801D01*
X153187082Y-120233801D01*
X153223545Y-120237392D01*
X153260008Y-120233801D01*
X153260015Y-120233801D01*
X153369081Y-120223059D01*
X153509024Y-120180608D01*
X153637996Y-120111671D01*
X153751041Y-120018897D01*
X153774295Y-119990562D01*
X157545857Y-116219000D01*
X173307456Y-116219000D01*
X173313615Y-116281535D01*
X173331856Y-116341667D01*
X173361477Y-116397085D01*
X173401341Y-116445659D01*
X173449915Y-116485523D01*
X173505333Y-116515144D01*
X173565465Y-116533385D01*
X173628000Y-116539544D01*
X175983250Y-116538000D01*
X176063000Y-116458250D01*
X176063000Y-115484000D01*
X173388750Y-115484000D01*
X173309000Y-115563750D01*
X173307456Y-116219000D01*
X157545857Y-116219000D01*
X159145857Y-114619000D01*
X173307456Y-114619000D01*
X173309000Y-115274250D01*
X173388750Y-115354000D01*
X176063000Y-115354000D01*
X176063000Y-114379750D01*
X175983250Y-114300000D01*
X173628000Y-114298456D01*
X173565465Y-114304615D01*
X173505333Y-114322856D01*
X173449915Y-114352477D01*
X173401341Y-114392341D01*
X173361477Y-114440915D01*
X173331856Y-114496333D01*
X173313615Y-114556465D01*
X173307456Y-114619000D01*
X159145857Y-114619000D01*
X162083100Y-111681758D01*
X162083100Y-111698733D01*
X162108748Y-111827673D01*
X162159058Y-111949132D01*
X162232097Y-112058443D01*
X162325057Y-112151403D01*
X162434368Y-112224442D01*
X162555827Y-112274752D01*
X162684767Y-112300400D01*
X162816233Y-112300400D01*
X162945173Y-112274752D01*
X163066632Y-112224442D01*
X163140029Y-112175400D01*
X169980971Y-112175400D01*
X170054368Y-112224442D01*
X170175827Y-112274752D01*
X170304767Y-112300400D01*
X170436233Y-112300400D01*
X170565173Y-112274752D01*
X170686632Y-112224442D01*
X170795943Y-112151403D01*
X170888903Y-112058443D01*
X170961942Y-111949132D01*
X171012252Y-111827673D01*
X171037900Y-111698733D01*
X171037900Y-111567267D01*
X171012252Y-111438327D01*
X170961942Y-111316868D01*
X170888903Y-111207557D01*
X170795943Y-111114597D01*
X170686632Y-111041558D01*
X170565173Y-110991248D01*
X170436233Y-110965600D01*
X170304767Y-110965600D01*
X170175827Y-110991248D01*
X170054368Y-111041558D01*
X169980971Y-111090600D01*
X163140029Y-111090600D01*
X163066632Y-111041558D01*
X162945173Y-110991248D01*
X162816233Y-110965600D01*
X162799258Y-110965600D01*
X163085858Y-110679000D01*
X173307456Y-110679000D01*
X173313615Y-110741535D01*
X173331856Y-110801667D01*
X173361477Y-110857085D01*
X173401341Y-110905659D01*
X173449915Y-110945523D01*
X173505333Y-110975144D01*
X173565465Y-110993385D01*
X173628000Y-110999544D01*
X175983250Y-110998000D01*
X176063000Y-110918250D01*
X176063000Y-109944000D01*
X173388750Y-109944000D01*
X173309000Y-110023750D01*
X173307456Y-110679000D01*
X163085858Y-110679000D01*
X163106057Y-110658801D01*
X168501221Y-110658801D01*
X168537684Y-110662392D01*
X168574147Y-110658801D01*
X168574154Y-110658801D01*
X168683220Y-110648059D01*
X168823163Y-110605608D01*
X168952135Y-110536671D01*
X169065180Y-110443897D01*
X169088434Y-110415562D01*
X170424996Y-109079000D01*
X173307456Y-109079000D01*
X173309000Y-109734250D01*
X173388750Y-109814000D01*
X176063000Y-109814000D01*
X176063000Y-108839750D01*
X175983250Y-108760000D01*
X173628000Y-108758456D01*
X173565465Y-108764615D01*
X173505333Y-108782856D01*
X173449915Y-108812477D01*
X173401341Y-108852341D01*
X173361477Y-108900915D01*
X173331856Y-108956333D01*
X173313615Y-109016465D01*
X173307456Y-109079000D01*
X170424996Y-109079000D01*
X173772988Y-105731009D01*
X173801316Y-105707761D01*
X173894090Y-105594716D01*
X173963027Y-105465744D01*
X174005478Y-105325801D01*
X174007775Y-105302481D01*
X174019812Y-105180265D01*
X174016220Y-105143795D01*
X174016220Y-101417191D01*
X174362161Y-101071250D01*
X174390496Y-101047996D01*
X174483270Y-100934951D01*
X174552207Y-100805979D01*
X174594658Y-100666036D01*
X174605400Y-100556969D01*
X174608992Y-100520500D01*
X174605400Y-100484030D01*
X174605400Y-100175970D01*
X174608992Y-100139500D01*
X174594658Y-99993964D01*
X174552207Y-99854021D01*
X174483270Y-99725049D01*
X174390496Y-99612004D01*
X174277451Y-99519230D01*
X174148479Y-99450293D01*
X174008536Y-99407842D01*
X173899470Y-99397100D01*
X173863000Y-99393508D01*
X173826530Y-99397100D01*
X172946963Y-99397100D01*
X172910500Y-99393509D01*
X172874037Y-99397100D01*
X172874030Y-99397100D01*
X172764964Y-99407842D01*
X172625021Y-99450293D01*
X172496049Y-99519230D01*
X172383004Y-99612004D01*
X172290230Y-99725049D01*
X172221293Y-99854021D01*
X172178842Y-99993964D01*
X172164508Y-100139500D01*
X172178842Y-100285036D01*
X172221293Y-100424979D01*
X172290230Y-100553951D01*
X172383004Y-100666996D01*
X172411339Y-100690250D01*
X172531421Y-100810332D01*
X172531421Y-101504509D01*
X169906400Y-98879489D01*
X169906400Y-98097511D01*
X170044161Y-97959750D01*
X170072496Y-97936496D01*
X170165270Y-97823451D01*
X170234207Y-97694479D01*
X170276658Y-97554536D01*
X170290992Y-97409000D01*
X170276658Y-97263464D01*
X170234207Y-97123521D01*
X170165270Y-96994549D01*
X170072496Y-96881504D01*
X169959451Y-96788730D01*
X169830479Y-96719793D01*
X169690536Y-96677342D01*
X169545000Y-96663008D01*
X169508530Y-96666600D01*
X168692470Y-96666600D01*
X168656000Y-96663008D01*
X168510464Y-96677342D01*
X168370521Y-96719793D01*
X168241549Y-96788730D01*
X168128504Y-96881504D01*
X168035730Y-96994549D01*
X167966793Y-97123521D01*
X167924342Y-97263464D01*
X167910008Y-97409000D01*
X167913600Y-97445471D01*
X167913601Y-98642528D01*
X167910009Y-98679000D01*
X167924342Y-98824536D01*
X167966793Y-98964478D01*
X167966794Y-98964479D01*
X168035731Y-99093451D01*
X168128505Y-99206496D01*
X168156834Y-99229745D01*
X168613260Y-99686171D01*
X168636505Y-99714496D01*
X168664829Y-99737741D01*
X168664831Y-99737743D01*
X168664836Y-99737747D01*
X171329011Y-102401923D01*
X171329011Y-102958888D01*
X163128428Y-94758305D01*
X163111444Y-94737610D01*
X163028853Y-94669829D01*
X162934626Y-94619463D01*
X162832383Y-94588448D01*
X162752697Y-94580600D01*
X162752687Y-94580600D01*
X162726054Y-94577977D01*
X162699421Y-94580600D01*
X157615529Y-94580600D01*
X157542132Y-94531558D01*
X157420673Y-94481248D01*
X157291733Y-94455600D01*
X157160267Y-94455600D01*
X157031327Y-94481248D01*
X156909868Y-94531558D01*
X156800557Y-94604597D01*
X156707597Y-94697557D01*
X156634558Y-94806868D01*
X156584248Y-94928327D01*
X156558600Y-95057267D01*
X156558600Y-95188733D01*
X156584248Y-95317673D01*
X156634558Y-95439132D01*
X156707597Y-95548443D01*
X156800557Y-95641403D01*
X156909868Y-95714442D01*
X157031327Y-95764752D01*
X157160267Y-95790400D01*
X157291733Y-95790400D01*
X157420673Y-95764752D01*
X157542132Y-95714442D01*
X157615529Y-95665400D01*
X162501385Y-95665400D01*
X169610085Y-102774100D01*
X169606267Y-102774100D01*
X169477327Y-102799748D01*
X169355868Y-102850058D01*
X169282471Y-102899100D01*
X168436170Y-102899100D01*
X165565874Y-100028805D01*
X165548890Y-100008110D01*
X165466299Y-99940329D01*
X165372072Y-99889963D01*
X165269829Y-99858948D01*
X165190143Y-99851100D01*
X165190133Y-99851100D01*
X165163500Y-99848477D01*
X165136867Y-99851100D01*
X147963529Y-99851100D01*
X147890132Y-99802058D01*
X147768673Y-99751748D01*
X147639733Y-99726100D01*
X147508267Y-99726100D01*
X147379327Y-99751748D01*
X147257868Y-99802058D01*
X147148557Y-99875097D01*
X147055597Y-99968057D01*
X146982558Y-100077368D01*
X146932248Y-100198827D01*
X146906600Y-100327767D01*
X146906600Y-100459233D01*
X146932248Y-100588173D01*
X146982558Y-100709632D01*
X147055597Y-100818943D01*
X147148557Y-100911903D01*
X147257868Y-100984942D01*
X147379327Y-101035252D01*
X147508267Y-101060900D01*
X147639733Y-101060900D01*
X147768673Y-101035252D01*
X147890132Y-100984942D01*
X147963529Y-100935900D01*
X164938831Y-100935900D01*
X167809130Y-103806200D01*
X167826110Y-103826890D01*
X167846800Y-103843870D01*
X167846804Y-103843874D01*
X167908700Y-103894671D01*
X167986433Y-103936220D01*
X168002928Y-103945037D01*
X168105171Y-103976052D01*
X168184857Y-103983900D01*
X168184867Y-103983900D01*
X168211500Y-103986523D01*
X168238133Y-103983900D01*
X169282471Y-103983900D01*
X169355868Y-104032942D01*
X169477327Y-104083252D01*
X169606267Y-104108900D01*
X169737733Y-104108900D01*
X169866673Y-104083252D01*
X169988132Y-104032942D01*
X170097443Y-103959903D01*
X170190403Y-103866943D01*
X170263442Y-103757632D01*
X170313752Y-103636173D01*
X170339400Y-103507233D01*
X170339400Y-103503415D01*
X170526600Y-103690615D01*
X170526600Y-104042330D01*
X170158531Y-104410400D01*
X170061529Y-104410400D01*
X169988132Y-104361358D01*
X169866673Y-104311048D01*
X169737733Y-104285400D01*
X169606267Y-104285400D01*
X169477327Y-104311048D01*
X169355868Y-104361358D01*
X169246557Y-104434397D01*
X169153597Y-104527357D01*
X169080558Y-104636668D01*
X169030248Y-104758127D01*
X169004600Y-104887067D01*
X169004600Y-105018533D01*
X169030248Y-105147473D01*
X169080558Y-105268932D01*
X169153597Y-105378243D01*
X169246557Y-105471203D01*
X169355868Y-105544242D01*
X169477327Y-105594552D01*
X169606267Y-105620200D01*
X169737733Y-105620200D01*
X169866673Y-105594552D01*
X169988132Y-105544242D01*
X170061529Y-105495200D01*
X170208509Y-105495200D01*
X169305654Y-106398055D01*
X169297752Y-106358327D01*
X169247442Y-106236868D01*
X169174403Y-106127557D01*
X169081443Y-106034597D01*
X168972132Y-105961558D01*
X168850673Y-105911248D01*
X168721733Y-105885600D01*
X168590267Y-105885600D01*
X168461327Y-105911248D01*
X168339868Y-105961558D01*
X168230557Y-106034597D01*
X168211500Y-106053654D01*
X168192443Y-106034597D01*
X168083132Y-105961558D01*
X167961673Y-105911248D01*
X167832733Y-105885600D01*
X167701267Y-105885600D01*
X167572327Y-105911248D01*
X167450868Y-105961558D01*
X167341557Y-106034597D01*
X167248597Y-106127557D01*
X167175558Y-106236868D01*
X167125248Y-106358327D01*
X167099600Y-106487267D01*
X167099600Y-106501751D01*
X148947528Y-106501751D01*
X148975173Y-106496252D01*
X149096632Y-106445942D01*
X149205943Y-106372903D01*
X149298903Y-106279943D01*
X149323654Y-106242900D01*
X149423451Y-106242900D01*
X149511021Y-106289707D01*
X149594428Y-106315008D01*
X149650963Y-106332158D01*
X149665890Y-106333628D01*
X149760030Y-106342900D01*
X149760036Y-106342900D01*
X149796499Y-106346491D01*
X149832962Y-106342900D01*
X163539537Y-106342900D01*
X163576000Y-106346491D01*
X163612463Y-106342900D01*
X163612470Y-106342900D01*
X163721536Y-106332158D01*
X163861479Y-106289707D01*
X163990451Y-106220770D01*
X164103496Y-106127996D01*
X164126750Y-106099661D01*
X164710166Y-105516246D01*
X164738496Y-105492996D01*
X164831270Y-105379951D01*
X164843589Y-105356903D01*
X164900207Y-105250979D01*
X164942658Y-105111036D01*
X164956992Y-104965500D01*
X164953400Y-104929030D01*
X164953400Y-104874970D01*
X164956992Y-104838500D01*
X164942658Y-104692964D01*
X164900207Y-104553021D01*
X164831270Y-104424049D01*
X164738496Y-104311004D01*
X164625451Y-104218230D01*
X164496479Y-104149293D01*
X164356536Y-104106842D01*
X164247470Y-104096100D01*
X164211000Y-104092508D01*
X164174530Y-104096100D01*
X162269530Y-104096100D01*
X162160464Y-104106842D01*
X162020521Y-104149293D01*
X161891549Y-104218230D01*
X161778504Y-104311004D01*
X161685730Y-104424049D01*
X161616793Y-104553021D01*
X161574342Y-104692964D01*
X161560008Y-104838500D01*
X161561938Y-104858100D01*
X150104013Y-104858100D01*
X148505750Y-103259839D01*
X148482496Y-103231504D01*
X148369451Y-103138730D01*
X148240479Y-103069793D01*
X148100536Y-103027342D01*
X147991470Y-103016600D01*
X147991463Y-103016600D01*
X147955000Y-103013009D01*
X147918537Y-103016600D01*
X134529459Y-103016600D01*
X134492999Y-103013009D01*
X134456539Y-103016600D01*
X129710900Y-103016600D01*
X129710900Y-99443691D01*
X130700600Y-99443691D01*
X130700600Y-99565309D01*
X130724327Y-99684589D01*
X130770868Y-99796948D01*
X130838434Y-99898069D01*
X130924431Y-99984066D01*
X131025552Y-100051632D01*
X131137911Y-100098173D01*
X131257191Y-100121900D01*
X131378809Y-100121900D01*
X131498089Y-100098173D01*
X131610448Y-100051632D01*
X131711569Y-99984066D01*
X131797566Y-99898069D01*
X131865132Y-99796948D01*
X131911673Y-99684589D01*
X131913335Y-99676234D01*
X133599768Y-97989801D01*
X149398267Y-97989801D01*
X149424900Y-97992424D01*
X149451533Y-97989801D01*
X149451543Y-97989801D01*
X149531229Y-97981953D01*
X149633472Y-97950938D01*
X149727699Y-97900572D01*
X149810290Y-97832791D01*
X149827274Y-97812096D01*
X150079536Y-97559835D01*
X150087890Y-97558173D01*
X150200249Y-97511632D01*
X150301370Y-97444066D01*
X150387367Y-97358069D01*
X150454933Y-97256948D01*
X150501474Y-97144589D01*
X150525201Y-97025309D01*
X150525201Y-96903691D01*
X150501474Y-96784411D01*
X150454933Y-96672052D01*
X150387367Y-96570931D01*
X150301370Y-96484934D01*
X150200249Y-96417368D01*
X150087890Y-96370827D01*
X149968610Y-96347100D01*
X149846992Y-96347100D01*
X149727712Y-96370827D01*
X149615353Y-96417368D01*
X149514232Y-96484934D01*
X149428235Y-96570931D01*
X149360669Y-96672052D01*
X149314128Y-96784411D01*
X149312466Y-96792765D01*
X149200231Y-96905001D01*
X133401731Y-96905001D01*
X133375098Y-96902378D01*
X133348465Y-96905001D01*
X133348456Y-96905001D01*
X133268770Y-96912849D01*
X133166527Y-96943864D01*
X133105121Y-96976686D01*
X133072299Y-96994230D01*
X133034430Y-97025309D01*
X132989709Y-97062011D01*
X132972725Y-97082706D01*
X131146266Y-98909165D01*
X131137911Y-98910827D01*
X131025552Y-98957368D01*
X130924431Y-99024934D01*
X130838434Y-99110931D01*
X130770868Y-99212052D01*
X130724327Y-99324411D01*
X130700600Y-99443691D01*
X129710900Y-99443691D01*
X129710900Y-94859011D01*
X130863512Y-93706400D01*
X139355470Y-93706400D01*
X139464536Y-93695658D01*
X139604479Y-93653207D01*
X139733451Y-93584270D01*
X139846496Y-93491496D01*
X139939270Y-93378451D01*
X140008207Y-93249479D01*
X140050658Y-93109536D01*
X140064992Y-92964000D01*
X140050658Y-92818464D01*
X140008207Y-92678521D01*
X139939270Y-92549549D01*
X139846496Y-92436504D01*
X139733451Y-92343730D01*
X139604479Y-92274793D01*
X139464536Y-92232342D01*
X139355470Y-92221600D01*
X130592462Y-92221600D01*
X130555999Y-92218009D01*
X130519536Y-92221600D01*
X130519530Y-92221600D01*
X130425390Y-92230872D01*
X130410463Y-92232342D01*
X130293795Y-92267733D01*
X130270521Y-92274793D01*
X130141549Y-92343730D01*
X130028504Y-92436504D01*
X130005254Y-92464834D01*
X128469334Y-94000755D01*
X128441005Y-94024004D01*
X128348231Y-94137049D01*
X128311383Y-94205987D01*
X128279293Y-94266022D01*
X128236842Y-94405964D01*
X128222509Y-94551500D01*
X128226101Y-94587973D01*
X128226100Y-103016600D01*
X122845462Y-103016600D01*
X122808999Y-103013009D01*
X122772536Y-103016600D01*
X122210462Y-103016600D01*
X122173999Y-103013009D01*
X122137536Y-103016600D01*
X122137530Y-103016600D01*
X122043390Y-103025872D01*
X122028463Y-103027342D01*
X122002042Y-103035357D01*
X121888521Y-103069793D01*
X121759549Y-103138730D01*
X121646504Y-103231504D01*
X121623254Y-103259835D01*
X121420838Y-103462251D01*
X121392504Y-103485504D01*
X121369255Y-103513833D01*
X121166834Y-103716255D01*
X121138505Y-103739504D01*
X121045731Y-103852549D01*
X120976793Y-103981521D01*
X120934342Y-104121464D01*
X120923600Y-104230530D01*
X120923600Y-104230537D01*
X120920009Y-104267000D01*
X120923600Y-104303463D01*
X120923600Y-104865530D01*
X120920008Y-104902000D01*
X115793100Y-104902000D01*
X115793100Y-92202000D01*
X161306008Y-92202000D01*
X161320342Y-92347536D01*
X161362793Y-92487479D01*
X161431730Y-92616451D01*
X161524504Y-92729496D01*
X161637549Y-92822270D01*
X161766521Y-92891207D01*
X161906464Y-92933658D01*
X162015530Y-92944400D01*
X162109299Y-92944400D01*
X162124793Y-92995478D01*
X162193730Y-93124450D01*
X162286504Y-93237496D01*
X162399549Y-93330270D01*
X162528521Y-93399207D01*
X162668464Y-93441658D01*
X162814000Y-93455992D01*
X162959535Y-93441658D01*
X163099478Y-93399207D01*
X163228450Y-93330270D01*
X163341496Y-93237496D01*
X163434270Y-93124451D01*
X163503207Y-92995479D01*
X163518702Y-92944400D01*
X163920537Y-92944400D01*
X163957000Y-92947991D01*
X163993463Y-92944400D01*
X163993470Y-92944400D01*
X164102536Y-92933658D01*
X164242479Y-92891207D01*
X164371451Y-92822270D01*
X164484496Y-92729496D01*
X164507750Y-92701161D01*
X164601760Y-92607151D01*
X164606731Y-92616451D01*
X164699505Y-92729496D01*
X164812550Y-92822270D01*
X164941522Y-92891207D01*
X165081465Y-92933658D01*
X165227000Y-92947992D01*
X165372536Y-92933658D01*
X165512479Y-92891207D01*
X165641451Y-92822270D01*
X165754496Y-92729496D01*
X165847270Y-92616451D01*
X165916207Y-92487479D01*
X165931702Y-92436400D01*
X166025470Y-92436400D01*
X166134536Y-92425658D01*
X166274479Y-92383207D01*
X166403451Y-92314270D01*
X166516496Y-92221496D01*
X166609270Y-92108451D01*
X166678207Y-91979479D01*
X166720658Y-91839536D01*
X166734992Y-91694000D01*
X166720658Y-91548464D01*
X166678207Y-91408521D01*
X166609270Y-91279549D01*
X166516496Y-91166504D01*
X166403451Y-91073730D01*
X166274479Y-91004793D01*
X166134536Y-90962342D01*
X166025470Y-90951600D01*
X165915511Y-90951600D01*
X165777750Y-90813839D01*
X165754496Y-90785504D01*
X165641450Y-90692730D01*
X165512478Y-90623793D01*
X165372536Y-90581342D01*
X165359487Y-90580057D01*
X165227000Y-90567008D01*
X165081464Y-90581342D01*
X164941521Y-90623793D01*
X164812549Y-90692730D01*
X164699504Y-90785504D01*
X164606730Y-90898550D01*
X164578374Y-90951600D01*
X164501459Y-90951600D01*
X164464999Y-90948009D01*
X164428539Y-90951600D01*
X164428530Y-90951600D01*
X164319464Y-90962342D01*
X164179521Y-91004793D01*
X164050549Y-91073730D01*
X163937504Y-91166504D01*
X163914256Y-91194832D01*
X163649489Y-91459600D01*
X163462626Y-91459600D01*
X163434270Y-91406549D01*
X163341496Y-91293504D01*
X163228451Y-91200730D01*
X163099479Y-91131793D01*
X162959536Y-91089342D01*
X162814000Y-91075008D01*
X162668465Y-91089342D01*
X162528522Y-91131793D01*
X162399550Y-91200730D01*
X162286505Y-91293504D01*
X162263255Y-91321834D01*
X162125489Y-91459600D01*
X162015530Y-91459600D01*
X161906464Y-91470342D01*
X161766521Y-91512793D01*
X161637549Y-91581730D01*
X161524504Y-91674504D01*
X161431730Y-91787549D01*
X161362793Y-91916521D01*
X161320342Y-92056464D01*
X161306008Y-92202000D01*
X115793100Y-92202000D01*
X115793100Y-87223600D01*
X178415101Y-87223600D01*
X178415100Y-108758596D01*
G04 #@! TA.AperFunction,Conductor*
D20*
G36*
X178415100Y-108758596D02*
G01*
X176272750Y-108760000D01*
X176193000Y-108839750D01*
X176193000Y-109814000D01*
X176213000Y-109814000D01*
X176213000Y-109944000D01*
X176193000Y-109944000D01*
X176193000Y-110918250D01*
X176272750Y-110998000D01*
X178415100Y-110999404D01*
X178415100Y-114298596D01*
X176272750Y-114300000D01*
X176193000Y-114379750D01*
X176193000Y-115354000D01*
X176213000Y-115354000D01*
X176213000Y-115484000D01*
X176193000Y-115484000D01*
X176193000Y-116458250D01*
X176272750Y-116538000D01*
X178415100Y-116539404D01*
X178415100Y-122783600D01*
X130001401Y-122783600D01*
X130000000Y-120646750D01*
X129920250Y-120567000D01*
X128946000Y-120567000D01*
X128946000Y-120587000D01*
X128816000Y-120587000D01*
X128816000Y-120567000D01*
X127841750Y-120567000D01*
X127762000Y-120646750D01*
X127760599Y-122783600D01*
X124461401Y-122783600D01*
X124460000Y-120646750D01*
X124380250Y-120567000D01*
X123406000Y-120567000D01*
X123406000Y-120587000D01*
X123276000Y-120587000D01*
X123276000Y-120567000D01*
X122301750Y-120567000D01*
X122222000Y-120646750D01*
X122220599Y-122783600D01*
X115793100Y-122783600D01*
X115793100Y-118002000D01*
X122220456Y-118002000D01*
X122222000Y-120357250D01*
X122301750Y-120437000D01*
X123276000Y-120437000D01*
X123276000Y-117762750D01*
X123406000Y-117762750D01*
X123406000Y-120437000D01*
X124380250Y-120437000D01*
X124460000Y-120357250D01*
X124461544Y-118002000D01*
X127760456Y-118002000D01*
X127762000Y-120357250D01*
X127841750Y-120437000D01*
X128816000Y-120437000D01*
X128816000Y-117762750D01*
X128946000Y-117762750D01*
X128946000Y-120437000D01*
X129920250Y-120437000D01*
X130000000Y-120357250D01*
X130001544Y-118002000D01*
X129995385Y-117939465D01*
X129977144Y-117879333D01*
X129947523Y-117823915D01*
X129907659Y-117775341D01*
X129859085Y-117735477D01*
X129803667Y-117705856D01*
X129743535Y-117687615D01*
X129681000Y-117681456D01*
X129025750Y-117683000D01*
X128946000Y-117762750D01*
X128816000Y-117762750D01*
X128736250Y-117683000D01*
X128081000Y-117681456D01*
X128018465Y-117687615D01*
X127958333Y-117705856D01*
X127902915Y-117735477D01*
X127854341Y-117775341D01*
X127814477Y-117823915D01*
X127784856Y-117879333D01*
X127766615Y-117939465D01*
X127760456Y-118002000D01*
X124461544Y-118002000D01*
X124455385Y-117939465D01*
X124437144Y-117879333D01*
X124407523Y-117823915D01*
X124367659Y-117775341D01*
X124319085Y-117735477D01*
X124263667Y-117705856D01*
X124203535Y-117687615D01*
X124141000Y-117681456D01*
X123485750Y-117683000D01*
X123406000Y-117762750D01*
X123276000Y-117762750D01*
X123196250Y-117683000D01*
X122541000Y-117681456D01*
X122478465Y-117687615D01*
X122418333Y-117705856D01*
X122362915Y-117735477D01*
X122314341Y-117775341D01*
X122274477Y-117823915D01*
X122244856Y-117879333D01*
X122226615Y-117939465D01*
X122220456Y-118002000D01*
X115793100Y-118002000D01*
X115793100Y-116539424D01*
X117965250Y-116538000D01*
X118045000Y-116458250D01*
X118045000Y-115484000D01*
X118175000Y-115484000D01*
X118175000Y-116458250D01*
X118254750Y-116538000D01*
X120610000Y-116539544D01*
X120672535Y-116533385D01*
X120732667Y-116515144D01*
X120788085Y-116485523D01*
X120836659Y-116445659D01*
X120876523Y-116397085D01*
X120906144Y-116341667D01*
X120924385Y-116281535D01*
X120930544Y-116219000D01*
X120929000Y-115563750D01*
X120849250Y-115484000D01*
X118175000Y-115484000D01*
X118045000Y-115484000D01*
X118025000Y-115484000D01*
X118025000Y-115354000D01*
X118045000Y-115354000D01*
X118045000Y-114379750D01*
X118175000Y-114379750D01*
X118175000Y-115354000D01*
X120849250Y-115354000D01*
X120929000Y-115274250D01*
X120930544Y-114619000D01*
X120924385Y-114556465D01*
X120906144Y-114496333D01*
X120876523Y-114440915D01*
X120836659Y-114392341D01*
X120788085Y-114352477D01*
X120732667Y-114322856D01*
X120672535Y-114304615D01*
X120610000Y-114298456D01*
X118254750Y-114300000D01*
X118175000Y-114379750D01*
X118045000Y-114379750D01*
X117965250Y-114300000D01*
X115793100Y-114298576D01*
X115793100Y-110999424D01*
X117965250Y-110998000D01*
X118045000Y-110918250D01*
X118045000Y-109944000D01*
X118175000Y-109944000D01*
X118175000Y-110918250D01*
X118254750Y-110998000D01*
X120610000Y-110999544D01*
X120672535Y-110993385D01*
X120732667Y-110975144D01*
X120788085Y-110945523D01*
X120836659Y-110905659D01*
X120876523Y-110857085D01*
X120906144Y-110801667D01*
X120924385Y-110741535D01*
X120930544Y-110679000D01*
X120929000Y-110023750D01*
X120849250Y-109944000D01*
X118175000Y-109944000D01*
X118045000Y-109944000D01*
X118025000Y-109944000D01*
X118025000Y-109814000D01*
X118045000Y-109814000D01*
X118045000Y-108839750D01*
X118175000Y-108839750D01*
X118175000Y-109814000D01*
X120849250Y-109814000D01*
X120929000Y-109734250D01*
X120930544Y-109079000D01*
X120924385Y-109016465D01*
X120906144Y-108956333D01*
X120876523Y-108900915D01*
X120836659Y-108852341D01*
X120788085Y-108812477D01*
X120732667Y-108782856D01*
X120672535Y-108764615D01*
X120610000Y-108758456D01*
X118254750Y-108760000D01*
X118175000Y-108839750D01*
X118045000Y-108839750D01*
X117965250Y-108760000D01*
X115793100Y-108758576D01*
X115793100Y-104902000D01*
X120920008Y-104902000D01*
X120934342Y-105047536D01*
X120976793Y-105187479D01*
X121045730Y-105316451D01*
X121125679Y-105413869D01*
X121138504Y-105429496D01*
X121251549Y-105522270D01*
X121380521Y-105591207D01*
X121520464Y-105633658D01*
X121666000Y-105647992D01*
X121702470Y-105644400D01*
X122264537Y-105644400D01*
X122301000Y-105647991D01*
X122337463Y-105644400D01*
X122337470Y-105644400D01*
X122446536Y-105633658D01*
X122586479Y-105591207D01*
X122715451Y-105522270D01*
X122828496Y-105429496D01*
X122851749Y-105401162D01*
X123054168Y-105198744D01*
X123082496Y-105175496D01*
X123175270Y-105062451D01*
X123244207Y-104933479D01*
X123284081Y-104802031D01*
X123286658Y-104793537D01*
X123289660Y-104763057D01*
X123300992Y-104648000D01*
X123297400Y-104611530D01*
X123297400Y-104501400D01*
X128932030Y-104501400D01*
X128968500Y-104504992D01*
X129004970Y-104501400D01*
X133369600Y-104501400D01*
X133369600Y-104684469D01*
X133380342Y-104793535D01*
X133422793Y-104933478D01*
X133491730Y-105062450D01*
X133584504Y-105175496D01*
X133697549Y-105268270D01*
X133826521Y-105337207D01*
X133966464Y-105379658D01*
X134112000Y-105393992D01*
X134257535Y-105379658D01*
X134397478Y-105337207D01*
X134526450Y-105268270D01*
X134639496Y-105175496D01*
X134732270Y-105062451D01*
X134801207Y-104933479D01*
X134843658Y-104793536D01*
X134854400Y-104684470D01*
X134854400Y-104501400D01*
X147503101Y-104501400D01*
X147503100Y-104964584D01*
X147478100Y-105090267D01*
X147478100Y-105221733D01*
X147503748Y-105350673D01*
X147541994Y-105443006D01*
X147549128Y-105466525D01*
X147608780Y-105578125D01*
X147689058Y-105675943D01*
X147713567Y-105696057D01*
X148190903Y-106173393D01*
X148262097Y-106279943D01*
X148355057Y-106372903D01*
X148464368Y-106445942D01*
X148585827Y-106496252D01*
X148613472Y-106501751D01*
X148157609Y-106501751D01*
X147836696Y-106180839D01*
X147813442Y-106152504D01*
X147700397Y-106059730D01*
X147571425Y-105990793D01*
X147431482Y-105948342D01*
X147322416Y-105937600D01*
X147322409Y-105937600D01*
X147285946Y-105934009D01*
X147249483Y-105937600D01*
X130465470Y-105937600D01*
X130429000Y-105934008D01*
X130392530Y-105937600D01*
X127163463Y-105937600D01*
X127127000Y-105934009D01*
X127090537Y-105937600D01*
X124626090Y-105937600D01*
X124492061Y-105803571D01*
X124471943Y-105779057D01*
X124374125Y-105698780D01*
X124262525Y-105639128D01*
X124239006Y-105631994D01*
X124146673Y-105593748D01*
X124017733Y-105568100D01*
X123886267Y-105568100D01*
X123757327Y-105593748D01*
X123635868Y-105644058D01*
X123526557Y-105717097D01*
X123433597Y-105810057D01*
X123360558Y-105919368D01*
X123310248Y-106040827D01*
X123284600Y-106169767D01*
X123284600Y-106301233D01*
X123309600Y-106426916D01*
X123309601Y-106996581D01*
X123284600Y-107122267D01*
X123284600Y-107253733D01*
X123310248Y-107382673D01*
X123360558Y-107504132D01*
X123433597Y-107613443D01*
X123526557Y-107706403D01*
X123635868Y-107779442D01*
X123757327Y-107829752D01*
X123886267Y-107855400D01*
X124017733Y-107855400D01*
X124143415Y-107830400D01*
X124776585Y-107830400D01*
X124902267Y-107855400D01*
X125033733Y-107855400D01*
X125162673Y-107829752D01*
X125284132Y-107779442D01*
X125393443Y-107706403D01*
X125486403Y-107613443D01*
X125559442Y-107504132D01*
X125593297Y-107422400D01*
X126819489Y-107422400D01*
X127211254Y-107814166D01*
X127234504Y-107842496D01*
X127262832Y-107865744D01*
X127347549Y-107935270D01*
X127476521Y-108004207D01*
X127616464Y-108046658D01*
X127762000Y-108060992D01*
X127798470Y-108057400D01*
X129757537Y-108057400D01*
X129794000Y-108060991D01*
X129830463Y-108057400D01*
X129830470Y-108057400D01*
X129939536Y-108046658D01*
X130079479Y-108004207D01*
X130208451Y-107935270D01*
X130321496Y-107842496D01*
X130344750Y-107814161D01*
X130736512Y-107422400D01*
X146978435Y-107422400D01*
X147299351Y-107743317D01*
X147322601Y-107771647D01*
X147435646Y-107864421D01*
X147514262Y-107906442D01*
X147564618Y-107933358D01*
X147704560Y-107975809D01*
X147850097Y-107990143D01*
X147886567Y-107986551D01*
X167674386Y-107986551D01*
X167710849Y-107990142D01*
X167747312Y-107986551D01*
X169417623Y-107986551D01*
X168230173Y-109174001D01*
X165237699Y-109174001D01*
X165266132Y-109131448D01*
X165312673Y-109019089D01*
X165336400Y-108899809D01*
X165336400Y-108778191D01*
X165312673Y-108658911D01*
X165266132Y-108546552D01*
X165198566Y-108445431D01*
X165112569Y-108359434D01*
X165011448Y-108291868D01*
X164899089Y-108245327D01*
X164779809Y-108221600D01*
X164658191Y-108221600D01*
X164538911Y-108245327D01*
X164426552Y-108291868D01*
X164325431Y-108359434D01*
X164263265Y-108421600D01*
X162262999Y-108421600D01*
X162242500Y-108419581D01*
X162222001Y-108421600D01*
X162160675Y-108427640D01*
X162081995Y-108451507D01*
X162009483Y-108490266D01*
X161945926Y-108542426D01*
X161932860Y-108558347D01*
X160809108Y-109682100D01*
X160721191Y-109682100D01*
X160601911Y-109705827D01*
X160489552Y-109752368D01*
X160388431Y-109819934D01*
X160302434Y-109905931D01*
X160234868Y-110007052D01*
X160188327Y-110119411D01*
X160164600Y-110238691D01*
X160164600Y-110360309D01*
X160188327Y-110479589D01*
X160234868Y-110591948D01*
X160302434Y-110693069D01*
X160388431Y-110779066D01*
X160489552Y-110846632D01*
X160601911Y-110893173D01*
X160721191Y-110916900D01*
X160748134Y-110916900D01*
X152916034Y-118749001D01*
X150056111Y-118749001D01*
X149840400Y-118533291D01*
X149840400Y-118527470D01*
X149843992Y-118491000D01*
X149829658Y-118345464D01*
X149787207Y-118205521D01*
X149718270Y-118076549D01*
X149625496Y-117963504D01*
X149512451Y-117870730D01*
X149383479Y-117801793D01*
X149243536Y-117759342D01*
X149134470Y-117748600D01*
X149098000Y-117745008D01*
X149061530Y-117748600D01*
X148245470Y-117748600D01*
X148209000Y-117745008D01*
X148172530Y-117748600D01*
X148063464Y-117759342D01*
X147923521Y-117801793D01*
X147794549Y-117870730D01*
X147681504Y-117963504D01*
X147588730Y-118076549D01*
X147519793Y-118205521D01*
X147477342Y-118345464D01*
X147463008Y-118491000D01*
X147466600Y-118527470D01*
X147466600Y-118564488D01*
X147282087Y-118749001D01*
X145833425Y-118749001D01*
X145879442Y-118680132D01*
X145929752Y-118558673D01*
X145955400Y-118429733D01*
X145955400Y-118298267D01*
X145929752Y-118169327D01*
X145879442Y-118047868D01*
X145830400Y-117974471D01*
X145830400Y-112149529D01*
X145879442Y-112076132D01*
X145929752Y-111954673D01*
X145955400Y-111825733D01*
X145955400Y-111694267D01*
X145929752Y-111565327D01*
X145879442Y-111443868D01*
X145806403Y-111334557D01*
X145713443Y-111241597D01*
X145604132Y-111168558D01*
X145482673Y-111118248D01*
X145353733Y-111092600D01*
X145222267Y-111092600D01*
X145093327Y-111118248D01*
X144971868Y-111168558D01*
X144862557Y-111241597D01*
X144769597Y-111334557D01*
X144696558Y-111443868D01*
X144646248Y-111565327D01*
X144620600Y-111694267D01*
X144620600Y-111825733D01*
X144646248Y-111954673D01*
X144696558Y-112076132D01*
X144745601Y-112149530D01*
X144745600Y-117974471D01*
X144696558Y-118047868D01*
X144646248Y-118169327D01*
X144620600Y-118298267D01*
X144620600Y-118315242D01*
X141249196Y-114943839D01*
X141225942Y-114915504D01*
X141112897Y-114822730D01*
X140983925Y-114753793D01*
X140843982Y-114711342D01*
X140734916Y-114700600D01*
X140734909Y-114700600D01*
X140698446Y-114697009D01*
X140661983Y-114700600D01*
X125512470Y-114700600D01*
X125476000Y-114697008D01*
X125439530Y-114700600D01*
X124894512Y-114700600D01*
X124401147Y-114207236D01*
X124401143Y-114207231D01*
X123170400Y-112976489D01*
X123170400Y-110884626D01*
X123223451Y-110856270D01*
X123336496Y-110763496D01*
X123359750Y-110735161D01*
X123816168Y-110278743D01*
X123844496Y-110255496D01*
X123875534Y-110217676D01*
X123937269Y-110142452D01*
X124006206Y-110013480D01*
X124014314Y-109986752D01*
X124048658Y-109873536D01*
X124062992Y-109728000D01*
X124048658Y-109582464D01*
X124006207Y-109442521D01*
X123937269Y-109313550D01*
X123867744Y-109228833D01*
X123867740Y-109228829D01*
X123844495Y-109200505D01*
X123816171Y-109177260D01*
X123484750Y-108845839D01*
X123461496Y-108817504D01*
X123348451Y-108724730D01*
X123219479Y-108655793D01*
X123079536Y-108613342D01*
X122970470Y-108602600D01*
X122970463Y-108602600D01*
X122934000Y-108599009D01*
X122897537Y-108602600D01*
X122464470Y-108602600D01*
X122428000Y-108599008D01*
X122357171Y-108605984D01*
X122282464Y-108613342D01*
X122142521Y-108655793D01*
X122013549Y-108724730D01*
X121900504Y-108817504D01*
X121807730Y-108930549D01*
X121738793Y-109059521D01*
X121696342Y-109199464D01*
X121682008Y-109345000D01*
X121685600Y-109381470D01*
X121685600Y-110072535D01*
X121682009Y-110109000D01*
X121685600Y-110145465D01*
X121685601Y-113247527D01*
X121682009Y-113284000D01*
X121696342Y-113429536D01*
X121738793Y-113569478D01*
X121738794Y-113569479D01*
X121807731Y-113698451D01*
X121900505Y-113811496D01*
X121928834Y-113834745D01*
X123351231Y-115257143D01*
X123351236Y-115257147D01*
X123844600Y-115750512D01*
X123844600Y-116295530D01*
X123841008Y-116332000D01*
X123855342Y-116477536D01*
X123897793Y-116617479D01*
X123966730Y-116746451D01*
X124052042Y-116850403D01*
X124059504Y-116859496D01*
X124172549Y-116952270D01*
X124301521Y-117021207D01*
X124441464Y-117063658D01*
X124587000Y-117077992D01*
X124623470Y-117074400D01*
X125439530Y-117074400D01*
X125476000Y-117077992D01*
X125512470Y-117074400D01*
X125621536Y-117063658D01*
X125761479Y-117021207D01*
X125890451Y-116952270D01*
X126003496Y-116859496D01*
X126096270Y-116746451D01*
X126165207Y-116617479D01*
X126207658Y-116477536D01*
X126221992Y-116332000D01*
X126218400Y-116295530D01*
X126218400Y-116185400D01*
X140390935Y-116185400D01*
X144196101Y-119990567D01*
X144219351Y-120018897D01*
X144247679Y-120042145D01*
X144332396Y-120111671D01*
X144461368Y-120180608D01*
X144601311Y-120223059D01*
X144746847Y-120237393D01*
X144783317Y-120233801D01*
X147553136Y-120233801D01*
X147589599Y-120237392D01*
X147626062Y-120233801D01*
X149712129Y-120233801D01*
X149748599Y-120237393D01*
X149785069Y-120233801D01*
X153187082Y-120233801D01*
X153223545Y-120237392D01*
X153260008Y-120233801D01*
X153260015Y-120233801D01*
X153369081Y-120223059D01*
X153509024Y-120180608D01*
X153637996Y-120111671D01*
X153751041Y-120018897D01*
X153774295Y-119990562D01*
X157545857Y-116219000D01*
X173307456Y-116219000D01*
X173313615Y-116281535D01*
X173331856Y-116341667D01*
X173361477Y-116397085D01*
X173401341Y-116445659D01*
X173449915Y-116485523D01*
X173505333Y-116515144D01*
X173565465Y-116533385D01*
X173628000Y-116539544D01*
X175983250Y-116538000D01*
X176063000Y-116458250D01*
X176063000Y-115484000D01*
X173388750Y-115484000D01*
X173309000Y-115563750D01*
X173307456Y-116219000D01*
X157545857Y-116219000D01*
X159145857Y-114619000D01*
X173307456Y-114619000D01*
X173309000Y-115274250D01*
X173388750Y-115354000D01*
X176063000Y-115354000D01*
X176063000Y-114379750D01*
X175983250Y-114300000D01*
X173628000Y-114298456D01*
X173565465Y-114304615D01*
X173505333Y-114322856D01*
X173449915Y-114352477D01*
X173401341Y-114392341D01*
X173361477Y-114440915D01*
X173331856Y-114496333D01*
X173313615Y-114556465D01*
X173307456Y-114619000D01*
X159145857Y-114619000D01*
X162083100Y-111681758D01*
X162083100Y-111698733D01*
X162108748Y-111827673D01*
X162159058Y-111949132D01*
X162232097Y-112058443D01*
X162325057Y-112151403D01*
X162434368Y-112224442D01*
X162555827Y-112274752D01*
X162684767Y-112300400D01*
X162816233Y-112300400D01*
X162945173Y-112274752D01*
X163066632Y-112224442D01*
X163140029Y-112175400D01*
X169980971Y-112175400D01*
X170054368Y-112224442D01*
X170175827Y-112274752D01*
X170304767Y-112300400D01*
X170436233Y-112300400D01*
X170565173Y-112274752D01*
X170686632Y-112224442D01*
X170795943Y-112151403D01*
X170888903Y-112058443D01*
X170961942Y-111949132D01*
X171012252Y-111827673D01*
X171037900Y-111698733D01*
X171037900Y-111567267D01*
X171012252Y-111438327D01*
X170961942Y-111316868D01*
X170888903Y-111207557D01*
X170795943Y-111114597D01*
X170686632Y-111041558D01*
X170565173Y-110991248D01*
X170436233Y-110965600D01*
X170304767Y-110965600D01*
X170175827Y-110991248D01*
X170054368Y-111041558D01*
X169980971Y-111090600D01*
X163140029Y-111090600D01*
X163066632Y-111041558D01*
X162945173Y-110991248D01*
X162816233Y-110965600D01*
X162799258Y-110965600D01*
X163085858Y-110679000D01*
X173307456Y-110679000D01*
X173313615Y-110741535D01*
X173331856Y-110801667D01*
X173361477Y-110857085D01*
X173401341Y-110905659D01*
X173449915Y-110945523D01*
X173505333Y-110975144D01*
X173565465Y-110993385D01*
X173628000Y-110999544D01*
X175983250Y-110998000D01*
X176063000Y-110918250D01*
X176063000Y-109944000D01*
X173388750Y-109944000D01*
X173309000Y-110023750D01*
X173307456Y-110679000D01*
X163085858Y-110679000D01*
X163106057Y-110658801D01*
X168501221Y-110658801D01*
X168537684Y-110662392D01*
X168574147Y-110658801D01*
X168574154Y-110658801D01*
X168683220Y-110648059D01*
X168823163Y-110605608D01*
X168952135Y-110536671D01*
X169065180Y-110443897D01*
X169088434Y-110415562D01*
X170424996Y-109079000D01*
X173307456Y-109079000D01*
X173309000Y-109734250D01*
X173388750Y-109814000D01*
X176063000Y-109814000D01*
X176063000Y-108839750D01*
X175983250Y-108760000D01*
X173628000Y-108758456D01*
X173565465Y-108764615D01*
X173505333Y-108782856D01*
X173449915Y-108812477D01*
X173401341Y-108852341D01*
X173361477Y-108900915D01*
X173331856Y-108956333D01*
X173313615Y-109016465D01*
X173307456Y-109079000D01*
X170424996Y-109079000D01*
X173772988Y-105731009D01*
X173801316Y-105707761D01*
X173894090Y-105594716D01*
X173963027Y-105465744D01*
X174005478Y-105325801D01*
X174007775Y-105302481D01*
X174019812Y-105180265D01*
X174016220Y-105143795D01*
X174016220Y-101417191D01*
X174362161Y-101071250D01*
X174390496Y-101047996D01*
X174483270Y-100934951D01*
X174552207Y-100805979D01*
X174594658Y-100666036D01*
X174605400Y-100556969D01*
X174608992Y-100520500D01*
X174605400Y-100484030D01*
X174605400Y-100175970D01*
X174608992Y-100139500D01*
X174594658Y-99993964D01*
X174552207Y-99854021D01*
X174483270Y-99725049D01*
X174390496Y-99612004D01*
X174277451Y-99519230D01*
X174148479Y-99450293D01*
X174008536Y-99407842D01*
X173899470Y-99397100D01*
X173863000Y-99393508D01*
X173826530Y-99397100D01*
X172946963Y-99397100D01*
X172910500Y-99393509D01*
X172874037Y-99397100D01*
X172874030Y-99397100D01*
X172764964Y-99407842D01*
X172625021Y-99450293D01*
X172496049Y-99519230D01*
X172383004Y-99612004D01*
X172290230Y-99725049D01*
X172221293Y-99854021D01*
X172178842Y-99993964D01*
X172164508Y-100139500D01*
X172178842Y-100285036D01*
X172221293Y-100424979D01*
X172290230Y-100553951D01*
X172383004Y-100666996D01*
X172411339Y-100690250D01*
X172531421Y-100810332D01*
X172531421Y-101504509D01*
X169906400Y-98879489D01*
X169906400Y-98097511D01*
X170044161Y-97959750D01*
X170072496Y-97936496D01*
X170165270Y-97823451D01*
X170234207Y-97694479D01*
X170276658Y-97554536D01*
X170290992Y-97409000D01*
X170276658Y-97263464D01*
X170234207Y-97123521D01*
X170165270Y-96994549D01*
X170072496Y-96881504D01*
X169959451Y-96788730D01*
X169830479Y-96719793D01*
X169690536Y-96677342D01*
X169545000Y-96663008D01*
X169508530Y-96666600D01*
X168692470Y-96666600D01*
X168656000Y-96663008D01*
X168510464Y-96677342D01*
X168370521Y-96719793D01*
X168241549Y-96788730D01*
X168128504Y-96881504D01*
X168035730Y-96994549D01*
X167966793Y-97123521D01*
X167924342Y-97263464D01*
X167910008Y-97409000D01*
X167913600Y-97445471D01*
X167913601Y-98642528D01*
X167910009Y-98679000D01*
X167924342Y-98824536D01*
X167966793Y-98964478D01*
X167966794Y-98964479D01*
X168035731Y-99093451D01*
X168128505Y-99206496D01*
X168156834Y-99229745D01*
X168613260Y-99686171D01*
X168636505Y-99714496D01*
X168664829Y-99737741D01*
X168664831Y-99737743D01*
X168664836Y-99737747D01*
X171329011Y-102401923D01*
X171329011Y-102958888D01*
X163128428Y-94758305D01*
X163111444Y-94737610D01*
X163028853Y-94669829D01*
X162934626Y-94619463D01*
X162832383Y-94588448D01*
X162752697Y-94580600D01*
X162752687Y-94580600D01*
X162726054Y-94577977D01*
X162699421Y-94580600D01*
X157615529Y-94580600D01*
X157542132Y-94531558D01*
X157420673Y-94481248D01*
X157291733Y-94455600D01*
X157160267Y-94455600D01*
X157031327Y-94481248D01*
X156909868Y-94531558D01*
X156800557Y-94604597D01*
X156707597Y-94697557D01*
X156634558Y-94806868D01*
X156584248Y-94928327D01*
X156558600Y-95057267D01*
X156558600Y-95188733D01*
X156584248Y-95317673D01*
X156634558Y-95439132D01*
X156707597Y-95548443D01*
X156800557Y-95641403D01*
X156909868Y-95714442D01*
X157031327Y-95764752D01*
X157160267Y-95790400D01*
X157291733Y-95790400D01*
X157420673Y-95764752D01*
X157542132Y-95714442D01*
X157615529Y-95665400D01*
X162501385Y-95665400D01*
X169610085Y-102774100D01*
X169606267Y-102774100D01*
X169477327Y-102799748D01*
X169355868Y-102850058D01*
X169282471Y-102899100D01*
X168436170Y-102899100D01*
X165565874Y-100028805D01*
X165548890Y-100008110D01*
X165466299Y-99940329D01*
X165372072Y-99889963D01*
X165269829Y-99858948D01*
X165190143Y-99851100D01*
X165190133Y-99851100D01*
X165163500Y-99848477D01*
X165136867Y-99851100D01*
X147963529Y-99851100D01*
X147890132Y-99802058D01*
X147768673Y-99751748D01*
X147639733Y-99726100D01*
X147508267Y-99726100D01*
X147379327Y-99751748D01*
X147257868Y-99802058D01*
X147148557Y-99875097D01*
X147055597Y-99968057D01*
X146982558Y-100077368D01*
X146932248Y-100198827D01*
X146906600Y-100327767D01*
X146906600Y-100459233D01*
X146932248Y-100588173D01*
X146982558Y-100709632D01*
X147055597Y-100818943D01*
X147148557Y-100911903D01*
X147257868Y-100984942D01*
X147379327Y-101035252D01*
X147508267Y-101060900D01*
X147639733Y-101060900D01*
X147768673Y-101035252D01*
X147890132Y-100984942D01*
X147963529Y-100935900D01*
X164938831Y-100935900D01*
X167809130Y-103806200D01*
X167826110Y-103826890D01*
X167846800Y-103843870D01*
X167846804Y-103843874D01*
X167908700Y-103894671D01*
X167986433Y-103936220D01*
X168002928Y-103945037D01*
X168105171Y-103976052D01*
X168184857Y-103983900D01*
X168184867Y-103983900D01*
X168211500Y-103986523D01*
X168238133Y-103983900D01*
X169282471Y-103983900D01*
X169355868Y-104032942D01*
X169477327Y-104083252D01*
X169606267Y-104108900D01*
X169737733Y-104108900D01*
X169866673Y-104083252D01*
X169988132Y-104032942D01*
X170097443Y-103959903D01*
X170190403Y-103866943D01*
X170263442Y-103757632D01*
X170313752Y-103636173D01*
X170339400Y-103507233D01*
X170339400Y-103503415D01*
X170526600Y-103690615D01*
X170526600Y-104042330D01*
X170158531Y-104410400D01*
X170061529Y-104410400D01*
X169988132Y-104361358D01*
X169866673Y-104311048D01*
X169737733Y-104285400D01*
X169606267Y-104285400D01*
X169477327Y-104311048D01*
X169355868Y-104361358D01*
X169246557Y-104434397D01*
X169153597Y-104527357D01*
X169080558Y-104636668D01*
X169030248Y-104758127D01*
X169004600Y-104887067D01*
X169004600Y-105018533D01*
X169030248Y-105147473D01*
X169080558Y-105268932D01*
X169153597Y-105378243D01*
X169246557Y-105471203D01*
X169355868Y-105544242D01*
X169477327Y-105594552D01*
X169606267Y-105620200D01*
X169737733Y-105620200D01*
X169866673Y-105594552D01*
X169988132Y-105544242D01*
X170061529Y-105495200D01*
X170208509Y-105495200D01*
X169305654Y-106398055D01*
X169297752Y-106358327D01*
X169247442Y-106236868D01*
X169174403Y-106127557D01*
X169081443Y-106034597D01*
X168972132Y-105961558D01*
X168850673Y-105911248D01*
X168721733Y-105885600D01*
X168590267Y-105885600D01*
X168461327Y-105911248D01*
X168339868Y-105961558D01*
X168230557Y-106034597D01*
X168211500Y-106053654D01*
X168192443Y-106034597D01*
X168083132Y-105961558D01*
X167961673Y-105911248D01*
X167832733Y-105885600D01*
X167701267Y-105885600D01*
X167572327Y-105911248D01*
X167450868Y-105961558D01*
X167341557Y-106034597D01*
X167248597Y-106127557D01*
X167175558Y-106236868D01*
X167125248Y-106358327D01*
X167099600Y-106487267D01*
X167099600Y-106501751D01*
X148947528Y-106501751D01*
X148975173Y-106496252D01*
X149096632Y-106445942D01*
X149205943Y-106372903D01*
X149298903Y-106279943D01*
X149323654Y-106242900D01*
X149423451Y-106242900D01*
X149511021Y-106289707D01*
X149594428Y-106315008D01*
X149650963Y-106332158D01*
X149665890Y-106333628D01*
X149760030Y-106342900D01*
X149760036Y-106342900D01*
X149796499Y-106346491D01*
X149832962Y-106342900D01*
X163539537Y-106342900D01*
X163576000Y-106346491D01*
X163612463Y-106342900D01*
X163612470Y-106342900D01*
X163721536Y-106332158D01*
X163861479Y-106289707D01*
X163990451Y-106220770D01*
X164103496Y-106127996D01*
X164126750Y-106099661D01*
X164710166Y-105516246D01*
X164738496Y-105492996D01*
X164831270Y-105379951D01*
X164843589Y-105356903D01*
X164900207Y-105250979D01*
X164942658Y-105111036D01*
X164956992Y-104965500D01*
X164953400Y-104929030D01*
X164953400Y-104874970D01*
X164956992Y-104838500D01*
X164942658Y-104692964D01*
X164900207Y-104553021D01*
X164831270Y-104424049D01*
X164738496Y-104311004D01*
X164625451Y-104218230D01*
X164496479Y-104149293D01*
X164356536Y-104106842D01*
X164247470Y-104096100D01*
X164211000Y-104092508D01*
X164174530Y-104096100D01*
X162269530Y-104096100D01*
X162160464Y-104106842D01*
X162020521Y-104149293D01*
X161891549Y-104218230D01*
X161778504Y-104311004D01*
X161685730Y-104424049D01*
X161616793Y-104553021D01*
X161574342Y-104692964D01*
X161560008Y-104838500D01*
X161561938Y-104858100D01*
X150104013Y-104858100D01*
X148505750Y-103259839D01*
X148482496Y-103231504D01*
X148369451Y-103138730D01*
X148240479Y-103069793D01*
X148100536Y-103027342D01*
X147991470Y-103016600D01*
X147991463Y-103016600D01*
X147955000Y-103013009D01*
X147918537Y-103016600D01*
X134529459Y-103016600D01*
X134492999Y-103013009D01*
X134456539Y-103016600D01*
X129710900Y-103016600D01*
X129710900Y-99443691D01*
X130700600Y-99443691D01*
X130700600Y-99565309D01*
X130724327Y-99684589D01*
X130770868Y-99796948D01*
X130838434Y-99898069D01*
X130924431Y-99984066D01*
X131025552Y-100051632D01*
X131137911Y-100098173D01*
X131257191Y-100121900D01*
X131378809Y-100121900D01*
X131498089Y-100098173D01*
X131610448Y-100051632D01*
X131711569Y-99984066D01*
X131797566Y-99898069D01*
X131865132Y-99796948D01*
X131911673Y-99684589D01*
X131913335Y-99676234D01*
X133599768Y-97989801D01*
X149398267Y-97989801D01*
X149424900Y-97992424D01*
X149451533Y-97989801D01*
X149451543Y-97989801D01*
X149531229Y-97981953D01*
X149633472Y-97950938D01*
X149727699Y-97900572D01*
X149810290Y-97832791D01*
X149827274Y-97812096D01*
X150079536Y-97559835D01*
X150087890Y-97558173D01*
X150200249Y-97511632D01*
X150301370Y-97444066D01*
X150387367Y-97358069D01*
X150454933Y-97256948D01*
X150501474Y-97144589D01*
X150525201Y-97025309D01*
X150525201Y-96903691D01*
X150501474Y-96784411D01*
X150454933Y-96672052D01*
X150387367Y-96570931D01*
X150301370Y-96484934D01*
X150200249Y-96417368D01*
X150087890Y-96370827D01*
X149968610Y-96347100D01*
X149846992Y-96347100D01*
X149727712Y-96370827D01*
X149615353Y-96417368D01*
X149514232Y-96484934D01*
X149428235Y-96570931D01*
X149360669Y-96672052D01*
X149314128Y-96784411D01*
X149312466Y-96792765D01*
X149200231Y-96905001D01*
X133401731Y-96905001D01*
X133375098Y-96902378D01*
X133348465Y-96905001D01*
X133348456Y-96905001D01*
X133268770Y-96912849D01*
X133166527Y-96943864D01*
X133105121Y-96976686D01*
X133072299Y-96994230D01*
X133034430Y-97025309D01*
X132989709Y-97062011D01*
X132972725Y-97082706D01*
X131146266Y-98909165D01*
X131137911Y-98910827D01*
X131025552Y-98957368D01*
X130924431Y-99024934D01*
X130838434Y-99110931D01*
X130770868Y-99212052D01*
X130724327Y-99324411D01*
X130700600Y-99443691D01*
X129710900Y-99443691D01*
X129710900Y-94859011D01*
X130863512Y-93706400D01*
X139355470Y-93706400D01*
X139464536Y-93695658D01*
X139604479Y-93653207D01*
X139733451Y-93584270D01*
X139846496Y-93491496D01*
X139939270Y-93378451D01*
X140008207Y-93249479D01*
X140050658Y-93109536D01*
X140064992Y-92964000D01*
X140050658Y-92818464D01*
X140008207Y-92678521D01*
X139939270Y-92549549D01*
X139846496Y-92436504D01*
X139733451Y-92343730D01*
X139604479Y-92274793D01*
X139464536Y-92232342D01*
X139355470Y-92221600D01*
X130592462Y-92221600D01*
X130555999Y-92218009D01*
X130519536Y-92221600D01*
X130519530Y-92221600D01*
X130425390Y-92230872D01*
X130410463Y-92232342D01*
X130293795Y-92267733D01*
X130270521Y-92274793D01*
X130141549Y-92343730D01*
X130028504Y-92436504D01*
X130005254Y-92464834D01*
X128469334Y-94000755D01*
X128441005Y-94024004D01*
X128348231Y-94137049D01*
X128311383Y-94205987D01*
X128279293Y-94266022D01*
X128236842Y-94405964D01*
X128222509Y-94551500D01*
X128226101Y-94587973D01*
X128226100Y-103016600D01*
X122845462Y-103016600D01*
X122808999Y-103013009D01*
X122772536Y-103016600D01*
X122210462Y-103016600D01*
X122173999Y-103013009D01*
X122137536Y-103016600D01*
X122137530Y-103016600D01*
X122043390Y-103025872D01*
X122028463Y-103027342D01*
X122002042Y-103035357D01*
X121888521Y-103069793D01*
X121759549Y-103138730D01*
X121646504Y-103231504D01*
X121623254Y-103259835D01*
X121420838Y-103462251D01*
X121392504Y-103485504D01*
X121369255Y-103513833D01*
X121166834Y-103716255D01*
X121138505Y-103739504D01*
X121045731Y-103852549D01*
X120976793Y-103981521D01*
X120934342Y-104121464D01*
X120923600Y-104230530D01*
X120923600Y-104230537D01*
X120920009Y-104267000D01*
X120923600Y-104303463D01*
X120923600Y-104865530D01*
X120920008Y-104902000D01*
X115793100Y-104902000D01*
X115793100Y-92202000D01*
X161306008Y-92202000D01*
X161320342Y-92347536D01*
X161362793Y-92487479D01*
X161431730Y-92616451D01*
X161524504Y-92729496D01*
X161637549Y-92822270D01*
X161766521Y-92891207D01*
X161906464Y-92933658D01*
X162015530Y-92944400D01*
X162109299Y-92944400D01*
X162124793Y-92995478D01*
X162193730Y-93124450D01*
X162286504Y-93237496D01*
X162399549Y-93330270D01*
X162528521Y-93399207D01*
X162668464Y-93441658D01*
X162814000Y-93455992D01*
X162959535Y-93441658D01*
X163099478Y-93399207D01*
X163228450Y-93330270D01*
X163341496Y-93237496D01*
X163434270Y-93124451D01*
X163503207Y-92995479D01*
X163518702Y-92944400D01*
X163920537Y-92944400D01*
X163957000Y-92947991D01*
X163993463Y-92944400D01*
X163993470Y-92944400D01*
X164102536Y-92933658D01*
X164242479Y-92891207D01*
X164371451Y-92822270D01*
X164484496Y-92729496D01*
X164507750Y-92701161D01*
X164601760Y-92607151D01*
X164606731Y-92616451D01*
X164699505Y-92729496D01*
X164812550Y-92822270D01*
X164941522Y-92891207D01*
X165081465Y-92933658D01*
X165227000Y-92947992D01*
X165372536Y-92933658D01*
X165512479Y-92891207D01*
X165641451Y-92822270D01*
X165754496Y-92729496D01*
X165847270Y-92616451D01*
X165916207Y-92487479D01*
X165931702Y-92436400D01*
X166025470Y-92436400D01*
X166134536Y-92425658D01*
X166274479Y-92383207D01*
X166403451Y-92314270D01*
X166516496Y-92221496D01*
X166609270Y-92108451D01*
X166678207Y-91979479D01*
X166720658Y-91839536D01*
X166734992Y-91694000D01*
X166720658Y-91548464D01*
X166678207Y-91408521D01*
X166609270Y-91279549D01*
X166516496Y-91166504D01*
X166403451Y-91073730D01*
X166274479Y-91004793D01*
X166134536Y-90962342D01*
X166025470Y-90951600D01*
X165915511Y-90951600D01*
X165777750Y-90813839D01*
X165754496Y-90785504D01*
X165641450Y-90692730D01*
X165512478Y-90623793D01*
X165372536Y-90581342D01*
X165359487Y-90580057D01*
X165227000Y-90567008D01*
X165081464Y-90581342D01*
X164941521Y-90623793D01*
X164812549Y-90692730D01*
X164699504Y-90785504D01*
X164606730Y-90898550D01*
X164578374Y-90951600D01*
X164501459Y-90951600D01*
X164464999Y-90948009D01*
X164428539Y-90951600D01*
X164428530Y-90951600D01*
X164319464Y-90962342D01*
X164179521Y-91004793D01*
X164050549Y-91073730D01*
X163937504Y-91166504D01*
X163914256Y-91194832D01*
X163649489Y-91459600D01*
X163462626Y-91459600D01*
X163434270Y-91406549D01*
X163341496Y-91293504D01*
X163228451Y-91200730D01*
X163099479Y-91131793D01*
X162959536Y-91089342D01*
X162814000Y-91075008D01*
X162668465Y-91089342D01*
X162528522Y-91131793D01*
X162399550Y-91200730D01*
X162286505Y-91293504D01*
X162263255Y-91321834D01*
X162125489Y-91459600D01*
X162015530Y-91459600D01*
X161906464Y-91470342D01*
X161766521Y-91512793D01*
X161637549Y-91581730D01*
X161524504Y-91674504D01*
X161431730Y-91787549D01*
X161362793Y-91916521D01*
X161320342Y-92056464D01*
X161306008Y-92202000D01*
X115793100Y-92202000D01*
X115793100Y-87223600D01*
X178415101Y-87223600D01*
X178415100Y-108758596D01*
G37*
G04 #@! TD.AperFunction*
M02*
