G04 #@! TF.GenerationSoftware,KiCad,Pcbnew,5.1.10-88a1d61d58~88~ubuntu18.04.1*
G04 #@! TF.CreationDate,2021-10-01T18:12:45+02:00*
G04 #@! TF.ProjectId,signal_processing,7369676e-616c-45f7-9072-6f6365737369,rev?*
G04 #@! TF.SameCoordinates,Original*
G04 #@! TF.FileFunction,Legend,Bot*
G04 #@! TF.FilePolarity,Positive*
%FSLAX46Y46*%
G04 Gerber Fmt 4.6, Leading zero omitted, Abs format (unit mm)*
G04 Created by KiCad (PCBNEW 5.1.10-88a1d61d58~88~ubuntu18.04.1) date 2021-10-01 18:12:45*
%MOMM*%
%LPD*%
G01*
G04 APERTURE LIST*
%ADD10C,0.150000*%
%ADD11R,5.000000X1.600000*%
%ADD12R,1.600000X5.000000*%
G04 APERTURE END LIST*
D10*
X121427504Y-96091428D02*
X120665600Y-96091428D01*
X121046552Y-96472380D02*
X121046552Y-95710476D01*
X119713219Y-95472380D02*
X120189409Y-95472380D01*
X120237028Y-95948571D01*
X120189409Y-95900952D01*
X120094171Y-95853333D01*
X119856076Y-95853333D01*
X119760838Y-95900952D01*
X119713219Y-95948571D01*
X119665600Y-96043809D01*
X119665600Y-96281904D01*
X119713219Y-96377142D01*
X119760838Y-96424761D01*
X119856076Y-96472380D01*
X120094171Y-96472380D01*
X120189409Y-96424761D01*
X120237028Y-96377142D01*
X119379885Y-95472380D02*
X119046552Y-96472380D01*
X118713219Y-95472380D01*
X121427504Y-99139428D02*
X120665600Y-99139428D01*
X119713219Y-98520380D02*
X120189409Y-98520380D01*
X120237028Y-98996571D01*
X120189409Y-98948952D01*
X120094171Y-98901333D01*
X119856076Y-98901333D01*
X119760838Y-98948952D01*
X119713219Y-98996571D01*
X119665600Y-99091809D01*
X119665600Y-99329904D01*
X119713219Y-99425142D01*
X119760838Y-99472761D01*
X119856076Y-99520380D01*
X120094171Y-99520380D01*
X120189409Y-99472761D01*
X120237028Y-99425142D01*
X119379885Y-98520380D02*
X119046552Y-99520380D01*
X118713219Y-98520380D01*
X121935504Y-94567428D02*
X121173600Y-94567428D01*
X121554552Y-94948380D02*
X121554552Y-94186476D01*
X120268838Y-93948380D02*
X120459314Y-93948380D01*
X120554552Y-93996000D01*
X120602171Y-94043619D01*
X120697409Y-94186476D01*
X120745028Y-94376952D01*
X120745028Y-94757904D01*
X120697409Y-94853142D01*
X120649790Y-94900761D01*
X120554552Y-94948380D01*
X120364076Y-94948380D01*
X120268838Y-94900761D01*
X120221219Y-94853142D01*
X120173600Y-94757904D01*
X120173600Y-94519809D01*
X120221219Y-94424571D01*
X120268838Y-94376952D01*
X120364076Y-94329333D01*
X120554552Y-94329333D01*
X120649790Y-94376952D01*
X120697409Y-94424571D01*
X120745028Y-94519809D01*
X119268838Y-93948380D02*
X119745028Y-93948380D01*
X119792647Y-94424571D01*
X119745028Y-94376952D01*
X119649790Y-94329333D01*
X119411695Y-94329333D01*
X119316457Y-94376952D01*
X119268838Y-94424571D01*
X119221219Y-94519809D01*
X119221219Y-94757904D01*
X119268838Y-94853142D01*
X119316457Y-94900761D01*
X119411695Y-94948380D01*
X119649790Y-94948380D01*
X119745028Y-94900761D01*
X119792647Y-94853142D01*
X118935504Y-93948380D02*
X118602171Y-94948380D01*
X118268838Y-93948380D01*
X120903695Y-97044000D02*
X120998933Y-96996380D01*
X121141790Y-96996380D01*
X121284647Y-97044000D01*
X121379885Y-97139238D01*
X121427504Y-97234476D01*
X121475123Y-97424952D01*
X121475123Y-97567809D01*
X121427504Y-97758285D01*
X121379885Y-97853523D01*
X121284647Y-97948761D01*
X121141790Y-97996380D01*
X121046552Y-97996380D01*
X120903695Y-97948761D01*
X120856076Y-97901142D01*
X120856076Y-97567809D01*
X121046552Y-97567809D01*
X120427504Y-97996380D02*
X120427504Y-96996380D01*
X119856076Y-97996380D01*
X119856076Y-96996380D01*
X119379885Y-97996380D02*
X119379885Y-96996380D01*
X119141790Y-96996380D01*
X118998933Y-97044000D01*
X118903695Y-97139238D01*
X118856076Y-97234476D01*
X118808457Y-97424952D01*
X118808457Y-97567809D01*
X118856076Y-97758285D01*
X118903695Y-97853523D01*
X118998933Y-97948761D01*
X119141790Y-97996380D01*
X119379885Y-97996380D01*
X175275504Y-94567428D02*
X174513600Y-94567428D01*
X174894552Y-94948380D02*
X174894552Y-94186476D01*
X173608838Y-93948380D02*
X173799314Y-93948380D01*
X173894552Y-93996000D01*
X173942171Y-94043619D01*
X174037409Y-94186476D01*
X174085028Y-94376952D01*
X174085028Y-94757904D01*
X174037409Y-94853142D01*
X173989790Y-94900761D01*
X173894552Y-94948380D01*
X173704076Y-94948380D01*
X173608838Y-94900761D01*
X173561219Y-94853142D01*
X173513600Y-94757904D01*
X173513600Y-94519809D01*
X173561219Y-94424571D01*
X173608838Y-94376952D01*
X173704076Y-94329333D01*
X173894552Y-94329333D01*
X173989790Y-94376952D01*
X174037409Y-94424571D01*
X174085028Y-94519809D01*
X172608838Y-93948380D02*
X173085028Y-93948380D01*
X173132647Y-94424571D01*
X173085028Y-94376952D01*
X172989790Y-94329333D01*
X172751695Y-94329333D01*
X172656457Y-94376952D01*
X172608838Y-94424571D01*
X172561219Y-94519809D01*
X172561219Y-94757904D01*
X172608838Y-94853142D01*
X172656457Y-94900761D01*
X172751695Y-94948380D01*
X172989790Y-94948380D01*
X173085028Y-94900761D01*
X173132647Y-94853142D01*
X172275504Y-93948380D02*
X171942171Y-94948380D01*
X171608838Y-93948380D01*
X175021504Y-96091428D02*
X174259600Y-96091428D01*
X174640552Y-96472380D02*
X174640552Y-95710476D01*
X173307219Y-95472380D02*
X173783409Y-95472380D01*
X173831028Y-95948571D01*
X173783409Y-95900952D01*
X173688171Y-95853333D01*
X173450076Y-95853333D01*
X173354838Y-95900952D01*
X173307219Y-95948571D01*
X173259600Y-96043809D01*
X173259600Y-96281904D01*
X173307219Y-96377142D01*
X173354838Y-96424761D01*
X173450076Y-96472380D01*
X173688171Y-96472380D01*
X173783409Y-96424761D01*
X173831028Y-96377142D01*
X172973885Y-95472380D02*
X172640552Y-96472380D01*
X172307219Y-95472380D01*
X174243695Y-97044000D02*
X174338933Y-96996380D01*
X174481790Y-96996380D01*
X174624647Y-97044000D01*
X174719885Y-97139238D01*
X174767504Y-97234476D01*
X174815123Y-97424952D01*
X174815123Y-97567809D01*
X174767504Y-97758285D01*
X174719885Y-97853523D01*
X174624647Y-97948761D01*
X174481790Y-97996380D01*
X174386552Y-97996380D01*
X174243695Y-97948761D01*
X174196076Y-97901142D01*
X174196076Y-97567809D01*
X174386552Y-97567809D01*
X173767504Y-97996380D02*
X173767504Y-96996380D01*
X173196076Y-97996380D01*
X173196076Y-96996380D01*
X172719885Y-97996380D02*
X172719885Y-96996380D01*
X172481790Y-96996380D01*
X172338933Y-97044000D01*
X172243695Y-97139238D01*
X172196076Y-97234476D01*
X172148457Y-97424952D01*
X172148457Y-97567809D01*
X172196076Y-97758285D01*
X172243695Y-97853523D01*
X172338933Y-97948761D01*
X172481790Y-97996380D01*
X172719885Y-97996380D01*
X175021504Y-99139428D02*
X174259600Y-99139428D01*
X173307219Y-98520380D02*
X173783409Y-98520380D01*
X173831028Y-98996571D01*
X173783409Y-98948952D01*
X173688171Y-98901333D01*
X173450076Y-98901333D01*
X173354838Y-98948952D01*
X173307219Y-98996571D01*
X173259600Y-99091809D01*
X173259600Y-99329904D01*
X173307219Y-99425142D01*
X173354838Y-99472761D01*
X173450076Y-99520380D01*
X173688171Y-99520380D01*
X173783409Y-99472761D01*
X173831028Y-99425142D01*
X172973885Y-98520380D02*
X172640552Y-99520380D01*
X172307219Y-98520380D01*
X174243695Y-101362000D02*
X174338933Y-101314380D01*
X174481790Y-101314380D01*
X174624647Y-101362000D01*
X174719885Y-101457238D01*
X174767504Y-101552476D01*
X174815123Y-101742952D01*
X174815123Y-101885809D01*
X174767504Y-102076285D01*
X174719885Y-102171523D01*
X174624647Y-102266761D01*
X174481790Y-102314380D01*
X174386552Y-102314380D01*
X174243695Y-102266761D01*
X174196076Y-102219142D01*
X174196076Y-101885809D01*
X174386552Y-101885809D01*
X173767504Y-102314380D02*
X173767504Y-101314380D01*
X173196076Y-102314380D01*
X173196076Y-101314380D01*
X172719885Y-102314380D02*
X172719885Y-101314380D01*
X172481790Y-101314380D01*
X172338933Y-101362000D01*
X172243695Y-101457238D01*
X172196076Y-101552476D01*
X172148457Y-101742952D01*
X172148457Y-101885809D01*
X172196076Y-102076285D01*
X172243695Y-102171523D01*
X172338933Y-102266761D01*
X172481790Y-102314380D01*
X172719885Y-102314380D01*
X176291504Y-103457428D02*
X175529600Y-103457428D01*
X175910552Y-103838380D02*
X175910552Y-103076476D01*
X175101028Y-103790761D02*
X174958171Y-103838380D01*
X174720076Y-103838380D01*
X174624838Y-103790761D01*
X174577219Y-103743142D01*
X174529600Y-103647904D01*
X174529600Y-103552666D01*
X174577219Y-103457428D01*
X174624838Y-103409809D01*
X174720076Y-103362190D01*
X174910552Y-103314571D01*
X175005790Y-103266952D01*
X175053409Y-103219333D01*
X175101028Y-103124095D01*
X175101028Y-103028857D01*
X175053409Y-102933619D01*
X175005790Y-102886000D01*
X174910552Y-102838380D01*
X174672457Y-102838380D01*
X174529600Y-102886000D01*
X173624838Y-103838380D02*
X174101028Y-103838380D01*
X174101028Y-102838380D01*
X173101028Y-102838380D02*
X172910552Y-102838380D01*
X172815314Y-102886000D01*
X172720076Y-102981238D01*
X172672457Y-103171714D01*
X172672457Y-103505047D01*
X172720076Y-103695523D01*
X172815314Y-103790761D01*
X172910552Y-103838380D01*
X173101028Y-103838380D01*
X173196266Y-103790761D01*
X173291504Y-103695523D01*
X173339123Y-103505047D01*
X173339123Y-103171714D01*
X173291504Y-102981238D01*
X173196266Y-102886000D01*
X173101028Y-102838380D01*
X172243885Y-103838380D02*
X172243885Y-102838380D01*
X171862933Y-102838380D01*
X171767695Y-102886000D01*
X171720076Y-102933619D01*
X171672457Y-103028857D01*
X171672457Y-103171714D01*
X171720076Y-103266952D01*
X171767695Y-103314571D01*
X171862933Y-103362190D01*
X172243885Y-103362190D01*
X171243885Y-103314571D02*
X170910552Y-103314571D01*
X170767695Y-103838380D02*
X171243885Y-103838380D01*
X171243885Y-102838380D01*
X170767695Y-102838380D01*
X178226404Y-105362380D02*
X178226404Y-104362380D01*
X177845452Y-104362380D01*
X177750214Y-104410000D01*
X177702595Y-104457619D01*
X177654976Y-104552857D01*
X177654976Y-104695714D01*
X177702595Y-104790952D01*
X177750214Y-104838571D01*
X177845452Y-104886190D01*
X178226404Y-104886190D01*
X177226404Y-104362380D02*
X177226404Y-105171904D01*
X177178785Y-105267142D01*
X177131166Y-105314761D01*
X177035928Y-105362380D01*
X176845452Y-105362380D01*
X176750214Y-105314761D01*
X176702595Y-105267142D01*
X176654976Y-105171904D01*
X176654976Y-104362380D01*
X175702595Y-105362380D02*
X176178785Y-105362380D01*
X176178785Y-104362380D01*
X175416880Y-105314761D02*
X175274023Y-105362380D01*
X175035928Y-105362380D01*
X174940690Y-105314761D01*
X174893071Y-105267142D01*
X174845452Y-105171904D01*
X174845452Y-105076666D01*
X174893071Y-104981428D01*
X174940690Y-104933809D01*
X175035928Y-104886190D01*
X175226404Y-104838571D01*
X175321642Y-104790952D01*
X175369261Y-104743333D01*
X175416880Y-104648095D01*
X175416880Y-104552857D01*
X175369261Y-104457619D01*
X175321642Y-104410000D01*
X175226404Y-104362380D01*
X174988309Y-104362380D01*
X174845452Y-104410000D01*
X174416880Y-104838571D02*
X174083547Y-104838571D01*
X173940690Y-105362380D02*
X174416880Y-105362380D01*
X174416880Y-104362380D01*
X173940690Y-104362380D01*
X172750214Y-105362380D02*
X172750214Y-104362380D01*
X172512119Y-104362380D01*
X172369261Y-104410000D01*
X172274023Y-104505238D01*
X172226404Y-104600476D01*
X172178785Y-104790952D01*
X172178785Y-104933809D01*
X172226404Y-105124285D01*
X172274023Y-105219523D01*
X172369261Y-105314761D01*
X172512119Y-105362380D01*
X172750214Y-105362380D01*
X171750214Y-104362380D02*
X171750214Y-105171904D01*
X171702595Y-105267142D01*
X171654976Y-105314761D01*
X171559738Y-105362380D01*
X171369261Y-105362380D01*
X171274023Y-105314761D01*
X171226404Y-105267142D01*
X171178785Y-105171904D01*
X171178785Y-104362380D01*
X170131166Y-105362380D02*
X170464500Y-104886190D01*
X170702595Y-105362380D02*
X170702595Y-104362380D01*
X170321642Y-104362380D01*
X170226404Y-104410000D01*
X170178785Y-104457619D01*
X170131166Y-104552857D01*
X170131166Y-104695714D01*
X170178785Y-104790952D01*
X170226404Y-104838571D01*
X170321642Y-104886190D01*
X170702595Y-104886190D01*
X178274023Y-106838761D02*
X178131166Y-106886380D01*
X177893071Y-106886380D01*
X177797833Y-106838761D01*
X177750214Y-106791142D01*
X177702595Y-106695904D01*
X177702595Y-106600666D01*
X177750214Y-106505428D01*
X177797833Y-106457809D01*
X177893071Y-106410190D01*
X178083547Y-106362571D01*
X178178785Y-106314952D01*
X178226404Y-106267333D01*
X178274023Y-106172095D01*
X178274023Y-106076857D01*
X178226404Y-105981619D01*
X178178785Y-105934000D01*
X178083547Y-105886380D01*
X177845452Y-105886380D01*
X177702595Y-105934000D01*
X176464500Y-106886380D02*
X176512119Y-106886380D01*
X176607357Y-106838761D01*
X176750214Y-106695904D01*
X176988309Y-106410190D01*
X177083547Y-106267333D01*
X177131166Y-106124476D01*
X177131166Y-106029238D01*
X177083547Y-105934000D01*
X176988309Y-105886380D01*
X176940690Y-105886380D01*
X176845452Y-105934000D01*
X176797833Y-106029238D01*
X176797833Y-106076857D01*
X176845452Y-106172095D01*
X176893071Y-106219714D01*
X177178785Y-106410190D01*
X177226404Y-106457809D01*
X177274023Y-106553047D01*
X177274023Y-106695904D01*
X177226404Y-106791142D01*
X177178785Y-106838761D01*
X177083547Y-106886380D01*
X176940690Y-106886380D01*
X176845452Y-106838761D01*
X176797833Y-106791142D01*
X176654976Y-106600666D01*
X176607357Y-106457809D01*
X176607357Y-106362571D01*
X176035928Y-106886380D02*
X176035928Y-105886380D01*
X176035928Y-106362571D02*
X175464500Y-106362571D01*
X175464500Y-106886380D02*
X175464500Y-105886380D01*
X173654976Y-106886380D02*
X173988309Y-106410190D01*
X174226404Y-106886380D02*
X174226404Y-105886380D01*
X173845452Y-105886380D01*
X173750214Y-105934000D01*
X173702595Y-105981619D01*
X173654976Y-106076857D01*
X173654976Y-106219714D01*
X173702595Y-106314952D01*
X173750214Y-106362571D01*
X173845452Y-106410190D01*
X174226404Y-106410190D01*
X173226404Y-106362571D02*
X172893071Y-106362571D01*
X172750214Y-106886380D02*
X173226404Y-106886380D01*
X173226404Y-105886380D01*
X172750214Y-105886380D01*
X172369261Y-106838761D02*
X172226404Y-106886380D01*
X171988309Y-106886380D01*
X171893071Y-106838761D01*
X171845452Y-106791142D01*
X171797833Y-106695904D01*
X171797833Y-106600666D01*
X171845452Y-106505428D01*
X171893071Y-106457809D01*
X171988309Y-106410190D01*
X172178785Y-106362571D01*
X172274023Y-106314952D01*
X172321642Y-106267333D01*
X172369261Y-106172095D01*
X172369261Y-106076857D01*
X172321642Y-105981619D01*
X172274023Y-105934000D01*
X172178785Y-105886380D01*
X171940690Y-105886380D01*
X171797833Y-105934000D01*
X171369261Y-106362571D02*
X171035928Y-106362571D01*
X170893071Y-106886380D02*
X171369261Y-106886380D01*
X171369261Y-105886380D01*
X170893071Y-105886380D01*
X170607357Y-105886380D02*
X170035928Y-105886380D01*
X170321642Y-106886380D02*
X170321642Y-105886380D01*
X147962857Y-98496380D02*
X148296190Y-98020190D01*
X148534285Y-98496380D02*
X148534285Y-97496380D01*
X148153333Y-97496380D01*
X148058095Y-97544000D01*
X148010476Y-97591619D01*
X147962857Y-97686857D01*
X147962857Y-97829714D01*
X148010476Y-97924952D01*
X148058095Y-97972571D01*
X148153333Y-98020190D01*
X148534285Y-98020190D01*
X147629523Y-97496380D02*
X147010476Y-97496380D01*
X147343809Y-97877333D01*
X147200952Y-97877333D01*
X147105714Y-97924952D01*
X147058095Y-97972571D01*
X147010476Y-98067809D01*
X147010476Y-98305904D01*
X147058095Y-98401142D01*
X147105714Y-98448761D01*
X147200952Y-98496380D01*
X147486666Y-98496380D01*
X147581904Y-98448761D01*
X147629523Y-98401142D01*
X146534285Y-98496380D02*
X146343809Y-98496380D01*
X146248571Y-98448761D01*
X146200952Y-98401142D01*
X146105714Y-98258285D01*
X146058095Y-98067809D01*
X146058095Y-97686857D01*
X146105714Y-97591619D01*
X146153333Y-97544000D01*
X146248571Y-97496380D01*
X146439047Y-97496380D01*
X146534285Y-97544000D01*
X146581904Y-97591619D01*
X146629523Y-97686857D01*
X146629523Y-97924952D01*
X146581904Y-98020190D01*
X146534285Y-98067809D01*
X146439047Y-98115428D01*
X146248571Y-98115428D01*
X146153333Y-98067809D01*
X146105714Y-98020190D01*
X146058095Y-97924952D01*
X147788190Y-112212380D02*
X147788190Y-111212380D01*
X146740571Y-112117142D02*
X146788190Y-112164761D01*
X146931047Y-112212380D01*
X147026285Y-112212380D01*
X147169142Y-112164761D01*
X147264380Y-112069523D01*
X147312000Y-111974285D01*
X147359619Y-111783809D01*
X147359619Y-111640952D01*
X147312000Y-111450476D01*
X147264380Y-111355238D01*
X147169142Y-111260000D01*
X147026285Y-111212380D01*
X146931047Y-111212380D01*
X146788190Y-111260000D01*
X146740571Y-111307619D01*
X146359619Y-111307619D02*
X146312000Y-111260000D01*
X146216761Y-111212380D01*
X145978666Y-111212380D01*
X145883428Y-111260000D01*
X145835809Y-111307619D01*
X145788190Y-111402857D01*
X145788190Y-111498095D01*
X145835809Y-111640952D01*
X146407238Y-112212380D01*
X145788190Y-112212380D01*
X143724190Y-101036380D02*
X143724190Y-100036380D01*
X142676571Y-100941142D02*
X142724190Y-100988761D01*
X142867047Y-101036380D01*
X142962285Y-101036380D01*
X143105142Y-100988761D01*
X143200380Y-100893523D01*
X143248000Y-100798285D01*
X143295619Y-100607809D01*
X143295619Y-100464952D01*
X143248000Y-100274476D01*
X143200380Y-100179238D01*
X143105142Y-100084000D01*
X142962285Y-100036380D01*
X142867047Y-100036380D01*
X142724190Y-100084000D01*
X142676571Y-100131619D01*
X142343238Y-100036380D02*
X141676571Y-100036380D01*
X142105142Y-101036380D01*
X154646190Y-100782380D02*
X154646190Y-99782380D01*
X153598571Y-100687142D02*
X153646190Y-100734761D01*
X153789047Y-100782380D01*
X153884285Y-100782380D01*
X154027142Y-100734761D01*
X154122380Y-100639523D01*
X154170000Y-100544285D01*
X154217619Y-100353809D01*
X154217619Y-100210952D01*
X154170000Y-100020476D01*
X154122380Y-99925238D01*
X154027142Y-99830000D01*
X153884285Y-99782380D01*
X153789047Y-99782380D01*
X153646190Y-99830000D01*
X153598571Y-99877619D01*
X152741428Y-99782380D02*
X152931904Y-99782380D01*
X153027142Y-99830000D01*
X153074761Y-99877619D01*
X153170000Y-100020476D01*
X153217619Y-100210952D01*
X153217619Y-100591904D01*
X153170000Y-100687142D01*
X153122380Y-100734761D01*
X153027142Y-100782380D01*
X152836666Y-100782380D01*
X152741428Y-100734761D01*
X152693809Y-100687142D01*
X152646190Y-100591904D01*
X152646190Y-100353809D01*
X152693809Y-100258571D01*
X152741428Y-100210952D01*
X152836666Y-100163333D01*
X153027142Y-100163333D01*
X153122380Y-100210952D01*
X153170000Y-100258571D01*
X153217619Y-100353809D01*
X159980190Y-112466380D02*
X159980190Y-111466380D01*
X158932571Y-112371142D02*
X158980190Y-112418761D01*
X159123047Y-112466380D01*
X159218285Y-112466380D01*
X159361142Y-112418761D01*
X159456380Y-112323523D01*
X159504000Y-112228285D01*
X159551619Y-112037809D01*
X159551619Y-111894952D01*
X159504000Y-111704476D01*
X159456380Y-111609238D01*
X159361142Y-111514000D01*
X159218285Y-111466380D01*
X159123047Y-111466380D01*
X158980190Y-111514000D01*
X158932571Y-111561619D01*
X158075428Y-111799714D02*
X158075428Y-112466380D01*
X158313523Y-111418761D02*
X158551619Y-112133047D01*
X157932571Y-112133047D01*
X133294380Y-99607809D02*
X132294380Y-99607809D01*
X133199142Y-100655428D02*
X133246761Y-100607809D01*
X133294380Y-100464952D01*
X133294380Y-100369714D01*
X133246761Y-100226857D01*
X133151523Y-100131619D01*
X133056285Y-100084000D01*
X132865809Y-100036380D01*
X132722952Y-100036380D01*
X132532476Y-100084000D01*
X132437238Y-100131619D01*
X132342000Y-100226857D01*
X132294380Y-100369714D01*
X132294380Y-100464952D01*
X132342000Y-100607809D01*
X132389619Y-100655428D01*
X132294380Y-100988761D02*
X132294380Y-101607809D01*
X132675333Y-101274476D01*
X132675333Y-101417333D01*
X132722952Y-101512571D01*
X132770571Y-101560190D01*
X132865809Y-101607809D01*
X133103904Y-101607809D01*
X133199142Y-101560190D01*
X133246761Y-101512571D01*
X133294380Y-101417333D01*
X133294380Y-101131619D01*
X133246761Y-101036380D01*
X133199142Y-100988761D01*
X134072190Y-111450380D02*
X134072190Y-110450380D01*
X133024571Y-111355142D02*
X133072190Y-111402761D01*
X133215047Y-111450380D01*
X133310285Y-111450380D01*
X133453142Y-111402761D01*
X133548380Y-111307523D01*
X133596000Y-111212285D01*
X133643619Y-111021809D01*
X133643619Y-110878952D01*
X133596000Y-110688476D01*
X133548380Y-110593238D01*
X133453142Y-110498000D01*
X133310285Y-110450380D01*
X133215047Y-110450380D01*
X133072190Y-110498000D01*
X133024571Y-110545619D01*
X132072190Y-111450380D02*
X132643619Y-111450380D01*
X132357904Y-111450380D02*
X132357904Y-110450380D01*
X132453142Y-110593238D01*
X132548380Y-110688476D01*
X132643619Y-110736095D01*
X127642857Y-97385142D02*
X127690476Y-97432761D01*
X127833333Y-97480380D01*
X127928571Y-97480380D01*
X128071428Y-97432761D01*
X128166666Y-97337523D01*
X128214285Y-97242285D01*
X128261904Y-97051809D01*
X128261904Y-96908952D01*
X128214285Y-96718476D01*
X128166666Y-96623238D01*
X128071428Y-96528000D01*
X127928571Y-96480380D01*
X127833333Y-96480380D01*
X127690476Y-96528000D01*
X127642857Y-96575619D01*
X126738095Y-96480380D02*
X127214285Y-96480380D01*
X127261904Y-96956571D01*
X127214285Y-96908952D01*
X127119047Y-96861333D01*
X126880952Y-96861333D01*
X126785714Y-96908952D01*
X126738095Y-96956571D01*
X126690476Y-97051809D01*
X126690476Y-97289904D01*
X126738095Y-97385142D01*
X126785714Y-97432761D01*
X126880952Y-97480380D01*
X127119047Y-97480380D01*
X127214285Y-97432761D01*
X127261904Y-97385142D01*
X126071428Y-96480380D02*
X125976190Y-96480380D01*
X125880952Y-96528000D01*
X125833333Y-96575619D01*
X125785714Y-96670857D01*
X125738095Y-96861333D01*
X125738095Y-97099428D01*
X125785714Y-97289904D01*
X125833333Y-97385142D01*
X125880952Y-97432761D01*
X125976190Y-97480380D01*
X126071428Y-97480380D01*
X126166666Y-97432761D01*
X126214285Y-97385142D01*
X126261904Y-97289904D01*
X126309523Y-97099428D01*
X126309523Y-96861333D01*
X126261904Y-96670857D01*
X126214285Y-96575619D01*
X126166666Y-96528000D01*
X126071428Y-96480380D01*
X147962857Y-101798380D02*
X148296190Y-101322190D01*
X148534285Y-101798380D02*
X148534285Y-100798380D01*
X148153333Y-100798380D01*
X148058095Y-100846000D01*
X148010476Y-100893619D01*
X147962857Y-100988857D01*
X147962857Y-101131714D01*
X148010476Y-101226952D01*
X148058095Y-101274571D01*
X148153333Y-101322190D01*
X148534285Y-101322190D01*
X147105714Y-101131714D02*
X147105714Y-101798380D01*
X147343809Y-100750761D02*
X147581904Y-101465047D01*
X146962857Y-101465047D01*
X146153333Y-101131714D02*
X146153333Y-101798380D01*
X146391428Y-100750761D02*
X146629523Y-101465047D01*
X146010476Y-101465047D01*
X147962857Y-100274380D02*
X148296190Y-99798190D01*
X148534285Y-100274380D02*
X148534285Y-99274380D01*
X148153333Y-99274380D01*
X148058095Y-99322000D01*
X148010476Y-99369619D01*
X147962857Y-99464857D01*
X147962857Y-99607714D01*
X148010476Y-99702952D01*
X148058095Y-99750571D01*
X148153333Y-99798190D01*
X148534285Y-99798190D01*
X147105714Y-99607714D02*
X147105714Y-100274380D01*
X147343809Y-99226761D02*
X147581904Y-99941047D01*
X146962857Y-99941047D01*
X146058095Y-100274380D02*
X146629523Y-100274380D01*
X146343809Y-100274380D02*
X146343809Y-99274380D01*
X146439047Y-99417238D01*
X146534285Y-99512476D01*
X146629523Y-99560095D01*
X153757238Y-104592380D02*
X154090571Y-104116190D01*
X154328666Y-104592380D02*
X154328666Y-103592380D01*
X153947714Y-103592380D01*
X153852476Y-103640000D01*
X153804857Y-103687619D01*
X153757238Y-103782857D01*
X153757238Y-103925714D01*
X153804857Y-104020952D01*
X153852476Y-104068571D01*
X153947714Y-104116190D01*
X154328666Y-104116190D01*
X153471523Y-103592380D02*
X153138190Y-104592380D01*
X152804857Y-103592380D01*
X151947714Y-104592380D02*
X152519142Y-104592380D01*
X152233428Y-104592380D02*
X152233428Y-103592380D01*
X152328666Y-103735238D01*
X152423904Y-103830476D01*
X152519142Y-103878095D01*
X148724857Y-104751142D02*
X148772476Y-104798761D01*
X148915333Y-104846380D01*
X149010571Y-104846380D01*
X149153428Y-104798761D01*
X149248666Y-104703523D01*
X149296285Y-104608285D01*
X149343904Y-104417809D01*
X149343904Y-104274952D01*
X149296285Y-104084476D01*
X149248666Y-103989238D01*
X149153428Y-103894000D01*
X149010571Y-103846380D01*
X148915333Y-103846380D01*
X148772476Y-103894000D01*
X148724857Y-103941619D01*
X147867714Y-104179714D02*
X147867714Y-104846380D01*
X148105809Y-103798761D02*
X148343904Y-104513047D01*
X147724857Y-104513047D01*
X147391523Y-103941619D02*
X147343904Y-103894000D01*
X147248666Y-103846380D01*
X147010571Y-103846380D01*
X146915333Y-103894000D01*
X146867714Y-103941619D01*
X146820095Y-104036857D01*
X146820095Y-104132095D01*
X146867714Y-104274952D01*
X147439142Y-104846380D01*
X146820095Y-104846380D01*
X148153357Y-103227142D02*
X148200976Y-103274761D01*
X148343833Y-103322380D01*
X148439071Y-103322380D01*
X148581928Y-103274761D01*
X148677166Y-103179523D01*
X148724785Y-103084285D01*
X148772404Y-102893809D01*
X148772404Y-102750952D01*
X148724785Y-102560476D01*
X148677166Y-102465238D01*
X148581928Y-102370000D01*
X148439071Y-102322380D01*
X148343833Y-102322380D01*
X148200976Y-102370000D01*
X148153357Y-102417619D01*
X147296214Y-102655714D02*
X147296214Y-103322380D01*
X147534309Y-102274761D02*
X147772404Y-102989047D01*
X147153357Y-102989047D01*
X146248595Y-103322380D02*
X146820023Y-103322380D01*
X146534309Y-103322380D02*
X146534309Y-102322380D01*
X146629547Y-102465238D01*
X146724785Y-102560476D01*
X146820023Y-102608095D01*
X129738380Y-109339142D02*
X129262190Y-109005809D01*
X129738380Y-108767714D02*
X128738380Y-108767714D01*
X128738380Y-109148666D01*
X128786000Y-109243904D01*
X128833619Y-109291523D01*
X128928857Y-109339142D01*
X129071714Y-109339142D01*
X129166952Y-109291523D01*
X129214571Y-109243904D01*
X129262190Y-109148666D01*
X129262190Y-108767714D01*
X129738380Y-110291523D02*
X129738380Y-109720095D01*
X129738380Y-110005809D02*
X128738380Y-110005809D01*
X128881238Y-109910571D01*
X128976476Y-109815333D01*
X129024095Y-109720095D01*
X128738380Y-110910571D02*
X128738380Y-111005809D01*
X128786000Y-111101047D01*
X128833619Y-111148666D01*
X128928857Y-111196285D01*
X129119333Y-111243904D01*
X129357428Y-111243904D01*
X129547904Y-111196285D01*
X129643142Y-111148666D01*
X129690761Y-111101047D01*
X129738380Y-111005809D01*
X129738380Y-110910571D01*
X129690761Y-110815333D01*
X129643142Y-110767714D01*
X129547904Y-110720095D01*
X129357428Y-110672476D01*
X129119333Y-110672476D01*
X128928857Y-110720095D01*
X128833619Y-110767714D01*
X128786000Y-110815333D01*
X128738380Y-110910571D01*
X135993142Y-99941142D02*
X136040761Y-99893523D01*
X136088380Y-99750666D01*
X136088380Y-99655428D01*
X136040761Y-99512571D01*
X135945523Y-99417333D01*
X135850285Y-99369714D01*
X135659809Y-99322095D01*
X135516952Y-99322095D01*
X135326476Y-99369714D01*
X135231238Y-99417333D01*
X135136000Y-99512571D01*
X135088380Y-99655428D01*
X135088380Y-99750666D01*
X135136000Y-99893523D01*
X135183619Y-99941142D01*
X135421714Y-100798285D02*
X136088380Y-100798285D01*
X135040761Y-100560190D02*
X135755047Y-100322095D01*
X135755047Y-100941142D01*
X135088380Y-101798285D02*
X135088380Y-101322095D01*
X135564571Y-101274476D01*
X135516952Y-101322095D01*
X135469333Y-101417333D01*
X135469333Y-101655428D01*
X135516952Y-101750666D01*
X135564571Y-101798285D01*
X135659809Y-101845904D01*
X135897904Y-101845904D01*
X135993142Y-101798285D01*
X136040761Y-101750666D01*
X136088380Y-101655428D01*
X136088380Y-101417333D01*
X136040761Y-101322095D01*
X135993142Y-101274476D01*
X142438380Y-110037642D02*
X141962190Y-109704309D01*
X142438380Y-109466214D02*
X141438380Y-109466214D01*
X141438380Y-109847166D01*
X141486000Y-109942404D01*
X141533619Y-109990023D01*
X141628857Y-110037642D01*
X141771714Y-110037642D01*
X141866952Y-109990023D01*
X141914571Y-109942404D01*
X141962190Y-109847166D01*
X141962190Y-109466214D01*
X142438380Y-110990023D02*
X142438380Y-110418595D01*
X142438380Y-110704309D02*
X141438380Y-110704309D01*
X141581238Y-110609071D01*
X141676476Y-110513833D01*
X141724095Y-110418595D01*
X141533619Y-111370976D02*
X141486000Y-111418595D01*
X141438380Y-111513833D01*
X141438380Y-111751928D01*
X141486000Y-111847166D01*
X141533619Y-111894785D01*
X141628857Y-111942404D01*
X141724095Y-111942404D01*
X141866952Y-111894785D01*
X142438380Y-111323357D01*
X142438380Y-111942404D01*
X155836857Y-97734380D02*
X156170190Y-97258190D01*
X156408285Y-97734380D02*
X156408285Y-96734380D01*
X156027333Y-96734380D01*
X155932095Y-96782000D01*
X155884476Y-96829619D01*
X155836857Y-96924857D01*
X155836857Y-97067714D01*
X155884476Y-97162952D01*
X155932095Y-97210571D01*
X156027333Y-97258190D01*
X156408285Y-97258190D01*
X155455904Y-96829619D02*
X155408285Y-96782000D01*
X155313047Y-96734380D01*
X155074952Y-96734380D01*
X154979714Y-96782000D01*
X154932095Y-96829619D01*
X154884476Y-96924857D01*
X154884476Y-97020095D01*
X154932095Y-97162952D01*
X155503523Y-97734380D01*
X154884476Y-97734380D01*
X153979714Y-96734380D02*
X154455904Y-96734380D01*
X154503523Y-97210571D01*
X154455904Y-97162952D01*
X154360666Y-97115333D01*
X154122571Y-97115333D01*
X154027333Y-97162952D01*
X153979714Y-97210571D01*
X153932095Y-97305809D01*
X153932095Y-97543904D01*
X153979714Y-97639142D01*
X154027333Y-97686761D01*
X154122571Y-97734380D01*
X154360666Y-97734380D01*
X154455904Y-97686761D01*
X154503523Y-97639142D01*
X145041857Y-98496380D02*
X145375190Y-98020190D01*
X145613285Y-98496380D02*
X145613285Y-97496380D01*
X145232333Y-97496380D01*
X145137095Y-97544000D01*
X145089476Y-97591619D01*
X145041857Y-97686857D01*
X145041857Y-97829714D01*
X145089476Y-97924952D01*
X145137095Y-97972571D01*
X145232333Y-98020190D01*
X145613285Y-98020190D01*
X144184714Y-97829714D02*
X144184714Y-98496380D01*
X144422809Y-97448761D02*
X144660904Y-98163047D01*
X144041857Y-98163047D01*
X143756142Y-97496380D02*
X143137095Y-97496380D01*
X143470428Y-97877333D01*
X143327571Y-97877333D01*
X143232333Y-97924952D01*
X143184714Y-97972571D01*
X143137095Y-98067809D01*
X143137095Y-98305904D01*
X143184714Y-98401142D01*
X143232333Y-98448761D01*
X143327571Y-98496380D01*
X143613285Y-98496380D01*
X143708523Y-98448761D01*
X143756142Y-98401142D01*
X140914380Y-110101142D02*
X140438190Y-109767809D01*
X140914380Y-109529714D02*
X139914380Y-109529714D01*
X139914380Y-109910666D01*
X139962000Y-110005904D01*
X140009619Y-110053523D01*
X140104857Y-110101142D01*
X140247714Y-110101142D01*
X140342952Y-110053523D01*
X140390571Y-110005904D01*
X140438190Y-109910666D01*
X140438190Y-109529714D01*
X140914380Y-111053523D02*
X140914380Y-110482095D01*
X140914380Y-110767809D02*
X139914380Y-110767809D01*
X140057238Y-110672571D01*
X140152476Y-110577333D01*
X140200095Y-110482095D01*
X139914380Y-111958285D02*
X139914380Y-111482095D01*
X140390571Y-111434476D01*
X140342952Y-111482095D01*
X140295333Y-111577333D01*
X140295333Y-111815428D01*
X140342952Y-111910666D01*
X140390571Y-111958285D01*
X140485809Y-112005904D01*
X140723904Y-112005904D01*
X140819142Y-111958285D01*
X140866761Y-111910666D01*
X140914380Y-111815428D01*
X140914380Y-111577333D01*
X140866761Y-111482095D01*
X140819142Y-111434476D01*
X139390380Y-99941142D02*
X138914190Y-99607809D01*
X139390380Y-99369714D02*
X138390380Y-99369714D01*
X138390380Y-99750666D01*
X138438000Y-99845904D01*
X138485619Y-99893523D01*
X138580857Y-99941142D01*
X138723714Y-99941142D01*
X138818952Y-99893523D01*
X138866571Y-99845904D01*
X138914190Y-99750666D01*
X138914190Y-99369714D01*
X138390380Y-100274476D02*
X138390380Y-100893523D01*
X138771333Y-100560190D01*
X138771333Y-100703047D01*
X138818952Y-100798285D01*
X138866571Y-100845904D01*
X138961809Y-100893523D01*
X139199904Y-100893523D01*
X139295142Y-100845904D01*
X139342761Y-100798285D01*
X139390380Y-100703047D01*
X139390380Y-100417333D01*
X139342761Y-100322095D01*
X139295142Y-100274476D01*
X138390380Y-101226857D02*
X138390380Y-101893523D01*
X139390380Y-101464952D01*
X150312380Y-98290142D02*
X149836190Y-97956809D01*
X150312380Y-97718714D02*
X149312380Y-97718714D01*
X149312380Y-98099666D01*
X149360000Y-98194904D01*
X149407619Y-98242523D01*
X149502857Y-98290142D01*
X149645714Y-98290142D01*
X149740952Y-98242523D01*
X149788571Y-98194904D01*
X149836190Y-98099666D01*
X149836190Y-97718714D01*
X149407619Y-98671095D02*
X149360000Y-98718714D01*
X149312380Y-98813952D01*
X149312380Y-99052047D01*
X149360000Y-99147285D01*
X149407619Y-99194904D01*
X149502857Y-99242523D01*
X149598095Y-99242523D01*
X149740952Y-99194904D01*
X150312380Y-98623476D01*
X150312380Y-99242523D01*
X150312380Y-99718714D02*
X150312380Y-99909190D01*
X150264761Y-100004428D01*
X150217142Y-100052047D01*
X150074285Y-100147285D01*
X149883809Y-100194904D01*
X149502857Y-100194904D01*
X149407619Y-100147285D01*
X149360000Y-100099666D01*
X149312380Y-100004428D01*
X149312380Y-99813952D01*
X149360000Y-99718714D01*
X149407619Y-99671095D01*
X149502857Y-99623476D01*
X149740952Y-99623476D01*
X149836190Y-99671095D01*
X149883809Y-99718714D01*
X149931428Y-99813952D01*
X149931428Y-100004428D01*
X149883809Y-100099666D01*
X149836190Y-100147285D01*
X149740952Y-100194904D01*
X150312380Y-101338142D02*
X149836190Y-101004809D01*
X150312380Y-100766714D02*
X149312380Y-100766714D01*
X149312380Y-101147666D01*
X149360000Y-101242904D01*
X149407619Y-101290523D01*
X149502857Y-101338142D01*
X149645714Y-101338142D01*
X149740952Y-101290523D01*
X149788571Y-101242904D01*
X149836190Y-101147666D01*
X149836190Y-100766714D01*
X149407619Y-101719095D02*
X149360000Y-101766714D01*
X149312380Y-101861952D01*
X149312380Y-102100047D01*
X149360000Y-102195285D01*
X149407619Y-102242904D01*
X149502857Y-102290523D01*
X149598095Y-102290523D01*
X149740952Y-102242904D01*
X150312380Y-101671476D01*
X150312380Y-102290523D01*
X149645714Y-103147666D02*
X150312380Y-103147666D01*
X149264761Y-102909571D02*
X149979047Y-102671476D01*
X149979047Y-103290523D01*
X142692380Y-96702642D02*
X142216190Y-96369309D01*
X142692380Y-96131214D02*
X141692380Y-96131214D01*
X141692380Y-96512166D01*
X141740000Y-96607404D01*
X141787619Y-96655023D01*
X141882857Y-96702642D01*
X142025714Y-96702642D01*
X142120952Y-96655023D01*
X142168571Y-96607404D01*
X142216190Y-96512166D01*
X142216190Y-96131214D01*
X142025714Y-97559785D02*
X142692380Y-97559785D01*
X141644761Y-97321690D02*
X142359047Y-97083595D01*
X142359047Y-97702642D01*
X141787619Y-98035976D02*
X141740000Y-98083595D01*
X141692380Y-98178833D01*
X141692380Y-98416928D01*
X141740000Y-98512166D01*
X141787619Y-98559785D01*
X141882857Y-98607404D01*
X141978095Y-98607404D01*
X142120952Y-98559785D01*
X142692380Y-97988357D01*
X142692380Y-98607404D01*
X140914380Y-113561833D02*
X140438190Y-113228500D01*
X140914380Y-112990404D02*
X139914380Y-112990404D01*
X139914380Y-113371357D01*
X139962000Y-113466595D01*
X140009619Y-113514214D01*
X140104857Y-113561833D01*
X140247714Y-113561833D01*
X140342952Y-113514214D01*
X140390571Y-113466595D01*
X140438190Y-113371357D01*
X140438190Y-112990404D01*
X140914380Y-114038023D02*
X140914380Y-114228500D01*
X140866761Y-114323738D01*
X140819142Y-114371357D01*
X140676285Y-114466595D01*
X140485809Y-114514214D01*
X140104857Y-114514214D01*
X140009619Y-114466595D01*
X139962000Y-114418976D01*
X139914380Y-114323738D01*
X139914380Y-114133261D01*
X139962000Y-114038023D01*
X140009619Y-113990404D01*
X140104857Y-113942785D01*
X140342952Y-113942785D01*
X140438190Y-113990404D01*
X140485809Y-114038023D01*
X140533428Y-114133261D01*
X140533428Y-114323738D01*
X140485809Y-114418976D01*
X140438190Y-114466595D01*
X140342952Y-114514214D01*
X158122857Y-102814380D02*
X158456190Y-102338190D01*
X158694285Y-102814380D02*
X158694285Y-101814380D01*
X158313333Y-101814380D01*
X158218095Y-101862000D01*
X158170476Y-101909619D01*
X158122857Y-102004857D01*
X158122857Y-102147714D01*
X158170476Y-102242952D01*
X158218095Y-102290571D01*
X158313333Y-102338190D01*
X158694285Y-102338190D01*
X157170476Y-102814380D02*
X157741904Y-102814380D01*
X157456190Y-102814380D02*
X157456190Y-101814380D01*
X157551428Y-101957238D01*
X157646666Y-102052476D01*
X157741904Y-102100095D01*
X156599047Y-102242952D02*
X156694285Y-102195333D01*
X156741904Y-102147714D01*
X156789523Y-102052476D01*
X156789523Y-102004857D01*
X156741904Y-101909619D01*
X156694285Y-101862000D01*
X156599047Y-101814380D01*
X156408571Y-101814380D01*
X156313333Y-101862000D01*
X156265714Y-101909619D01*
X156218095Y-102004857D01*
X156218095Y-102052476D01*
X156265714Y-102147714D01*
X156313333Y-102195333D01*
X156408571Y-102242952D01*
X156599047Y-102242952D01*
X156694285Y-102290571D01*
X156741904Y-102338190D01*
X156789523Y-102433428D01*
X156789523Y-102623904D01*
X156741904Y-102719142D01*
X156694285Y-102766761D01*
X156599047Y-102814380D01*
X156408571Y-102814380D01*
X156313333Y-102766761D01*
X156265714Y-102719142D01*
X156218095Y-102623904D01*
X156218095Y-102433428D01*
X156265714Y-102338190D01*
X156313333Y-102290571D01*
X156408571Y-102242952D01*
X137834666Y-109926380D02*
X138168000Y-109450190D01*
X138406095Y-109926380D02*
X138406095Y-108926380D01*
X138025142Y-108926380D01*
X137929904Y-108974000D01*
X137882285Y-109021619D01*
X137834666Y-109116857D01*
X137834666Y-109259714D01*
X137882285Y-109354952D01*
X137929904Y-109402571D01*
X138025142Y-109450190D01*
X138406095Y-109450190D01*
X137263238Y-109354952D02*
X137358476Y-109307333D01*
X137406095Y-109259714D01*
X137453714Y-109164476D01*
X137453714Y-109116857D01*
X137406095Y-109021619D01*
X137358476Y-108974000D01*
X137263238Y-108926380D01*
X137072761Y-108926380D01*
X136977523Y-108974000D01*
X136929904Y-109021619D01*
X136882285Y-109116857D01*
X136882285Y-109164476D01*
X136929904Y-109259714D01*
X136977523Y-109307333D01*
X137072761Y-109354952D01*
X137263238Y-109354952D01*
X137358476Y-109402571D01*
X137406095Y-109450190D01*
X137453714Y-109545428D01*
X137453714Y-109735904D01*
X137406095Y-109831142D01*
X137358476Y-109878761D01*
X137263238Y-109926380D01*
X137072761Y-109926380D01*
X136977523Y-109878761D01*
X136929904Y-109831142D01*
X136882285Y-109735904D01*
X136882285Y-109545428D01*
X136929904Y-109450190D01*
X136977523Y-109402571D01*
X137072761Y-109354952D01*
X137866380Y-110990142D02*
X137390190Y-110656809D01*
X137866380Y-110418714D02*
X136866380Y-110418714D01*
X136866380Y-110799666D01*
X136914000Y-110894904D01*
X136961619Y-110942523D01*
X137056857Y-110990142D01*
X137199714Y-110990142D01*
X137294952Y-110942523D01*
X137342571Y-110894904D01*
X137390190Y-110799666D01*
X137390190Y-110418714D01*
X137866380Y-111942523D02*
X137866380Y-111371095D01*
X137866380Y-111656809D02*
X136866380Y-111656809D01*
X137009238Y-111561571D01*
X137104476Y-111466333D01*
X137152095Y-111371095D01*
X137866380Y-112894904D02*
X137866380Y-112323476D01*
X137866380Y-112609190D02*
X136866380Y-112609190D01*
X137009238Y-112513952D01*
X137104476Y-112418714D01*
X137152095Y-112323476D01*
X137612380Y-99877642D02*
X137136190Y-99544309D01*
X137612380Y-99306214D02*
X136612380Y-99306214D01*
X136612380Y-99687166D01*
X136660000Y-99782404D01*
X136707619Y-99830023D01*
X136802857Y-99877642D01*
X136945714Y-99877642D01*
X137040952Y-99830023D01*
X137088571Y-99782404D01*
X137136190Y-99687166D01*
X137136190Y-99306214D01*
X136612380Y-100210976D02*
X136612380Y-100830023D01*
X136993333Y-100496690D01*
X136993333Y-100639547D01*
X137040952Y-100734785D01*
X137088571Y-100782404D01*
X137183809Y-100830023D01*
X137421904Y-100830023D01*
X137517142Y-100782404D01*
X137564761Y-100734785D01*
X137612380Y-100639547D01*
X137612380Y-100353833D01*
X137564761Y-100258595D01*
X137517142Y-100210976D01*
X136945714Y-101687166D02*
X137612380Y-101687166D01*
X136564761Y-101449071D02*
X137279047Y-101210976D01*
X137279047Y-101830023D01*
X139136380Y-110990142D02*
X138660190Y-110656809D01*
X139136380Y-110418714D02*
X138136380Y-110418714D01*
X138136380Y-110799666D01*
X138184000Y-110894904D01*
X138231619Y-110942523D01*
X138326857Y-110990142D01*
X138469714Y-110990142D01*
X138564952Y-110942523D01*
X138612571Y-110894904D01*
X138660190Y-110799666D01*
X138660190Y-110418714D01*
X139136380Y-111942523D02*
X139136380Y-111371095D01*
X139136380Y-111656809D02*
X138136380Y-111656809D01*
X138279238Y-111561571D01*
X138374476Y-111466333D01*
X138422095Y-111371095D01*
X138469714Y-112799666D02*
X139136380Y-112799666D01*
X138088761Y-112561571D02*
X138803047Y-112323476D01*
X138803047Y-112942523D01*
X133992857Y-103576380D02*
X134326190Y-103100190D01*
X134564285Y-103576380D02*
X134564285Y-102576380D01*
X134183333Y-102576380D01*
X134088095Y-102624000D01*
X134040476Y-102671619D01*
X133992857Y-102766857D01*
X133992857Y-102909714D01*
X134040476Y-103004952D01*
X134088095Y-103052571D01*
X134183333Y-103100190D01*
X134564285Y-103100190D01*
X133659523Y-102576380D02*
X133040476Y-102576380D01*
X133373809Y-102957333D01*
X133230952Y-102957333D01*
X133135714Y-103004952D01*
X133088095Y-103052571D01*
X133040476Y-103147809D01*
X133040476Y-103385904D01*
X133088095Y-103481142D01*
X133135714Y-103528761D01*
X133230952Y-103576380D01*
X133516666Y-103576380D01*
X133611904Y-103528761D01*
X133659523Y-103481142D01*
X132469047Y-103004952D02*
X132564285Y-102957333D01*
X132611904Y-102909714D01*
X132659523Y-102814476D01*
X132659523Y-102766857D01*
X132611904Y-102671619D01*
X132564285Y-102624000D01*
X132469047Y-102576380D01*
X132278571Y-102576380D01*
X132183333Y-102624000D01*
X132135714Y-102671619D01*
X132088095Y-102766857D01*
X132088095Y-102814476D01*
X132135714Y-102909714D01*
X132183333Y-102957333D01*
X132278571Y-103004952D01*
X132469047Y-103004952D01*
X132564285Y-103052571D01*
X132611904Y-103100190D01*
X132659523Y-103195428D01*
X132659523Y-103385904D01*
X132611904Y-103481142D01*
X132564285Y-103528761D01*
X132469047Y-103576380D01*
X132278571Y-103576380D01*
X132183333Y-103528761D01*
X132135714Y-103481142D01*
X132088095Y-103385904D01*
X132088095Y-103195428D01*
X132135714Y-103100190D01*
X132183333Y-103052571D01*
X132278571Y-103004952D01*
X134532666Y-114498380D02*
X134866000Y-114022190D01*
X135104095Y-114498380D02*
X135104095Y-113498380D01*
X134723142Y-113498380D01*
X134627904Y-113546000D01*
X134580285Y-113593619D01*
X134532666Y-113688857D01*
X134532666Y-113831714D01*
X134580285Y-113926952D01*
X134627904Y-113974571D01*
X134723142Y-114022190D01*
X135104095Y-114022190D01*
X134199333Y-113498380D02*
X133532666Y-113498380D01*
X133961238Y-114498380D01*
X130690857Y-98496380D02*
X131024190Y-98020190D01*
X131262285Y-98496380D02*
X131262285Y-97496380D01*
X130881333Y-97496380D01*
X130786095Y-97544000D01*
X130738476Y-97591619D01*
X130690857Y-97686857D01*
X130690857Y-97829714D01*
X130738476Y-97924952D01*
X130786095Y-97972571D01*
X130881333Y-98020190D01*
X131262285Y-98020190D01*
X130357523Y-97496380D02*
X129738476Y-97496380D01*
X130071809Y-97877333D01*
X129928952Y-97877333D01*
X129833714Y-97924952D01*
X129786095Y-97972571D01*
X129738476Y-98067809D01*
X129738476Y-98305904D01*
X129786095Y-98401142D01*
X129833714Y-98448761D01*
X129928952Y-98496380D01*
X130214666Y-98496380D01*
X130309904Y-98448761D01*
X130357523Y-98401142D01*
X128833714Y-97496380D02*
X129309904Y-97496380D01*
X129357523Y-97972571D01*
X129309904Y-97924952D01*
X129214666Y-97877333D01*
X128976571Y-97877333D01*
X128881333Y-97924952D01*
X128833714Y-97972571D01*
X128786095Y-98067809D01*
X128786095Y-98305904D01*
X128833714Y-98401142D01*
X128881333Y-98448761D01*
X128976571Y-98496380D01*
X129214666Y-98496380D01*
X129309904Y-98448761D01*
X129357523Y-98401142D01*
X131611666Y-109418380D02*
X131945000Y-108942190D01*
X132183095Y-109418380D02*
X132183095Y-108418380D01*
X131802142Y-108418380D01*
X131706904Y-108466000D01*
X131659285Y-108513619D01*
X131611666Y-108608857D01*
X131611666Y-108751714D01*
X131659285Y-108846952D01*
X131706904Y-108894571D01*
X131802142Y-108942190D01*
X132183095Y-108942190D01*
X130754523Y-108418380D02*
X130945000Y-108418380D01*
X131040238Y-108466000D01*
X131087857Y-108513619D01*
X131183095Y-108656476D01*
X131230714Y-108846952D01*
X131230714Y-109227904D01*
X131183095Y-109323142D01*
X131135476Y-109370761D01*
X131040238Y-109418380D01*
X130849761Y-109418380D01*
X130754523Y-109370761D01*
X130706904Y-109323142D01*
X130659285Y-109227904D01*
X130659285Y-108989809D01*
X130706904Y-108894571D01*
X130754523Y-108846952D01*
X130849761Y-108799333D01*
X131040238Y-108799333D01*
X131135476Y-108846952D01*
X131183095Y-108894571D01*
X131230714Y-108989809D01*
X128214380Y-98671142D02*
X127738190Y-98337809D01*
X128214380Y-98099714D02*
X127214380Y-98099714D01*
X127214380Y-98480666D01*
X127262000Y-98575904D01*
X127309619Y-98623523D01*
X127404857Y-98671142D01*
X127547714Y-98671142D01*
X127642952Y-98623523D01*
X127690571Y-98575904D01*
X127738190Y-98480666D01*
X127738190Y-98099714D01*
X127309619Y-99052095D02*
X127262000Y-99099714D01*
X127214380Y-99194952D01*
X127214380Y-99433047D01*
X127262000Y-99528285D01*
X127309619Y-99575904D01*
X127404857Y-99623523D01*
X127500095Y-99623523D01*
X127642952Y-99575904D01*
X128214380Y-99004476D01*
X128214380Y-99623523D01*
X128214380Y-100575904D02*
X128214380Y-100004476D01*
X128214380Y-100290190D02*
X127214380Y-100290190D01*
X127357238Y-100194952D01*
X127452476Y-100099714D01*
X127500095Y-100004476D01*
X128214380Y-101719142D02*
X127738190Y-101385809D01*
X128214380Y-101147714D02*
X127214380Y-101147714D01*
X127214380Y-101528666D01*
X127262000Y-101623904D01*
X127309619Y-101671523D01*
X127404857Y-101719142D01*
X127547714Y-101719142D01*
X127642952Y-101671523D01*
X127690571Y-101623904D01*
X127738190Y-101528666D01*
X127738190Y-101147714D01*
X127214380Y-102052476D02*
X127214380Y-102671523D01*
X127595333Y-102338190D01*
X127595333Y-102481047D01*
X127642952Y-102576285D01*
X127690571Y-102623904D01*
X127785809Y-102671523D01*
X128023904Y-102671523D01*
X128119142Y-102623904D01*
X128166761Y-102576285D01*
X128214380Y-102481047D01*
X128214380Y-102195333D01*
X128166761Y-102100095D01*
X128119142Y-102052476D01*
X127309619Y-103052476D02*
X127262000Y-103100095D01*
X127214380Y-103195333D01*
X127214380Y-103433428D01*
X127262000Y-103528666D01*
X127309619Y-103576285D01*
X127404857Y-103623904D01*
X127500095Y-103623904D01*
X127642952Y-103576285D01*
X128214380Y-103004857D01*
X128214380Y-103623904D01*
X127960380Y-109339142D02*
X127484190Y-109005809D01*
X127960380Y-108767714D02*
X126960380Y-108767714D01*
X126960380Y-109148666D01*
X127008000Y-109243904D01*
X127055619Y-109291523D01*
X127150857Y-109339142D01*
X127293714Y-109339142D01*
X127388952Y-109291523D01*
X127436571Y-109243904D01*
X127484190Y-109148666D01*
X127484190Y-108767714D01*
X127960380Y-110291523D02*
X127960380Y-109720095D01*
X127960380Y-110005809D02*
X126960380Y-110005809D01*
X127103238Y-109910571D01*
X127198476Y-109815333D01*
X127246095Y-109720095D01*
X126960380Y-110624857D02*
X126960380Y-111243904D01*
X127341333Y-110910571D01*
X127341333Y-111053428D01*
X127388952Y-111148666D01*
X127436571Y-111196285D01*
X127531809Y-111243904D01*
X127769904Y-111243904D01*
X127865142Y-111196285D01*
X127912761Y-111148666D01*
X127960380Y-111053428D01*
X127960380Y-110767714D01*
X127912761Y-110672476D01*
X127865142Y-110624857D01*
X128436666Y-112974380D02*
X128770000Y-112498190D01*
X129008095Y-112974380D02*
X129008095Y-111974380D01*
X128627142Y-111974380D01*
X128531904Y-112022000D01*
X128484285Y-112069619D01*
X128436666Y-112164857D01*
X128436666Y-112307714D01*
X128484285Y-112402952D01*
X128531904Y-112450571D01*
X128627142Y-112498190D01*
X129008095Y-112498190D01*
X127531904Y-111974380D02*
X128008095Y-111974380D01*
X128055714Y-112450571D01*
X128008095Y-112402952D01*
X127912857Y-112355333D01*
X127674761Y-112355333D01*
X127579523Y-112402952D01*
X127531904Y-112450571D01*
X127484285Y-112545809D01*
X127484285Y-112783904D01*
X127531904Y-112879142D01*
X127579523Y-112926761D01*
X127674761Y-112974380D01*
X127912857Y-112974380D01*
X128008095Y-112926761D01*
X128055714Y-112879142D01*
X126690380Y-112863333D02*
X126214190Y-112530000D01*
X126690380Y-112291904D02*
X125690380Y-112291904D01*
X125690380Y-112672857D01*
X125738000Y-112768095D01*
X125785619Y-112815714D01*
X125880857Y-112863333D01*
X126023714Y-112863333D01*
X126118952Y-112815714D01*
X126166571Y-112768095D01*
X126214190Y-112672857D01*
X126214190Y-112291904D01*
X126023714Y-113720476D02*
X126690380Y-113720476D01*
X125642761Y-113482380D02*
X126357047Y-113244285D01*
X126357047Y-113863333D01*
X154884357Y-111450380D02*
X155217690Y-110974190D01*
X155455785Y-111450380D02*
X155455785Y-110450380D01*
X155074833Y-110450380D01*
X154979595Y-110498000D01*
X154931976Y-110545619D01*
X154884357Y-110640857D01*
X154884357Y-110783714D01*
X154931976Y-110878952D01*
X154979595Y-110926571D01*
X155074833Y-110974190D01*
X155455785Y-110974190D01*
X154503404Y-110545619D02*
X154455785Y-110498000D01*
X154360547Y-110450380D01*
X154122452Y-110450380D01*
X154027214Y-110498000D01*
X153979595Y-110545619D01*
X153931976Y-110640857D01*
X153931976Y-110736095D01*
X153979595Y-110878952D01*
X154551023Y-111450380D01*
X153931976Y-111450380D01*
X153312928Y-110450380D02*
X153217690Y-110450380D01*
X153122452Y-110498000D01*
X153074833Y-110545619D01*
X153027214Y-110640857D01*
X152979595Y-110831333D01*
X152979595Y-111069428D01*
X153027214Y-111259904D01*
X153074833Y-111355142D01*
X153122452Y-111402761D01*
X153217690Y-111450380D01*
X153312928Y-111450380D01*
X153408166Y-111402761D01*
X153455785Y-111355142D01*
X153503404Y-111259904D01*
X153551023Y-111069428D01*
X153551023Y-110831333D01*
X153503404Y-110640857D01*
X153455785Y-110545619D01*
X153408166Y-110498000D01*
X153312928Y-110450380D01*
X163774380Y-102449333D02*
X163298190Y-102116000D01*
X163774380Y-101877904D02*
X162774380Y-101877904D01*
X162774380Y-102258857D01*
X162822000Y-102354095D01*
X162869619Y-102401714D01*
X162964857Y-102449333D01*
X163107714Y-102449333D01*
X163202952Y-102401714D01*
X163250571Y-102354095D01*
X163298190Y-102258857D01*
X163298190Y-101877904D01*
X162774380Y-102782666D02*
X162774380Y-103401714D01*
X163155333Y-103068380D01*
X163155333Y-103211238D01*
X163202952Y-103306476D01*
X163250571Y-103354095D01*
X163345809Y-103401714D01*
X163583904Y-103401714D01*
X163679142Y-103354095D01*
X163726761Y-103306476D01*
X163774380Y-103211238D01*
X163774380Y-102925523D01*
X163726761Y-102830285D01*
X163679142Y-102782666D01*
X150312380Y-109593142D02*
X149836190Y-109259809D01*
X150312380Y-109021714D02*
X149312380Y-109021714D01*
X149312380Y-109402666D01*
X149360000Y-109497904D01*
X149407619Y-109545523D01*
X149502857Y-109593142D01*
X149645714Y-109593142D01*
X149740952Y-109545523D01*
X149788571Y-109497904D01*
X149836190Y-109402666D01*
X149836190Y-109021714D01*
X150312380Y-110545523D02*
X150312380Y-109974095D01*
X150312380Y-110259809D02*
X149312380Y-110259809D01*
X149455238Y-110164571D01*
X149550476Y-110069333D01*
X149598095Y-109974095D01*
X150312380Y-111021714D02*
X150312380Y-111212190D01*
X150264761Y-111307428D01*
X150217142Y-111355047D01*
X150074285Y-111450285D01*
X149883809Y-111497904D01*
X149502857Y-111497904D01*
X149407619Y-111450285D01*
X149360000Y-111402666D01*
X149312380Y-111307428D01*
X149312380Y-111116952D01*
X149360000Y-111021714D01*
X149407619Y-110974095D01*
X149502857Y-110926476D01*
X149740952Y-110926476D01*
X149836190Y-110974095D01*
X149883809Y-111021714D01*
X149931428Y-111116952D01*
X149931428Y-111307428D01*
X149883809Y-111402666D01*
X149836190Y-111450285D01*
X149740952Y-111497904D01*
X151264857Y-108148380D02*
X151598190Y-107672190D01*
X151836285Y-108148380D02*
X151836285Y-107148380D01*
X151455333Y-107148380D01*
X151360095Y-107196000D01*
X151312476Y-107243619D01*
X151264857Y-107338857D01*
X151264857Y-107481714D01*
X151312476Y-107576952D01*
X151360095Y-107624571D01*
X151455333Y-107672190D01*
X151836285Y-107672190D01*
X150931523Y-107148380D02*
X150312476Y-107148380D01*
X150645809Y-107529333D01*
X150502952Y-107529333D01*
X150407714Y-107576952D01*
X150360095Y-107624571D01*
X150312476Y-107719809D01*
X150312476Y-107957904D01*
X150360095Y-108053142D01*
X150407714Y-108100761D01*
X150502952Y-108148380D01*
X150788666Y-108148380D01*
X150883904Y-108100761D01*
X150931523Y-108053142D01*
X149360095Y-108148380D02*
X149931523Y-108148380D01*
X149645809Y-108148380D02*
X149645809Y-107148380D01*
X149741047Y-107291238D01*
X149836285Y-107386476D01*
X149931523Y-107434095D01*
X150312380Y-115689142D02*
X149836190Y-115355809D01*
X150312380Y-115117714D02*
X149312380Y-115117714D01*
X149312380Y-115498666D01*
X149360000Y-115593904D01*
X149407619Y-115641523D01*
X149502857Y-115689142D01*
X149645714Y-115689142D01*
X149740952Y-115641523D01*
X149788571Y-115593904D01*
X149836190Y-115498666D01*
X149836190Y-115117714D01*
X149407619Y-116070095D02*
X149360000Y-116117714D01*
X149312380Y-116212952D01*
X149312380Y-116451047D01*
X149360000Y-116546285D01*
X149407619Y-116593904D01*
X149502857Y-116641523D01*
X149598095Y-116641523D01*
X149740952Y-116593904D01*
X150312380Y-116022476D01*
X150312380Y-116641523D01*
X149312380Y-116974857D02*
X149312380Y-117641523D01*
X150312380Y-117212952D01*
X163774380Y-99464833D02*
X163298190Y-99131500D01*
X163774380Y-98893404D02*
X162774380Y-98893404D01*
X162774380Y-99274357D01*
X162822000Y-99369595D01*
X162869619Y-99417214D01*
X162964857Y-99464833D01*
X163107714Y-99464833D01*
X163202952Y-99417214D01*
X163250571Y-99369595D01*
X163298190Y-99274357D01*
X163298190Y-98893404D01*
X162869619Y-99845785D02*
X162822000Y-99893404D01*
X162774380Y-99988642D01*
X162774380Y-100226738D01*
X162822000Y-100321976D01*
X162869619Y-100369595D01*
X162964857Y-100417214D01*
X163060095Y-100417214D01*
X163202952Y-100369595D01*
X163774380Y-99798166D01*
X163774380Y-100417214D01*
X166504857Y-112720380D02*
X166838190Y-112244190D01*
X167076285Y-112720380D02*
X167076285Y-111720380D01*
X166695333Y-111720380D01*
X166600095Y-111768000D01*
X166552476Y-111815619D01*
X166504857Y-111910857D01*
X166504857Y-112053714D01*
X166552476Y-112148952D01*
X166600095Y-112196571D01*
X166695333Y-112244190D01*
X167076285Y-112244190D01*
X165647714Y-112053714D02*
X165647714Y-112720380D01*
X165885809Y-111672761D02*
X166123904Y-112387047D01*
X165504857Y-112387047D01*
X165219142Y-111720380D02*
X164552476Y-111720380D01*
X164981047Y-112720380D01*
X150312380Y-112641142D02*
X149836190Y-112307809D01*
X150312380Y-112069714D02*
X149312380Y-112069714D01*
X149312380Y-112450666D01*
X149360000Y-112545904D01*
X149407619Y-112593523D01*
X149502857Y-112641142D01*
X149645714Y-112641142D01*
X149740952Y-112593523D01*
X149788571Y-112545904D01*
X149836190Y-112450666D01*
X149836190Y-112069714D01*
X149407619Y-113022095D02*
X149360000Y-113069714D01*
X149312380Y-113164952D01*
X149312380Y-113403047D01*
X149360000Y-113498285D01*
X149407619Y-113545904D01*
X149502857Y-113593523D01*
X149598095Y-113593523D01*
X149740952Y-113545904D01*
X150312380Y-112974476D01*
X150312380Y-113593523D01*
X149312380Y-113926857D02*
X149312380Y-114545904D01*
X149693333Y-114212571D01*
X149693333Y-114355428D01*
X149740952Y-114450666D01*
X149788571Y-114498285D01*
X149883809Y-114545904D01*
X150121904Y-114545904D01*
X150217142Y-114498285D01*
X150264761Y-114450666D01*
X150312380Y-114355428D01*
X150312380Y-114069714D01*
X150264761Y-113974476D01*
X150217142Y-113926857D01*
X154820857Y-112974380D02*
X155154190Y-112498190D01*
X155392285Y-112974380D02*
X155392285Y-111974380D01*
X155011333Y-111974380D01*
X154916095Y-112022000D01*
X154868476Y-112069619D01*
X154820857Y-112164857D01*
X154820857Y-112307714D01*
X154868476Y-112402952D01*
X154916095Y-112450571D01*
X155011333Y-112498190D01*
X155392285Y-112498190D01*
X153868476Y-112974380D02*
X154439904Y-112974380D01*
X154154190Y-112974380D02*
X154154190Y-111974380D01*
X154249428Y-112117238D01*
X154344666Y-112212476D01*
X154439904Y-112260095D01*
X153011333Y-111974380D02*
X153201809Y-111974380D01*
X153297047Y-112022000D01*
X153344666Y-112069619D01*
X153439904Y-112212476D01*
X153487523Y-112402952D01*
X153487523Y-112783904D01*
X153439904Y-112879142D01*
X153392285Y-112926761D01*
X153297047Y-112974380D01*
X153106571Y-112974380D01*
X153011333Y-112926761D01*
X152963714Y-112879142D01*
X152916095Y-112783904D01*
X152916095Y-112545809D01*
X152963714Y-112450571D01*
X153011333Y-112402952D01*
X153106571Y-112355333D01*
X153297047Y-112355333D01*
X153392285Y-112402952D01*
X153439904Y-112450571D01*
X153487523Y-112545809D01*
X148059957Y-115260380D02*
X148393290Y-114784190D01*
X148631385Y-115260380D02*
X148631385Y-114260380D01*
X148250433Y-114260380D01*
X148155195Y-114308000D01*
X148107576Y-114355619D01*
X148059957Y-114450857D01*
X148059957Y-114593714D01*
X148107576Y-114688952D01*
X148155195Y-114736571D01*
X148250433Y-114784190D01*
X148631385Y-114784190D01*
X147679004Y-114355619D02*
X147631385Y-114308000D01*
X147536147Y-114260380D01*
X147298052Y-114260380D01*
X147202814Y-114308000D01*
X147155195Y-114355619D01*
X147107576Y-114450857D01*
X147107576Y-114546095D01*
X147155195Y-114688952D01*
X147726623Y-115260380D01*
X147107576Y-115260380D01*
X146726623Y-114355619D02*
X146679004Y-114308000D01*
X146583766Y-114260380D01*
X146345671Y-114260380D01*
X146250433Y-114308000D01*
X146202814Y-114355619D01*
X146155195Y-114450857D01*
X146155195Y-114546095D01*
X146202814Y-114688952D01*
X146774242Y-115260380D01*
X146155195Y-115260380D01*
X159138857Y-115006380D02*
X159472190Y-114530190D01*
X159710285Y-115006380D02*
X159710285Y-114006380D01*
X159329333Y-114006380D01*
X159234095Y-114054000D01*
X159186476Y-114101619D01*
X159138857Y-114196857D01*
X159138857Y-114339714D01*
X159186476Y-114434952D01*
X159234095Y-114482571D01*
X159329333Y-114530190D01*
X159710285Y-114530190D01*
X158805523Y-114006380D02*
X158186476Y-114006380D01*
X158519809Y-114387333D01*
X158376952Y-114387333D01*
X158281714Y-114434952D01*
X158234095Y-114482571D01*
X158186476Y-114577809D01*
X158186476Y-114815904D01*
X158234095Y-114911142D01*
X158281714Y-114958761D01*
X158376952Y-115006380D01*
X158662666Y-115006380D01*
X158757904Y-114958761D01*
X158805523Y-114911142D01*
X157329333Y-114006380D02*
X157519809Y-114006380D01*
X157615047Y-114054000D01*
X157662666Y-114101619D01*
X157757904Y-114244476D01*
X157805523Y-114434952D01*
X157805523Y-114815904D01*
X157757904Y-114911142D01*
X157710285Y-114958761D01*
X157615047Y-115006380D01*
X157424571Y-115006380D01*
X157329333Y-114958761D01*
X157281714Y-114911142D01*
X157234095Y-114815904D01*
X157234095Y-114577809D01*
X157281714Y-114482571D01*
X157329333Y-114434952D01*
X157424571Y-114387333D01*
X157615047Y-114387333D01*
X157710285Y-114434952D01*
X157757904Y-114482571D01*
X157805523Y-114577809D01*
X144914857Y-110180380D02*
X145248190Y-109704190D01*
X145486285Y-110180380D02*
X145486285Y-109180380D01*
X145105333Y-109180380D01*
X145010095Y-109228000D01*
X144962476Y-109275619D01*
X144914857Y-109370857D01*
X144914857Y-109513714D01*
X144962476Y-109608952D01*
X145010095Y-109656571D01*
X145105333Y-109704190D01*
X145486285Y-109704190D01*
X143962476Y-110180380D02*
X144533904Y-110180380D01*
X144248190Y-110180380D02*
X144248190Y-109180380D01*
X144343428Y-109323238D01*
X144438666Y-109418476D01*
X144533904Y-109466095D01*
X143629142Y-109180380D02*
X142962476Y-109180380D01*
X143391047Y-110180380D01*
X162250380Y-102004952D02*
X162250380Y-101528761D01*
X161250380Y-101528761D01*
X161726571Y-102338285D02*
X161726571Y-102671619D01*
X162250380Y-102814476D02*
X162250380Y-102338285D01*
X161250380Y-102338285D01*
X161250380Y-102814476D01*
X162250380Y-103243047D02*
X161250380Y-103243047D01*
X161250380Y-103481142D01*
X161298000Y-103624000D01*
X161393238Y-103719238D01*
X161488476Y-103766857D01*
X161678952Y-103814476D01*
X161821809Y-103814476D01*
X162012285Y-103766857D01*
X162107523Y-103719238D01*
X162202761Y-103624000D01*
X162250380Y-103481142D01*
X162250380Y-103243047D01*
X162250380Y-104766857D02*
X162250380Y-104195428D01*
X162250380Y-104481142D02*
X161250380Y-104481142D01*
X161393238Y-104385904D01*
X161488476Y-104290666D01*
X161536095Y-104195428D01*
X162250380Y-98194952D02*
X162250380Y-97718761D01*
X161250380Y-97718761D01*
X161726571Y-98528285D02*
X161726571Y-98861619D01*
X162250380Y-99004476D02*
X162250380Y-98528285D01*
X161250380Y-98528285D01*
X161250380Y-99004476D01*
X162250380Y-99433047D02*
X161250380Y-99433047D01*
X161250380Y-99671142D01*
X161298000Y-99814000D01*
X161393238Y-99909238D01*
X161488476Y-99956857D01*
X161678952Y-100004476D01*
X161821809Y-100004476D01*
X162012285Y-99956857D01*
X162107523Y-99909238D01*
X162202761Y-99814000D01*
X162250380Y-99671142D01*
X162250380Y-99433047D01*
X161250380Y-100337809D02*
X161250380Y-100956857D01*
X161631333Y-100623523D01*
X161631333Y-100766380D01*
X161678952Y-100861619D01*
X161726571Y-100909238D01*
X161821809Y-100956857D01*
X162059904Y-100956857D01*
X162155142Y-100909238D01*
X162202761Y-100861619D01*
X162250380Y-100766380D01*
X162250380Y-100480666D01*
X162202761Y-100385428D01*
X162155142Y-100337809D01*
X144787857Y-103576380D02*
X145264047Y-103576380D01*
X145264047Y-102576380D01*
X143930714Y-103576380D02*
X144502142Y-103576380D01*
X144216428Y-103576380D02*
X144216428Y-102576380D01*
X144311666Y-102719238D01*
X144406904Y-102814476D01*
X144502142Y-102862095D01*
X143597380Y-102576380D02*
X142978333Y-102576380D01*
X143311666Y-102957333D01*
X143168809Y-102957333D01*
X143073571Y-103004952D01*
X143025952Y-103052571D01*
X142978333Y-103147809D01*
X142978333Y-103385904D01*
X143025952Y-103481142D01*
X143073571Y-103528761D01*
X143168809Y-103576380D01*
X143454523Y-103576380D01*
X143549761Y-103528761D01*
X143597380Y-103481142D01*
X160218380Y-102481142D02*
X160218380Y-102004952D01*
X159218380Y-102004952D01*
X160218380Y-103338285D02*
X160218380Y-102766857D01*
X160218380Y-103052571D02*
X159218380Y-103052571D01*
X159361238Y-102957333D01*
X159456476Y-102862095D01*
X159504095Y-102766857D01*
X159313619Y-103719238D02*
X159266000Y-103766857D01*
X159218380Y-103862095D01*
X159218380Y-104100190D01*
X159266000Y-104195428D01*
X159313619Y-104243047D01*
X159408857Y-104290666D01*
X159504095Y-104290666D01*
X159646952Y-104243047D01*
X160218380Y-103671619D01*
X160218380Y-104290666D01*
X132214857Y-105100380D02*
X132691047Y-105100380D01*
X132691047Y-104100380D01*
X131357714Y-105100380D02*
X131929142Y-105100380D01*
X131643428Y-105100380D02*
X131643428Y-104100380D01*
X131738666Y-104243238D01*
X131833904Y-104338476D01*
X131929142Y-104386095D01*
X130738666Y-104100380D02*
X130643428Y-104100380D01*
X130548190Y-104148000D01*
X130500571Y-104195619D01*
X130452952Y-104290857D01*
X130405333Y-104481333D01*
X130405333Y-104719428D01*
X130452952Y-104909904D01*
X130500571Y-105005142D01*
X130548190Y-105052761D01*
X130643428Y-105100380D01*
X130738666Y-105100380D01*
X130833904Y-105052761D01*
X130881523Y-105005142D01*
X130929142Y-104909904D01*
X130976761Y-104719428D01*
X130976761Y-104481333D01*
X130929142Y-104290857D01*
X130881523Y-104195619D01*
X130833904Y-104148000D01*
X130738666Y-104100380D01*
X145486380Y-105624333D02*
X145486380Y-105148142D01*
X144486380Y-105148142D01*
X144581619Y-105910047D02*
X144534000Y-105957666D01*
X144486380Y-106052904D01*
X144486380Y-106291000D01*
X144534000Y-106386238D01*
X144581619Y-106433857D01*
X144676857Y-106481476D01*
X144772095Y-106481476D01*
X144914952Y-106433857D01*
X145486380Y-105862428D01*
X145486380Y-106481476D01*
X128690666Y-116022380D02*
X129166857Y-116022380D01*
X129166857Y-115022380D01*
X128214476Y-115450952D02*
X128309714Y-115403333D01*
X128357333Y-115355714D01*
X128404952Y-115260476D01*
X128404952Y-115212857D01*
X128357333Y-115117619D01*
X128309714Y-115070000D01*
X128214476Y-115022380D01*
X128024000Y-115022380D01*
X127928761Y-115070000D01*
X127881142Y-115117619D01*
X127833523Y-115212857D01*
X127833523Y-115260476D01*
X127881142Y-115355714D01*
X127928761Y-115403333D01*
X128024000Y-115450952D01*
X128214476Y-115450952D01*
X128309714Y-115498571D01*
X128357333Y-115546190D01*
X128404952Y-115641428D01*
X128404952Y-115831904D01*
X128357333Y-115927142D01*
X128309714Y-115974761D01*
X128214476Y-116022380D01*
X128024000Y-116022380D01*
X127928761Y-115974761D01*
X127881142Y-115927142D01*
X127833523Y-115831904D01*
X127833523Y-115641428D01*
X127881142Y-115546190D01*
X127928761Y-115498571D01*
X128024000Y-115450952D01*
X137580666Y-108148380D02*
X138056857Y-108148380D01*
X138056857Y-107148380D01*
X136723523Y-108148380D02*
X137294952Y-108148380D01*
X137009238Y-108148380D02*
X137009238Y-107148380D01*
X137104476Y-107291238D01*
X137199714Y-107386476D01*
X137294952Y-107434095D01*
X155138380Y-107719904D02*
X154138380Y-107719904D01*
X154138380Y-107958000D01*
X154186000Y-108100857D01*
X154281238Y-108196095D01*
X154376476Y-108243714D01*
X154566952Y-108291333D01*
X154709809Y-108291333D01*
X154900285Y-108243714D01*
X154995523Y-108196095D01*
X155090761Y-108100857D01*
X155138380Y-107958000D01*
X155138380Y-107719904D01*
X155138380Y-109243714D02*
X155138380Y-108672285D01*
X155138380Y-108958000D02*
X154138380Y-108958000D01*
X154281238Y-108862761D01*
X154376476Y-108767523D01*
X154424095Y-108672285D01*
X151836380Y-109243904D02*
X150836380Y-109243904D01*
X150836380Y-109482000D01*
X150884000Y-109624857D01*
X150979238Y-109720095D01*
X151074476Y-109767714D01*
X151264952Y-109815333D01*
X151407809Y-109815333D01*
X151598285Y-109767714D01*
X151693523Y-109720095D01*
X151788761Y-109624857D01*
X151836380Y-109482000D01*
X151836380Y-109243904D01*
X150836380Y-110148666D02*
X150836380Y-110767714D01*
X151217333Y-110434380D01*
X151217333Y-110577238D01*
X151264952Y-110672476D01*
X151312571Y-110720095D01*
X151407809Y-110767714D01*
X151645904Y-110767714D01*
X151741142Y-110720095D01*
X151788761Y-110672476D01*
X151836380Y-110577238D01*
X151836380Y-110291523D01*
X151788761Y-110196285D01*
X151741142Y-110148666D01*
X152090380Y-112545904D02*
X151090380Y-112545904D01*
X151090380Y-112784000D01*
X151138000Y-112926857D01*
X151233238Y-113022095D01*
X151328476Y-113069714D01*
X151518952Y-113117333D01*
X151661809Y-113117333D01*
X151852285Y-113069714D01*
X151947523Y-113022095D01*
X152042761Y-112926857D01*
X152090380Y-112784000D01*
X152090380Y-112545904D01*
X151185619Y-113498285D02*
X151138000Y-113545904D01*
X151090380Y-113641142D01*
X151090380Y-113879238D01*
X151138000Y-113974476D01*
X151185619Y-114022095D01*
X151280857Y-114069714D01*
X151376095Y-114069714D01*
X151518952Y-114022095D01*
X152090380Y-113450666D01*
X152090380Y-114069714D01*
X148312095Y-108402380D02*
X148312095Y-107402380D01*
X148074000Y-107402380D01*
X147931142Y-107450000D01*
X147835904Y-107545238D01*
X147788285Y-107640476D01*
X147740666Y-107830952D01*
X147740666Y-107973809D01*
X147788285Y-108164285D01*
X147835904Y-108259523D01*
X147931142Y-108354761D01*
X148074000Y-108402380D01*
X148312095Y-108402380D01*
X146883523Y-107735714D02*
X146883523Y-108402380D01*
X147121619Y-107354761D02*
X147359714Y-108069047D01*
X146740666Y-108069047D01*
X164028380Y-111021904D02*
X163028380Y-111021904D01*
X163028380Y-111260000D01*
X163076000Y-111402857D01*
X163171238Y-111498095D01*
X163266476Y-111545714D01*
X163456952Y-111593333D01*
X163599809Y-111593333D01*
X163790285Y-111545714D01*
X163885523Y-111498095D01*
X163980761Y-111402857D01*
X164028380Y-111260000D01*
X164028380Y-111021904D01*
X163028380Y-111926666D02*
X163028380Y-112593333D01*
X164028380Y-112164761D01*
X158472095Y-107640380D02*
X158472095Y-106640380D01*
X158234000Y-106640380D01*
X158091142Y-106688000D01*
X157995904Y-106783238D01*
X157948285Y-106878476D01*
X157900666Y-107068952D01*
X157900666Y-107211809D01*
X157948285Y-107402285D01*
X157995904Y-107497523D01*
X158091142Y-107592761D01*
X158234000Y-107640380D01*
X158472095Y-107640380D01*
X157043523Y-106640380D02*
X157234000Y-106640380D01*
X157329238Y-106688000D01*
X157376857Y-106735619D01*
X157472095Y-106878476D01*
X157519714Y-107068952D01*
X157519714Y-107449904D01*
X157472095Y-107545142D01*
X157424476Y-107592761D01*
X157329238Y-107640380D01*
X157138761Y-107640380D01*
X157043523Y-107592761D01*
X156995904Y-107545142D01*
X156948285Y-107449904D01*
X156948285Y-107211809D01*
X156995904Y-107116571D01*
X157043523Y-107068952D01*
X157138761Y-107021333D01*
X157329238Y-107021333D01*
X157424476Y-107068952D01*
X157472095Y-107116571D01*
X157519714Y-107211809D01*
X158472095Y-109926380D02*
X158472095Y-108926380D01*
X158234000Y-108926380D01*
X158091142Y-108974000D01*
X157995904Y-109069238D01*
X157948285Y-109164476D01*
X157900666Y-109354952D01*
X157900666Y-109497809D01*
X157948285Y-109688285D01*
X157995904Y-109783523D01*
X158091142Y-109878761D01*
X158234000Y-109926380D01*
X158472095Y-109926380D01*
X156995904Y-108926380D02*
X157472095Y-108926380D01*
X157519714Y-109402571D01*
X157472095Y-109354952D01*
X157376857Y-109307333D01*
X157138761Y-109307333D01*
X157043523Y-109354952D01*
X156995904Y-109402571D01*
X156948285Y-109497809D01*
X156948285Y-109735904D01*
X156995904Y-109831142D01*
X157043523Y-109878761D01*
X157138761Y-109926380D01*
X157376857Y-109926380D01*
X157472095Y-109878761D01*
X157519714Y-109831142D01*
X141866857Y-108815142D02*
X141914476Y-108862761D01*
X142057333Y-108910380D01*
X142152571Y-108910380D01*
X142295428Y-108862761D01*
X142390666Y-108767523D01*
X142438285Y-108672285D01*
X142485904Y-108481809D01*
X142485904Y-108338952D01*
X142438285Y-108148476D01*
X142390666Y-108053238D01*
X142295428Y-107958000D01*
X142152571Y-107910380D01*
X142057333Y-107910380D01*
X141914476Y-107958000D01*
X141866857Y-108005619D01*
X141533523Y-107910380D02*
X140914476Y-107910380D01*
X141247809Y-108291333D01*
X141104952Y-108291333D01*
X141009714Y-108338952D01*
X140962095Y-108386571D01*
X140914476Y-108481809D01*
X140914476Y-108719904D01*
X140962095Y-108815142D01*
X141009714Y-108862761D01*
X141104952Y-108910380D01*
X141390666Y-108910380D01*
X141485904Y-108862761D01*
X141533523Y-108815142D01*
X140009714Y-107910380D02*
X140485904Y-107910380D01*
X140533523Y-108386571D01*
X140485904Y-108338952D01*
X140390666Y-108291333D01*
X140152571Y-108291333D01*
X140057333Y-108338952D01*
X140009714Y-108386571D01*
X139962095Y-108481809D01*
X139962095Y-108719904D01*
X140009714Y-108815142D01*
X140057333Y-108862761D01*
X140152571Y-108910380D01*
X140390666Y-108910380D01*
X140485904Y-108862761D01*
X140533523Y-108815142D01*
X142597142Y-113085642D02*
X142644761Y-113038023D01*
X142692380Y-112895166D01*
X142692380Y-112799928D01*
X142644761Y-112657071D01*
X142549523Y-112561833D01*
X142454285Y-112514214D01*
X142263809Y-112466595D01*
X142120952Y-112466595D01*
X141930476Y-112514214D01*
X141835238Y-112561833D01*
X141740000Y-112657071D01*
X141692380Y-112799928D01*
X141692380Y-112895166D01*
X141740000Y-113038023D01*
X141787619Y-113085642D01*
X141692380Y-113418976D02*
X141692380Y-114038023D01*
X142073333Y-113704690D01*
X142073333Y-113847547D01*
X142120952Y-113942785D01*
X142168571Y-113990404D01*
X142263809Y-114038023D01*
X142501904Y-114038023D01*
X142597142Y-113990404D01*
X142644761Y-113942785D01*
X142692380Y-113847547D01*
X142692380Y-113561833D01*
X142644761Y-113466595D01*
X142597142Y-113418976D01*
X142120952Y-114609452D02*
X142073333Y-114514214D01*
X142025714Y-114466595D01*
X141930476Y-114418976D01*
X141882857Y-114418976D01*
X141787619Y-114466595D01*
X141740000Y-114514214D01*
X141692380Y-114609452D01*
X141692380Y-114799928D01*
X141740000Y-114895166D01*
X141787619Y-114942785D01*
X141882857Y-114990404D01*
X141930476Y-114990404D01*
X142025714Y-114942785D01*
X142073333Y-114895166D01*
X142120952Y-114799928D01*
X142120952Y-114609452D01*
X142168571Y-114514214D01*
X142216190Y-114466595D01*
X142311428Y-114418976D01*
X142501904Y-114418976D01*
X142597142Y-114466595D01*
X142644761Y-114514214D01*
X142692380Y-114609452D01*
X142692380Y-114799928D01*
X142644761Y-114895166D01*
X142597142Y-114942785D01*
X142501904Y-114990404D01*
X142311428Y-114990404D01*
X142216190Y-114942785D01*
X142168571Y-114895166D01*
X142120952Y-114799928D01*
X142057357Y-95607142D02*
X142104976Y-95654761D01*
X142247833Y-95702380D01*
X142343071Y-95702380D01*
X142485928Y-95654761D01*
X142581166Y-95559523D01*
X142628785Y-95464285D01*
X142676404Y-95273809D01*
X142676404Y-95130952D01*
X142628785Y-94940476D01*
X142581166Y-94845238D01*
X142485928Y-94750000D01*
X142343071Y-94702380D01*
X142247833Y-94702380D01*
X142104976Y-94750000D01*
X142057357Y-94797619D01*
X141200214Y-95035714D02*
X141200214Y-95702380D01*
X141438309Y-94654761D02*
X141676404Y-95369047D01*
X141057357Y-95369047D01*
X140533547Y-95130952D02*
X140628785Y-95083333D01*
X140676404Y-95035714D01*
X140724023Y-94940476D01*
X140724023Y-94892857D01*
X140676404Y-94797619D01*
X140628785Y-94750000D01*
X140533547Y-94702380D01*
X140343071Y-94702380D01*
X140247833Y-94750000D01*
X140200214Y-94797619D01*
X140152595Y-94892857D01*
X140152595Y-94940476D01*
X140200214Y-95035714D01*
X140247833Y-95083333D01*
X140343071Y-95130952D01*
X140533547Y-95130952D01*
X140628785Y-95178571D01*
X140676404Y-95226190D01*
X140724023Y-95321428D01*
X140724023Y-95511904D01*
X140676404Y-95607142D01*
X140628785Y-95654761D01*
X140533547Y-95702380D01*
X140343071Y-95702380D01*
X140247833Y-95654761D01*
X140200214Y-95607142D01*
X140152595Y-95511904D01*
X140152595Y-95321428D01*
X140200214Y-95226190D01*
X140247833Y-95178571D01*
X140343071Y-95130952D01*
X138787142Y-95877142D02*
X138834761Y-95829523D01*
X138882380Y-95686666D01*
X138882380Y-95591428D01*
X138834761Y-95448571D01*
X138739523Y-95353333D01*
X138644285Y-95305714D01*
X138453809Y-95258095D01*
X138310952Y-95258095D01*
X138120476Y-95305714D01*
X138025238Y-95353333D01*
X137930000Y-95448571D01*
X137882380Y-95591428D01*
X137882380Y-95686666D01*
X137930000Y-95829523D01*
X137977619Y-95877142D01*
X138882380Y-96829523D02*
X138882380Y-96258095D01*
X138882380Y-96543809D02*
X137882380Y-96543809D01*
X138025238Y-96448571D01*
X138120476Y-96353333D01*
X138168095Y-96258095D01*
X138310952Y-97400952D02*
X138263333Y-97305714D01*
X138215714Y-97258095D01*
X138120476Y-97210476D01*
X138072857Y-97210476D01*
X137977619Y-97258095D01*
X137930000Y-97305714D01*
X137882380Y-97400952D01*
X137882380Y-97591428D01*
X137930000Y-97686666D01*
X137977619Y-97734285D01*
X138072857Y-97781904D01*
X138120476Y-97781904D01*
X138215714Y-97734285D01*
X138263333Y-97686666D01*
X138310952Y-97591428D01*
X138310952Y-97400952D01*
X138358571Y-97305714D01*
X138406190Y-97258095D01*
X138501428Y-97210476D01*
X138691904Y-97210476D01*
X138787142Y-97258095D01*
X138834761Y-97305714D01*
X138882380Y-97400952D01*
X138882380Y-97591428D01*
X138834761Y-97686666D01*
X138787142Y-97734285D01*
X138691904Y-97781904D01*
X138501428Y-97781904D01*
X138406190Y-97734285D01*
X138358571Y-97686666D01*
X138310952Y-97591428D01*
X141676357Y-103481142D02*
X141723976Y-103528761D01*
X141866833Y-103576380D01*
X141962071Y-103576380D01*
X142104928Y-103528761D01*
X142200166Y-103433523D01*
X142247785Y-103338285D01*
X142295404Y-103147809D01*
X142295404Y-103004952D01*
X142247785Y-102814476D01*
X142200166Y-102719238D01*
X142104928Y-102624000D01*
X141962071Y-102576380D01*
X141866833Y-102576380D01*
X141723976Y-102624000D01*
X141676357Y-102671619D01*
X141343023Y-102576380D02*
X140723976Y-102576380D01*
X141057309Y-102957333D01*
X140914452Y-102957333D01*
X140819214Y-103004952D01*
X140771595Y-103052571D01*
X140723976Y-103147809D01*
X140723976Y-103385904D01*
X140771595Y-103481142D01*
X140819214Y-103528761D01*
X140914452Y-103576380D01*
X141200166Y-103576380D01*
X141295404Y-103528761D01*
X141343023Y-103481142D01*
X139771595Y-103576380D02*
X140343023Y-103576380D01*
X140057309Y-103576380D02*
X140057309Y-102576380D01*
X140152547Y-102719238D01*
X140247785Y-102814476D01*
X140343023Y-102862095D01*
X141073142Y-96702642D02*
X141120761Y-96655023D01*
X141168380Y-96512166D01*
X141168380Y-96416928D01*
X141120761Y-96274071D01*
X141025523Y-96178833D01*
X140930285Y-96131214D01*
X140739809Y-96083595D01*
X140596952Y-96083595D01*
X140406476Y-96131214D01*
X140311238Y-96178833D01*
X140216000Y-96274071D01*
X140168380Y-96416928D01*
X140168380Y-96512166D01*
X140216000Y-96655023D01*
X140263619Y-96702642D01*
X141168380Y-97655023D02*
X141168380Y-97083595D01*
X141168380Y-97369309D02*
X140168380Y-97369309D01*
X140311238Y-97274071D01*
X140406476Y-97178833D01*
X140454095Y-97083595D01*
X140168380Y-97988357D02*
X140168380Y-98655023D01*
X141168380Y-98226452D01*
X135262857Y-109323142D02*
X135310476Y-109370761D01*
X135453333Y-109418380D01*
X135548571Y-109418380D01*
X135691428Y-109370761D01*
X135786666Y-109275523D01*
X135834285Y-109180285D01*
X135881904Y-108989809D01*
X135881904Y-108846952D01*
X135834285Y-108656476D01*
X135786666Y-108561238D01*
X135691428Y-108466000D01*
X135548571Y-108418380D01*
X135453333Y-108418380D01*
X135310476Y-108466000D01*
X135262857Y-108513619D01*
X134929523Y-108418380D02*
X134310476Y-108418380D01*
X134643809Y-108799333D01*
X134500952Y-108799333D01*
X134405714Y-108846952D01*
X134358095Y-108894571D01*
X134310476Y-108989809D01*
X134310476Y-109227904D01*
X134358095Y-109323142D01*
X134405714Y-109370761D01*
X134500952Y-109418380D01*
X134786666Y-109418380D01*
X134881904Y-109370761D01*
X134929523Y-109323142D01*
X133453333Y-108751714D02*
X133453333Y-109418380D01*
X133691428Y-108370761D02*
X133929523Y-109085047D01*
X133310476Y-109085047D01*
X153550857Y-95861142D02*
X153598476Y-95908761D01*
X153741333Y-95956380D01*
X153836571Y-95956380D01*
X153979428Y-95908761D01*
X154074666Y-95813523D01*
X154122285Y-95718285D01*
X154169904Y-95527809D01*
X154169904Y-95384952D01*
X154122285Y-95194476D01*
X154074666Y-95099238D01*
X153979428Y-95004000D01*
X153836571Y-94956380D01*
X153741333Y-94956380D01*
X153598476Y-95004000D01*
X153550857Y-95051619D01*
X152598476Y-95956380D02*
X153169904Y-95956380D01*
X152884190Y-95956380D02*
X152884190Y-94956380D01*
X152979428Y-95099238D01*
X153074666Y-95194476D01*
X153169904Y-95242095D01*
X151741333Y-94956380D02*
X151931809Y-94956380D01*
X152027047Y-95004000D01*
X152074666Y-95051619D01*
X152169904Y-95194476D01*
X152217523Y-95384952D01*
X152217523Y-95765904D01*
X152169904Y-95861142D01*
X152122285Y-95908761D01*
X152027047Y-95956380D01*
X151836571Y-95956380D01*
X151741333Y-95908761D01*
X151693714Y-95861142D01*
X151646095Y-95765904D01*
X151646095Y-95527809D01*
X151693714Y-95432571D01*
X151741333Y-95384952D01*
X151836571Y-95337333D01*
X152027047Y-95337333D01*
X152122285Y-95384952D01*
X152169904Y-95432571D01*
X152217523Y-95527809D01*
X158345142Y-99687142D02*
X158392761Y-99639523D01*
X158440380Y-99496666D01*
X158440380Y-99401428D01*
X158392761Y-99258571D01*
X158297523Y-99163333D01*
X158202285Y-99115714D01*
X158011809Y-99068095D01*
X157868952Y-99068095D01*
X157678476Y-99115714D01*
X157583238Y-99163333D01*
X157488000Y-99258571D01*
X157440380Y-99401428D01*
X157440380Y-99496666D01*
X157488000Y-99639523D01*
X157535619Y-99687142D01*
X157535619Y-100068095D02*
X157488000Y-100115714D01*
X157440380Y-100210952D01*
X157440380Y-100449047D01*
X157488000Y-100544285D01*
X157535619Y-100591904D01*
X157630857Y-100639523D01*
X157726095Y-100639523D01*
X157868952Y-100591904D01*
X158440380Y-100020476D01*
X158440380Y-100639523D01*
X158440380Y-101115714D02*
X158440380Y-101306190D01*
X158392761Y-101401428D01*
X158345142Y-101449047D01*
X158202285Y-101544285D01*
X158011809Y-101591904D01*
X157630857Y-101591904D01*
X157535619Y-101544285D01*
X157488000Y-101496666D01*
X157440380Y-101401428D01*
X157440380Y-101210952D01*
X157488000Y-101115714D01*
X157535619Y-101068095D01*
X157630857Y-101020476D01*
X157868952Y-101020476D01*
X157964190Y-101068095D01*
X158011809Y-101115714D01*
X158059428Y-101210952D01*
X158059428Y-101401428D01*
X158011809Y-101496666D01*
X157964190Y-101544285D01*
X157868952Y-101591904D01*
X152788857Y-97639142D02*
X152836476Y-97686761D01*
X152979333Y-97734380D01*
X153074571Y-97734380D01*
X153217428Y-97686761D01*
X153312666Y-97591523D01*
X153360285Y-97496285D01*
X153407904Y-97305809D01*
X153407904Y-97162952D01*
X153360285Y-96972476D01*
X153312666Y-96877238D01*
X153217428Y-96782000D01*
X153074571Y-96734380D01*
X152979333Y-96734380D01*
X152836476Y-96782000D01*
X152788857Y-96829619D01*
X151836476Y-97734380D02*
X152407904Y-97734380D01*
X152122190Y-97734380D02*
X152122190Y-96734380D01*
X152217428Y-96877238D01*
X152312666Y-96972476D01*
X152407904Y-97020095D01*
X150931714Y-96734380D02*
X151407904Y-96734380D01*
X151455523Y-97210571D01*
X151407904Y-97162952D01*
X151312666Y-97115333D01*
X151074571Y-97115333D01*
X150979333Y-97162952D01*
X150931714Y-97210571D01*
X150884095Y-97305809D01*
X150884095Y-97543904D01*
X150931714Y-97639142D01*
X150979333Y-97686761D01*
X151074571Y-97734380D01*
X151312666Y-97734380D01*
X151407904Y-97686761D01*
X151455523Y-97639142D01*
X133738857Y-98401142D02*
X133786476Y-98448761D01*
X133929333Y-98496380D01*
X134024571Y-98496380D01*
X134167428Y-98448761D01*
X134262666Y-98353523D01*
X134310285Y-98258285D01*
X134357904Y-98067809D01*
X134357904Y-97924952D01*
X134310285Y-97734476D01*
X134262666Y-97639238D01*
X134167428Y-97544000D01*
X134024571Y-97496380D01*
X133929333Y-97496380D01*
X133786476Y-97544000D01*
X133738857Y-97591619D01*
X132881714Y-97829714D02*
X132881714Y-98496380D01*
X133119809Y-97448761D02*
X133357904Y-98163047D01*
X132738857Y-98163047D01*
X131929333Y-97496380D02*
X132119809Y-97496380D01*
X132215047Y-97544000D01*
X132262666Y-97591619D01*
X132357904Y-97734476D01*
X132405523Y-97924952D01*
X132405523Y-98305904D01*
X132357904Y-98401142D01*
X132310285Y-98448761D01*
X132215047Y-98496380D01*
X132024571Y-98496380D01*
X131929333Y-98448761D01*
X131881714Y-98401142D01*
X131834095Y-98305904D01*
X131834095Y-98067809D01*
X131881714Y-97972571D01*
X131929333Y-97924952D01*
X132024571Y-97877333D01*
X132215047Y-97877333D01*
X132310285Y-97924952D01*
X132357904Y-97972571D01*
X132405523Y-98067809D01*
X166504857Y-111101142D02*
X166552476Y-111148761D01*
X166695333Y-111196380D01*
X166790571Y-111196380D01*
X166933428Y-111148761D01*
X167028666Y-111053523D01*
X167076285Y-110958285D01*
X167123904Y-110767809D01*
X167123904Y-110624952D01*
X167076285Y-110434476D01*
X167028666Y-110339238D01*
X166933428Y-110244000D01*
X166790571Y-110196380D01*
X166695333Y-110196380D01*
X166552476Y-110244000D01*
X166504857Y-110291619D01*
X165552476Y-111196380D02*
X166123904Y-111196380D01*
X165838190Y-111196380D02*
X165838190Y-110196380D01*
X165933428Y-110339238D01*
X166028666Y-110434476D01*
X166123904Y-110482095D01*
X165076285Y-111196380D02*
X164885809Y-111196380D01*
X164790571Y-111148761D01*
X164742952Y-111101142D01*
X164647714Y-110958285D01*
X164600095Y-110767809D01*
X164600095Y-110386857D01*
X164647714Y-110291619D01*
X164695333Y-110244000D01*
X164790571Y-110196380D01*
X164981047Y-110196380D01*
X165076285Y-110244000D01*
X165123904Y-110291619D01*
X165171523Y-110386857D01*
X165171523Y-110624952D01*
X165123904Y-110720190D01*
X165076285Y-110767809D01*
X164981047Y-110815428D01*
X164790571Y-110815428D01*
X164695333Y-110767809D01*
X164647714Y-110720190D01*
X164600095Y-110624952D01*
X154820857Y-114403142D02*
X154868476Y-114450761D01*
X155011333Y-114498380D01*
X155106571Y-114498380D01*
X155249428Y-114450761D01*
X155344666Y-114355523D01*
X155392285Y-114260285D01*
X155439904Y-114069809D01*
X155439904Y-113926952D01*
X155392285Y-113736476D01*
X155344666Y-113641238D01*
X155249428Y-113546000D01*
X155106571Y-113498380D01*
X155011333Y-113498380D01*
X154868476Y-113546000D01*
X154820857Y-113593619D01*
X154439904Y-113593619D02*
X154392285Y-113546000D01*
X154297047Y-113498380D01*
X154058952Y-113498380D01*
X153963714Y-113546000D01*
X153916095Y-113593619D01*
X153868476Y-113688857D01*
X153868476Y-113784095D01*
X153916095Y-113926952D01*
X154487523Y-114498380D01*
X153868476Y-114498380D01*
X153535142Y-113498380D02*
X152868476Y-113498380D01*
X153297047Y-114498380D01*
X130690857Y-103481142D02*
X130738476Y-103528761D01*
X130881333Y-103576380D01*
X130976571Y-103576380D01*
X131119428Y-103528761D01*
X131214666Y-103433523D01*
X131262285Y-103338285D01*
X131309904Y-103147809D01*
X131309904Y-103004952D01*
X131262285Y-102814476D01*
X131214666Y-102719238D01*
X131119428Y-102624000D01*
X130976571Y-102576380D01*
X130881333Y-102576380D01*
X130738476Y-102624000D01*
X130690857Y-102671619D01*
X130309904Y-102671619D02*
X130262285Y-102624000D01*
X130167047Y-102576380D01*
X129928952Y-102576380D01*
X129833714Y-102624000D01*
X129786095Y-102671619D01*
X129738476Y-102766857D01*
X129738476Y-102862095D01*
X129786095Y-103004952D01*
X130357523Y-103576380D01*
X129738476Y-103576380D01*
X128833714Y-102576380D02*
X129309904Y-102576380D01*
X129357523Y-103052571D01*
X129309904Y-103004952D01*
X129214666Y-102957333D01*
X128976571Y-102957333D01*
X128881333Y-103004952D01*
X128833714Y-103052571D01*
X128786095Y-103147809D01*
X128786095Y-103385904D01*
X128833714Y-103481142D01*
X128881333Y-103528761D01*
X128976571Y-103576380D01*
X129214666Y-103576380D01*
X129309904Y-103528761D01*
X129357523Y-103481142D01*
X136723357Y-98401142D02*
X136770976Y-98448761D01*
X136913833Y-98496380D01*
X137009071Y-98496380D01*
X137151928Y-98448761D01*
X137247166Y-98353523D01*
X137294785Y-98258285D01*
X137342404Y-98067809D01*
X137342404Y-97924952D01*
X137294785Y-97734476D01*
X137247166Y-97639238D01*
X137151928Y-97544000D01*
X137009071Y-97496380D01*
X136913833Y-97496380D01*
X136770976Y-97544000D01*
X136723357Y-97591619D01*
X135770976Y-98496380D02*
X136342404Y-98496380D01*
X136056690Y-98496380D02*
X136056690Y-97496380D01*
X136151928Y-97639238D01*
X136247166Y-97734476D01*
X136342404Y-97782095D01*
X134818595Y-98496380D02*
X135390023Y-98496380D01*
X135104309Y-98496380D02*
X135104309Y-97496380D01*
X135199547Y-97639238D01*
X135294785Y-97734476D01*
X135390023Y-97782095D01*
X129166857Y-114403142D02*
X129214476Y-114450761D01*
X129357333Y-114498380D01*
X129452571Y-114498380D01*
X129595428Y-114450761D01*
X129690666Y-114355523D01*
X129738285Y-114260285D01*
X129785904Y-114069809D01*
X129785904Y-113926952D01*
X129738285Y-113736476D01*
X129690666Y-113641238D01*
X129595428Y-113546000D01*
X129452571Y-113498380D01*
X129357333Y-113498380D01*
X129214476Y-113546000D01*
X129166857Y-113593619D01*
X128833523Y-113498380D02*
X128214476Y-113498380D01*
X128547809Y-113879333D01*
X128404952Y-113879333D01*
X128309714Y-113926952D01*
X128262095Y-113974571D01*
X128214476Y-114069809D01*
X128214476Y-114307904D01*
X128262095Y-114403142D01*
X128309714Y-114450761D01*
X128404952Y-114498380D01*
X128690666Y-114498380D01*
X128785904Y-114450761D01*
X128833523Y-114403142D01*
X127357333Y-113498380D02*
X127547809Y-113498380D01*
X127643047Y-113546000D01*
X127690666Y-113593619D01*
X127785904Y-113736476D01*
X127833523Y-113926952D01*
X127833523Y-114307904D01*
X127785904Y-114403142D01*
X127738285Y-114450761D01*
X127643047Y-114498380D01*
X127452571Y-114498380D01*
X127357333Y-114450761D01*
X127309714Y-114403142D01*
X127262095Y-114307904D01*
X127262095Y-114069809D01*
X127309714Y-113974571D01*
X127357333Y-113926952D01*
X127452571Y-113879333D01*
X127643047Y-113879333D01*
X127738285Y-113926952D01*
X127785904Y-113974571D01*
X127833523Y-114069809D01*
X144914857Y-115165142D02*
X144962476Y-115212761D01*
X145105333Y-115260380D01*
X145200571Y-115260380D01*
X145343428Y-115212761D01*
X145438666Y-115117523D01*
X145486285Y-115022285D01*
X145533904Y-114831809D01*
X145533904Y-114688952D01*
X145486285Y-114498476D01*
X145438666Y-114403238D01*
X145343428Y-114308000D01*
X145200571Y-114260380D01*
X145105333Y-114260380D01*
X144962476Y-114308000D01*
X144914857Y-114355619D01*
X144533904Y-114355619D02*
X144486285Y-114308000D01*
X144391047Y-114260380D01*
X144152952Y-114260380D01*
X144057714Y-114308000D01*
X144010095Y-114355619D01*
X143962476Y-114450857D01*
X143962476Y-114546095D01*
X144010095Y-114688952D01*
X144581523Y-115260380D01*
X143962476Y-115260380D01*
X143629142Y-114260380D02*
X143010095Y-114260380D01*
X143343428Y-114641333D01*
X143200571Y-114641333D01*
X143105333Y-114688952D01*
X143057714Y-114736571D01*
X143010095Y-114831809D01*
X143010095Y-115069904D01*
X143057714Y-115165142D01*
X143105333Y-115212761D01*
X143200571Y-115260380D01*
X143486285Y-115260380D01*
X143581523Y-115212761D01*
X143629142Y-115165142D01*
X147550166Y-110085142D02*
X147597785Y-110132761D01*
X147740642Y-110180380D01*
X147835880Y-110180380D01*
X147978738Y-110132761D01*
X148073976Y-110037523D01*
X148121595Y-109942285D01*
X148169214Y-109751809D01*
X148169214Y-109608952D01*
X148121595Y-109418476D01*
X148073976Y-109323238D01*
X147978738Y-109228000D01*
X147835880Y-109180380D01*
X147740642Y-109180380D01*
X147597785Y-109228000D01*
X147550166Y-109275619D01*
X147073976Y-110180380D02*
X146883500Y-110180380D01*
X146788261Y-110132761D01*
X146740642Y-110085142D01*
X146645404Y-109942285D01*
X146597785Y-109751809D01*
X146597785Y-109370857D01*
X146645404Y-109275619D01*
X146693023Y-109228000D01*
X146788261Y-109180380D01*
X146978738Y-109180380D01*
X147073976Y-109228000D01*
X147121595Y-109275619D01*
X147169214Y-109370857D01*
X147169214Y-109608952D01*
X147121595Y-109704190D01*
X147073976Y-109751809D01*
X146978738Y-109799428D01*
X146788261Y-109799428D01*
X146693023Y-109751809D01*
X146645404Y-109704190D01*
X146597785Y-109608952D01*
X132214857Y-114403142D02*
X132262476Y-114450761D01*
X132405333Y-114498380D01*
X132500571Y-114498380D01*
X132643428Y-114450761D01*
X132738666Y-114355523D01*
X132786285Y-114260285D01*
X132833904Y-114069809D01*
X132833904Y-113926952D01*
X132786285Y-113736476D01*
X132738666Y-113641238D01*
X132643428Y-113546000D01*
X132500571Y-113498380D01*
X132405333Y-113498380D01*
X132262476Y-113546000D01*
X132214857Y-113593619D01*
X131833904Y-113593619D02*
X131786285Y-113546000D01*
X131691047Y-113498380D01*
X131452952Y-113498380D01*
X131357714Y-113546000D01*
X131310095Y-113593619D01*
X131262476Y-113688857D01*
X131262476Y-113784095D01*
X131310095Y-113926952D01*
X131881523Y-114498380D01*
X131262476Y-114498380D01*
X130310095Y-114498380D02*
X130881523Y-114498380D01*
X130595809Y-114498380D02*
X130595809Y-113498380D01*
X130691047Y-113641238D01*
X130786285Y-113736476D01*
X130881523Y-113784095D01*
X137707666Y-106529142D02*
X137755285Y-106576761D01*
X137898142Y-106624380D01*
X137993380Y-106624380D01*
X138136238Y-106576761D01*
X138231476Y-106481523D01*
X138279095Y-106386285D01*
X138326714Y-106195809D01*
X138326714Y-106052952D01*
X138279095Y-105862476D01*
X138231476Y-105767238D01*
X138136238Y-105672000D01*
X137993380Y-105624380D01*
X137898142Y-105624380D01*
X137755285Y-105672000D01*
X137707666Y-105719619D01*
X137374333Y-105624380D02*
X136707666Y-105624380D01*
X137136238Y-106624380D01*
X165203142Y-99401333D02*
X165250761Y-99353714D01*
X165298380Y-99210857D01*
X165298380Y-99115619D01*
X165250761Y-98972761D01*
X165155523Y-98877523D01*
X165060285Y-98829904D01*
X164869809Y-98782285D01*
X164726952Y-98782285D01*
X164536476Y-98829904D01*
X164441238Y-98877523D01*
X164346000Y-98972761D01*
X164298380Y-99115619D01*
X164298380Y-99210857D01*
X164346000Y-99353714D01*
X164393619Y-99401333D01*
X164298380Y-99734666D02*
X164298380Y-100353714D01*
X164679333Y-100020380D01*
X164679333Y-100163238D01*
X164726952Y-100258476D01*
X164774571Y-100306095D01*
X164869809Y-100353714D01*
X165107904Y-100353714D01*
X165203142Y-100306095D01*
X165250761Y-100258476D01*
X165298380Y-100163238D01*
X165298380Y-99877523D01*
X165250761Y-99782285D01*
X165203142Y-99734666D01*
X162186857Y-114911142D02*
X162234476Y-114958761D01*
X162377333Y-115006380D01*
X162472571Y-115006380D01*
X162615428Y-114958761D01*
X162710666Y-114863523D01*
X162758285Y-114768285D01*
X162805904Y-114577809D01*
X162805904Y-114434952D01*
X162758285Y-114244476D01*
X162710666Y-114149238D01*
X162615428Y-114054000D01*
X162472571Y-114006380D01*
X162377333Y-114006380D01*
X162234476Y-114054000D01*
X162186857Y-114101619D01*
X161329714Y-114339714D02*
X161329714Y-115006380D01*
X161567809Y-113958761D02*
X161805904Y-114673047D01*
X161186857Y-114673047D01*
X160901142Y-114006380D02*
X160234476Y-114006380D01*
X160663047Y-115006380D01*
X165203142Y-96353333D02*
X165250761Y-96305714D01*
X165298380Y-96162857D01*
X165298380Y-96067619D01*
X165250761Y-95924761D01*
X165155523Y-95829523D01*
X165060285Y-95781904D01*
X164869809Y-95734285D01*
X164726952Y-95734285D01*
X164536476Y-95781904D01*
X164441238Y-95829523D01*
X164346000Y-95924761D01*
X164298380Y-96067619D01*
X164298380Y-96162857D01*
X164346000Y-96305714D01*
X164393619Y-96353333D01*
X165298380Y-97305714D02*
X165298380Y-96734285D01*
X165298380Y-97020000D02*
X164298380Y-97020000D01*
X164441238Y-96924761D01*
X164536476Y-96829523D01*
X164584095Y-96734285D01*
X144978357Y-108307142D02*
X145025976Y-108354761D01*
X145168833Y-108402380D01*
X145264071Y-108402380D01*
X145406928Y-108354761D01*
X145502166Y-108259523D01*
X145549785Y-108164285D01*
X145597404Y-107973809D01*
X145597404Y-107830952D01*
X145549785Y-107640476D01*
X145502166Y-107545238D01*
X145406928Y-107450000D01*
X145264071Y-107402380D01*
X145168833Y-107402380D01*
X145025976Y-107450000D01*
X144978357Y-107497619D01*
X144645023Y-107402380D02*
X144025976Y-107402380D01*
X144359309Y-107783333D01*
X144216452Y-107783333D01*
X144121214Y-107830952D01*
X144073595Y-107878571D01*
X144025976Y-107973809D01*
X144025976Y-108211904D01*
X144073595Y-108307142D01*
X144121214Y-108354761D01*
X144216452Y-108402380D01*
X144502166Y-108402380D01*
X144597404Y-108354761D01*
X144645023Y-108307142D01*
X143549785Y-108402380D02*
X143359309Y-108402380D01*
X143264071Y-108354761D01*
X143216452Y-108307142D01*
X143121214Y-108164285D01*
X143073595Y-107973809D01*
X143073595Y-107592857D01*
X143121214Y-107497619D01*
X143168833Y-107450000D01*
X143264071Y-107402380D01*
X143454547Y-107402380D01*
X143549785Y-107450000D01*
X143597404Y-107497619D01*
X143645023Y-107592857D01*
X143645023Y-107830952D01*
X143597404Y-107926190D01*
X143549785Y-107973809D01*
X143454547Y-108021428D01*
X143264071Y-108021428D01*
X143168833Y-107973809D01*
X143121214Y-107926190D01*
X143073595Y-107830952D01*
X148059957Y-116689142D02*
X148107576Y-116736761D01*
X148250433Y-116784380D01*
X148345671Y-116784380D01*
X148488528Y-116736761D01*
X148583766Y-116641523D01*
X148631385Y-116546285D01*
X148679004Y-116355809D01*
X148679004Y-116212952D01*
X148631385Y-116022476D01*
X148583766Y-115927238D01*
X148488528Y-115832000D01*
X148345671Y-115784380D01*
X148250433Y-115784380D01*
X148107576Y-115832000D01*
X148059957Y-115879619D01*
X147202814Y-116117714D02*
X147202814Y-116784380D01*
X147440909Y-115736761D02*
X147679004Y-116451047D01*
X147059957Y-116451047D01*
X146250433Y-116117714D02*
X146250433Y-116784380D01*
X146488528Y-115736761D02*
X146726623Y-116451047D01*
X146107576Y-116451047D01*
X151741142Y-115689142D02*
X151788761Y-115641523D01*
X151836380Y-115498666D01*
X151836380Y-115403428D01*
X151788761Y-115260571D01*
X151693523Y-115165333D01*
X151598285Y-115117714D01*
X151407809Y-115070095D01*
X151264952Y-115070095D01*
X151074476Y-115117714D01*
X150979238Y-115165333D01*
X150884000Y-115260571D01*
X150836380Y-115403428D01*
X150836380Y-115498666D01*
X150884000Y-115641523D01*
X150931619Y-115689142D01*
X151169714Y-116546285D02*
X151836380Y-116546285D01*
X150788761Y-116308190D02*
X151503047Y-116070095D01*
X151503047Y-116689142D01*
X150836380Y-116974857D02*
X150836380Y-117593904D01*
X151217333Y-117260571D01*
X151217333Y-117403428D01*
X151264952Y-117498666D01*
X151312571Y-117546285D01*
X151407809Y-117593904D01*
X151645904Y-117593904D01*
X151741142Y-117546285D01*
X151788761Y-117498666D01*
X151836380Y-117403428D01*
X151836380Y-117117714D01*
X151788761Y-117022476D01*
X151741142Y-116974857D01*
%LPC*%
D11*
X176128000Y-109879000D03*
X176128000Y-115419000D03*
D12*
X128881000Y-120502000D03*
X123341000Y-120502000D03*
D11*
X118110000Y-115419000D03*
X118110000Y-109879000D03*
M02*
