G04 #@! TF.GenerationSoftware,KiCad,Pcbnew,5.1.10-88a1d61d58~88~ubuntu18.04.1*
G04 #@! TF.CreationDate,2021-10-01T18:12:45+02:00*
G04 #@! TF.ProjectId,signal_processing,7369676e-616c-45f7-9072-6f6365737369,rev?*
G04 #@! TF.SameCoordinates,Original*
G04 #@! TF.FileFunction,Soldermask,Top*
G04 #@! TF.FilePolarity,Negative*
%FSLAX46Y46*%
G04 Gerber Fmt 4.6, Leading zero omitted, Abs format (unit mm)*
G04 Created by KiCad (PCBNEW 5.1.10-88a1d61d58~88~ubuntu18.04.1) date 2021-10-01 18:12:45*
%MOMM*%
%LPD*%
G01*
G04 APERTURE LIST*
%ADD10C,0.010000*%
%ADD11R,1.300000X1.600000*%
%ADD12R,2.000000X1.600000*%
%ADD13R,1.060000X0.650000*%
%ADD14R,5.000000X1.200000*%
%ADD15R,5.000000X1.600000*%
%ADD16R,1.200000X5.000000*%
%ADD17R,1.600000X5.000000*%
%ADD18R,0.450000X0.600000*%
%ADD19R,0.600000X0.450000*%
G04 APERTURE END LIST*
D10*
G36*
X173752800Y-102442700D02*
G01*
X173752800Y-101440300D01*
X177455200Y-101440300D01*
X177455200Y-102442700D01*
X173752800Y-102442700D01*
G37*
X173752800Y-102442700D02*
X173752800Y-101440300D01*
X177455200Y-101440300D01*
X177455200Y-102442700D01*
X173752800Y-102442700D01*
G36*
X170302800Y-102442700D02*
G01*
X170302800Y-101440300D01*
X173105200Y-101440300D01*
X173105200Y-102442700D01*
X170302800Y-102442700D01*
G37*
X170302800Y-102442700D02*
X170302800Y-101440300D01*
X173105200Y-101440300D01*
X173105200Y-102442700D01*
X170302800Y-102442700D01*
G36*
X173752800Y-103942700D02*
G01*
X173752800Y-102940300D01*
X177455200Y-102940300D01*
X177455200Y-103942700D01*
X173752800Y-103942700D01*
G37*
X173752800Y-103942700D02*
X173752800Y-102940300D01*
X177455200Y-102940300D01*
X177455200Y-103942700D01*
X173752800Y-103942700D01*
G36*
X170302800Y-103942700D02*
G01*
X170302800Y-102940300D01*
X173105200Y-102940300D01*
X173105200Y-103942700D01*
X170302800Y-103942700D01*
G37*
X170302800Y-103942700D02*
X170302800Y-102940300D01*
X173105200Y-102940300D01*
X173105200Y-103942700D01*
X170302800Y-103942700D01*
G36*
X173752800Y-105442700D02*
G01*
X173752800Y-104440300D01*
X177455200Y-104440300D01*
X177455200Y-105442700D01*
X173752800Y-105442700D01*
G37*
X173752800Y-105442700D02*
X173752800Y-104440300D01*
X177455200Y-104440300D01*
X177455200Y-105442700D01*
X173752800Y-105442700D01*
G36*
X170302800Y-105442700D02*
G01*
X170302800Y-104440300D01*
X173105200Y-104440300D01*
X173105200Y-105442700D01*
X170302800Y-105442700D01*
G37*
X170302800Y-105442700D02*
X170302800Y-104440300D01*
X173105200Y-104440300D01*
X173105200Y-105442700D01*
X170302800Y-105442700D01*
G36*
X170302800Y-106942700D02*
G01*
X170302800Y-105940300D01*
X173105200Y-105940300D01*
X173105200Y-106942700D01*
X170302800Y-106942700D01*
G37*
X170302800Y-106942700D02*
X170302800Y-105940300D01*
X173105200Y-105940300D01*
X173105200Y-106942700D01*
X170302800Y-106942700D01*
G36*
X173752800Y-106942700D02*
G01*
X173752800Y-105940300D01*
X177455200Y-105940300D01*
X177455200Y-106942700D01*
X173752800Y-106942700D01*
G37*
X173752800Y-106942700D02*
X173752800Y-105940300D01*
X177455200Y-105940300D01*
X177455200Y-106942700D01*
X173752800Y-106942700D01*
G36*
X120508200Y-98522800D02*
G01*
X120508200Y-99525200D01*
X116805800Y-99525200D01*
X116805800Y-98522800D01*
X120508200Y-98522800D01*
G37*
X120508200Y-98522800D02*
X120508200Y-99525200D01*
X116805800Y-99525200D01*
X116805800Y-98522800D01*
X120508200Y-98522800D01*
G36*
X123958200Y-98522800D02*
G01*
X123958200Y-99525200D01*
X121155800Y-99525200D01*
X121155800Y-98522800D01*
X123958200Y-98522800D01*
G37*
X123958200Y-98522800D02*
X123958200Y-99525200D01*
X121155800Y-99525200D01*
X121155800Y-98522800D01*
X123958200Y-98522800D01*
G36*
X120508200Y-97022800D02*
G01*
X120508200Y-98025200D01*
X116805800Y-98025200D01*
X116805800Y-97022800D01*
X120508200Y-97022800D01*
G37*
X120508200Y-97022800D02*
X120508200Y-98025200D01*
X116805800Y-98025200D01*
X116805800Y-97022800D01*
X120508200Y-97022800D01*
G36*
X123958200Y-97022800D02*
G01*
X123958200Y-98025200D01*
X121155800Y-98025200D01*
X121155800Y-97022800D01*
X123958200Y-97022800D01*
G37*
X123958200Y-97022800D02*
X123958200Y-98025200D01*
X121155800Y-98025200D01*
X121155800Y-97022800D01*
X123958200Y-97022800D01*
G36*
X120508200Y-95522800D02*
G01*
X120508200Y-96525200D01*
X116805800Y-96525200D01*
X116805800Y-95522800D01*
X120508200Y-95522800D01*
G37*
X120508200Y-95522800D02*
X120508200Y-96525200D01*
X116805800Y-96525200D01*
X116805800Y-95522800D01*
X120508200Y-95522800D01*
G36*
X123958200Y-95522800D02*
G01*
X123958200Y-96525200D01*
X121155800Y-96525200D01*
X121155800Y-95522800D01*
X123958200Y-95522800D01*
G37*
X123958200Y-95522800D02*
X123958200Y-96525200D01*
X121155800Y-96525200D01*
X121155800Y-95522800D01*
X123958200Y-95522800D01*
G36*
X123958200Y-94022800D02*
G01*
X123958200Y-95025200D01*
X121155800Y-95025200D01*
X121155800Y-94022800D01*
X123958200Y-94022800D01*
G37*
X123958200Y-94022800D02*
X123958200Y-95025200D01*
X121155800Y-95025200D01*
X121155800Y-94022800D01*
X123958200Y-94022800D01*
G36*
X120508200Y-94022800D02*
G01*
X120508200Y-95025200D01*
X116805800Y-95025200D01*
X116805800Y-94022800D01*
X120508200Y-94022800D01*
G37*
X120508200Y-94022800D02*
X120508200Y-95025200D01*
X116805800Y-95025200D01*
X116805800Y-94022800D01*
X120508200Y-94022800D01*
G36*
X173750800Y-95025200D02*
G01*
X173750800Y-94022800D01*
X177453200Y-94022800D01*
X177453200Y-95025200D01*
X173750800Y-95025200D01*
G37*
X173750800Y-95025200D02*
X173750800Y-94022800D01*
X177453200Y-94022800D01*
X177453200Y-95025200D01*
X173750800Y-95025200D01*
G36*
X170300800Y-95025200D02*
G01*
X170300800Y-94022800D01*
X173103200Y-94022800D01*
X173103200Y-95025200D01*
X170300800Y-95025200D01*
G37*
X170300800Y-95025200D02*
X170300800Y-94022800D01*
X173103200Y-94022800D01*
X173103200Y-95025200D01*
X170300800Y-95025200D01*
G36*
X173750800Y-96525200D02*
G01*
X173750800Y-95522800D01*
X177453200Y-95522800D01*
X177453200Y-96525200D01*
X173750800Y-96525200D01*
G37*
X173750800Y-96525200D02*
X173750800Y-95522800D01*
X177453200Y-95522800D01*
X177453200Y-96525200D01*
X173750800Y-96525200D01*
G36*
X170300800Y-96525200D02*
G01*
X170300800Y-95522800D01*
X173103200Y-95522800D01*
X173103200Y-96525200D01*
X170300800Y-96525200D01*
G37*
X170300800Y-96525200D02*
X170300800Y-95522800D01*
X173103200Y-95522800D01*
X173103200Y-96525200D01*
X170300800Y-96525200D01*
G36*
X173750800Y-98025200D02*
G01*
X173750800Y-97022800D01*
X177453200Y-97022800D01*
X177453200Y-98025200D01*
X173750800Y-98025200D01*
G37*
X173750800Y-98025200D02*
X173750800Y-97022800D01*
X177453200Y-97022800D01*
X177453200Y-98025200D01*
X173750800Y-98025200D01*
G36*
X170300800Y-98025200D02*
G01*
X170300800Y-97022800D01*
X173103200Y-97022800D01*
X173103200Y-98025200D01*
X170300800Y-98025200D01*
G37*
X170300800Y-98025200D02*
X170300800Y-97022800D01*
X173103200Y-97022800D01*
X173103200Y-98025200D01*
X170300800Y-98025200D01*
G36*
X170300800Y-99525200D02*
G01*
X170300800Y-98522800D01*
X173103200Y-98522800D01*
X173103200Y-99525200D01*
X170300800Y-99525200D01*
G37*
X170300800Y-99525200D02*
X170300800Y-98522800D01*
X173103200Y-98522800D01*
X173103200Y-99525200D01*
X170300800Y-99525200D01*
G36*
X173750800Y-99525200D02*
G01*
X173750800Y-98522800D01*
X177453200Y-98522800D01*
X177453200Y-99525200D01*
X173750800Y-99525200D01*
G37*
X173750800Y-99525200D02*
X173750800Y-98522800D01*
X177453200Y-98522800D01*
X177453200Y-99525200D01*
X173750800Y-99525200D01*
G36*
G01*
X147085500Y-97832500D02*
X147085500Y-98382500D01*
G75*
G02*
X146885500Y-98582500I-200000J0D01*
G01*
X146485500Y-98582500D01*
G75*
G02*
X146285500Y-98382500I0J200000D01*
G01*
X146285500Y-97832500D01*
G75*
G02*
X146485500Y-97632500I200000J0D01*
G01*
X146885500Y-97632500D01*
G75*
G02*
X147085500Y-97832500I0J-200000D01*
G01*
G37*
G36*
G01*
X148735500Y-97832500D02*
X148735500Y-98382500D01*
G75*
G02*
X148535500Y-98582500I-200000J0D01*
G01*
X148135500Y-98582500D01*
G75*
G02*
X147935500Y-98382500I0J200000D01*
G01*
X147935500Y-97832500D01*
G75*
G02*
X148135500Y-97632500I200000J0D01*
G01*
X148535500Y-97632500D01*
G75*
G02*
X148735500Y-97832500I0J-200000D01*
G01*
G37*
G36*
G01*
X147223000Y-111329500D02*
X147223000Y-111129500D01*
G75*
G02*
X147323000Y-111029500I100000J0D01*
G01*
X148748000Y-111029500D01*
G75*
G02*
X148848000Y-111129500I0J-100000D01*
G01*
X148848000Y-111329500D01*
G75*
G02*
X148748000Y-111429500I-100000J0D01*
G01*
X147323000Y-111429500D01*
G75*
G02*
X147223000Y-111329500I0J100000D01*
G01*
G37*
G36*
G01*
X147223000Y-111979500D02*
X147223000Y-111779500D01*
G75*
G02*
X147323000Y-111679500I100000J0D01*
G01*
X148748000Y-111679500D01*
G75*
G02*
X148848000Y-111779500I0J-100000D01*
G01*
X148848000Y-111979500D01*
G75*
G02*
X148748000Y-112079500I-100000J0D01*
G01*
X147323000Y-112079500D01*
G75*
G02*
X147223000Y-111979500I0J100000D01*
G01*
G37*
G36*
G01*
X147223000Y-112629500D02*
X147223000Y-112429500D01*
G75*
G02*
X147323000Y-112329500I100000J0D01*
G01*
X148748000Y-112329500D01*
G75*
G02*
X148848000Y-112429500I0J-100000D01*
G01*
X148848000Y-112629500D01*
G75*
G02*
X148748000Y-112729500I-100000J0D01*
G01*
X147323000Y-112729500D01*
G75*
G02*
X147223000Y-112629500I0J100000D01*
G01*
G37*
G36*
G01*
X147223000Y-113279500D02*
X147223000Y-113079500D01*
G75*
G02*
X147323000Y-112979500I100000J0D01*
G01*
X148748000Y-112979500D01*
G75*
G02*
X148848000Y-113079500I0J-100000D01*
G01*
X148848000Y-113279500D01*
G75*
G02*
X148748000Y-113379500I-100000J0D01*
G01*
X147323000Y-113379500D01*
G75*
G02*
X147223000Y-113279500I0J100000D01*
G01*
G37*
G36*
G01*
X142998000Y-113279500D02*
X142998000Y-113079500D01*
G75*
G02*
X143098000Y-112979500I100000J0D01*
G01*
X144523000Y-112979500D01*
G75*
G02*
X144623000Y-113079500I0J-100000D01*
G01*
X144623000Y-113279500D01*
G75*
G02*
X144523000Y-113379500I-100000J0D01*
G01*
X143098000Y-113379500D01*
G75*
G02*
X142998000Y-113279500I0J100000D01*
G01*
G37*
G36*
G01*
X142998000Y-112629500D02*
X142998000Y-112429500D01*
G75*
G02*
X143098000Y-112329500I100000J0D01*
G01*
X144523000Y-112329500D01*
G75*
G02*
X144623000Y-112429500I0J-100000D01*
G01*
X144623000Y-112629500D01*
G75*
G02*
X144523000Y-112729500I-100000J0D01*
G01*
X143098000Y-112729500D01*
G75*
G02*
X142998000Y-112629500I0J100000D01*
G01*
G37*
G36*
G01*
X142998000Y-111979500D02*
X142998000Y-111779500D01*
G75*
G02*
X143098000Y-111679500I100000J0D01*
G01*
X144523000Y-111679500D01*
G75*
G02*
X144623000Y-111779500I0J-100000D01*
G01*
X144623000Y-111979500D01*
G75*
G02*
X144523000Y-112079500I-100000J0D01*
G01*
X143098000Y-112079500D01*
G75*
G02*
X142998000Y-111979500I0J100000D01*
G01*
G37*
G36*
G01*
X142998000Y-111329500D02*
X142998000Y-111129500D01*
G75*
G02*
X143098000Y-111029500I100000J0D01*
G01*
X144523000Y-111029500D01*
G75*
G02*
X144623000Y-111129500I0J-100000D01*
G01*
X144623000Y-111329500D01*
G75*
G02*
X144523000Y-111429500I-100000J0D01*
G01*
X143098000Y-111429500D01*
G75*
G02*
X142998000Y-111329500I0J100000D01*
G01*
G37*
G36*
G01*
X144048000Y-99772500D02*
X144048000Y-99572500D01*
G75*
G02*
X144148000Y-99472500I100000J0D01*
G01*
X145573000Y-99472500D01*
G75*
G02*
X145673000Y-99572500I0J-100000D01*
G01*
X145673000Y-99772500D01*
G75*
G02*
X145573000Y-99872500I-100000J0D01*
G01*
X144148000Y-99872500D01*
G75*
G02*
X144048000Y-99772500I0J100000D01*
G01*
G37*
G36*
G01*
X144048000Y-100422500D02*
X144048000Y-100222500D01*
G75*
G02*
X144148000Y-100122500I100000J0D01*
G01*
X145573000Y-100122500D01*
G75*
G02*
X145673000Y-100222500I0J-100000D01*
G01*
X145673000Y-100422500D01*
G75*
G02*
X145573000Y-100522500I-100000J0D01*
G01*
X144148000Y-100522500D01*
G75*
G02*
X144048000Y-100422500I0J100000D01*
G01*
G37*
G36*
G01*
X144048000Y-101072500D02*
X144048000Y-100872500D01*
G75*
G02*
X144148000Y-100772500I100000J0D01*
G01*
X145573000Y-100772500D01*
G75*
G02*
X145673000Y-100872500I0J-100000D01*
G01*
X145673000Y-101072500D01*
G75*
G02*
X145573000Y-101172500I-100000J0D01*
G01*
X144148000Y-101172500D01*
G75*
G02*
X144048000Y-101072500I0J100000D01*
G01*
G37*
G36*
G01*
X144048000Y-101722500D02*
X144048000Y-101522500D01*
G75*
G02*
X144148000Y-101422500I100000J0D01*
G01*
X145573000Y-101422500D01*
G75*
G02*
X145673000Y-101522500I0J-100000D01*
G01*
X145673000Y-101722500D01*
G75*
G02*
X145573000Y-101822500I-100000J0D01*
G01*
X144148000Y-101822500D01*
G75*
G02*
X144048000Y-101722500I0J100000D01*
G01*
G37*
G36*
G01*
X139823000Y-101722500D02*
X139823000Y-101522500D01*
G75*
G02*
X139923000Y-101422500I100000J0D01*
G01*
X141348000Y-101422500D01*
G75*
G02*
X141448000Y-101522500I0J-100000D01*
G01*
X141448000Y-101722500D01*
G75*
G02*
X141348000Y-101822500I-100000J0D01*
G01*
X139923000Y-101822500D01*
G75*
G02*
X139823000Y-101722500I0J100000D01*
G01*
G37*
G36*
G01*
X139823000Y-101072500D02*
X139823000Y-100872500D01*
G75*
G02*
X139923000Y-100772500I100000J0D01*
G01*
X141348000Y-100772500D01*
G75*
G02*
X141448000Y-100872500I0J-100000D01*
G01*
X141448000Y-101072500D01*
G75*
G02*
X141348000Y-101172500I-100000J0D01*
G01*
X139923000Y-101172500D01*
G75*
G02*
X139823000Y-101072500I0J100000D01*
G01*
G37*
G36*
G01*
X139823000Y-100422500D02*
X139823000Y-100222500D01*
G75*
G02*
X139923000Y-100122500I100000J0D01*
G01*
X141348000Y-100122500D01*
G75*
G02*
X141448000Y-100222500I0J-100000D01*
G01*
X141448000Y-100422500D01*
G75*
G02*
X141348000Y-100522500I-100000J0D01*
G01*
X139923000Y-100522500D01*
G75*
G02*
X139823000Y-100422500I0J100000D01*
G01*
G37*
G36*
G01*
X139823000Y-99772500D02*
X139823000Y-99572500D01*
G75*
G02*
X139923000Y-99472500I100000J0D01*
G01*
X141348000Y-99472500D01*
G75*
G02*
X141448000Y-99572500I0J-100000D01*
G01*
X141448000Y-99772500D01*
G75*
G02*
X141348000Y-99872500I-100000J0D01*
G01*
X139923000Y-99872500D01*
G75*
G02*
X139823000Y-99772500I0J100000D01*
G01*
G37*
G36*
G01*
X155097000Y-99074000D02*
X155097000Y-98874000D01*
G75*
G02*
X155197000Y-98774000I100000J0D01*
G01*
X156622000Y-98774000D01*
G75*
G02*
X156722000Y-98874000I0J-100000D01*
G01*
X156722000Y-99074000D01*
G75*
G02*
X156622000Y-99174000I-100000J0D01*
G01*
X155197000Y-99174000D01*
G75*
G02*
X155097000Y-99074000I0J100000D01*
G01*
G37*
G36*
G01*
X155097000Y-99724000D02*
X155097000Y-99524000D01*
G75*
G02*
X155197000Y-99424000I100000J0D01*
G01*
X156622000Y-99424000D01*
G75*
G02*
X156722000Y-99524000I0J-100000D01*
G01*
X156722000Y-99724000D01*
G75*
G02*
X156622000Y-99824000I-100000J0D01*
G01*
X155197000Y-99824000D01*
G75*
G02*
X155097000Y-99724000I0J100000D01*
G01*
G37*
G36*
G01*
X155097000Y-100374000D02*
X155097000Y-100174000D01*
G75*
G02*
X155197000Y-100074000I100000J0D01*
G01*
X156622000Y-100074000D01*
G75*
G02*
X156722000Y-100174000I0J-100000D01*
G01*
X156722000Y-100374000D01*
G75*
G02*
X156622000Y-100474000I-100000J0D01*
G01*
X155197000Y-100474000D01*
G75*
G02*
X155097000Y-100374000I0J100000D01*
G01*
G37*
G36*
G01*
X155097000Y-101024000D02*
X155097000Y-100824000D01*
G75*
G02*
X155197000Y-100724000I100000J0D01*
G01*
X156622000Y-100724000D01*
G75*
G02*
X156722000Y-100824000I0J-100000D01*
G01*
X156722000Y-101024000D01*
G75*
G02*
X156622000Y-101124000I-100000J0D01*
G01*
X155197000Y-101124000D01*
G75*
G02*
X155097000Y-101024000I0J100000D01*
G01*
G37*
G36*
G01*
X150872000Y-101024000D02*
X150872000Y-100824000D01*
G75*
G02*
X150972000Y-100724000I100000J0D01*
G01*
X152397000Y-100724000D01*
G75*
G02*
X152497000Y-100824000I0J-100000D01*
G01*
X152497000Y-101024000D01*
G75*
G02*
X152397000Y-101124000I-100000J0D01*
G01*
X150972000Y-101124000D01*
G75*
G02*
X150872000Y-101024000I0J100000D01*
G01*
G37*
G36*
G01*
X150872000Y-100374000D02*
X150872000Y-100174000D01*
G75*
G02*
X150972000Y-100074000I100000J0D01*
G01*
X152397000Y-100074000D01*
G75*
G02*
X152497000Y-100174000I0J-100000D01*
G01*
X152497000Y-100374000D01*
G75*
G02*
X152397000Y-100474000I-100000J0D01*
G01*
X150972000Y-100474000D01*
G75*
G02*
X150872000Y-100374000I0J100000D01*
G01*
G37*
G36*
G01*
X150872000Y-99724000D02*
X150872000Y-99524000D01*
G75*
G02*
X150972000Y-99424000I100000J0D01*
G01*
X152397000Y-99424000D01*
G75*
G02*
X152497000Y-99524000I0J-100000D01*
G01*
X152497000Y-99724000D01*
G75*
G02*
X152397000Y-99824000I-100000J0D01*
G01*
X150972000Y-99824000D01*
G75*
G02*
X150872000Y-99724000I0J100000D01*
G01*
G37*
G36*
G01*
X150872000Y-99074000D02*
X150872000Y-98874000D01*
G75*
G02*
X150972000Y-98774000I100000J0D01*
G01*
X152397000Y-98774000D01*
G75*
G02*
X152497000Y-98874000I0J-100000D01*
G01*
X152497000Y-99074000D01*
G75*
G02*
X152397000Y-99174000I-100000J0D01*
G01*
X150972000Y-99174000D01*
G75*
G02*
X150872000Y-99074000I0J100000D01*
G01*
G37*
G36*
G01*
X160299700Y-111159200D02*
X160299700Y-110959200D01*
G75*
G02*
X160399700Y-110859200I100000J0D01*
G01*
X161824700Y-110859200D01*
G75*
G02*
X161924700Y-110959200I0J-100000D01*
G01*
X161924700Y-111159200D01*
G75*
G02*
X161824700Y-111259200I-100000J0D01*
G01*
X160399700Y-111259200D01*
G75*
G02*
X160299700Y-111159200I0J100000D01*
G01*
G37*
G36*
G01*
X160299700Y-111809200D02*
X160299700Y-111609200D01*
G75*
G02*
X160399700Y-111509200I100000J0D01*
G01*
X161824700Y-111509200D01*
G75*
G02*
X161924700Y-111609200I0J-100000D01*
G01*
X161924700Y-111809200D01*
G75*
G02*
X161824700Y-111909200I-100000J0D01*
G01*
X160399700Y-111909200D01*
G75*
G02*
X160299700Y-111809200I0J100000D01*
G01*
G37*
G36*
G01*
X160299700Y-112459200D02*
X160299700Y-112259200D01*
G75*
G02*
X160399700Y-112159200I100000J0D01*
G01*
X161824700Y-112159200D01*
G75*
G02*
X161924700Y-112259200I0J-100000D01*
G01*
X161924700Y-112459200D01*
G75*
G02*
X161824700Y-112559200I-100000J0D01*
G01*
X160399700Y-112559200D01*
G75*
G02*
X160299700Y-112459200I0J100000D01*
G01*
G37*
G36*
G01*
X160299700Y-113109200D02*
X160299700Y-112909200D01*
G75*
G02*
X160399700Y-112809200I100000J0D01*
G01*
X161824700Y-112809200D01*
G75*
G02*
X161924700Y-112909200I0J-100000D01*
G01*
X161924700Y-113109200D01*
G75*
G02*
X161824700Y-113209200I-100000J0D01*
G01*
X160399700Y-113209200D01*
G75*
G02*
X160299700Y-113109200I0J100000D01*
G01*
G37*
G36*
G01*
X156074700Y-113109200D02*
X156074700Y-112909200D01*
G75*
G02*
X156174700Y-112809200I100000J0D01*
G01*
X157599700Y-112809200D01*
G75*
G02*
X157699700Y-112909200I0J-100000D01*
G01*
X157699700Y-113109200D01*
G75*
G02*
X157599700Y-113209200I-100000J0D01*
G01*
X156174700Y-113209200D01*
G75*
G02*
X156074700Y-113109200I0J100000D01*
G01*
G37*
G36*
G01*
X156074700Y-112459200D02*
X156074700Y-112259200D01*
G75*
G02*
X156174700Y-112159200I100000J0D01*
G01*
X157599700Y-112159200D01*
G75*
G02*
X157699700Y-112259200I0J-100000D01*
G01*
X157699700Y-112459200D01*
G75*
G02*
X157599700Y-112559200I-100000J0D01*
G01*
X156174700Y-112559200D01*
G75*
G02*
X156074700Y-112459200I0J100000D01*
G01*
G37*
G36*
G01*
X156074700Y-111809200D02*
X156074700Y-111609200D01*
G75*
G02*
X156174700Y-111509200I100000J0D01*
G01*
X157599700Y-111509200D01*
G75*
G02*
X157699700Y-111609200I0J-100000D01*
G01*
X157699700Y-111809200D01*
G75*
G02*
X157599700Y-111909200I-100000J0D01*
G01*
X156174700Y-111909200D01*
G75*
G02*
X156074700Y-111809200I0J100000D01*
G01*
G37*
G36*
G01*
X156074700Y-111159200D02*
X156074700Y-110959200D01*
G75*
G02*
X156174700Y-110859200I100000J0D01*
G01*
X157599700Y-110859200D01*
G75*
G02*
X157699700Y-110959200I0J-100000D01*
G01*
X157699700Y-111159200D01*
G75*
G02*
X157599700Y-111259200I-100000J0D01*
G01*
X156174700Y-111259200D01*
G75*
G02*
X156074700Y-111159200I0J100000D01*
G01*
G37*
G36*
G01*
X132999000Y-99709000D02*
X132999000Y-99509000D01*
G75*
G02*
X133099000Y-99409000I100000J0D01*
G01*
X134524000Y-99409000D01*
G75*
G02*
X134624000Y-99509000I0J-100000D01*
G01*
X134624000Y-99709000D01*
G75*
G02*
X134524000Y-99809000I-100000J0D01*
G01*
X133099000Y-99809000D01*
G75*
G02*
X132999000Y-99709000I0J100000D01*
G01*
G37*
G36*
G01*
X132999000Y-100359000D02*
X132999000Y-100159000D01*
G75*
G02*
X133099000Y-100059000I100000J0D01*
G01*
X134524000Y-100059000D01*
G75*
G02*
X134624000Y-100159000I0J-100000D01*
G01*
X134624000Y-100359000D01*
G75*
G02*
X134524000Y-100459000I-100000J0D01*
G01*
X133099000Y-100459000D01*
G75*
G02*
X132999000Y-100359000I0J100000D01*
G01*
G37*
G36*
G01*
X132999000Y-101009000D02*
X132999000Y-100809000D01*
G75*
G02*
X133099000Y-100709000I100000J0D01*
G01*
X134524000Y-100709000D01*
G75*
G02*
X134624000Y-100809000I0J-100000D01*
G01*
X134624000Y-101009000D01*
G75*
G02*
X134524000Y-101109000I-100000J0D01*
G01*
X133099000Y-101109000D01*
G75*
G02*
X132999000Y-101009000I0J100000D01*
G01*
G37*
G36*
G01*
X132999000Y-101659000D02*
X132999000Y-101459000D01*
G75*
G02*
X133099000Y-101359000I100000J0D01*
G01*
X134524000Y-101359000D01*
G75*
G02*
X134624000Y-101459000I0J-100000D01*
G01*
X134624000Y-101659000D01*
G75*
G02*
X134524000Y-101759000I-100000J0D01*
G01*
X133099000Y-101759000D01*
G75*
G02*
X132999000Y-101659000I0J100000D01*
G01*
G37*
G36*
G01*
X128774000Y-101659000D02*
X128774000Y-101459000D01*
G75*
G02*
X128874000Y-101359000I100000J0D01*
G01*
X130299000Y-101359000D01*
G75*
G02*
X130399000Y-101459000I0J-100000D01*
G01*
X130399000Y-101659000D01*
G75*
G02*
X130299000Y-101759000I-100000J0D01*
G01*
X128874000Y-101759000D01*
G75*
G02*
X128774000Y-101659000I0J100000D01*
G01*
G37*
G36*
G01*
X128774000Y-101009000D02*
X128774000Y-100809000D01*
G75*
G02*
X128874000Y-100709000I100000J0D01*
G01*
X130299000Y-100709000D01*
G75*
G02*
X130399000Y-100809000I0J-100000D01*
G01*
X130399000Y-101009000D01*
G75*
G02*
X130299000Y-101109000I-100000J0D01*
G01*
X128874000Y-101109000D01*
G75*
G02*
X128774000Y-101009000I0J100000D01*
G01*
G37*
G36*
G01*
X128774000Y-100359000D02*
X128774000Y-100159000D01*
G75*
G02*
X128874000Y-100059000I100000J0D01*
G01*
X130299000Y-100059000D01*
G75*
G02*
X130399000Y-100159000I0J-100000D01*
G01*
X130399000Y-100359000D01*
G75*
G02*
X130299000Y-100459000I-100000J0D01*
G01*
X128874000Y-100459000D01*
G75*
G02*
X128774000Y-100359000I0J100000D01*
G01*
G37*
G36*
G01*
X128774000Y-99709000D02*
X128774000Y-99509000D01*
G75*
G02*
X128874000Y-99409000I100000J0D01*
G01*
X130299000Y-99409000D01*
G75*
G02*
X130399000Y-99509000I0J-100000D01*
G01*
X130399000Y-99709000D01*
G75*
G02*
X130299000Y-99809000I-100000J0D01*
G01*
X128874000Y-99809000D01*
G75*
G02*
X128774000Y-99709000I0J100000D01*
G01*
G37*
G36*
G01*
X134459500Y-110504000D02*
X134459500Y-110304000D01*
G75*
G02*
X134559500Y-110204000I100000J0D01*
G01*
X135984500Y-110204000D01*
G75*
G02*
X136084500Y-110304000I0J-100000D01*
G01*
X136084500Y-110504000D01*
G75*
G02*
X135984500Y-110604000I-100000J0D01*
G01*
X134559500Y-110604000D01*
G75*
G02*
X134459500Y-110504000I0J100000D01*
G01*
G37*
G36*
G01*
X134459500Y-111154000D02*
X134459500Y-110954000D01*
G75*
G02*
X134559500Y-110854000I100000J0D01*
G01*
X135984500Y-110854000D01*
G75*
G02*
X136084500Y-110954000I0J-100000D01*
G01*
X136084500Y-111154000D01*
G75*
G02*
X135984500Y-111254000I-100000J0D01*
G01*
X134559500Y-111254000D01*
G75*
G02*
X134459500Y-111154000I0J100000D01*
G01*
G37*
G36*
G01*
X134459500Y-111804000D02*
X134459500Y-111604000D01*
G75*
G02*
X134559500Y-111504000I100000J0D01*
G01*
X135984500Y-111504000D01*
G75*
G02*
X136084500Y-111604000I0J-100000D01*
G01*
X136084500Y-111804000D01*
G75*
G02*
X135984500Y-111904000I-100000J0D01*
G01*
X134559500Y-111904000D01*
G75*
G02*
X134459500Y-111804000I0J100000D01*
G01*
G37*
G36*
G01*
X134459500Y-112454000D02*
X134459500Y-112254000D01*
G75*
G02*
X134559500Y-112154000I100000J0D01*
G01*
X135984500Y-112154000D01*
G75*
G02*
X136084500Y-112254000I0J-100000D01*
G01*
X136084500Y-112454000D01*
G75*
G02*
X135984500Y-112554000I-100000J0D01*
G01*
X134559500Y-112554000D01*
G75*
G02*
X134459500Y-112454000I0J100000D01*
G01*
G37*
G36*
G01*
X130234500Y-112454000D02*
X130234500Y-112254000D01*
G75*
G02*
X130334500Y-112154000I100000J0D01*
G01*
X131759500Y-112154000D01*
G75*
G02*
X131859500Y-112254000I0J-100000D01*
G01*
X131859500Y-112454000D01*
G75*
G02*
X131759500Y-112554000I-100000J0D01*
G01*
X130334500Y-112554000D01*
G75*
G02*
X130234500Y-112454000I0J100000D01*
G01*
G37*
G36*
G01*
X130234500Y-111804000D02*
X130234500Y-111604000D01*
G75*
G02*
X130334500Y-111504000I100000J0D01*
G01*
X131759500Y-111504000D01*
G75*
G02*
X131859500Y-111604000I0J-100000D01*
G01*
X131859500Y-111804000D01*
G75*
G02*
X131759500Y-111904000I-100000J0D01*
G01*
X130334500Y-111904000D01*
G75*
G02*
X130234500Y-111804000I0J100000D01*
G01*
G37*
G36*
G01*
X130234500Y-111154000D02*
X130234500Y-110954000D01*
G75*
G02*
X130334500Y-110854000I100000J0D01*
G01*
X131759500Y-110854000D01*
G75*
G02*
X131859500Y-110954000I0J-100000D01*
G01*
X131859500Y-111154000D01*
G75*
G02*
X131759500Y-111254000I-100000J0D01*
G01*
X130334500Y-111254000D01*
G75*
G02*
X130234500Y-111154000I0J100000D01*
G01*
G37*
G36*
G01*
X130234500Y-110504000D02*
X130234500Y-110304000D01*
G75*
G02*
X130334500Y-110204000I100000J0D01*
G01*
X131759500Y-110204000D01*
G75*
G02*
X131859500Y-110304000I0J-100000D01*
G01*
X131859500Y-110504000D01*
G75*
G02*
X131759500Y-110604000I-100000J0D01*
G01*
X130334500Y-110604000D01*
G75*
G02*
X130234500Y-110504000I0J100000D01*
G01*
G37*
G36*
G01*
X126611500Y-96778000D02*
X126611500Y-97278000D01*
G75*
G02*
X126386500Y-97503000I-225000J0D01*
G01*
X125936500Y-97503000D01*
G75*
G02*
X125711500Y-97278000I0J225000D01*
G01*
X125711500Y-96778000D01*
G75*
G02*
X125936500Y-96553000I225000J0D01*
G01*
X126386500Y-96553000D01*
G75*
G02*
X126611500Y-96778000I0J-225000D01*
G01*
G37*
G36*
G01*
X128161500Y-96778000D02*
X128161500Y-97278000D01*
G75*
G02*
X127936500Y-97503000I-225000J0D01*
G01*
X127486500Y-97503000D01*
G75*
G02*
X127261500Y-97278000I0J225000D01*
G01*
X127261500Y-96778000D01*
G75*
G02*
X127486500Y-96553000I225000J0D01*
G01*
X127936500Y-96553000D01*
G75*
G02*
X128161500Y-96778000I0J-225000D01*
G01*
G37*
G36*
G01*
X147085500Y-100880500D02*
X147085500Y-101430500D01*
G75*
G02*
X146885500Y-101630500I-200000J0D01*
G01*
X146485500Y-101630500D01*
G75*
G02*
X146285500Y-101430500I0J200000D01*
G01*
X146285500Y-100880500D01*
G75*
G02*
X146485500Y-100680500I200000J0D01*
G01*
X146885500Y-100680500D01*
G75*
G02*
X147085500Y-100880500I0J-200000D01*
G01*
G37*
G36*
G01*
X148735500Y-100880500D02*
X148735500Y-101430500D01*
G75*
G02*
X148535500Y-101630500I-200000J0D01*
G01*
X148135500Y-101630500D01*
G75*
G02*
X147935500Y-101430500I0J200000D01*
G01*
X147935500Y-100880500D01*
G75*
G02*
X148135500Y-100680500I200000J0D01*
G01*
X148535500Y-100680500D01*
G75*
G02*
X148735500Y-100880500I0J-200000D01*
G01*
G37*
G36*
G01*
X147935500Y-99906500D02*
X147935500Y-99356500D01*
G75*
G02*
X148135500Y-99156500I200000J0D01*
G01*
X148535500Y-99156500D01*
G75*
G02*
X148735500Y-99356500I0J-200000D01*
G01*
X148735500Y-99906500D01*
G75*
G02*
X148535500Y-100106500I-200000J0D01*
G01*
X148135500Y-100106500D01*
G75*
G02*
X147935500Y-99906500I0J200000D01*
G01*
G37*
G36*
G01*
X146285500Y-99906500D02*
X146285500Y-99356500D01*
G75*
G02*
X146485500Y-99156500I200000J0D01*
G01*
X146885500Y-99156500D01*
G75*
G02*
X147085500Y-99356500I0J-200000D01*
G01*
X147085500Y-99906500D01*
G75*
G02*
X146885500Y-100106500I-200000J0D01*
G01*
X146485500Y-100106500D01*
G75*
G02*
X146285500Y-99906500I0J200000D01*
G01*
G37*
G36*
G01*
X156231000Y-94698000D02*
X155681000Y-94698000D01*
G75*
G02*
X155481000Y-94498000I0J200000D01*
G01*
X155481000Y-94098000D01*
G75*
G02*
X155681000Y-93898000I200000J0D01*
G01*
X156231000Y-93898000D01*
G75*
G02*
X156431000Y-94098000I0J-200000D01*
G01*
X156431000Y-94498000D01*
G75*
G02*
X156231000Y-94698000I-200000J0D01*
G01*
G37*
G36*
G01*
X156231000Y-96348000D02*
X155681000Y-96348000D01*
G75*
G02*
X155481000Y-96148000I0J200000D01*
G01*
X155481000Y-95748000D01*
G75*
G02*
X155681000Y-95548000I200000J0D01*
G01*
X156231000Y-95548000D01*
G75*
G02*
X156431000Y-95748000I0J-200000D01*
G01*
X156431000Y-96148000D01*
G75*
G02*
X156231000Y-96348000I-200000J0D01*
G01*
G37*
G36*
G01*
X158136000Y-96730000D02*
X157586000Y-96730000D01*
G75*
G02*
X157386000Y-96530000I0J200000D01*
G01*
X157386000Y-96130000D01*
G75*
G02*
X157586000Y-95930000I200000J0D01*
G01*
X158136000Y-95930000D01*
G75*
G02*
X158336000Y-96130000I0J-200000D01*
G01*
X158336000Y-96530000D01*
G75*
G02*
X158136000Y-96730000I-200000J0D01*
G01*
G37*
G36*
G01*
X158136000Y-98380000D02*
X157586000Y-98380000D01*
G75*
G02*
X157386000Y-98180000I0J200000D01*
G01*
X157386000Y-97780000D01*
G75*
G02*
X157586000Y-97580000I200000J0D01*
G01*
X158136000Y-97580000D01*
G75*
G02*
X158336000Y-97780000I0J-200000D01*
G01*
X158336000Y-98180000D01*
G75*
G02*
X158136000Y-98380000I-200000J0D01*
G01*
G37*
D11*
X154539000Y-105717000D03*
D12*
X153289000Y-102817000D03*
D11*
X152039000Y-105717000D03*
X146578000Y-93355500D03*
D12*
X147828000Y-96255500D03*
D11*
X149078000Y-93355500D03*
G36*
G01*
X147559000Y-104159499D02*
X147559000Y-105009501D01*
G75*
G02*
X147309001Y-105259500I-249999J0D01*
G01*
X146408999Y-105259500D01*
G75*
G02*
X146159000Y-105009501I0J249999D01*
G01*
X146159000Y-104159499D01*
G75*
G02*
X146408999Y-103909500I249999J0D01*
G01*
X147309001Y-103909500D01*
G75*
G02*
X147559000Y-104159499I0J-249999D01*
G01*
G37*
G36*
G01*
X150259000Y-104159499D02*
X150259000Y-105009501D01*
G75*
G02*
X150009001Y-105259500I-249999J0D01*
G01*
X149108999Y-105259500D01*
G75*
G02*
X148859000Y-105009501I0J249999D01*
G01*
X148859000Y-104159499D01*
G75*
G02*
X149108999Y-103909500I249999J0D01*
G01*
X150009001Y-103909500D01*
G75*
G02*
X150259000Y-104159499I0J-249999D01*
G01*
G37*
G36*
G01*
X147185500Y-102429500D02*
X147185500Y-102929500D01*
G75*
G02*
X146960500Y-103154500I-225000J0D01*
G01*
X146510500Y-103154500D01*
G75*
G02*
X146285500Y-102929500I0J225000D01*
G01*
X146285500Y-102429500D01*
G75*
G02*
X146510500Y-102204500I225000J0D01*
G01*
X146960500Y-102204500D01*
G75*
G02*
X147185500Y-102429500I0J-225000D01*
G01*
G37*
G36*
G01*
X148735500Y-102429500D02*
X148735500Y-102929500D01*
G75*
G02*
X148510500Y-103154500I-225000J0D01*
G01*
X148060500Y-103154500D01*
G75*
G02*
X147835500Y-102929500I0J225000D01*
G01*
X147835500Y-102429500D01*
G75*
G02*
X148060500Y-102204500I225000J0D01*
G01*
X148510500Y-102204500D01*
G75*
G02*
X148735500Y-102429500I0J-225000D01*
G01*
G37*
D13*
X166073000Y-115062000D03*
X166073000Y-114112000D03*
X166073000Y-116012000D03*
X163873000Y-116012000D03*
X163873000Y-115062000D03*
X163873000Y-114112000D03*
G36*
G01*
X128884000Y-110534000D02*
X129434000Y-110534000D01*
G75*
G02*
X129634000Y-110734000I0J-200000D01*
G01*
X129634000Y-111134000D01*
G75*
G02*
X129434000Y-111334000I-200000J0D01*
G01*
X128884000Y-111334000D01*
G75*
G02*
X128684000Y-111134000I0J200000D01*
G01*
X128684000Y-110734000D01*
G75*
G02*
X128884000Y-110534000I200000J0D01*
G01*
G37*
G36*
G01*
X128884000Y-108884000D02*
X129434000Y-108884000D01*
G75*
G02*
X129634000Y-109084000I0J-200000D01*
G01*
X129634000Y-109484000D01*
G75*
G02*
X129434000Y-109684000I-200000J0D01*
G01*
X128884000Y-109684000D01*
G75*
G02*
X128684000Y-109484000I0J200000D01*
G01*
X128684000Y-109084000D01*
G75*
G02*
X128884000Y-108884000I200000J0D01*
G01*
G37*
G36*
G01*
X135419600Y-100845500D02*
X135919600Y-100845500D01*
G75*
G02*
X136144600Y-101070500I0J-225000D01*
G01*
X136144600Y-101520500D01*
G75*
G02*
X135919600Y-101745500I-225000J0D01*
G01*
X135419600Y-101745500D01*
G75*
G02*
X135194600Y-101520500I0J225000D01*
G01*
X135194600Y-101070500D01*
G75*
G02*
X135419600Y-100845500I225000J0D01*
G01*
G37*
G36*
G01*
X135419600Y-99295500D02*
X135919600Y-99295500D01*
G75*
G02*
X136144600Y-99520500I0J-225000D01*
G01*
X136144600Y-99970500D01*
G75*
G02*
X135919600Y-100195500I-225000J0D01*
G01*
X135419600Y-100195500D01*
G75*
G02*
X135194600Y-99970500I0J225000D01*
G01*
X135194600Y-99520500D01*
G75*
G02*
X135419600Y-99295500I225000J0D01*
G01*
G37*
G36*
G01*
X141839500Y-93810500D02*
X141839500Y-93260500D01*
G75*
G02*
X142039500Y-93060500I200000J0D01*
G01*
X142439500Y-93060500D01*
G75*
G02*
X142639500Y-93260500I0J-200000D01*
G01*
X142639500Y-93810500D01*
G75*
G02*
X142439500Y-94010500I-200000J0D01*
G01*
X142039500Y-94010500D01*
G75*
G02*
X141839500Y-93810500I0J200000D01*
G01*
G37*
G36*
G01*
X140189500Y-93810500D02*
X140189500Y-93260500D01*
G75*
G02*
X140389500Y-93060500I200000J0D01*
G01*
X140789500Y-93060500D01*
G75*
G02*
X140989500Y-93260500I0J-200000D01*
G01*
X140989500Y-93810500D01*
G75*
G02*
X140789500Y-94010500I-200000J0D01*
G01*
X140389500Y-94010500D01*
G75*
G02*
X140189500Y-93810500I0J200000D01*
G01*
G37*
G36*
G01*
X141647500Y-111105500D02*
X142197500Y-111105500D01*
G75*
G02*
X142397500Y-111305500I0J-200000D01*
G01*
X142397500Y-111705500D01*
G75*
G02*
X142197500Y-111905500I-200000J0D01*
G01*
X141647500Y-111905500D01*
G75*
G02*
X141447500Y-111705500I0J200000D01*
G01*
X141447500Y-111305500D01*
G75*
G02*
X141647500Y-111105500I200000J0D01*
G01*
G37*
G36*
G01*
X141647500Y-109455500D02*
X142197500Y-109455500D01*
G75*
G02*
X142397500Y-109655500I0J-200000D01*
G01*
X142397500Y-110055500D01*
G75*
G02*
X142197500Y-110255500I-200000J0D01*
G01*
X141647500Y-110255500D01*
G75*
G02*
X141447500Y-110055500I0J200000D01*
G01*
X141447500Y-109655500D01*
G75*
G02*
X141647500Y-109455500I200000J0D01*
G01*
G37*
G36*
G01*
X154705500Y-97134000D02*
X154705500Y-97684000D01*
G75*
G02*
X154505500Y-97884000I-200000J0D01*
G01*
X154105500Y-97884000D01*
G75*
G02*
X153905500Y-97684000I0J200000D01*
G01*
X153905500Y-97134000D01*
G75*
G02*
X154105500Y-96934000I200000J0D01*
G01*
X154505500Y-96934000D01*
G75*
G02*
X154705500Y-97134000I0J-200000D01*
G01*
G37*
G36*
G01*
X156355500Y-97134000D02*
X156355500Y-97684000D01*
G75*
G02*
X156155500Y-97884000I-200000J0D01*
G01*
X155755500Y-97884000D01*
G75*
G02*
X155555500Y-97684000I0J200000D01*
G01*
X155555500Y-97134000D01*
G75*
G02*
X155755500Y-96934000I200000J0D01*
G01*
X156155500Y-96934000D01*
G75*
G02*
X156355500Y-97134000I0J-200000D01*
G01*
G37*
G36*
G01*
X143974000Y-97832500D02*
X143974000Y-98382500D01*
G75*
G02*
X143774000Y-98582500I-200000J0D01*
G01*
X143374000Y-98582500D01*
G75*
G02*
X143174000Y-98382500I0J200000D01*
G01*
X143174000Y-97832500D01*
G75*
G02*
X143374000Y-97632500I200000J0D01*
G01*
X143774000Y-97632500D01*
G75*
G02*
X143974000Y-97832500I0J-200000D01*
G01*
G37*
G36*
G01*
X145624000Y-97832500D02*
X145624000Y-98382500D01*
G75*
G02*
X145424000Y-98582500I-200000J0D01*
G01*
X145024000Y-98582500D01*
G75*
G02*
X144824000Y-98382500I0J200000D01*
G01*
X144824000Y-97832500D01*
G75*
G02*
X145024000Y-97632500I200000J0D01*
G01*
X145424000Y-97632500D01*
G75*
G02*
X145624000Y-97832500I0J-200000D01*
G01*
G37*
G36*
G01*
X140673500Y-110259600D02*
X140123500Y-110259600D01*
G75*
G02*
X139923500Y-110059600I0J200000D01*
G01*
X139923500Y-109659600D01*
G75*
G02*
X140123500Y-109459600I200000J0D01*
G01*
X140673500Y-109459600D01*
G75*
G02*
X140873500Y-109659600I0J-200000D01*
G01*
X140873500Y-110059600D01*
G75*
G02*
X140673500Y-110259600I-200000J0D01*
G01*
G37*
G36*
G01*
X140673500Y-111909600D02*
X140123500Y-111909600D01*
G75*
G02*
X139923500Y-111709600I0J200000D01*
G01*
X139923500Y-111309600D01*
G75*
G02*
X140123500Y-111109600I200000J0D01*
G01*
X140673500Y-111109600D01*
G75*
G02*
X140873500Y-111309600I0J-200000D01*
G01*
X140873500Y-111709600D01*
G75*
G02*
X140673500Y-111909600I-200000J0D01*
G01*
G37*
G36*
G01*
X139022500Y-100095500D02*
X138472500Y-100095500D01*
G75*
G02*
X138272500Y-99895500I0J200000D01*
G01*
X138272500Y-99495500D01*
G75*
G02*
X138472500Y-99295500I200000J0D01*
G01*
X139022500Y-99295500D01*
G75*
G02*
X139222500Y-99495500I0J-200000D01*
G01*
X139222500Y-99895500D01*
G75*
G02*
X139022500Y-100095500I-200000J0D01*
G01*
G37*
G36*
G01*
X139022500Y-101745500D02*
X138472500Y-101745500D01*
G75*
G02*
X138272500Y-101545500I0J200000D01*
G01*
X138272500Y-101145500D01*
G75*
G02*
X138472500Y-100945500I200000J0D01*
G01*
X139022500Y-100945500D01*
G75*
G02*
X139222500Y-101145500I0J-200000D01*
G01*
X139222500Y-101545500D01*
G75*
G02*
X139022500Y-101745500I-200000J0D01*
G01*
G37*
G36*
G01*
X150071500Y-98508000D02*
X149521500Y-98508000D01*
G75*
G02*
X149321500Y-98308000I0J200000D01*
G01*
X149321500Y-97908000D01*
G75*
G02*
X149521500Y-97708000I200000J0D01*
G01*
X150071500Y-97708000D01*
G75*
G02*
X150271500Y-97908000I0J-200000D01*
G01*
X150271500Y-98308000D01*
G75*
G02*
X150071500Y-98508000I-200000J0D01*
G01*
G37*
G36*
G01*
X150071500Y-100158000D02*
X149521500Y-100158000D01*
G75*
G02*
X149321500Y-99958000I0J200000D01*
G01*
X149321500Y-99558000D01*
G75*
G02*
X149521500Y-99358000I200000J0D01*
G01*
X150071500Y-99358000D01*
G75*
G02*
X150271500Y-99558000I0J-200000D01*
G01*
X150271500Y-99958000D01*
G75*
G02*
X150071500Y-100158000I-200000J0D01*
G01*
G37*
G36*
G01*
X149521500Y-102406000D02*
X150071500Y-102406000D01*
G75*
G02*
X150271500Y-102606000I0J-200000D01*
G01*
X150271500Y-103006000D01*
G75*
G02*
X150071500Y-103206000I-200000J0D01*
G01*
X149521500Y-103206000D01*
G75*
G02*
X149321500Y-103006000I0J200000D01*
G01*
X149321500Y-102606000D01*
G75*
G02*
X149521500Y-102406000I200000J0D01*
G01*
G37*
G36*
G01*
X149521500Y-100756000D02*
X150071500Y-100756000D01*
G75*
G02*
X150271500Y-100956000I0J-200000D01*
G01*
X150271500Y-101356000D01*
G75*
G02*
X150071500Y-101556000I-200000J0D01*
G01*
X149521500Y-101556000D01*
G75*
G02*
X149321500Y-101356000I0J200000D01*
G01*
X149321500Y-100956000D01*
G75*
G02*
X149521500Y-100756000I200000J0D01*
G01*
G37*
G36*
G01*
X142451500Y-96920500D02*
X141901500Y-96920500D01*
G75*
G02*
X141701500Y-96720500I0J200000D01*
G01*
X141701500Y-96320500D01*
G75*
G02*
X141901500Y-96120500I200000J0D01*
G01*
X142451500Y-96120500D01*
G75*
G02*
X142651500Y-96320500I0J-200000D01*
G01*
X142651500Y-96720500D01*
G75*
G02*
X142451500Y-96920500I-200000J0D01*
G01*
G37*
G36*
G01*
X142451500Y-98570500D02*
X141901500Y-98570500D01*
G75*
G02*
X141701500Y-98370500I0J200000D01*
G01*
X141701500Y-97970500D01*
G75*
G02*
X141901500Y-97770500I200000J0D01*
G01*
X142451500Y-97770500D01*
G75*
G02*
X142651500Y-97970500I0J-200000D01*
G01*
X142651500Y-98370500D01*
G75*
G02*
X142451500Y-98570500I-200000J0D01*
G01*
G37*
G36*
G01*
X140123500Y-114153500D02*
X140673500Y-114153500D01*
G75*
G02*
X140873500Y-114353500I0J-200000D01*
G01*
X140873500Y-114753500D01*
G75*
G02*
X140673500Y-114953500I-200000J0D01*
G01*
X140123500Y-114953500D01*
G75*
G02*
X139923500Y-114753500I0J200000D01*
G01*
X139923500Y-114353500D01*
G75*
G02*
X140123500Y-114153500I200000J0D01*
G01*
G37*
G36*
G01*
X140123500Y-112503500D02*
X140673500Y-112503500D01*
G75*
G02*
X140873500Y-112703500I0J-200000D01*
G01*
X140873500Y-113103500D01*
G75*
G02*
X140673500Y-113303500I-200000J0D01*
G01*
X140123500Y-113303500D01*
G75*
G02*
X139923500Y-113103500I0J200000D01*
G01*
X139923500Y-112703500D01*
G75*
G02*
X140123500Y-112503500I200000J0D01*
G01*
G37*
G36*
G01*
X157055000Y-103738000D02*
X157055000Y-104288000D01*
G75*
G02*
X156855000Y-104488000I-200000J0D01*
G01*
X156455000Y-104488000D01*
G75*
G02*
X156255000Y-104288000I0J200000D01*
G01*
X156255000Y-103738000D01*
G75*
G02*
X156455000Y-103538000I200000J0D01*
G01*
X156855000Y-103538000D01*
G75*
G02*
X157055000Y-103738000I0J-200000D01*
G01*
G37*
G36*
G01*
X158705000Y-103738000D02*
X158705000Y-104288000D01*
G75*
G02*
X158505000Y-104488000I-200000J0D01*
G01*
X158105000Y-104488000D01*
G75*
G02*
X157905000Y-104288000I0J200000D01*
G01*
X157905000Y-103738000D01*
G75*
G02*
X158105000Y-103538000I200000J0D01*
G01*
X158505000Y-103538000D01*
G75*
G02*
X158705000Y-103738000I0J-200000D01*
G01*
G37*
G36*
G01*
X157905000Y-102764000D02*
X157905000Y-102214000D01*
G75*
G02*
X158105000Y-102014000I200000J0D01*
G01*
X158505000Y-102014000D01*
G75*
G02*
X158705000Y-102214000I0J-200000D01*
G01*
X158705000Y-102764000D01*
G75*
G02*
X158505000Y-102964000I-200000J0D01*
G01*
X158105000Y-102964000D01*
G75*
G02*
X157905000Y-102764000I0J200000D01*
G01*
G37*
G36*
G01*
X156255000Y-102764000D02*
X156255000Y-102214000D01*
G75*
G02*
X156455000Y-102014000I200000J0D01*
G01*
X156855000Y-102014000D01*
G75*
G02*
X157055000Y-102214000I0J-200000D01*
G01*
X157055000Y-102764000D01*
G75*
G02*
X156855000Y-102964000I-200000J0D01*
G01*
X156455000Y-102964000D01*
G75*
G02*
X156255000Y-102764000I0J200000D01*
G01*
G37*
G36*
G01*
X137497000Y-109072000D02*
X137497000Y-109622000D01*
G75*
G02*
X137297000Y-109822000I-200000J0D01*
G01*
X136897000Y-109822000D01*
G75*
G02*
X136697000Y-109622000I0J200000D01*
G01*
X136697000Y-109072000D01*
G75*
G02*
X136897000Y-108872000I200000J0D01*
G01*
X137297000Y-108872000D01*
G75*
G02*
X137497000Y-109072000I0J-200000D01*
G01*
G37*
G36*
G01*
X139147000Y-109072000D02*
X139147000Y-109622000D01*
G75*
G02*
X138947000Y-109822000I-200000J0D01*
G01*
X138547000Y-109822000D01*
G75*
G02*
X138347000Y-109622000I0J200000D01*
G01*
X138347000Y-109072000D01*
G75*
G02*
X138547000Y-108872000I200000J0D01*
G01*
X138947000Y-108872000D01*
G75*
G02*
X139147000Y-109072000I0J-200000D01*
G01*
G37*
G36*
G01*
X136885000Y-112058000D02*
X137435000Y-112058000D01*
G75*
G02*
X137635000Y-112258000I0J-200000D01*
G01*
X137635000Y-112658000D01*
G75*
G02*
X137435000Y-112858000I-200000J0D01*
G01*
X136885000Y-112858000D01*
G75*
G02*
X136685000Y-112658000I0J200000D01*
G01*
X136685000Y-112258000D01*
G75*
G02*
X136885000Y-112058000I200000J0D01*
G01*
G37*
G36*
G01*
X136885000Y-110408000D02*
X137435000Y-110408000D01*
G75*
G02*
X137635000Y-110608000I0J-200000D01*
G01*
X137635000Y-111008000D01*
G75*
G02*
X137435000Y-111208000I-200000J0D01*
G01*
X136885000Y-111208000D01*
G75*
G02*
X136685000Y-111008000I0J200000D01*
G01*
X136685000Y-110608000D01*
G75*
G02*
X136885000Y-110408000I200000J0D01*
G01*
G37*
G36*
G01*
X136948500Y-100945500D02*
X137498500Y-100945500D01*
G75*
G02*
X137698500Y-101145500I0J-200000D01*
G01*
X137698500Y-101545500D01*
G75*
G02*
X137498500Y-101745500I-200000J0D01*
G01*
X136948500Y-101745500D01*
G75*
G02*
X136748500Y-101545500I0J200000D01*
G01*
X136748500Y-101145500D01*
G75*
G02*
X136948500Y-100945500I200000J0D01*
G01*
G37*
G36*
G01*
X136948500Y-99295500D02*
X137498500Y-99295500D01*
G75*
G02*
X137698500Y-99495500I0J-200000D01*
G01*
X137698500Y-99895500D01*
G75*
G02*
X137498500Y-100095500I-200000J0D01*
G01*
X136948500Y-100095500D01*
G75*
G02*
X136748500Y-99895500I0J200000D01*
G01*
X136748500Y-99495500D01*
G75*
G02*
X136948500Y-99295500I200000J0D01*
G01*
G37*
G36*
G01*
X138959000Y-111208000D02*
X138409000Y-111208000D01*
G75*
G02*
X138209000Y-111008000I0J200000D01*
G01*
X138209000Y-110608000D01*
G75*
G02*
X138409000Y-110408000I200000J0D01*
G01*
X138959000Y-110408000D01*
G75*
G02*
X139159000Y-110608000I0J-200000D01*
G01*
X139159000Y-111008000D01*
G75*
G02*
X138959000Y-111208000I-200000J0D01*
G01*
G37*
G36*
G01*
X138959000Y-112858000D02*
X138409000Y-112858000D01*
G75*
G02*
X138209000Y-112658000I0J200000D01*
G01*
X138209000Y-112258000D01*
G75*
G02*
X138409000Y-112058000I200000J0D01*
G01*
X138959000Y-112058000D01*
G75*
G02*
X139159000Y-112258000I0J-200000D01*
G01*
X139159000Y-112658000D01*
G75*
G02*
X138959000Y-112858000I-200000J0D01*
G01*
G37*
G36*
G01*
X132607500Y-102849000D02*
X132607500Y-103399000D01*
G75*
G02*
X132407500Y-103599000I-200000J0D01*
G01*
X132007500Y-103599000D01*
G75*
G02*
X131807500Y-103399000I0J200000D01*
G01*
X131807500Y-102849000D01*
G75*
G02*
X132007500Y-102649000I200000J0D01*
G01*
X132407500Y-102649000D01*
G75*
G02*
X132607500Y-102849000I0J-200000D01*
G01*
G37*
G36*
G01*
X134257500Y-102849000D02*
X134257500Y-103399000D01*
G75*
G02*
X134057500Y-103599000I-200000J0D01*
G01*
X133657500Y-103599000D01*
G75*
G02*
X133457500Y-103399000I0J200000D01*
G01*
X133457500Y-102849000D01*
G75*
G02*
X133657500Y-102649000I200000J0D01*
G01*
X134057500Y-102649000D01*
G75*
G02*
X134257500Y-102849000I0J-200000D01*
G01*
G37*
G36*
G01*
X134068000Y-113644000D02*
X134068000Y-114194000D01*
G75*
G02*
X133868000Y-114394000I-200000J0D01*
G01*
X133468000Y-114394000D01*
G75*
G02*
X133268000Y-114194000I0J200000D01*
G01*
X133268000Y-113644000D01*
G75*
G02*
X133468000Y-113444000I200000J0D01*
G01*
X133868000Y-113444000D01*
G75*
G02*
X134068000Y-113644000I0J-200000D01*
G01*
G37*
G36*
G01*
X135718000Y-113644000D02*
X135718000Y-114194000D01*
G75*
G02*
X135518000Y-114394000I-200000J0D01*
G01*
X135118000Y-114394000D01*
G75*
G02*
X134918000Y-114194000I0J200000D01*
G01*
X134918000Y-113644000D01*
G75*
G02*
X135118000Y-113444000I200000J0D01*
G01*
X135518000Y-113444000D01*
G75*
G02*
X135718000Y-113644000I0J-200000D01*
G01*
G37*
G36*
G01*
X129559500Y-97769000D02*
X129559500Y-98319000D01*
G75*
G02*
X129359500Y-98519000I-200000J0D01*
G01*
X128959500Y-98519000D01*
G75*
G02*
X128759500Y-98319000I0J200000D01*
G01*
X128759500Y-97769000D01*
G75*
G02*
X128959500Y-97569000I200000J0D01*
G01*
X129359500Y-97569000D01*
G75*
G02*
X129559500Y-97769000I0J-200000D01*
G01*
G37*
G36*
G01*
X131209500Y-97769000D02*
X131209500Y-98319000D01*
G75*
G02*
X131009500Y-98519000I-200000J0D01*
G01*
X130609500Y-98519000D01*
G75*
G02*
X130409500Y-98319000I0J200000D01*
G01*
X130409500Y-97769000D01*
G75*
G02*
X130609500Y-97569000I200000J0D01*
G01*
X131009500Y-97569000D01*
G75*
G02*
X131209500Y-97769000I0J-200000D01*
G01*
G37*
G36*
G01*
X131020000Y-108564000D02*
X131020000Y-109114000D01*
G75*
G02*
X130820000Y-109314000I-200000J0D01*
G01*
X130420000Y-109314000D01*
G75*
G02*
X130220000Y-109114000I0J200000D01*
G01*
X130220000Y-108564000D01*
G75*
G02*
X130420000Y-108364000I200000J0D01*
G01*
X130820000Y-108364000D01*
G75*
G02*
X131020000Y-108564000I0J-200000D01*
G01*
G37*
G36*
G01*
X132670000Y-108564000D02*
X132670000Y-109114000D01*
G75*
G02*
X132470000Y-109314000I-200000J0D01*
G01*
X132070000Y-109314000D01*
G75*
G02*
X131870000Y-109114000I0J200000D01*
G01*
X131870000Y-108564000D01*
G75*
G02*
X132070000Y-108364000I200000J0D01*
G01*
X132470000Y-108364000D01*
G75*
G02*
X132670000Y-108564000I0J-200000D01*
G01*
G37*
G36*
G01*
X127423500Y-99743100D02*
X127973500Y-99743100D01*
G75*
G02*
X128173500Y-99943100I0J-200000D01*
G01*
X128173500Y-100343100D01*
G75*
G02*
X127973500Y-100543100I-200000J0D01*
G01*
X127423500Y-100543100D01*
G75*
G02*
X127223500Y-100343100I0J200000D01*
G01*
X127223500Y-99943100D01*
G75*
G02*
X127423500Y-99743100I200000J0D01*
G01*
G37*
G36*
G01*
X127423500Y-98093100D02*
X127973500Y-98093100D01*
G75*
G02*
X128173500Y-98293100I0J-200000D01*
G01*
X128173500Y-98693100D01*
G75*
G02*
X127973500Y-98893100I-200000J0D01*
G01*
X127423500Y-98893100D01*
G75*
G02*
X127223500Y-98693100I0J200000D01*
G01*
X127223500Y-98293100D01*
G75*
G02*
X127423500Y-98093100I200000J0D01*
G01*
G37*
G36*
G01*
X127423500Y-102791100D02*
X127973500Y-102791100D01*
G75*
G02*
X128173500Y-102991100I0J-200000D01*
G01*
X128173500Y-103391100D01*
G75*
G02*
X127973500Y-103591100I-200000J0D01*
G01*
X127423500Y-103591100D01*
G75*
G02*
X127223500Y-103391100I0J200000D01*
G01*
X127223500Y-102991100D01*
G75*
G02*
X127423500Y-102791100I200000J0D01*
G01*
G37*
G36*
G01*
X127423500Y-101141100D02*
X127973500Y-101141100D01*
G75*
G02*
X128173500Y-101341100I0J-200000D01*
G01*
X128173500Y-101741100D01*
G75*
G02*
X127973500Y-101941100I-200000J0D01*
G01*
X127423500Y-101941100D01*
G75*
G02*
X127223500Y-101741100I0J200000D01*
G01*
X127223500Y-101341100D01*
G75*
G02*
X127423500Y-101141100I200000J0D01*
G01*
G37*
G36*
G01*
X126449500Y-98889000D02*
X125899500Y-98889000D01*
G75*
G02*
X125699500Y-98689000I0J200000D01*
G01*
X125699500Y-98289000D01*
G75*
G02*
X125899500Y-98089000I200000J0D01*
G01*
X126449500Y-98089000D01*
G75*
G02*
X126649500Y-98289000I0J-200000D01*
G01*
X126649500Y-98689000D01*
G75*
G02*
X126449500Y-98889000I-200000J0D01*
G01*
G37*
G36*
G01*
X126449500Y-100539000D02*
X125899500Y-100539000D01*
G75*
G02*
X125699500Y-100339000I0J200000D01*
G01*
X125699500Y-99939000D01*
G75*
G02*
X125899500Y-99739000I200000J0D01*
G01*
X126449500Y-99739000D01*
G75*
G02*
X126649500Y-99939000I0J-200000D01*
G01*
X126649500Y-100339000D01*
G75*
G02*
X126449500Y-100539000I-200000J0D01*
G01*
G37*
G36*
G01*
X127910000Y-109684000D02*
X127360000Y-109684000D01*
G75*
G02*
X127160000Y-109484000I0J200000D01*
G01*
X127160000Y-109084000D01*
G75*
G02*
X127360000Y-108884000I200000J0D01*
G01*
X127910000Y-108884000D01*
G75*
G02*
X128110000Y-109084000I0J-200000D01*
G01*
X128110000Y-109484000D01*
G75*
G02*
X127910000Y-109684000I-200000J0D01*
G01*
G37*
G36*
G01*
X127910000Y-111334000D02*
X127360000Y-111334000D01*
G75*
G02*
X127160000Y-111134000I0J200000D01*
G01*
X127160000Y-110734000D01*
G75*
G02*
X127360000Y-110534000I200000J0D01*
G01*
X127910000Y-110534000D01*
G75*
G02*
X128110000Y-110734000I0J-200000D01*
G01*
X128110000Y-111134000D01*
G75*
G02*
X127910000Y-111334000I-200000J0D01*
G01*
G37*
G36*
G01*
X127972000Y-112120000D02*
X127972000Y-112670000D01*
G75*
G02*
X127772000Y-112870000I-200000J0D01*
G01*
X127372000Y-112870000D01*
G75*
G02*
X127172000Y-112670000I0J200000D01*
G01*
X127172000Y-112120000D01*
G75*
G02*
X127372000Y-111920000I200000J0D01*
G01*
X127772000Y-111920000D01*
G75*
G02*
X127972000Y-112120000I0J-200000D01*
G01*
G37*
G36*
G01*
X129622000Y-112120000D02*
X129622000Y-112670000D01*
G75*
G02*
X129422000Y-112870000I-200000J0D01*
G01*
X129022000Y-112870000D01*
G75*
G02*
X128822000Y-112670000I0J200000D01*
G01*
X128822000Y-112120000D01*
G75*
G02*
X129022000Y-111920000I200000J0D01*
G01*
X129422000Y-111920000D01*
G75*
G02*
X129622000Y-112120000I0J-200000D01*
G01*
G37*
G36*
G01*
X125836000Y-113582000D02*
X126386000Y-113582000D01*
G75*
G02*
X126586000Y-113782000I0J-200000D01*
G01*
X126586000Y-114182000D01*
G75*
G02*
X126386000Y-114382000I-200000J0D01*
G01*
X125836000Y-114382000D01*
G75*
G02*
X125636000Y-114182000I0J200000D01*
G01*
X125636000Y-113782000D01*
G75*
G02*
X125836000Y-113582000I200000J0D01*
G01*
G37*
G36*
G01*
X125836000Y-111932000D02*
X126386000Y-111932000D01*
G75*
G02*
X126586000Y-112132000I0J-200000D01*
G01*
X126586000Y-112532000D01*
G75*
G02*
X126386000Y-112732000I-200000J0D01*
G01*
X125836000Y-112732000D01*
G75*
G02*
X125636000Y-112532000I0J200000D01*
G01*
X125636000Y-112132000D01*
G75*
G02*
X125836000Y-111932000I200000J0D01*
G01*
G37*
G36*
G01*
X154666500Y-111273000D02*
X154666500Y-110723000D01*
G75*
G02*
X154866500Y-110523000I200000J0D01*
G01*
X155266500Y-110523000D01*
G75*
G02*
X155466500Y-110723000I0J-200000D01*
G01*
X155466500Y-111273000D01*
G75*
G02*
X155266500Y-111473000I-200000J0D01*
G01*
X154866500Y-111473000D01*
G75*
G02*
X154666500Y-111273000I0J200000D01*
G01*
G37*
G36*
G01*
X153016500Y-111273000D02*
X153016500Y-110723000D01*
G75*
G02*
X153216500Y-110523000I200000J0D01*
G01*
X153616500Y-110523000D01*
G75*
G02*
X153816500Y-110723000I0J-200000D01*
G01*
X153816500Y-111273000D01*
G75*
G02*
X153616500Y-111473000I-200000J0D01*
G01*
X153216500Y-111473000D01*
G75*
G02*
X153016500Y-111273000I0J200000D01*
G01*
G37*
G36*
G01*
X162983500Y-103041000D02*
X163533500Y-103041000D01*
G75*
G02*
X163733500Y-103241000I0J-200000D01*
G01*
X163733500Y-103641000D01*
G75*
G02*
X163533500Y-103841000I-200000J0D01*
G01*
X162983500Y-103841000D01*
G75*
G02*
X162783500Y-103641000I0J200000D01*
G01*
X162783500Y-103241000D01*
G75*
G02*
X162983500Y-103041000I200000J0D01*
G01*
G37*
G36*
G01*
X162983500Y-101391000D02*
X163533500Y-101391000D01*
G75*
G02*
X163733500Y-101591000I0J-200000D01*
G01*
X163733500Y-101991000D01*
G75*
G02*
X163533500Y-102191000I-200000J0D01*
G01*
X162983500Y-102191000D01*
G75*
G02*
X162783500Y-101991000I0J200000D01*
G01*
X162783500Y-101591000D01*
G75*
G02*
X162983500Y-101391000I200000J0D01*
G01*
G37*
G36*
G01*
X149648500Y-110724500D02*
X150198500Y-110724500D01*
G75*
G02*
X150398500Y-110924500I0J-200000D01*
G01*
X150398500Y-111324500D01*
G75*
G02*
X150198500Y-111524500I-200000J0D01*
G01*
X149648500Y-111524500D01*
G75*
G02*
X149448500Y-111324500I0J200000D01*
G01*
X149448500Y-110924500D01*
G75*
G02*
X149648500Y-110724500I200000J0D01*
G01*
G37*
G36*
G01*
X149648500Y-109074500D02*
X150198500Y-109074500D01*
G75*
G02*
X150398500Y-109274500I0J-200000D01*
G01*
X150398500Y-109674500D01*
G75*
G02*
X150198500Y-109874500I-200000J0D01*
G01*
X149648500Y-109874500D01*
G75*
G02*
X149448500Y-109674500I0J200000D01*
G01*
X149448500Y-109274500D01*
G75*
G02*
X149648500Y-109074500I200000J0D01*
G01*
G37*
G36*
G01*
X150260500Y-107294000D02*
X150260500Y-107844000D01*
G75*
G02*
X150060500Y-108044000I-200000J0D01*
G01*
X149660500Y-108044000D01*
G75*
G02*
X149460500Y-107844000I0J200000D01*
G01*
X149460500Y-107294000D01*
G75*
G02*
X149660500Y-107094000I200000J0D01*
G01*
X150060500Y-107094000D01*
G75*
G02*
X150260500Y-107294000I0J-200000D01*
G01*
G37*
G36*
G01*
X151910500Y-107294000D02*
X151910500Y-107844000D01*
G75*
G02*
X151710500Y-108044000I-200000J0D01*
G01*
X151310500Y-108044000D01*
G75*
G02*
X151110500Y-107844000I0J200000D01*
G01*
X151110500Y-107294000D01*
G75*
G02*
X151310500Y-107094000I200000J0D01*
G01*
X151710500Y-107094000D01*
G75*
G02*
X151910500Y-107294000I0J-200000D01*
G01*
G37*
G36*
G01*
X150198500Y-115970000D02*
X149648500Y-115970000D01*
G75*
G02*
X149448500Y-115770000I0J200000D01*
G01*
X149448500Y-115370000D01*
G75*
G02*
X149648500Y-115170000I200000J0D01*
G01*
X150198500Y-115170000D01*
G75*
G02*
X150398500Y-115370000I0J-200000D01*
G01*
X150398500Y-115770000D01*
G75*
G02*
X150198500Y-115970000I-200000J0D01*
G01*
G37*
G36*
G01*
X150198500Y-117620000D02*
X149648500Y-117620000D01*
G75*
G02*
X149448500Y-117420000I0J200000D01*
G01*
X149448500Y-117020000D01*
G75*
G02*
X149648500Y-116820000I200000J0D01*
G01*
X150198500Y-116820000D01*
G75*
G02*
X150398500Y-117020000I0J-200000D01*
G01*
X150398500Y-117420000D01*
G75*
G02*
X150198500Y-117620000I-200000J0D01*
G01*
G37*
G36*
G01*
X162983500Y-100056500D02*
X163533500Y-100056500D01*
G75*
G02*
X163733500Y-100256500I0J-200000D01*
G01*
X163733500Y-100656500D01*
G75*
G02*
X163533500Y-100856500I-200000J0D01*
G01*
X162983500Y-100856500D01*
G75*
G02*
X162783500Y-100656500I0J200000D01*
G01*
X162783500Y-100256500D01*
G75*
G02*
X162983500Y-100056500I200000J0D01*
G01*
G37*
G36*
G01*
X162983500Y-98406500D02*
X163533500Y-98406500D01*
G75*
G02*
X163733500Y-98606500I0J-200000D01*
G01*
X163733500Y-99006500D01*
G75*
G02*
X163533500Y-99206500I-200000J0D01*
G01*
X162983500Y-99206500D01*
G75*
G02*
X162783500Y-99006500I0J200000D01*
G01*
X162783500Y-98606500D01*
G75*
G02*
X162983500Y-98406500I200000J0D01*
G01*
G37*
G36*
G01*
X166223500Y-112733500D02*
X166223500Y-112183500D01*
G75*
G02*
X166423500Y-111983500I200000J0D01*
G01*
X166823500Y-111983500D01*
G75*
G02*
X167023500Y-112183500I0J-200000D01*
G01*
X167023500Y-112733500D01*
G75*
G02*
X166823500Y-112933500I-200000J0D01*
G01*
X166423500Y-112933500D01*
G75*
G02*
X166223500Y-112733500I0J200000D01*
G01*
G37*
G36*
G01*
X164573500Y-112733500D02*
X164573500Y-112183500D01*
G75*
G02*
X164773500Y-111983500I200000J0D01*
G01*
X165173500Y-111983500D01*
G75*
G02*
X165373500Y-112183500I0J-200000D01*
G01*
X165373500Y-112733500D01*
G75*
G02*
X165173500Y-112933500I-200000J0D01*
G01*
X164773500Y-112933500D01*
G75*
G02*
X164573500Y-112733500I0J200000D01*
G01*
G37*
G36*
G01*
X161905500Y-116416500D02*
X161905500Y-115866500D01*
G75*
G02*
X162105500Y-115666500I200000J0D01*
G01*
X162505500Y-115666500D01*
G75*
G02*
X162705500Y-115866500I0J-200000D01*
G01*
X162705500Y-116416500D01*
G75*
G02*
X162505500Y-116616500I-200000J0D01*
G01*
X162105500Y-116616500D01*
G75*
G02*
X161905500Y-116416500I0J200000D01*
G01*
G37*
G36*
G01*
X160255500Y-116416500D02*
X160255500Y-115866500D01*
G75*
G02*
X160455500Y-115666500I200000J0D01*
G01*
X160855500Y-115666500D01*
G75*
G02*
X161055500Y-115866500I0J-200000D01*
G01*
X161055500Y-116416500D01*
G75*
G02*
X160855500Y-116616500I-200000J0D01*
G01*
X160455500Y-116616500D01*
G75*
G02*
X160255500Y-116416500I0J200000D01*
G01*
G37*
G36*
G01*
X149648500Y-113772500D02*
X150198500Y-113772500D01*
G75*
G02*
X150398500Y-113972500I0J-200000D01*
G01*
X150398500Y-114372500D01*
G75*
G02*
X150198500Y-114572500I-200000J0D01*
G01*
X149648500Y-114572500D01*
G75*
G02*
X149448500Y-114372500I0J200000D01*
G01*
X149448500Y-113972500D01*
G75*
G02*
X149648500Y-113772500I200000J0D01*
G01*
G37*
G36*
G01*
X149648500Y-112122500D02*
X150198500Y-112122500D01*
G75*
G02*
X150398500Y-112322500I0J-200000D01*
G01*
X150398500Y-112722500D01*
G75*
G02*
X150198500Y-112922500I-200000J0D01*
G01*
X149648500Y-112922500D01*
G75*
G02*
X149448500Y-112722500I0J200000D01*
G01*
X149448500Y-112322500D01*
G75*
G02*
X149648500Y-112122500I200000J0D01*
G01*
G37*
G36*
G01*
X154666500Y-112797000D02*
X154666500Y-112247000D01*
G75*
G02*
X154866500Y-112047000I200000J0D01*
G01*
X155266500Y-112047000D01*
G75*
G02*
X155466500Y-112247000I0J-200000D01*
G01*
X155466500Y-112797000D01*
G75*
G02*
X155266500Y-112997000I-200000J0D01*
G01*
X154866500Y-112997000D01*
G75*
G02*
X154666500Y-112797000I0J200000D01*
G01*
G37*
G36*
G01*
X153016500Y-112797000D02*
X153016500Y-112247000D01*
G75*
G02*
X153216500Y-112047000I200000J0D01*
G01*
X153616500Y-112047000D01*
G75*
G02*
X153816500Y-112247000I0J-200000D01*
G01*
X153816500Y-112797000D01*
G75*
G02*
X153616500Y-112997000I-200000J0D01*
G01*
X153216500Y-112997000D01*
G75*
G02*
X153016500Y-112797000I0J200000D01*
G01*
G37*
G36*
G01*
X160282300Y-108287000D02*
X159732300Y-108287000D01*
G75*
G02*
X159532300Y-108087000I0J200000D01*
G01*
X159532300Y-107687000D01*
G75*
G02*
X159732300Y-107487000I200000J0D01*
G01*
X160282300Y-107487000D01*
G75*
G02*
X160482300Y-107687000I0J-200000D01*
G01*
X160482300Y-108087000D01*
G75*
G02*
X160282300Y-108287000I-200000J0D01*
G01*
G37*
G36*
G01*
X160282300Y-109937000D02*
X159732300Y-109937000D01*
G75*
G02*
X159532300Y-109737000I0J200000D01*
G01*
X159532300Y-109337000D01*
G75*
G02*
X159732300Y-109137000I200000J0D01*
G01*
X160282300Y-109137000D01*
G75*
G02*
X160482300Y-109337000I0J-200000D01*
G01*
X160482300Y-109737000D01*
G75*
G02*
X160282300Y-109937000I-200000J0D01*
G01*
G37*
G36*
G01*
X146992100Y-114533000D02*
X146992100Y-115083000D01*
G75*
G02*
X146792100Y-115283000I-200000J0D01*
G01*
X146392100Y-115283000D01*
G75*
G02*
X146192100Y-115083000I0J200000D01*
G01*
X146192100Y-114533000D01*
G75*
G02*
X146392100Y-114333000I200000J0D01*
G01*
X146792100Y-114333000D01*
G75*
G02*
X146992100Y-114533000I0J-200000D01*
G01*
G37*
G36*
G01*
X148642100Y-114533000D02*
X148642100Y-115083000D01*
G75*
G02*
X148442100Y-115283000I-200000J0D01*
G01*
X148042100Y-115283000D01*
G75*
G02*
X147842100Y-115083000I0J200000D01*
G01*
X147842100Y-114533000D01*
G75*
G02*
X148042100Y-114333000I200000J0D01*
G01*
X148442100Y-114333000D01*
G75*
G02*
X148642100Y-114533000I0J-200000D01*
G01*
G37*
G36*
G01*
X158007500Y-114342500D02*
X158007500Y-114892500D01*
G75*
G02*
X157807500Y-115092500I-200000J0D01*
G01*
X157407500Y-115092500D01*
G75*
G02*
X157207500Y-114892500I0J200000D01*
G01*
X157207500Y-114342500D01*
G75*
G02*
X157407500Y-114142500I200000J0D01*
G01*
X157807500Y-114142500D01*
G75*
G02*
X158007500Y-114342500I0J-200000D01*
G01*
G37*
G36*
G01*
X159657500Y-114342500D02*
X159657500Y-114892500D01*
G75*
G02*
X159457500Y-115092500I-200000J0D01*
G01*
X159057500Y-115092500D01*
G75*
G02*
X158857500Y-114892500I0J200000D01*
G01*
X158857500Y-114342500D01*
G75*
G02*
X159057500Y-114142500I200000J0D01*
G01*
X159457500Y-114142500D01*
G75*
G02*
X159657500Y-114342500I0J-200000D01*
G01*
G37*
G36*
G01*
X144760500Y-109876000D02*
X144760500Y-109326000D01*
G75*
G02*
X144960500Y-109126000I200000J0D01*
G01*
X145360500Y-109126000D01*
G75*
G02*
X145560500Y-109326000I0J-200000D01*
G01*
X145560500Y-109876000D01*
G75*
G02*
X145360500Y-110076000I-200000J0D01*
G01*
X144960500Y-110076000D01*
G75*
G02*
X144760500Y-109876000I0J200000D01*
G01*
G37*
G36*
G01*
X143110500Y-109876000D02*
X143110500Y-109326000D01*
G75*
G02*
X143310500Y-109126000I200000J0D01*
G01*
X143710500Y-109126000D01*
G75*
G02*
X143910500Y-109326000I0J-200000D01*
G01*
X143910500Y-109876000D01*
G75*
G02*
X143710500Y-110076000I-200000J0D01*
G01*
X143310500Y-110076000D01*
G75*
G02*
X143110500Y-109876000I0J200000D01*
G01*
G37*
G36*
G01*
X162983500Y-97072000D02*
X163533500Y-97072000D01*
G75*
G02*
X163733500Y-97272000I0J-200000D01*
G01*
X163733500Y-97672000D01*
G75*
G02*
X163533500Y-97872000I-200000J0D01*
G01*
X162983500Y-97872000D01*
G75*
G02*
X162783500Y-97672000I0J200000D01*
G01*
X162783500Y-97272000D01*
G75*
G02*
X162983500Y-97072000I200000J0D01*
G01*
G37*
G36*
G01*
X162983500Y-95422000D02*
X163533500Y-95422000D01*
G75*
G02*
X163733500Y-95622000I0J-200000D01*
G01*
X163733500Y-96022000D01*
G75*
G02*
X163533500Y-96222000I-200000J0D01*
G01*
X162983500Y-96222000D01*
G75*
G02*
X162783500Y-96022000I0J200000D01*
G01*
X162783500Y-95622000D01*
G75*
G02*
X162983500Y-95422000I200000J0D01*
G01*
G37*
G36*
G01*
X161478250Y-102966000D02*
X161990750Y-102966000D01*
G75*
G02*
X162209500Y-103184750I0J-218750D01*
G01*
X162209500Y-103622250D01*
G75*
G02*
X161990750Y-103841000I-218750J0D01*
G01*
X161478250Y-103841000D01*
G75*
G02*
X161259500Y-103622250I0J218750D01*
G01*
X161259500Y-103184750D01*
G75*
G02*
X161478250Y-102966000I218750J0D01*
G01*
G37*
G36*
G01*
X161478250Y-101391000D02*
X161990750Y-101391000D01*
G75*
G02*
X162209500Y-101609750I0J-218750D01*
G01*
X162209500Y-102047250D01*
G75*
G02*
X161990750Y-102266000I-218750J0D01*
G01*
X161478250Y-102266000D01*
G75*
G02*
X161259500Y-102047250I0J218750D01*
G01*
X161259500Y-101609750D01*
G75*
G02*
X161478250Y-101391000I218750J0D01*
G01*
G37*
G36*
G01*
X161478250Y-99985600D02*
X161990750Y-99985600D01*
G75*
G02*
X162209500Y-100204350I0J-218750D01*
G01*
X162209500Y-100641850D01*
G75*
G02*
X161990750Y-100860600I-218750J0D01*
G01*
X161478250Y-100860600D01*
G75*
G02*
X161259500Y-100641850I0J218750D01*
G01*
X161259500Y-100204350D01*
G75*
G02*
X161478250Y-99985600I218750J0D01*
G01*
G37*
G36*
G01*
X161478250Y-98410600D02*
X161990750Y-98410600D01*
G75*
G02*
X162209500Y-98629350I0J-218750D01*
G01*
X162209500Y-99066850D01*
G75*
G02*
X161990750Y-99285600I-218750J0D01*
G01*
X161478250Y-99285600D01*
G75*
G02*
X161259500Y-99066850I0J218750D01*
G01*
X161259500Y-98629350D01*
G75*
G02*
X161478250Y-98410600I218750J0D01*
G01*
G37*
G36*
G01*
X161478250Y-96997000D02*
X161990750Y-96997000D01*
G75*
G02*
X162209500Y-97215750I0J-218750D01*
G01*
X162209500Y-97653250D01*
G75*
G02*
X161990750Y-97872000I-218750J0D01*
G01*
X161478250Y-97872000D01*
G75*
G02*
X161259500Y-97653250I0J218750D01*
G01*
X161259500Y-97215750D01*
G75*
G02*
X161478250Y-96997000I218750J0D01*
G01*
G37*
G36*
G01*
X161478250Y-95422000D02*
X161990750Y-95422000D01*
G75*
G02*
X162209500Y-95640750I0J-218750D01*
G01*
X162209500Y-96078250D01*
G75*
G02*
X161990750Y-96297000I-218750J0D01*
G01*
X161478250Y-96297000D01*
G75*
G02*
X161259500Y-96078250I0J218750D01*
G01*
X161259500Y-95640750D01*
G75*
G02*
X161478250Y-95422000I218750J0D01*
G01*
G37*
G36*
G01*
X144495000Y-103443750D02*
X144495000Y-102931250D01*
G75*
G02*
X144713750Y-102712500I218750J0D01*
G01*
X145151250Y-102712500D01*
G75*
G02*
X145370000Y-102931250I0J-218750D01*
G01*
X145370000Y-103443750D01*
G75*
G02*
X145151250Y-103662500I-218750J0D01*
G01*
X144713750Y-103662500D01*
G75*
G02*
X144495000Y-103443750I0J218750D01*
G01*
G37*
G36*
G01*
X142920000Y-103443750D02*
X142920000Y-102931250D01*
G75*
G02*
X143138750Y-102712500I218750J0D01*
G01*
X143576250Y-102712500D01*
G75*
G02*
X143795000Y-102931250I0J-218750D01*
G01*
X143795000Y-103443750D01*
G75*
G02*
X143576250Y-103662500I-218750J0D01*
G01*
X143138750Y-103662500D01*
G75*
G02*
X142920000Y-103443750I0J218750D01*
G01*
G37*
G36*
G01*
X136713250Y-96108000D02*
X137225750Y-96108000D01*
G75*
G02*
X137444500Y-96326750I0J-218750D01*
G01*
X137444500Y-96764250D01*
G75*
G02*
X137225750Y-96983000I-218750J0D01*
G01*
X136713250Y-96983000D01*
G75*
G02*
X136494500Y-96764250I0J218750D01*
G01*
X136494500Y-96326750D01*
G75*
G02*
X136713250Y-96108000I218750J0D01*
G01*
G37*
G36*
G01*
X136713250Y-94533000D02*
X137225750Y-94533000D01*
G75*
G02*
X137444500Y-94751750I0J-218750D01*
G01*
X137444500Y-95189250D01*
G75*
G02*
X137225750Y-95408000I-218750J0D01*
G01*
X136713250Y-95408000D01*
G75*
G02*
X136494500Y-95189250I0J218750D01*
G01*
X136494500Y-94751750D01*
G75*
G02*
X136713250Y-94533000I218750J0D01*
G01*
G37*
G36*
G01*
X159509750Y-103537500D02*
X160022250Y-103537500D01*
G75*
G02*
X160241000Y-103756250I0J-218750D01*
G01*
X160241000Y-104193750D01*
G75*
G02*
X160022250Y-104412500I-218750J0D01*
G01*
X159509750Y-104412500D01*
G75*
G02*
X159291000Y-104193750I0J218750D01*
G01*
X159291000Y-103756250D01*
G75*
G02*
X159509750Y-103537500I218750J0D01*
G01*
G37*
G36*
G01*
X159509750Y-101962500D02*
X160022250Y-101962500D01*
G75*
G02*
X160241000Y-102181250I0J-218750D01*
G01*
X160241000Y-102618750D01*
G75*
G02*
X160022250Y-102837500I-218750J0D01*
G01*
X159509750Y-102837500D01*
G75*
G02*
X159291000Y-102618750I0J218750D01*
G01*
X159291000Y-102181250D01*
G75*
G02*
X159509750Y-101962500I218750J0D01*
G01*
G37*
G36*
G01*
X151732500Y-93469750D02*
X151732500Y-93982250D01*
G75*
G02*
X151513750Y-94201000I-218750J0D01*
G01*
X151076250Y-94201000D01*
G75*
G02*
X150857500Y-93982250I0J218750D01*
G01*
X150857500Y-93469750D01*
G75*
G02*
X151076250Y-93251000I218750J0D01*
G01*
X151513750Y-93251000D01*
G75*
G02*
X151732500Y-93469750I0J-218750D01*
G01*
G37*
G36*
G01*
X153307500Y-93469750D02*
X153307500Y-93982250D01*
G75*
G02*
X153088750Y-94201000I-218750J0D01*
G01*
X152651250Y-94201000D01*
G75*
G02*
X152432500Y-93982250I0J218750D01*
G01*
X152432500Y-93469750D01*
G75*
G02*
X152651250Y-93251000I218750J0D01*
G01*
X153088750Y-93251000D01*
G75*
G02*
X153307500Y-93469750I0J-218750D01*
G01*
G37*
G36*
G01*
X167828250Y-112046500D02*
X168340750Y-112046500D01*
G75*
G02*
X168559500Y-112265250I0J-218750D01*
G01*
X168559500Y-112702750D01*
G75*
G02*
X168340750Y-112921500I-218750J0D01*
G01*
X167828250Y-112921500D01*
G75*
G02*
X167609500Y-112702750I0J218750D01*
G01*
X167609500Y-112265250D01*
G75*
G02*
X167828250Y-112046500I218750J0D01*
G01*
G37*
G36*
G01*
X167828250Y-110471500D02*
X168340750Y-110471500D01*
G75*
G02*
X168559500Y-110690250I0J-218750D01*
G01*
X168559500Y-111127750D01*
G75*
G02*
X168340750Y-111346500I-218750J0D01*
G01*
X167828250Y-111346500D01*
G75*
G02*
X167609500Y-111127750I0J218750D01*
G01*
X167609500Y-110690250D01*
G75*
G02*
X167828250Y-110471500I218750J0D01*
G01*
G37*
G36*
G01*
X158782500Y-116397750D02*
X158782500Y-115885250D01*
G75*
G02*
X159001250Y-115666500I218750J0D01*
G01*
X159438750Y-115666500D01*
G75*
G02*
X159657500Y-115885250I0J-218750D01*
G01*
X159657500Y-116397750D01*
G75*
G02*
X159438750Y-116616500I-218750J0D01*
G01*
X159001250Y-116616500D01*
G75*
G02*
X158782500Y-116397750I0J218750D01*
G01*
G37*
G36*
G01*
X157207500Y-116397750D02*
X157207500Y-115885250D01*
G75*
G02*
X157426250Y-115666500I218750J0D01*
G01*
X157863750Y-115666500D01*
G75*
G02*
X158082500Y-115885250I0J-218750D01*
G01*
X158082500Y-116397750D01*
G75*
G02*
X157863750Y-116616500I-218750J0D01*
G01*
X157426250Y-116616500D01*
G75*
G02*
X157207500Y-116397750I0J218750D01*
G01*
G37*
G36*
G01*
X163607000Y-106741250D02*
X163607000Y-107253750D01*
G75*
G02*
X163388250Y-107472500I-218750J0D01*
G01*
X162950750Y-107472500D01*
G75*
G02*
X162732000Y-107253750I0J218750D01*
G01*
X162732000Y-106741250D01*
G75*
G02*
X162950750Y-106522500I218750J0D01*
G01*
X163388250Y-106522500D01*
G75*
G02*
X163607000Y-106741250I0J-218750D01*
G01*
G37*
G36*
G01*
X165182000Y-106741250D02*
X165182000Y-107253750D01*
G75*
G02*
X164963250Y-107472500I-218750J0D01*
G01*
X164525750Y-107472500D01*
G75*
G02*
X164307000Y-107253750I0J218750D01*
G01*
X164307000Y-106741250D01*
G75*
G02*
X164525750Y-106522500I218750J0D01*
G01*
X164963250Y-106522500D01*
G75*
G02*
X165182000Y-106741250I0J-218750D01*
G01*
G37*
G36*
G01*
X131985500Y-104904250D02*
X131985500Y-104391750D01*
G75*
G02*
X132204250Y-104173000I218750J0D01*
G01*
X132641750Y-104173000D01*
G75*
G02*
X132860500Y-104391750I0J-218750D01*
G01*
X132860500Y-104904250D01*
G75*
G02*
X132641750Y-105123000I-218750J0D01*
G01*
X132204250Y-105123000D01*
G75*
G02*
X131985500Y-104904250I0J218750D01*
G01*
G37*
G36*
G01*
X130410500Y-104904250D02*
X130410500Y-104391750D01*
G75*
G02*
X130629250Y-104173000I218750J0D01*
G01*
X131066750Y-104173000D01*
G75*
G02*
X131285500Y-104391750I0J-218750D01*
G01*
X131285500Y-104904250D01*
G75*
G02*
X131066750Y-105123000I-218750J0D01*
G01*
X130629250Y-105123000D01*
G75*
G02*
X130410500Y-104904250I0J218750D01*
G01*
G37*
G36*
G01*
X134333500Y-96263750D02*
X134333500Y-96776250D01*
G75*
G02*
X134114750Y-96995000I-218750J0D01*
G01*
X133677250Y-96995000D01*
G75*
G02*
X133458500Y-96776250I0J218750D01*
G01*
X133458500Y-96263750D01*
G75*
G02*
X133677250Y-96045000I218750J0D01*
G01*
X134114750Y-96045000D01*
G75*
G02*
X134333500Y-96263750I0J-218750D01*
G01*
G37*
G36*
G01*
X135908500Y-96263750D02*
X135908500Y-96776250D01*
G75*
G02*
X135689750Y-96995000I-218750J0D01*
G01*
X135252250Y-96995000D01*
G75*
G02*
X135033500Y-96776250I0J218750D01*
G01*
X135033500Y-96263750D01*
G75*
G02*
X135252250Y-96045000I218750J0D01*
G01*
X135689750Y-96045000D01*
G75*
G02*
X135908500Y-96263750I0J-218750D01*
G01*
G37*
G36*
G01*
X144749000Y-116588250D02*
X144749000Y-116075750D01*
G75*
G02*
X144967750Y-115857000I218750J0D01*
G01*
X145405250Y-115857000D01*
G75*
G02*
X145624000Y-116075750I0J-218750D01*
G01*
X145624000Y-116588250D01*
G75*
G02*
X145405250Y-116807000I-218750J0D01*
G01*
X144967750Y-116807000D01*
G75*
G02*
X144749000Y-116588250I0J218750D01*
G01*
G37*
G36*
G01*
X143174000Y-116588250D02*
X143174000Y-116075750D01*
G75*
G02*
X143392750Y-115857000I218750J0D01*
G01*
X143830250Y-115857000D01*
G75*
G02*
X144049000Y-116075750I0J-218750D01*
G01*
X144049000Y-116588250D01*
G75*
G02*
X143830250Y-116807000I-218750J0D01*
G01*
X143392750Y-116807000D01*
G75*
G02*
X143174000Y-116588250I0J218750D01*
G01*
G37*
G36*
G01*
X144841250Y-106141000D02*
X145353750Y-106141000D01*
G75*
G02*
X145572500Y-106359750I0J-218750D01*
G01*
X145572500Y-106797250D01*
G75*
G02*
X145353750Y-107016000I-218750J0D01*
G01*
X144841250Y-107016000D01*
G75*
G02*
X144622500Y-106797250I0J218750D01*
G01*
X144622500Y-106359750D01*
G75*
G02*
X144841250Y-106141000I218750J0D01*
G01*
G37*
G36*
G01*
X144841250Y-104566000D02*
X145353750Y-104566000D01*
G75*
G02*
X145572500Y-104784750I0J-218750D01*
G01*
X145572500Y-105222250D01*
G75*
G02*
X145353750Y-105441000I-218750J0D01*
G01*
X144841250Y-105441000D01*
G75*
G02*
X144622500Y-105222250I0J218750D01*
G01*
X144622500Y-104784750D01*
G75*
G02*
X144841250Y-104566000I218750J0D01*
G01*
G37*
G36*
G01*
X128047000Y-115186750D02*
X128047000Y-115699250D01*
G75*
G02*
X127828250Y-115918000I-218750J0D01*
G01*
X127390750Y-115918000D01*
G75*
G02*
X127172000Y-115699250I0J218750D01*
G01*
X127172000Y-115186750D01*
G75*
G02*
X127390750Y-114968000I218750J0D01*
G01*
X127828250Y-114968000D01*
G75*
G02*
X128047000Y-115186750I0J-218750D01*
G01*
G37*
G36*
G01*
X129622000Y-115186750D02*
X129622000Y-115699250D01*
G75*
G02*
X129403250Y-115918000I-218750J0D01*
G01*
X128965750Y-115918000D01*
G75*
G02*
X128747000Y-115699250I0J218750D01*
G01*
X128747000Y-115186750D01*
G75*
G02*
X128965750Y-114968000I218750J0D01*
G01*
X129403250Y-114968000D01*
G75*
G02*
X129622000Y-115186750I0J-218750D01*
G01*
G37*
G36*
G01*
X137191000Y-107566750D02*
X137191000Y-108079250D01*
G75*
G02*
X136972250Y-108298000I-218750J0D01*
G01*
X136534750Y-108298000D01*
G75*
G02*
X136316000Y-108079250I0J218750D01*
G01*
X136316000Y-107566750D01*
G75*
G02*
X136534750Y-107348000I218750J0D01*
G01*
X136972250Y-107348000D01*
G75*
G02*
X137191000Y-107566750I0J-218750D01*
G01*
G37*
G36*
G01*
X138766000Y-107566750D02*
X138766000Y-108079250D01*
G75*
G02*
X138547250Y-108298000I-218750J0D01*
G01*
X138109750Y-108298000D01*
G75*
G02*
X137891000Y-108079250I0J218750D01*
G01*
X137891000Y-107566750D01*
G75*
G02*
X138109750Y-107348000I218750J0D01*
G01*
X138547250Y-107348000D01*
G75*
G02*
X138766000Y-107566750I0J-218750D01*
G01*
G37*
D14*
X176128000Y-112649000D03*
D15*
X176128000Y-109879000D03*
X176128000Y-115419000D03*
D16*
X126111000Y-120502000D03*
D17*
X128881000Y-120502000D03*
X123341000Y-120502000D03*
D14*
X118110000Y-112649000D03*
D15*
X118110000Y-115419000D03*
X118110000Y-109879000D03*
D18*
X153670000Y-107535000D03*
X153670000Y-109635000D03*
X151701500Y-111032000D03*
X151701500Y-108932000D03*
X151701500Y-112170500D03*
X151701500Y-114270500D03*
D19*
X146460500Y-107823000D03*
X148560500Y-107823000D03*
D18*
X163322000Y-110519500D03*
X163322000Y-112619500D03*
D19*
X156557000Y-107315000D03*
X158657000Y-107315000D03*
X158657000Y-109283500D03*
X156557000Y-109283500D03*
G36*
G01*
X140835500Y-108144500D02*
X140835500Y-108644500D01*
G75*
G02*
X140610500Y-108869500I-225000J0D01*
G01*
X140160500Y-108869500D01*
G75*
G02*
X139935500Y-108644500I0J225000D01*
G01*
X139935500Y-108144500D01*
G75*
G02*
X140160500Y-107919500I225000J0D01*
G01*
X140610500Y-107919500D01*
G75*
G02*
X140835500Y-108144500I0J-225000D01*
G01*
G37*
G36*
G01*
X142385500Y-108144500D02*
X142385500Y-108644500D01*
G75*
G02*
X142160500Y-108869500I-225000J0D01*
G01*
X141710500Y-108869500D01*
G75*
G02*
X141485500Y-108644500I0J225000D01*
G01*
X141485500Y-108144500D01*
G75*
G02*
X141710500Y-107919500I225000J0D01*
G01*
X142160500Y-107919500D01*
G75*
G02*
X142385500Y-108144500I0J-225000D01*
G01*
G37*
G36*
G01*
X142172500Y-113403500D02*
X141672500Y-113403500D01*
G75*
G02*
X141447500Y-113178500I0J225000D01*
G01*
X141447500Y-112728500D01*
G75*
G02*
X141672500Y-112503500I225000J0D01*
G01*
X142172500Y-112503500D01*
G75*
G02*
X142397500Y-112728500I0J-225000D01*
G01*
X142397500Y-113178500D01*
G75*
G02*
X142172500Y-113403500I-225000J0D01*
G01*
G37*
G36*
G01*
X142172500Y-114953500D02*
X141672500Y-114953500D01*
G75*
G02*
X141447500Y-114728500I0J225000D01*
G01*
X141447500Y-114278500D01*
G75*
G02*
X141672500Y-114053500I225000J0D01*
G01*
X142172500Y-114053500D01*
G75*
G02*
X142397500Y-114278500I0J-225000D01*
G01*
X142397500Y-114728500D01*
G75*
G02*
X142172500Y-114953500I-225000J0D01*
G01*
G37*
G36*
G01*
X144443001Y-94346000D02*
X143592999Y-94346000D01*
G75*
G02*
X143343000Y-94096001I0J249999D01*
G01*
X143343000Y-93195999D01*
G75*
G02*
X143592999Y-92946000I249999J0D01*
G01*
X144443001Y-92946000D01*
G75*
G02*
X144693000Y-93195999I0J-249999D01*
G01*
X144693000Y-94096001D01*
G75*
G02*
X144443001Y-94346000I-249999J0D01*
G01*
G37*
G36*
G01*
X144443001Y-97046000D02*
X143592999Y-97046000D01*
G75*
G02*
X143343000Y-96796001I0J249999D01*
G01*
X143343000Y-95895999D01*
G75*
G02*
X143592999Y-95646000I249999J0D01*
G01*
X144443001Y-95646000D01*
G75*
G02*
X144693000Y-95895999I0J-249999D01*
G01*
X144693000Y-96796001D01*
G75*
G02*
X144443001Y-97046000I-249999J0D01*
G01*
G37*
G36*
G01*
X141089500Y-94809500D02*
X141089500Y-95309500D01*
G75*
G02*
X140864500Y-95534500I-225000J0D01*
G01*
X140414500Y-95534500D01*
G75*
G02*
X140189500Y-95309500I0J225000D01*
G01*
X140189500Y-94809500D01*
G75*
G02*
X140414500Y-94584500I225000J0D01*
G01*
X140864500Y-94584500D01*
G75*
G02*
X141089500Y-94809500I0J-225000D01*
G01*
G37*
G36*
G01*
X142639500Y-94809500D02*
X142639500Y-95309500D01*
G75*
G02*
X142414500Y-95534500I-225000J0D01*
G01*
X141964500Y-95534500D01*
G75*
G02*
X141739500Y-95309500I0J225000D01*
G01*
X141739500Y-94809500D01*
G75*
G02*
X141964500Y-94584500I225000J0D01*
G01*
X142414500Y-94584500D01*
G75*
G02*
X142639500Y-94809500I0J-225000D01*
G01*
G37*
G36*
G01*
X137873500Y-103549001D02*
X137873500Y-102698999D01*
G75*
G02*
X138123499Y-102449000I249999J0D01*
G01*
X139023501Y-102449000D01*
G75*
G02*
X139273500Y-102698999I0J-249999D01*
G01*
X139273500Y-103549001D01*
G75*
G02*
X139023501Y-103799000I-249999J0D01*
G01*
X138123499Y-103799000D01*
G75*
G02*
X137873500Y-103549001I0J249999D01*
G01*
G37*
G36*
G01*
X135173500Y-103549001D02*
X135173500Y-102698999D01*
G75*
G02*
X135423499Y-102449000I249999J0D01*
G01*
X136323501Y-102449000D01*
G75*
G02*
X136573500Y-102698999I0J-249999D01*
G01*
X136573500Y-103549001D01*
G75*
G02*
X136323501Y-103799000I-249999J0D01*
G01*
X135423499Y-103799000D01*
G75*
G02*
X135173500Y-103549001I0J249999D01*
G01*
G37*
G36*
G01*
X139236001Y-95853500D02*
X138385999Y-95853500D01*
G75*
G02*
X138136000Y-95603501I0J249999D01*
G01*
X138136000Y-94703499D01*
G75*
G02*
X138385999Y-94453500I249999J0D01*
G01*
X139236001Y-94453500D01*
G75*
G02*
X139486000Y-94703499I0J-249999D01*
G01*
X139486000Y-95603501D01*
G75*
G02*
X139236001Y-95853500I-249999J0D01*
G01*
G37*
G36*
G01*
X139236001Y-98553500D02*
X138385999Y-98553500D01*
G75*
G02*
X138136000Y-98303501I0J249999D01*
G01*
X138136000Y-97403499D01*
G75*
G02*
X138385999Y-97153500I249999J0D01*
G01*
X139236001Y-97153500D01*
G75*
G02*
X139486000Y-97403499I0J-249999D01*
G01*
X139486000Y-98303501D01*
G75*
G02*
X139236001Y-98553500I-249999J0D01*
G01*
G37*
G36*
G01*
X141358500Y-103437500D02*
X141358500Y-102937500D01*
G75*
G02*
X141583500Y-102712500I225000J0D01*
G01*
X142033500Y-102712500D01*
G75*
G02*
X142258500Y-102937500I0J-225000D01*
G01*
X142258500Y-103437500D01*
G75*
G02*
X142033500Y-103662500I-225000J0D01*
G01*
X141583500Y-103662500D01*
G75*
G02*
X141358500Y-103437500I0J225000D01*
G01*
G37*
G36*
G01*
X139808500Y-103437500D02*
X139808500Y-102937500D01*
G75*
G02*
X140033500Y-102712500I225000J0D01*
G01*
X140483500Y-102712500D01*
G75*
G02*
X140708500Y-102937500I0J-225000D01*
G01*
X140708500Y-103437500D01*
G75*
G02*
X140483500Y-103662500I-225000J0D01*
G01*
X140033500Y-103662500D01*
G75*
G02*
X139808500Y-103437500I0J225000D01*
G01*
G37*
G36*
G01*
X140402500Y-97670500D02*
X140902500Y-97670500D01*
G75*
G02*
X141127500Y-97895500I0J-225000D01*
G01*
X141127500Y-98345500D01*
G75*
G02*
X140902500Y-98570500I-225000J0D01*
G01*
X140402500Y-98570500D01*
G75*
G02*
X140177500Y-98345500I0J225000D01*
G01*
X140177500Y-97895500D01*
G75*
G02*
X140402500Y-97670500I225000J0D01*
G01*
G37*
G36*
G01*
X140402500Y-96120500D02*
X140902500Y-96120500D01*
G75*
G02*
X141127500Y-96345500I0J-225000D01*
G01*
X141127500Y-96795500D01*
G75*
G02*
X140902500Y-97020500I-225000J0D01*
G01*
X140402500Y-97020500D01*
G75*
G02*
X140177500Y-96795500I0J225000D01*
G01*
X140177500Y-96345500D01*
G75*
G02*
X140402500Y-96120500I225000J0D01*
G01*
G37*
G36*
G01*
X134168000Y-108589000D02*
X134168000Y-109089000D01*
G75*
G02*
X133943000Y-109314000I-225000J0D01*
G01*
X133493000Y-109314000D01*
G75*
G02*
X133268000Y-109089000I0J225000D01*
G01*
X133268000Y-108589000D01*
G75*
G02*
X133493000Y-108364000I225000J0D01*
G01*
X133943000Y-108364000D01*
G75*
G02*
X134168000Y-108589000I0J-225000D01*
G01*
G37*
G36*
G01*
X135718000Y-108589000D02*
X135718000Y-109089000D01*
G75*
G02*
X135493000Y-109314000I-225000J0D01*
G01*
X135043000Y-109314000D01*
G75*
G02*
X134818000Y-109089000I0J225000D01*
G01*
X134818000Y-108589000D01*
G75*
G02*
X135043000Y-108364000I225000J0D01*
G01*
X135493000Y-108364000D01*
G75*
G02*
X135718000Y-108589000I0J-225000D01*
G01*
G37*
G36*
G01*
X159277499Y-99964000D02*
X160127501Y-99964000D01*
G75*
G02*
X160377500Y-100213999I0J-249999D01*
G01*
X160377500Y-101114001D01*
G75*
G02*
X160127501Y-101364000I-249999J0D01*
G01*
X159277499Y-101364000D01*
G75*
G02*
X159027500Y-101114001I0J249999D01*
G01*
X159027500Y-100213999D01*
G75*
G02*
X159277499Y-99964000I249999J0D01*
G01*
G37*
G36*
G01*
X159277499Y-97264000D02*
X160127501Y-97264000D01*
G75*
G02*
X160377500Y-97513999I0J-249999D01*
G01*
X160377500Y-98414001D01*
G75*
G02*
X160127501Y-98664000I-249999J0D01*
G01*
X159277499Y-98664000D01*
G75*
G02*
X159027500Y-98414001I0J249999D01*
G01*
X159027500Y-97513999D01*
G75*
G02*
X159277499Y-97264000I249999J0D01*
G01*
G37*
G36*
G01*
X153558000Y-95992501D02*
X153558000Y-95142499D01*
G75*
G02*
X153807999Y-94892500I249999J0D01*
G01*
X154708001Y-94892500D01*
G75*
G02*
X154958000Y-95142499I0J-249999D01*
G01*
X154958000Y-95992501D01*
G75*
G02*
X154708001Y-96242500I-249999J0D01*
G01*
X153807999Y-96242500D01*
G75*
G02*
X153558000Y-95992501I0J249999D01*
G01*
G37*
G36*
G01*
X150858000Y-95992501D02*
X150858000Y-95142499D01*
G75*
G02*
X151107999Y-94892500I249999J0D01*
G01*
X152008001Y-94892500D01*
G75*
G02*
X152258000Y-95142499I0J-249999D01*
G01*
X152258000Y-95992501D01*
G75*
G02*
X152008001Y-96242500I-249999J0D01*
G01*
X151107999Y-96242500D01*
G75*
G02*
X150858000Y-95992501I0J249999D01*
G01*
G37*
G36*
G01*
X137216000Y-113669000D02*
X137216000Y-114169000D01*
G75*
G02*
X136991000Y-114394000I-225000J0D01*
G01*
X136541000Y-114394000D01*
G75*
G02*
X136316000Y-114169000I0J225000D01*
G01*
X136316000Y-113669000D01*
G75*
G02*
X136541000Y-113444000I225000J0D01*
G01*
X136991000Y-113444000D01*
G75*
G02*
X137216000Y-113669000I0J-225000D01*
G01*
G37*
G36*
G01*
X138766000Y-113669000D02*
X138766000Y-114169000D01*
G75*
G02*
X138541000Y-114394000I-225000J0D01*
G01*
X138091000Y-114394000D01*
G75*
G02*
X137866000Y-114169000I0J225000D01*
G01*
X137866000Y-113669000D01*
G75*
G02*
X138091000Y-113444000I225000J0D01*
G01*
X138541000Y-113444000D01*
G75*
G02*
X138766000Y-113669000I0J-225000D01*
G01*
G37*
G36*
G01*
X158111000Y-99878000D02*
X157611000Y-99878000D01*
G75*
G02*
X157386000Y-99653000I0J225000D01*
G01*
X157386000Y-99203000D01*
G75*
G02*
X157611000Y-98978000I225000J0D01*
G01*
X158111000Y-98978000D01*
G75*
G02*
X158336000Y-99203000I0J-225000D01*
G01*
X158336000Y-99653000D01*
G75*
G02*
X158111000Y-99878000I-225000J0D01*
G01*
G37*
G36*
G01*
X158111000Y-101428000D02*
X157611000Y-101428000D01*
G75*
G02*
X157386000Y-101203000I0J225000D01*
G01*
X157386000Y-100753000D01*
G75*
G02*
X157611000Y-100528000I225000J0D01*
G01*
X158111000Y-100528000D01*
G75*
G02*
X158336000Y-100753000I0J-225000D01*
G01*
X158336000Y-101203000D01*
G75*
G02*
X158111000Y-101428000I-225000J0D01*
G01*
G37*
G36*
G01*
X152407500Y-97659000D02*
X152407500Y-97159000D01*
G75*
G02*
X152632500Y-96934000I225000J0D01*
G01*
X153082500Y-96934000D01*
G75*
G02*
X153307500Y-97159000I0J-225000D01*
G01*
X153307500Y-97659000D01*
G75*
G02*
X153082500Y-97884000I-225000J0D01*
G01*
X152632500Y-97884000D01*
G75*
G02*
X152407500Y-97659000I0J225000D01*
G01*
G37*
G36*
G01*
X150857500Y-97659000D02*
X150857500Y-97159000D01*
G75*
G02*
X151082500Y-96934000I225000J0D01*
G01*
X151532500Y-96934000D01*
G75*
G02*
X151757500Y-97159000I0J-225000D01*
G01*
X151757500Y-97659000D01*
G75*
G02*
X151532500Y-97884000I-225000J0D01*
G01*
X151082500Y-97884000D01*
G75*
G02*
X150857500Y-97659000I0J225000D01*
G01*
G37*
G36*
G01*
X132707500Y-97794000D02*
X132707500Y-98294000D01*
G75*
G02*
X132482500Y-98519000I-225000J0D01*
G01*
X132032500Y-98519000D01*
G75*
G02*
X131807500Y-98294000I0J225000D01*
G01*
X131807500Y-97794000D01*
G75*
G02*
X132032500Y-97569000I225000J0D01*
G01*
X132482500Y-97569000D01*
G75*
G02*
X132707500Y-97794000I0J-225000D01*
G01*
G37*
G36*
G01*
X134257500Y-97794000D02*
X134257500Y-98294000D01*
G75*
G02*
X134032500Y-98519000I-225000J0D01*
G01*
X133582500Y-98519000D01*
G75*
G02*
X133357500Y-98294000I0J225000D01*
G01*
X133357500Y-97794000D01*
G75*
G02*
X133582500Y-97569000I225000J0D01*
G01*
X134032500Y-97569000D01*
G75*
G02*
X134257500Y-97794000I0J-225000D01*
G01*
G37*
G36*
G01*
X167595999Y-116220000D02*
X168446001Y-116220000D01*
G75*
G02*
X168696000Y-116469999I0J-249999D01*
G01*
X168696000Y-117370001D01*
G75*
G02*
X168446001Y-117620000I-249999J0D01*
G01*
X167595999Y-117620000D01*
G75*
G02*
X167346000Y-117370001I0J249999D01*
G01*
X167346000Y-116469999D01*
G75*
G02*
X167595999Y-116220000I249999J0D01*
G01*
G37*
G36*
G01*
X167595999Y-113520000D02*
X168446001Y-113520000D01*
G75*
G02*
X168696000Y-113769999I0J-249999D01*
G01*
X168696000Y-114670001D01*
G75*
G02*
X168446001Y-114920000I-249999J0D01*
G01*
X167595999Y-114920000D01*
G75*
G02*
X167346000Y-114670001I0J249999D01*
G01*
X167346000Y-113769999D01*
G75*
G02*
X167595999Y-113520000I249999J0D01*
G01*
G37*
G36*
G01*
X166123500Y-111184500D02*
X166123500Y-110684500D01*
G75*
G02*
X166348500Y-110459500I225000J0D01*
G01*
X166798500Y-110459500D01*
G75*
G02*
X167023500Y-110684500I0J-225000D01*
G01*
X167023500Y-111184500D01*
G75*
G02*
X166798500Y-111409500I-225000J0D01*
G01*
X166348500Y-111409500D01*
G75*
G02*
X166123500Y-111184500I0J225000D01*
G01*
G37*
G36*
G01*
X164573500Y-111184500D02*
X164573500Y-110684500D01*
G75*
G02*
X164798500Y-110459500I225000J0D01*
G01*
X165248500Y-110459500D01*
G75*
G02*
X165473500Y-110684500I0J-225000D01*
G01*
X165473500Y-111184500D01*
G75*
G02*
X165248500Y-111409500I-225000J0D01*
G01*
X164798500Y-111409500D01*
G75*
G02*
X164573500Y-111184500I0J225000D01*
G01*
G37*
G36*
G01*
X155209000Y-116376001D02*
X155209000Y-115525999D01*
G75*
G02*
X155458999Y-115276000I249999J0D01*
G01*
X156359001Y-115276000D01*
G75*
G02*
X156609000Y-115525999I0J-249999D01*
G01*
X156609000Y-116376001D01*
G75*
G02*
X156359001Y-116626000I-249999J0D01*
G01*
X155458999Y-116626000D01*
G75*
G02*
X155209000Y-116376001I0J249999D01*
G01*
G37*
G36*
G01*
X152509000Y-116376001D02*
X152509000Y-115525999D01*
G75*
G02*
X152758999Y-115276000I249999J0D01*
G01*
X153659001Y-115276000D01*
G75*
G02*
X153909000Y-115525999I0J-249999D01*
G01*
X153909000Y-116376001D01*
G75*
G02*
X153659001Y-116626000I-249999J0D01*
G01*
X152758999Y-116626000D01*
G75*
G02*
X152509000Y-116376001I0J249999D01*
G01*
G37*
G36*
G01*
X165432500Y-109264001D02*
X165432500Y-108413999D01*
G75*
G02*
X165682499Y-108164000I249999J0D01*
G01*
X166582501Y-108164000D01*
G75*
G02*
X166832500Y-108413999I0J-249999D01*
G01*
X166832500Y-109264001D01*
G75*
G02*
X166582501Y-109514000I-249999J0D01*
G01*
X165682499Y-109514000D01*
G75*
G02*
X165432500Y-109264001I0J249999D01*
G01*
G37*
G36*
G01*
X162732500Y-109264001D02*
X162732500Y-108413999D01*
G75*
G02*
X162982499Y-108164000I249999J0D01*
G01*
X163882501Y-108164000D01*
G75*
G02*
X164132500Y-108413999I0J-249999D01*
G01*
X164132500Y-109264001D01*
G75*
G02*
X163882501Y-109514000I-249999J0D01*
G01*
X162982499Y-109514000D01*
G75*
G02*
X162732500Y-109264001I0J249999D01*
G01*
G37*
G36*
G01*
X153916500Y-113859500D02*
X153916500Y-114359500D01*
G75*
G02*
X153691500Y-114584500I-225000J0D01*
G01*
X153241500Y-114584500D01*
G75*
G02*
X153016500Y-114359500I0J225000D01*
G01*
X153016500Y-113859500D01*
G75*
G02*
X153241500Y-113634500I225000J0D01*
G01*
X153691500Y-113634500D01*
G75*
G02*
X153916500Y-113859500I0J-225000D01*
G01*
G37*
G36*
G01*
X155466500Y-113859500D02*
X155466500Y-114359500D01*
G75*
G02*
X155241500Y-114584500I-225000J0D01*
G01*
X154791500Y-114584500D01*
G75*
G02*
X154566500Y-114359500I0J225000D01*
G01*
X154566500Y-113859500D01*
G75*
G02*
X154791500Y-113634500I225000J0D01*
G01*
X155241500Y-113634500D01*
G75*
G02*
X155466500Y-113859500I0J-225000D01*
G01*
G37*
G36*
G01*
X161294000Y-109037000D02*
X161794000Y-109037000D01*
G75*
G02*
X162019000Y-109262000I0J-225000D01*
G01*
X162019000Y-109712000D01*
G75*
G02*
X161794000Y-109937000I-225000J0D01*
G01*
X161294000Y-109937000D01*
G75*
G02*
X161069000Y-109712000I0J225000D01*
G01*
X161069000Y-109262000D01*
G75*
G02*
X161294000Y-109037000I225000J0D01*
G01*
G37*
G36*
G01*
X161294000Y-107487000D02*
X161794000Y-107487000D01*
G75*
G02*
X162019000Y-107712000I0J-225000D01*
G01*
X162019000Y-108162000D01*
G75*
G02*
X161794000Y-108387000I-225000J0D01*
G01*
X161294000Y-108387000D01*
G75*
G02*
X161069000Y-108162000I0J225000D01*
G01*
X161069000Y-107712000D01*
G75*
G02*
X161294000Y-107487000I225000J0D01*
G01*
G37*
G36*
G01*
X128412000Y-105390501D02*
X128412000Y-104540499D01*
G75*
G02*
X128661999Y-104290500I249999J0D01*
G01*
X129562001Y-104290500D01*
G75*
G02*
X129812000Y-104540499I0J-249999D01*
G01*
X129812000Y-105390501D01*
G75*
G02*
X129562001Y-105640500I-249999J0D01*
G01*
X128661999Y-105640500D01*
G75*
G02*
X128412000Y-105390501I0J249999D01*
G01*
G37*
G36*
G01*
X125712000Y-105390501D02*
X125712000Y-104540499D01*
G75*
G02*
X125961999Y-104290500I249999J0D01*
G01*
X126862001Y-104290500D01*
G75*
G02*
X127112000Y-104540499I0J-249999D01*
G01*
X127112000Y-105390501D01*
G75*
G02*
X126862001Y-105640500I-249999J0D01*
G01*
X125961999Y-105640500D01*
G75*
G02*
X125712000Y-105390501I0J249999D01*
G01*
G37*
G36*
G01*
X130160000Y-95777499D02*
X130160000Y-96627501D01*
G75*
G02*
X129910001Y-96877500I-249999J0D01*
G01*
X129009999Y-96877500D01*
G75*
G02*
X128760000Y-96627501I0J249999D01*
G01*
X128760000Y-95777499D01*
G75*
G02*
X129009999Y-95527500I249999J0D01*
G01*
X129910001Y-95527500D01*
G75*
G02*
X130160000Y-95777499I0J-249999D01*
G01*
G37*
G36*
G01*
X132860000Y-95777499D02*
X132860000Y-96627501D01*
G75*
G02*
X132610001Y-96877500I-249999J0D01*
G01*
X131709999Y-96877500D01*
G75*
G02*
X131460000Y-96627501I0J249999D01*
G01*
X131460000Y-95777499D01*
G75*
G02*
X131709999Y-95527500I249999J0D01*
G01*
X132610001Y-95527500D01*
G75*
G02*
X132860000Y-95777499I0J-249999D01*
G01*
G37*
G36*
G01*
X125861000Y-110434000D02*
X126361000Y-110434000D01*
G75*
G02*
X126586000Y-110659000I0J-225000D01*
G01*
X126586000Y-111109000D01*
G75*
G02*
X126361000Y-111334000I-225000J0D01*
G01*
X125861000Y-111334000D01*
G75*
G02*
X125636000Y-111109000I0J225000D01*
G01*
X125636000Y-110659000D01*
G75*
G02*
X125861000Y-110434000I225000J0D01*
G01*
G37*
G36*
G01*
X125861000Y-108884000D02*
X126361000Y-108884000D01*
G75*
G02*
X126586000Y-109109000I0J-225000D01*
G01*
X126586000Y-109559000D01*
G75*
G02*
X126361000Y-109784000I-225000J0D01*
G01*
X125861000Y-109784000D01*
G75*
G02*
X125636000Y-109559000I0J225000D01*
G01*
X125636000Y-109109000D01*
G75*
G02*
X125861000Y-108884000I225000J0D01*
G01*
G37*
G36*
G01*
X130309500Y-103374000D02*
X130309500Y-102874000D01*
G75*
G02*
X130534500Y-102649000I225000J0D01*
G01*
X130984500Y-102649000D01*
G75*
G02*
X131209500Y-102874000I0J-225000D01*
G01*
X131209500Y-103374000D01*
G75*
G02*
X130984500Y-103599000I-225000J0D01*
G01*
X130534500Y-103599000D01*
G75*
G02*
X130309500Y-103374000I0J225000D01*
G01*
G37*
G36*
G01*
X128759500Y-103374000D02*
X128759500Y-102874000D01*
G75*
G02*
X128984500Y-102649000I225000J0D01*
G01*
X129434500Y-102649000D01*
G75*
G02*
X129659500Y-102874000I0J-225000D01*
G01*
X129659500Y-103374000D01*
G75*
G02*
X129434500Y-103599000I-225000J0D01*
G01*
X128984500Y-103599000D01*
G75*
G02*
X128759500Y-103374000I0J225000D01*
G01*
G37*
G36*
G01*
X135755500Y-97794000D02*
X135755500Y-98294000D01*
G75*
G02*
X135530500Y-98519000I-225000J0D01*
G01*
X135080500Y-98519000D01*
G75*
G02*
X134855500Y-98294000I0J225000D01*
G01*
X134855500Y-97794000D01*
G75*
G02*
X135080500Y-97569000I225000J0D01*
G01*
X135530500Y-97569000D01*
G75*
G02*
X135755500Y-97794000I0J-225000D01*
G01*
G37*
G36*
G01*
X137305500Y-97794000D02*
X137305500Y-98294000D01*
G75*
G02*
X137080500Y-98519000I-225000J0D01*
G01*
X136630500Y-98519000D01*
G75*
G02*
X136405500Y-98294000I0J225000D01*
G01*
X136405500Y-97794000D01*
G75*
G02*
X136630500Y-97569000I225000J0D01*
G01*
X137080500Y-97569000D01*
G75*
G02*
X137305500Y-97794000I0J-225000D01*
G01*
G37*
G36*
G01*
X125924500Y-102687000D02*
X126424500Y-102687000D01*
G75*
G02*
X126649500Y-102912000I0J-225000D01*
G01*
X126649500Y-103362000D01*
G75*
G02*
X126424500Y-103587000I-225000J0D01*
G01*
X125924500Y-103587000D01*
G75*
G02*
X125699500Y-103362000I0J225000D01*
G01*
X125699500Y-102912000D01*
G75*
G02*
X125924500Y-102687000I225000J0D01*
G01*
G37*
G36*
G01*
X125924500Y-101137000D02*
X126424500Y-101137000D01*
G75*
G02*
X126649500Y-101362000I0J-225000D01*
G01*
X126649500Y-101812000D01*
G75*
G02*
X126424500Y-102037000I-225000J0D01*
G01*
X125924500Y-102037000D01*
G75*
G02*
X125699500Y-101812000I0J225000D01*
G01*
X125699500Y-101362000D01*
G75*
G02*
X125924500Y-101137000I225000J0D01*
G01*
G37*
G36*
G01*
X128722000Y-114169000D02*
X128722000Y-113669000D01*
G75*
G02*
X128947000Y-113444000I225000J0D01*
G01*
X129397000Y-113444000D01*
G75*
G02*
X129622000Y-113669000I0J-225000D01*
G01*
X129622000Y-114169000D01*
G75*
G02*
X129397000Y-114394000I-225000J0D01*
G01*
X128947000Y-114394000D01*
G75*
G02*
X128722000Y-114169000I0J225000D01*
G01*
G37*
G36*
G01*
X127172000Y-114169000D02*
X127172000Y-113669000D01*
G75*
G02*
X127397000Y-113444000I225000J0D01*
G01*
X127847000Y-113444000D01*
G75*
G02*
X128072000Y-113669000I0J-225000D01*
G01*
X128072000Y-114169000D01*
G75*
G02*
X127847000Y-114394000I-225000J0D01*
G01*
X127397000Y-114394000D01*
G75*
G02*
X127172000Y-114169000I0J225000D01*
G01*
G37*
G36*
G01*
X140985000Y-116757001D02*
X140985000Y-115906999D01*
G75*
G02*
X141234999Y-115657000I249999J0D01*
G01*
X142135001Y-115657000D01*
G75*
G02*
X142385000Y-115906999I0J-249999D01*
G01*
X142385000Y-116757001D01*
G75*
G02*
X142135001Y-117007000I-249999J0D01*
G01*
X141234999Y-117007000D01*
G75*
G02*
X140985000Y-116757001I0J249999D01*
G01*
G37*
G36*
G01*
X138285000Y-116757001D02*
X138285000Y-115906999D01*
G75*
G02*
X138534999Y-115657000I249999J0D01*
G01*
X139435001Y-115657000D01*
G75*
G02*
X139685000Y-115906999I0J-249999D01*
G01*
X139685000Y-116757001D01*
G75*
G02*
X139435001Y-117007000I-249999J0D01*
G01*
X138534999Y-117007000D01*
G75*
G02*
X138285000Y-116757001I0J249999D01*
G01*
G37*
G36*
G01*
X141336000Y-105810499D02*
X141336000Y-106660501D01*
G75*
G02*
X141086001Y-106910500I-249999J0D01*
G01*
X140185999Y-106910500D01*
G75*
G02*
X139936000Y-106660501I0J249999D01*
G01*
X139936000Y-105810499D01*
G75*
G02*
X140185999Y-105560500I249999J0D01*
G01*
X141086001Y-105560500D01*
G75*
G02*
X141336000Y-105810499I0J-249999D01*
G01*
G37*
G36*
G01*
X144036000Y-105810499D02*
X144036000Y-106660501D01*
G75*
G02*
X143786001Y-106910500I-249999J0D01*
G01*
X142885999Y-106910500D01*
G75*
G02*
X142636000Y-106660501I0J249999D01*
G01*
X142636000Y-105810499D01*
G75*
G02*
X142885999Y-105560500I249999J0D01*
G01*
X143786001Y-105560500D01*
G75*
G02*
X144036000Y-105810499I0J-249999D01*
G01*
G37*
G36*
G01*
X144724000Y-115058000D02*
X144724000Y-114558000D01*
G75*
G02*
X144949000Y-114333000I225000J0D01*
G01*
X145399000Y-114333000D01*
G75*
G02*
X145624000Y-114558000I0J-225000D01*
G01*
X145624000Y-115058000D01*
G75*
G02*
X145399000Y-115283000I-225000J0D01*
G01*
X144949000Y-115283000D01*
G75*
G02*
X144724000Y-115058000I0J225000D01*
G01*
G37*
G36*
G01*
X143174000Y-115058000D02*
X143174000Y-114558000D01*
G75*
G02*
X143399000Y-114333000I225000J0D01*
G01*
X143849000Y-114333000D01*
G75*
G02*
X144074000Y-114558000I0J-225000D01*
G01*
X144074000Y-115058000D01*
G75*
G02*
X143849000Y-115283000I-225000J0D01*
G01*
X143399000Y-115283000D01*
G75*
G02*
X143174000Y-115058000I0J225000D01*
G01*
G37*
G36*
G01*
X147708500Y-109851000D02*
X147708500Y-109351000D01*
G75*
G02*
X147933500Y-109126000I225000J0D01*
G01*
X148383500Y-109126000D01*
G75*
G02*
X148608500Y-109351000I0J-225000D01*
G01*
X148608500Y-109851000D01*
G75*
G02*
X148383500Y-110076000I-225000J0D01*
G01*
X147933500Y-110076000D01*
G75*
G02*
X147708500Y-109851000I0J225000D01*
G01*
G37*
G36*
G01*
X146158500Y-109851000D02*
X146158500Y-109351000D01*
G75*
G02*
X146383500Y-109126000I225000J0D01*
G01*
X146833500Y-109126000D01*
G75*
G02*
X147058500Y-109351000I0J-225000D01*
G01*
X147058500Y-109851000D01*
G75*
G02*
X146833500Y-110076000I-225000J0D01*
G01*
X146383500Y-110076000D01*
G75*
G02*
X146158500Y-109851000I0J225000D01*
G01*
G37*
G36*
G01*
X131620500Y-115335499D02*
X131620500Y-116185501D01*
G75*
G02*
X131370501Y-116435500I-249999J0D01*
G01*
X130470499Y-116435500D01*
G75*
G02*
X130220500Y-116185501I0J249999D01*
G01*
X130220500Y-115335499D01*
G75*
G02*
X130470499Y-115085500I249999J0D01*
G01*
X131370501Y-115085500D01*
G75*
G02*
X131620500Y-115335499I0J-249999D01*
G01*
G37*
G36*
G01*
X134320500Y-115335499D02*
X134320500Y-116185501D01*
G75*
G02*
X134070501Y-116435500I-249999J0D01*
G01*
X133170499Y-116435500D01*
G75*
G02*
X132920500Y-116185501I0J249999D01*
G01*
X132920500Y-115335499D01*
G75*
G02*
X133170499Y-115085500I249999J0D01*
G01*
X134070501Y-115085500D01*
G75*
G02*
X134320500Y-115335499I0J-249999D01*
G01*
G37*
G36*
G01*
X133051100Y-106576599D02*
X133051100Y-107426601D01*
G75*
G02*
X132801101Y-107676600I-249999J0D01*
G01*
X131901099Y-107676600D01*
G75*
G02*
X131651100Y-107426601I0J249999D01*
G01*
X131651100Y-106576599D01*
G75*
G02*
X131901099Y-106326600I249999J0D01*
G01*
X132801101Y-106326600D01*
G75*
G02*
X133051100Y-106576599I0J-249999D01*
G01*
G37*
G36*
G01*
X135751100Y-106576599D02*
X135751100Y-107426601D01*
G75*
G02*
X135501101Y-107676600I-249999J0D01*
G01*
X134601099Y-107676600D01*
G75*
G02*
X134351100Y-107426601I0J249999D01*
G01*
X134351100Y-106576599D01*
G75*
G02*
X134601099Y-106326600I249999J0D01*
G01*
X135501101Y-106326600D01*
G75*
G02*
X135751100Y-106576599I0J-249999D01*
G01*
G37*
G36*
G01*
X131770000Y-114169000D02*
X131770000Y-113669000D01*
G75*
G02*
X131995000Y-113444000I225000J0D01*
G01*
X132445000Y-113444000D01*
G75*
G02*
X132670000Y-113669000I0J-225000D01*
G01*
X132670000Y-114169000D01*
G75*
G02*
X132445000Y-114394000I-225000J0D01*
G01*
X131995000Y-114394000D01*
G75*
G02*
X131770000Y-114169000I0J225000D01*
G01*
G37*
G36*
G01*
X130220000Y-114169000D02*
X130220000Y-113669000D01*
G75*
G02*
X130445000Y-113444000I225000J0D01*
G01*
X130895000Y-113444000D01*
G75*
G02*
X131120000Y-113669000I0J-225000D01*
G01*
X131120000Y-114169000D01*
G75*
G02*
X130895000Y-114394000I-225000J0D01*
G01*
X130445000Y-114394000D01*
G75*
G02*
X130220000Y-114169000I0J225000D01*
G01*
G37*
G36*
G01*
X137216000Y-106049000D02*
X137216000Y-106549000D01*
G75*
G02*
X136991000Y-106774000I-225000J0D01*
G01*
X136541000Y-106774000D01*
G75*
G02*
X136316000Y-106549000I0J225000D01*
G01*
X136316000Y-106049000D01*
G75*
G02*
X136541000Y-105824000I225000J0D01*
G01*
X136991000Y-105824000D01*
G75*
G02*
X137216000Y-106049000I0J-225000D01*
G01*
G37*
G36*
G01*
X138766000Y-106049000D02*
X138766000Y-106549000D01*
G75*
G02*
X138541000Y-106774000I-225000J0D01*
G01*
X138091000Y-106774000D01*
G75*
G02*
X137866000Y-106549000I0J225000D01*
G01*
X137866000Y-106049000D01*
G75*
G02*
X138091000Y-105824000I225000J0D01*
G01*
X138541000Y-105824000D01*
G75*
G02*
X138766000Y-106049000I0J-225000D01*
G01*
G37*
G36*
G01*
X166304099Y-103427500D02*
X168154101Y-103427500D01*
G75*
G02*
X168404100Y-103677499I0J-249999D01*
G01*
X168404100Y-104502501D01*
G75*
G02*
X168154101Y-104752500I-249999J0D01*
G01*
X166304099Y-104752500D01*
G75*
G02*
X166054100Y-104502501I0J249999D01*
G01*
X166054100Y-103677499D01*
G75*
G02*
X166304099Y-103427500I249999J0D01*
G01*
G37*
G36*
G01*
X166304099Y-100352500D02*
X168154101Y-100352500D01*
G75*
G02*
X168404100Y-100602499I0J-249999D01*
G01*
X168404100Y-101427501D01*
G75*
G02*
X168154101Y-101677500I-249999J0D01*
G01*
X166304099Y-101677500D01*
G75*
G02*
X166054100Y-101427501I0J249999D01*
G01*
X166054100Y-100602499D01*
G75*
G02*
X166304099Y-100352500I249999J0D01*
G01*
G37*
G36*
G01*
X165032500Y-102291000D02*
X164532500Y-102291000D01*
G75*
G02*
X164307500Y-102066000I0J225000D01*
G01*
X164307500Y-101616000D01*
G75*
G02*
X164532500Y-101391000I225000J0D01*
G01*
X165032500Y-101391000D01*
G75*
G02*
X165257500Y-101616000I0J-225000D01*
G01*
X165257500Y-102066000D01*
G75*
G02*
X165032500Y-102291000I-225000J0D01*
G01*
G37*
G36*
G01*
X165032500Y-103841000D02*
X164532500Y-103841000D01*
G75*
G02*
X164307500Y-103616000I0J225000D01*
G01*
X164307500Y-103166000D01*
G75*
G02*
X164532500Y-102941000I225000J0D01*
G01*
X165032500Y-102941000D01*
G75*
G02*
X165257500Y-103166000I0J-225000D01*
G01*
X165257500Y-103616000D01*
G75*
G02*
X165032500Y-103841000I-225000J0D01*
G01*
G37*
G36*
G01*
X168154101Y-96728600D02*
X166304099Y-96728600D01*
G75*
G02*
X166054100Y-96478601I0J249999D01*
G01*
X166054100Y-95653599D01*
G75*
G02*
X166304099Y-95403600I249999J0D01*
G01*
X168154101Y-95403600D01*
G75*
G02*
X168404100Y-95653599I0J-249999D01*
G01*
X168404100Y-96478601D01*
G75*
G02*
X168154101Y-96728600I-249999J0D01*
G01*
G37*
G36*
G01*
X168154101Y-99803600D02*
X166304099Y-99803600D01*
G75*
G02*
X166054100Y-99553601I0J249999D01*
G01*
X166054100Y-98728599D01*
G75*
G02*
X166304099Y-98478600I249999J0D01*
G01*
X168154101Y-98478600D01*
G75*
G02*
X168404100Y-98728599I0J-249999D01*
G01*
X168404100Y-99553601D01*
G75*
G02*
X168154101Y-99803600I-249999J0D01*
G01*
G37*
G36*
G01*
X165032500Y-99306500D02*
X164532500Y-99306500D01*
G75*
G02*
X164307500Y-99081500I0J225000D01*
G01*
X164307500Y-98631500D01*
G75*
G02*
X164532500Y-98406500I225000J0D01*
G01*
X165032500Y-98406500D01*
G75*
G02*
X165257500Y-98631500I0J-225000D01*
G01*
X165257500Y-99081500D01*
G75*
G02*
X165032500Y-99306500I-225000J0D01*
G01*
G37*
G36*
G01*
X165032500Y-100856500D02*
X164532500Y-100856500D01*
G75*
G02*
X164307500Y-100631500I0J225000D01*
G01*
X164307500Y-100181500D01*
G75*
G02*
X164532500Y-99956500I225000J0D01*
G01*
X165032500Y-99956500D01*
G75*
G02*
X165257500Y-100181500I0J-225000D01*
G01*
X165257500Y-100631500D01*
G75*
G02*
X165032500Y-100856500I-225000J0D01*
G01*
G37*
G36*
G01*
X161155500Y-114367500D02*
X161155500Y-114867500D01*
G75*
G02*
X160930500Y-115092500I-225000J0D01*
G01*
X160480500Y-115092500D01*
G75*
G02*
X160255500Y-114867500I0J225000D01*
G01*
X160255500Y-114367500D01*
G75*
G02*
X160480500Y-114142500I225000J0D01*
G01*
X160930500Y-114142500D01*
G75*
G02*
X161155500Y-114367500I0J-225000D01*
G01*
G37*
G36*
G01*
X162705500Y-114367500D02*
X162705500Y-114867500D01*
G75*
G02*
X162480500Y-115092500I-225000J0D01*
G01*
X162030500Y-115092500D01*
G75*
G02*
X161805500Y-114867500I0J225000D01*
G01*
X161805500Y-114367500D01*
G75*
G02*
X162030500Y-114142500I225000J0D01*
G01*
X162480500Y-114142500D01*
G75*
G02*
X162705500Y-114367500I0J-225000D01*
G01*
G37*
G36*
G01*
X167460500Y-94566501D02*
X167460500Y-93266499D01*
G75*
G02*
X167710499Y-93016500I249999J0D01*
G01*
X168360501Y-93016500D01*
G75*
G02*
X168610500Y-93266499I0J-249999D01*
G01*
X168610500Y-94566501D01*
G75*
G02*
X168360501Y-94816500I-249999J0D01*
G01*
X167710499Y-94816500D01*
G75*
G02*
X167460500Y-94566501I0J249999D01*
G01*
G37*
G36*
G01*
X164510500Y-94566501D02*
X164510500Y-93266499D01*
G75*
G02*
X164760499Y-93016500I249999J0D01*
G01*
X165410501Y-93016500D01*
G75*
G02*
X165660500Y-93266499I0J-249999D01*
G01*
X165660500Y-94566501D01*
G75*
G02*
X165410501Y-94816500I-249999J0D01*
G01*
X164760499Y-94816500D01*
G75*
G02*
X164510500Y-94566501I0J249999D01*
G01*
G37*
G36*
G01*
X165032500Y-96322000D02*
X164532500Y-96322000D01*
G75*
G02*
X164307500Y-96097000I0J225000D01*
G01*
X164307500Y-95647000D01*
G75*
G02*
X164532500Y-95422000I225000J0D01*
G01*
X165032500Y-95422000D01*
G75*
G02*
X165257500Y-95647000I0J-225000D01*
G01*
X165257500Y-96097000D01*
G75*
G02*
X165032500Y-96322000I-225000J0D01*
G01*
G37*
G36*
G01*
X165032500Y-97872000D02*
X164532500Y-97872000D01*
G75*
G02*
X164307500Y-97647000I0J225000D01*
G01*
X164307500Y-97197000D01*
G75*
G02*
X164532500Y-96972000I225000J0D01*
G01*
X165032500Y-96972000D01*
G75*
G02*
X165257500Y-97197000I0J-225000D01*
G01*
X165257500Y-97647000D01*
G75*
G02*
X165032500Y-97872000I-225000J0D01*
G01*
G37*
G36*
G01*
X144010500Y-107827000D02*
X144010500Y-108327000D01*
G75*
G02*
X143785500Y-108552000I-225000J0D01*
G01*
X143335500Y-108552000D01*
G75*
G02*
X143110500Y-108327000I0J225000D01*
G01*
X143110500Y-107827000D01*
G75*
G02*
X143335500Y-107602000I225000J0D01*
G01*
X143785500Y-107602000D01*
G75*
G02*
X144010500Y-107827000I0J-225000D01*
G01*
G37*
G36*
G01*
X145560500Y-107827000D02*
X145560500Y-108327000D01*
G75*
G02*
X145335500Y-108552000I-225000J0D01*
G01*
X144885500Y-108552000D01*
G75*
G02*
X144660500Y-108327000I0J225000D01*
G01*
X144660500Y-107827000D01*
G75*
G02*
X144885500Y-107602000I225000J0D01*
G01*
X145335500Y-107602000D01*
G75*
G02*
X145560500Y-107827000I0J-225000D01*
G01*
G37*
G36*
G01*
X147742100Y-116582000D02*
X147742100Y-116082000D01*
G75*
G02*
X147967100Y-115857000I225000J0D01*
G01*
X148417100Y-115857000D01*
G75*
G02*
X148642100Y-116082000I0J-225000D01*
G01*
X148642100Y-116582000D01*
G75*
G02*
X148417100Y-116807000I-225000J0D01*
G01*
X147967100Y-116807000D01*
G75*
G02*
X147742100Y-116582000I0J225000D01*
G01*
G37*
G36*
G01*
X146192100Y-116582000D02*
X146192100Y-116082000D01*
G75*
G02*
X146417100Y-115857000I225000J0D01*
G01*
X146867100Y-115857000D01*
G75*
G02*
X147092100Y-116082000I0J-225000D01*
G01*
X147092100Y-116582000D01*
G75*
G02*
X146867100Y-116807000I-225000J0D01*
G01*
X146417100Y-116807000D01*
G75*
G02*
X146192100Y-116582000I0J225000D01*
G01*
G37*
G36*
G01*
X151697500Y-116070500D02*
X151197500Y-116070500D01*
G75*
G02*
X150972500Y-115845500I0J225000D01*
G01*
X150972500Y-115395500D01*
G75*
G02*
X151197500Y-115170500I225000J0D01*
G01*
X151697500Y-115170500D01*
G75*
G02*
X151922500Y-115395500I0J-225000D01*
G01*
X151922500Y-115845500D01*
G75*
G02*
X151697500Y-116070500I-225000J0D01*
G01*
G37*
G36*
G01*
X151697500Y-117620500D02*
X151197500Y-117620500D01*
G75*
G02*
X150972500Y-117395500I0J225000D01*
G01*
X150972500Y-116945500D01*
G75*
G02*
X151197500Y-116720500I225000J0D01*
G01*
X151697500Y-116720500D01*
G75*
G02*
X151922500Y-116945500I0J-225000D01*
G01*
X151922500Y-117395500D01*
G75*
G02*
X151697500Y-117620500I-225000J0D01*
G01*
G37*
M02*
