M48
; DRILL file {KiCad 5.1.10-88a1d61d58~88~ubuntu18.04.1} date Fri Oct  1 18:12:47 2021
; FORMAT={-:-/ absolute / metric / decimal}
; #@! TF.CreationDate,2021-10-01T18:12:47+02:00
; #@! TF.GenerationSoftware,Kicad,Pcbnew,5.1.10-88a1d61d58~88~ubuntu18.04.1
; #@! TF.FileFunction,Plated,1,2,PTH
FMAT,2
METRIC
T1C0.400
T2C0.500
T3C3.000
%
G90
G05
T1
X117.361Y-100.495
X123.812Y-100.901
X127.762Y-104.838
X127.762Y-105.588
X131.318Y-99.504
X131.572Y-100.965
X131.572Y-101.79
X133.769Y-107.759
X136.398Y-94.043
X137.274Y-102.476
X137.706Y-98.755
X139.382Y-96.456
X139.382Y-108.077
X140.335Y-116.637
X141.16Y-110.63
X142.621Y-101.686
X142.977Y-99.276
X146.685Y-110.744
X147.422Y-115.519
X147.516Y-98.857
X147.637Y-94.615
X149.908Y-96.965
X150.134Y-95.921
X150.749Y-92.646
X151.194Y-101.854
X151.194Y-110.045
X152.527Y-114.744
X153.48Y-99.251
X154.242Y-92.964
X154.559Y-115.57
X159.296Y-99.377
X160.464Y-99.377
X160.782Y-110.299
X160.843Y-102.596
X162.369Y-118.11
X163.967Y-102.616
X164.084Y-113.157
X164.719Y-108.839
X164.782Y-105.918
X165.618Y-102.606
X165.798Y-113.221
X166.355Y-102.865
X166.365Y-97.521
X166.497Y-94.361
X166.624Y-93.091
X167.386Y-97.599
X167.399Y-90.691
X168.656Y-105.346
X172.339Y-113.855
X172.403Y-115.824
X177.932Y-101.945
T2
X119.507Y-107.378
X119.634Y-101.6
X121.666Y-104.902
X121.92Y-104.013
X122.428Y-109.345
X122.428Y-115.379
X122.555Y-104.648
X122.555Y-110.236
X123.317Y-109.728
X123.888Y-89.535
X123.952Y-106.236
X123.952Y-107.188
X124.587Y-116.332
X124.904Y-110.236
X124.968Y-107.188
X125.476Y-116.332
X127.762Y-107.315
X128.397Y-116.586
X128.651Y-107.315
X129.54Y-107.315
X130.746Y-94.551
X132.651Y-111.887
X133.921Y-94.488
X134.112Y-104.648
X134.112Y-120.904
X134.683Y-88.265
X136.017Y-116.586
X138.367Y-92.964
X139.319Y-92.964
X141.986Y-120.65
X145.288Y-111.76
X145.288Y-118.364
X146.304Y-113.221
X147.574Y-100.393
X148.145Y-105.156
X148.209Y-118.491
X148.272Y-88.265
X148.78Y-105.855
X149.098Y-118.491
X149.606Y-120.84
X151.257Y-104.013
X153.67Y-108.521
X155.194Y-102.425
X157.226Y-95.123
X157.671Y-120.587
X157.861Y-108.458
X157.988Y-92.964
X159.321Y-96.075
X162.052Y-92.202
X162.243Y-94.17
X162.306Y-104.838
X162.75Y-88.265
X162.75Y-111.633
X162.814Y-91.821
X162.814Y-92.71
X163.258Y-104.838
X164.211Y-104.838
X165.227Y-91.313
X165.227Y-92.202
X165.989Y-91.694
X166.433Y-120.396
X167.767Y-106.553
X168.656Y-97.409
X168.656Y-106.553
X169.1Y-98.234
X169.545Y-97.409
X169.672Y-103.441
X169.672Y-104.953
X170.37Y-111.633
X170.879Y-118.618
X172.339Y-108.902
X172.91Y-100.139
X173.418Y-100.965
X173.863Y-100.139
X175.133Y-100.393
X176.276Y-100.393
X176.784Y-107.759
X177.482Y-100.393
T3
X118.618Y-90.17
X118.618Y-119.888
X175.514Y-90.17
X175.514Y-119.888
T0
M30
