%FSLAX45Y45*%
G04 Gerber Fmt 4.5, Leading zero omitted, Abs format (unit mm)*
G04 Created by KiCad (PCBNEW 5.1.10-88a1d61d58~88~ubuntu18.04.1) date 2021-10-01 18:12:47*
%MOMM*%
%LPD*%
G01*
G04 APERTURE LIST*
%TA.AperFunction,Profile*%
%ADD10C,0.050000*%
%TD*%
%ADD11C,0.200000*%
%ADD12C,0.300000*%
G04 APERTURE END LIST*
D10*
X11557310Y-12300360D02*
X17863510Y-12300360D01*
X17863510Y-12300360D02*
X17863510Y-8700360D01*
X17863510Y-8700360D02*
X11557310Y-8700360D01*
X11557310Y-8700360D02*
X11557310Y-12300360D01*
D11*
X11716070Y-10029510D02*
X11756070Y-10069510D01*
X11756070Y-10029510D02*
X11716070Y-10069510D01*
X12361230Y-10070150D02*
X12401230Y-10110150D01*
X12401230Y-10070150D02*
X12361230Y-10110150D01*
X12756200Y-10463850D02*
X12796200Y-10503850D01*
X12796200Y-10463850D02*
X12756200Y-10503850D01*
X12756200Y-10538780D02*
X12796200Y-10578780D01*
X12796200Y-10538780D02*
X12756200Y-10578780D01*
X13111800Y-9930450D02*
X13151800Y-9970450D01*
X13151800Y-9930450D02*
X13111800Y-9970450D01*
X13137200Y-10076500D02*
X13177200Y-10116500D01*
X13177200Y-10076500D02*
X13137200Y-10116500D01*
X13137200Y-10159050D02*
X13177200Y-10199050D01*
X13177200Y-10159050D02*
X13137200Y-10199050D01*
X13356910Y-10755950D02*
X13396910Y-10795950D01*
X13396910Y-10755950D02*
X13356910Y-10795950D01*
X13619800Y-9384350D02*
X13659800Y-9424350D01*
X13659800Y-9384350D02*
X13619800Y-9424350D01*
X13707430Y-10227630D02*
X13747430Y-10267630D01*
X13747430Y-10227630D02*
X13707430Y-10267630D01*
X13750610Y-9855520D02*
X13790610Y-9895520D01*
X13790610Y-9855520D02*
X13750610Y-9895520D01*
X13918250Y-9625650D02*
X13958250Y-9665650D01*
X13958250Y-9625650D02*
X13918250Y-9665650D01*
X13918250Y-10787700D02*
X13958250Y-10827700D01*
X13958250Y-10787700D02*
X13918250Y-10827700D01*
X14013500Y-11643680D02*
X14053500Y-11683680D01*
X14053500Y-11643680D02*
X14013500Y-11683680D01*
X14096050Y-11042970D02*
X14136050Y-11082970D01*
X14136050Y-11042970D02*
X14096050Y-11082970D01*
X14242100Y-10148636D02*
X14282100Y-10188636D01*
X14282100Y-10148636D02*
X14242100Y-10188636D01*
X14277660Y-9907590D02*
X14317660Y-9947590D01*
X14317660Y-9907590D02*
X14277660Y-9947590D01*
X14648500Y-11054400D02*
X14688500Y-11094400D01*
X14688500Y-11054400D02*
X14648500Y-11094400D01*
X14722160Y-11531920D02*
X14762160Y-11571920D01*
X14762160Y-11531920D02*
X14722160Y-11571920D01*
X14731558Y-9865680D02*
X14771558Y-9905680D01*
X14771558Y-9865680D02*
X14731558Y-9905680D01*
X14743750Y-9441500D02*
X14783750Y-9481500D01*
X14783750Y-9441500D02*
X14743750Y-9481500D01*
X14970780Y-9676450D02*
X15010780Y-9716450D01*
X15010780Y-9676450D02*
X14970780Y-9716450D01*
X14993432Y-9572056D02*
X15033432Y-9612056D01*
X15033432Y-9572056D02*
X14993432Y-9612056D01*
X15054900Y-9244650D02*
X15094900Y-9284650D01*
X15094900Y-9244650D02*
X15054900Y-9284650D01*
X15099350Y-10165400D02*
X15139350Y-10205400D01*
X15139350Y-10165400D02*
X15099350Y-10205400D01*
X15099350Y-10984550D02*
X15139350Y-11024550D01*
X15139350Y-10984550D02*
X15099350Y-11024550D01*
X15232700Y-11454450D02*
X15272700Y-11494450D01*
X15272700Y-11454450D02*
X15232700Y-11494450D01*
X15327950Y-9905050D02*
X15367950Y-9945050D01*
X15367950Y-9905050D02*
X15327950Y-9945050D01*
X15404150Y-9276400D02*
X15444150Y-9316400D01*
X15444150Y-9276400D02*
X15404150Y-9316400D01*
X15435900Y-11537000D02*
X15475900Y-11577000D01*
X15475900Y-11537000D02*
X15435900Y-11577000D01*
X15909610Y-9917750D02*
X15949610Y-9957750D01*
X15949610Y-9917750D02*
X15909610Y-9957750D01*
X16026450Y-9917750D02*
X16066450Y-9957750D01*
X16066450Y-9917750D02*
X16026450Y-9957750D01*
X16058200Y-11009950D02*
X16098200Y-11049950D01*
X16098200Y-11009950D02*
X16058200Y-11049950D01*
X16064296Y-10239568D02*
X16104296Y-10279568D01*
X16104296Y-10239568D02*
X16064296Y-10279568D01*
X16216950Y-11791000D02*
X16256950Y-11831000D01*
X16256950Y-11791000D02*
X16216950Y-11831000D01*
X16376716Y-10241600D02*
X16416716Y-10281600D01*
X16416716Y-10241600D02*
X16376716Y-10281600D01*
X16388400Y-11295700D02*
X16428400Y-11335700D01*
X16428400Y-11295700D02*
X16388400Y-11335700D01*
X16451900Y-10863900D02*
X16491900Y-10903900D01*
X16491900Y-10863900D02*
X16451900Y-10903900D01*
X16458250Y-10571800D02*
X16498250Y-10611800D01*
X16498250Y-10571800D02*
X16458250Y-10611800D01*
X16541816Y-10240584D02*
X16581816Y-10280584D01*
X16581816Y-10240584D02*
X16541816Y-10280584D01*
X16559850Y-11302050D02*
X16599850Y-11342050D01*
X16599850Y-11302050D02*
X16559850Y-11342050D01*
X16615476Y-10266492D02*
X16655476Y-10306492D01*
X16655476Y-10266492D02*
X16615476Y-10306492D01*
X16616492Y-9732076D02*
X16656492Y-9772076D01*
X16656492Y-9732076D02*
X16616492Y-9772076D01*
X16629700Y-9416100D02*
X16669700Y-9456100D01*
X16669700Y-9416100D02*
X16629700Y-9456100D01*
X16642400Y-9289100D02*
X16682400Y-9329100D01*
X16682400Y-9289100D02*
X16642400Y-9329100D01*
X16718600Y-9739950D02*
X16758600Y-9779950D01*
X16758600Y-9739950D02*
X16718600Y-9779950D01*
X16719870Y-9049070D02*
X16759870Y-9089070D01*
X16759870Y-9049070D02*
X16719870Y-9089070D01*
X16845600Y-10514650D02*
X16885600Y-10554650D01*
X16885600Y-10514650D02*
X16845600Y-10554650D01*
X17213900Y-11365550D02*
X17253900Y-11405550D01*
X17253900Y-11365550D02*
X17213900Y-11405550D01*
X17220250Y-11562400D02*
X17260250Y-11602400D01*
X17260250Y-11562400D02*
X17220250Y-11602400D01*
X17773208Y-10174544D02*
X17813208Y-10214544D01*
X17813208Y-10174544D02*
X17773208Y-10214544D01*
X11975700Y-10737850D02*
G75*
G03*
X11975700Y-10737850I-25000J0D01*
G01*
X11988400Y-10160000D02*
G75*
G03*
X11988400Y-10160000I-25000J0D01*
G01*
X12191600Y-10490200D02*
G75*
G03*
X12191600Y-10490200I-25000J0D01*
G01*
X12217000Y-10401300D02*
G75*
G03*
X12217000Y-10401300I-25000J0D01*
G01*
X12267800Y-10934500D02*
G75*
G03*
X12267800Y-10934500I-25000J0D01*
G01*
X12267800Y-11537950D02*
G75*
G03*
X12267800Y-11537950I-25000J0D01*
G01*
X12280500Y-10464800D02*
G75*
G03*
X12280500Y-10464800I-25000J0D01*
G01*
X12280500Y-11023600D02*
G75*
G03*
X12280500Y-11023600I-25000J0D01*
G01*
X12356700Y-10972800D02*
G75*
G03*
X12356700Y-10972800I-25000J0D01*
G01*
X12413850Y-8953500D02*
G75*
G03*
X12413850Y-8953500I-25000J0D01*
G01*
X12420200Y-10623550D02*
G75*
G03*
X12420200Y-10623550I-25000J0D01*
G01*
X12420200Y-10718800D02*
G75*
G03*
X12420200Y-10718800I-25000J0D01*
G01*
X12483700Y-11633200D02*
G75*
G03*
X12483700Y-11633200I-25000J0D01*
G01*
X12515450Y-11023600D02*
G75*
G03*
X12515450Y-11023600I-25000J0D01*
G01*
X12521800Y-10718800D02*
G75*
G03*
X12521800Y-10718800I-25000J0D01*
G01*
X12572600Y-11633200D02*
G75*
G03*
X12572600Y-11633200I-25000J0D01*
G01*
X12801200Y-10731500D02*
G75*
G03*
X12801200Y-10731500I-25000J0D01*
G01*
X12864700Y-11658600D02*
G75*
G03*
X12864700Y-11658600I-25000J0D01*
G01*
X12890100Y-10731500D02*
G75*
G03*
X12890100Y-10731500I-25000J0D01*
G01*
X12979000Y-10731500D02*
G75*
G03*
X12979000Y-10731500I-25000J0D01*
G01*
X13099650Y-9455150D02*
G75*
G03*
X13099650Y-9455150I-25000J0D01*
G01*
X13290150Y-11188700D02*
G75*
G03*
X13290150Y-11188700I-25000J0D01*
G01*
X13417150Y-9448800D02*
G75*
G03*
X13417150Y-9448800I-25000J0D01*
G01*
X13436200Y-10464800D02*
G75*
G03*
X13436200Y-10464800I-25000J0D01*
G01*
X13436200Y-12090400D02*
G75*
G03*
X13436200Y-12090400I-25000J0D01*
G01*
X13493350Y-8826500D02*
G75*
G03*
X13493350Y-8826500I-25000J0D01*
G01*
X13626700Y-11658600D02*
G75*
G03*
X13626700Y-11658600I-25000J0D01*
G01*
X13861650Y-9296400D02*
G75*
G03*
X13861650Y-9296400I-25000J0D01*
G01*
X13956900Y-9296400D02*
G75*
G03*
X13956900Y-9296400I-25000J0D01*
G01*
X14223600Y-12065000D02*
G75*
G03*
X14223600Y-12065000I-25000J0D01*
G01*
X14553800Y-11176000D02*
G75*
G03*
X14553800Y-11176000I-25000J0D01*
G01*
X14553800Y-11836400D02*
G75*
G03*
X14553800Y-11836400I-25000J0D01*
G01*
X14655400Y-11322050D02*
G75*
G03*
X14655400Y-11322050I-25000J0D01*
G01*
X14782400Y-10039350D02*
G75*
G03*
X14782400Y-10039350I-25000J0D01*
G01*
X14839550Y-10515600D02*
G75*
G03*
X14839550Y-10515600I-25000J0D01*
G01*
X14845900Y-11849100D02*
G75*
G03*
X14845900Y-11849100I-25000J0D01*
G01*
X14852250Y-8826500D02*
G75*
G03*
X14852250Y-8826500I-25000J0D01*
G01*
X14903050Y-10585450D02*
G75*
G03*
X14903050Y-10585450I-25000J0D01*
G01*
X14934800Y-11849100D02*
G75*
G03*
X14934800Y-11849100I-25000J0D01*
G01*
X14985600Y-12084050D02*
G75*
G03*
X14985600Y-12084050I-25000J0D01*
G01*
X15150700Y-10401300D02*
G75*
G03*
X15150700Y-10401300I-25000J0D01*
G01*
X15392000Y-10852150D02*
G75*
G03*
X15392000Y-10852150I-25000J0D01*
G01*
X15544400Y-10242550D02*
G75*
G03*
X15544400Y-10242550I-25000J0D01*
G01*
X15747600Y-9512300D02*
G75*
G03*
X15747600Y-9512300I-25000J0D01*
G01*
X15792050Y-12058650D02*
G75*
G03*
X15792050Y-12058650I-25000J0D01*
G01*
X15811100Y-10845800D02*
G75*
G03*
X15811100Y-10845800I-25000J0D01*
G01*
X15823800Y-9296400D02*
G75*
G03*
X15823800Y-9296400I-25000J0D01*
G01*
X15957150Y-9607550D02*
G75*
G03*
X15957150Y-9607550I-25000J0D01*
G01*
X16230200Y-9220200D02*
G75*
G03*
X16230200Y-9220200I-25000J0D01*
G01*
X16249250Y-9417050D02*
G75*
G03*
X16249250Y-9417050I-25000J0D01*
G01*
X16255600Y-10483850D02*
G75*
G03*
X16255600Y-10483850I-25000J0D01*
G01*
X16300050Y-8826500D02*
G75*
G03*
X16300050Y-8826500I-25000J0D01*
G01*
X16300050Y-11163300D02*
G75*
G03*
X16300050Y-11163300I-25000J0D01*
G01*
X16306400Y-9182100D02*
G75*
G03*
X16306400Y-9182100I-25000J0D01*
G01*
X16306400Y-9271000D02*
G75*
G03*
X16306400Y-9271000I-25000J0D01*
G01*
X16350850Y-10483850D02*
G75*
G03*
X16350850Y-10483850I-25000J0D01*
G01*
X16446100Y-10483850D02*
G75*
G03*
X16446100Y-10483850I-25000J0D01*
G01*
X16547700Y-9131300D02*
G75*
G03*
X16547700Y-9131300I-25000J0D01*
G01*
X16547700Y-9220200D02*
G75*
G03*
X16547700Y-9220200I-25000J0D01*
G01*
X16623900Y-9169400D02*
G75*
G03*
X16623900Y-9169400I-25000J0D01*
G01*
X16668350Y-12039600D02*
G75*
G03*
X16668350Y-12039600I-25000J0D01*
G01*
X16801700Y-10655300D02*
G75*
G03*
X16801700Y-10655300I-25000J0D01*
G01*
X16890600Y-9740900D02*
G75*
G03*
X16890600Y-9740900I-25000J0D01*
G01*
X16890600Y-10655300D02*
G75*
G03*
X16890600Y-10655300I-25000J0D01*
G01*
X16935050Y-9823450D02*
G75*
G03*
X16935050Y-9823450I-25000J0D01*
G01*
X16979500Y-9740900D02*
G75*
G03*
X16979500Y-9740900I-25000J0D01*
G01*
X16992200Y-10344150D02*
G75*
G03*
X16992200Y-10344150I-25000J0D01*
G01*
X16992200Y-10495280D02*
G75*
G03*
X16992200Y-10495280I-25000J0D01*
G01*
X17062050Y-11163300D02*
G75*
G03*
X17062050Y-11163300I-25000J0D01*
G01*
X17112850Y-11861800D02*
G75*
G03*
X17112850Y-11861800I-25000J0D01*
G01*
X17258900Y-10890250D02*
G75*
G03*
X17258900Y-10890250I-25000J0D01*
G01*
X17316050Y-10013950D02*
G75*
G03*
X17316050Y-10013950I-25000J0D01*
G01*
X17366850Y-10096500D02*
G75*
G03*
X17366850Y-10096500I-25000J0D01*
G01*
X17411300Y-10013950D02*
G75*
G03*
X17411300Y-10013950I-25000J0D01*
G01*
X17538300Y-10039350D02*
G75*
G03*
X17538300Y-10039350I-25000J0D01*
G01*
X17652600Y-10039350D02*
G75*
G03*
X17652600Y-10039350I-25000J0D01*
G01*
X17703400Y-10775950D02*
G75*
G03*
X17703400Y-10775950I-25000J0D01*
G01*
X17773250Y-10039350D02*
G75*
G03*
X17773250Y-10039350I-25000J0D01*
G01*
X11861800Y-8867000D02*
X11861800Y-9167000D01*
X11711800Y-9017000D02*
X12011800Y-9017000D01*
X11861800Y-11838800D02*
X11861800Y-12138800D01*
X11711800Y-11988800D02*
X12011800Y-11988800D01*
X17551400Y-8867000D02*
X17551400Y-9167000D01*
X17401400Y-9017000D02*
X17701400Y-9017000D01*
X17551400Y-11838800D02*
X17551400Y-12138800D01*
X17401400Y-11988800D02*
X17701400Y-11988800D01*
D12*
X11841238Y-12768574D02*
X11841238Y-12468574D01*
X11912667Y-12468574D01*
X11955524Y-12482860D01*
X11984096Y-12511431D01*
X11998381Y-12540003D01*
X12012667Y-12597146D01*
X12012667Y-12640003D01*
X11998381Y-12697146D01*
X11984096Y-12725717D01*
X11955524Y-12754289D01*
X11912667Y-12768574D01*
X11841238Y-12768574D01*
X12141238Y-12768574D02*
X12141238Y-12568574D01*
X12141238Y-12625717D02*
X12155524Y-12597146D01*
X12169810Y-12582860D01*
X12198381Y-12568574D01*
X12226953Y-12568574D01*
X12326953Y-12768574D02*
X12326953Y-12568574D01*
X12326953Y-12468574D02*
X12312667Y-12482860D01*
X12326953Y-12497146D01*
X12341238Y-12482860D01*
X12326953Y-12468574D01*
X12326953Y-12497146D01*
X12512667Y-12768574D02*
X12484096Y-12754289D01*
X12469810Y-12725717D01*
X12469810Y-12468574D01*
X12669810Y-12768574D02*
X12641238Y-12754289D01*
X12626953Y-12725717D01*
X12626953Y-12468574D01*
X13012667Y-12768574D02*
X13012667Y-12468574D01*
X13112667Y-12682860D01*
X13212667Y-12468574D01*
X13212667Y-12768574D01*
X13484096Y-12768574D02*
X13484096Y-12611431D01*
X13469810Y-12582860D01*
X13441238Y-12568574D01*
X13384096Y-12568574D01*
X13355524Y-12582860D01*
X13484096Y-12754289D02*
X13455524Y-12768574D01*
X13384096Y-12768574D01*
X13355524Y-12754289D01*
X13341238Y-12725717D01*
X13341238Y-12697146D01*
X13355524Y-12668574D01*
X13384096Y-12654289D01*
X13455524Y-12654289D01*
X13484096Y-12640003D01*
X13626953Y-12568574D02*
X13626953Y-12868574D01*
X13626953Y-12582860D02*
X13655524Y-12568574D01*
X13712667Y-12568574D01*
X13741238Y-12582860D01*
X13755524Y-12597146D01*
X13769810Y-12625717D01*
X13769810Y-12711431D01*
X13755524Y-12740003D01*
X13741238Y-12754289D01*
X13712667Y-12768574D01*
X13655524Y-12768574D01*
X13626953Y-12754289D01*
X13898381Y-12740003D02*
X13912667Y-12754289D01*
X13898381Y-12768574D01*
X13884096Y-12754289D01*
X13898381Y-12740003D01*
X13898381Y-12768574D01*
X13898381Y-12582860D02*
X13912667Y-12597146D01*
X13898381Y-12611431D01*
X13884096Y-12597146D01*
X13898381Y-12582860D01*
X13898381Y-12611431D01*
X11514810Y-13242860D02*
X11554810Y-13282860D01*
X11554810Y-13242860D02*
X11514810Y-13282860D01*
X11898381Y-13098574D02*
X11926953Y-13098574D01*
X11955524Y-13112860D01*
X11969810Y-13127146D01*
X11984096Y-13155717D01*
X11998381Y-13212860D01*
X11998381Y-13284289D01*
X11984096Y-13341431D01*
X11969810Y-13370003D01*
X11955524Y-13384289D01*
X11926953Y-13398574D01*
X11898381Y-13398574D01*
X11869810Y-13384289D01*
X11855524Y-13370003D01*
X11841238Y-13341431D01*
X11826953Y-13284289D01*
X11826953Y-13212860D01*
X11841238Y-13155717D01*
X11855524Y-13127146D01*
X11869810Y-13112860D01*
X11898381Y-13098574D01*
X12126953Y-13370003D02*
X12141238Y-13384289D01*
X12126953Y-13398574D01*
X12112667Y-13384289D01*
X12126953Y-13370003D01*
X12126953Y-13398574D01*
X12398381Y-13198574D02*
X12398381Y-13398574D01*
X12326953Y-13084289D02*
X12255524Y-13298574D01*
X12441238Y-13298574D01*
X12612667Y-13098574D02*
X12641238Y-13098574D01*
X12669810Y-13112860D01*
X12684096Y-13127146D01*
X12698381Y-13155717D01*
X12712667Y-13212860D01*
X12712667Y-13284289D01*
X12698381Y-13341431D01*
X12684096Y-13370003D01*
X12669810Y-13384289D01*
X12641238Y-13398574D01*
X12612667Y-13398574D01*
X12584096Y-13384289D01*
X12569810Y-13370003D01*
X12555524Y-13341431D01*
X12541238Y-13284289D01*
X12541238Y-13212860D01*
X12555524Y-13155717D01*
X12569810Y-13127146D01*
X12584096Y-13112860D01*
X12612667Y-13098574D01*
X12898381Y-13098574D02*
X12926953Y-13098574D01*
X12955524Y-13112860D01*
X12969810Y-13127146D01*
X12984096Y-13155717D01*
X12998381Y-13212860D01*
X12998381Y-13284289D01*
X12984096Y-13341431D01*
X12969810Y-13370003D01*
X12955524Y-13384289D01*
X12926953Y-13398574D01*
X12898381Y-13398574D01*
X12869810Y-13384289D01*
X12855524Y-13370003D01*
X12841238Y-13341431D01*
X12826953Y-13284289D01*
X12826953Y-13212860D01*
X12841238Y-13155717D01*
X12855524Y-13127146D01*
X12869810Y-13112860D01*
X12898381Y-13098574D01*
X13126953Y-13398574D02*
X13126953Y-13198574D01*
X13126953Y-13227146D02*
X13141238Y-13212860D01*
X13169810Y-13198574D01*
X13212667Y-13198574D01*
X13241238Y-13212860D01*
X13255524Y-13241431D01*
X13255524Y-13398574D01*
X13255524Y-13241431D02*
X13269810Y-13212860D01*
X13298381Y-13198574D01*
X13341238Y-13198574D01*
X13369810Y-13212860D01*
X13384096Y-13241431D01*
X13384096Y-13398574D01*
X13526953Y-13398574D02*
X13526953Y-13198574D01*
X13526953Y-13227146D02*
X13541238Y-13212860D01*
X13569810Y-13198574D01*
X13612667Y-13198574D01*
X13641238Y-13212860D01*
X13655524Y-13241431D01*
X13655524Y-13398574D01*
X13655524Y-13241431D02*
X13669810Y-13212860D01*
X13698381Y-13198574D01*
X13741238Y-13198574D01*
X13769810Y-13212860D01*
X13784096Y-13241431D01*
X13784096Y-13398574D01*
X14369810Y-13084289D02*
X14112667Y-13470003D01*
X14755524Y-13098574D02*
X14784096Y-13098574D01*
X14812667Y-13112860D01*
X14826953Y-13127146D01*
X14841238Y-13155717D01*
X14855524Y-13212860D01*
X14855524Y-13284289D01*
X14841238Y-13341431D01*
X14826953Y-13370003D01*
X14812667Y-13384289D01*
X14784096Y-13398574D01*
X14755524Y-13398574D01*
X14726953Y-13384289D01*
X14712667Y-13370003D01*
X14698381Y-13341431D01*
X14684096Y-13284289D01*
X14684096Y-13212860D01*
X14698381Y-13155717D01*
X14712667Y-13127146D01*
X14726953Y-13112860D01*
X14755524Y-13098574D01*
X14984096Y-13370003D02*
X14998381Y-13384289D01*
X14984096Y-13398574D01*
X14969810Y-13384289D01*
X14984096Y-13370003D01*
X14984096Y-13398574D01*
X15184096Y-13098574D02*
X15212667Y-13098574D01*
X15241238Y-13112860D01*
X15255524Y-13127146D01*
X15269810Y-13155717D01*
X15284096Y-13212860D01*
X15284096Y-13284289D01*
X15269810Y-13341431D01*
X15255524Y-13370003D01*
X15241238Y-13384289D01*
X15212667Y-13398574D01*
X15184096Y-13398574D01*
X15155524Y-13384289D01*
X15141238Y-13370003D01*
X15126953Y-13341431D01*
X15112667Y-13284289D01*
X15112667Y-13212860D01*
X15126953Y-13155717D01*
X15141238Y-13127146D01*
X15155524Y-13112860D01*
X15184096Y-13098574D01*
X15569810Y-13398574D02*
X15398381Y-13398574D01*
X15484096Y-13398574D02*
X15484096Y-13098574D01*
X15455524Y-13141431D01*
X15426953Y-13170003D01*
X15398381Y-13184289D01*
X15841238Y-13098574D02*
X15698381Y-13098574D01*
X15684096Y-13241431D01*
X15698381Y-13227146D01*
X15726953Y-13212860D01*
X15798381Y-13212860D01*
X15826953Y-13227146D01*
X15841238Y-13241431D01*
X15855524Y-13270003D01*
X15855524Y-13341431D01*
X15841238Y-13370003D01*
X15826953Y-13384289D01*
X15798381Y-13398574D01*
X15726953Y-13398574D01*
X15698381Y-13384289D01*
X15684096Y-13370003D01*
X15955524Y-13098574D02*
X16155524Y-13098574D01*
X16026953Y-13398574D01*
X16255524Y-13098574D02*
X16255524Y-13155717D01*
X16369810Y-13098574D02*
X16369810Y-13155717D01*
X16812667Y-13512860D02*
X16798381Y-13498574D01*
X16769810Y-13455717D01*
X16755524Y-13427146D01*
X16741238Y-13384289D01*
X16726953Y-13312860D01*
X16726953Y-13255717D01*
X16741238Y-13184289D01*
X16755524Y-13141431D01*
X16769810Y-13112860D01*
X16798381Y-13070003D01*
X16812667Y-13055717D01*
X17069810Y-13098574D02*
X16926953Y-13098574D01*
X16912667Y-13241431D01*
X16926953Y-13227146D01*
X16955524Y-13212860D01*
X17026953Y-13212860D01*
X17055524Y-13227146D01*
X17069810Y-13241431D01*
X17084096Y-13270003D01*
X17084096Y-13341431D01*
X17069810Y-13370003D01*
X17055524Y-13384289D01*
X17026953Y-13398574D01*
X16955524Y-13398574D01*
X16926953Y-13384289D01*
X16912667Y-13370003D01*
X17369810Y-13398574D02*
X17198381Y-13398574D01*
X17284096Y-13398574D02*
X17284096Y-13098574D01*
X17255524Y-13141431D01*
X17226953Y-13170003D01*
X17198381Y-13184289D01*
X17726953Y-13398574D02*
X17726953Y-13098574D01*
X17855524Y-13398574D02*
X17855524Y-13241431D01*
X17841238Y-13212860D01*
X17812667Y-13198574D01*
X17769810Y-13198574D01*
X17741238Y-13212860D01*
X17726953Y-13227146D01*
X18041238Y-13398574D02*
X18012667Y-13384289D01*
X17998381Y-13370003D01*
X17984096Y-13341431D01*
X17984096Y-13255717D01*
X17998381Y-13227146D01*
X18012667Y-13212860D01*
X18041238Y-13198574D01*
X18084096Y-13198574D01*
X18112667Y-13212860D01*
X18126953Y-13227146D01*
X18141238Y-13255717D01*
X18141238Y-13341431D01*
X18126953Y-13370003D01*
X18112667Y-13384289D01*
X18084096Y-13398574D01*
X18041238Y-13398574D01*
X18312667Y-13398574D02*
X18284096Y-13384289D01*
X18269810Y-13355717D01*
X18269810Y-13098574D01*
X18541238Y-13384289D02*
X18512667Y-13398574D01*
X18455524Y-13398574D01*
X18426953Y-13384289D01*
X18412667Y-13355717D01*
X18412667Y-13241431D01*
X18426953Y-13212860D01*
X18455524Y-13198574D01*
X18512667Y-13198574D01*
X18541238Y-13212860D01*
X18555524Y-13241431D01*
X18555524Y-13270003D01*
X18412667Y-13298574D01*
X18669810Y-13384289D02*
X18698381Y-13398574D01*
X18755524Y-13398574D01*
X18784096Y-13384289D01*
X18798381Y-13355717D01*
X18798381Y-13341431D01*
X18784096Y-13312860D01*
X18755524Y-13298574D01*
X18712667Y-13298574D01*
X18684096Y-13284289D01*
X18669810Y-13255717D01*
X18669810Y-13241431D01*
X18684096Y-13212860D01*
X18712667Y-13198574D01*
X18755524Y-13198574D01*
X18784096Y-13212860D01*
X18898381Y-13512860D02*
X18912667Y-13498574D01*
X18941238Y-13455717D01*
X18955524Y-13427146D01*
X18969810Y-13384289D01*
X18984096Y-13312860D01*
X18984096Y-13255717D01*
X18969810Y-13184289D01*
X18955524Y-13141431D01*
X18941238Y-13112860D01*
X18912667Y-13070003D01*
X18898381Y-13055717D01*
X11554810Y-13658860D02*
G75*
G03*
X11554810Y-13658860I-25000J0D01*
G01*
X11898381Y-13494574D02*
X11926953Y-13494574D01*
X11955524Y-13508860D01*
X11969810Y-13523146D01*
X11984096Y-13551717D01*
X11998381Y-13608860D01*
X11998381Y-13680289D01*
X11984096Y-13737431D01*
X11969810Y-13766003D01*
X11955524Y-13780289D01*
X11926953Y-13794574D01*
X11898381Y-13794574D01*
X11869810Y-13780289D01*
X11855524Y-13766003D01*
X11841238Y-13737431D01*
X11826953Y-13680289D01*
X11826953Y-13608860D01*
X11841238Y-13551717D01*
X11855524Y-13523146D01*
X11869810Y-13508860D01*
X11898381Y-13494574D01*
X12126953Y-13766003D02*
X12141238Y-13780289D01*
X12126953Y-13794574D01*
X12112667Y-13780289D01*
X12126953Y-13766003D01*
X12126953Y-13794574D01*
X12412667Y-13494574D02*
X12269810Y-13494574D01*
X12255524Y-13637431D01*
X12269810Y-13623146D01*
X12298381Y-13608860D01*
X12369810Y-13608860D01*
X12398381Y-13623146D01*
X12412667Y-13637431D01*
X12426953Y-13666003D01*
X12426953Y-13737431D01*
X12412667Y-13766003D01*
X12398381Y-13780289D01*
X12369810Y-13794574D01*
X12298381Y-13794574D01*
X12269810Y-13780289D01*
X12255524Y-13766003D01*
X12612667Y-13494574D02*
X12641238Y-13494574D01*
X12669810Y-13508860D01*
X12684096Y-13523146D01*
X12698381Y-13551717D01*
X12712667Y-13608860D01*
X12712667Y-13680289D01*
X12698381Y-13737431D01*
X12684096Y-13766003D01*
X12669810Y-13780289D01*
X12641238Y-13794574D01*
X12612667Y-13794574D01*
X12584096Y-13780289D01*
X12569810Y-13766003D01*
X12555524Y-13737431D01*
X12541238Y-13680289D01*
X12541238Y-13608860D01*
X12555524Y-13551717D01*
X12569810Y-13523146D01*
X12584096Y-13508860D01*
X12612667Y-13494574D01*
X12898381Y-13494574D02*
X12926953Y-13494574D01*
X12955524Y-13508860D01*
X12969810Y-13523146D01*
X12984096Y-13551717D01*
X12998381Y-13608860D01*
X12998381Y-13680289D01*
X12984096Y-13737431D01*
X12969810Y-13766003D01*
X12955524Y-13780289D01*
X12926953Y-13794574D01*
X12898381Y-13794574D01*
X12869810Y-13780289D01*
X12855524Y-13766003D01*
X12841238Y-13737431D01*
X12826953Y-13680289D01*
X12826953Y-13608860D01*
X12841238Y-13551717D01*
X12855524Y-13523146D01*
X12869810Y-13508860D01*
X12898381Y-13494574D01*
X13126953Y-13794574D02*
X13126953Y-13594574D01*
X13126953Y-13623146D02*
X13141238Y-13608860D01*
X13169810Y-13594574D01*
X13212667Y-13594574D01*
X13241238Y-13608860D01*
X13255524Y-13637431D01*
X13255524Y-13794574D01*
X13255524Y-13637431D02*
X13269810Y-13608860D01*
X13298381Y-13594574D01*
X13341238Y-13594574D01*
X13369810Y-13608860D01*
X13384096Y-13637431D01*
X13384096Y-13794574D01*
X13526953Y-13794574D02*
X13526953Y-13594574D01*
X13526953Y-13623146D02*
X13541238Y-13608860D01*
X13569810Y-13594574D01*
X13612667Y-13594574D01*
X13641238Y-13608860D01*
X13655524Y-13637431D01*
X13655524Y-13794574D01*
X13655524Y-13637431D02*
X13669810Y-13608860D01*
X13698381Y-13594574D01*
X13741238Y-13594574D01*
X13769810Y-13608860D01*
X13784096Y-13637431D01*
X13784096Y-13794574D01*
X14369810Y-13480289D02*
X14112667Y-13866003D01*
X14755524Y-13494574D02*
X14784096Y-13494574D01*
X14812667Y-13508860D01*
X14826953Y-13523146D01*
X14841238Y-13551717D01*
X14855524Y-13608860D01*
X14855524Y-13680289D01*
X14841238Y-13737431D01*
X14826953Y-13766003D01*
X14812667Y-13780289D01*
X14784096Y-13794574D01*
X14755524Y-13794574D01*
X14726953Y-13780289D01*
X14712667Y-13766003D01*
X14698381Y-13737431D01*
X14684096Y-13680289D01*
X14684096Y-13608860D01*
X14698381Y-13551717D01*
X14712667Y-13523146D01*
X14726953Y-13508860D01*
X14755524Y-13494574D01*
X14984096Y-13766003D02*
X14998381Y-13780289D01*
X14984096Y-13794574D01*
X14969810Y-13780289D01*
X14984096Y-13766003D01*
X14984096Y-13794574D01*
X15184096Y-13494574D02*
X15212667Y-13494574D01*
X15241238Y-13508860D01*
X15255524Y-13523146D01*
X15269810Y-13551717D01*
X15284096Y-13608860D01*
X15284096Y-13680289D01*
X15269810Y-13737431D01*
X15255524Y-13766003D01*
X15241238Y-13780289D01*
X15212667Y-13794574D01*
X15184096Y-13794574D01*
X15155524Y-13780289D01*
X15141238Y-13766003D01*
X15126953Y-13737431D01*
X15112667Y-13680289D01*
X15112667Y-13608860D01*
X15126953Y-13551717D01*
X15141238Y-13523146D01*
X15155524Y-13508860D01*
X15184096Y-13494574D01*
X15569810Y-13794574D02*
X15398381Y-13794574D01*
X15484096Y-13794574D02*
X15484096Y-13494574D01*
X15455524Y-13537431D01*
X15426953Y-13566003D01*
X15398381Y-13580289D01*
X15712667Y-13794574D02*
X15769810Y-13794574D01*
X15798381Y-13780289D01*
X15812667Y-13766003D01*
X15841238Y-13723146D01*
X15855524Y-13666003D01*
X15855524Y-13551717D01*
X15841238Y-13523146D01*
X15826953Y-13508860D01*
X15798381Y-13494574D01*
X15741238Y-13494574D01*
X15712667Y-13508860D01*
X15698381Y-13523146D01*
X15684096Y-13551717D01*
X15684096Y-13623146D01*
X15698381Y-13651717D01*
X15712667Y-13666003D01*
X15741238Y-13680289D01*
X15798381Y-13680289D01*
X15826953Y-13666003D01*
X15841238Y-13651717D01*
X15855524Y-13623146D01*
X15955524Y-13494574D02*
X16155524Y-13494574D01*
X16026953Y-13794574D01*
X16255524Y-13494574D02*
X16255524Y-13551717D01*
X16369810Y-13494574D02*
X16369810Y-13551717D01*
X16812667Y-13908860D02*
X16798381Y-13894574D01*
X16769810Y-13851717D01*
X16755524Y-13823146D01*
X16741238Y-13780289D01*
X16726953Y-13708860D01*
X16726953Y-13651717D01*
X16741238Y-13580289D01*
X16755524Y-13537431D01*
X16769810Y-13508860D01*
X16798381Y-13466003D01*
X16812667Y-13451717D01*
X16898381Y-13494574D02*
X17098381Y-13494574D01*
X16969810Y-13794574D01*
X17255524Y-13623146D02*
X17226953Y-13608860D01*
X17212667Y-13594574D01*
X17198381Y-13566003D01*
X17198381Y-13551717D01*
X17212667Y-13523146D01*
X17226953Y-13508860D01*
X17255524Y-13494574D01*
X17312667Y-13494574D01*
X17341238Y-13508860D01*
X17355524Y-13523146D01*
X17369810Y-13551717D01*
X17369810Y-13566003D01*
X17355524Y-13594574D01*
X17341238Y-13608860D01*
X17312667Y-13623146D01*
X17255524Y-13623146D01*
X17226953Y-13637431D01*
X17212667Y-13651717D01*
X17198381Y-13680289D01*
X17198381Y-13737431D01*
X17212667Y-13766003D01*
X17226953Y-13780289D01*
X17255524Y-13794574D01*
X17312667Y-13794574D01*
X17341238Y-13780289D01*
X17355524Y-13766003D01*
X17369810Y-13737431D01*
X17369810Y-13680289D01*
X17355524Y-13651717D01*
X17341238Y-13637431D01*
X17312667Y-13623146D01*
X17726953Y-13794574D02*
X17726953Y-13494574D01*
X17855524Y-13794574D02*
X17855524Y-13637431D01*
X17841238Y-13608860D01*
X17812667Y-13594574D01*
X17769810Y-13594574D01*
X17741238Y-13608860D01*
X17726953Y-13623146D01*
X18041238Y-13794574D02*
X18012667Y-13780289D01*
X17998381Y-13766003D01*
X17984096Y-13737431D01*
X17984096Y-13651717D01*
X17998381Y-13623146D01*
X18012667Y-13608860D01*
X18041238Y-13594574D01*
X18084096Y-13594574D01*
X18112667Y-13608860D01*
X18126953Y-13623146D01*
X18141238Y-13651717D01*
X18141238Y-13737431D01*
X18126953Y-13766003D01*
X18112667Y-13780289D01*
X18084096Y-13794574D01*
X18041238Y-13794574D01*
X18312667Y-13794574D02*
X18284096Y-13780289D01*
X18269810Y-13751717D01*
X18269810Y-13494574D01*
X18541238Y-13780289D02*
X18512667Y-13794574D01*
X18455524Y-13794574D01*
X18426953Y-13780289D01*
X18412667Y-13751717D01*
X18412667Y-13637431D01*
X18426953Y-13608860D01*
X18455524Y-13594574D01*
X18512667Y-13594574D01*
X18541238Y-13608860D01*
X18555524Y-13637431D01*
X18555524Y-13666003D01*
X18412667Y-13694574D01*
X18669810Y-13780289D02*
X18698381Y-13794574D01*
X18755524Y-13794574D01*
X18784096Y-13780289D01*
X18798381Y-13751717D01*
X18798381Y-13737431D01*
X18784096Y-13708860D01*
X18755524Y-13694574D01*
X18712667Y-13694574D01*
X18684096Y-13680289D01*
X18669810Y-13651717D01*
X18669810Y-13637431D01*
X18684096Y-13608860D01*
X18712667Y-13594574D01*
X18755524Y-13594574D01*
X18784096Y-13608860D01*
X18898381Y-13908860D02*
X18912667Y-13894574D01*
X18941238Y-13851717D01*
X18955524Y-13823146D01*
X18969810Y-13780289D01*
X18984096Y-13708860D01*
X18984096Y-13651717D01*
X18969810Y-13580289D01*
X18955524Y-13537431D01*
X18941238Y-13508860D01*
X18912667Y-13466003D01*
X18898381Y-13451717D01*
X11404810Y-13904860D02*
X11404810Y-14204860D01*
X11254810Y-14054860D02*
X11554810Y-14054860D01*
X11812667Y-13890574D02*
X11998381Y-13890574D01*
X11898381Y-14004860D01*
X11941238Y-14004860D01*
X11969810Y-14019146D01*
X11984096Y-14033431D01*
X11998381Y-14062003D01*
X11998381Y-14133431D01*
X11984096Y-14162003D01*
X11969810Y-14176289D01*
X11941238Y-14190574D01*
X11855524Y-14190574D01*
X11826953Y-14176289D01*
X11812667Y-14162003D01*
X12126953Y-14162003D02*
X12141238Y-14176289D01*
X12126953Y-14190574D01*
X12112667Y-14176289D01*
X12126953Y-14162003D01*
X12126953Y-14190574D01*
X12326953Y-13890574D02*
X12355524Y-13890574D01*
X12384096Y-13904860D01*
X12398381Y-13919146D01*
X12412667Y-13947717D01*
X12426953Y-14004860D01*
X12426953Y-14076289D01*
X12412667Y-14133431D01*
X12398381Y-14162003D01*
X12384096Y-14176289D01*
X12355524Y-14190574D01*
X12326953Y-14190574D01*
X12298381Y-14176289D01*
X12284096Y-14162003D01*
X12269810Y-14133431D01*
X12255524Y-14076289D01*
X12255524Y-14004860D01*
X12269810Y-13947717D01*
X12284096Y-13919146D01*
X12298381Y-13904860D01*
X12326953Y-13890574D01*
X12612667Y-13890574D02*
X12641238Y-13890574D01*
X12669810Y-13904860D01*
X12684096Y-13919146D01*
X12698381Y-13947717D01*
X12712667Y-14004860D01*
X12712667Y-14076289D01*
X12698381Y-14133431D01*
X12684096Y-14162003D01*
X12669810Y-14176289D01*
X12641238Y-14190574D01*
X12612667Y-14190574D01*
X12584096Y-14176289D01*
X12569810Y-14162003D01*
X12555524Y-14133431D01*
X12541238Y-14076289D01*
X12541238Y-14004860D01*
X12555524Y-13947717D01*
X12569810Y-13919146D01*
X12584096Y-13904860D01*
X12612667Y-13890574D01*
X12898381Y-13890574D02*
X12926953Y-13890574D01*
X12955524Y-13904860D01*
X12969810Y-13919146D01*
X12984096Y-13947717D01*
X12998381Y-14004860D01*
X12998381Y-14076289D01*
X12984096Y-14133431D01*
X12969810Y-14162003D01*
X12955524Y-14176289D01*
X12926953Y-14190574D01*
X12898381Y-14190574D01*
X12869810Y-14176289D01*
X12855524Y-14162003D01*
X12841238Y-14133431D01*
X12826953Y-14076289D01*
X12826953Y-14004860D01*
X12841238Y-13947717D01*
X12855524Y-13919146D01*
X12869810Y-13904860D01*
X12898381Y-13890574D01*
X13126953Y-14190574D02*
X13126953Y-13990574D01*
X13126953Y-14019146D02*
X13141238Y-14004860D01*
X13169810Y-13990574D01*
X13212667Y-13990574D01*
X13241238Y-14004860D01*
X13255524Y-14033431D01*
X13255524Y-14190574D01*
X13255524Y-14033431D02*
X13269810Y-14004860D01*
X13298381Y-13990574D01*
X13341238Y-13990574D01*
X13369810Y-14004860D01*
X13384096Y-14033431D01*
X13384096Y-14190574D01*
X13526953Y-14190574D02*
X13526953Y-13990574D01*
X13526953Y-14019146D02*
X13541238Y-14004860D01*
X13569810Y-13990574D01*
X13612667Y-13990574D01*
X13641238Y-14004860D01*
X13655524Y-14033431D01*
X13655524Y-14190574D01*
X13655524Y-14033431D02*
X13669810Y-14004860D01*
X13698381Y-13990574D01*
X13741238Y-13990574D01*
X13769810Y-14004860D01*
X13784096Y-14033431D01*
X13784096Y-14190574D01*
X14369810Y-13876289D02*
X14112667Y-14262003D01*
X14755524Y-13890574D02*
X14784096Y-13890574D01*
X14812667Y-13904860D01*
X14826953Y-13919146D01*
X14841238Y-13947717D01*
X14855524Y-14004860D01*
X14855524Y-14076289D01*
X14841238Y-14133431D01*
X14826953Y-14162003D01*
X14812667Y-14176289D01*
X14784096Y-14190574D01*
X14755524Y-14190574D01*
X14726953Y-14176289D01*
X14712667Y-14162003D01*
X14698381Y-14133431D01*
X14684096Y-14076289D01*
X14684096Y-14004860D01*
X14698381Y-13947717D01*
X14712667Y-13919146D01*
X14726953Y-13904860D01*
X14755524Y-13890574D01*
X14984096Y-14162003D02*
X14998381Y-14176289D01*
X14984096Y-14190574D01*
X14969810Y-14176289D01*
X14984096Y-14162003D01*
X14984096Y-14190574D01*
X15284096Y-14190574D02*
X15112667Y-14190574D01*
X15198381Y-14190574D02*
X15198381Y-13890574D01*
X15169810Y-13933431D01*
X15141238Y-13962003D01*
X15112667Y-13976289D01*
X15569810Y-14190574D02*
X15398381Y-14190574D01*
X15484096Y-14190574D02*
X15484096Y-13890574D01*
X15455524Y-13933431D01*
X15426953Y-13962003D01*
X15398381Y-13976289D01*
X15741238Y-14019146D02*
X15712667Y-14004860D01*
X15698381Y-13990574D01*
X15684096Y-13962003D01*
X15684096Y-13947717D01*
X15698381Y-13919146D01*
X15712667Y-13904860D01*
X15741238Y-13890574D01*
X15798381Y-13890574D01*
X15826953Y-13904860D01*
X15841238Y-13919146D01*
X15855524Y-13947717D01*
X15855524Y-13962003D01*
X15841238Y-13990574D01*
X15826953Y-14004860D01*
X15798381Y-14019146D01*
X15741238Y-14019146D01*
X15712667Y-14033431D01*
X15698381Y-14047717D01*
X15684096Y-14076289D01*
X15684096Y-14133431D01*
X15698381Y-14162003D01*
X15712667Y-14176289D01*
X15741238Y-14190574D01*
X15798381Y-14190574D01*
X15826953Y-14176289D01*
X15841238Y-14162003D01*
X15855524Y-14133431D01*
X15855524Y-14076289D01*
X15841238Y-14047717D01*
X15826953Y-14033431D01*
X15798381Y-14019146D01*
X16141238Y-14190574D02*
X15969810Y-14190574D01*
X16055524Y-14190574D02*
X16055524Y-13890574D01*
X16026953Y-13933431D01*
X15998381Y-13962003D01*
X15969810Y-13976289D01*
X16255524Y-13890574D02*
X16255524Y-13947717D01*
X16369810Y-13890574D02*
X16369810Y-13947717D01*
X16812667Y-14304860D02*
X16798381Y-14290574D01*
X16769810Y-14247717D01*
X16755524Y-14219146D01*
X16741238Y-14176289D01*
X16726953Y-14104860D01*
X16726953Y-14047717D01*
X16741238Y-13976289D01*
X16755524Y-13933431D01*
X16769810Y-13904860D01*
X16798381Y-13862003D01*
X16812667Y-13847717D01*
X17055524Y-13990574D02*
X17055524Y-14190574D01*
X16984096Y-13876289D02*
X16912667Y-14090574D01*
X17098381Y-14090574D01*
X17441238Y-14190574D02*
X17441238Y-13890574D01*
X17569810Y-14190574D02*
X17569810Y-14033431D01*
X17555524Y-14004860D01*
X17526953Y-13990574D01*
X17484096Y-13990574D01*
X17455524Y-14004860D01*
X17441238Y-14019146D01*
X17755524Y-14190574D02*
X17726953Y-14176289D01*
X17712667Y-14162003D01*
X17698381Y-14133431D01*
X17698381Y-14047717D01*
X17712667Y-14019146D01*
X17726953Y-14004860D01*
X17755524Y-13990574D01*
X17798381Y-13990574D01*
X17826953Y-14004860D01*
X17841238Y-14019146D01*
X17855524Y-14047717D01*
X17855524Y-14133431D01*
X17841238Y-14162003D01*
X17826953Y-14176289D01*
X17798381Y-14190574D01*
X17755524Y-14190574D01*
X18026953Y-14190574D02*
X17998381Y-14176289D01*
X17984096Y-14147717D01*
X17984096Y-13890574D01*
X18255524Y-14176289D02*
X18226953Y-14190574D01*
X18169810Y-14190574D01*
X18141238Y-14176289D01*
X18126953Y-14147717D01*
X18126953Y-14033431D01*
X18141238Y-14004860D01*
X18169810Y-13990574D01*
X18226953Y-13990574D01*
X18255524Y-14004860D01*
X18269810Y-14033431D01*
X18269810Y-14062003D01*
X18126953Y-14090574D01*
X18384096Y-14176289D02*
X18412667Y-14190574D01*
X18469810Y-14190574D01*
X18498381Y-14176289D01*
X18512667Y-14147717D01*
X18512667Y-14133431D01*
X18498381Y-14104860D01*
X18469810Y-14090574D01*
X18426953Y-14090574D01*
X18398381Y-14076289D01*
X18384096Y-14047717D01*
X18384096Y-14033431D01*
X18398381Y-14004860D01*
X18426953Y-13990574D01*
X18469810Y-13990574D01*
X18498381Y-14004860D01*
X18612667Y-14304860D02*
X18626953Y-14290574D01*
X18655524Y-14247717D01*
X18669810Y-14219146D01*
X18684096Y-14176289D01*
X18698381Y-14104860D01*
X18698381Y-14047717D01*
X18684096Y-13976289D01*
X18669810Y-13933431D01*
X18655524Y-13904860D01*
X18626953Y-13862003D01*
X18612667Y-13847717D01*
M02*
