G04 #@! TF.GenerationSoftware,KiCad,Pcbnew,5.1.10-88a1d61d58~88~ubuntu18.04.1*
G04 #@! TF.CreationDate,2021-10-01T18:12:45+02:00*
G04 #@! TF.ProjectId,signal_processing,7369676e-616c-45f7-9072-6f6365737369,rev?*
G04 #@! TF.SameCoordinates,Original*
G04 #@! TF.FileFunction,Legend,Top*
G04 #@! TF.FilePolarity,Positive*
%FSLAX46Y46*%
G04 Gerber Fmt 4.6, Leading zero omitted, Abs format (unit mm)*
G04 Created by KiCad (PCBNEW 5.1.10-88a1d61d58~88~ubuntu18.04.1) date 2021-10-01 18:12:45*
%MOMM*%
%LPD*%
G01*
G04 APERTURE LIST*
%ADD10C,0.150000*%
%ADD11C,0.120000*%
%ADD12C,0.127000*%
%ADD13C,0.250000*%
%ADD14C,0.010000*%
%ADD15R,1.300000X1.600000*%
%ADD16R,2.000000X1.600000*%
%ADD17R,1.060000X0.650000*%
%ADD18R,5.000000X1.200000*%
%ADD19R,5.000000X1.600000*%
%ADD20R,1.200000X5.000000*%
%ADD21R,1.600000X5.000000*%
%ADD22R,0.450000X0.600000*%
%ADD23R,0.600000X0.450000*%
G04 APERTURE END LIST*
D10*
X125065404Y-93742000D02*
X124970166Y-93694380D01*
X124827309Y-93694380D01*
X124684452Y-93742000D01*
X124589214Y-93837238D01*
X124541595Y-93932476D01*
X124493976Y-94122952D01*
X124493976Y-94265809D01*
X124541595Y-94456285D01*
X124589214Y-94551523D01*
X124684452Y-94646761D01*
X124827309Y-94694380D01*
X124922547Y-94694380D01*
X125065404Y-94646761D01*
X125113023Y-94599142D01*
X125113023Y-94265809D01*
X124922547Y-94265809D01*
X125541595Y-94694380D02*
X125541595Y-93694380D01*
X126113023Y-94694380D01*
X126113023Y-93694380D01*
X126589214Y-94694380D02*
X126589214Y-93694380D01*
X126827309Y-93694380D01*
X126970166Y-93742000D01*
X127065404Y-93837238D01*
X127113023Y-93932476D01*
X127160642Y-94122952D01*
X127160642Y-94265809D01*
X127113023Y-94456285D01*
X127065404Y-94551523D01*
X126970166Y-94646761D01*
X126827309Y-94694380D01*
X126589214Y-94694380D01*
X124287595Y-91265428D02*
X125049500Y-91265428D01*
X124668547Y-91646380D02*
X124668547Y-90884476D01*
X125954261Y-90646380D02*
X125763785Y-90646380D01*
X125668547Y-90694000D01*
X125620928Y-90741619D01*
X125525690Y-90884476D01*
X125478071Y-91074952D01*
X125478071Y-91455904D01*
X125525690Y-91551142D01*
X125573309Y-91598761D01*
X125668547Y-91646380D01*
X125859023Y-91646380D01*
X125954261Y-91598761D01*
X126001880Y-91551142D01*
X126049500Y-91455904D01*
X126049500Y-91217809D01*
X126001880Y-91122571D01*
X125954261Y-91074952D01*
X125859023Y-91027333D01*
X125668547Y-91027333D01*
X125573309Y-91074952D01*
X125525690Y-91122571D01*
X125478071Y-91217809D01*
X126954261Y-90646380D02*
X126478071Y-90646380D01*
X126430452Y-91122571D01*
X126478071Y-91074952D01*
X126573309Y-91027333D01*
X126811404Y-91027333D01*
X126906642Y-91074952D01*
X126954261Y-91122571D01*
X127001880Y-91217809D01*
X127001880Y-91455904D01*
X126954261Y-91551142D01*
X126906642Y-91598761D01*
X126811404Y-91646380D01*
X126573309Y-91646380D01*
X126478071Y-91598761D01*
X126430452Y-91551142D01*
X127287595Y-90646380D02*
X127620928Y-91646380D01*
X127954261Y-90646380D01*
X124340114Y-95837428D02*
X125102019Y-95837428D01*
X126054399Y-95218380D02*
X125578209Y-95218380D01*
X125530590Y-95694571D01*
X125578209Y-95646952D01*
X125673447Y-95599333D01*
X125911542Y-95599333D01*
X126006780Y-95646952D01*
X126054399Y-95694571D01*
X126102019Y-95789809D01*
X126102019Y-96027904D01*
X126054399Y-96123142D01*
X126006780Y-96170761D01*
X125911542Y-96218380D01*
X125673447Y-96218380D01*
X125578209Y-96170761D01*
X125530590Y-96123142D01*
X126387733Y-95218380D02*
X126721066Y-96218380D01*
X127054399Y-95218380D01*
X124340114Y-92789428D02*
X125102019Y-92789428D01*
X124721066Y-93170380D02*
X124721066Y-92408476D01*
X126054399Y-92170380D02*
X125578209Y-92170380D01*
X125530590Y-92646571D01*
X125578209Y-92598952D01*
X125673447Y-92551333D01*
X125911542Y-92551333D01*
X126006780Y-92598952D01*
X126054399Y-92646571D01*
X126102019Y-92741809D01*
X126102019Y-92979904D01*
X126054399Y-93075142D01*
X126006780Y-93122761D01*
X125911542Y-93170380D01*
X125673447Y-93170380D01*
X125578209Y-93122761D01*
X125530590Y-93075142D01*
X126387733Y-92170380D02*
X126721066Y-93170380D01*
X127054399Y-92170380D01*
X130843976Y-120483761D02*
X130986833Y-120531380D01*
X131224928Y-120531380D01*
X131320166Y-120483761D01*
X131367785Y-120436142D01*
X131415404Y-120340904D01*
X131415404Y-120245666D01*
X131367785Y-120150428D01*
X131320166Y-120102809D01*
X131224928Y-120055190D01*
X131034452Y-120007571D01*
X130939214Y-119959952D01*
X130891595Y-119912333D01*
X130843976Y-119817095D01*
X130843976Y-119721857D01*
X130891595Y-119626619D01*
X130939214Y-119579000D01*
X131034452Y-119531380D01*
X131272547Y-119531380D01*
X131415404Y-119579000D01*
X132224928Y-120483761D02*
X132129690Y-120531380D01*
X131939214Y-120531380D01*
X131843976Y-120483761D01*
X131796357Y-120388523D01*
X131796357Y-120007571D01*
X131843976Y-119912333D01*
X131939214Y-119864714D01*
X132129690Y-119864714D01*
X132224928Y-119912333D01*
X132272547Y-120007571D01*
X132272547Y-120102809D01*
X131796357Y-120198047D01*
X132701119Y-120531380D02*
X132701119Y-119864714D01*
X132701119Y-119959952D02*
X132748738Y-119912333D01*
X132843976Y-119864714D01*
X132986833Y-119864714D01*
X133082071Y-119912333D01*
X133129690Y-120007571D01*
X133129690Y-120531380D01*
X133129690Y-120007571D02*
X133177309Y-119912333D01*
X133272547Y-119864714D01*
X133415404Y-119864714D01*
X133510642Y-119912333D01*
X133558261Y-120007571D01*
X133558261Y-120531380D01*
X134034452Y-120531380D02*
X134034452Y-119864714D01*
X134034452Y-119531380D02*
X133986833Y-119579000D01*
X134034452Y-119626619D01*
X134082071Y-119579000D01*
X134034452Y-119531380D01*
X134034452Y-119626619D01*
X134939214Y-120483761D02*
X134843976Y-120531380D01*
X134653500Y-120531380D01*
X134558261Y-120483761D01*
X134510642Y-120436142D01*
X134463023Y-120340904D01*
X134463023Y-120055190D01*
X134510642Y-119959952D01*
X134558261Y-119912333D01*
X134653500Y-119864714D01*
X134843976Y-119864714D01*
X134939214Y-119912333D01*
X135510642Y-120531380D02*
X135415404Y-120483761D01*
X135367785Y-120436142D01*
X135320166Y-120340904D01*
X135320166Y-120055190D01*
X135367785Y-119959952D01*
X135415404Y-119912333D01*
X135510642Y-119864714D01*
X135653500Y-119864714D01*
X135748738Y-119912333D01*
X135796357Y-119959952D01*
X135843976Y-120055190D01*
X135843976Y-120340904D01*
X135796357Y-120436142D01*
X135748738Y-120483761D01*
X135653500Y-120531380D01*
X135510642Y-120531380D01*
X136272547Y-119864714D02*
X136272547Y-120531380D01*
X136272547Y-119959952D02*
X136320166Y-119912333D01*
X136415404Y-119864714D01*
X136558261Y-119864714D01*
X136653500Y-119912333D01*
X136701119Y-120007571D01*
X136701119Y-120531380D01*
X137605880Y-120531380D02*
X137605880Y-119531380D01*
X137605880Y-120483761D02*
X137510642Y-120531380D01*
X137320166Y-120531380D01*
X137224928Y-120483761D01*
X137177309Y-120436142D01*
X137129690Y-120340904D01*
X137129690Y-120055190D01*
X137177309Y-119959952D01*
X137224928Y-119912333D01*
X137320166Y-119864714D01*
X137510642Y-119864714D01*
X137605880Y-119912333D01*
X138510642Y-119864714D02*
X138510642Y-120531380D01*
X138082071Y-119864714D02*
X138082071Y-120388523D01*
X138129690Y-120483761D01*
X138224928Y-120531380D01*
X138367785Y-120531380D01*
X138463023Y-120483761D01*
X138510642Y-120436142D01*
X139415404Y-120483761D02*
X139320166Y-120531380D01*
X139129690Y-120531380D01*
X139034452Y-120483761D01*
X138986833Y-120436142D01*
X138939214Y-120340904D01*
X138939214Y-120055190D01*
X138986833Y-119959952D01*
X139034452Y-119912333D01*
X139129690Y-119864714D01*
X139320166Y-119864714D01*
X139415404Y-119912333D01*
X139701119Y-119864714D02*
X140082071Y-119864714D01*
X139843976Y-119531380D02*
X139843976Y-120388523D01*
X139891595Y-120483761D01*
X139986833Y-120531380D01*
X140082071Y-120531380D01*
X140558261Y-120531380D02*
X140463023Y-120483761D01*
X140415404Y-120436142D01*
X140367785Y-120340904D01*
X140367785Y-120055190D01*
X140415404Y-119959952D01*
X140463023Y-119912333D01*
X140558261Y-119864714D01*
X140701119Y-119864714D01*
X140796357Y-119912333D01*
X140843976Y-119959952D01*
X140891595Y-120055190D01*
X140891595Y-120340904D01*
X140843976Y-120436142D01*
X140796357Y-120483761D01*
X140701119Y-120531380D01*
X140558261Y-120531380D01*
X141320166Y-120531380D02*
X141320166Y-119864714D01*
X141320166Y-120055190D02*
X141367785Y-119959952D01*
X141415404Y-119912333D01*
X141510642Y-119864714D01*
X141605880Y-119864714D01*
X142701119Y-120531380D02*
X142701119Y-119864714D01*
X142701119Y-120055190D02*
X142748738Y-119959952D01*
X142796357Y-119912333D01*
X142891595Y-119864714D01*
X142986833Y-119864714D01*
X143748738Y-120531380D02*
X143748738Y-120007571D01*
X143701119Y-119912333D01*
X143605880Y-119864714D01*
X143415404Y-119864714D01*
X143320166Y-119912333D01*
X143748738Y-120483761D02*
X143653500Y-120531380D01*
X143415404Y-120531380D01*
X143320166Y-120483761D01*
X143272547Y-120388523D01*
X143272547Y-120293285D01*
X143320166Y-120198047D01*
X143415404Y-120150428D01*
X143653500Y-120150428D01*
X143748738Y-120102809D01*
X144653500Y-120531380D02*
X144653500Y-119531380D01*
X144653500Y-120483761D02*
X144558261Y-120531380D01*
X144367785Y-120531380D01*
X144272547Y-120483761D01*
X144224928Y-120436142D01*
X144177309Y-120340904D01*
X144177309Y-120055190D01*
X144224928Y-119959952D01*
X144272547Y-119912333D01*
X144367785Y-119864714D01*
X144558261Y-119864714D01*
X144653500Y-119912333D01*
X145129690Y-120531380D02*
X145129690Y-119864714D01*
X145129690Y-119531380D02*
X145082071Y-119579000D01*
X145129690Y-119626619D01*
X145177309Y-119579000D01*
X145129690Y-119531380D01*
X145129690Y-119626619D01*
X146034452Y-120531380D02*
X146034452Y-120007571D01*
X145986833Y-119912333D01*
X145891595Y-119864714D01*
X145701119Y-119864714D01*
X145605880Y-119912333D01*
X146034452Y-120483761D02*
X145939214Y-120531380D01*
X145701119Y-120531380D01*
X145605880Y-120483761D01*
X145558261Y-120388523D01*
X145558261Y-120293285D01*
X145605880Y-120198047D01*
X145701119Y-120150428D01*
X145939214Y-120150428D01*
X146034452Y-120102809D01*
X146367785Y-119864714D02*
X146748738Y-119864714D01*
X146510642Y-119531380D02*
X146510642Y-120388523D01*
X146558261Y-120483761D01*
X146653500Y-120531380D01*
X146748738Y-120531380D01*
X147082071Y-120531380D02*
X147082071Y-119864714D01*
X147082071Y-119531380D02*
X147034452Y-119579000D01*
X147082071Y-119626619D01*
X147129690Y-119579000D01*
X147082071Y-119531380D01*
X147082071Y-119626619D01*
X147701119Y-120531380D02*
X147605880Y-120483761D01*
X147558261Y-120436142D01*
X147510642Y-120340904D01*
X147510642Y-120055190D01*
X147558261Y-119959952D01*
X147605880Y-119912333D01*
X147701119Y-119864714D01*
X147843976Y-119864714D01*
X147939214Y-119912333D01*
X147986833Y-119959952D01*
X148034452Y-120055190D01*
X148034452Y-120340904D01*
X147986833Y-120436142D01*
X147939214Y-120483761D01*
X147843976Y-120531380D01*
X147701119Y-120531380D01*
X148463023Y-119864714D02*
X148463023Y-120531380D01*
X148463023Y-119959952D02*
X148510642Y-119912333D01*
X148605880Y-119864714D01*
X148748738Y-119864714D01*
X148843976Y-119912333D01*
X148891595Y-120007571D01*
X148891595Y-120531380D01*
X150558261Y-120531380D02*
X150558261Y-119531380D01*
X150558261Y-120483761D02*
X150463023Y-120531380D01*
X150272547Y-120531380D01*
X150177309Y-120483761D01*
X150129690Y-120436142D01*
X150082071Y-120340904D01*
X150082071Y-120055190D01*
X150129690Y-119959952D01*
X150177309Y-119912333D01*
X150272547Y-119864714D01*
X150463023Y-119864714D01*
X150558261Y-119912333D01*
X151415404Y-120483761D02*
X151320166Y-120531380D01*
X151129690Y-120531380D01*
X151034452Y-120483761D01*
X150986833Y-120388523D01*
X150986833Y-120007571D01*
X151034452Y-119912333D01*
X151129690Y-119864714D01*
X151320166Y-119864714D01*
X151415404Y-119912333D01*
X151463023Y-120007571D01*
X151463023Y-120102809D01*
X150986833Y-120198047D01*
X151748738Y-119864714D02*
X152129690Y-119864714D01*
X151891595Y-119531380D02*
X151891595Y-120388523D01*
X151939214Y-120483761D01*
X152034452Y-120531380D01*
X152129690Y-120531380D01*
X152843976Y-120483761D02*
X152748738Y-120531380D01*
X152558261Y-120531380D01*
X152463023Y-120483761D01*
X152415404Y-120388523D01*
X152415404Y-120007571D01*
X152463023Y-119912333D01*
X152558261Y-119864714D01*
X152748738Y-119864714D01*
X152843976Y-119912333D01*
X152891595Y-120007571D01*
X152891595Y-120102809D01*
X152415404Y-120198047D01*
X153748738Y-120483761D02*
X153653500Y-120531380D01*
X153463023Y-120531380D01*
X153367785Y-120483761D01*
X153320166Y-120436142D01*
X153272547Y-120340904D01*
X153272547Y-120055190D01*
X153320166Y-119959952D01*
X153367785Y-119912333D01*
X153463023Y-119864714D01*
X153653500Y-119864714D01*
X153748738Y-119912333D01*
X154034452Y-119864714D02*
X154415404Y-119864714D01*
X154177309Y-119531380D02*
X154177309Y-120388523D01*
X154224928Y-120483761D01*
X154320166Y-120531380D01*
X154415404Y-120531380D01*
X154891595Y-120531380D02*
X154796357Y-120483761D01*
X154748738Y-120436142D01*
X154701119Y-120340904D01*
X154701119Y-120055190D01*
X154748738Y-119959952D01*
X154796357Y-119912333D01*
X154891595Y-119864714D01*
X155034452Y-119864714D01*
X155129690Y-119912333D01*
X155177309Y-119959952D01*
X155224928Y-120055190D01*
X155224928Y-120340904D01*
X155177309Y-120436142D01*
X155129690Y-120483761D01*
X155034452Y-120531380D01*
X154891595Y-120531380D01*
X155653500Y-120531380D02*
X155653500Y-119864714D01*
X155653500Y-120055190D02*
X155701119Y-119959952D01*
X155748738Y-119912333D01*
X155843976Y-119864714D01*
X155939214Y-119864714D01*
X156272547Y-120436142D02*
X156320166Y-120483761D01*
X156272547Y-120531380D01*
X156224928Y-120483761D01*
X156272547Y-120436142D01*
X156272547Y-120531380D01*
X156272547Y-119912333D02*
X156320166Y-119959952D01*
X156272547Y-120007571D01*
X156224928Y-119959952D01*
X156272547Y-119912333D01*
X156272547Y-120007571D01*
X130843976Y-122133761D02*
X130939214Y-122181380D01*
X131129690Y-122181380D01*
X131224928Y-122133761D01*
X131272547Y-122038523D01*
X131272547Y-121990904D01*
X131224928Y-121895666D01*
X131129690Y-121848047D01*
X130986833Y-121848047D01*
X130891595Y-121800428D01*
X130843976Y-121705190D01*
X130843976Y-121657571D01*
X130891595Y-121562333D01*
X130986833Y-121514714D01*
X131129690Y-121514714D01*
X131224928Y-121562333D01*
X131701119Y-122181380D02*
X131701119Y-121514714D01*
X131701119Y-121181380D02*
X131653500Y-121229000D01*
X131701119Y-121276619D01*
X131748738Y-121229000D01*
X131701119Y-121181380D01*
X131701119Y-121276619D01*
X132605880Y-121514714D02*
X132605880Y-122324238D01*
X132558261Y-122419476D01*
X132510642Y-122467095D01*
X132415404Y-122514714D01*
X132272547Y-122514714D01*
X132177309Y-122467095D01*
X132605880Y-122133761D02*
X132510642Y-122181380D01*
X132320166Y-122181380D01*
X132224928Y-122133761D01*
X132177309Y-122086142D01*
X132129690Y-121990904D01*
X132129690Y-121705190D01*
X132177309Y-121609952D01*
X132224928Y-121562333D01*
X132320166Y-121514714D01*
X132510642Y-121514714D01*
X132605880Y-121562333D01*
X133082071Y-121514714D02*
X133082071Y-122181380D01*
X133082071Y-121609952D02*
X133129690Y-121562333D01*
X133224928Y-121514714D01*
X133367785Y-121514714D01*
X133463023Y-121562333D01*
X133510642Y-121657571D01*
X133510642Y-122181380D01*
X134415404Y-122181380D02*
X134415404Y-121657571D01*
X134367785Y-121562333D01*
X134272547Y-121514714D01*
X134082071Y-121514714D01*
X133986833Y-121562333D01*
X134415404Y-122133761D02*
X134320166Y-122181380D01*
X134082071Y-122181380D01*
X133986833Y-122133761D01*
X133939214Y-122038523D01*
X133939214Y-121943285D01*
X133986833Y-121848047D01*
X134082071Y-121800428D01*
X134320166Y-121800428D01*
X134415404Y-121752809D01*
X135034452Y-122181380D02*
X134939214Y-122133761D01*
X134891595Y-122038523D01*
X134891595Y-121181380D01*
X136177309Y-121514714D02*
X136177309Y-122514714D01*
X136177309Y-121562333D02*
X136272547Y-121514714D01*
X136463023Y-121514714D01*
X136558261Y-121562333D01*
X136605880Y-121609952D01*
X136653500Y-121705190D01*
X136653500Y-121990904D01*
X136605880Y-122086142D01*
X136558261Y-122133761D01*
X136463023Y-122181380D01*
X136272547Y-122181380D01*
X136177309Y-122133761D01*
X137082071Y-122181380D02*
X137082071Y-121514714D01*
X137082071Y-121705190D02*
X137129690Y-121609952D01*
X137177309Y-121562333D01*
X137272547Y-121514714D01*
X137367785Y-121514714D01*
X137843976Y-122181380D02*
X137748738Y-122133761D01*
X137701119Y-122086142D01*
X137653500Y-121990904D01*
X137653500Y-121705190D01*
X137701119Y-121609952D01*
X137748738Y-121562333D01*
X137843976Y-121514714D01*
X137986833Y-121514714D01*
X138082071Y-121562333D01*
X138129690Y-121609952D01*
X138177309Y-121705190D01*
X138177309Y-121990904D01*
X138129690Y-122086142D01*
X138082071Y-122133761D01*
X137986833Y-122181380D01*
X137843976Y-122181380D01*
X139034452Y-122133761D02*
X138939214Y-122181380D01*
X138748738Y-122181380D01*
X138653500Y-122133761D01*
X138605880Y-122086142D01*
X138558261Y-121990904D01*
X138558261Y-121705190D01*
X138605880Y-121609952D01*
X138653500Y-121562333D01*
X138748738Y-121514714D01*
X138939214Y-121514714D01*
X139034452Y-121562333D01*
X139843976Y-122133761D02*
X139748738Y-122181380D01*
X139558261Y-122181380D01*
X139463023Y-122133761D01*
X139415404Y-122038523D01*
X139415404Y-121657571D01*
X139463023Y-121562333D01*
X139558261Y-121514714D01*
X139748738Y-121514714D01*
X139843976Y-121562333D01*
X139891595Y-121657571D01*
X139891595Y-121752809D01*
X139415404Y-121848047D01*
X140272547Y-122133761D02*
X140367785Y-122181380D01*
X140558261Y-122181380D01*
X140653500Y-122133761D01*
X140701119Y-122038523D01*
X140701119Y-121990904D01*
X140653500Y-121895666D01*
X140558261Y-121848047D01*
X140415404Y-121848047D01*
X140320166Y-121800428D01*
X140272547Y-121705190D01*
X140272547Y-121657571D01*
X140320166Y-121562333D01*
X140415404Y-121514714D01*
X140558261Y-121514714D01*
X140653500Y-121562333D01*
X141082071Y-122133761D02*
X141177309Y-122181380D01*
X141367785Y-122181380D01*
X141463023Y-122133761D01*
X141510642Y-122038523D01*
X141510642Y-121990904D01*
X141463023Y-121895666D01*
X141367785Y-121848047D01*
X141224928Y-121848047D01*
X141129690Y-121800428D01*
X141082071Y-121705190D01*
X141082071Y-121657571D01*
X141129690Y-121562333D01*
X141224928Y-121514714D01*
X141367785Y-121514714D01*
X141463023Y-121562333D01*
X141939214Y-122181380D02*
X141939214Y-121514714D01*
X141939214Y-121181380D02*
X141891595Y-121229000D01*
X141939214Y-121276619D01*
X141986833Y-121229000D01*
X141939214Y-121181380D01*
X141939214Y-121276619D01*
X142415404Y-121514714D02*
X142415404Y-122181380D01*
X142415404Y-121609952D02*
X142463023Y-121562333D01*
X142558261Y-121514714D01*
X142701119Y-121514714D01*
X142796357Y-121562333D01*
X142843976Y-121657571D01*
X142843976Y-122181380D01*
X143748738Y-121514714D02*
X143748738Y-122324238D01*
X143701119Y-122419476D01*
X143653500Y-122467095D01*
X143558261Y-122514714D01*
X143415404Y-122514714D01*
X143320166Y-122467095D01*
X143748738Y-122133761D02*
X143653500Y-122181380D01*
X143463023Y-122181380D01*
X143367785Y-122133761D01*
X143320166Y-122086142D01*
X143272547Y-121990904D01*
X143272547Y-121705190D01*
X143320166Y-121609952D01*
X143367785Y-121562333D01*
X143463023Y-121514714D01*
X143653500Y-121514714D01*
X143748738Y-121562333D01*
X144986833Y-122181380D02*
X144986833Y-121181380D01*
X144986833Y-121562333D02*
X145082071Y-121514714D01*
X145272547Y-121514714D01*
X145367785Y-121562333D01*
X145415404Y-121609952D01*
X145463023Y-121705190D01*
X145463023Y-121990904D01*
X145415404Y-122086142D01*
X145367785Y-122133761D01*
X145272547Y-122181380D01*
X145082071Y-122181380D01*
X144986833Y-122133761D01*
X146034452Y-122181380D02*
X145939214Y-122133761D01*
X145891595Y-122086142D01*
X145843976Y-121990904D01*
X145843976Y-121705190D01*
X145891595Y-121609952D01*
X145939214Y-121562333D01*
X146034452Y-121514714D01*
X146177309Y-121514714D01*
X146272547Y-121562333D01*
X146320166Y-121609952D01*
X146367785Y-121705190D01*
X146367785Y-121990904D01*
X146320166Y-122086142D01*
X146272547Y-122133761D01*
X146177309Y-122181380D01*
X146034452Y-122181380D01*
X147224928Y-122181380D02*
X147224928Y-121657571D01*
X147177309Y-121562333D01*
X147082071Y-121514714D01*
X146891595Y-121514714D01*
X146796357Y-121562333D01*
X147224928Y-122133761D02*
X147129690Y-122181380D01*
X146891595Y-122181380D01*
X146796357Y-122133761D01*
X146748738Y-122038523D01*
X146748738Y-121943285D01*
X146796357Y-121848047D01*
X146891595Y-121800428D01*
X147129690Y-121800428D01*
X147224928Y-121752809D01*
X147701119Y-122181380D02*
X147701119Y-121514714D01*
X147701119Y-121705190D02*
X147748738Y-121609952D01*
X147796357Y-121562333D01*
X147891595Y-121514714D01*
X147986833Y-121514714D01*
X148748738Y-122181380D02*
X148748738Y-121181380D01*
X148748738Y-122133761D02*
X148653500Y-122181380D01*
X148463023Y-122181380D01*
X148367785Y-122133761D01*
X148320166Y-122086142D01*
X148272547Y-121990904D01*
X148272547Y-121705190D01*
X148320166Y-121609952D01*
X148367785Y-121562333D01*
X148463023Y-121514714D01*
X148653500Y-121514714D01*
X148748738Y-121562333D01*
X149272547Y-122133761D02*
X149272547Y-122181380D01*
X149224928Y-122276619D01*
X149177309Y-122324238D01*
X150463023Y-122181380D02*
X150463023Y-121181380D01*
X150796357Y-121895666D01*
X151129690Y-121181380D01*
X151129690Y-122181380D01*
X152034452Y-122181380D02*
X152034452Y-121657571D01*
X151986833Y-121562333D01*
X151891595Y-121514714D01*
X151701119Y-121514714D01*
X151605880Y-121562333D01*
X152034452Y-122133761D02*
X151939214Y-122181380D01*
X151701119Y-122181380D01*
X151605880Y-122133761D01*
X151558261Y-122038523D01*
X151558261Y-121943285D01*
X151605880Y-121848047D01*
X151701119Y-121800428D01*
X151939214Y-121800428D01*
X152034452Y-121752809D01*
X152510642Y-122181380D02*
X152510642Y-121514714D01*
X152510642Y-121705190D02*
X152558261Y-121609952D01*
X152605880Y-121562333D01*
X152701119Y-121514714D01*
X152796357Y-121514714D01*
X153558261Y-122133761D02*
X153463023Y-122181380D01*
X153272547Y-122181380D01*
X153177309Y-122133761D01*
X153129690Y-122086142D01*
X153082071Y-121990904D01*
X153082071Y-121705190D01*
X153129690Y-121609952D01*
X153177309Y-121562333D01*
X153272547Y-121514714D01*
X153463023Y-121514714D01*
X153558261Y-121562333D01*
X153986833Y-122181380D02*
X153986833Y-121514714D01*
X153986833Y-121181380D02*
X153939214Y-121229000D01*
X153986833Y-121276619D01*
X154034452Y-121229000D01*
X153986833Y-121181380D01*
X153986833Y-121276619D01*
X154463023Y-121514714D02*
X154463023Y-122181380D01*
X154463023Y-121609952D02*
X154510642Y-121562333D01*
X154605880Y-121514714D01*
X154748738Y-121514714D01*
X154843976Y-121562333D01*
X154891595Y-121657571D01*
X154891595Y-122181380D01*
X156034452Y-121181380D02*
X156272547Y-122181380D01*
X156463023Y-121467095D01*
X156653500Y-122181380D01*
X156891595Y-121181380D01*
X157701119Y-122181380D02*
X157701119Y-121657571D01*
X157653500Y-121562333D01*
X157558261Y-121514714D01*
X157367785Y-121514714D01*
X157272547Y-121562333D01*
X157701119Y-122133761D02*
X157605880Y-122181380D01*
X157367785Y-122181380D01*
X157272547Y-122133761D01*
X157224928Y-122038523D01*
X157224928Y-121943285D01*
X157272547Y-121848047D01*
X157367785Y-121800428D01*
X157605880Y-121800428D01*
X157701119Y-121752809D01*
X158605880Y-122133761D02*
X158510642Y-122181380D01*
X158320166Y-122181380D01*
X158224928Y-122133761D01*
X158177309Y-122086142D01*
X158129690Y-121990904D01*
X158129690Y-121705190D01*
X158177309Y-121609952D01*
X158224928Y-121562333D01*
X158320166Y-121514714D01*
X158510642Y-121514714D01*
X158605880Y-121562333D01*
X159034452Y-122181380D02*
X159034452Y-121181380D01*
X159463023Y-122181380D02*
X159463023Y-121657571D01*
X159415404Y-121562333D01*
X159320166Y-121514714D01*
X159177309Y-121514714D01*
X159082071Y-121562333D01*
X159034452Y-121609952D01*
X160082071Y-122181380D02*
X159986833Y-122133761D01*
X159939214Y-122086142D01*
X159891595Y-121990904D01*
X159891595Y-121705190D01*
X159939214Y-121609952D01*
X159986833Y-121562333D01*
X160082071Y-121514714D01*
X160224928Y-121514714D01*
X160320166Y-121562333D01*
X160367785Y-121609952D01*
X160415404Y-121705190D01*
X160415404Y-121990904D01*
X160367785Y-122086142D01*
X160320166Y-122133761D01*
X160224928Y-122181380D01*
X160082071Y-122181380D01*
X160748738Y-121514714D02*
X160939214Y-122181380D01*
X161129690Y-121705190D01*
X161320166Y-122181380D01*
X161510642Y-121514714D01*
X161891595Y-122181380D02*
X161891595Y-121514714D01*
X161891595Y-121181380D02*
X161843976Y-121229000D01*
X161891595Y-121276619D01*
X161939214Y-121229000D01*
X161891595Y-121181380D01*
X161891595Y-121276619D01*
X162796357Y-122181380D02*
X162796357Y-121657571D01*
X162748738Y-121562333D01*
X162653500Y-121514714D01*
X162463023Y-121514714D01*
X162367785Y-121562333D01*
X162796357Y-122133761D02*
X162701119Y-122181380D01*
X162463023Y-122181380D01*
X162367785Y-122133761D01*
X162320166Y-122038523D01*
X162320166Y-121943285D01*
X162367785Y-121848047D01*
X162463023Y-121800428D01*
X162701119Y-121800428D01*
X162796357Y-121752809D01*
X163272547Y-122181380D02*
X163272547Y-121181380D01*
X163367785Y-121800428D02*
X163653500Y-122181380D01*
X163653500Y-121514714D02*
X163272547Y-121895666D01*
X164129690Y-122133761D02*
X164129690Y-122181380D01*
X164082071Y-122276619D01*
X164034452Y-122324238D01*
X165320166Y-122181380D02*
X165320166Y-121181380D01*
X165701119Y-121181380D01*
X165796357Y-121229000D01*
X165843976Y-121276619D01*
X165891595Y-121371857D01*
X165891595Y-121514714D01*
X165843976Y-121609952D01*
X165796357Y-121657571D01*
X165701119Y-121705190D01*
X165320166Y-121705190D01*
X166463023Y-122181380D02*
X166367785Y-122133761D01*
X166320166Y-122086142D01*
X166272547Y-121990904D01*
X166272547Y-121705190D01*
X166320166Y-121609952D01*
X166367785Y-121562333D01*
X166463023Y-121514714D01*
X166605880Y-121514714D01*
X166701119Y-121562333D01*
X166748738Y-121609952D01*
X166796357Y-121705190D01*
X166796357Y-121990904D01*
X166748738Y-122086142D01*
X166701119Y-122133761D01*
X166605880Y-122181380D01*
X166463023Y-122181380D01*
X167367785Y-122181380D02*
X167272547Y-122133761D01*
X167224928Y-122038523D01*
X167224928Y-121181380D01*
X168177309Y-122181380D02*
X168177309Y-121657571D01*
X168129690Y-121562333D01*
X168034452Y-121514714D01*
X167843976Y-121514714D01*
X167748738Y-121562333D01*
X168177309Y-122133761D02*
X168082071Y-122181380D01*
X167843976Y-122181380D01*
X167748738Y-122133761D01*
X167701119Y-122038523D01*
X167701119Y-121943285D01*
X167748738Y-121848047D01*
X167843976Y-121800428D01*
X168082071Y-121800428D01*
X168177309Y-121752809D01*
X168653500Y-121514714D02*
X168653500Y-122181380D01*
X168653500Y-121609952D02*
X168701119Y-121562333D01*
X168796357Y-121514714D01*
X168939214Y-121514714D01*
X169034452Y-121562333D01*
X169082071Y-121657571D01*
X169082071Y-122181380D01*
X169986833Y-122181380D02*
X169986833Y-121181380D01*
X169986833Y-122133761D02*
X169891595Y-122181380D01*
X169701119Y-122181380D01*
X169605880Y-122133761D01*
X169558261Y-122086142D01*
X169510642Y-121990904D01*
X169510642Y-121705190D01*
X169558261Y-121609952D01*
X169605880Y-121562333D01*
X169701119Y-121514714D01*
X169891595Y-121514714D01*
X169986833Y-121562333D01*
X120223595Y-106760380D02*
X120223595Y-105760380D01*
X120699785Y-106760380D02*
X120699785Y-105760380D01*
X121271214Y-106760380D01*
X121271214Y-105760380D01*
X120175976Y-108362761D02*
X120318833Y-108410380D01*
X120556928Y-108410380D01*
X120652166Y-108362761D01*
X120699785Y-108315142D01*
X120747404Y-108219904D01*
X120747404Y-108124666D01*
X120699785Y-108029428D01*
X120652166Y-107981809D01*
X120556928Y-107934190D01*
X120366452Y-107886571D01*
X120271214Y-107838952D01*
X120223595Y-107791333D01*
X120175976Y-107696095D01*
X120175976Y-107600857D01*
X120223595Y-107505619D01*
X120271214Y-107458000D01*
X120366452Y-107410380D01*
X120604547Y-107410380D01*
X120747404Y-107458000D01*
X121175976Y-108410380D02*
X121175976Y-107410380D01*
X122175976Y-107458000D02*
X122080738Y-107410380D01*
X121937880Y-107410380D01*
X121795023Y-107458000D01*
X121699785Y-107553238D01*
X121652166Y-107648476D01*
X121604547Y-107838952D01*
X121604547Y-107981809D01*
X121652166Y-108172285D01*
X121699785Y-108267523D01*
X121795023Y-108362761D01*
X121937880Y-108410380D01*
X122033119Y-108410380D01*
X122175976Y-108362761D01*
X122223595Y-108315142D01*
X122223595Y-107981809D01*
X122033119Y-107981809D01*
X170642571Y-113254380D02*
X170833047Y-113254380D01*
X170928285Y-113302000D01*
X171023523Y-113397238D01*
X171071142Y-113587714D01*
X171071142Y-113921047D01*
X171023523Y-114111523D01*
X170928285Y-114206761D01*
X170833047Y-114254380D01*
X170642571Y-114254380D01*
X170547333Y-114206761D01*
X170452095Y-114111523D01*
X170404476Y-113921047D01*
X170404476Y-113587714D01*
X170452095Y-113397238D01*
X170547333Y-113302000D01*
X170642571Y-113254380D01*
X171499714Y-113254380D02*
X171499714Y-114063904D01*
X171547333Y-114159142D01*
X171594952Y-114206761D01*
X171690190Y-114254380D01*
X171880666Y-114254380D01*
X171975904Y-114206761D01*
X172023523Y-114159142D01*
X172071142Y-114063904D01*
X172071142Y-113254380D01*
X172404476Y-113254380D02*
X172975904Y-113254380D01*
X172690190Y-114254380D02*
X172690190Y-113254380D01*
X170309238Y-114904380D02*
X170880666Y-114904380D01*
X170594952Y-115904380D02*
X170594952Y-114904380D01*
X171404476Y-114904380D02*
X171594952Y-114904380D01*
X171690190Y-114952000D01*
X171785428Y-115047238D01*
X171833047Y-115237714D01*
X171833047Y-115571047D01*
X171785428Y-115761523D01*
X171690190Y-115856761D01*
X171594952Y-115904380D01*
X171404476Y-115904380D01*
X171309238Y-115856761D01*
X171214000Y-115761523D01*
X171166380Y-115571047D01*
X171166380Y-115237714D01*
X171214000Y-115047238D01*
X171309238Y-114952000D01*
X171404476Y-114904380D01*
X170404476Y-117268666D02*
X170880666Y-117268666D01*
X170309238Y-117554380D02*
X170642571Y-116554380D01*
X170975904Y-117554380D01*
X171309238Y-117554380D02*
X171309238Y-116554380D01*
X171547333Y-116554380D01*
X171690190Y-116602000D01*
X171785428Y-116697238D01*
X171833047Y-116792476D01*
X171880666Y-116982952D01*
X171880666Y-117125809D01*
X171833047Y-117316285D01*
X171785428Y-117411523D01*
X171690190Y-117506761D01*
X171547333Y-117554380D01*
X171309238Y-117554380D01*
X172880666Y-117459142D02*
X172833047Y-117506761D01*
X172690190Y-117554380D01*
X172594952Y-117554380D01*
X172452095Y-117506761D01*
X172356857Y-117411523D01*
X172309238Y-117316285D01*
X172261619Y-117125809D01*
X172261619Y-116982952D01*
X172309238Y-116792476D01*
X172356857Y-116697238D01*
X172452095Y-116602000D01*
X172594952Y-116554380D01*
X172690190Y-116554380D01*
X172833047Y-116602000D01*
X172880666Y-116649619D01*
X122334928Y-114927571D02*
X122001595Y-114927571D01*
X122001595Y-115451380D02*
X122001595Y-114451380D01*
X122477785Y-114451380D01*
X123334928Y-115451380D02*
X122858738Y-115451380D01*
X122858738Y-114451380D01*
X123525404Y-114451380D02*
X124096833Y-114451380D01*
X123811119Y-115451380D02*
X123811119Y-114451380D01*
X125001595Y-115451380D02*
X124668261Y-114975190D01*
X124430166Y-115451380D02*
X124430166Y-114451380D01*
X124811119Y-114451380D01*
X124906357Y-114499000D01*
X124953976Y-114546619D01*
X125001595Y-114641857D01*
X125001595Y-114784714D01*
X124953976Y-114879952D01*
X124906357Y-114927571D01*
X124811119Y-114975190D01*
X124430166Y-114975190D01*
X121953976Y-117053761D02*
X122096833Y-117101380D01*
X122334928Y-117101380D01*
X122430166Y-117053761D01*
X122477785Y-117006142D01*
X122525404Y-116910904D01*
X122525404Y-116815666D01*
X122477785Y-116720428D01*
X122430166Y-116672809D01*
X122334928Y-116625190D01*
X122144452Y-116577571D01*
X122049214Y-116529952D01*
X122001595Y-116482333D01*
X121953976Y-116387095D01*
X121953976Y-116291857D01*
X122001595Y-116196619D01*
X122049214Y-116149000D01*
X122144452Y-116101380D01*
X122382547Y-116101380D01*
X122525404Y-116149000D01*
X122953976Y-117101380D02*
X122953976Y-116101380D01*
X123953976Y-116149000D02*
X123858738Y-116101380D01*
X123715880Y-116101380D01*
X123573023Y-116149000D01*
X123477785Y-116244238D01*
X123430166Y-116339476D01*
X123382547Y-116529952D01*
X123382547Y-116672809D01*
X123430166Y-116863285D01*
X123477785Y-116958523D01*
X123573023Y-117053761D01*
X123715880Y-117101380D01*
X123811119Y-117101380D01*
X123953976Y-117053761D01*
X124001595Y-117006142D01*
X124001595Y-116672809D01*
X123811119Y-116672809D01*
D11*
X147747758Y-98630000D02*
X147273242Y-98630000D01*
X147747758Y-97585000D02*
X147273242Y-97585000D01*
X145923000Y-110594500D02*
X142998000Y-110594500D01*
X145923000Y-110594500D02*
X147423000Y-110594500D01*
X145923000Y-113814500D02*
X144423000Y-113814500D01*
X145923000Y-113814500D02*
X147423000Y-113814500D01*
X142748000Y-99037500D02*
X139823000Y-99037500D01*
X142748000Y-99037500D02*
X144248000Y-99037500D01*
X142748000Y-102257500D02*
X141248000Y-102257500D01*
X142748000Y-102257500D02*
X144248000Y-102257500D01*
X153797000Y-98339000D02*
X150872000Y-98339000D01*
X153797000Y-98339000D02*
X155297000Y-98339000D01*
X153797000Y-101559000D02*
X152297000Y-101559000D01*
X153797000Y-101559000D02*
X155297000Y-101559000D01*
X158999700Y-110424200D02*
X156074700Y-110424200D01*
X158999700Y-110424200D02*
X160499700Y-110424200D01*
X158999700Y-113644200D02*
X157499700Y-113644200D01*
X158999700Y-113644200D02*
X160499700Y-113644200D01*
X131699000Y-98974000D02*
X128774000Y-98974000D01*
X131699000Y-98974000D02*
X133199000Y-98974000D01*
X131699000Y-102194000D02*
X130199000Y-102194000D01*
X131699000Y-102194000D02*
X133199000Y-102194000D01*
X133159500Y-109769000D02*
X130234500Y-109769000D01*
X133159500Y-109769000D02*
X134659500Y-109769000D01*
X133159500Y-112989000D02*
X131659500Y-112989000D01*
X133159500Y-112989000D02*
X134659500Y-112989000D01*
X127077080Y-96518000D02*
X126795920Y-96518000D01*
X127077080Y-97538000D02*
X126795920Y-97538000D01*
X147747758Y-101678000D02*
X147273242Y-101678000D01*
X147747758Y-100633000D02*
X147273242Y-100633000D01*
X147273242Y-99109000D02*
X147747758Y-99109000D01*
X147273242Y-100154000D02*
X147747758Y-100154000D01*
X155433500Y-95360258D02*
X155433500Y-94885742D01*
X156478500Y-95360258D02*
X156478500Y-94885742D01*
X157338500Y-97392258D02*
X157338500Y-96917742D01*
X158383500Y-97392258D02*
X158383500Y-96917742D01*
X151149000Y-106137000D02*
X150769000Y-106137000D01*
X155809000Y-106137000D02*
X155429000Y-106137000D01*
X153649000Y-106137000D02*
X152929000Y-106137000D01*
X155809000Y-102397000D02*
X154529000Y-102397000D01*
X152049000Y-102397000D02*
X150769000Y-102397000D01*
X155809000Y-106137000D02*
X155809000Y-102397000D01*
X150769000Y-106137000D02*
X150769000Y-102397000D01*
X149968000Y-92935500D02*
X150348000Y-92935500D01*
X145308000Y-92935500D02*
X145688000Y-92935500D01*
X147468000Y-92935500D02*
X148188000Y-92935500D01*
X145308000Y-96675500D02*
X146588000Y-96675500D01*
X149068000Y-96675500D02*
X150348000Y-96675500D01*
X145308000Y-92935500D02*
X145308000Y-96675500D01*
X150348000Y-92935500D02*
X150348000Y-96675500D01*
X146609000Y-105519500D02*
X150519000Y-105519500D01*
X150519000Y-105519500D02*
X150519000Y-103649500D01*
X150519000Y-103649500D02*
X146609000Y-103649500D01*
X147651080Y-103189500D02*
X147369920Y-103189500D01*
X147651080Y-102169500D02*
X147369920Y-102169500D01*
X164073000Y-116672000D02*
X165873000Y-116672000D01*
X165873000Y-113452000D02*
X163423000Y-113452000D01*
X129681500Y-109871742D02*
X129681500Y-110346258D01*
X128636500Y-109871742D02*
X128636500Y-110346258D01*
X136179600Y-100379920D02*
X136179600Y-100661080D01*
X135159600Y-100379920D02*
X135159600Y-100661080D01*
X141177242Y-93013000D02*
X141651758Y-93013000D01*
X141177242Y-94058000D02*
X141651758Y-94058000D01*
X142445000Y-110443242D02*
X142445000Y-110917758D01*
X141400000Y-110443242D02*
X141400000Y-110917758D01*
X155367758Y-97931500D02*
X154893242Y-97931500D01*
X155367758Y-96886500D02*
X154893242Y-96886500D01*
X144636258Y-98630000D02*
X144161742Y-98630000D01*
X144636258Y-97585000D02*
X144161742Y-97585000D01*
X139876000Y-110921858D02*
X139876000Y-110447342D01*
X140921000Y-110921858D02*
X140921000Y-110447342D01*
X138225000Y-100757758D02*
X138225000Y-100283242D01*
X139270000Y-100757758D02*
X139270000Y-100283242D01*
X149274000Y-99170258D02*
X149274000Y-98695742D01*
X150319000Y-99170258D02*
X150319000Y-98695742D01*
X150319000Y-101743742D02*
X150319000Y-102218258D01*
X149274000Y-101743742D02*
X149274000Y-102218258D01*
X141654000Y-97582758D02*
X141654000Y-97108242D01*
X142699000Y-97582758D02*
X142699000Y-97108242D01*
X140921000Y-113491242D02*
X140921000Y-113965758D01*
X139876000Y-113491242D02*
X139876000Y-113965758D01*
X157717258Y-104535500D02*
X157242742Y-104535500D01*
X157717258Y-103490500D02*
X157242742Y-103490500D01*
X157242742Y-101966500D02*
X157717258Y-101966500D01*
X157242742Y-103011500D02*
X157717258Y-103011500D01*
X138159258Y-109869500D02*
X137684742Y-109869500D01*
X138159258Y-108824500D02*
X137684742Y-108824500D01*
X137682500Y-111395742D02*
X137682500Y-111870258D01*
X136637500Y-111395742D02*
X136637500Y-111870258D01*
X137746000Y-100283242D02*
X137746000Y-100757758D01*
X136701000Y-100283242D02*
X136701000Y-100757758D01*
X138161500Y-111870258D02*
X138161500Y-111395742D01*
X139206500Y-111870258D02*
X139206500Y-111395742D01*
X133269758Y-103646500D02*
X132795242Y-103646500D01*
X133269758Y-102601500D02*
X132795242Y-102601500D01*
X134730258Y-114441500D02*
X134255742Y-114441500D01*
X134730258Y-113396500D02*
X134255742Y-113396500D01*
X130221758Y-98566500D02*
X129747242Y-98566500D01*
X130221758Y-97521500D02*
X129747242Y-97521500D01*
X131682258Y-109361500D02*
X131207742Y-109361500D01*
X131682258Y-108316500D02*
X131207742Y-108316500D01*
X128221000Y-99080842D02*
X128221000Y-99555358D01*
X127176000Y-99080842D02*
X127176000Y-99555358D01*
X128221000Y-102128842D02*
X128221000Y-102603358D01*
X127176000Y-102128842D02*
X127176000Y-102603358D01*
X125652000Y-99551258D02*
X125652000Y-99076742D01*
X126697000Y-99551258D02*
X126697000Y-99076742D01*
X127112500Y-110346258D02*
X127112500Y-109871742D01*
X128157500Y-110346258D02*
X128157500Y-109871742D01*
X128634258Y-112917500D02*
X128159742Y-112917500D01*
X128634258Y-111872500D02*
X128159742Y-111872500D01*
X126633500Y-112919742D02*
X126633500Y-113394258D01*
X125588500Y-112919742D02*
X125588500Y-113394258D01*
X154004242Y-110475500D02*
X154478758Y-110475500D01*
X154004242Y-111520500D02*
X154478758Y-111520500D01*
X163781000Y-102378742D02*
X163781000Y-102853258D01*
X162736000Y-102378742D02*
X162736000Y-102853258D01*
X150446000Y-110062242D02*
X150446000Y-110536758D01*
X149401000Y-110062242D02*
X149401000Y-110536758D01*
X150922758Y-108091500D02*
X150448242Y-108091500D01*
X150922758Y-107046500D02*
X150448242Y-107046500D01*
X149401000Y-116632258D02*
X149401000Y-116157742D01*
X150446000Y-116632258D02*
X150446000Y-116157742D01*
X163781000Y-99394242D02*
X163781000Y-99868758D01*
X162736000Y-99394242D02*
X162736000Y-99868758D01*
X165561242Y-111936000D02*
X166035758Y-111936000D01*
X165561242Y-112981000D02*
X166035758Y-112981000D01*
X161243242Y-115619000D02*
X161717758Y-115619000D01*
X161243242Y-116664000D02*
X161717758Y-116664000D01*
X150446000Y-113110242D02*
X150446000Y-113584758D01*
X149401000Y-113110242D02*
X149401000Y-113584758D01*
X154004242Y-111999500D02*
X154478758Y-111999500D01*
X154004242Y-113044500D02*
X154478758Y-113044500D01*
X159484800Y-108949258D02*
X159484800Y-108474742D01*
X160529800Y-108949258D02*
X160529800Y-108474742D01*
X147654358Y-115330500D02*
X147179842Y-115330500D01*
X147654358Y-114285500D02*
X147179842Y-114285500D01*
X158669758Y-115140000D02*
X158195242Y-115140000D01*
X158669758Y-114095000D02*
X158195242Y-114095000D01*
X144098242Y-109078500D02*
X144572758Y-109078500D01*
X144098242Y-110123500D02*
X144572758Y-110123500D01*
X163781000Y-96409742D02*
X163781000Y-96884258D01*
X162736000Y-96409742D02*
X162736000Y-96884258D01*
X162469500Y-103416000D02*
X162469500Y-101131000D01*
X162469500Y-101131000D02*
X160999500Y-101131000D01*
X160999500Y-101131000D02*
X160999500Y-103416000D01*
X162469500Y-100435600D02*
X162469500Y-98150600D01*
X162469500Y-98150600D02*
X160999500Y-98150600D01*
X160999500Y-98150600D02*
X160999500Y-100435600D01*
X162469500Y-97447000D02*
X162469500Y-95162000D01*
X162469500Y-95162000D02*
X160999500Y-95162000D01*
X160999500Y-95162000D02*
X160999500Y-97447000D01*
X143982221Y-102677500D02*
X144307779Y-102677500D01*
X143982221Y-103697500D02*
X144307779Y-103697500D01*
X137479500Y-95595221D02*
X137479500Y-95920779D01*
X136459500Y-95595221D02*
X136459500Y-95920779D01*
X160276000Y-103024721D02*
X160276000Y-103350279D01*
X159256000Y-103024721D02*
X159256000Y-103350279D01*
X152245279Y-94236000D02*
X151919721Y-94236000D01*
X152245279Y-93216000D02*
X151919721Y-93216000D01*
X168594500Y-111533721D02*
X168594500Y-111859279D01*
X167574500Y-111533721D02*
X167574500Y-111859279D01*
X158269721Y-115631500D02*
X158595279Y-115631500D01*
X158269721Y-116651500D02*
X158595279Y-116651500D01*
X164119779Y-107507500D02*
X163794221Y-107507500D01*
X164119779Y-106487500D02*
X163794221Y-106487500D01*
X131472721Y-104138000D02*
X131798279Y-104138000D01*
X131472721Y-105158000D02*
X131798279Y-105158000D01*
X134846279Y-97030000D02*
X134520721Y-97030000D01*
X134846279Y-96010000D02*
X134520721Y-96010000D01*
X144236221Y-115822000D02*
X144561779Y-115822000D01*
X144236221Y-116842000D02*
X144561779Y-116842000D01*
X145607500Y-105628221D02*
X145607500Y-105953779D01*
X144587500Y-105628221D02*
X144587500Y-105953779D01*
X128559779Y-115953000D02*
X128234221Y-115953000D01*
X128559779Y-114933000D02*
X128234221Y-114933000D01*
X137703779Y-108333000D02*
X137378221Y-108333000D01*
X137703779Y-107313000D02*
X137378221Y-107313000D01*
D12*
X170879000Y-100541500D02*
X170879000Y-101141500D01*
X170879000Y-107241500D02*
X170879000Y-107841500D01*
X178629000Y-107841500D02*
X178629000Y-100541500D01*
X171779000Y-108391500D02*
X171479000Y-108891500D01*
X172079000Y-108891500D02*
X171779000Y-108391500D01*
X171479000Y-108891500D02*
X172079000Y-108891500D01*
X178629000Y-100541500D02*
X170879000Y-100541500D01*
X178629000Y-107841500D02*
X170879000Y-107841500D01*
D13*
X172678000Y-112649000D02*
G75*
G03*
X172678000Y-112649000I-125000J0D01*
G01*
D10*
X177888000Y-108649000D02*
X173188000Y-108649000D01*
X173188000Y-108649000D02*
X173188000Y-116649000D01*
X177888000Y-116649000D02*
X173188000Y-116649000D01*
D13*
X126236000Y-116927000D02*
G75*
G03*
X126236000Y-116927000I-125000J0D01*
G01*
D10*
X130111000Y-122262000D02*
X130111000Y-117562000D01*
X130111000Y-117562000D02*
X122111000Y-117562000D01*
X122111000Y-122262000D02*
X122111000Y-117562000D01*
D13*
X121810000Y-112649000D02*
G75*
G03*
X121810000Y-112649000I-125000J0D01*
G01*
D10*
X116350000Y-116649000D02*
X121050000Y-116649000D01*
X121050000Y-116649000D02*
X121050000Y-108649000D01*
X116350000Y-108649000D02*
X121050000Y-108649000D01*
D12*
X123382000Y-100424000D02*
X123382000Y-99824000D01*
X123382000Y-93724000D02*
X123382000Y-93124000D01*
X115632000Y-93124000D02*
X115632000Y-100424000D01*
X122482000Y-92574000D02*
X122782000Y-92074000D01*
X122182000Y-92074000D02*
X122482000Y-92574000D01*
X122782000Y-92074000D02*
X122182000Y-92074000D01*
X115632000Y-100424000D02*
X123382000Y-100424000D01*
X115632000Y-93124000D02*
X123382000Y-93124000D01*
X170877000Y-93124000D02*
X170877000Y-93724000D01*
X170877000Y-99824000D02*
X170877000Y-100424000D01*
X178627000Y-100424000D02*
X178627000Y-93124000D01*
X171777000Y-100974000D02*
X171477000Y-101474000D01*
X172077000Y-101474000D02*
X171777000Y-100974000D01*
X171477000Y-101474000D02*
X172077000Y-101474000D01*
X178627000Y-93124000D02*
X170877000Y-93124000D01*
X178627000Y-100424000D02*
X170877000Y-100424000D01*
D11*
X152820000Y-110085000D02*
X154520000Y-110085000D01*
X154520000Y-110085000D02*
X154520000Y-107535000D01*
X152820000Y-110085000D02*
X152820000Y-107535000D01*
X152551500Y-108482000D02*
X150851500Y-108482000D01*
X150851500Y-108482000D02*
X150851500Y-111032000D01*
X152551500Y-108482000D02*
X152551500Y-111032000D01*
X150851500Y-114720500D02*
X152551500Y-114720500D01*
X152551500Y-114720500D02*
X152551500Y-112170500D01*
X150851500Y-114720500D02*
X150851500Y-112170500D01*
X149010500Y-108673000D02*
X149010500Y-106973000D01*
X149010500Y-106973000D02*
X146460500Y-106973000D01*
X149010500Y-108673000D02*
X146460500Y-108673000D01*
X162472000Y-113069500D02*
X164172000Y-113069500D01*
X164172000Y-113069500D02*
X164172000Y-110519500D01*
X162472000Y-113069500D02*
X162472000Y-110519500D01*
X159107000Y-108165000D02*
X159107000Y-106465000D01*
X159107000Y-106465000D02*
X156557000Y-106465000D01*
X159107000Y-108165000D02*
X156557000Y-108165000D01*
X156107000Y-108433500D02*
X156107000Y-110133500D01*
X156107000Y-110133500D02*
X158657000Y-110133500D01*
X156107000Y-108433500D02*
X158657000Y-108433500D01*
X141301080Y-108904500D02*
X141019920Y-108904500D01*
X141301080Y-107884500D02*
X141019920Y-107884500D01*
X141412500Y-113869080D02*
X141412500Y-113587920D01*
X142432500Y-113869080D02*
X142432500Y-113587920D01*
X143083000Y-93396000D02*
X143083000Y-97306000D01*
X143083000Y-97306000D02*
X144953000Y-97306000D01*
X144953000Y-97306000D02*
X144953000Y-93396000D01*
X141555080Y-95569500D02*
X141273920Y-95569500D01*
X141555080Y-94549500D02*
X141273920Y-94549500D01*
X138823500Y-102189000D02*
X134913500Y-102189000D01*
X134913500Y-102189000D02*
X134913500Y-104059000D01*
X134913500Y-104059000D02*
X138823500Y-104059000D01*
X137876000Y-94903500D02*
X137876000Y-98813500D01*
X137876000Y-98813500D02*
X139746000Y-98813500D01*
X139746000Y-98813500D02*
X139746000Y-94903500D01*
X140892920Y-102677500D02*
X141174080Y-102677500D01*
X140892920Y-103697500D02*
X141174080Y-103697500D01*
X141162500Y-97204920D02*
X141162500Y-97486080D01*
X140142500Y-97204920D02*
X140142500Y-97486080D01*
X134633580Y-109349000D02*
X134352420Y-109349000D01*
X134633580Y-108329000D02*
X134352420Y-108329000D01*
X160637500Y-100914000D02*
X160637500Y-97004000D01*
X160637500Y-97004000D02*
X158767500Y-97004000D01*
X158767500Y-97004000D02*
X158767500Y-100914000D01*
X154508000Y-94632500D02*
X150598000Y-94632500D01*
X150598000Y-94632500D02*
X150598000Y-96502500D01*
X150598000Y-96502500D02*
X154508000Y-96502500D01*
X137681580Y-114429000D02*
X137400420Y-114429000D01*
X137681580Y-113409000D02*
X137400420Y-113409000D01*
X157351000Y-100343580D02*
X157351000Y-100062420D01*
X158371000Y-100343580D02*
X158371000Y-100062420D01*
X151941920Y-96899000D02*
X152223080Y-96899000D01*
X151941920Y-97919000D02*
X152223080Y-97919000D01*
X133173080Y-98554000D02*
X132891920Y-98554000D01*
X133173080Y-97534000D02*
X132891920Y-97534000D01*
X168956000Y-117170000D02*
X168956000Y-113260000D01*
X168956000Y-113260000D02*
X167086000Y-113260000D01*
X167086000Y-113260000D02*
X167086000Y-117170000D01*
X165657920Y-110424500D02*
X165939080Y-110424500D01*
X165657920Y-111444500D02*
X165939080Y-111444500D01*
X156159000Y-115016000D02*
X152249000Y-115016000D01*
X152249000Y-115016000D02*
X152249000Y-116886000D01*
X152249000Y-116886000D02*
X156159000Y-116886000D01*
X166382500Y-107904000D02*
X162472500Y-107904000D01*
X162472500Y-107904000D02*
X162472500Y-109774000D01*
X162472500Y-109774000D02*
X166382500Y-109774000D01*
X154382080Y-114619500D02*
X154100920Y-114619500D01*
X154382080Y-113599500D02*
X154100920Y-113599500D01*
X162054000Y-108571420D02*
X162054000Y-108852580D01*
X161034000Y-108571420D02*
X161034000Y-108852580D01*
X129362000Y-104030500D02*
X125452000Y-104030500D01*
X125452000Y-104030500D02*
X125452000Y-105900500D01*
X125452000Y-105900500D02*
X129362000Y-105900500D01*
X129210000Y-97137500D02*
X133120000Y-97137500D01*
X133120000Y-97137500D02*
X133120000Y-95267500D01*
X133120000Y-95267500D02*
X129210000Y-95267500D01*
X126621000Y-109968420D02*
X126621000Y-110249580D01*
X125601000Y-109968420D02*
X125601000Y-110249580D01*
X129843920Y-102614000D02*
X130125080Y-102614000D01*
X129843920Y-103634000D02*
X130125080Y-103634000D01*
X136221080Y-98554000D02*
X135939920Y-98554000D01*
X136221080Y-97534000D02*
X135939920Y-97534000D01*
X126684500Y-102221420D02*
X126684500Y-102502580D01*
X125664500Y-102221420D02*
X125664500Y-102502580D01*
X128256420Y-113409000D02*
X128537580Y-113409000D01*
X128256420Y-114429000D02*
X128537580Y-114429000D01*
X141935000Y-115397000D02*
X138025000Y-115397000D01*
X138025000Y-115397000D02*
X138025000Y-117267000D01*
X138025000Y-117267000D02*
X141935000Y-117267000D01*
X140386000Y-107170500D02*
X144296000Y-107170500D01*
X144296000Y-107170500D02*
X144296000Y-105300500D01*
X144296000Y-105300500D02*
X140386000Y-105300500D01*
X144258420Y-114298000D02*
X144539580Y-114298000D01*
X144258420Y-115318000D02*
X144539580Y-115318000D01*
X147242920Y-109091000D02*
X147524080Y-109091000D01*
X147242920Y-110111000D02*
X147524080Y-110111000D01*
X130670500Y-116695500D02*
X134580500Y-116695500D01*
X134580500Y-116695500D02*
X134580500Y-114825500D01*
X134580500Y-114825500D02*
X130670500Y-114825500D01*
X132101100Y-107936600D02*
X136011100Y-107936600D01*
X136011100Y-107936600D02*
X136011100Y-106066600D01*
X136011100Y-106066600D02*
X132101100Y-106066600D01*
X131304420Y-113409000D02*
X131585580Y-113409000D01*
X131304420Y-114429000D02*
X131585580Y-114429000D01*
X137681580Y-106809000D02*
X137400420Y-106809000D01*
X137681580Y-105789000D02*
X137400420Y-105789000D01*
X168739100Y-104302500D02*
X168739100Y-100092500D01*
X168739100Y-100092500D02*
X165719100Y-100092500D01*
X165719100Y-100092500D02*
X165719100Y-104302500D01*
X164272500Y-102756580D02*
X164272500Y-102475420D01*
X165292500Y-102756580D02*
X165292500Y-102475420D01*
X165719100Y-95853600D02*
X165719100Y-100063600D01*
X165719100Y-100063600D02*
X168739100Y-100063600D01*
X168739100Y-100063600D02*
X168739100Y-95853600D01*
X164272500Y-99772080D02*
X164272500Y-99490920D01*
X165292500Y-99772080D02*
X165292500Y-99490920D01*
X161621080Y-115127500D02*
X161339920Y-115127500D01*
X161621080Y-114107500D02*
X161339920Y-114107500D01*
X165849248Y-93006500D02*
X167271752Y-93006500D01*
X165849248Y-94826500D02*
X167271752Y-94826500D01*
X164272500Y-96787580D02*
X164272500Y-96506420D01*
X165292500Y-96787580D02*
X165292500Y-96506420D01*
X144476080Y-108587000D02*
X144194920Y-108587000D01*
X144476080Y-107567000D02*
X144194920Y-107567000D01*
X147276520Y-115822000D02*
X147557680Y-115822000D01*
X147276520Y-116842000D02*
X147557680Y-116842000D01*
X150937500Y-116536080D02*
X150937500Y-116254920D01*
X151957500Y-116536080D02*
X151957500Y-116254920D01*
D10*
X156408380Y-92844857D02*
X155932190Y-93178190D01*
X156408380Y-93416285D02*
X155408380Y-93416285D01*
X155408380Y-93035333D01*
X155456000Y-92940095D01*
X155503619Y-92892476D01*
X155598857Y-92844857D01*
X155741714Y-92844857D01*
X155836952Y-92892476D01*
X155884571Y-92940095D01*
X155932190Y-93035333D01*
X155932190Y-93416285D01*
X155408380Y-92511523D02*
X155408380Y-91892476D01*
X155789333Y-92225809D01*
X155789333Y-92082952D01*
X155836952Y-91987714D01*
X155884571Y-91940095D01*
X155979809Y-91892476D01*
X156217904Y-91892476D01*
X156313142Y-91940095D01*
X156360761Y-91987714D01*
X156408380Y-92082952D01*
X156408380Y-92368666D01*
X156360761Y-92463904D01*
X156313142Y-92511523D01*
X155408380Y-91559142D02*
X155408380Y-90940095D01*
X155789333Y-91273428D01*
X155789333Y-91130571D01*
X155836952Y-91035333D01*
X155884571Y-90987714D01*
X155979809Y-90940095D01*
X156217904Y-90940095D01*
X156313142Y-90987714D01*
X156360761Y-91035333D01*
X156408380Y-91130571D01*
X156408380Y-91416285D01*
X156360761Y-91511523D01*
X156313142Y-91559142D01*
X158694380Y-95130857D02*
X158218190Y-95464190D01*
X158694380Y-95702285D02*
X157694380Y-95702285D01*
X157694380Y-95321333D01*
X157742000Y-95226095D01*
X157789619Y-95178476D01*
X157884857Y-95130857D01*
X158027714Y-95130857D01*
X158122952Y-95178476D01*
X158170571Y-95226095D01*
X158218190Y-95321333D01*
X158218190Y-95702285D01*
X157694380Y-94797523D02*
X157694380Y-94178476D01*
X158075333Y-94511809D01*
X158075333Y-94368952D01*
X158122952Y-94273714D01*
X158170571Y-94226095D01*
X158265809Y-94178476D01*
X158503904Y-94178476D01*
X158599142Y-94226095D01*
X158646761Y-94273714D01*
X158694380Y-94368952D01*
X158694380Y-94654666D01*
X158646761Y-94749904D01*
X158599142Y-94797523D01*
X157694380Y-93559428D02*
X157694380Y-93464190D01*
X157742000Y-93368952D01*
X157789619Y-93321333D01*
X157884857Y-93273714D01*
X158075333Y-93226095D01*
X158313428Y-93226095D01*
X158503904Y-93273714D01*
X158599142Y-93321333D01*
X158646761Y-93368952D01*
X158694380Y-93464190D01*
X158694380Y-93559428D01*
X158646761Y-93654666D01*
X158599142Y-93702285D01*
X158503904Y-93749904D01*
X158313428Y-93797523D01*
X158075333Y-93797523D01*
X157884857Y-93749904D01*
X157789619Y-93702285D01*
X157742000Y-93654666D01*
X157694380Y-93559428D01*
X147232761Y-92146380D02*
X146899428Y-91670190D01*
X146661333Y-92146380D02*
X146661333Y-91146380D01*
X147042285Y-91146380D01*
X147137523Y-91194000D01*
X147185142Y-91241619D01*
X147232761Y-91336857D01*
X147232761Y-91479714D01*
X147185142Y-91574952D01*
X147137523Y-91622571D01*
X147042285Y-91670190D01*
X146661333Y-91670190D01*
X147518476Y-91146380D02*
X147851809Y-92146380D01*
X148185142Y-91146380D01*
X148470857Y-91241619D02*
X148518476Y-91194000D01*
X148613714Y-91146380D01*
X148851809Y-91146380D01*
X148947047Y-91194000D01*
X148994666Y-91241619D01*
X149042285Y-91336857D01*
X149042285Y-91432095D01*
X148994666Y-91574952D01*
X148423238Y-92146380D01*
X149042285Y-92146380D01*
X163869809Y-118054380D02*
X163869809Y-117054380D01*
X164917428Y-117959142D02*
X164869809Y-118006761D01*
X164726952Y-118054380D01*
X164631714Y-118054380D01*
X164488857Y-118006761D01*
X164393619Y-117911523D01*
X164346000Y-117816285D01*
X164298380Y-117625809D01*
X164298380Y-117482952D01*
X164346000Y-117292476D01*
X164393619Y-117197238D01*
X164488857Y-117102000D01*
X164631714Y-117054380D01*
X164726952Y-117054380D01*
X164869809Y-117102000D01*
X164917428Y-117149619D01*
X165822190Y-117054380D02*
X165346000Y-117054380D01*
X165298380Y-117530571D01*
X165346000Y-117482952D01*
X165441238Y-117435333D01*
X165679333Y-117435333D01*
X165774571Y-117482952D01*
X165822190Y-117530571D01*
X165869809Y-117625809D01*
X165869809Y-117863904D01*
X165822190Y-117959142D01*
X165774571Y-118006761D01*
X165679333Y-118054380D01*
X165441238Y-118054380D01*
X165346000Y-118006761D01*
X165298380Y-117959142D01*
X140771642Y-92654380D02*
X140438309Y-92178190D01*
X140200214Y-92654380D02*
X140200214Y-91654380D01*
X140581166Y-91654380D01*
X140676404Y-91702000D01*
X140724023Y-91749619D01*
X140771642Y-91844857D01*
X140771642Y-91987714D01*
X140724023Y-92082952D01*
X140676404Y-92130571D01*
X140581166Y-92178190D01*
X140200214Y-92178190D01*
X141628785Y-91987714D02*
X141628785Y-92654380D01*
X141390690Y-91606761D02*
X141152595Y-92321047D01*
X141771642Y-92321047D01*
X142628785Y-91654380D02*
X142152595Y-91654380D01*
X142104976Y-92130571D01*
X142152595Y-92082952D01*
X142247833Y-92035333D01*
X142485928Y-92035333D01*
X142581166Y-92082952D01*
X142628785Y-92130571D01*
X142676404Y-92225809D01*
X142676404Y-92463904D01*
X142628785Y-92559142D01*
X142581166Y-92606761D01*
X142485928Y-92654380D01*
X142247833Y-92654380D01*
X142152595Y-92606761D01*
X142104976Y-92559142D01*
X156837142Y-105895380D02*
X156503809Y-105419190D01*
X156265714Y-105895380D02*
X156265714Y-104895380D01*
X156646666Y-104895380D01*
X156741904Y-104943000D01*
X156789523Y-104990619D01*
X156837142Y-105085857D01*
X156837142Y-105228714D01*
X156789523Y-105323952D01*
X156741904Y-105371571D01*
X156646666Y-105419190D01*
X156265714Y-105419190D01*
X157218095Y-104990619D02*
X157265714Y-104943000D01*
X157360952Y-104895380D01*
X157599047Y-104895380D01*
X157694285Y-104943000D01*
X157741904Y-104990619D01*
X157789523Y-105085857D01*
X157789523Y-105181095D01*
X157741904Y-105323952D01*
X157170476Y-105895380D01*
X157789523Y-105895380D01*
X158360952Y-105323952D02*
X158265714Y-105276333D01*
X158218095Y-105228714D01*
X158170476Y-105133476D01*
X158170476Y-105085857D01*
X158218095Y-104990619D01*
X158265714Y-104943000D01*
X158360952Y-104895380D01*
X158551428Y-104895380D01*
X158646666Y-104943000D01*
X158694285Y-104990619D01*
X158741904Y-105085857D01*
X158741904Y-105133476D01*
X158694285Y-105228714D01*
X158646666Y-105276333D01*
X158551428Y-105323952D01*
X158360952Y-105323952D01*
X158265714Y-105371571D01*
X158218095Y-105419190D01*
X158170476Y-105514428D01*
X158170476Y-105704904D01*
X158218095Y-105800142D01*
X158265714Y-105847761D01*
X158360952Y-105895380D01*
X158551428Y-105895380D01*
X158646666Y-105847761D01*
X158694285Y-105800142D01*
X158741904Y-105704904D01*
X158741904Y-105514428D01*
X158694285Y-105419190D01*
X158646666Y-105371571D01*
X158551428Y-105323952D01*
X125420380Y-99956857D02*
X124944190Y-100290190D01*
X125420380Y-100528285D02*
X124420380Y-100528285D01*
X124420380Y-100147333D01*
X124468000Y-100052095D01*
X124515619Y-100004476D01*
X124610857Y-99956857D01*
X124753714Y-99956857D01*
X124848952Y-100004476D01*
X124896571Y-100052095D01*
X124944190Y-100147333D01*
X124944190Y-100528285D01*
X124515619Y-99575904D02*
X124468000Y-99528285D01*
X124420380Y-99433047D01*
X124420380Y-99194952D01*
X124468000Y-99099714D01*
X124515619Y-99052095D01*
X124610857Y-99004476D01*
X124706095Y-99004476D01*
X124848952Y-99052095D01*
X125420380Y-99623523D01*
X125420380Y-99004476D01*
X124420380Y-98147333D02*
X124420380Y-98337809D01*
X124468000Y-98433047D01*
X124515619Y-98480666D01*
X124658476Y-98575904D01*
X124848952Y-98623523D01*
X125229904Y-98623523D01*
X125325142Y-98575904D01*
X125372761Y-98528285D01*
X125420380Y-98433047D01*
X125420380Y-98242571D01*
X125372761Y-98147333D01*
X125325142Y-98099714D01*
X125229904Y-98052095D01*
X124991809Y-98052095D01*
X124896571Y-98099714D01*
X124848952Y-98147333D01*
X124801333Y-98242571D01*
X124801333Y-98433047D01*
X124848952Y-98528285D01*
X124896571Y-98575904D01*
X124991809Y-98623523D01*
X161996380Y-119006857D02*
X161520190Y-119340190D01*
X161996380Y-119578285D02*
X160996380Y-119578285D01*
X160996380Y-119197333D01*
X161044000Y-119102095D01*
X161091619Y-119054476D01*
X161186857Y-119006857D01*
X161329714Y-119006857D01*
X161424952Y-119054476D01*
X161472571Y-119102095D01*
X161520190Y-119197333D01*
X161520190Y-119578285D01*
X161329714Y-118149714D02*
X161996380Y-118149714D01*
X160948761Y-118387809D02*
X161663047Y-118625904D01*
X161663047Y-118006857D01*
X160996380Y-117197333D02*
X160996380Y-117387809D01*
X161044000Y-117483047D01*
X161091619Y-117530666D01*
X161234476Y-117625904D01*
X161424952Y-117673523D01*
X161805904Y-117673523D01*
X161901142Y-117625904D01*
X161948761Y-117578285D01*
X161996380Y-117483047D01*
X161996380Y-117292571D01*
X161948761Y-117197333D01*
X161901142Y-117149714D01*
X161805904Y-117102095D01*
X161567809Y-117102095D01*
X161472571Y-117149714D01*
X161424952Y-117197333D01*
X161377333Y-117292571D01*
X161377333Y-117483047D01*
X161424952Y-117578285D01*
X161472571Y-117625904D01*
X161567809Y-117673523D01*
X160472380Y-106560857D02*
X159996190Y-106894190D01*
X160472380Y-107132285D02*
X159472380Y-107132285D01*
X159472380Y-106751333D01*
X159520000Y-106656095D01*
X159567619Y-106608476D01*
X159662857Y-106560857D01*
X159805714Y-106560857D01*
X159900952Y-106608476D01*
X159948571Y-106656095D01*
X159996190Y-106751333D01*
X159996190Y-107132285D01*
X159805714Y-105703714D02*
X160472380Y-105703714D01*
X159424761Y-105941809D02*
X160139047Y-106179904D01*
X160139047Y-105560857D01*
X159472380Y-104989428D02*
X159472380Y-104894190D01*
X159520000Y-104798952D01*
X159567619Y-104751333D01*
X159662857Y-104703714D01*
X159853333Y-104656095D01*
X160091428Y-104656095D01*
X160281904Y-104703714D01*
X160377142Y-104751333D01*
X160424761Y-104798952D01*
X160472380Y-104894190D01*
X160472380Y-104989428D01*
X160424761Y-105084666D01*
X160377142Y-105132285D01*
X160281904Y-105179904D01*
X160091428Y-105227523D01*
X159853333Y-105227523D01*
X159662857Y-105179904D01*
X159567619Y-105132285D01*
X159520000Y-105084666D01*
X159472380Y-104989428D01*
X163774380Y-94400666D02*
X163298190Y-94734000D01*
X163774380Y-94972095D02*
X162774380Y-94972095D01*
X162774380Y-94591142D01*
X162822000Y-94495904D01*
X162869619Y-94448285D01*
X162964857Y-94400666D01*
X163107714Y-94400666D01*
X163202952Y-94448285D01*
X163250571Y-94495904D01*
X163298190Y-94591142D01*
X163298190Y-94972095D01*
X163774380Y-93448285D02*
X163774380Y-94019714D01*
X163774380Y-93734000D02*
X162774380Y-93734000D01*
X162917238Y-93829238D01*
X163012476Y-93924476D01*
X163060095Y-94019714D01*
X161742380Y-94337047D02*
X161742380Y-94813238D01*
X160742380Y-94813238D01*
X161218571Y-94003714D02*
X161218571Y-93670380D01*
X161742380Y-93527523D02*
X161742380Y-94003714D01*
X160742380Y-94003714D01*
X160742380Y-93527523D01*
X161742380Y-93098952D02*
X160742380Y-93098952D01*
X160742380Y-92860857D01*
X160790000Y-92718000D01*
X160885238Y-92622761D01*
X160980476Y-92575142D01*
X161170952Y-92527523D01*
X161313809Y-92527523D01*
X161504285Y-92575142D01*
X161599523Y-92622761D01*
X161694761Y-92718000D01*
X161742380Y-92860857D01*
X161742380Y-93098952D01*
X160837619Y-92146571D02*
X160790000Y-92098952D01*
X160742380Y-92003714D01*
X160742380Y-91765619D01*
X160790000Y-91670380D01*
X160837619Y-91622761D01*
X160932857Y-91575142D01*
X161028095Y-91575142D01*
X161170952Y-91622761D01*
X161742380Y-92194190D01*
X161742380Y-91575142D01*
X137612380Y-93892666D02*
X137612380Y-94368857D01*
X136612380Y-94368857D01*
X136612380Y-93130761D02*
X136612380Y-93321238D01*
X136660000Y-93416476D01*
X136707619Y-93464095D01*
X136850476Y-93559333D01*
X137040952Y-93606952D01*
X137421904Y-93606952D01*
X137517142Y-93559333D01*
X137564761Y-93511714D01*
X137612380Y-93416476D01*
X137612380Y-93226000D01*
X137564761Y-93130761D01*
X137517142Y-93083142D01*
X137421904Y-93035523D01*
X137183809Y-93035523D01*
X137088571Y-93083142D01*
X137040952Y-93130761D01*
X136993333Y-93226000D01*
X136993333Y-93416476D01*
X137040952Y-93511714D01*
X137088571Y-93559333D01*
X137183809Y-93606952D01*
X151979333Y-92908380D02*
X151503142Y-92908380D01*
X151503142Y-91908380D01*
X152788857Y-91908380D02*
X152312666Y-91908380D01*
X152265047Y-92384571D01*
X152312666Y-92336952D01*
X152407904Y-92289333D01*
X152646000Y-92289333D01*
X152741238Y-92336952D01*
X152788857Y-92384571D01*
X152836476Y-92479809D01*
X152836476Y-92717904D01*
X152788857Y-92813142D01*
X152741238Y-92860761D01*
X152646000Y-92908380D01*
X152407904Y-92908380D01*
X152312666Y-92860761D01*
X152265047Y-92813142D01*
X169966880Y-111863166D02*
X169966880Y-112339357D01*
X168966880Y-112339357D01*
X168966880Y-111625071D02*
X168966880Y-110958404D01*
X169966880Y-111386976D01*
X157853142Y-117800380D02*
X157376952Y-117800380D01*
X157376952Y-116800380D01*
X158710285Y-117800380D02*
X158138857Y-117800380D01*
X158424571Y-117800380D02*
X158424571Y-116800380D01*
X158329333Y-116943238D01*
X158234095Y-117038476D01*
X158138857Y-117086095D01*
X159662666Y-117800380D02*
X159091238Y-117800380D01*
X159376952Y-117800380D02*
X159376952Y-116800380D01*
X159281714Y-116943238D01*
X159186476Y-117038476D01*
X159091238Y-117086095D01*
X163155333Y-106116380D02*
X162679142Y-106116380D01*
X162679142Y-105116380D01*
X163917238Y-105449714D02*
X163917238Y-106116380D01*
X163679142Y-105068761D02*
X163441047Y-105783047D01*
X164060095Y-105783047D01*
X134707333Y-95702380D02*
X134231142Y-95702380D01*
X134231142Y-94702380D01*
X134945428Y-94702380D02*
X135564476Y-94702380D01*
X135231142Y-95083333D01*
X135374000Y-95083333D01*
X135469238Y-95130952D01*
X135516857Y-95178571D01*
X135564476Y-95273809D01*
X135564476Y-95511904D01*
X135516857Y-95607142D01*
X135469238Y-95654761D01*
X135374000Y-95702380D01*
X135088285Y-95702380D01*
X134993047Y-95654761D01*
X134945428Y-95607142D01*
X144105333Y-118054380D02*
X143629142Y-118054380D01*
X143629142Y-117054380D01*
X144486285Y-118054380D02*
X144676761Y-118054380D01*
X144772000Y-118006761D01*
X144819619Y-117959142D01*
X144914857Y-117816285D01*
X144962476Y-117625809D01*
X144962476Y-117244857D01*
X144914857Y-117149619D01*
X144867238Y-117102000D01*
X144772000Y-117054380D01*
X144581523Y-117054380D01*
X144486285Y-117102000D01*
X144438666Y-117149619D01*
X144391047Y-117244857D01*
X144391047Y-117482952D01*
X144438666Y-117578190D01*
X144486285Y-117625809D01*
X144581523Y-117673428D01*
X144772000Y-117673428D01*
X144867238Y-117625809D01*
X144914857Y-117578190D01*
X144962476Y-117482952D01*
X169338666Y-106894380D02*
X169338666Y-107608666D01*
X169291047Y-107751523D01*
X169195809Y-107846761D01*
X169052952Y-107894380D01*
X168957714Y-107894380D01*
X170243428Y-107227714D02*
X170243428Y-107894380D01*
X170005333Y-106846761D02*
X169767238Y-107561047D01*
X170386285Y-107561047D01*
X171940023Y-109688380D02*
X171940023Y-110402666D01*
X171892404Y-110545523D01*
X171797166Y-110640761D01*
X171654309Y-110688380D01*
X171559071Y-110688380D01*
X172844785Y-109688380D02*
X172654309Y-109688380D01*
X172559071Y-109736000D01*
X172511452Y-109783619D01*
X172416214Y-109926476D01*
X172368595Y-110116952D01*
X172368595Y-110497904D01*
X172416214Y-110593142D01*
X172463833Y-110640761D01*
X172559071Y-110688380D01*
X172749547Y-110688380D01*
X172844785Y-110640761D01*
X172892404Y-110593142D01*
X172940023Y-110497904D01*
X172940023Y-110259809D01*
X172892404Y-110164571D01*
X172844785Y-110116952D01*
X172749547Y-110069333D01*
X172559071Y-110069333D01*
X172463833Y-110116952D01*
X172416214Y-110164571D01*
X172368595Y-110259809D01*
X120823023Y-121372380D02*
X120823023Y-122086666D01*
X120775404Y-122229523D01*
X120680166Y-122324761D01*
X120537309Y-122372380D01*
X120442071Y-122372380D01*
X121775404Y-121372380D02*
X121299214Y-121372380D01*
X121251595Y-121848571D01*
X121299214Y-121800952D01*
X121394452Y-121753333D01*
X121632547Y-121753333D01*
X121727785Y-121800952D01*
X121775404Y-121848571D01*
X121823023Y-121943809D01*
X121823023Y-122181904D01*
X121775404Y-122277142D01*
X121727785Y-122324761D01*
X121632547Y-122372380D01*
X121394452Y-122372380D01*
X121299214Y-122324761D01*
X121251595Y-122277142D01*
X116953309Y-107148380D02*
X116953309Y-107862666D01*
X116905690Y-108005523D01*
X116810452Y-108100761D01*
X116667595Y-108148380D01*
X116572357Y-108148380D01*
X117953309Y-108148380D02*
X117381880Y-108148380D01*
X117667595Y-108148380D02*
X117667595Y-107148380D01*
X117572357Y-107291238D01*
X117477119Y-107386476D01*
X117381880Y-107434095D01*
X120824666Y-91908380D02*
X120824666Y-92622666D01*
X120777047Y-92765523D01*
X120681809Y-92860761D01*
X120538952Y-92908380D01*
X120443714Y-92908380D01*
X121205619Y-91908380D02*
X121824666Y-91908380D01*
X121491333Y-92289333D01*
X121634190Y-92289333D01*
X121729428Y-92336952D01*
X121777047Y-92384571D01*
X121824666Y-92479809D01*
X121824666Y-92717904D01*
X121777047Y-92813142D01*
X121729428Y-92860761D01*
X121634190Y-92908380D01*
X121348476Y-92908380D01*
X121253238Y-92860761D01*
X121205619Y-92813142D01*
X171370666Y-91654380D02*
X171370666Y-92368666D01*
X171323047Y-92511523D01*
X171227809Y-92606761D01*
X171084952Y-92654380D01*
X170989714Y-92654380D01*
X171799238Y-91749619D02*
X171846857Y-91702000D01*
X171942095Y-91654380D01*
X172180190Y-91654380D01*
X172275428Y-91702000D01*
X172323047Y-91749619D01*
X172370666Y-91844857D01*
X172370666Y-91940095D01*
X172323047Y-92082952D01*
X171751619Y-92654380D01*
X172370666Y-92654380D01*
X144375142Y-92082857D02*
X144422761Y-92130476D01*
X144470380Y-92273333D01*
X144470380Y-92368571D01*
X144422761Y-92511428D01*
X144327523Y-92606666D01*
X144232285Y-92654285D01*
X144041809Y-92701904D01*
X143898952Y-92701904D01*
X143708476Y-92654285D01*
X143613238Y-92606666D01*
X143518000Y-92511428D01*
X143470380Y-92368571D01*
X143470380Y-92273333D01*
X143518000Y-92130476D01*
X143565619Y-92082857D01*
X143803714Y-91225714D02*
X144470380Y-91225714D01*
X143422761Y-91463809D02*
X144137047Y-91701904D01*
X144137047Y-91082857D01*
X144470380Y-90654285D02*
X144470380Y-90463809D01*
X144422761Y-90368571D01*
X144375142Y-90320952D01*
X144232285Y-90225714D01*
X144041809Y-90178095D01*
X143660857Y-90178095D01*
X143565619Y-90225714D01*
X143518000Y-90273333D01*
X143470380Y-90368571D01*
X143470380Y-90559047D01*
X143518000Y-90654285D01*
X143565619Y-90701904D01*
X143660857Y-90749523D01*
X143898952Y-90749523D01*
X143994190Y-90701904D01*
X144041809Y-90654285D01*
X144089428Y-90559047D01*
X144089428Y-90368571D01*
X144041809Y-90273333D01*
X143994190Y-90225714D01*
X143898952Y-90178095D01*
X136263142Y-105259142D02*
X136215523Y-105306761D01*
X136072666Y-105354380D01*
X135977428Y-105354380D01*
X135834571Y-105306761D01*
X135739333Y-105211523D01*
X135691714Y-105116285D01*
X135644095Y-104925809D01*
X135644095Y-104782952D01*
X135691714Y-104592476D01*
X135739333Y-104497238D01*
X135834571Y-104402000D01*
X135977428Y-104354380D01*
X136072666Y-104354380D01*
X136215523Y-104402000D01*
X136263142Y-104449619D01*
X136596476Y-104354380D02*
X137215523Y-104354380D01*
X136882190Y-104735333D01*
X137025047Y-104735333D01*
X137120285Y-104782952D01*
X137167904Y-104830571D01*
X137215523Y-104925809D01*
X137215523Y-105163904D01*
X137167904Y-105259142D01*
X137120285Y-105306761D01*
X137025047Y-105354380D01*
X136739333Y-105354380D01*
X136644095Y-105306761D01*
X136596476Y-105259142D01*
X137596476Y-104449619D02*
X137644095Y-104402000D01*
X137739333Y-104354380D01*
X137977428Y-104354380D01*
X138072666Y-104402000D01*
X138120285Y-104449619D01*
X138167904Y-104544857D01*
X138167904Y-104640095D01*
X138120285Y-104782952D01*
X137548857Y-105354380D01*
X138167904Y-105354380D01*
X160377142Y-96146857D02*
X160424761Y-96194476D01*
X160472380Y-96337333D01*
X160472380Y-96432571D01*
X160424761Y-96575428D01*
X160329523Y-96670666D01*
X160234285Y-96718285D01*
X160043809Y-96765904D01*
X159900952Y-96765904D01*
X159710476Y-96718285D01*
X159615238Y-96670666D01*
X159520000Y-96575428D01*
X159472380Y-96432571D01*
X159472380Y-96337333D01*
X159520000Y-96194476D01*
X159567619Y-96146857D01*
X159472380Y-95813523D02*
X159472380Y-95194476D01*
X159853333Y-95527809D01*
X159853333Y-95384952D01*
X159900952Y-95289714D01*
X159948571Y-95242095D01*
X160043809Y-95194476D01*
X160281904Y-95194476D01*
X160377142Y-95242095D01*
X160424761Y-95289714D01*
X160472380Y-95384952D01*
X160472380Y-95670666D01*
X160424761Y-95765904D01*
X160377142Y-95813523D01*
X159472380Y-94575428D02*
X159472380Y-94480190D01*
X159520000Y-94384952D01*
X159567619Y-94337333D01*
X159662857Y-94289714D01*
X159853333Y-94242095D01*
X160091428Y-94242095D01*
X160281904Y-94289714D01*
X160377142Y-94337333D01*
X160424761Y-94384952D01*
X160472380Y-94480190D01*
X160472380Y-94575428D01*
X160424761Y-94670666D01*
X160377142Y-94718285D01*
X160281904Y-94765904D01*
X160091428Y-94813523D01*
X159853333Y-94813523D01*
X159662857Y-94765904D01*
X159567619Y-94718285D01*
X159520000Y-94670666D01*
X159472380Y-94575428D01*
X137771142Y-116466857D02*
X137818761Y-116514476D01*
X137866380Y-116657333D01*
X137866380Y-116752571D01*
X137818761Y-116895428D01*
X137723523Y-116990666D01*
X137628285Y-117038285D01*
X137437809Y-117085904D01*
X137294952Y-117085904D01*
X137104476Y-117038285D01*
X137009238Y-116990666D01*
X136914000Y-116895428D01*
X136866380Y-116752571D01*
X136866380Y-116657333D01*
X136914000Y-116514476D01*
X136961619Y-116466857D01*
X136866380Y-116133523D02*
X136866380Y-115514476D01*
X137247333Y-115847809D01*
X137247333Y-115704952D01*
X137294952Y-115609714D01*
X137342571Y-115562095D01*
X137437809Y-115514476D01*
X137675904Y-115514476D01*
X137771142Y-115562095D01*
X137818761Y-115609714D01*
X137866380Y-115704952D01*
X137866380Y-115990666D01*
X137818761Y-116085904D01*
X137771142Y-116133523D01*
X136866380Y-115181142D02*
X136866380Y-114514476D01*
X137866380Y-114943047D01*
X167251142Y-118975142D02*
X167203523Y-119022761D01*
X167060666Y-119070380D01*
X166965428Y-119070380D01*
X166822571Y-119022761D01*
X166727333Y-118927523D01*
X166679714Y-118832285D01*
X166632095Y-118641809D01*
X166632095Y-118498952D01*
X166679714Y-118308476D01*
X166727333Y-118213238D01*
X166822571Y-118118000D01*
X166965428Y-118070380D01*
X167060666Y-118070380D01*
X167203523Y-118118000D01*
X167251142Y-118165619D01*
X167632095Y-118165619D02*
X167679714Y-118118000D01*
X167774952Y-118070380D01*
X168013047Y-118070380D01*
X168108285Y-118118000D01*
X168155904Y-118165619D01*
X168203523Y-118260857D01*
X168203523Y-118356095D01*
X168155904Y-118498952D01*
X167584476Y-119070380D01*
X168203523Y-119070380D01*
X168822571Y-118070380D02*
X168917809Y-118070380D01*
X169013047Y-118118000D01*
X169060666Y-118165619D01*
X169108285Y-118260857D01*
X169155904Y-118451333D01*
X169155904Y-118689428D01*
X169108285Y-118879904D01*
X169060666Y-118975142D01*
X169013047Y-119022761D01*
X168917809Y-119070380D01*
X168822571Y-119070380D01*
X168727333Y-119022761D01*
X168679714Y-118975142D01*
X168632095Y-118879904D01*
X168584476Y-118689428D01*
X168584476Y-118451333D01*
X168632095Y-118260857D01*
X168679714Y-118165619D01*
X168727333Y-118118000D01*
X168822571Y-118070380D01*
X153789142Y-117959142D02*
X153741523Y-118006761D01*
X153598666Y-118054380D01*
X153503428Y-118054380D01*
X153360571Y-118006761D01*
X153265333Y-117911523D01*
X153217714Y-117816285D01*
X153170095Y-117625809D01*
X153170095Y-117482952D01*
X153217714Y-117292476D01*
X153265333Y-117197238D01*
X153360571Y-117102000D01*
X153503428Y-117054380D01*
X153598666Y-117054380D01*
X153741523Y-117102000D01*
X153789142Y-117149619D01*
X154170095Y-117149619D02*
X154217714Y-117102000D01*
X154312952Y-117054380D01*
X154551047Y-117054380D01*
X154646285Y-117102000D01*
X154693904Y-117149619D01*
X154741523Y-117244857D01*
X154741523Y-117340095D01*
X154693904Y-117482952D01*
X154122476Y-118054380D01*
X154741523Y-118054380D01*
X155312952Y-117482952D02*
X155217714Y-117435333D01*
X155170095Y-117387714D01*
X155122476Y-117292476D01*
X155122476Y-117244857D01*
X155170095Y-117149619D01*
X155217714Y-117102000D01*
X155312952Y-117054380D01*
X155503428Y-117054380D01*
X155598666Y-117102000D01*
X155646285Y-117149619D01*
X155693904Y-117244857D01*
X155693904Y-117292476D01*
X155646285Y-117387714D01*
X155598666Y-117435333D01*
X155503428Y-117482952D01*
X155312952Y-117482952D01*
X155217714Y-117530571D01*
X155170095Y-117578190D01*
X155122476Y-117673428D01*
X155122476Y-117863904D01*
X155170095Y-117959142D01*
X155217714Y-118006761D01*
X155312952Y-118054380D01*
X155503428Y-118054380D01*
X155598666Y-118006761D01*
X155646285Y-117959142D01*
X155693904Y-117863904D01*
X155693904Y-117673428D01*
X155646285Y-117578190D01*
X155598666Y-117530571D01*
X155503428Y-117482952D01*
X168251142Y-109354857D02*
X168298761Y-109402476D01*
X168346380Y-109545333D01*
X168346380Y-109640571D01*
X168298761Y-109783428D01*
X168203523Y-109878666D01*
X168108285Y-109926285D01*
X167917809Y-109973904D01*
X167774952Y-109973904D01*
X167584476Y-109926285D01*
X167489238Y-109878666D01*
X167394000Y-109783428D01*
X167346380Y-109640571D01*
X167346380Y-109545333D01*
X167394000Y-109402476D01*
X167441619Y-109354857D01*
X168346380Y-108402476D02*
X168346380Y-108973904D01*
X168346380Y-108688190D02*
X167346380Y-108688190D01*
X167489238Y-108783428D01*
X167584476Y-108878666D01*
X167632095Y-108973904D01*
X167679714Y-107545333D02*
X168346380Y-107545333D01*
X167298761Y-107783428D02*
X168013047Y-108021523D01*
X168013047Y-107402476D01*
X161901142Y-106560857D02*
X161948761Y-106608476D01*
X161996380Y-106751333D01*
X161996380Y-106846571D01*
X161948761Y-106989428D01*
X161853523Y-107084666D01*
X161758285Y-107132285D01*
X161567809Y-107179904D01*
X161424952Y-107179904D01*
X161234476Y-107132285D01*
X161139238Y-107084666D01*
X161044000Y-106989428D01*
X160996380Y-106846571D01*
X160996380Y-106751333D01*
X161044000Y-106608476D01*
X161091619Y-106560857D01*
X161996380Y-105608476D02*
X161996380Y-106179904D01*
X161996380Y-105894190D02*
X160996380Y-105894190D01*
X161139238Y-105989428D01*
X161234476Y-106084666D01*
X161282095Y-106179904D01*
X160996380Y-105275142D02*
X160996380Y-104656095D01*
X161377333Y-104989428D01*
X161377333Y-104846571D01*
X161424952Y-104751333D01*
X161472571Y-104703714D01*
X161567809Y-104656095D01*
X161805904Y-104656095D01*
X161901142Y-104703714D01*
X161948761Y-104751333D01*
X161996380Y-104846571D01*
X161996380Y-105132285D01*
X161948761Y-105227523D01*
X161901142Y-105275142D01*
X126865142Y-107037142D02*
X126817523Y-107084761D01*
X126674666Y-107132380D01*
X126579428Y-107132380D01*
X126436571Y-107084761D01*
X126341333Y-106989523D01*
X126293714Y-106894285D01*
X126246095Y-106703809D01*
X126246095Y-106560952D01*
X126293714Y-106370476D01*
X126341333Y-106275238D01*
X126436571Y-106180000D01*
X126579428Y-106132380D01*
X126674666Y-106132380D01*
X126817523Y-106180000D01*
X126865142Y-106227619D01*
X127246095Y-106227619D02*
X127293714Y-106180000D01*
X127388952Y-106132380D01*
X127627047Y-106132380D01*
X127722285Y-106180000D01*
X127769904Y-106227619D01*
X127817523Y-106322857D01*
X127817523Y-106418095D01*
X127769904Y-106560952D01*
X127198476Y-107132380D01*
X127817523Y-107132380D01*
X128674666Y-106132380D02*
X128484190Y-106132380D01*
X128388952Y-106180000D01*
X128341333Y-106227619D01*
X128246095Y-106370476D01*
X128198476Y-106560952D01*
X128198476Y-106941904D01*
X128246095Y-107037142D01*
X128293714Y-107084761D01*
X128388952Y-107132380D01*
X128579428Y-107132380D01*
X128674666Y-107084761D01*
X128722285Y-107037142D01*
X128769904Y-106941904D01*
X128769904Y-106703809D01*
X128722285Y-106608571D01*
X128674666Y-106560952D01*
X128579428Y-106513333D01*
X128388952Y-106513333D01*
X128293714Y-106560952D01*
X128246095Y-106608571D01*
X128198476Y-106703809D01*
X132183142Y-94368857D02*
X132230761Y-94416476D01*
X132278380Y-94559333D01*
X132278380Y-94654571D01*
X132230761Y-94797428D01*
X132135523Y-94892666D01*
X132040285Y-94940285D01*
X131849809Y-94987904D01*
X131706952Y-94987904D01*
X131516476Y-94940285D01*
X131421238Y-94892666D01*
X131326000Y-94797428D01*
X131278380Y-94654571D01*
X131278380Y-94559333D01*
X131326000Y-94416476D01*
X131373619Y-94368857D01*
X132278380Y-93416476D02*
X132278380Y-93987904D01*
X132278380Y-93702190D02*
X131278380Y-93702190D01*
X131421238Y-93797428D01*
X131516476Y-93892666D01*
X131564095Y-93987904D01*
X131373619Y-93035523D02*
X131326000Y-92987904D01*
X131278380Y-92892666D01*
X131278380Y-92654571D01*
X131326000Y-92559333D01*
X131373619Y-92511714D01*
X131468857Y-92464095D01*
X131564095Y-92464095D01*
X131706952Y-92511714D01*
X132278380Y-93083142D01*
X132278380Y-92464095D01*
X124579142Y-108561142D02*
X124531523Y-108608761D01*
X124388666Y-108656380D01*
X124293428Y-108656380D01*
X124150571Y-108608761D01*
X124055333Y-108513523D01*
X124007714Y-108418285D01*
X123960095Y-108227809D01*
X123960095Y-108084952D01*
X124007714Y-107894476D01*
X124055333Y-107799238D01*
X124150571Y-107704000D01*
X124293428Y-107656380D01*
X124388666Y-107656380D01*
X124531523Y-107704000D01*
X124579142Y-107751619D01*
X124912476Y-107656380D02*
X125531523Y-107656380D01*
X125198190Y-108037333D01*
X125341047Y-108037333D01*
X125436285Y-108084952D01*
X125483904Y-108132571D01*
X125531523Y-108227809D01*
X125531523Y-108465904D01*
X125483904Y-108561142D01*
X125436285Y-108608761D01*
X125341047Y-108656380D01*
X125055333Y-108656380D01*
X124960095Y-108608761D01*
X124912476Y-108561142D01*
X125864857Y-107656380D02*
X126483904Y-107656380D01*
X126150571Y-108037333D01*
X126293428Y-108037333D01*
X126388666Y-108084952D01*
X126436285Y-108132571D01*
X126483904Y-108227809D01*
X126483904Y-108465904D01*
X126436285Y-108561142D01*
X126388666Y-108608761D01*
X126293428Y-108656380D01*
X126007714Y-108656380D01*
X125912476Y-108608761D01*
X125864857Y-108561142D01*
X125325142Y-103004857D02*
X125372761Y-103052476D01*
X125420380Y-103195333D01*
X125420380Y-103290571D01*
X125372761Y-103433428D01*
X125277523Y-103528666D01*
X125182285Y-103576285D01*
X124991809Y-103623904D01*
X124848952Y-103623904D01*
X124658476Y-103576285D01*
X124563238Y-103528666D01*
X124468000Y-103433428D01*
X124420380Y-103290571D01*
X124420380Y-103195333D01*
X124468000Y-103052476D01*
X124515619Y-103004857D01*
X124753714Y-102147714D02*
X125420380Y-102147714D01*
X124372761Y-102385809D02*
X125087047Y-102623904D01*
X125087047Y-102004857D01*
X124420380Y-101433428D02*
X124420380Y-101338190D01*
X124468000Y-101242952D01*
X124515619Y-101195333D01*
X124610857Y-101147714D01*
X124801333Y-101100095D01*
X125039428Y-101100095D01*
X125229904Y-101147714D01*
X125325142Y-101195333D01*
X125372761Y-101242952D01*
X125420380Y-101338190D01*
X125420380Y-101433428D01*
X125372761Y-101528666D01*
X125325142Y-101576285D01*
X125229904Y-101623904D01*
X125039428Y-101671523D01*
X124801333Y-101671523D01*
X124610857Y-101623904D01*
X124515619Y-101576285D01*
X124468000Y-101528666D01*
X124420380Y-101433428D01*
X139311142Y-118467142D02*
X139263523Y-118514761D01*
X139120666Y-118562380D01*
X139025428Y-118562380D01*
X138882571Y-118514761D01*
X138787333Y-118419523D01*
X138739714Y-118324285D01*
X138692095Y-118133809D01*
X138692095Y-117990952D01*
X138739714Y-117800476D01*
X138787333Y-117705238D01*
X138882571Y-117610000D01*
X139025428Y-117562380D01*
X139120666Y-117562380D01*
X139263523Y-117610000D01*
X139311142Y-117657619D01*
X139692095Y-117657619D02*
X139739714Y-117610000D01*
X139834952Y-117562380D01*
X140073047Y-117562380D01*
X140168285Y-117610000D01*
X140215904Y-117657619D01*
X140263523Y-117752857D01*
X140263523Y-117848095D01*
X140215904Y-117990952D01*
X139644476Y-118562380D01*
X140263523Y-118562380D01*
X141120666Y-117895714D02*
X141120666Y-118562380D01*
X140882571Y-117514761D02*
X140644476Y-118229047D01*
X141263523Y-118229047D01*
X141597142Y-105005142D02*
X141549523Y-105052761D01*
X141406666Y-105100380D01*
X141311428Y-105100380D01*
X141168571Y-105052761D01*
X141073333Y-104957523D01*
X141025714Y-104862285D01*
X140978095Y-104671809D01*
X140978095Y-104528952D01*
X141025714Y-104338476D01*
X141073333Y-104243238D01*
X141168571Y-104148000D01*
X141311428Y-104100380D01*
X141406666Y-104100380D01*
X141549523Y-104148000D01*
X141597142Y-104195619D01*
X142549523Y-105100380D02*
X141978095Y-105100380D01*
X142263809Y-105100380D02*
X142263809Y-104100380D01*
X142168571Y-104243238D01*
X142073333Y-104338476D01*
X141978095Y-104386095D01*
X143168571Y-104100380D02*
X143263809Y-104100380D01*
X143359047Y-104148000D01*
X143406666Y-104195619D01*
X143454285Y-104290857D01*
X143501904Y-104481333D01*
X143501904Y-104719428D01*
X143454285Y-104909904D01*
X143406666Y-105005142D01*
X143359047Y-105052761D01*
X143263809Y-105100380D01*
X143168571Y-105100380D01*
X143073333Y-105052761D01*
X143025714Y-105005142D01*
X142978095Y-104909904D01*
X142930476Y-104719428D01*
X142930476Y-104481333D01*
X142978095Y-104290857D01*
X143025714Y-104195619D01*
X143073333Y-104148000D01*
X143168571Y-104100380D01*
X131627642Y-117867642D02*
X131580023Y-117915261D01*
X131437166Y-117962880D01*
X131341928Y-117962880D01*
X131199071Y-117915261D01*
X131103833Y-117820023D01*
X131056214Y-117724785D01*
X131008595Y-117534309D01*
X131008595Y-117391452D01*
X131056214Y-117200976D01*
X131103833Y-117105738D01*
X131199071Y-117010500D01*
X131341928Y-116962880D01*
X131437166Y-116962880D01*
X131580023Y-117010500D01*
X131627642Y-117058119D01*
X132008595Y-117058119D02*
X132056214Y-117010500D01*
X132151452Y-116962880D01*
X132389547Y-116962880D01*
X132484785Y-117010500D01*
X132532404Y-117058119D01*
X132580023Y-117153357D01*
X132580023Y-117248595D01*
X132532404Y-117391452D01*
X131960976Y-117962880D01*
X132580023Y-117962880D01*
X132960976Y-117058119D02*
X133008595Y-117010500D01*
X133103833Y-116962880D01*
X133341928Y-116962880D01*
X133437166Y-117010500D01*
X133484785Y-117058119D01*
X133532404Y-117153357D01*
X133532404Y-117248595D01*
X133484785Y-117391452D01*
X132913357Y-117962880D01*
X133532404Y-117962880D01*
X131167142Y-107100666D02*
X131214761Y-107148285D01*
X131262380Y-107291142D01*
X131262380Y-107386380D01*
X131214761Y-107529238D01*
X131119523Y-107624476D01*
X131024285Y-107672095D01*
X130833809Y-107719714D01*
X130690952Y-107719714D01*
X130500476Y-107672095D01*
X130405238Y-107624476D01*
X130310000Y-107529238D01*
X130262380Y-107386380D01*
X130262380Y-107291142D01*
X130310000Y-107148285D01*
X130357619Y-107100666D01*
X130690952Y-106529238D02*
X130643333Y-106624476D01*
X130595714Y-106672095D01*
X130500476Y-106719714D01*
X130452857Y-106719714D01*
X130357619Y-106672095D01*
X130310000Y-106624476D01*
X130262380Y-106529238D01*
X130262380Y-106338761D01*
X130310000Y-106243523D01*
X130357619Y-106195904D01*
X130452857Y-106148285D01*
X130500476Y-106148285D01*
X130595714Y-106195904D01*
X130643333Y-106243523D01*
X130690952Y-106338761D01*
X130690952Y-106529238D01*
X130738571Y-106624476D01*
X130786190Y-106672095D01*
X130881428Y-106719714D01*
X131071904Y-106719714D01*
X131167142Y-106672095D01*
X131214761Y-106624476D01*
X131262380Y-106529238D01*
X131262380Y-106338761D01*
X131214761Y-106243523D01*
X131167142Y-106195904D01*
X131071904Y-106148285D01*
X130881428Y-106148285D01*
X130786190Y-106195904D01*
X130738571Y-106243523D01*
X130690952Y-106338761D01*
X169936242Y-101258666D02*
X169983861Y-101306285D01*
X170031480Y-101449142D01*
X170031480Y-101544380D01*
X169983861Y-101687238D01*
X169888623Y-101782476D01*
X169793385Y-101830095D01*
X169602909Y-101877714D01*
X169460052Y-101877714D01*
X169269576Y-101830095D01*
X169174338Y-101782476D01*
X169079100Y-101687238D01*
X169031480Y-101544380D01*
X169031480Y-101449142D01*
X169079100Y-101306285D01*
X169126719Y-101258666D01*
X169031480Y-100401523D02*
X169031480Y-100592000D01*
X169079100Y-100687238D01*
X169126719Y-100734857D01*
X169269576Y-100830095D01*
X169460052Y-100877714D01*
X169841004Y-100877714D01*
X169936242Y-100830095D01*
X169983861Y-100782476D01*
X170031480Y-100687238D01*
X170031480Y-100496761D01*
X169983861Y-100401523D01*
X169936242Y-100353904D01*
X169841004Y-100306285D01*
X169602909Y-100306285D01*
X169507671Y-100353904D01*
X169460052Y-100401523D01*
X169412433Y-100496761D01*
X169412433Y-100687238D01*
X169460052Y-100782476D01*
X169507671Y-100830095D01*
X169602909Y-100877714D01*
X165457142Y-105068666D02*
X165504761Y-105116285D01*
X165552380Y-105259142D01*
X165552380Y-105354380D01*
X165504761Y-105497238D01*
X165409523Y-105592476D01*
X165314285Y-105640095D01*
X165123809Y-105687714D01*
X164980952Y-105687714D01*
X164790476Y-105640095D01*
X164695238Y-105592476D01*
X164600000Y-105497238D01*
X164552380Y-105354380D01*
X164552380Y-105259142D01*
X164600000Y-105116285D01*
X164647619Y-105068666D01*
X164552380Y-104163904D02*
X164552380Y-104640095D01*
X165028571Y-104687714D01*
X164980952Y-104640095D01*
X164933333Y-104544857D01*
X164933333Y-104306761D01*
X164980952Y-104211523D01*
X165028571Y-104163904D01*
X165123809Y-104116285D01*
X165361904Y-104116285D01*
X165457142Y-104163904D01*
X165504761Y-104211523D01*
X165552380Y-104306761D01*
X165552380Y-104544857D01*
X165504761Y-104640095D01*
X165457142Y-104687714D01*
X170029142Y-96178666D02*
X170076761Y-96226285D01*
X170124380Y-96369142D01*
X170124380Y-96464380D01*
X170076761Y-96607238D01*
X169981523Y-96702476D01*
X169886285Y-96750095D01*
X169695809Y-96797714D01*
X169552952Y-96797714D01*
X169362476Y-96750095D01*
X169267238Y-96702476D01*
X169172000Y-96607238D01*
X169124380Y-96464380D01*
X169124380Y-96369142D01*
X169172000Y-96226285D01*
X169219619Y-96178666D01*
X169457714Y-95321523D02*
X170124380Y-95321523D01*
X169076761Y-95559619D02*
X169791047Y-95797714D01*
X169791047Y-95178666D01*
X167473333Y-92559142D02*
X167425714Y-92606761D01*
X167282857Y-92654380D01*
X167187619Y-92654380D01*
X167044761Y-92606761D01*
X166949523Y-92511523D01*
X166901904Y-92416285D01*
X166854285Y-92225809D01*
X166854285Y-92082952D01*
X166901904Y-91892476D01*
X166949523Y-91797238D01*
X167044761Y-91702000D01*
X167187619Y-91654380D01*
X167282857Y-91654380D01*
X167425714Y-91702000D01*
X167473333Y-91749619D01*
X167854285Y-91749619D02*
X167901904Y-91702000D01*
X167997142Y-91654380D01*
X168235238Y-91654380D01*
X168330476Y-91702000D01*
X168378095Y-91749619D01*
X168425714Y-91844857D01*
X168425714Y-91940095D01*
X168378095Y-92082952D01*
X167806666Y-92654380D01*
X168425714Y-92654380D01*
%LPC*%
D14*
G36*
X173752800Y-102442700D02*
G01*
X173752800Y-101440300D01*
X177455200Y-101440300D01*
X177455200Y-102442700D01*
X173752800Y-102442700D01*
G37*
X173752800Y-102442700D02*
X173752800Y-101440300D01*
X177455200Y-101440300D01*
X177455200Y-102442700D01*
X173752800Y-102442700D01*
G36*
X170302800Y-102442700D02*
G01*
X170302800Y-101440300D01*
X173105200Y-101440300D01*
X173105200Y-102442700D01*
X170302800Y-102442700D01*
G37*
X170302800Y-102442700D02*
X170302800Y-101440300D01*
X173105200Y-101440300D01*
X173105200Y-102442700D01*
X170302800Y-102442700D01*
G36*
X173752800Y-103942700D02*
G01*
X173752800Y-102940300D01*
X177455200Y-102940300D01*
X177455200Y-103942700D01*
X173752800Y-103942700D01*
G37*
X173752800Y-103942700D02*
X173752800Y-102940300D01*
X177455200Y-102940300D01*
X177455200Y-103942700D01*
X173752800Y-103942700D01*
G36*
X170302800Y-103942700D02*
G01*
X170302800Y-102940300D01*
X173105200Y-102940300D01*
X173105200Y-103942700D01*
X170302800Y-103942700D01*
G37*
X170302800Y-103942700D02*
X170302800Y-102940300D01*
X173105200Y-102940300D01*
X173105200Y-103942700D01*
X170302800Y-103942700D01*
G36*
X173752800Y-105442700D02*
G01*
X173752800Y-104440300D01*
X177455200Y-104440300D01*
X177455200Y-105442700D01*
X173752800Y-105442700D01*
G37*
X173752800Y-105442700D02*
X173752800Y-104440300D01*
X177455200Y-104440300D01*
X177455200Y-105442700D01*
X173752800Y-105442700D01*
G36*
X170302800Y-105442700D02*
G01*
X170302800Y-104440300D01*
X173105200Y-104440300D01*
X173105200Y-105442700D01*
X170302800Y-105442700D01*
G37*
X170302800Y-105442700D02*
X170302800Y-104440300D01*
X173105200Y-104440300D01*
X173105200Y-105442700D01*
X170302800Y-105442700D01*
G36*
X170302800Y-106942700D02*
G01*
X170302800Y-105940300D01*
X173105200Y-105940300D01*
X173105200Y-106942700D01*
X170302800Y-106942700D01*
G37*
X170302800Y-106942700D02*
X170302800Y-105940300D01*
X173105200Y-105940300D01*
X173105200Y-106942700D01*
X170302800Y-106942700D01*
G36*
X173752800Y-106942700D02*
G01*
X173752800Y-105940300D01*
X177455200Y-105940300D01*
X177455200Y-106942700D01*
X173752800Y-106942700D01*
G37*
X173752800Y-106942700D02*
X173752800Y-105940300D01*
X177455200Y-105940300D01*
X177455200Y-106942700D01*
X173752800Y-106942700D01*
G36*
X120508200Y-98522800D02*
G01*
X120508200Y-99525200D01*
X116805800Y-99525200D01*
X116805800Y-98522800D01*
X120508200Y-98522800D01*
G37*
X120508200Y-98522800D02*
X120508200Y-99525200D01*
X116805800Y-99525200D01*
X116805800Y-98522800D01*
X120508200Y-98522800D01*
G36*
X123958200Y-98522800D02*
G01*
X123958200Y-99525200D01*
X121155800Y-99525200D01*
X121155800Y-98522800D01*
X123958200Y-98522800D01*
G37*
X123958200Y-98522800D02*
X123958200Y-99525200D01*
X121155800Y-99525200D01*
X121155800Y-98522800D01*
X123958200Y-98522800D01*
G36*
X120508200Y-97022800D02*
G01*
X120508200Y-98025200D01*
X116805800Y-98025200D01*
X116805800Y-97022800D01*
X120508200Y-97022800D01*
G37*
X120508200Y-97022800D02*
X120508200Y-98025200D01*
X116805800Y-98025200D01*
X116805800Y-97022800D01*
X120508200Y-97022800D01*
G36*
X123958200Y-97022800D02*
G01*
X123958200Y-98025200D01*
X121155800Y-98025200D01*
X121155800Y-97022800D01*
X123958200Y-97022800D01*
G37*
X123958200Y-97022800D02*
X123958200Y-98025200D01*
X121155800Y-98025200D01*
X121155800Y-97022800D01*
X123958200Y-97022800D01*
G36*
X120508200Y-95522800D02*
G01*
X120508200Y-96525200D01*
X116805800Y-96525200D01*
X116805800Y-95522800D01*
X120508200Y-95522800D01*
G37*
X120508200Y-95522800D02*
X120508200Y-96525200D01*
X116805800Y-96525200D01*
X116805800Y-95522800D01*
X120508200Y-95522800D01*
G36*
X123958200Y-95522800D02*
G01*
X123958200Y-96525200D01*
X121155800Y-96525200D01*
X121155800Y-95522800D01*
X123958200Y-95522800D01*
G37*
X123958200Y-95522800D02*
X123958200Y-96525200D01*
X121155800Y-96525200D01*
X121155800Y-95522800D01*
X123958200Y-95522800D01*
G36*
X123958200Y-94022800D02*
G01*
X123958200Y-95025200D01*
X121155800Y-95025200D01*
X121155800Y-94022800D01*
X123958200Y-94022800D01*
G37*
X123958200Y-94022800D02*
X123958200Y-95025200D01*
X121155800Y-95025200D01*
X121155800Y-94022800D01*
X123958200Y-94022800D01*
G36*
X120508200Y-94022800D02*
G01*
X120508200Y-95025200D01*
X116805800Y-95025200D01*
X116805800Y-94022800D01*
X120508200Y-94022800D01*
G37*
X120508200Y-94022800D02*
X120508200Y-95025200D01*
X116805800Y-95025200D01*
X116805800Y-94022800D01*
X120508200Y-94022800D01*
G36*
X173750800Y-95025200D02*
G01*
X173750800Y-94022800D01*
X177453200Y-94022800D01*
X177453200Y-95025200D01*
X173750800Y-95025200D01*
G37*
X173750800Y-95025200D02*
X173750800Y-94022800D01*
X177453200Y-94022800D01*
X177453200Y-95025200D01*
X173750800Y-95025200D01*
G36*
X170300800Y-95025200D02*
G01*
X170300800Y-94022800D01*
X173103200Y-94022800D01*
X173103200Y-95025200D01*
X170300800Y-95025200D01*
G37*
X170300800Y-95025200D02*
X170300800Y-94022800D01*
X173103200Y-94022800D01*
X173103200Y-95025200D01*
X170300800Y-95025200D01*
G36*
X173750800Y-96525200D02*
G01*
X173750800Y-95522800D01*
X177453200Y-95522800D01*
X177453200Y-96525200D01*
X173750800Y-96525200D01*
G37*
X173750800Y-96525200D02*
X173750800Y-95522800D01*
X177453200Y-95522800D01*
X177453200Y-96525200D01*
X173750800Y-96525200D01*
G36*
X170300800Y-96525200D02*
G01*
X170300800Y-95522800D01*
X173103200Y-95522800D01*
X173103200Y-96525200D01*
X170300800Y-96525200D01*
G37*
X170300800Y-96525200D02*
X170300800Y-95522800D01*
X173103200Y-95522800D01*
X173103200Y-96525200D01*
X170300800Y-96525200D01*
G36*
X173750800Y-98025200D02*
G01*
X173750800Y-97022800D01*
X177453200Y-97022800D01*
X177453200Y-98025200D01*
X173750800Y-98025200D01*
G37*
X173750800Y-98025200D02*
X173750800Y-97022800D01*
X177453200Y-97022800D01*
X177453200Y-98025200D01*
X173750800Y-98025200D01*
G36*
X170300800Y-98025200D02*
G01*
X170300800Y-97022800D01*
X173103200Y-97022800D01*
X173103200Y-98025200D01*
X170300800Y-98025200D01*
G37*
X170300800Y-98025200D02*
X170300800Y-97022800D01*
X173103200Y-97022800D01*
X173103200Y-98025200D01*
X170300800Y-98025200D01*
G36*
X170300800Y-99525200D02*
G01*
X170300800Y-98522800D01*
X173103200Y-98522800D01*
X173103200Y-99525200D01*
X170300800Y-99525200D01*
G37*
X170300800Y-99525200D02*
X170300800Y-98522800D01*
X173103200Y-98522800D01*
X173103200Y-99525200D01*
X170300800Y-99525200D01*
G36*
X173750800Y-99525200D02*
G01*
X173750800Y-98522800D01*
X177453200Y-98522800D01*
X177453200Y-99525200D01*
X173750800Y-99525200D01*
G37*
X173750800Y-99525200D02*
X173750800Y-98522800D01*
X177453200Y-98522800D01*
X177453200Y-99525200D01*
X173750800Y-99525200D01*
G36*
G01*
X147085500Y-97832500D02*
X147085500Y-98382500D01*
G75*
G02*
X146885500Y-98582500I-200000J0D01*
G01*
X146485500Y-98582500D01*
G75*
G02*
X146285500Y-98382500I0J200000D01*
G01*
X146285500Y-97832500D01*
G75*
G02*
X146485500Y-97632500I200000J0D01*
G01*
X146885500Y-97632500D01*
G75*
G02*
X147085500Y-97832500I0J-200000D01*
G01*
G37*
G36*
G01*
X148735500Y-97832500D02*
X148735500Y-98382500D01*
G75*
G02*
X148535500Y-98582500I-200000J0D01*
G01*
X148135500Y-98582500D01*
G75*
G02*
X147935500Y-98382500I0J200000D01*
G01*
X147935500Y-97832500D01*
G75*
G02*
X148135500Y-97632500I200000J0D01*
G01*
X148535500Y-97632500D01*
G75*
G02*
X148735500Y-97832500I0J-200000D01*
G01*
G37*
G36*
G01*
X147223000Y-111329500D02*
X147223000Y-111129500D01*
G75*
G02*
X147323000Y-111029500I100000J0D01*
G01*
X148748000Y-111029500D01*
G75*
G02*
X148848000Y-111129500I0J-100000D01*
G01*
X148848000Y-111329500D01*
G75*
G02*
X148748000Y-111429500I-100000J0D01*
G01*
X147323000Y-111429500D01*
G75*
G02*
X147223000Y-111329500I0J100000D01*
G01*
G37*
G36*
G01*
X147223000Y-111979500D02*
X147223000Y-111779500D01*
G75*
G02*
X147323000Y-111679500I100000J0D01*
G01*
X148748000Y-111679500D01*
G75*
G02*
X148848000Y-111779500I0J-100000D01*
G01*
X148848000Y-111979500D01*
G75*
G02*
X148748000Y-112079500I-100000J0D01*
G01*
X147323000Y-112079500D01*
G75*
G02*
X147223000Y-111979500I0J100000D01*
G01*
G37*
G36*
G01*
X147223000Y-112629500D02*
X147223000Y-112429500D01*
G75*
G02*
X147323000Y-112329500I100000J0D01*
G01*
X148748000Y-112329500D01*
G75*
G02*
X148848000Y-112429500I0J-100000D01*
G01*
X148848000Y-112629500D01*
G75*
G02*
X148748000Y-112729500I-100000J0D01*
G01*
X147323000Y-112729500D01*
G75*
G02*
X147223000Y-112629500I0J100000D01*
G01*
G37*
G36*
G01*
X147223000Y-113279500D02*
X147223000Y-113079500D01*
G75*
G02*
X147323000Y-112979500I100000J0D01*
G01*
X148748000Y-112979500D01*
G75*
G02*
X148848000Y-113079500I0J-100000D01*
G01*
X148848000Y-113279500D01*
G75*
G02*
X148748000Y-113379500I-100000J0D01*
G01*
X147323000Y-113379500D01*
G75*
G02*
X147223000Y-113279500I0J100000D01*
G01*
G37*
G36*
G01*
X142998000Y-113279500D02*
X142998000Y-113079500D01*
G75*
G02*
X143098000Y-112979500I100000J0D01*
G01*
X144523000Y-112979500D01*
G75*
G02*
X144623000Y-113079500I0J-100000D01*
G01*
X144623000Y-113279500D01*
G75*
G02*
X144523000Y-113379500I-100000J0D01*
G01*
X143098000Y-113379500D01*
G75*
G02*
X142998000Y-113279500I0J100000D01*
G01*
G37*
G36*
G01*
X142998000Y-112629500D02*
X142998000Y-112429500D01*
G75*
G02*
X143098000Y-112329500I100000J0D01*
G01*
X144523000Y-112329500D01*
G75*
G02*
X144623000Y-112429500I0J-100000D01*
G01*
X144623000Y-112629500D01*
G75*
G02*
X144523000Y-112729500I-100000J0D01*
G01*
X143098000Y-112729500D01*
G75*
G02*
X142998000Y-112629500I0J100000D01*
G01*
G37*
G36*
G01*
X142998000Y-111979500D02*
X142998000Y-111779500D01*
G75*
G02*
X143098000Y-111679500I100000J0D01*
G01*
X144523000Y-111679500D01*
G75*
G02*
X144623000Y-111779500I0J-100000D01*
G01*
X144623000Y-111979500D01*
G75*
G02*
X144523000Y-112079500I-100000J0D01*
G01*
X143098000Y-112079500D01*
G75*
G02*
X142998000Y-111979500I0J100000D01*
G01*
G37*
G36*
G01*
X142998000Y-111329500D02*
X142998000Y-111129500D01*
G75*
G02*
X143098000Y-111029500I100000J0D01*
G01*
X144523000Y-111029500D01*
G75*
G02*
X144623000Y-111129500I0J-100000D01*
G01*
X144623000Y-111329500D01*
G75*
G02*
X144523000Y-111429500I-100000J0D01*
G01*
X143098000Y-111429500D01*
G75*
G02*
X142998000Y-111329500I0J100000D01*
G01*
G37*
G36*
G01*
X144048000Y-99772500D02*
X144048000Y-99572500D01*
G75*
G02*
X144148000Y-99472500I100000J0D01*
G01*
X145573000Y-99472500D01*
G75*
G02*
X145673000Y-99572500I0J-100000D01*
G01*
X145673000Y-99772500D01*
G75*
G02*
X145573000Y-99872500I-100000J0D01*
G01*
X144148000Y-99872500D01*
G75*
G02*
X144048000Y-99772500I0J100000D01*
G01*
G37*
G36*
G01*
X144048000Y-100422500D02*
X144048000Y-100222500D01*
G75*
G02*
X144148000Y-100122500I100000J0D01*
G01*
X145573000Y-100122500D01*
G75*
G02*
X145673000Y-100222500I0J-100000D01*
G01*
X145673000Y-100422500D01*
G75*
G02*
X145573000Y-100522500I-100000J0D01*
G01*
X144148000Y-100522500D01*
G75*
G02*
X144048000Y-100422500I0J100000D01*
G01*
G37*
G36*
G01*
X144048000Y-101072500D02*
X144048000Y-100872500D01*
G75*
G02*
X144148000Y-100772500I100000J0D01*
G01*
X145573000Y-100772500D01*
G75*
G02*
X145673000Y-100872500I0J-100000D01*
G01*
X145673000Y-101072500D01*
G75*
G02*
X145573000Y-101172500I-100000J0D01*
G01*
X144148000Y-101172500D01*
G75*
G02*
X144048000Y-101072500I0J100000D01*
G01*
G37*
G36*
G01*
X144048000Y-101722500D02*
X144048000Y-101522500D01*
G75*
G02*
X144148000Y-101422500I100000J0D01*
G01*
X145573000Y-101422500D01*
G75*
G02*
X145673000Y-101522500I0J-100000D01*
G01*
X145673000Y-101722500D01*
G75*
G02*
X145573000Y-101822500I-100000J0D01*
G01*
X144148000Y-101822500D01*
G75*
G02*
X144048000Y-101722500I0J100000D01*
G01*
G37*
G36*
G01*
X139823000Y-101722500D02*
X139823000Y-101522500D01*
G75*
G02*
X139923000Y-101422500I100000J0D01*
G01*
X141348000Y-101422500D01*
G75*
G02*
X141448000Y-101522500I0J-100000D01*
G01*
X141448000Y-101722500D01*
G75*
G02*
X141348000Y-101822500I-100000J0D01*
G01*
X139923000Y-101822500D01*
G75*
G02*
X139823000Y-101722500I0J100000D01*
G01*
G37*
G36*
G01*
X139823000Y-101072500D02*
X139823000Y-100872500D01*
G75*
G02*
X139923000Y-100772500I100000J0D01*
G01*
X141348000Y-100772500D01*
G75*
G02*
X141448000Y-100872500I0J-100000D01*
G01*
X141448000Y-101072500D01*
G75*
G02*
X141348000Y-101172500I-100000J0D01*
G01*
X139923000Y-101172500D01*
G75*
G02*
X139823000Y-101072500I0J100000D01*
G01*
G37*
G36*
G01*
X139823000Y-100422500D02*
X139823000Y-100222500D01*
G75*
G02*
X139923000Y-100122500I100000J0D01*
G01*
X141348000Y-100122500D01*
G75*
G02*
X141448000Y-100222500I0J-100000D01*
G01*
X141448000Y-100422500D01*
G75*
G02*
X141348000Y-100522500I-100000J0D01*
G01*
X139923000Y-100522500D01*
G75*
G02*
X139823000Y-100422500I0J100000D01*
G01*
G37*
G36*
G01*
X139823000Y-99772500D02*
X139823000Y-99572500D01*
G75*
G02*
X139923000Y-99472500I100000J0D01*
G01*
X141348000Y-99472500D01*
G75*
G02*
X141448000Y-99572500I0J-100000D01*
G01*
X141448000Y-99772500D01*
G75*
G02*
X141348000Y-99872500I-100000J0D01*
G01*
X139923000Y-99872500D01*
G75*
G02*
X139823000Y-99772500I0J100000D01*
G01*
G37*
G36*
G01*
X155097000Y-99074000D02*
X155097000Y-98874000D01*
G75*
G02*
X155197000Y-98774000I100000J0D01*
G01*
X156622000Y-98774000D01*
G75*
G02*
X156722000Y-98874000I0J-100000D01*
G01*
X156722000Y-99074000D01*
G75*
G02*
X156622000Y-99174000I-100000J0D01*
G01*
X155197000Y-99174000D01*
G75*
G02*
X155097000Y-99074000I0J100000D01*
G01*
G37*
G36*
G01*
X155097000Y-99724000D02*
X155097000Y-99524000D01*
G75*
G02*
X155197000Y-99424000I100000J0D01*
G01*
X156622000Y-99424000D01*
G75*
G02*
X156722000Y-99524000I0J-100000D01*
G01*
X156722000Y-99724000D01*
G75*
G02*
X156622000Y-99824000I-100000J0D01*
G01*
X155197000Y-99824000D01*
G75*
G02*
X155097000Y-99724000I0J100000D01*
G01*
G37*
G36*
G01*
X155097000Y-100374000D02*
X155097000Y-100174000D01*
G75*
G02*
X155197000Y-100074000I100000J0D01*
G01*
X156622000Y-100074000D01*
G75*
G02*
X156722000Y-100174000I0J-100000D01*
G01*
X156722000Y-100374000D01*
G75*
G02*
X156622000Y-100474000I-100000J0D01*
G01*
X155197000Y-100474000D01*
G75*
G02*
X155097000Y-100374000I0J100000D01*
G01*
G37*
G36*
G01*
X155097000Y-101024000D02*
X155097000Y-100824000D01*
G75*
G02*
X155197000Y-100724000I100000J0D01*
G01*
X156622000Y-100724000D01*
G75*
G02*
X156722000Y-100824000I0J-100000D01*
G01*
X156722000Y-101024000D01*
G75*
G02*
X156622000Y-101124000I-100000J0D01*
G01*
X155197000Y-101124000D01*
G75*
G02*
X155097000Y-101024000I0J100000D01*
G01*
G37*
G36*
G01*
X150872000Y-101024000D02*
X150872000Y-100824000D01*
G75*
G02*
X150972000Y-100724000I100000J0D01*
G01*
X152397000Y-100724000D01*
G75*
G02*
X152497000Y-100824000I0J-100000D01*
G01*
X152497000Y-101024000D01*
G75*
G02*
X152397000Y-101124000I-100000J0D01*
G01*
X150972000Y-101124000D01*
G75*
G02*
X150872000Y-101024000I0J100000D01*
G01*
G37*
G36*
G01*
X150872000Y-100374000D02*
X150872000Y-100174000D01*
G75*
G02*
X150972000Y-100074000I100000J0D01*
G01*
X152397000Y-100074000D01*
G75*
G02*
X152497000Y-100174000I0J-100000D01*
G01*
X152497000Y-100374000D01*
G75*
G02*
X152397000Y-100474000I-100000J0D01*
G01*
X150972000Y-100474000D01*
G75*
G02*
X150872000Y-100374000I0J100000D01*
G01*
G37*
G36*
G01*
X150872000Y-99724000D02*
X150872000Y-99524000D01*
G75*
G02*
X150972000Y-99424000I100000J0D01*
G01*
X152397000Y-99424000D01*
G75*
G02*
X152497000Y-99524000I0J-100000D01*
G01*
X152497000Y-99724000D01*
G75*
G02*
X152397000Y-99824000I-100000J0D01*
G01*
X150972000Y-99824000D01*
G75*
G02*
X150872000Y-99724000I0J100000D01*
G01*
G37*
G36*
G01*
X150872000Y-99074000D02*
X150872000Y-98874000D01*
G75*
G02*
X150972000Y-98774000I100000J0D01*
G01*
X152397000Y-98774000D01*
G75*
G02*
X152497000Y-98874000I0J-100000D01*
G01*
X152497000Y-99074000D01*
G75*
G02*
X152397000Y-99174000I-100000J0D01*
G01*
X150972000Y-99174000D01*
G75*
G02*
X150872000Y-99074000I0J100000D01*
G01*
G37*
G36*
G01*
X160299700Y-111159200D02*
X160299700Y-110959200D01*
G75*
G02*
X160399700Y-110859200I100000J0D01*
G01*
X161824700Y-110859200D01*
G75*
G02*
X161924700Y-110959200I0J-100000D01*
G01*
X161924700Y-111159200D01*
G75*
G02*
X161824700Y-111259200I-100000J0D01*
G01*
X160399700Y-111259200D01*
G75*
G02*
X160299700Y-111159200I0J100000D01*
G01*
G37*
G36*
G01*
X160299700Y-111809200D02*
X160299700Y-111609200D01*
G75*
G02*
X160399700Y-111509200I100000J0D01*
G01*
X161824700Y-111509200D01*
G75*
G02*
X161924700Y-111609200I0J-100000D01*
G01*
X161924700Y-111809200D01*
G75*
G02*
X161824700Y-111909200I-100000J0D01*
G01*
X160399700Y-111909200D01*
G75*
G02*
X160299700Y-111809200I0J100000D01*
G01*
G37*
G36*
G01*
X160299700Y-112459200D02*
X160299700Y-112259200D01*
G75*
G02*
X160399700Y-112159200I100000J0D01*
G01*
X161824700Y-112159200D01*
G75*
G02*
X161924700Y-112259200I0J-100000D01*
G01*
X161924700Y-112459200D01*
G75*
G02*
X161824700Y-112559200I-100000J0D01*
G01*
X160399700Y-112559200D01*
G75*
G02*
X160299700Y-112459200I0J100000D01*
G01*
G37*
G36*
G01*
X160299700Y-113109200D02*
X160299700Y-112909200D01*
G75*
G02*
X160399700Y-112809200I100000J0D01*
G01*
X161824700Y-112809200D01*
G75*
G02*
X161924700Y-112909200I0J-100000D01*
G01*
X161924700Y-113109200D01*
G75*
G02*
X161824700Y-113209200I-100000J0D01*
G01*
X160399700Y-113209200D01*
G75*
G02*
X160299700Y-113109200I0J100000D01*
G01*
G37*
G36*
G01*
X156074700Y-113109200D02*
X156074700Y-112909200D01*
G75*
G02*
X156174700Y-112809200I100000J0D01*
G01*
X157599700Y-112809200D01*
G75*
G02*
X157699700Y-112909200I0J-100000D01*
G01*
X157699700Y-113109200D01*
G75*
G02*
X157599700Y-113209200I-100000J0D01*
G01*
X156174700Y-113209200D01*
G75*
G02*
X156074700Y-113109200I0J100000D01*
G01*
G37*
G36*
G01*
X156074700Y-112459200D02*
X156074700Y-112259200D01*
G75*
G02*
X156174700Y-112159200I100000J0D01*
G01*
X157599700Y-112159200D01*
G75*
G02*
X157699700Y-112259200I0J-100000D01*
G01*
X157699700Y-112459200D01*
G75*
G02*
X157599700Y-112559200I-100000J0D01*
G01*
X156174700Y-112559200D01*
G75*
G02*
X156074700Y-112459200I0J100000D01*
G01*
G37*
G36*
G01*
X156074700Y-111809200D02*
X156074700Y-111609200D01*
G75*
G02*
X156174700Y-111509200I100000J0D01*
G01*
X157599700Y-111509200D01*
G75*
G02*
X157699700Y-111609200I0J-100000D01*
G01*
X157699700Y-111809200D01*
G75*
G02*
X157599700Y-111909200I-100000J0D01*
G01*
X156174700Y-111909200D01*
G75*
G02*
X156074700Y-111809200I0J100000D01*
G01*
G37*
G36*
G01*
X156074700Y-111159200D02*
X156074700Y-110959200D01*
G75*
G02*
X156174700Y-110859200I100000J0D01*
G01*
X157599700Y-110859200D01*
G75*
G02*
X157699700Y-110959200I0J-100000D01*
G01*
X157699700Y-111159200D01*
G75*
G02*
X157599700Y-111259200I-100000J0D01*
G01*
X156174700Y-111259200D01*
G75*
G02*
X156074700Y-111159200I0J100000D01*
G01*
G37*
G36*
G01*
X132999000Y-99709000D02*
X132999000Y-99509000D01*
G75*
G02*
X133099000Y-99409000I100000J0D01*
G01*
X134524000Y-99409000D01*
G75*
G02*
X134624000Y-99509000I0J-100000D01*
G01*
X134624000Y-99709000D01*
G75*
G02*
X134524000Y-99809000I-100000J0D01*
G01*
X133099000Y-99809000D01*
G75*
G02*
X132999000Y-99709000I0J100000D01*
G01*
G37*
G36*
G01*
X132999000Y-100359000D02*
X132999000Y-100159000D01*
G75*
G02*
X133099000Y-100059000I100000J0D01*
G01*
X134524000Y-100059000D01*
G75*
G02*
X134624000Y-100159000I0J-100000D01*
G01*
X134624000Y-100359000D01*
G75*
G02*
X134524000Y-100459000I-100000J0D01*
G01*
X133099000Y-100459000D01*
G75*
G02*
X132999000Y-100359000I0J100000D01*
G01*
G37*
G36*
G01*
X132999000Y-101009000D02*
X132999000Y-100809000D01*
G75*
G02*
X133099000Y-100709000I100000J0D01*
G01*
X134524000Y-100709000D01*
G75*
G02*
X134624000Y-100809000I0J-100000D01*
G01*
X134624000Y-101009000D01*
G75*
G02*
X134524000Y-101109000I-100000J0D01*
G01*
X133099000Y-101109000D01*
G75*
G02*
X132999000Y-101009000I0J100000D01*
G01*
G37*
G36*
G01*
X132999000Y-101659000D02*
X132999000Y-101459000D01*
G75*
G02*
X133099000Y-101359000I100000J0D01*
G01*
X134524000Y-101359000D01*
G75*
G02*
X134624000Y-101459000I0J-100000D01*
G01*
X134624000Y-101659000D01*
G75*
G02*
X134524000Y-101759000I-100000J0D01*
G01*
X133099000Y-101759000D01*
G75*
G02*
X132999000Y-101659000I0J100000D01*
G01*
G37*
G36*
G01*
X128774000Y-101659000D02*
X128774000Y-101459000D01*
G75*
G02*
X128874000Y-101359000I100000J0D01*
G01*
X130299000Y-101359000D01*
G75*
G02*
X130399000Y-101459000I0J-100000D01*
G01*
X130399000Y-101659000D01*
G75*
G02*
X130299000Y-101759000I-100000J0D01*
G01*
X128874000Y-101759000D01*
G75*
G02*
X128774000Y-101659000I0J100000D01*
G01*
G37*
G36*
G01*
X128774000Y-101009000D02*
X128774000Y-100809000D01*
G75*
G02*
X128874000Y-100709000I100000J0D01*
G01*
X130299000Y-100709000D01*
G75*
G02*
X130399000Y-100809000I0J-100000D01*
G01*
X130399000Y-101009000D01*
G75*
G02*
X130299000Y-101109000I-100000J0D01*
G01*
X128874000Y-101109000D01*
G75*
G02*
X128774000Y-101009000I0J100000D01*
G01*
G37*
G36*
G01*
X128774000Y-100359000D02*
X128774000Y-100159000D01*
G75*
G02*
X128874000Y-100059000I100000J0D01*
G01*
X130299000Y-100059000D01*
G75*
G02*
X130399000Y-100159000I0J-100000D01*
G01*
X130399000Y-100359000D01*
G75*
G02*
X130299000Y-100459000I-100000J0D01*
G01*
X128874000Y-100459000D01*
G75*
G02*
X128774000Y-100359000I0J100000D01*
G01*
G37*
G36*
G01*
X128774000Y-99709000D02*
X128774000Y-99509000D01*
G75*
G02*
X128874000Y-99409000I100000J0D01*
G01*
X130299000Y-99409000D01*
G75*
G02*
X130399000Y-99509000I0J-100000D01*
G01*
X130399000Y-99709000D01*
G75*
G02*
X130299000Y-99809000I-100000J0D01*
G01*
X128874000Y-99809000D01*
G75*
G02*
X128774000Y-99709000I0J100000D01*
G01*
G37*
G36*
G01*
X134459500Y-110504000D02*
X134459500Y-110304000D01*
G75*
G02*
X134559500Y-110204000I100000J0D01*
G01*
X135984500Y-110204000D01*
G75*
G02*
X136084500Y-110304000I0J-100000D01*
G01*
X136084500Y-110504000D01*
G75*
G02*
X135984500Y-110604000I-100000J0D01*
G01*
X134559500Y-110604000D01*
G75*
G02*
X134459500Y-110504000I0J100000D01*
G01*
G37*
G36*
G01*
X134459500Y-111154000D02*
X134459500Y-110954000D01*
G75*
G02*
X134559500Y-110854000I100000J0D01*
G01*
X135984500Y-110854000D01*
G75*
G02*
X136084500Y-110954000I0J-100000D01*
G01*
X136084500Y-111154000D01*
G75*
G02*
X135984500Y-111254000I-100000J0D01*
G01*
X134559500Y-111254000D01*
G75*
G02*
X134459500Y-111154000I0J100000D01*
G01*
G37*
G36*
G01*
X134459500Y-111804000D02*
X134459500Y-111604000D01*
G75*
G02*
X134559500Y-111504000I100000J0D01*
G01*
X135984500Y-111504000D01*
G75*
G02*
X136084500Y-111604000I0J-100000D01*
G01*
X136084500Y-111804000D01*
G75*
G02*
X135984500Y-111904000I-100000J0D01*
G01*
X134559500Y-111904000D01*
G75*
G02*
X134459500Y-111804000I0J100000D01*
G01*
G37*
G36*
G01*
X134459500Y-112454000D02*
X134459500Y-112254000D01*
G75*
G02*
X134559500Y-112154000I100000J0D01*
G01*
X135984500Y-112154000D01*
G75*
G02*
X136084500Y-112254000I0J-100000D01*
G01*
X136084500Y-112454000D01*
G75*
G02*
X135984500Y-112554000I-100000J0D01*
G01*
X134559500Y-112554000D01*
G75*
G02*
X134459500Y-112454000I0J100000D01*
G01*
G37*
G36*
G01*
X130234500Y-112454000D02*
X130234500Y-112254000D01*
G75*
G02*
X130334500Y-112154000I100000J0D01*
G01*
X131759500Y-112154000D01*
G75*
G02*
X131859500Y-112254000I0J-100000D01*
G01*
X131859500Y-112454000D01*
G75*
G02*
X131759500Y-112554000I-100000J0D01*
G01*
X130334500Y-112554000D01*
G75*
G02*
X130234500Y-112454000I0J100000D01*
G01*
G37*
G36*
G01*
X130234500Y-111804000D02*
X130234500Y-111604000D01*
G75*
G02*
X130334500Y-111504000I100000J0D01*
G01*
X131759500Y-111504000D01*
G75*
G02*
X131859500Y-111604000I0J-100000D01*
G01*
X131859500Y-111804000D01*
G75*
G02*
X131759500Y-111904000I-100000J0D01*
G01*
X130334500Y-111904000D01*
G75*
G02*
X130234500Y-111804000I0J100000D01*
G01*
G37*
G36*
G01*
X130234500Y-111154000D02*
X130234500Y-110954000D01*
G75*
G02*
X130334500Y-110854000I100000J0D01*
G01*
X131759500Y-110854000D01*
G75*
G02*
X131859500Y-110954000I0J-100000D01*
G01*
X131859500Y-111154000D01*
G75*
G02*
X131759500Y-111254000I-100000J0D01*
G01*
X130334500Y-111254000D01*
G75*
G02*
X130234500Y-111154000I0J100000D01*
G01*
G37*
G36*
G01*
X130234500Y-110504000D02*
X130234500Y-110304000D01*
G75*
G02*
X130334500Y-110204000I100000J0D01*
G01*
X131759500Y-110204000D01*
G75*
G02*
X131859500Y-110304000I0J-100000D01*
G01*
X131859500Y-110504000D01*
G75*
G02*
X131759500Y-110604000I-100000J0D01*
G01*
X130334500Y-110604000D01*
G75*
G02*
X130234500Y-110504000I0J100000D01*
G01*
G37*
G36*
G01*
X126611500Y-96778000D02*
X126611500Y-97278000D01*
G75*
G02*
X126386500Y-97503000I-225000J0D01*
G01*
X125936500Y-97503000D01*
G75*
G02*
X125711500Y-97278000I0J225000D01*
G01*
X125711500Y-96778000D01*
G75*
G02*
X125936500Y-96553000I225000J0D01*
G01*
X126386500Y-96553000D01*
G75*
G02*
X126611500Y-96778000I0J-225000D01*
G01*
G37*
G36*
G01*
X128161500Y-96778000D02*
X128161500Y-97278000D01*
G75*
G02*
X127936500Y-97503000I-225000J0D01*
G01*
X127486500Y-97503000D01*
G75*
G02*
X127261500Y-97278000I0J225000D01*
G01*
X127261500Y-96778000D01*
G75*
G02*
X127486500Y-96553000I225000J0D01*
G01*
X127936500Y-96553000D01*
G75*
G02*
X128161500Y-96778000I0J-225000D01*
G01*
G37*
G36*
G01*
X147085500Y-100880500D02*
X147085500Y-101430500D01*
G75*
G02*
X146885500Y-101630500I-200000J0D01*
G01*
X146485500Y-101630500D01*
G75*
G02*
X146285500Y-101430500I0J200000D01*
G01*
X146285500Y-100880500D01*
G75*
G02*
X146485500Y-100680500I200000J0D01*
G01*
X146885500Y-100680500D01*
G75*
G02*
X147085500Y-100880500I0J-200000D01*
G01*
G37*
G36*
G01*
X148735500Y-100880500D02*
X148735500Y-101430500D01*
G75*
G02*
X148535500Y-101630500I-200000J0D01*
G01*
X148135500Y-101630500D01*
G75*
G02*
X147935500Y-101430500I0J200000D01*
G01*
X147935500Y-100880500D01*
G75*
G02*
X148135500Y-100680500I200000J0D01*
G01*
X148535500Y-100680500D01*
G75*
G02*
X148735500Y-100880500I0J-200000D01*
G01*
G37*
G36*
G01*
X147935500Y-99906500D02*
X147935500Y-99356500D01*
G75*
G02*
X148135500Y-99156500I200000J0D01*
G01*
X148535500Y-99156500D01*
G75*
G02*
X148735500Y-99356500I0J-200000D01*
G01*
X148735500Y-99906500D01*
G75*
G02*
X148535500Y-100106500I-200000J0D01*
G01*
X148135500Y-100106500D01*
G75*
G02*
X147935500Y-99906500I0J200000D01*
G01*
G37*
G36*
G01*
X146285500Y-99906500D02*
X146285500Y-99356500D01*
G75*
G02*
X146485500Y-99156500I200000J0D01*
G01*
X146885500Y-99156500D01*
G75*
G02*
X147085500Y-99356500I0J-200000D01*
G01*
X147085500Y-99906500D01*
G75*
G02*
X146885500Y-100106500I-200000J0D01*
G01*
X146485500Y-100106500D01*
G75*
G02*
X146285500Y-99906500I0J200000D01*
G01*
G37*
G36*
G01*
X156231000Y-94698000D02*
X155681000Y-94698000D01*
G75*
G02*
X155481000Y-94498000I0J200000D01*
G01*
X155481000Y-94098000D01*
G75*
G02*
X155681000Y-93898000I200000J0D01*
G01*
X156231000Y-93898000D01*
G75*
G02*
X156431000Y-94098000I0J-200000D01*
G01*
X156431000Y-94498000D01*
G75*
G02*
X156231000Y-94698000I-200000J0D01*
G01*
G37*
G36*
G01*
X156231000Y-96348000D02*
X155681000Y-96348000D01*
G75*
G02*
X155481000Y-96148000I0J200000D01*
G01*
X155481000Y-95748000D01*
G75*
G02*
X155681000Y-95548000I200000J0D01*
G01*
X156231000Y-95548000D01*
G75*
G02*
X156431000Y-95748000I0J-200000D01*
G01*
X156431000Y-96148000D01*
G75*
G02*
X156231000Y-96348000I-200000J0D01*
G01*
G37*
G36*
G01*
X158136000Y-96730000D02*
X157586000Y-96730000D01*
G75*
G02*
X157386000Y-96530000I0J200000D01*
G01*
X157386000Y-96130000D01*
G75*
G02*
X157586000Y-95930000I200000J0D01*
G01*
X158136000Y-95930000D01*
G75*
G02*
X158336000Y-96130000I0J-200000D01*
G01*
X158336000Y-96530000D01*
G75*
G02*
X158136000Y-96730000I-200000J0D01*
G01*
G37*
G36*
G01*
X158136000Y-98380000D02*
X157586000Y-98380000D01*
G75*
G02*
X157386000Y-98180000I0J200000D01*
G01*
X157386000Y-97780000D01*
G75*
G02*
X157586000Y-97580000I200000J0D01*
G01*
X158136000Y-97580000D01*
G75*
G02*
X158336000Y-97780000I0J-200000D01*
G01*
X158336000Y-98180000D01*
G75*
G02*
X158136000Y-98380000I-200000J0D01*
G01*
G37*
D15*
X154539000Y-105717000D03*
D16*
X153289000Y-102817000D03*
D15*
X152039000Y-105717000D03*
X146578000Y-93355500D03*
D16*
X147828000Y-96255500D03*
D15*
X149078000Y-93355500D03*
G36*
G01*
X147559000Y-104159499D02*
X147559000Y-105009501D01*
G75*
G02*
X147309001Y-105259500I-249999J0D01*
G01*
X146408999Y-105259500D01*
G75*
G02*
X146159000Y-105009501I0J249999D01*
G01*
X146159000Y-104159499D01*
G75*
G02*
X146408999Y-103909500I249999J0D01*
G01*
X147309001Y-103909500D01*
G75*
G02*
X147559000Y-104159499I0J-249999D01*
G01*
G37*
G36*
G01*
X150259000Y-104159499D02*
X150259000Y-105009501D01*
G75*
G02*
X150009001Y-105259500I-249999J0D01*
G01*
X149108999Y-105259500D01*
G75*
G02*
X148859000Y-105009501I0J249999D01*
G01*
X148859000Y-104159499D01*
G75*
G02*
X149108999Y-103909500I249999J0D01*
G01*
X150009001Y-103909500D01*
G75*
G02*
X150259000Y-104159499I0J-249999D01*
G01*
G37*
G36*
G01*
X147185500Y-102429500D02*
X147185500Y-102929500D01*
G75*
G02*
X146960500Y-103154500I-225000J0D01*
G01*
X146510500Y-103154500D01*
G75*
G02*
X146285500Y-102929500I0J225000D01*
G01*
X146285500Y-102429500D01*
G75*
G02*
X146510500Y-102204500I225000J0D01*
G01*
X146960500Y-102204500D01*
G75*
G02*
X147185500Y-102429500I0J-225000D01*
G01*
G37*
G36*
G01*
X148735500Y-102429500D02*
X148735500Y-102929500D01*
G75*
G02*
X148510500Y-103154500I-225000J0D01*
G01*
X148060500Y-103154500D01*
G75*
G02*
X147835500Y-102929500I0J225000D01*
G01*
X147835500Y-102429500D01*
G75*
G02*
X148060500Y-102204500I225000J0D01*
G01*
X148510500Y-102204500D01*
G75*
G02*
X148735500Y-102429500I0J-225000D01*
G01*
G37*
D17*
X166073000Y-115062000D03*
X166073000Y-114112000D03*
X166073000Y-116012000D03*
X163873000Y-116012000D03*
X163873000Y-115062000D03*
X163873000Y-114112000D03*
G36*
G01*
X128884000Y-110534000D02*
X129434000Y-110534000D01*
G75*
G02*
X129634000Y-110734000I0J-200000D01*
G01*
X129634000Y-111134000D01*
G75*
G02*
X129434000Y-111334000I-200000J0D01*
G01*
X128884000Y-111334000D01*
G75*
G02*
X128684000Y-111134000I0J200000D01*
G01*
X128684000Y-110734000D01*
G75*
G02*
X128884000Y-110534000I200000J0D01*
G01*
G37*
G36*
G01*
X128884000Y-108884000D02*
X129434000Y-108884000D01*
G75*
G02*
X129634000Y-109084000I0J-200000D01*
G01*
X129634000Y-109484000D01*
G75*
G02*
X129434000Y-109684000I-200000J0D01*
G01*
X128884000Y-109684000D01*
G75*
G02*
X128684000Y-109484000I0J200000D01*
G01*
X128684000Y-109084000D01*
G75*
G02*
X128884000Y-108884000I200000J0D01*
G01*
G37*
G36*
G01*
X135419600Y-100845500D02*
X135919600Y-100845500D01*
G75*
G02*
X136144600Y-101070500I0J-225000D01*
G01*
X136144600Y-101520500D01*
G75*
G02*
X135919600Y-101745500I-225000J0D01*
G01*
X135419600Y-101745500D01*
G75*
G02*
X135194600Y-101520500I0J225000D01*
G01*
X135194600Y-101070500D01*
G75*
G02*
X135419600Y-100845500I225000J0D01*
G01*
G37*
G36*
G01*
X135419600Y-99295500D02*
X135919600Y-99295500D01*
G75*
G02*
X136144600Y-99520500I0J-225000D01*
G01*
X136144600Y-99970500D01*
G75*
G02*
X135919600Y-100195500I-225000J0D01*
G01*
X135419600Y-100195500D01*
G75*
G02*
X135194600Y-99970500I0J225000D01*
G01*
X135194600Y-99520500D01*
G75*
G02*
X135419600Y-99295500I225000J0D01*
G01*
G37*
G36*
G01*
X141839500Y-93810500D02*
X141839500Y-93260500D01*
G75*
G02*
X142039500Y-93060500I200000J0D01*
G01*
X142439500Y-93060500D01*
G75*
G02*
X142639500Y-93260500I0J-200000D01*
G01*
X142639500Y-93810500D01*
G75*
G02*
X142439500Y-94010500I-200000J0D01*
G01*
X142039500Y-94010500D01*
G75*
G02*
X141839500Y-93810500I0J200000D01*
G01*
G37*
G36*
G01*
X140189500Y-93810500D02*
X140189500Y-93260500D01*
G75*
G02*
X140389500Y-93060500I200000J0D01*
G01*
X140789500Y-93060500D01*
G75*
G02*
X140989500Y-93260500I0J-200000D01*
G01*
X140989500Y-93810500D01*
G75*
G02*
X140789500Y-94010500I-200000J0D01*
G01*
X140389500Y-94010500D01*
G75*
G02*
X140189500Y-93810500I0J200000D01*
G01*
G37*
G36*
G01*
X141647500Y-111105500D02*
X142197500Y-111105500D01*
G75*
G02*
X142397500Y-111305500I0J-200000D01*
G01*
X142397500Y-111705500D01*
G75*
G02*
X142197500Y-111905500I-200000J0D01*
G01*
X141647500Y-111905500D01*
G75*
G02*
X141447500Y-111705500I0J200000D01*
G01*
X141447500Y-111305500D01*
G75*
G02*
X141647500Y-111105500I200000J0D01*
G01*
G37*
G36*
G01*
X141647500Y-109455500D02*
X142197500Y-109455500D01*
G75*
G02*
X142397500Y-109655500I0J-200000D01*
G01*
X142397500Y-110055500D01*
G75*
G02*
X142197500Y-110255500I-200000J0D01*
G01*
X141647500Y-110255500D01*
G75*
G02*
X141447500Y-110055500I0J200000D01*
G01*
X141447500Y-109655500D01*
G75*
G02*
X141647500Y-109455500I200000J0D01*
G01*
G37*
G36*
G01*
X154705500Y-97134000D02*
X154705500Y-97684000D01*
G75*
G02*
X154505500Y-97884000I-200000J0D01*
G01*
X154105500Y-97884000D01*
G75*
G02*
X153905500Y-97684000I0J200000D01*
G01*
X153905500Y-97134000D01*
G75*
G02*
X154105500Y-96934000I200000J0D01*
G01*
X154505500Y-96934000D01*
G75*
G02*
X154705500Y-97134000I0J-200000D01*
G01*
G37*
G36*
G01*
X156355500Y-97134000D02*
X156355500Y-97684000D01*
G75*
G02*
X156155500Y-97884000I-200000J0D01*
G01*
X155755500Y-97884000D01*
G75*
G02*
X155555500Y-97684000I0J200000D01*
G01*
X155555500Y-97134000D01*
G75*
G02*
X155755500Y-96934000I200000J0D01*
G01*
X156155500Y-96934000D01*
G75*
G02*
X156355500Y-97134000I0J-200000D01*
G01*
G37*
G36*
G01*
X143974000Y-97832500D02*
X143974000Y-98382500D01*
G75*
G02*
X143774000Y-98582500I-200000J0D01*
G01*
X143374000Y-98582500D01*
G75*
G02*
X143174000Y-98382500I0J200000D01*
G01*
X143174000Y-97832500D01*
G75*
G02*
X143374000Y-97632500I200000J0D01*
G01*
X143774000Y-97632500D01*
G75*
G02*
X143974000Y-97832500I0J-200000D01*
G01*
G37*
G36*
G01*
X145624000Y-97832500D02*
X145624000Y-98382500D01*
G75*
G02*
X145424000Y-98582500I-200000J0D01*
G01*
X145024000Y-98582500D01*
G75*
G02*
X144824000Y-98382500I0J200000D01*
G01*
X144824000Y-97832500D01*
G75*
G02*
X145024000Y-97632500I200000J0D01*
G01*
X145424000Y-97632500D01*
G75*
G02*
X145624000Y-97832500I0J-200000D01*
G01*
G37*
G36*
G01*
X140673500Y-110259600D02*
X140123500Y-110259600D01*
G75*
G02*
X139923500Y-110059600I0J200000D01*
G01*
X139923500Y-109659600D01*
G75*
G02*
X140123500Y-109459600I200000J0D01*
G01*
X140673500Y-109459600D01*
G75*
G02*
X140873500Y-109659600I0J-200000D01*
G01*
X140873500Y-110059600D01*
G75*
G02*
X140673500Y-110259600I-200000J0D01*
G01*
G37*
G36*
G01*
X140673500Y-111909600D02*
X140123500Y-111909600D01*
G75*
G02*
X139923500Y-111709600I0J200000D01*
G01*
X139923500Y-111309600D01*
G75*
G02*
X140123500Y-111109600I200000J0D01*
G01*
X140673500Y-111109600D01*
G75*
G02*
X140873500Y-111309600I0J-200000D01*
G01*
X140873500Y-111709600D01*
G75*
G02*
X140673500Y-111909600I-200000J0D01*
G01*
G37*
G36*
G01*
X139022500Y-100095500D02*
X138472500Y-100095500D01*
G75*
G02*
X138272500Y-99895500I0J200000D01*
G01*
X138272500Y-99495500D01*
G75*
G02*
X138472500Y-99295500I200000J0D01*
G01*
X139022500Y-99295500D01*
G75*
G02*
X139222500Y-99495500I0J-200000D01*
G01*
X139222500Y-99895500D01*
G75*
G02*
X139022500Y-100095500I-200000J0D01*
G01*
G37*
G36*
G01*
X139022500Y-101745500D02*
X138472500Y-101745500D01*
G75*
G02*
X138272500Y-101545500I0J200000D01*
G01*
X138272500Y-101145500D01*
G75*
G02*
X138472500Y-100945500I200000J0D01*
G01*
X139022500Y-100945500D01*
G75*
G02*
X139222500Y-101145500I0J-200000D01*
G01*
X139222500Y-101545500D01*
G75*
G02*
X139022500Y-101745500I-200000J0D01*
G01*
G37*
G36*
G01*
X150071500Y-98508000D02*
X149521500Y-98508000D01*
G75*
G02*
X149321500Y-98308000I0J200000D01*
G01*
X149321500Y-97908000D01*
G75*
G02*
X149521500Y-97708000I200000J0D01*
G01*
X150071500Y-97708000D01*
G75*
G02*
X150271500Y-97908000I0J-200000D01*
G01*
X150271500Y-98308000D01*
G75*
G02*
X150071500Y-98508000I-200000J0D01*
G01*
G37*
G36*
G01*
X150071500Y-100158000D02*
X149521500Y-100158000D01*
G75*
G02*
X149321500Y-99958000I0J200000D01*
G01*
X149321500Y-99558000D01*
G75*
G02*
X149521500Y-99358000I200000J0D01*
G01*
X150071500Y-99358000D01*
G75*
G02*
X150271500Y-99558000I0J-200000D01*
G01*
X150271500Y-99958000D01*
G75*
G02*
X150071500Y-100158000I-200000J0D01*
G01*
G37*
G36*
G01*
X149521500Y-102406000D02*
X150071500Y-102406000D01*
G75*
G02*
X150271500Y-102606000I0J-200000D01*
G01*
X150271500Y-103006000D01*
G75*
G02*
X150071500Y-103206000I-200000J0D01*
G01*
X149521500Y-103206000D01*
G75*
G02*
X149321500Y-103006000I0J200000D01*
G01*
X149321500Y-102606000D01*
G75*
G02*
X149521500Y-102406000I200000J0D01*
G01*
G37*
G36*
G01*
X149521500Y-100756000D02*
X150071500Y-100756000D01*
G75*
G02*
X150271500Y-100956000I0J-200000D01*
G01*
X150271500Y-101356000D01*
G75*
G02*
X150071500Y-101556000I-200000J0D01*
G01*
X149521500Y-101556000D01*
G75*
G02*
X149321500Y-101356000I0J200000D01*
G01*
X149321500Y-100956000D01*
G75*
G02*
X149521500Y-100756000I200000J0D01*
G01*
G37*
G36*
G01*
X142451500Y-96920500D02*
X141901500Y-96920500D01*
G75*
G02*
X141701500Y-96720500I0J200000D01*
G01*
X141701500Y-96320500D01*
G75*
G02*
X141901500Y-96120500I200000J0D01*
G01*
X142451500Y-96120500D01*
G75*
G02*
X142651500Y-96320500I0J-200000D01*
G01*
X142651500Y-96720500D01*
G75*
G02*
X142451500Y-96920500I-200000J0D01*
G01*
G37*
G36*
G01*
X142451500Y-98570500D02*
X141901500Y-98570500D01*
G75*
G02*
X141701500Y-98370500I0J200000D01*
G01*
X141701500Y-97970500D01*
G75*
G02*
X141901500Y-97770500I200000J0D01*
G01*
X142451500Y-97770500D01*
G75*
G02*
X142651500Y-97970500I0J-200000D01*
G01*
X142651500Y-98370500D01*
G75*
G02*
X142451500Y-98570500I-200000J0D01*
G01*
G37*
G36*
G01*
X140123500Y-114153500D02*
X140673500Y-114153500D01*
G75*
G02*
X140873500Y-114353500I0J-200000D01*
G01*
X140873500Y-114753500D01*
G75*
G02*
X140673500Y-114953500I-200000J0D01*
G01*
X140123500Y-114953500D01*
G75*
G02*
X139923500Y-114753500I0J200000D01*
G01*
X139923500Y-114353500D01*
G75*
G02*
X140123500Y-114153500I200000J0D01*
G01*
G37*
G36*
G01*
X140123500Y-112503500D02*
X140673500Y-112503500D01*
G75*
G02*
X140873500Y-112703500I0J-200000D01*
G01*
X140873500Y-113103500D01*
G75*
G02*
X140673500Y-113303500I-200000J0D01*
G01*
X140123500Y-113303500D01*
G75*
G02*
X139923500Y-113103500I0J200000D01*
G01*
X139923500Y-112703500D01*
G75*
G02*
X140123500Y-112503500I200000J0D01*
G01*
G37*
G36*
G01*
X157055000Y-103738000D02*
X157055000Y-104288000D01*
G75*
G02*
X156855000Y-104488000I-200000J0D01*
G01*
X156455000Y-104488000D01*
G75*
G02*
X156255000Y-104288000I0J200000D01*
G01*
X156255000Y-103738000D01*
G75*
G02*
X156455000Y-103538000I200000J0D01*
G01*
X156855000Y-103538000D01*
G75*
G02*
X157055000Y-103738000I0J-200000D01*
G01*
G37*
G36*
G01*
X158705000Y-103738000D02*
X158705000Y-104288000D01*
G75*
G02*
X158505000Y-104488000I-200000J0D01*
G01*
X158105000Y-104488000D01*
G75*
G02*
X157905000Y-104288000I0J200000D01*
G01*
X157905000Y-103738000D01*
G75*
G02*
X158105000Y-103538000I200000J0D01*
G01*
X158505000Y-103538000D01*
G75*
G02*
X158705000Y-103738000I0J-200000D01*
G01*
G37*
G36*
G01*
X157905000Y-102764000D02*
X157905000Y-102214000D01*
G75*
G02*
X158105000Y-102014000I200000J0D01*
G01*
X158505000Y-102014000D01*
G75*
G02*
X158705000Y-102214000I0J-200000D01*
G01*
X158705000Y-102764000D01*
G75*
G02*
X158505000Y-102964000I-200000J0D01*
G01*
X158105000Y-102964000D01*
G75*
G02*
X157905000Y-102764000I0J200000D01*
G01*
G37*
G36*
G01*
X156255000Y-102764000D02*
X156255000Y-102214000D01*
G75*
G02*
X156455000Y-102014000I200000J0D01*
G01*
X156855000Y-102014000D01*
G75*
G02*
X157055000Y-102214000I0J-200000D01*
G01*
X157055000Y-102764000D01*
G75*
G02*
X156855000Y-102964000I-200000J0D01*
G01*
X156455000Y-102964000D01*
G75*
G02*
X156255000Y-102764000I0J200000D01*
G01*
G37*
G36*
G01*
X137497000Y-109072000D02*
X137497000Y-109622000D01*
G75*
G02*
X137297000Y-109822000I-200000J0D01*
G01*
X136897000Y-109822000D01*
G75*
G02*
X136697000Y-109622000I0J200000D01*
G01*
X136697000Y-109072000D01*
G75*
G02*
X136897000Y-108872000I200000J0D01*
G01*
X137297000Y-108872000D01*
G75*
G02*
X137497000Y-109072000I0J-200000D01*
G01*
G37*
G36*
G01*
X139147000Y-109072000D02*
X139147000Y-109622000D01*
G75*
G02*
X138947000Y-109822000I-200000J0D01*
G01*
X138547000Y-109822000D01*
G75*
G02*
X138347000Y-109622000I0J200000D01*
G01*
X138347000Y-109072000D01*
G75*
G02*
X138547000Y-108872000I200000J0D01*
G01*
X138947000Y-108872000D01*
G75*
G02*
X139147000Y-109072000I0J-200000D01*
G01*
G37*
G36*
G01*
X136885000Y-112058000D02*
X137435000Y-112058000D01*
G75*
G02*
X137635000Y-112258000I0J-200000D01*
G01*
X137635000Y-112658000D01*
G75*
G02*
X137435000Y-112858000I-200000J0D01*
G01*
X136885000Y-112858000D01*
G75*
G02*
X136685000Y-112658000I0J200000D01*
G01*
X136685000Y-112258000D01*
G75*
G02*
X136885000Y-112058000I200000J0D01*
G01*
G37*
G36*
G01*
X136885000Y-110408000D02*
X137435000Y-110408000D01*
G75*
G02*
X137635000Y-110608000I0J-200000D01*
G01*
X137635000Y-111008000D01*
G75*
G02*
X137435000Y-111208000I-200000J0D01*
G01*
X136885000Y-111208000D01*
G75*
G02*
X136685000Y-111008000I0J200000D01*
G01*
X136685000Y-110608000D01*
G75*
G02*
X136885000Y-110408000I200000J0D01*
G01*
G37*
G36*
G01*
X136948500Y-100945500D02*
X137498500Y-100945500D01*
G75*
G02*
X137698500Y-101145500I0J-200000D01*
G01*
X137698500Y-101545500D01*
G75*
G02*
X137498500Y-101745500I-200000J0D01*
G01*
X136948500Y-101745500D01*
G75*
G02*
X136748500Y-101545500I0J200000D01*
G01*
X136748500Y-101145500D01*
G75*
G02*
X136948500Y-100945500I200000J0D01*
G01*
G37*
G36*
G01*
X136948500Y-99295500D02*
X137498500Y-99295500D01*
G75*
G02*
X137698500Y-99495500I0J-200000D01*
G01*
X137698500Y-99895500D01*
G75*
G02*
X137498500Y-100095500I-200000J0D01*
G01*
X136948500Y-100095500D01*
G75*
G02*
X136748500Y-99895500I0J200000D01*
G01*
X136748500Y-99495500D01*
G75*
G02*
X136948500Y-99295500I200000J0D01*
G01*
G37*
G36*
G01*
X138959000Y-111208000D02*
X138409000Y-111208000D01*
G75*
G02*
X138209000Y-111008000I0J200000D01*
G01*
X138209000Y-110608000D01*
G75*
G02*
X138409000Y-110408000I200000J0D01*
G01*
X138959000Y-110408000D01*
G75*
G02*
X139159000Y-110608000I0J-200000D01*
G01*
X139159000Y-111008000D01*
G75*
G02*
X138959000Y-111208000I-200000J0D01*
G01*
G37*
G36*
G01*
X138959000Y-112858000D02*
X138409000Y-112858000D01*
G75*
G02*
X138209000Y-112658000I0J200000D01*
G01*
X138209000Y-112258000D01*
G75*
G02*
X138409000Y-112058000I200000J0D01*
G01*
X138959000Y-112058000D01*
G75*
G02*
X139159000Y-112258000I0J-200000D01*
G01*
X139159000Y-112658000D01*
G75*
G02*
X138959000Y-112858000I-200000J0D01*
G01*
G37*
G36*
G01*
X132607500Y-102849000D02*
X132607500Y-103399000D01*
G75*
G02*
X132407500Y-103599000I-200000J0D01*
G01*
X132007500Y-103599000D01*
G75*
G02*
X131807500Y-103399000I0J200000D01*
G01*
X131807500Y-102849000D01*
G75*
G02*
X132007500Y-102649000I200000J0D01*
G01*
X132407500Y-102649000D01*
G75*
G02*
X132607500Y-102849000I0J-200000D01*
G01*
G37*
G36*
G01*
X134257500Y-102849000D02*
X134257500Y-103399000D01*
G75*
G02*
X134057500Y-103599000I-200000J0D01*
G01*
X133657500Y-103599000D01*
G75*
G02*
X133457500Y-103399000I0J200000D01*
G01*
X133457500Y-102849000D01*
G75*
G02*
X133657500Y-102649000I200000J0D01*
G01*
X134057500Y-102649000D01*
G75*
G02*
X134257500Y-102849000I0J-200000D01*
G01*
G37*
G36*
G01*
X134068000Y-113644000D02*
X134068000Y-114194000D01*
G75*
G02*
X133868000Y-114394000I-200000J0D01*
G01*
X133468000Y-114394000D01*
G75*
G02*
X133268000Y-114194000I0J200000D01*
G01*
X133268000Y-113644000D01*
G75*
G02*
X133468000Y-113444000I200000J0D01*
G01*
X133868000Y-113444000D01*
G75*
G02*
X134068000Y-113644000I0J-200000D01*
G01*
G37*
G36*
G01*
X135718000Y-113644000D02*
X135718000Y-114194000D01*
G75*
G02*
X135518000Y-114394000I-200000J0D01*
G01*
X135118000Y-114394000D01*
G75*
G02*
X134918000Y-114194000I0J200000D01*
G01*
X134918000Y-113644000D01*
G75*
G02*
X135118000Y-113444000I200000J0D01*
G01*
X135518000Y-113444000D01*
G75*
G02*
X135718000Y-113644000I0J-200000D01*
G01*
G37*
G36*
G01*
X129559500Y-97769000D02*
X129559500Y-98319000D01*
G75*
G02*
X129359500Y-98519000I-200000J0D01*
G01*
X128959500Y-98519000D01*
G75*
G02*
X128759500Y-98319000I0J200000D01*
G01*
X128759500Y-97769000D01*
G75*
G02*
X128959500Y-97569000I200000J0D01*
G01*
X129359500Y-97569000D01*
G75*
G02*
X129559500Y-97769000I0J-200000D01*
G01*
G37*
G36*
G01*
X131209500Y-97769000D02*
X131209500Y-98319000D01*
G75*
G02*
X131009500Y-98519000I-200000J0D01*
G01*
X130609500Y-98519000D01*
G75*
G02*
X130409500Y-98319000I0J200000D01*
G01*
X130409500Y-97769000D01*
G75*
G02*
X130609500Y-97569000I200000J0D01*
G01*
X131009500Y-97569000D01*
G75*
G02*
X131209500Y-97769000I0J-200000D01*
G01*
G37*
G36*
G01*
X131020000Y-108564000D02*
X131020000Y-109114000D01*
G75*
G02*
X130820000Y-109314000I-200000J0D01*
G01*
X130420000Y-109314000D01*
G75*
G02*
X130220000Y-109114000I0J200000D01*
G01*
X130220000Y-108564000D01*
G75*
G02*
X130420000Y-108364000I200000J0D01*
G01*
X130820000Y-108364000D01*
G75*
G02*
X131020000Y-108564000I0J-200000D01*
G01*
G37*
G36*
G01*
X132670000Y-108564000D02*
X132670000Y-109114000D01*
G75*
G02*
X132470000Y-109314000I-200000J0D01*
G01*
X132070000Y-109314000D01*
G75*
G02*
X131870000Y-109114000I0J200000D01*
G01*
X131870000Y-108564000D01*
G75*
G02*
X132070000Y-108364000I200000J0D01*
G01*
X132470000Y-108364000D01*
G75*
G02*
X132670000Y-108564000I0J-200000D01*
G01*
G37*
G36*
G01*
X127423500Y-99743100D02*
X127973500Y-99743100D01*
G75*
G02*
X128173500Y-99943100I0J-200000D01*
G01*
X128173500Y-100343100D01*
G75*
G02*
X127973500Y-100543100I-200000J0D01*
G01*
X127423500Y-100543100D01*
G75*
G02*
X127223500Y-100343100I0J200000D01*
G01*
X127223500Y-99943100D01*
G75*
G02*
X127423500Y-99743100I200000J0D01*
G01*
G37*
G36*
G01*
X127423500Y-98093100D02*
X127973500Y-98093100D01*
G75*
G02*
X128173500Y-98293100I0J-200000D01*
G01*
X128173500Y-98693100D01*
G75*
G02*
X127973500Y-98893100I-200000J0D01*
G01*
X127423500Y-98893100D01*
G75*
G02*
X127223500Y-98693100I0J200000D01*
G01*
X127223500Y-98293100D01*
G75*
G02*
X127423500Y-98093100I200000J0D01*
G01*
G37*
G36*
G01*
X127423500Y-102791100D02*
X127973500Y-102791100D01*
G75*
G02*
X128173500Y-102991100I0J-200000D01*
G01*
X128173500Y-103391100D01*
G75*
G02*
X127973500Y-103591100I-200000J0D01*
G01*
X127423500Y-103591100D01*
G75*
G02*
X127223500Y-103391100I0J200000D01*
G01*
X127223500Y-102991100D01*
G75*
G02*
X127423500Y-102791100I200000J0D01*
G01*
G37*
G36*
G01*
X127423500Y-101141100D02*
X127973500Y-101141100D01*
G75*
G02*
X128173500Y-101341100I0J-200000D01*
G01*
X128173500Y-101741100D01*
G75*
G02*
X127973500Y-101941100I-200000J0D01*
G01*
X127423500Y-101941100D01*
G75*
G02*
X127223500Y-101741100I0J200000D01*
G01*
X127223500Y-101341100D01*
G75*
G02*
X127423500Y-101141100I200000J0D01*
G01*
G37*
G36*
G01*
X126449500Y-98889000D02*
X125899500Y-98889000D01*
G75*
G02*
X125699500Y-98689000I0J200000D01*
G01*
X125699500Y-98289000D01*
G75*
G02*
X125899500Y-98089000I200000J0D01*
G01*
X126449500Y-98089000D01*
G75*
G02*
X126649500Y-98289000I0J-200000D01*
G01*
X126649500Y-98689000D01*
G75*
G02*
X126449500Y-98889000I-200000J0D01*
G01*
G37*
G36*
G01*
X126449500Y-100539000D02*
X125899500Y-100539000D01*
G75*
G02*
X125699500Y-100339000I0J200000D01*
G01*
X125699500Y-99939000D01*
G75*
G02*
X125899500Y-99739000I200000J0D01*
G01*
X126449500Y-99739000D01*
G75*
G02*
X126649500Y-99939000I0J-200000D01*
G01*
X126649500Y-100339000D01*
G75*
G02*
X126449500Y-100539000I-200000J0D01*
G01*
G37*
G36*
G01*
X127910000Y-109684000D02*
X127360000Y-109684000D01*
G75*
G02*
X127160000Y-109484000I0J200000D01*
G01*
X127160000Y-109084000D01*
G75*
G02*
X127360000Y-108884000I200000J0D01*
G01*
X127910000Y-108884000D01*
G75*
G02*
X128110000Y-109084000I0J-200000D01*
G01*
X128110000Y-109484000D01*
G75*
G02*
X127910000Y-109684000I-200000J0D01*
G01*
G37*
G36*
G01*
X127910000Y-111334000D02*
X127360000Y-111334000D01*
G75*
G02*
X127160000Y-111134000I0J200000D01*
G01*
X127160000Y-110734000D01*
G75*
G02*
X127360000Y-110534000I200000J0D01*
G01*
X127910000Y-110534000D01*
G75*
G02*
X128110000Y-110734000I0J-200000D01*
G01*
X128110000Y-111134000D01*
G75*
G02*
X127910000Y-111334000I-200000J0D01*
G01*
G37*
G36*
G01*
X127972000Y-112120000D02*
X127972000Y-112670000D01*
G75*
G02*
X127772000Y-112870000I-200000J0D01*
G01*
X127372000Y-112870000D01*
G75*
G02*
X127172000Y-112670000I0J200000D01*
G01*
X127172000Y-112120000D01*
G75*
G02*
X127372000Y-111920000I200000J0D01*
G01*
X127772000Y-111920000D01*
G75*
G02*
X127972000Y-112120000I0J-200000D01*
G01*
G37*
G36*
G01*
X129622000Y-112120000D02*
X129622000Y-112670000D01*
G75*
G02*
X129422000Y-112870000I-200000J0D01*
G01*
X129022000Y-112870000D01*
G75*
G02*
X128822000Y-112670000I0J200000D01*
G01*
X128822000Y-112120000D01*
G75*
G02*
X129022000Y-111920000I200000J0D01*
G01*
X129422000Y-111920000D01*
G75*
G02*
X129622000Y-112120000I0J-200000D01*
G01*
G37*
G36*
G01*
X125836000Y-113582000D02*
X126386000Y-113582000D01*
G75*
G02*
X126586000Y-113782000I0J-200000D01*
G01*
X126586000Y-114182000D01*
G75*
G02*
X126386000Y-114382000I-200000J0D01*
G01*
X125836000Y-114382000D01*
G75*
G02*
X125636000Y-114182000I0J200000D01*
G01*
X125636000Y-113782000D01*
G75*
G02*
X125836000Y-113582000I200000J0D01*
G01*
G37*
G36*
G01*
X125836000Y-111932000D02*
X126386000Y-111932000D01*
G75*
G02*
X126586000Y-112132000I0J-200000D01*
G01*
X126586000Y-112532000D01*
G75*
G02*
X126386000Y-112732000I-200000J0D01*
G01*
X125836000Y-112732000D01*
G75*
G02*
X125636000Y-112532000I0J200000D01*
G01*
X125636000Y-112132000D01*
G75*
G02*
X125836000Y-111932000I200000J0D01*
G01*
G37*
G36*
G01*
X154666500Y-111273000D02*
X154666500Y-110723000D01*
G75*
G02*
X154866500Y-110523000I200000J0D01*
G01*
X155266500Y-110523000D01*
G75*
G02*
X155466500Y-110723000I0J-200000D01*
G01*
X155466500Y-111273000D01*
G75*
G02*
X155266500Y-111473000I-200000J0D01*
G01*
X154866500Y-111473000D01*
G75*
G02*
X154666500Y-111273000I0J200000D01*
G01*
G37*
G36*
G01*
X153016500Y-111273000D02*
X153016500Y-110723000D01*
G75*
G02*
X153216500Y-110523000I200000J0D01*
G01*
X153616500Y-110523000D01*
G75*
G02*
X153816500Y-110723000I0J-200000D01*
G01*
X153816500Y-111273000D01*
G75*
G02*
X153616500Y-111473000I-200000J0D01*
G01*
X153216500Y-111473000D01*
G75*
G02*
X153016500Y-111273000I0J200000D01*
G01*
G37*
G36*
G01*
X162983500Y-103041000D02*
X163533500Y-103041000D01*
G75*
G02*
X163733500Y-103241000I0J-200000D01*
G01*
X163733500Y-103641000D01*
G75*
G02*
X163533500Y-103841000I-200000J0D01*
G01*
X162983500Y-103841000D01*
G75*
G02*
X162783500Y-103641000I0J200000D01*
G01*
X162783500Y-103241000D01*
G75*
G02*
X162983500Y-103041000I200000J0D01*
G01*
G37*
G36*
G01*
X162983500Y-101391000D02*
X163533500Y-101391000D01*
G75*
G02*
X163733500Y-101591000I0J-200000D01*
G01*
X163733500Y-101991000D01*
G75*
G02*
X163533500Y-102191000I-200000J0D01*
G01*
X162983500Y-102191000D01*
G75*
G02*
X162783500Y-101991000I0J200000D01*
G01*
X162783500Y-101591000D01*
G75*
G02*
X162983500Y-101391000I200000J0D01*
G01*
G37*
G36*
G01*
X149648500Y-110724500D02*
X150198500Y-110724500D01*
G75*
G02*
X150398500Y-110924500I0J-200000D01*
G01*
X150398500Y-111324500D01*
G75*
G02*
X150198500Y-111524500I-200000J0D01*
G01*
X149648500Y-111524500D01*
G75*
G02*
X149448500Y-111324500I0J200000D01*
G01*
X149448500Y-110924500D01*
G75*
G02*
X149648500Y-110724500I200000J0D01*
G01*
G37*
G36*
G01*
X149648500Y-109074500D02*
X150198500Y-109074500D01*
G75*
G02*
X150398500Y-109274500I0J-200000D01*
G01*
X150398500Y-109674500D01*
G75*
G02*
X150198500Y-109874500I-200000J0D01*
G01*
X149648500Y-109874500D01*
G75*
G02*
X149448500Y-109674500I0J200000D01*
G01*
X149448500Y-109274500D01*
G75*
G02*
X149648500Y-109074500I200000J0D01*
G01*
G37*
G36*
G01*
X150260500Y-107294000D02*
X150260500Y-107844000D01*
G75*
G02*
X150060500Y-108044000I-200000J0D01*
G01*
X149660500Y-108044000D01*
G75*
G02*
X149460500Y-107844000I0J200000D01*
G01*
X149460500Y-107294000D01*
G75*
G02*
X149660500Y-107094000I200000J0D01*
G01*
X150060500Y-107094000D01*
G75*
G02*
X150260500Y-107294000I0J-200000D01*
G01*
G37*
G36*
G01*
X151910500Y-107294000D02*
X151910500Y-107844000D01*
G75*
G02*
X151710500Y-108044000I-200000J0D01*
G01*
X151310500Y-108044000D01*
G75*
G02*
X151110500Y-107844000I0J200000D01*
G01*
X151110500Y-107294000D01*
G75*
G02*
X151310500Y-107094000I200000J0D01*
G01*
X151710500Y-107094000D01*
G75*
G02*
X151910500Y-107294000I0J-200000D01*
G01*
G37*
G36*
G01*
X150198500Y-115970000D02*
X149648500Y-115970000D01*
G75*
G02*
X149448500Y-115770000I0J200000D01*
G01*
X149448500Y-115370000D01*
G75*
G02*
X149648500Y-115170000I200000J0D01*
G01*
X150198500Y-115170000D01*
G75*
G02*
X150398500Y-115370000I0J-200000D01*
G01*
X150398500Y-115770000D01*
G75*
G02*
X150198500Y-115970000I-200000J0D01*
G01*
G37*
G36*
G01*
X150198500Y-117620000D02*
X149648500Y-117620000D01*
G75*
G02*
X149448500Y-117420000I0J200000D01*
G01*
X149448500Y-117020000D01*
G75*
G02*
X149648500Y-116820000I200000J0D01*
G01*
X150198500Y-116820000D01*
G75*
G02*
X150398500Y-117020000I0J-200000D01*
G01*
X150398500Y-117420000D01*
G75*
G02*
X150198500Y-117620000I-200000J0D01*
G01*
G37*
G36*
G01*
X162983500Y-100056500D02*
X163533500Y-100056500D01*
G75*
G02*
X163733500Y-100256500I0J-200000D01*
G01*
X163733500Y-100656500D01*
G75*
G02*
X163533500Y-100856500I-200000J0D01*
G01*
X162983500Y-100856500D01*
G75*
G02*
X162783500Y-100656500I0J200000D01*
G01*
X162783500Y-100256500D01*
G75*
G02*
X162983500Y-100056500I200000J0D01*
G01*
G37*
G36*
G01*
X162983500Y-98406500D02*
X163533500Y-98406500D01*
G75*
G02*
X163733500Y-98606500I0J-200000D01*
G01*
X163733500Y-99006500D01*
G75*
G02*
X163533500Y-99206500I-200000J0D01*
G01*
X162983500Y-99206500D01*
G75*
G02*
X162783500Y-99006500I0J200000D01*
G01*
X162783500Y-98606500D01*
G75*
G02*
X162983500Y-98406500I200000J0D01*
G01*
G37*
G36*
G01*
X166223500Y-112733500D02*
X166223500Y-112183500D01*
G75*
G02*
X166423500Y-111983500I200000J0D01*
G01*
X166823500Y-111983500D01*
G75*
G02*
X167023500Y-112183500I0J-200000D01*
G01*
X167023500Y-112733500D01*
G75*
G02*
X166823500Y-112933500I-200000J0D01*
G01*
X166423500Y-112933500D01*
G75*
G02*
X166223500Y-112733500I0J200000D01*
G01*
G37*
G36*
G01*
X164573500Y-112733500D02*
X164573500Y-112183500D01*
G75*
G02*
X164773500Y-111983500I200000J0D01*
G01*
X165173500Y-111983500D01*
G75*
G02*
X165373500Y-112183500I0J-200000D01*
G01*
X165373500Y-112733500D01*
G75*
G02*
X165173500Y-112933500I-200000J0D01*
G01*
X164773500Y-112933500D01*
G75*
G02*
X164573500Y-112733500I0J200000D01*
G01*
G37*
G36*
G01*
X161905500Y-116416500D02*
X161905500Y-115866500D01*
G75*
G02*
X162105500Y-115666500I200000J0D01*
G01*
X162505500Y-115666500D01*
G75*
G02*
X162705500Y-115866500I0J-200000D01*
G01*
X162705500Y-116416500D01*
G75*
G02*
X162505500Y-116616500I-200000J0D01*
G01*
X162105500Y-116616500D01*
G75*
G02*
X161905500Y-116416500I0J200000D01*
G01*
G37*
G36*
G01*
X160255500Y-116416500D02*
X160255500Y-115866500D01*
G75*
G02*
X160455500Y-115666500I200000J0D01*
G01*
X160855500Y-115666500D01*
G75*
G02*
X161055500Y-115866500I0J-200000D01*
G01*
X161055500Y-116416500D01*
G75*
G02*
X160855500Y-116616500I-200000J0D01*
G01*
X160455500Y-116616500D01*
G75*
G02*
X160255500Y-116416500I0J200000D01*
G01*
G37*
G36*
G01*
X149648500Y-113772500D02*
X150198500Y-113772500D01*
G75*
G02*
X150398500Y-113972500I0J-200000D01*
G01*
X150398500Y-114372500D01*
G75*
G02*
X150198500Y-114572500I-200000J0D01*
G01*
X149648500Y-114572500D01*
G75*
G02*
X149448500Y-114372500I0J200000D01*
G01*
X149448500Y-113972500D01*
G75*
G02*
X149648500Y-113772500I200000J0D01*
G01*
G37*
G36*
G01*
X149648500Y-112122500D02*
X150198500Y-112122500D01*
G75*
G02*
X150398500Y-112322500I0J-200000D01*
G01*
X150398500Y-112722500D01*
G75*
G02*
X150198500Y-112922500I-200000J0D01*
G01*
X149648500Y-112922500D01*
G75*
G02*
X149448500Y-112722500I0J200000D01*
G01*
X149448500Y-112322500D01*
G75*
G02*
X149648500Y-112122500I200000J0D01*
G01*
G37*
G36*
G01*
X154666500Y-112797000D02*
X154666500Y-112247000D01*
G75*
G02*
X154866500Y-112047000I200000J0D01*
G01*
X155266500Y-112047000D01*
G75*
G02*
X155466500Y-112247000I0J-200000D01*
G01*
X155466500Y-112797000D01*
G75*
G02*
X155266500Y-112997000I-200000J0D01*
G01*
X154866500Y-112997000D01*
G75*
G02*
X154666500Y-112797000I0J200000D01*
G01*
G37*
G36*
G01*
X153016500Y-112797000D02*
X153016500Y-112247000D01*
G75*
G02*
X153216500Y-112047000I200000J0D01*
G01*
X153616500Y-112047000D01*
G75*
G02*
X153816500Y-112247000I0J-200000D01*
G01*
X153816500Y-112797000D01*
G75*
G02*
X153616500Y-112997000I-200000J0D01*
G01*
X153216500Y-112997000D01*
G75*
G02*
X153016500Y-112797000I0J200000D01*
G01*
G37*
G36*
G01*
X160282300Y-108287000D02*
X159732300Y-108287000D01*
G75*
G02*
X159532300Y-108087000I0J200000D01*
G01*
X159532300Y-107687000D01*
G75*
G02*
X159732300Y-107487000I200000J0D01*
G01*
X160282300Y-107487000D01*
G75*
G02*
X160482300Y-107687000I0J-200000D01*
G01*
X160482300Y-108087000D01*
G75*
G02*
X160282300Y-108287000I-200000J0D01*
G01*
G37*
G36*
G01*
X160282300Y-109937000D02*
X159732300Y-109937000D01*
G75*
G02*
X159532300Y-109737000I0J200000D01*
G01*
X159532300Y-109337000D01*
G75*
G02*
X159732300Y-109137000I200000J0D01*
G01*
X160282300Y-109137000D01*
G75*
G02*
X160482300Y-109337000I0J-200000D01*
G01*
X160482300Y-109737000D01*
G75*
G02*
X160282300Y-109937000I-200000J0D01*
G01*
G37*
G36*
G01*
X146992100Y-114533000D02*
X146992100Y-115083000D01*
G75*
G02*
X146792100Y-115283000I-200000J0D01*
G01*
X146392100Y-115283000D01*
G75*
G02*
X146192100Y-115083000I0J200000D01*
G01*
X146192100Y-114533000D01*
G75*
G02*
X146392100Y-114333000I200000J0D01*
G01*
X146792100Y-114333000D01*
G75*
G02*
X146992100Y-114533000I0J-200000D01*
G01*
G37*
G36*
G01*
X148642100Y-114533000D02*
X148642100Y-115083000D01*
G75*
G02*
X148442100Y-115283000I-200000J0D01*
G01*
X148042100Y-115283000D01*
G75*
G02*
X147842100Y-115083000I0J200000D01*
G01*
X147842100Y-114533000D01*
G75*
G02*
X148042100Y-114333000I200000J0D01*
G01*
X148442100Y-114333000D01*
G75*
G02*
X148642100Y-114533000I0J-200000D01*
G01*
G37*
G36*
G01*
X158007500Y-114342500D02*
X158007500Y-114892500D01*
G75*
G02*
X157807500Y-115092500I-200000J0D01*
G01*
X157407500Y-115092500D01*
G75*
G02*
X157207500Y-114892500I0J200000D01*
G01*
X157207500Y-114342500D01*
G75*
G02*
X157407500Y-114142500I200000J0D01*
G01*
X157807500Y-114142500D01*
G75*
G02*
X158007500Y-114342500I0J-200000D01*
G01*
G37*
G36*
G01*
X159657500Y-114342500D02*
X159657500Y-114892500D01*
G75*
G02*
X159457500Y-115092500I-200000J0D01*
G01*
X159057500Y-115092500D01*
G75*
G02*
X158857500Y-114892500I0J200000D01*
G01*
X158857500Y-114342500D01*
G75*
G02*
X159057500Y-114142500I200000J0D01*
G01*
X159457500Y-114142500D01*
G75*
G02*
X159657500Y-114342500I0J-200000D01*
G01*
G37*
G36*
G01*
X144760500Y-109876000D02*
X144760500Y-109326000D01*
G75*
G02*
X144960500Y-109126000I200000J0D01*
G01*
X145360500Y-109126000D01*
G75*
G02*
X145560500Y-109326000I0J-200000D01*
G01*
X145560500Y-109876000D01*
G75*
G02*
X145360500Y-110076000I-200000J0D01*
G01*
X144960500Y-110076000D01*
G75*
G02*
X144760500Y-109876000I0J200000D01*
G01*
G37*
G36*
G01*
X143110500Y-109876000D02*
X143110500Y-109326000D01*
G75*
G02*
X143310500Y-109126000I200000J0D01*
G01*
X143710500Y-109126000D01*
G75*
G02*
X143910500Y-109326000I0J-200000D01*
G01*
X143910500Y-109876000D01*
G75*
G02*
X143710500Y-110076000I-200000J0D01*
G01*
X143310500Y-110076000D01*
G75*
G02*
X143110500Y-109876000I0J200000D01*
G01*
G37*
G36*
G01*
X162983500Y-97072000D02*
X163533500Y-97072000D01*
G75*
G02*
X163733500Y-97272000I0J-200000D01*
G01*
X163733500Y-97672000D01*
G75*
G02*
X163533500Y-97872000I-200000J0D01*
G01*
X162983500Y-97872000D01*
G75*
G02*
X162783500Y-97672000I0J200000D01*
G01*
X162783500Y-97272000D01*
G75*
G02*
X162983500Y-97072000I200000J0D01*
G01*
G37*
G36*
G01*
X162983500Y-95422000D02*
X163533500Y-95422000D01*
G75*
G02*
X163733500Y-95622000I0J-200000D01*
G01*
X163733500Y-96022000D01*
G75*
G02*
X163533500Y-96222000I-200000J0D01*
G01*
X162983500Y-96222000D01*
G75*
G02*
X162783500Y-96022000I0J200000D01*
G01*
X162783500Y-95622000D01*
G75*
G02*
X162983500Y-95422000I200000J0D01*
G01*
G37*
G36*
G01*
X161478250Y-102966000D02*
X161990750Y-102966000D01*
G75*
G02*
X162209500Y-103184750I0J-218750D01*
G01*
X162209500Y-103622250D01*
G75*
G02*
X161990750Y-103841000I-218750J0D01*
G01*
X161478250Y-103841000D01*
G75*
G02*
X161259500Y-103622250I0J218750D01*
G01*
X161259500Y-103184750D01*
G75*
G02*
X161478250Y-102966000I218750J0D01*
G01*
G37*
G36*
G01*
X161478250Y-101391000D02*
X161990750Y-101391000D01*
G75*
G02*
X162209500Y-101609750I0J-218750D01*
G01*
X162209500Y-102047250D01*
G75*
G02*
X161990750Y-102266000I-218750J0D01*
G01*
X161478250Y-102266000D01*
G75*
G02*
X161259500Y-102047250I0J218750D01*
G01*
X161259500Y-101609750D01*
G75*
G02*
X161478250Y-101391000I218750J0D01*
G01*
G37*
G36*
G01*
X161478250Y-99985600D02*
X161990750Y-99985600D01*
G75*
G02*
X162209500Y-100204350I0J-218750D01*
G01*
X162209500Y-100641850D01*
G75*
G02*
X161990750Y-100860600I-218750J0D01*
G01*
X161478250Y-100860600D01*
G75*
G02*
X161259500Y-100641850I0J218750D01*
G01*
X161259500Y-100204350D01*
G75*
G02*
X161478250Y-99985600I218750J0D01*
G01*
G37*
G36*
G01*
X161478250Y-98410600D02*
X161990750Y-98410600D01*
G75*
G02*
X162209500Y-98629350I0J-218750D01*
G01*
X162209500Y-99066850D01*
G75*
G02*
X161990750Y-99285600I-218750J0D01*
G01*
X161478250Y-99285600D01*
G75*
G02*
X161259500Y-99066850I0J218750D01*
G01*
X161259500Y-98629350D01*
G75*
G02*
X161478250Y-98410600I218750J0D01*
G01*
G37*
G36*
G01*
X161478250Y-96997000D02*
X161990750Y-96997000D01*
G75*
G02*
X162209500Y-97215750I0J-218750D01*
G01*
X162209500Y-97653250D01*
G75*
G02*
X161990750Y-97872000I-218750J0D01*
G01*
X161478250Y-97872000D01*
G75*
G02*
X161259500Y-97653250I0J218750D01*
G01*
X161259500Y-97215750D01*
G75*
G02*
X161478250Y-96997000I218750J0D01*
G01*
G37*
G36*
G01*
X161478250Y-95422000D02*
X161990750Y-95422000D01*
G75*
G02*
X162209500Y-95640750I0J-218750D01*
G01*
X162209500Y-96078250D01*
G75*
G02*
X161990750Y-96297000I-218750J0D01*
G01*
X161478250Y-96297000D01*
G75*
G02*
X161259500Y-96078250I0J218750D01*
G01*
X161259500Y-95640750D01*
G75*
G02*
X161478250Y-95422000I218750J0D01*
G01*
G37*
G36*
G01*
X144495000Y-103443750D02*
X144495000Y-102931250D01*
G75*
G02*
X144713750Y-102712500I218750J0D01*
G01*
X145151250Y-102712500D01*
G75*
G02*
X145370000Y-102931250I0J-218750D01*
G01*
X145370000Y-103443750D01*
G75*
G02*
X145151250Y-103662500I-218750J0D01*
G01*
X144713750Y-103662500D01*
G75*
G02*
X144495000Y-103443750I0J218750D01*
G01*
G37*
G36*
G01*
X142920000Y-103443750D02*
X142920000Y-102931250D01*
G75*
G02*
X143138750Y-102712500I218750J0D01*
G01*
X143576250Y-102712500D01*
G75*
G02*
X143795000Y-102931250I0J-218750D01*
G01*
X143795000Y-103443750D01*
G75*
G02*
X143576250Y-103662500I-218750J0D01*
G01*
X143138750Y-103662500D01*
G75*
G02*
X142920000Y-103443750I0J218750D01*
G01*
G37*
G36*
G01*
X136713250Y-96108000D02*
X137225750Y-96108000D01*
G75*
G02*
X137444500Y-96326750I0J-218750D01*
G01*
X137444500Y-96764250D01*
G75*
G02*
X137225750Y-96983000I-218750J0D01*
G01*
X136713250Y-96983000D01*
G75*
G02*
X136494500Y-96764250I0J218750D01*
G01*
X136494500Y-96326750D01*
G75*
G02*
X136713250Y-96108000I218750J0D01*
G01*
G37*
G36*
G01*
X136713250Y-94533000D02*
X137225750Y-94533000D01*
G75*
G02*
X137444500Y-94751750I0J-218750D01*
G01*
X137444500Y-95189250D01*
G75*
G02*
X137225750Y-95408000I-218750J0D01*
G01*
X136713250Y-95408000D01*
G75*
G02*
X136494500Y-95189250I0J218750D01*
G01*
X136494500Y-94751750D01*
G75*
G02*
X136713250Y-94533000I218750J0D01*
G01*
G37*
G36*
G01*
X159509750Y-103537500D02*
X160022250Y-103537500D01*
G75*
G02*
X160241000Y-103756250I0J-218750D01*
G01*
X160241000Y-104193750D01*
G75*
G02*
X160022250Y-104412500I-218750J0D01*
G01*
X159509750Y-104412500D01*
G75*
G02*
X159291000Y-104193750I0J218750D01*
G01*
X159291000Y-103756250D01*
G75*
G02*
X159509750Y-103537500I218750J0D01*
G01*
G37*
G36*
G01*
X159509750Y-101962500D02*
X160022250Y-101962500D01*
G75*
G02*
X160241000Y-102181250I0J-218750D01*
G01*
X160241000Y-102618750D01*
G75*
G02*
X160022250Y-102837500I-218750J0D01*
G01*
X159509750Y-102837500D01*
G75*
G02*
X159291000Y-102618750I0J218750D01*
G01*
X159291000Y-102181250D01*
G75*
G02*
X159509750Y-101962500I218750J0D01*
G01*
G37*
G36*
G01*
X151732500Y-93469750D02*
X151732500Y-93982250D01*
G75*
G02*
X151513750Y-94201000I-218750J0D01*
G01*
X151076250Y-94201000D01*
G75*
G02*
X150857500Y-93982250I0J218750D01*
G01*
X150857500Y-93469750D01*
G75*
G02*
X151076250Y-93251000I218750J0D01*
G01*
X151513750Y-93251000D01*
G75*
G02*
X151732500Y-93469750I0J-218750D01*
G01*
G37*
G36*
G01*
X153307500Y-93469750D02*
X153307500Y-93982250D01*
G75*
G02*
X153088750Y-94201000I-218750J0D01*
G01*
X152651250Y-94201000D01*
G75*
G02*
X152432500Y-93982250I0J218750D01*
G01*
X152432500Y-93469750D01*
G75*
G02*
X152651250Y-93251000I218750J0D01*
G01*
X153088750Y-93251000D01*
G75*
G02*
X153307500Y-93469750I0J-218750D01*
G01*
G37*
G36*
G01*
X167828250Y-112046500D02*
X168340750Y-112046500D01*
G75*
G02*
X168559500Y-112265250I0J-218750D01*
G01*
X168559500Y-112702750D01*
G75*
G02*
X168340750Y-112921500I-218750J0D01*
G01*
X167828250Y-112921500D01*
G75*
G02*
X167609500Y-112702750I0J218750D01*
G01*
X167609500Y-112265250D01*
G75*
G02*
X167828250Y-112046500I218750J0D01*
G01*
G37*
G36*
G01*
X167828250Y-110471500D02*
X168340750Y-110471500D01*
G75*
G02*
X168559500Y-110690250I0J-218750D01*
G01*
X168559500Y-111127750D01*
G75*
G02*
X168340750Y-111346500I-218750J0D01*
G01*
X167828250Y-111346500D01*
G75*
G02*
X167609500Y-111127750I0J218750D01*
G01*
X167609500Y-110690250D01*
G75*
G02*
X167828250Y-110471500I218750J0D01*
G01*
G37*
G36*
G01*
X158782500Y-116397750D02*
X158782500Y-115885250D01*
G75*
G02*
X159001250Y-115666500I218750J0D01*
G01*
X159438750Y-115666500D01*
G75*
G02*
X159657500Y-115885250I0J-218750D01*
G01*
X159657500Y-116397750D01*
G75*
G02*
X159438750Y-116616500I-218750J0D01*
G01*
X159001250Y-116616500D01*
G75*
G02*
X158782500Y-116397750I0J218750D01*
G01*
G37*
G36*
G01*
X157207500Y-116397750D02*
X157207500Y-115885250D01*
G75*
G02*
X157426250Y-115666500I218750J0D01*
G01*
X157863750Y-115666500D01*
G75*
G02*
X158082500Y-115885250I0J-218750D01*
G01*
X158082500Y-116397750D01*
G75*
G02*
X157863750Y-116616500I-218750J0D01*
G01*
X157426250Y-116616500D01*
G75*
G02*
X157207500Y-116397750I0J218750D01*
G01*
G37*
G36*
G01*
X163607000Y-106741250D02*
X163607000Y-107253750D01*
G75*
G02*
X163388250Y-107472500I-218750J0D01*
G01*
X162950750Y-107472500D01*
G75*
G02*
X162732000Y-107253750I0J218750D01*
G01*
X162732000Y-106741250D01*
G75*
G02*
X162950750Y-106522500I218750J0D01*
G01*
X163388250Y-106522500D01*
G75*
G02*
X163607000Y-106741250I0J-218750D01*
G01*
G37*
G36*
G01*
X165182000Y-106741250D02*
X165182000Y-107253750D01*
G75*
G02*
X164963250Y-107472500I-218750J0D01*
G01*
X164525750Y-107472500D01*
G75*
G02*
X164307000Y-107253750I0J218750D01*
G01*
X164307000Y-106741250D01*
G75*
G02*
X164525750Y-106522500I218750J0D01*
G01*
X164963250Y-106522500D01*
G75*
G02*
X165182000Y-106741250I0J-218750D01*
G01*
G37*
G36*
G01*
X131985500Y-104904250D02*
X131985500Y-104391750D01*
G75*
G02*
X132204250Y-104173000I218750J0D01*
G01*
X132641750Y-104173000D01*
G75*
G02*
X132860500Y-104391750I0J-218750D01*
G01*
X132860500Y-104904250D01*
G75*
G02*
X132641750Y-105123000I-218750J0D01*
G01*
X132204250Y-105123000D01*
G75*
G02*
X131985500Y-104904250I0J218750D01*
G01*
G37*
G36*
G01*
X130410500Y-104904250D02*
X130410500Y-104391750D01*
G75*
G02*
X130629250Y-104173000I218750J0D01*
G01*
X131066750Y-104173000D01*
G75*
G02*
X131285500Y-104391750I0J-218750D01*
G01*
X131285500Y-104904250D01*
G75*
G02*
X131066750Y-105123000I-218750J0D01*
G01*
X130629250Y-105123000D01*
G75*
G02*
X130410500Y-104904250I0J218750D01*
G01*
G37*
G36*
G01*
X134333500Y-96263750D02*
X134333500Y-96776250D01*
G75*
G02*
X134114750Y-96995000I-218750J0D01*
G01*
X133677250Y-96995000D01*
G75*
G02*
X133458500Y-96776250I0J218750D01*
G01*
X133458500Y-96263750D01*
G75*
G02*
X133677250Y-96045000I218750J0D01*
G01*
X134114750Y-96045000D01*
G75*
G02*
X134333500Y-96263750I0J-218750D01*
G01*
G37*
G36*
G01*
X135908500Y-96263750D02*
X135908500Y-96776250D01*
G75*
G02*
X135689750Y-96995000I-218750J0D01*
G01*
X135252250Y-96995000D01*
G75*
G02*
X135033500Y-96776250I0J218750D01*
G01*
X135033500Y-96263750D01*
G75*
G02*
X135252250Y-96045000I218750J0D01*
G01*
X135689750Y-96045000D01*
G75*
G02*
X135908500Y-96263750I0J-218750D01*
G01*
G37*
G36*
G01*
X144749000Y-116588250D02*
X144749000Y-116075750D01*
G75*
G02*
X144967750Y-115857000I218750J0D01*
G01*
X145405250Y-115857000D01*
G75*
G02*
X145624000Y-116075750I0J-218750D01*
G01*
X145624000Y-116588250D01*
G75*
G02*
X145405250Y-116807000I-218750J0D01*
G01*
X144967750Y-116807000D01*
G75*
G02*
X144749000Y-116588250I0J218750D01*
G01*
G37*
G36*
G01*
X143174000Y-116588250D02*
X143174000Y-116075750D01*
G75*
G02*
X143392750Y-115857000I218750J0D01*
G01*
X143830250Y-115857000D01*
G75*
G02*
X144049000Y-116075750I0J-218750D01*
G01*
X144049000Y-116588250D01*
G75*
G02*
X143830250Y-116807000I-218750J0D01*
G01*
X143392750Y-116807000D01*
G75*
G02*
X143174000Y-116588250I0J218750D01*
G01*
G37*
G36*
G01*
X144841250Y-106141000D02*
X145353750Y-106141000D01*
G75*
G02*
X145572500Y-106359750I0J-218750D01*
G01*
X145572500Y-106797250D01*
G75*
G02*
X145353750Y-107016000I-218750J0D01*
G01*
X144841250Y-107016000D01*
G75*
G02*
X144622500Y-106797250I0J218750D01*
G01*
X144622500Y-106359750D01*
G75*
G02*
X144841250Y-106141000I218750J0D01*
G01*
G37*
G36*
G01*
X144841250Y-104566000D02*
X145353750Y-104566000D01*
G75*
G02*
X145572500Y-104784750I0J-218750D01*
G01*
X145572500Y-105222250D01*
G75*
G02*
X145353750Y-105441000I-218750J0D01*
G01*
X144841250Y-105441000D01*
G75*
G02*
X144622500Y-105222250I0J218750D01*
G01*
X144622500Y-104784750D01*
G75*
G02*
X144841250Y-104566000I218750J0D01*
G01*
G37*
G36*
G01*
X128047000Y-115186750D02*
X128047000Y-115699250D01*
G75*
G02*
X127828250Y-115918000I-218750J0D01*
G01*
X127390750Y-115918000D01*
G75*
G02*
X127172000Y-115699250I0J218750D01*
G01*
X127172000Y-115186750D01*
G75*
G02*
X127390750Y-114968000I218750J0D01*
G01*
X127828250Y-114968000D01*
G75*
G02*
X128047000Y-115186750I0J-218750D01*
G01*
G37*
G36*
G01*
X129622000Y-115186750D02*
X129622000Y-115699250D01*
G75*
G02*
X129403250Y-115918000I-218750J0D01*
G01*
X128965750Y-115918000D01*
G75*
G02*
X128747000Y-115699250I0J218750D01*
G01*
X128747000Y-115186750D01*
G75*
G02*
X128965750Y-114968000I218750J0D01*
G01*
X129403250Y-114968000D01*
G75*
G02*
X129622000Y-115186750I0J-218750D01*
G01*
G37*
G36*
G01*
X137191000Y-107566750D02*
X137191000Y-108079250D01*
G75*
G02*
X136972250Y-108298000I-218750J0D01*
G01*
X136534750Y-108298000D01*
G75*
G02*
X136316000Y-108079250I0J218750D01*
G01*
X136316000Y-107566750D01*
G75*
G02*
X136534750Y-107348000I218750J0D01*
G01*
X136972250Y-107348000D01*
G75*
G02*
X137191000Y-107566750I0J-218750D01*
G01*
G37*
G36*
G01*
X138766000Y-107566750D02*
X138766000Y-108079250D01*
G75*
G02*
X138547250Y-108298000I-218750J0D01*
G01*
X138109750Y-108298000D01*
G75*
G02*
X137891000Y-108079250I0J218750D01*
G01*
X137891000Y-107566750D01*
G75*
G02*
X138109750Y-107348000I218750J0D01*
G01*
X138547250Y-107348000D01*
G75*
G02*
X138766000Y-107566750I0J-218750D01*
G01*
G37*
D18*
X176128000Y-112649000D03*
D19*
X176128000Y-109879000D03*
X176128000Y-115419000D03*
D20*
X126111000Y-120502000D03*
D21*
X128881000Y-120502000D03*
X123341000Y-120502000D03*
D18*
X118110000Y-112649000D03*
D19*
X118110000Y-115419000D03*
X118110000Y-109879000D03*
D22*
X153670000Y-107535000D03*
X153670000Y-109635000D03*
X151701500Y-111032000D03*
X151701500Y-108932000D03*
X151701500Y-112170500D03*
X151701500Y-114270500D03*
D23*
X146460500Y-107823000D03*
X148560500Y-107823000D03*
D22*
X163322000Y-110519500D03*
X163322000Y-112619500D03*
D23*
X156557000Y-107315000D03*
X158657000Y-107315000D03*
X158657000Y-109283500D03*
X156557000Y-109283500D03*
G36*
G01*
X140835500Y-108144500D02*
X140835500Y-108644500D01*
G75*
G02*
X140610500Y-108869500I-225000J0D01*
G01*
X140160500Y-108869500D01*
G75*
G02*
X139935500Y-108644500I0J225000D01*
G01*
X139935500Y-108144500D01*
G75*
G02*
X140160500Y-107919500I225000J0D01*
G01*
X140610500Y-107919500D01*
G75*
G02*
X140835500Y-108144500I0J-225000D01*
G01*
G37*
G36*
G01*
X142385500Y-108144500D02*
X142385500Y-108644500D01*
G75*
G02*
X142160500Y-108869500I-225000J0D01*
G01*
X141710500Y-108869500D01*
G75*
G02*
X141485500Y-108644500I0J225000D01*
G01*
X141485500Y-108144500D01*
G75*
G02*
X141710500Y-107919500I225000J0D01*
G01*
X142160500Y-107919500D01*
G75*
G02*
X142385500Y-108144500I0J-225000D01*
G01*
G37*
G36*
G01*
X142172500Y-113403500D02*
X141672500Y-113403500D01*
G75*
G02*
X141447500Y-113178500I0J225000D01*
G01*
X141447500Y-112728500D01*
G75*
G02*
X141672500Y-112503500I225000J0D01*
G01*
X142172500Y-112503500D01*
G75*
G02*
X142397500Y-112728500I0J-225000D01*
G01*
X142397500Y-113178500D01*
G75*
G02*
X142172500Y-113403500I-225000J0D01*
G01*
G37*
G36*
G01*
X142172500Y-114953500D02*
X141672500Y-114953500D01*
G75*
G02*
X141447500Y-114728500I0J225000D01*
G01*
X141447500Y-114278500D01*
G75*
G02*
X141672500Y-114053500I225000J0D01*
G01*
X142172500Y-114053500D01*
G75*
G02*
X142397500Y-114278500I0J-225000D01*
G01*
X142397500Y-114728500D01*
G75*
G02*
X142172500Y-114953500I-225000J0D01*
G01*
G37*
G36*
G01*
X144443001Y-94346000D02*
X143592999Y-94346000D01*
G75*
G02*
X143343000Y-94096001I0J249999D01*
G01*
X143343000Y-93195999D01*
G75*
G02*
X143592999Y-92946000I249999J0D01*
G01*
X144443001Y-92946000D01*
G75*
G02*
X144693000Y-93195999I0J-249999D01*
G01*
X144693000Y-94096001D01*
G75*
G02*
X144443001Y-94346000I-249999J0D01*
G01*
G37*
G36*
G01*
X144443001Y-97046000D02*
X143592999Y-97046000D01*
G75*
G02*
X143343000Y-96796001I0J249999D01*
G01*
X143343000Y-95895999D01*
G75*
G02*
X143592999Y-95646000I249999J0D01*
G01*
X144443001Y-95646000D01*
G75*
G02*
X144693000Y-95895999I0J-249999D01*
G01*
X144693000Y-96796001D01*
G75*
G02*
X144443001Y-97046000I-249999J0D01*
G01*
G37*
G36*
G01*
X141089500Y-94809500D02*
X141089500Y-95309500D01*
G75*
G02*
X140864500Y-95534500I-225000J0D01*
G01*
X140414500Y-95534500D01*
G75*
G02*
X140189500Y-95309500I0J225000D01*
G01*
X140189500Y-94809500D01*
G75*
G02*
X140414500Y-94584500I225000J0D01*
G01*
X140864500Y-94584500D01*
G75*
G02*
X141089500Y-94809500I0J-225000D01*
G01*
G37*
G36*
G01*
X142639500Y-94809500D02*
X142639500Y-95309500D01*
G75*
G02*
X142414500Y-95534500I-225000J0D01*
G01*
X141964500Y-95534500D01*
G75*
G02*
X141739500Y-95309500I0J225000D01*
G01*
X141739500Y-94809500D01*
G75*
G02*
X141964500Y-94584500I225000J0D01*
G01*
X142414500Y-94584500D01*
G75*
G02*
X142639500Y-94809500I0J-225000D01*
G01*
G37*
G36*
G01*
X137873500Y-103549001D02*
X137873500Y-102698999D01*
G75*
G02*
X138123499Y-102449000I249999J0D01*
G01*
X139023501Y-102449000D01*
G75*
G02*
X139273500Y-102698999I0J-249999D01*
G01*
X139273500Y-103549001D01*
G75*
G02*
X139023501Y-103799000I-249999J0D01*
G01*
X138123499Y-103799000D01*
G75*
G02*
X137873500Y-103549001I0J249999D01*
G01*
G37*
G36*
G01*
X135173500Y-103549001D02*
X135173500Y-102698999D01*
G75*
G02*
X135423499Y-102449000I249999J0D01*
G01*
X136323501Y-102449000D01*
G75*
G02*
X136573500Y-102698999I0J-249999D01*
G01*
X136573500Y-103549001D01*
G75*
G02*
X136323501Y-103799000I-249999J0D01*
G01*
X135423499Y-103799000D01*
G75*
G02*
X135173500Y-103549001I0J249999D01*
G01*
G37*
G36*
G01*
X139236001Y-95853500D02*
X138385999Y-95853500D01*
G75*
G02*
X138136000Y-95603501I0J249999D01*
G01*
X138136000Y-94703499D01*
G75*
G02*
X138385999Y-94453500I249999J0D01*
G01*
X139236001Y-94453500D01*
G75*
G02*
X139486000Y-94703499I0J-249999D01*
G01*
X139486000Y-95603501D01*
G75*
G02*
X139236001Y-95853500I-249999J0D01*
G01*
G37*
G36*
G01*
X139236001Y-98553500D02*
X138385999Y-98553500D01*
G75*
G02*
X138136000Y-98303501I0J249999D01*
G01*
X138136000Y-97403499D01*
G75*
G02*
X138385999Y-97153500I249999J0D01*
G01*
X139236001Y-97153500D01*
G75*
G02*
X139486000Y-97403499I0J-249999D01*
G01*
X139486000Y-98303501D01*
G75*
G02*
X139236001Y-98553500I-249999J0D01*
G01*
G37*
G36*
G01*
X141358500Y-103437500D02*
X141358500Y-102937500D01*
G75*
G02*
X141583500Y-102712500I225000J0D01*
G01*
X142033500Y-102712500D01*
G75*
G02*
X142258500Y-102937500I0J-225000D01*
G01*
X142258500Y-103437500D01*
G75*
G02*
X142033500Y-103662500I-225000J0D01*
G01*
X141583500Y-103662500D01*
G75*
G02*
X141358500Y-103437500I0J225000D01*
G01*
G37*
G36*
G01*
X139808500Y-103437500D02*
X139808500Y-102937500D01*
G75*
G02*
X140033500Y-102712500I225000J0D01*
G01*
X140483500Y-102712500D01*
G75*
G02*
X140708500Y-102937500I0J-225000D01*
G01*
X140708500Y-103437500D01*
G75*
G02*
X140483500Y-103662500I-225000J0D01*
G01*
X140033500Y-103662500D01*
G75*
G02*
X139808500Y-103437500I0J225000D01*
G01*
G37*
G36*
G01*
X140402500Y-97670500D02*
X140902500Y-97670500D01*
G75*
G02*
X141127500Y-97895500I0J-225000D01*
G01*
X141127500Y-98345500D01*
G75*
G02*
X140902500Y-98570500I-225000J0D01*
G01*
X140402500Y-98570500D01*
G75*
G02*
X140177500Y-98345500I0J225000D01*
G01*
X140177500Y-97895500D01*
G75*
G02*
X140402500Y-97670500I225000J0D01*
G01*
G37*
G36*
G01*
X140402500Y-96120500D02*
X140902500Y-96120500D01*
G75*
G02*
X141127500Y-96345500I0J-225000D01*
G01*
X141127500Y-96795500D01*
G75*
G02*
X140902500Y-97020500I-225000J0D01*
G01*
X140402500Y-97020500D01*
G75*
G02*
X140177500Y-96795500I0J225000D01*
G01*
X140177500Y-96345500D01*
G75*
G02*
X140402500Y-96120500I225000J0D01*
G01*
G37*
G36*
G01*
X134168000Y-108589000D02*
X134168000Y-109089000D01*
G75*
G02*
X133943000Y-109314000I-225000J0D01*
G01*
X133493000Y-109314000D01*
G75*
G02*
X133268000Y-109089000I0J225000D01*
G01*
X133268000Y-108589000D01*
G75*
G02*
X133493000Y-108364000I225000J0D01*
G01*
X133943000Y-108364000D01*
G75*
G02*
X134168000Y-108589000I0J-225000D01*
G01*
G37*
G36*
G01*
X135718000Y-108589000D02*
X135718000Y-109089000D01*
G75*
G02*
X135493000Y-109314000I-225000J0D01*
G01*
X135043000Y-109314000D01*
G75*
G02*
X134818000Y-109089000I0J225000D01*
G01*
X134818000Y-108589000D01*
G75*
G02*
X135043000Y-108364000I225000J0D01*
G01*
X135493000Y-108364000D01*
G75*
G02*
X135718000Y-108589000I0J-225000D01*
G01*
G37*
G36*
G01*
X159277499Y-99964000D02*
X160127501Y-99964000D01*
G75*
G02*
X160377500Y-100213999I0J-249999D01*
G01*
X160377500Y-101114001D01*
G75*
G02*
X160127501Y-101364000I-249999J0D01*
G01*
X159277499Y-101364000D01*
G75*
G02*
X159027500Y-101114001I0J249999D01*
G01*
X159027500Y-100213999D01*
G75*
G02*
X159277499Y-99964000I249999J0D01*
G01*
G37*
G36*
G01*
X159277499Y-97264000D02*
X160127501Y-97264000D01*
G75*
G02*
X160377500Y-97513999I0J-249999D01*
G01*
X160377500Y-98414001D01*
G75*
G02*
X160127501Y-98664000I-249999J0D01*
G01*
X159277499Y-98664000D01*
G75*
G02*
X159027500Y-98414001I0J249999D01*
G01*
X159027500Y-97513999D01*
G75*
G02*
X159277499Y-97264000I249999J0D01*
G01*
G37*
G36*
G01*
X153558000Y-95992501D02*
X153558000Y-95142499D01*
G75*
G02*
X153807999Y-94892500I249999J0D01*
G01*
X154708001Y-94892500D01*
G75*
G02*
X154958000Y-95142499I0J-249999D01*
G01*
X154958000Y-95992501D01*
G75*
G02*
X154708001Y-96242500I-249999J0D01*
G01*
X153807999Y-96242500D01*
G75*
G02*
X153558000Y-95992501I0J249999D01*
G01*
G37*
G36*
G01*
X150858000Y-95992501D02*
X150858000Y-95142499D01*
G75*
G02*
X151107999Y-94892500I249999J0D01*
G01*
X152008001Y-94892500D01*
G75*
G02*
X152258000Y-95142499I0J-249999D01*
G01*
X152258000Y-95992501D01*
G75*
G02*
X152008001Y-96242500I-249999J0D01*
G01*
X151107999Y-96242500D01*
G75*
G02*
X150858000Y-95992501I0J249999D01*
G01*
G37*
G36*
G01*
X137216000Y-113669000D02*
X137216000Y-114169000D01*
G75*
G02*
X136991000Y-114394000I-225000J0D01*
G01*
X136541000Y-114394000D01*
G75*
G02*
X136316000Y-114169000I0J225000D01*
G01*
X136316000Y-113669000D01*
G75*
G02*
X136541000Y-113444000I225000J0D01*
G01*
X136991000Y-113444000D01*
G75*
G02*
X137216000Y-113669000I0J-225000D01*
G01*
G37*
G36*
G01*
X138766000Y-113669000D02*
X138766000Y-114169000D01*
G75*
G02*
X138541000Y-114394000I-225000J0D01*
G01*
X138091000Y-114394000D01*
G75*
G02*
X137866000Y-114169000I0J225000D01*
G01*
X137866000Y-113669000D01*
G75*
G02*
X138091000Y-113444000I225000J0D01*
G01*
X138541000Y-113444000D01*
G75*
G02*
X138766000Y-113669000I0J-225000D01*
G01*
G37*
G36*
G01*
X158111000Y-99878000D02*
X157611000Y-99878000D01*
G75*
G02*
X157386000Y-99653000I0J225000D01*
G01*
X157386000Y-99203000D01*
G75*
G02*
X157611000Y-98978000I225000J0D01*
G01*
X158111000Y-98978000D01*
G75*
G02*
X158336000Y-99203000I0J-225000D01*
G01*
X158336000Y-99653000D01*
G75*
G02*
X158111000Y-99878000I-225000J0D01*
G01*
G37*
G36*
G01*
X158111000Y-101428000D02*
X157611000Y-101428000D01*
G75*
G02*
X157386000Y-101203000I0J225000D01*
G01*
X157386000Y-100753000D01*
G75*
G02*
X157611000Y-100528000I225000J0D01*
G01*
X158111000Y-100528000D01*
G75*
G02*
X158336000Y-100753000I0J-225000D01*
G01*
X158336000Y-101203000D01*
G75*
G02*
X158111000Y-101428000I-225000J0D01*
G01*
G37*
G36*
G01*
X152407500Y-97659000D02*
X152407500Y-97159000D01*
G75*
G02*
X152632500Y-96934000I225000J0D01*
G01*
X153082500Y-96934000D01*
G75*
G02*
X153307500Y-97159000I0J-225000D01*
G01*
X153307500Y-97659000D01*
G75*
G02*
X153082500Y-97884000I-225000J0D01*
G01*
X152632500Y-97884000D01*
G75*
G02*
X152407500Y-97659000I0J225000D01*
G01*
G37*
G36*
G01*
X150857500Y-97659000D02*
X150857500Y-97159000D01*
G75*
G02*
X151082500Y-96934000I225000J0D01*
G01*
X151532500Y-96934000D01*
G75*
G02*
X151757500Y-97159000I0J-225000D01*
G01*
X151757500Y-97659000D01*
G75*
G02*
X151532500Y-97884000I-225000J0D01*
G01*
X151082500Y-97884000D01*
G75*
G02*
X150857500Y-97659000I0J225000D01*
G01*
G37*
G36*
G01*
X132707500Y-97794000D02*
X132707500Y-98294000D01*
G75*
G02*
X132482500Y-98519000I-225000J0D01*
G01*
X132032500Y-98519000D01*
G75*
G02*
X131807500Y-98294000I0J225000D01*
G01*
X131807500Y-97794000D01*
G75*
G02*
X132032500Y-97569000I225000J0D01*
G01*
X132482500Y-97569000D01*
G75*
G02*
X132707500Y-97794000I0J-225000D01*
G01*
G37*
G36*
G01*
X134257500Y-97794000D02*
X134257500Y-98294000D01*
G75*
G02*
X134032500Y-98519000I-225000J0D01*
G01*
X133582500Y-98519000D01*
G75*
G02*
X133357500Y-98294000I0J225000D01*
G01*
X133357500Y-97794000D01*
G75*
G02*
X133582500Y-97569000I225000J0D01*
G01*
X134032500Y-97569000D01*
G75*
G02*
X134257500Y-97794000I0J-225000D01*
G01*
G37*
G36*
G01*
X167595999Y-116220000D02*
X168446001Y-116220000D01*
G75*
G02*
X168696000Y-116469999I0J-249999D01*
G01*
X168696000Y-117370001D01*
G75*
G02*
X168446001Y-117620000I-249999J0D01*
G01*
X167595999Y-117620000D01*
G75*
G02*
X167346000Y-117370001I0J249999D01*
G01*
X167346000Y-116469999D01*
G75*
G02*
X167595999Y-116220000I249999J0D01*
G01*
G37*
G36*
G01*
X167595999Y-113520000D02*
X168446001Y-113520000D01*
G75*
G02*
X168696000Y-113769999I0J-249999D01*
G01*
X168696000Y-114670001D01*
G75*
G02*
X168446001Y-114920000I-249999J0D01*
G01*
X167595999Y-114920000D01*
G75*
G02*
X167346000Y-114670001I0J249999D01*
G01*
X167346000Y-113769999D01*
G75*
G02*
X167595999Y-113520000I249999J0D01*
G01*
G37*
G36*
G01*
X166123500Y-111184500D02*
X166123500Y-110684500D01*
G75*
G02*
X166348500Y-110459500I225000J0D01*
G01*
X166798500Y-110459500D01*
G75*
G02*
X167023500Y-110684500I0J-225000D01*
G01*
X167023500Y-111184500D01*
G75*
G02*
X166798500Y-111409500I-225000J0D01*
G01*
X166348500Y-111409500D01*
G75*
G02*
X166123500Y-111184500I0J225000D01*
G01*
G37*
G36*
G01*
X164573500Y-111184500D02*
X164573500Y-110684500D01*
G75*
G02*
X164798500Y-110459500I225000J0D01*
G01*
X165248500Y-110459500D01*
G75*
G02*
X165473500Y-110684500I0J-225000D01*
G01*
X165473500Y-111184500D01*
G75*
G02*
X165248500Y-111409500I-225000J0D01*
G01*
X164798500Y-111409500D01*
G75*
G02*
X164573500Y-111184500I0J225000D01*
G01*
G37*
G36*
G01*
X155209000Y-116376001D02*
X155209000Y-115525999D01*
G75*
G02*
X155458999Y-115276000I249999J0D01*
G01*
X156359001Y-115276000D01*
G75*
G02*
X156609000Y-115525999I0J-249999D01*
G01*
X156609000Y-116376001D01*
G75*
G02*
X156359001Y-116626000I-249999J0D01*
G01*
X155458999Y-116626000D01*
G75*
G02*
X155209000Y-116376001I0J249999D01*
G01*
G37*
G36*
G01*
X152509000Y-116376001D02*
X152509000Y-115525999D01*
G75*
G02*
X152758999Y-115276000I249999J0D01*
G01*
X153659001Y-115276000D01*
G75*
G02*
X153909000Y-115525999I0J-249999D01*
G01*
X153909000Y-116376001D01*
G75*
G02*
X153659001Y-116626000I-249999J0D01*
G01*
X152758999Y-116626000D01*
G75*
G02*
X152509000Y-116376001I0J249999D01*
G01*
G37*
G36*
G01*
X165432500Y-109264001D02*
X165432500Y-108413999D01*
G75*
G02*
X165682499Y-108164000I249999J0D01*
G01*
X166582501Y-108164000D01*
G75*
G02*
X166832500Y-108413999I0J-249999D01*
G01*
X166832500Y-109264001D01*
G75*
G02*
X166582501Y-109514000I-249999J0D01*
G01*
X165682499Y-109514000D01*
G75*
G02*
X165432500Y-109264001I0J249999D01*
G01*
G37*
G36*
G01*
X162732500Y-109264001D02*
X162732500Y-108413999D01*
G75*
G02*
X162982499Y-108164000I249999J0D01*
G01*
X163882501Y-108164000D01*
G75*
G02*
X164132500Y-108413999I0J-249999D01*
G01*
X164132500Y-109264001D01*
G75*
G02*
X163882501Y-109514000I-249999J0D01*
G01*
X162982499Y-109514000D01*
G75*
G02*
X162732500Y-109264001I0J249999D01*
G01*
G37*
G36*
G01*
X153916500Y-113859500D02*
X153916500Y-114359500D01*
G75*
G02*
X153691500Y-114584500I-225000J0D01*
G01*
X153241500Y-114584500D01*
G75*
G02*
X153016500Y-114359500I0J225000D01*
G01*
X153016500Y-113859500D01*
G75*
G02*
X153241500Y-113634500I225000J0D01*
G01*
X153691500Y-113634500D01*
G75*
G02*
X153916500Y-113859500I0J-225000D01*
G01*
G37*
G36*
G01*
X155466500Y-113859500D02*
X155466500Y-114359500D01*
G75*
G02*
X155241500Y-114584500I-225000J0D01*
G01*
X154791500Y-114584500D01*
G75*
G02*
X154566500Y-114359500I0J225000D01*
G01*
X154566500Y-113859500D01*
G75*
G02*
X154791500Y-113634500I225000J0D01*
G01*
X155241500Y-113634500D01*
G75*
G02*
X155466500Y-113859500I0J-225000D01*
G01*
G37*
G36*
G01*
X161294000Y-109037000D02*
X161794000Y-109037000D01*
G75*
G02*
X162019000Y-109262000I0J-225000D01*
G01*
X162019000Y-109712000D01*
G75*
G02*
X161794000Y-109937000I-225000J0D01*
G01*
X161294000Y-109937000D01*
G75*
G02*
X161069000Y-109712000I0J225000D01*
G01*
X161069000Y-109262000D01*
G75*
G02*
X161294000Y-109037000I225000J0D01*
G01*
G37*
G36*
G01*
X161294000Y-107487000D02*
X161794000Y-107487000D01*
G75*
G02*
X162019000Y-107712000I0J-225000D01*
G01*
X162019000Y-108162000D01*
G75*
G02*
X161794000Y-108387000I-225000J0D01*
G01*
X161294000Y-108387000D01*
G75*
G02*
X161069000Y-108162000I0J225000D01*
G01*
X161069000Y-107712000D01*
G75*
G02*
X161294000Y-107487000I225000J0D01*
G01*
G37*
G36*
G01*
X128412000Y-105390501D02*
X128412000Y-104540499D01*
G75*
G02*
X128661999Y-104290500I249999J0D01*
G01*
X129562001Y-104290500D01*
G75*
G02*
X129812000Y-104540499I0J-249999D01*
G01*
X129812000Y-105390501D01*
G75*
G02*
X129562001Y-105640500I-249999J0D01*
G01*
X128661999Y-105640500D01*
G75*
G02*
X128412000Y-105390501I0J249999D01*
G01*
G37*
G36*
G01*
X125712000Y-105390501D02*
X125712000Y-104540499D01*
G75*
G02*
X125961999Y-104290500I249999J0D01*
G01*
X126862001Y-104290500D01*
G75*
G02*
X127112000Y-104540499I0J-249999D01*
G01*
X127112000Y-105390501D01*
G75*
G02*
X126862001Y-105640500I-249999J0D01*
G01*
X125961999Y-105640500D01*
G75*
G02*
X125712000Y-105390501I0J249999D01*
G01*
G37*
G36*
G01*
X130160000Y-95777499D02*
X130160000Y-96627501D01*
G75*
G02*
X129910001Y-96877500I-249999J0D01*
G01*
X129009999Y-96877500D01*
G75*
G02*
X128760000Y-96627501I0J249999D01*
G01*
X128760000Y-95777499D01*
G75*
G02*
X129009999Y-95527500I249999J0D01*
G01*
X129910001Y-95527500D01*
G75*
G02*
X130160000Y-95777499I0J-249999D01*
G01*
G37*
G36*
G01*
X132860000Y-95777499D02*
X132860000Y-96627501D01*
G75*
G02*
X132610001Y-96877500I-249999J0D01*
G01*
X131709999Y-96877500D01*
G75*
G02*
X131460000Y-96627501I0J249999D01*
G01*
X131460000Y-95777499D01*
G75*
G02*
X131709999Y-95527500I249999J0D01*
G01*
X132610001Y-95527500D01*
G75*
G02*
X132860000Y-95777499I0J-249999D01*
G01*
G37*
G36*
G01*
X125861000Y-110434000D02*
X126361000Y-110434000D01*
G75*
G02*
X126586000Y-110659000I0J-225000D01*
G01*
X126586000Y-111109000D01*
G75*
G02*
X126361000Y-111334000I-225000J0D01*
G01*
X125861000Y-111334000D01*
G75*
G02*
X125636000Y-111109000I0J225000D01*
G01*
X125636000Y-110659000D01*
G75*
G02*
X125861000Y-110434000I225000J0D01*
G01*
G37*
G36*
G01*
X125861000Y-108884000D02*
X126361000Y-108884000D01*
G75*
G02*
X126586000Y-109109000I0J-225000D01*
G01*
X126586000Y-109559000D01*
G75*
G02*
X126361000Y-109784000I-225000J0D01*
G01*
X125861000Y-109784000D01*
G75*
G02*
X125636000Y-109559000I0J225000D01*
G01*
X125636000Y-109109000D01*
G75*
G02*
X125861000Y-108884000I225000J0D01*
G01*
G37*
G36*
G01*
X130309500Y-103374000D02*
X130309500Y-102874000D01*
G75*
G02*
X130534500Y-102649000I225000J0D01*
G01*
X130984500Y-102649000D01*
G75*
G02*
X131209500Y-102874000I0J-225000D01*
G01*
X131209500Y-103374000D01*
G75*
G02*
X130984500Y-103599000I-225000J0D01*
G01*
X130534500Y-103599000D01*
G75*
G02*
X130309500Y-103374000I0J225000D01*
G01*
G37*
G36*
G01*
X128759500Y-103374000D02*
X128759500Y-102874000D01*
G75*
G02*
X128984500Y-102649000I225000J0D01*
G01*
X129434500Y-102649000D01*
G75*
G02*
X129659500Y-102874000I0J-225000D01*
G01*
X129659500Y-103374000D01*
G75*
G02*
X129434500Y-103599000I-225000J0D01*
G01*
X128984500Y-103599000D01*
G75*
G02*
X128759500Y-103374000I0J225000D01*
G01*
G37*
G36*
G01*
X135755500Y-97794000D02*
X135755500Y-98294000D01*
G75*
G02*
X135530500Y-98519000I-225000J0D01*
G01*
X135080500Y-98519000D01*
G75*
G02*
X134855500Y-98294000I0J225000D01*
G01*
X134855500Y-97794000D01*
G75*
G02*
X135080500Y-97569000I225000J0D01*
G01*
X135530500Y-97569000D01*
G75*
G02*
X135755500Y-97794000I0J-225000D01*
G01*
G37*
G36*
G01*
X137305500Y-97794000D02*
X137305500Y-98294000D01*
G75*
G02*
X137080500Y-98519000I-225000J0D01*
G01*
X136630500Y-98519000D01*
G75*
G02*
X136405500Y-98294000I0J225000D01*
G01*
X136405500Y-97794000D01*
G75*
G02*
X136630500Y-97569000I225000J0D01*
G01*
X137080500Y-97569000D01*
G75*
G02*
X137305500Y-97794000I0J-225000D01*
G01*
G37*
G36*
G01*
X125924500Y-102687000D02*
X126424500Y-102687000D01*
G75*
G02*
X126649500Y-102912000I0J-225000D01*
G01*
X126649500Y-103362000D01*
G75*
G02*
X126424500Y-103587000I-225000J0D01*
G01*
X125924500Y-103587000D01*
G75*
G02*
X125699500Y-103362000I0J225000D01*
G01*
X125699500Y-102912000D01*
G75*
G02*
X125924500Y-102687000I225000J0D01*
G01*
G37*
G36*
G01*
X125924500Y-101137000D02*
X126424500Y-101137000D01*
G75*
G02*
X126649500Y-101362000I0J-225000D01*
G01*
X126649500Y-101812000D01*
G75*
G02*
X126424500Y-102037000I-225000J0D01*
G01*
X125924500Y-102037000D01*
G75*
G02*
X125699500Y-101812000I0J225000D01*
G01*
X125699500Y-101362000D01*
G75*
G02*
X125924500Y-101137000I225000J0D01*
G01*
G37*
G36*
G01*
X128722000Y-114169000D02*
X128722000Y-113669000D01*
G75*
G02*
X128947000Y-113444000I225000J0D01*
G01*
X129397000Y-113444000D01*
G75*
G02*
X129622000Y-113669000I0J-225000D01*
G01*
X129622000Y-114169000D01*
G75*
G02*
X129397000Y-114394000I-225000J0D01*
G01*
X128947000Y-114394000D01*
G75*
G02*
X128722000Y-114169000I0J225000D01*
G01*
G37*
G36*
G01*
X127172000Y-114169000D02*
X127172000Y-113669000D01*
G75*
G02*
X127397000Y-113444000I225000J0D01*
G01*
X127847000Y-113444000D01*
G75*
G02*
X128072000Y-113669000I0J-225000D01*
G01*
X128072000Y-114169000D01*
G75*
G02*
X127847000Y-114394000I-225000J0D01*
G01*
X127397000Y-114394000D01*
G75*
G02*
X127172000Y-114169000I0J225000D01*
G01*
G37*
G36*
G01*
X140985000Y-116757001D02*
X140985000Y-115906999D01*
G75*
G02*
X141234999Y-115657000I249999J0D01*
G01*
X142135001Y-115657000D01*
G75*
G02*
X142385000Y-115906999I0J-249999D01*
G01*
X142385000Y-116757001D01*
G75*
G02*
X142135001Y-117007000I-249999J0D01*
G01*
X141234999Y-117007000D01*
G75*
G02*
X140985000Y-116757001I0J249999D01*
G01*
G37*
G36*
G01*
X138285000Y-116757001D02*
X138285000Y-115906999D01*
G75*
G02*
X138534999Y-115657000I249999J0D01*
G01*
X139435001Y-115657000D01*
G75*
G02*
X139685000Y-115906999I0J-249999D01*
G01*
X139685000Y-116757001D01*
G75*
G02*
X139435001Y-117007000I-249999J0D01*
G01*
X138534999Y-117007000D01*
G75*
G02*
X138285000Y-116757001I0J249999D01*
G01*
G37*
G36*
G01*
X141336000Y-105810499D02*
X141336000Y-106660501D01*
G75*
G02*
X141086001Y-106910500I-249999J0D01*
G01*
X140185999Y-106910500D01*
G75*
G02*
X139936000Y-106660501I0J249999D01*
G01*
X139936000Y-105810499D01*
G75*
G02*
X140185999Y-105560500I249999J0D01*
G01*
X141086001Y-105560500D01*
G75*
G02*
X141336000Y-105810499I0J-249999D01*
G01*
G37*
G36*
G01*
X144036000Y-105810499D02*
X144036000Y-106660501D01*
G75*
G02*
X143786001Y-106910500I-249999J0D01*
G01*
X142885999Y-106910500D01*
G75*
G02*
X142636000Y-106660501I0J249999D01*
G01*
X142636000Y-105810499D01*
G75*
G02*
X142885999Y-105560500I249999J0D01*
G01*
X143786001Y-105560500D01*
G75*
G02*
X144036000Y-105810499I0J-249999D01*
G01*
G37*
G36*
G01*
X144724000Y-115058000D02*
X144724000Y-114558000D01*
G75*
G02*
X144949000Y-114333000I225000J0D01*
G01*
X145399000Y-114333000D01*
G75*
G02*
X145624000Y-114558000I0J-225000D01*
G01*
X145624000Y-115058000D01*
G75*
G02*
X145399000Y-115283000I-225000J0D01*
G01*
X144949000Y-115283000D01*
G75*
G02*
X144724000Y-115058000I0J225000D01*
G01*
G37*
G36*
G01*
X143174000Y-115058000D02*
X143174000Y-114558000D01*
G75*
G02*
X143399000Y-114333000I225000J0D01*
G01*
X143849000Y-114333000D01*
G75*
G02*
X144074000Y-114558000I0J-225000D01*
G01*
X144074000Y-115058000D01*
G75*
G02*
X143849000Y-115283000I-225000J0D01*
G01*
X143399000Y-115283000D01*
G75*
G02*
X143174000Y-115058000I0J225000D01*
G01*
G37*
G36*
G01*
X147708500Y-109851000D02*
X147708500Y-109351000D01*
G75*
G02*
X147933500Y-109126000I225000J0D01*
G01*
X148383500Y-109126000D01*
G75*
G02*
X148608500Y-109351000I0J-225000D01*
G01*
X148608500Y-109851000D01*
G75*
G02*
X148383500Y-110076000I-225000J0D01*
G01*
X147933500Y-110076000D01*
G75*
G02*
X147708500Y-109851000I0J225000D01*
G01*
G37*
G36*
G01*
X146158500Y-109851000D02*
X146158500Y-109351000D01*
G75*
G02*
X146383500Y-109126000I225000J0D01*
G01*
X146833500Y-109126000D01*
G75*
G02*
X147058500Y-109351000I0J-225000D01*
G01*
X147058500Y-109851000D01*
G75*
G02*
X146833500Y-110076000I-225000J0D01*
G01*
X146383500Y-110076000D01*
G75*
G02*
X146158500Y-109851000I0J225000D01*
G01*
G37*
G36*
G01*
X131620500Y-115335499D02*
X131620500Y-116185501D01*
G75*
G02*
X131370501Y-116435500I-249999J0D01*
G01*
X130470499Y-116435500D01*
G75*
G02*
X130220500Y-116185501I0J249999D01*
G01*
X130220500Y-115335499D01*
G75*
G02*
X130470499Y-115085500I249999J0D01*
G01*
X131370501Y-115085500D01*
G75*
G02*
X131620500Y-115335499I0J-249999D01*
G01*
G37*
G36*
G01*
X134320500Y-115335499D02*
X134320500Y-116185501D01*
G75*
G02*
X134070501Y-116435500I-249999J0D01*
G01*
X133170499Y-116435500D01*
G75*
G02*
X132920500Y-116185501I0J249999D01*
G01*
X132920500Y-115335499D01*
G75*
G02*
X133170499Y-115085500I249999J0D01*
G01*
X134070501Y-115085500D01*
G75*
G02*
X134320500Y-115335499I0J-249999D01*
G01*
G37*
G36*
G01*
X133051100Y-106576599D02*
X133051100Y-107426601D01*
G75*
G02*
X132801101Y-107676600I-249999J0D01*
G01*
X131901099Y-107676600D01*
G75*
G02*
X131651100Y-107426601I0J249999D01*
G01*
X131651100Y-106576599D01*
G75*
G02*
X131901099Y-106326600I249999J0D01*
G01*
X132801101Y-106326600D01*
G75*
G02*
X133051100Y-106576599I0J-249999D01*
G01*
G37*
G36*
G01*
X135751100Y-106576599D02*
X135751100Y-107426601D01*
G75*
G02*
X135501101Y-107676600I-249999J0D01*
G01*
X134601099Y-107676600D01*
G75*
G02*
X134351100Y-107426601I0J249999D01*
G01*
X134351100Y-106576599D01*
G75*
G02*
X134601099Y-106326600I249999J0D01*
G01*
X135501101Y-106326600D01*
G75*
G02*
X135751100Y-106576599I0J-249999D01*
G01*
G37*
G36*
G01*
X131770000Y-114169000D02*
X131770000Y-113669000D01*
G75*
G02*
X131995000Y-113444000I225000J0D01*
G01*
X132445000Y-113444000D01*
G75*
G02*
X132670000Y-113669000I0J-225000D01*
G01*
X132670000Y-114169000D01*
G75*
G02*
X132445000Y-114394000I-225000J0D01*
G01*
X131995000Y-114394000D01*
G75*
G02*
X131770000Y-114169000I0J225000D01*
G01*
G37*
G36*
G01*
X130220000Y-114169000D02*
X130220000Y-113669000D01*
G75*
G02*
X130445000Y-113444000I225000J0D01*
G01*
X130895000Y-113444000D01*
G75*
G02*
X131120000Y-113669000I0J-225000D01*
G01*
X131120000Y-114169000D01*
G75*
G02*
X130895000Y-114394000I-225000J0D01*
G01*
X130445000Y-114394000D01*
G75*
G02*
X130220000Y-114169000I0J225000D01*
G01*
G37*
G36*
G01*
X137216000Y-106049000D02*
X137216000Y-106549000D01*
G75*
G02*
X136991000Y-106774000I-225000J0D01*
G01*
X136541000Y-106774000D01*
G75*
G02*
X136316000Y-106549000I0J225000D01*
G01*
X136316000Y-106049000D01*
G75*
G02*
X136541000Y-105824000I225000J0D01*
G01*
X136991000Y-105824000D01*
G75*
G02*
X137216000Y-106049000I0J-225000D01*
G01*
G37*
G36*
G01*
X138766000Y-106049000D02*
X138766000Y-106549000D01*
G75*
G02*
X138541000Y-106774000I-225000J0D01*
G01*
X138091000Y-106774000D01*
G75*
G02*
X137866000Y-106549000I0J225000D01*
G01*
X137866000Y-106049000D01*
G75*
G02*
X138091000Y-105824000I225000J0D01*
G01*
X138541000Y-105824000D01*
G75*
G02*
X138766000Y-106049000I0J-225000D01*
G01*
G37*
G36*
G01*
X166304099Y-103427500D02*
X168154101Y-103427500D01*
G75*
G02*
X168404100Y-103677499I0J-249999D01*
G01*
X168404100Y-104502501D01*
G75*
G02*
X168154101Y-104752500I-249999J0D01*
G01*
X166304099Y-104752500D01*
G75*
G02*
X166054100Y-104502501I0J249999D01*
G01*
X166054100Y-103677499D01*
G75*
G02*
X166304099Y-103427500I249999J0D01*
G01*
G37*
G36*
G01*
X166304099Y-100352500D02*
X168154101Y-100352500D01*
G75*
G02*
X168404100Y-100602499I0J-249999D01*
G01*
X168404100Y-101427501D01*
G75*
G02*
X168154101Y-101677500I-249999J0D01*
G01*
X166304099Y-101677500D01*
G75*
G02*
X166054100Y-101427501I0J249999D01*
G01*
X166054100Y-100602499D01*
G75*
G02*
X166304099Y-100352500I249999J0D01*
G01*
G37*
G36*
G01*
X165032500Y-102291000D02*
X164532500Y-102291000D01*
G75*
G02*
X164307500Y-102066000I0J225000D01*
G01*
X164307500Y-101616000D01*
G75*
G02*
X164532500Y-101391000I225000J0D01*
G01*
X165032500Y-101391000D01*
G75*
G02*
X165257500Y-101616000I0J-225000D01*
G01*
X165257500Y-102066000D01*
G75*
G02*
X165032500Y-102291000I-225000J0D01*
G01*
G37*
G36*
G01*
X165032500Y-103841000D02*
X164532500Y-103841000D01*
G75*
G02*
X164307500Y-103616000I0J225000D01*
G01*
X164307500Y-103166000D01*
G75*
G02*
X164532500Y-102941000I225000J0D01*
G01*
X165032500Y-102941000D01*
G75*
G02*
X165257500Y-103166000I0J-225000D01*
G01*
X165257500Y-103616000D01*
G75*
G02*
X165032500Y-103841000I-225000J0D01*
G01*
G37*
G36*
G01*
X168154101Y-96728600D02*
X166304099Y-96728600D01*
G75*
G02*
X166054100Y-96478601I0J249999D01*
G01*
X166054100Y-95653599D01*
G75*
G02*
X166304099Y-95403600I249999J0D01*
G01*
X168154101Y-95403600D01*
G75*
G02*
X168404100Y-95653599I0J-249999D01*
G01*
X168404100Y-96478601D01*
G75*
G02*
X168154101Y-96728600I-249999J0D01*
G01*
G37*
G36*
G01*
X168154101Y-99803600D02*
X166304099Y-99803600D01*
G75*
G02*
X166054100Y-99553601I0J249999D01*
G01*
X166054100Y-98728599D01*
G75*
G02*
X166304099Y-98478600I249999J0D01*
G01*
X168154101Y-98478600D01*
G75*
G02*
X168404100Y-98728599I0J-249999D01*
G01*
X168404100Y-99553601D01*
G75*
G02*
X168154101Y-99803600I-249999J0D01*
G01*
G37*
G36*
G01*
X165032500Y-99306500D02*
X164532500Y-99306500D01*
G75*
G02*
X164307500Y-99081500I0J225000D01*
G01*
X164307500Y-98631500D01*
G75*
G02*
X164532500Y-98406500I225000J0D01*
G01*
X165032500Y-98406500D01*
G75*
G02*
X165257500Y-98631500I0J-225000D01*
G01*
X165257500Y-99081500D01*
G75*
G02*
X165032500Y-99306500I-225000J0D01*
G01*
G37*
G36*
G01*
X165032500Y-100856500D02*
X164532500Y-100856500D01*
G75*
G02*
X164307500Y-100631500I0J225000D01*
G01*
X164307500Y-100181500D01*
G75*
G02*
X164532500Y-99956500I225000J0D01*
G01*
X165032500Y-99956500D01*
G75*
G02*
X165257500Y-100181500I0J-225000D01*
G01*
X165257500Y-100631500D01*
G75*
G02*
X165032500Y-100856500I-225000J0D01*
G01*
G37*
G36*
G01*
X161155500Y-114367500D02*
X161155500Y-114867500D01*
G75*
G02*
X160930500Y-115092500I-225000J0D01*
G01*
X160480500Y-115092500D01*
G75*
G02*
X160255500Y-114867500I0J225000D01*
G01*
X160255500Y-114367500D01*
G75*
G02*
X160480500Y-114142500I225000J0D01*
G01*
X160930500Y-114142500D01*
G75*
G02*
X161155500Y-114367500I0J-225000D01*
G01*
G37*
G36*
G01*
X162705500Y-114367500D02*
X162705500Y-114867500D01*
G75*
G02*
X162480500Y-115092500I-225000J0D01*
G01*
X162030500Y-115092500D01*
G75*
G02*
X161805500Y-114867500I0J225000D01*
G01*
X161805500Y-114367500D01*
G75*
G02*
X162030500Y-114142500I225000J0D01*
G01*
X162480500Y-114142500D01*
G75*
G02*
X162705500Y-114367500I0J-225000D01*
G01*
G37*
G36*
G01*
X167460500Y-94566501D02*
X167460500Y-93266499D01*
G75*
G02*
X167710499Y-93016500I249999J0D01*
G01*
X168360501Y-93016500D01*
G75*
G02*
X168610500Y-93266499I0J-249999D01*
G01*
X168610500Y-94566501D01*
G75*
G02*
X168360501Y-94816500I-249999J0D01*
G01*
X167710499Y-94816500D01*
G75*
G02*
X167460500Y-94566501I0J249999D01*
G01*
G37*
G36*
G01*
X164510500Y-94566501D02*
X164510500Y-93266499D01*
G75*
G02*
X164760499Y-93016500I249999J0D01*
G01*
X165410501Y-93016500D01*
G75*
G02*
X165660500Y-93266499I0J-249999D01*
G01*
X165660500Y-94566501D01*
G75*
G02*
X165410501Y-94816500I-249999J0D01*
G01*
X164760499Y-94816500D01*
G75*
G02*
X164510500Y-94566501I0J249999D01*
G01*
G37*
G36*
G01*
X165032500Y-96322000D02*
X164532500Y-96322000D01*
G75*
G02*
X164307500Y-96097000I0J225000D01*
G01*
X164307500Y-95647000D01*
G75*
G02*
X164532500Y-95422000I225000J0D01*
G01*
X165032500Y-95422000D01*
G75*
G02*
X165257500Y-95647000I0J-225000D01*
G01*
X165257500Y-96097000D01*
G75*
G02*
X165032500Y-96322000I-225000J0D01*
G01*
G37*
G36*
G01*
X165032500Y-97872000D02*
X164532500Y-97872000D01*
G75*
G02*
X164307500Y-97647000I0J225000D01*
G01*
X164307500Y-97197000D01*
G75*
G02*
X164532500Y-96972000I225000J0D01*
G01*
X165032500Y-96972000D01*
G75*
G02*
X165257500Y-97197000I0J-225000D01*
G01*
X165257500Y-97647000D01*
G75*
G02*
X165032500Y-97872000I-225000J0D01*
G01*
G37*
G36*
G01*
X144010500Y-107827000D02*
X144010500Y-108327000D01*
G75*
G02*
X143785500Y-108552000I-225000J0D01*
G01*
X143335500Y-108552000D01*
G75*
G02*
X143110500Y-108327000I0J225000D01*
G01*
X143110500Y-107827000D01*
G75*
G02*
X143335500Y-107602000I225000J0D01*
G01*
X143785500Y-107602000D01*
G75*
G02*
X144010500Y-107827000I0J-225000D01*
G01*
G37*
G36*
G01*
X145560500Y-107827000D02*
X145560500Y-108327000D01*
G75*
G02*
X145335500Y-108552000I-225000J0D01*
G01*
X144885500Y-108552000D01*
G75*
G02*
X144660500Y-108327000I0J225000D01*
G01*
X144660500Y-107827000D01*
G75*
G02*
X144885500Y-107602000I225000J0D01*
G01*
X145335500Y-107602000D01*
G75*
G02*
X145560500Y-107827000I0J-225000D01*
G01*
G37*
G36*
G01*
X147742100Y-116582000D02*
X147742100Y-116082000D01*
G75*
G02*
X147967100Y-115857000I225000J0D01*
G01*
X148417100Y-115857000D01*
G75*
G02*
X148642100Y-116082000I0J-225000D01*
G01*
X148642100Y-116582000D01*
G75*
G02*
X148417100Y-116807000I-225000J0D01*
G01*
X147967100Y-116807000D01*
G75*
G02*
X147742100Y-116582000I0J225000D01*
G01*
G37*
G36*
G01*
X146192100Y-116582000D02*
X146192100Y-116082000D01*
G75*
G02*
X146417100Y-115857000I225000J0D01*
G01*
X146867100Y-115857000D01*
G75*
G02*
X147092100Y-116082000I0J-225000D01*
G01*
X147092100Y-116582000D01*
G75*
G02*
X146867100Y-116807000I-225000J0D01*
G01*
X146417100Y-116807000D01*
G75*
G02*
X146192100Y-116582000I0J225000D01*
G01*
G37*
G36*
G01*
X151697500Y-116070500D02*
X151197500Y-116070500D01*
G75*
G02*
X150972500Y-115845500I0J225000D01*
G01*
X150972500Y-115395500D01*
G75*
G02*
X151197500Y-115170500I225000J0D01*
G01*
X151697500Y-115170500D01*
G75*
G02*
X151922500Y-115395500I0J-225000D01*
G01*
X151922500Y-115845500D01*
G75*
G02*
X151697500Y-116070500I-225000J0D01*
G01*
G37*
G36*
G01*
X151697500Y-117620500D02*
X151197500Y-117620500D01*
G75*
G02*
X150972500Y-117395500I0J225000D01*
G01*
X150972500Y-116945500D01*
G75*
G02*
X151197500Y-116720500I225000J0D01*
G01*
X151697500Y-116720500D01*
G75*
G02*
X151922500Y-116945500I0J-225000D01*
G01*
X151922500Y-117395500D01*
G75*
G02*
X151697500Y-117620500I-225000J0D01*
G01*
G37*
M02*
